solid OpenSCAD_Model
  facet normal -1 -0 -0
    outer loop
      vertex -8 -40 -12.5
      vertex -8 -40 12.5
      vertex -8 40 -12.5
    endloop
  endfacet
  facet normal -1 0 0
    outer loop
      vertex -8 40 -12.5
      vertex -8 -40 12.5
      vertex -8 40 12.5
    endloop
  endfacet
  facet normal 0 -1 0
    outer loop
      vertex -8 -40 12.5
      vertex -8 -40 -12.5
      vertex 25.5 -40 -12.5
    endloop
  endfacet
  facet normal 0 -1 0
    outer loop
      vertex 25.5 -40 12.5
      vertex -8 -40 12.5
      vertex 25.5 -40 -12.5
    endloop
  endfacet
  facet normal -0 -0 -1
    outer loop
      vertex -8 -40 -12.5
      vertex -8 40 -12.5
      vertex 25.5 -40 -12.5
    endloop
  endfacet
  facet normal 0 0 -1
    outer loop
      vertex 25.5 15 -12.5
      vertex -8 40 -12.5
      vertex 25.5 40 -12.5
    endloop
  endfacet
  facet normal 0 -0 -1
    outer loop
      vertex 24 10 -12.5
      vertex -8 40 -12.5
      vertex 25.5 15 -12.5
    endloop
  endfacet
  facet normal 0 0 -1
    outer loop
      vertex 44 -10 -12.5
      vertex 25.5 -15 -12.5
      vertex 24 -10 -12.5
    endloop
  endfacet
  facet normal 0 0 -1
    outer loop
      vertex 24 -10 -12.5
      vertex -8 40 -12.5
      vertex 24 10 -12.5
    endloop
  endfacet
  facet normal 0 0 -1
    outer loop
      vertex 25.5 -40 -12.5
      vertex -8 40 -12.5
      vertex 24 -10 -12.5
    endloop
  endfacet
  facet normal -0 0 -1
    outer loop
      vertex 25.5 -15 -12.5
      vertex 44 -10 -12.5
      vertex 44 -15 -12.5
    endloop
  endfacet
  facet normal 0 0 -1
    outer loop
      vertex 25.5 -15 -12.5
      vertex 25.5 -40 -12.5
      vertex 24 -10 -12.5
    endloop
  endfacet
  facet normal 0 0 -1
    outer loop
      vertex 24 10 -12.5
      vertex 25.5 15 -12.5
      vertex 44 15 -12.5
    endloop
  endfacet
  facet normal -0 0 -1
    outer loop
      vertex 24 10 -12.5
      vertex 44 15 -12.5
      vertex 44 10 -12.5
    endloop
  endfacet
  facet normal 0 1 0
    outer loop
      vertex -8 40 -12.5
      vertex -8 40 12.5
      vertex 25.5 40 -12.5
    endloop
  endfacet
  facet normal 0 1 0
    outer loop
      vertex 25.5 40 -12.5
      vertex -8 40 12.5
      vertex 25.5 40 12.5
    endloop
  endfacet
  facet normal 0 -0 1
    outer loop
      vertex 2.27226 -33.2919 12.5
      vertex -8 -40 12.5
      vertex 25.5 -40 12.5
    endloop
  endfacet
  facet normal -0 -0 1
    outer loop
      vertex 0.482147 26.0292 12.5
      vertex -1.41842 26.2599 12.5
      vertex 25.5 -15 12.5
    endloop
  endfacet
  facet normal 0 0 1
    outer loop
      vertex 24 -10 12.5
      vertex 24 10 12.5
      vertex 3.54182 28.1411 12.5
    endloop
  endfacet
  facet normal 0 0 1
    outer loop
      vertex 25.5 15 12.5
      vertex 2.27226 33.2919 12.5
      vertex 3.54182 31.8589 12.5
    endloop
  endfacet
  facet normal -0 0 1
    outer loop
      vertex 44 -15 12.5
      vertex 24 -10 12.5
      vertex 25.5 -15 12.5
    endloop
  endfacet
  facet normal 0 -0 1
    outer loop
      vertex 2.27226 26.7081 12.5
      vertex 0.482147 26.0292 12.5
      vertex 25.5 -15 12.5
    endloop
  endfacet
  facet normal 0 0 1
    outer loop
      vertex -2.29201 2.64512 12.5
      vertex -0.498102 3.46437 12.5
      vertex -3.88377 29.0427 12.5
    endloop
  endfacet
  facet normal -0 0 1
    outer loop
      vertex 44 10 12.5
      vertex 25.5 15 12.5
      vertex 24 10 12.5
    endloop
  endfacet
  facet normal 0 -0 1
    outer loop
      vertex -8 40 12.5
      vertex -8 -40 12.5
      vertex -3.88377 -30.9573 12.5
    endloop
  endfacet
  facet normal 0 -0 1
    outer loop
      vertex 3.54182 -31.8589 12.5
      vertex 2.27226 -33.2919 12.5
      vertex 25.5 -40 12.5
    endloop
  endfacet
  facet normal 0 0 1
    outer loop
      vertex -8 40 12.5
      vertex -3.88377 -30.9573 12.5
      vertex -3.88377 -29.0427 12.5
    endloop
  endfacet
  facet normal 0 0 1
    outer loop
      vertex -3.88377 29.0427 12.5
      vertex -3.88377 30.9573 12.5
      vertex -8 40 12.5
    endloop
  endfacet
  facet normal 0 0 1
    outer loop
      vertex -8 40 12.5
      vertex -3.88377 -29.0427 12.5
      vertex -2.99404 -27.3475 12.5
    endloop
  endfacet
  facet normal 0 0 1
    outer loop
      vertex -8 40 12.5
      vertex -2.99404 -27.3475 12.5
      vertex -1.41842 -26.2599 12.5
    endloop
  endfacet
  facet normal 0 0 1
    outer loop
      vertex 3.54182 -28.1411 12.5
      vertex 4 -30 12.5
      vertex 25.5 -40 12.5
    endloop
  endfacet
  facet normal 0 0 1
    outer loop
      vertex -3.35823 -0.986064 12.5
      vertex -1.41842 -26.2599 12.5
      vertex 0.482147 -26.0292 12.5
    endloop
  endfacet
  facet normal 0 0 1
    outer loop
      vertex 1.45395 -3.18371 12.5
      vertex 2.27226 -26.7081 12.5
      vertex 25.5 -40 12.5
    endloop
  endfacet
  facet normal 0 -0 1
    outer loop
      vertex 0.482147 -33.9708 12.5
      vertex -8 -40 12.5
      vertex 2.27226 -33.2919 12.5
    endloop
  endfacet
  facet normal 0 -0 1
    outer loop
      vertex -1.41842 -33.7401 12.5
      vertex -8 -40 12.5
      vertex 0.482147 -33.9708 12.5
    endloop
  endfacet
  facet normal 0 -0 1
    outer loop
      vertex -2.99404 -32.6525 12.5
      vertex -8 -40 12.5
      vertex -1.41842 -33.7401 12.5
    endloop
  endfacet
  facet normal 0 -0 1
    outer loop
      vertex -3.88377 -30.9573 12.5
      vertex -8 -40 12.5
      vertex -2.99404 -32.6525 12.5
    endloop
  endfacet
  facet normal -0 -0 1
    outer loop
      vertex -2.99404 27.3475 12.5
      vertex -3.88377 29.0427 12.5
      vertex 25.5 -40 12.5
    endloop
  endfacet
  facet normal 0 -0 1
    outer loop
      vertex 3.5 0 12.5
      vertex 2.94439 -1.89224 12.5
      vertex 25.5 -40 12.5
    endloop
  endfacet
  facet normal 0 0 1
    outer loop
      vertex -1.41842 33.7401 12.5
      vertex 0.482147 33.9708 12.5
      vertex -8 40 12.5
    endloop
  endfacet
  facet normal -0 -0 1
    outer loop
      vertex -2.29201 -2.64512 12.5
      vertex -3.35823 -0.986064 12.5
      vertex 0.482147 -26.0292 12.5
    endloop
  endfacet
  facet normal 0 0 1
    outer loop
      vertex -2.29201 2.64512 12.5
      vertex -3.88377 29.0427 12.5
      vertex -8 40 12.5
    endloop
  endfacet
  facet normal 0 -0 1
    outer loop
      vertex 4 30 12.5
      vertex 3.54182 28.1411 12.5
      vertex 24 10 12.5
    endloop
  endfacet
  facet normal 0 0 1
    outer loop
      vertex 2.27226 33.2919 12.5
      vertex -8 40 12.5
      vertex 0.482147 33.9708 12.5
    endloop
  endfacet
  facet normal 0 0 1
    outer loop
      vertex 25.5 15 12.5
      vertex 25.5 40 12.5
      vertex 2.27226 33.2919 12.5
    endloop
  endfacet
  facet normal 0 0 1
    outer loop
      vertex -3.88377 30.9573 12.5
      vertex -2.99404 32.6525 12.5
      vertex -8 40 12.5
    endloop
  endfacet
  facet normal 0 0 1
    outer loop
      vertex 2.27226 33.2919 12.5
      vertex 25.5 40 12.5
      vertex -8 40 12.5
    endloop
  endfacet
  facet normal -0 0 1
    outer loop
      vertex 25.5 15 12.5
      vertex 4 30 12.5
      vertex 24 10 12.5
    endloop
  endfacet
  facet normal 0 0 1
    outer loop
      vertex 3.54182 31.8589 12.5
      vertex 4 30 12.5
      vertex 25.5 15 12.5
    endloop
  endfacet
  facet normal 0 0 1
    outer loop
      vertex 44 15 12.5
      vertex 25.5 15 12.5
      vertex 44 10 12.5
    endloop
  endfacet
  facet normal 0 0 1
    outer loop
      vertex 2.27226 -26.7081 12.5
      vertex 3.54182 -28.1411 12.5
      vertex 25.5 -40 12.5
    endloop
  endfacet
  facet normal -0 -0 1
    outer loop
      vertex -1.41842 26.2599 12.5
      vertex -2.99404 27.3475 12.5
      vertex 25.5 -40 12.5
    endloop
  endfacet
  facet normal 0 0 1
    outer loop
      vertex -2.99404 32.6525 12.5
      vertex -1.41842 33.7401 12.5
      vertex -8 40 12.5
    endloop
  endfacet
  facet normal -0 0 1
    outer loop
      vertex 25.5 -15 12.5
      vertex -1.41842 26.2599 12.5
      vertex 25.5 -40 12.5
    endloop
  endfacet
  facet normal 0 0 1
    outer loop
      vertex -8 40 12.5
      vertex -1.41842 -26.2599 12.5
      vertex -3.35823 -0.986064 12.5
    endloop
  endfacet
  facet normal 0 0 1
    outer loop
      vertex -3.35823 0.986064 12.5
      vertex -2.29201 2.64512 12.5
      vertex -8 40 12.5
    endloop
  endfacet
  facet normal 0 0 1
    outer loop
      vertex -8 40 12.5
      vertex -3.35823 -0.986064 12.5
      vertex -3.35823 0.986064 12.5
    endloop
  endfacet
  facet normal 0 -0 1
    outer loop
      vertex 1.45395 -3.18371 12.5
      vertex -0.498102 -3.46437 12.5
      vertex 2.27226 -26.7081 12.5
    endloop
  endfacet
  facet normal 0 -0 1
    outer loop
      vertex 2.94439 -1.89224 12.5
      vertex 1.45395 -3.18371 12.5
      vertex 25.5 -40 12.5
    endloop
  endfacet
  facet normal 0 0 1
    outer loop
      vertex -3.88377 29.0427 12.5
      vertex -0.498102 3.46437 12.5
      vertex 1.45395 3.18371 12.5
    endloop
  endfacet
  facet normal 0 0 1
    outer loop
      vertex -3.88377 29.0427 12.5
      vertex 2.94439 1.89224 12.5
      vertex 25.5 -40 12.5
    endloop
  endfacet
  facet normal 0 0 1
    outer loop
      vertex -3.88377 29.0427 12.5
      vertex 1.45395 3.18371 12.5
      vertex 2.94439 1.89224 12.5
    endloop
  endfacet
  facet normal 0 0 1
    outer loop
      vertex 2.94439 1.89224 12.5
      vertex 3.5 0 12.5
      vertex 25.5 -40 12.5
    endloop
  endfacet
  facet normal 0 0 1
    outer loop
      vertex -0.498102 -3.46437 12.5
      vertex 0.482147 -26.0292 12.5
      vertex 2.27226 -26.7081 12.5
    endloop
  endfacet
  facet normal -0 -0 1
    outer loop
      vertex -0.498102 -3.46437 12.5
      vertex -2.29201 -2.64512 12.5
      vertex 0.482147 -26.0292 12.5
    endloop
  endfacet
  facet normal 0 0 1
    outer loop
      vertex 2.27226 26.7081 12.5
      vertex 25.5 -15 12.5
      vertex 24 -10 12.5
    endloop
  endfacet
  facet normal 0 0 1
    outer loop
      vertex 24 -10 12.5
      vertex 3.54182 28.1411 12.5
      vertex 2.27226 26.7081 12.5
    endloop
  endfacet
  facet normal 0 -0 1
    outer loop
      vertex 4 -30 12.5
      vertex 3.54182 -31.8589 12.5
      vertex 25.5 -40 12.5
    endloop
  endfacet
  facet normal 0 0 1
    outer loop
      vertex 44 -10 12.5
      vertex 24 -10 12.5
      vertex 44 -15 12.5
    endloop
  endfacet
  facet normal 1 0 -0
    outer loop
      vertex 25.5 -40 12.5
      vertex 25.5 -40 -12.5
      vertex 25.5 -15 -12.5
    endloop
  endfacet
  facet normal 1 0 0
    outer loop
      vertex 25.5 -15 12.5
      vertex 25.5 -40 12.5
      vertex 25.5 -15 -12.5
    endloop
  endfacet
  facet normal 0 -1 0
    outer loop
      vertex 32.2322 -15 -1.76777
      vertex 25.5 -15 -12.5
      vertex 44 -15 -12.5
    endloop
  endfacet
  facet normal 0 -1 0
    outer loop
      vertex 25.5 -15 12.5
      vertex 25.5 -15 -12.5
      vertex 32.2322 -15 -1.76777
    endloop
  endfacet
  facet normal 0 -1 0
    outer loop
      vertex 25.5 -15 12.5
      vertex 32.2322 -15 -1.76777
      vertex 31.5 -15 3.33067e-15
    endloop
  endfacet
  facet normal 0 -1 0
    outer loop
      vertex 25.5 -15 12.5
      vertex 31.5 -15 3.33067e-15
      vertex 32.2322 -15 1.76777
    endloop
  endfacet
  facet normal 0 -1 0
    outer loop
      vertex 35.7678 -15 -1.76777
      vertex 34 -15 -2.5
      vertex 44 -15 -12.5
    endloop
  endfacet
  facet normal 0 -1 0
    outer loop
      vertex 44 -15 12.5
      vertex 25.5 -15 12.5
      vertex 34 -15 2.5
    endloop
  endfacet
  facet normal 0 -1 0
    outer loop
      vertex 44 -15 12.5
      vertex 35.7678 -15 1.76777
      vertex 44 -15 -12.5
    endloop
  endfacet
  facet normal 0 -1 0
    outer loop
      vertex 44 -15 12.5
      vertex 34 -15 2.5
      vertex 35.7678 -15 1.76777
    endloop
  endfacet
  facet normal 0 -1 0
    outer loop
      vertex 35.7678 -15 1.76777
      vertex 36.5 -15 3.33067e-15
      vertex 44 -15 -12.5
    endloop
  endfacet
  facet normal 0 -1 0
    outer loop
      vertex 36.5 -15 3.33067e-15
      vertex 35.7678 -15 -1.76777
      vertex 44 -15 -12.5
    endloop
  endfacet
  facet normal 0 -1 0
    outer loop
      vertex 34 -15 -2.5
      vertex 32.2322 -15 -1.76777
      vertex 44 -15 -12.5
    endloop
  endfacet
  facet normal 0 -1 -0
    outer loop
      vertex 32.2322 -15 1.76777
      vertex 34 -15 2.5
      vertex 25.5 -15 12.5
    endloop
  endfacet
  facet normal 1 0 -0
    outer loop
      vertex 44 -15 12.5
      vertex 44 -15 -12.5
      vertex 44 -10 -12.5
    endloop
  endfacet
  facet normal 1 0 0
    outer loop
      vertex 44 -10 12.5
      vertex 44 -15 12.5
      vertex 44 -10 -12.5
    endloop
  endfacet
  facet normal 0 1 0
    outer loop
      vertex 32.2322 -10 1.76777
      vertex 24 -10 12.5
      vertex 34 -10 2.5
    endloop
  endfacet
  facet normal 0 1 -0
    outer loop
      vertex 32.2322 -10 -1.76777
      vertex 44 -10 -12.5
      vertex 24 -10 -12.5
    endloop
  endfacet
  facet normal -0 1 -0
    outer loop
      vertex 34 -10 -2.5
      vertex 44 -10 -12.5
      vertex 32.2322 -10 -1.76777
    endloop
  endfacet
  facet normal 0 1 -0
    outer loop
      vertex 24 -10 12.5
      vertex 32.2322 -10 -1.76777
      vertex 24 -10 -12.5
    endloop
  endfacet
  facet normal 0 1 0
    outer loop
      vertex 44 -10 12.5
      vertex 44 -10 -12.5
      vertex 35.7678 -10 -1.76777
    endloop
  endfacet
  facet normal 0 1 0
    outer loop
      vertex 44 -10 12.5
      vertex 35.7678 -10 -1.76777
      vertex 36.5 -10 2.22045e-15
    endloop
  endfacet
  facet normal 0 1 0
    outer loop
      vertex 44 -10 12.5
      vertex 36.5 -10 2.22045e-15
      vertex 35.7678 -10 1.76777
    endloop
  endfacet
  facet normal 0 1 0
    outer loop
      vertex 44 -10 12.5
      vertex 35.7678 -10 1.76777
      vertex 24 -10 12.5
    endloop
  endfacet
  facet normal 0 1 0
    outer loop
      vertex 35.7678 -10 1.76777
      vertex 34 -10 2.5
      vertex 24 -10 12.5
    endloop
  endfacet
  facet normal 0 1 0
    outer loop
      vertex 24 -10 12.5
      vertex 31.5 -10 2.22045e-15
      vertex 32.2322 -10 -1.76777
    endloop
  endfacet
  facet normal 0 1 -0
    outer loop
      vertex 35.7678 -10 -1.76777
      vertex 44 -10 -12.5
      vertex 34 -10 -2.5
    endloop
  endfacet
  facet normal 0 1 0
    outer loop
      vertex 31.5 -10 2.22045e-15
      vertex 24 -10 12.5
      vertex 32.2322 -10 1.76777
    endloop
  endfacet
  facet normal 1 0 0
    outer loop
      vertex 24 10 -12.5
      vertex 24 10 12.5
      vertex 24 -10 12.5
    endloop
  endfacet
  facet normal 1 0 0
    outer loop
      vertex 24 -10 -12.5
      vertex 24 10 -12.5
      vertex 24 -10 12.5
    endloop
  endfacet
  facet normal 0 -1 -0
    outer loop
      vertex 34 10 2.5
      vertex 44 10 12.5
      vertex 24 10 12.5
    endloop
  endfacet
  facet normal 0 -1 0
    outer loop
      vertex 35.7678 10 -1.76777
      vertex 34 10 -2.5
      vertex 44 10 -12.5
    endloop
  endfacet
  facet normal 0 -1 -0
    outer loop
      vertex 24 10 -12.5
      vertex 31.5 10 -2.22045e-15
      vertex 24 10 12.5
    endloop
  endfacet
  facet normal 0 -1 -0
    outer loop
      vertex 31.5 10 -2.22045e-15
      vertex 32.2322 10 1.76777
      vertex 24 10 12.5
    endloop
  endfacet
  facet normal 0 -1 -0
    outer loop
      vertex 35.7678 10 1.76777
      vertex 44 10 12.5
      vertex 34 10 2.5
    endloop
  endfacet
  facet normal 0 -1 0
    outer loop
      vertex 44 10 -12.5
      vertex 44 10 12.5
      vertex 35.7678 10 1.76777
    endloop
  endfacet
  facet normal 0 -1 0
    outer loop
      vertex 44 10 -12.5
      vertex 35.7678 10 1.76777
      vertex 36.5 10 -2.22045e-15
    endloop
  endfacet
  facet normal 0 -1 0
    outer loop
      vertex 36.5 10 -2.22045e-15
      vertex 35.7678 10 -1.76777
      vertex 44 10 -12.5
    endloop
  endfacet
  facet normal -0 -1 0
    outer loop
      vertex 24 10 -12.5
      vertex 44 10 -12.5
      vertex 34 10 -2.5
    endloop
  endfacet
  facet normal 0 -1 0
    outer loop
      vertex 24 10 -12.5
      vertex 32.2322 10 -1.76777
      vertex 31.5 10 -2.22045e-15
    endloop
  endfacet
  facet normal 0 -1 0
    outer loop
      vertex 24 10 -12.5
      vertex 34 10 -2.5
      vertex 32.2322 10 -1.76777
    endloop
  endfacet
  facet normal 0 -1 -0
    outer loop
      vertex 32.2322 10 1.76777
      vertex 34 10 2.5
      vertex 24 10 12.5
    endloop
  endfacet
  facet normal 1 0 -0
    outer loop
      vertex 44 10 12.5
      vertex 44 10 -12.5
      vertex 44 15 -12.5
    endloop
  endfacet
  facet normal 1 0 0
    outer loop
      vertex 44 15 12.5
      vertex 44 10 12.5
      vertex 44 15 -12.5
    endloop
  endfacet
  facet normal 0 1 0
    outer loop
      vertex 35.7678 15 1.76777
      vertex 25.5 15 12.5
      vertex 44 15 12.5
    endloop
  endfacet
  facet normal 0 1 0
    outer loop
      vertex 25.5 15 -12.5
      vertex 25.5 15 12.5
      vertex 31.5 15 -3.33067e-15
    endloop
  endfacet
  facet normal 0 1 0
    outer loop
      vertex 25.5 15 -12.5
      vertex 31.5 15 -3.33067e-15
      vertex 32.2322 15 -1.76777
    endloop
  endfacet
  facet normal 0 1 0
    outer loop
      vertex 25.5 15 -12.5
      vertex 32.2322 15 -1.76777
      vertex 44 15 -12.5
    endloop
  endfacet
  facet normal 0 1 0
    outer loop
      vertex 32.2322 15 -1.76777
      vertex 34 15 -2.5
      vertex 44 15 -12.5
    endloop
  endfacet
  facet normal 0 1 -0
    outer loop
      vertex 36.5 15 -3.33067e-15
      vertex 44 15 -12.5
      vertex 35.7678 15 -1.76777
    endloop
  endfacet
  facet normal 0 1 0
    outer loop
      vertex 32.2322 15 1.76777
      vertex 25.5 15 12.5
      vertex 34 15 2.5
    endloop
  endfacet
  facet normal 0 1 0
    outer loop
      vertex 44 15 -12.5
      vertex 36.5 15 -3.33067e-15
      vertex 44 15 12.5
    endloop
  endfacet
  facet normal 0 1 0
    outer loop
      vertex 36.5 15 -3.33067e-15
      vertex 35.7678 15 1.76777
      vertex 44 15 12.5
    endloop
  endfacet
  facet normal 0 1 0
    outer loop
      vertex 34 15 2.5
      vertex 25.5 15 12.5
      vertex 35.7678 15 1.76777
    endloop
  endfacet
  facet normal 0 1 0
    outer loop
      vertex 31.5 15 -3.33067e-15
      vertex 25.5 15 12.5
      vertex 32.2322 15 1.76777
    endloop
  endfacet
  facet normal 0 1 -0
    outer loop
      vertex 35.7678 15 -1.76777
      vertex 44 15 -12.5
      vertex 34 15 -2.5
    endloop
  endfacet
  facet normal 1 0 -0
    outer loop
      vertex 25.5 15 12.5
      vertex 25.5 15 -12.5
      vertex 25.5 40 -12.5
    endloop
  endfacet
  facet normal 1 0 0
    outer loop
      vertex 25.5 40 12.5
      vertex 25.5 15 12.5
      vertex 25.5 40 -12.5
    endloop
  endfacet
  facet normal 1 0 0
    outer loop
      vertex -3.88377 -29.0427 0
      vertex -3.88377 -29.0427 12.5
      vertex -3.88377 -30.9573 12.5
    endloop
  endfacet
  facet normal 1 0 0
    outer loop
      vertex -3.88377 -30.9573 0
      vertex -3.88377 -29.0427 0
      vertex -3.88377 -30.9573 12.5
    endloop
  endfacet
  facet normal 0.885456 0.464723 0
    outer loop
      vertex -3.88377 -30.9573 12.5
      vertex -2.99404 -32.6525 12.5
      vertex -2.99404 -32.6525 0
    endloop
  endfacet
  facet normal 0.885456 0.464723 0
    outer loop
      vertex -3.88377 -30.9573 0
      vertex -3.88377 -30.9573 12.5
      vertex -2.99404 -32.6525 0
    endloop
  endfacet
  facet normal 0.568065 0.822984 -0
    outer loop
      vertex -1.41842 -33.7401 12.5
      vertex -1.41842 -33.7401 0
      vertex -2.99404 -32.6525 12.5
    endloop
  endfacet
  facet normal 0.568065 0.822984 -0
    outer loop
      vertex -2.99404 -32.6525 12.5
      vertex -1.41842 -33.7401 0
      vertex -2.99404 -32.6525 0
    endloop
  endfacet
  facet normal 0.120536 0.992709 -0
    outer loop
      vertex 0.482147 -33.9708 12.5
      vertex 0.482147 -33.9708 0
      vertex -1.41842 -33.7401 12.5
    endloop
  endfacet
  facet normal 0.120536 0.992709 -0
    outer loop
      vertex -1.41842 -33.7401 12.5
      vertex 0.482147 -33.9708 0
      vertex -1.41842 -33.7401 0
    endloop
  endfacet
  facet normal -0.354605 0.935016 0
    outer loop
      vertex 2.27226 -33.2919 12.5
      vertex 2.27226 -33.2919 0
      vertex 0.482147 -33.9708 12.5
    endloop
  endfacet
  facet normal -0.354605 0.935016 0
    outer loop
      vertex 0.482147 -33.9708 12.5
      vertex 2.27226 -33.2919 0
      vertex 0.482147 -33.9708 0
    endloop
  endfacet
  facet normal -0.748511 0.663123 0
    outer loop
      vertex 3.54182 -31.8589 12.5
      vertex 3.54182 -31.8589 0
      vertex 2.27226 -33.2919 12.5
    endloop
  endfacet
  facet normal -0.748511 0.663123 0
    outer loop
      vertex 2.27226 -33.2919 12.5
      vertex 3.54182 -31.8589 0
      vertex 2.27226 -33.2919 0
    endloop
  endfacet
  facet normal -0.970942 0.239316 0
    outer loop
      vertex 4 -30 12.5
      vertex 4 -30 0
      vertex 3.54182 -31.8589 12.5
    endloop
  endfacet
  facet normal -0.970942 0.239316 0
    outer loop
      vertex 3.54182 -31.8589 12.5
      vertex 4 -30 0
      vertex 3.54182 -31.8589 0
    endloop
  endfacet
  facet normal -0.970942 -0.239316 0
    outer loop
      vertex 4 -30 12.5
      vertex 3.54182 -28.1411 12.5
      vertex 4 -30 0
    endloop
  endfacet
  facet normal -0.970942 -0.239316 0
    outer loop
      vertex 4 -30 0
      vertex 3.54182 -28.1411 12.5
      vertex 3.54182 -28.1411 0
    endloop
  endfacet
  facet normal -0.748511 -0.663123 0
    outer loop
      vertex 3.54182 -28.1411 12.5
      vertex 2.27226 -26.7081 12.5
      vertex 3.54182 -28.1411 0
    endloop
  endfacet
  facet normal -0.748511 -0.663123 0
    outer loop
      vertex 3.54182 -28.1411 0
      vertex 2.27226 -26.7081 12.5
      vertex 2.27226 -26.7081 0
    endloop
  endfacet
  facet normal -0.354605 -0.935016 -0
    outer loop
      vertex 2.27226 -26.7081 0
      vertex 2.27226 -26.7081 12.5
      vertex 0.482147 -26.0292 12.5
    endloop
  endfacet
  facet normal -0.354605 -0.935016 -0
    outer loop
      vertex 0.482147 -26.0292 0
      vertex 2.27226 -26.7081 0
      vertex 0.482147 -26.0292 12.5
    endloop
  endfacet
  facet normal 0.120536 -0.992709 0
    outer loop
      vertex 0.482147 -26.0292 0
      vertex 0.482147 -26.0292 12.5
      vertex -1.41842 -26.2599 12.5
    endloop
  endfacet
  facet normal 0.120536 -0.992709 0
    outer loop
      vertex -1.41842 -26.2599 0
      vertex 0.482147 -26.0292 0
      vertex -1.41842 -26.2599 12.5
    endloop
  endfacet
  facet normal 0.568065 -0.822984 0
    outer loop
      vertex -1.41842 -26.2599 0
      vertex -1.41842 -26.2599 12.5
      vertex -2.99404 -27.3475 12.5
    endloop
  endfacet
  facet normal 0.568065 -0.822984 0
    outer loop
      vertex -2.99404 -27.3475 0
      vertex -1.41842 -26.2599 0
      vertex -2.99404 -27.3475 12.5
    endloop
  endfacet
  facet normal 0.885456 -0.464723 0
    outer loop
      vertex -2.99404 -27.3475 0
      vertex -2.99404 -27.3475 12.5
      vertex -3.88377 -29.0427 12.5
    endloop
  endfacet
  facet normal 0.885456 -0.464723 0
    outer loop
      vertex -3.88377 -29.0427 0
      vertex -2.99404 -27.3475 0
      vertex -3.88377 -29.0427 12.5
    endloop
  endfacet
  facet normal 1 0 0
    outer loop
      vertex -3.88377 30.9573 0
      vertex -3.88377 30.9573 12.5
      vertex -3.88377 29.0427 12.5
    endloop
  endfacet
  facet normal 1 0 0
    outer loop
      vertex -3.88377 29.0427 0
      vertex -3.88377 30.9573 0
      vertex -3.88377 29.0427 12.5
    endloop
  endfacet
  facet normal 0.885456 0.464723 0
    outer loop
      vertex -3.88377 29.0427 12.5
      vertex -2.99404 27.3475 12.5
      vertex -2.99404 27.3475 0
    endloop
  endfacet
  facet normal 0.885456 0.464723 0
    outer loop
      vertex -3.88377 29.0427 0
      vertex -3.88377 29.0427 12.5
      vertex -2.99404 27.3475 0
    endloop
  endfacet
  facet normal 0.568065 0.822984 -0
    outer loop
      vertex -1.41842 26.2599 12.5
      vertex -1.41842 26.2599 0
      vertex -2.99404 27.3475 12.5
    endloop
  endfacet
  facet normal 0.568065 0.822984 -0
    outer loop
      vertex -2.99404 27.3475 12.5
      vertex -1.41842 26.2599 0
      vertex -2.99404 27.3475 0
    endloop
  endfacet
  facet normal 0.120536 0.992709 -0
    outer loop
      vertex 0.482147 26.0292 12.5
      vertex 0.482147 26.0292 0
      vertex -1.41842 26.2599 12.5
    endloop
  endfacet
  facet normal 0.120536 0.992709 -0
    outer loop
      vertex -1.41842 26.2599 12.5
      vertex 0.482147 26.0292 0
      vertex -1.41842 26.2599 0
    endloop
  endfacet
  facet normal -0.354605 0.935016 0
    outer loop
      vertex 2.27226 26.7081 12.5
      vertex 2.27226 26.7081 0
      vertex 0.482147 26.0292 12.5
    endloop
  endfacet
  facet normal -0.354605 0.935016 0
    outer loop
      vertex 0.482147 26.0292 12.5
      vertex 2.27226 26.7081 0
      vertex 0.482147 26.0292 0
    endloop
  endfacet
  facet normal -0.748511 0.663123 0
    outer loop
      vertex 3.54182 28.1411 12.5
      vertex 3.54182 28.1411 0
      vertex 2.27226 26.7081 12.5
    endloop
  endfacet
  facet normal -0.748511 0.663123 0
    outer loop
      vertex 2.27226 26.7081 12.5
      vertex 3.54182 28.1411 0
      vertex 2.27226 26.7081 0
    endloop
  endfacet
  facet normal -0.970942 0.239316 0
    outer loop
      vertex 4 30 12.5
      vertex 4 30 0
      vertex 3.54182 28.1411 12.5
    endloop
  endfacet
  facet normal -0.970942 0.239316 0
    outer loop
      vertex 3.54182 28.1411 12.5
      vertex 4 30 0
      vertex 3.54182 28.1411 0
    endloop
  endfacet
  facet normal -0.970942 -0.239316 0
    outer loop
      vertex 4 30 12.5
      vertex 3.54182 31.8589 12.5
      vertex 4 30 0
    endloop
  endfacet
  facet normal -0.970942 -0.239316 0
    outer loop
      vertex 4 30 0
      vertex 3.54182 31.8589 12.5
      vertex 3.54182 31.8589 0
    endloop
  endfacet
  facet normal -0.748511 -0.663123 0
    outer loop
      vertex 3.54182 31.8589 12.5
      vertex 2.27226 33.2919 12.5
      vertex 3.54182 31.8589 0
    endloop
  endfacet
  facet normal -0.748511 -0.663123 0
    outer loop
      vertex 3.54182 31.8589 0
      vertex 2.27226 33.2919 12.5
      vertex 2.27226 33.2919 0
    endloop
  endfacet
  facet normal -0.354605 -0.935016 -0
    outer loop
      vertex 2.27226 33.2919 0
      vertex 2.27226 33.2919 12.5
      vertex 0.482147 33.9708 12.5
    endloop
  endfacet
  facet normal -0.354605 -0.935016 -0
    outer loop
      vertex 0.482147 33.9708 0
      vertex 2.27226 33.2919 0
      vertex 0.482147 33.9708 12.5
    endloop
  endfacet
  facet normal 0.120536 -0.992709 0
    outer loop
      vertex 0.482147 33.9708 0
      vertex 0.482147 33.9708 12.5
      vertex -1.41842 33.7401 12.5
    endloop
  endfacet
  facet normal 0.120536 -0.992709 0
    outer loop
      vertex -1.41842 33.7401 0
      vertex 0.482147 33.9708 0
      vertex -1.41842 33.7401 12.5
    endloop
  endfacet
  facet normal 0.568065 -0.822984 0
    outer loop
      vertex -1.41842 33.7401 0
      vertex -1.41842 33.7401 12.5
      vertex -2.99404 32.6525 12.5
    endloop
  endfacet
  facet normal 0.568065 -0.822984 0
    outer loop
      vertex -2.99404 32.6525 0
      vertex -1.41842 33.7401 0
      vertex -2.99404 32.6525 12.5
    endloop
  endfacet
  facet normal 0.885456 -0.464723 0
    outer loop
      vertex -2.99404 32.6525 0
      vertex -2.99404 32.6525 12.5
      vertex -3.88377 30.9573 12.5
    endloop
  endfacet
  facet normal 0.885456 -0.464723 0
    outer loop
      vertex -3.88377 30.9573 0
      vertex -2.99404 32.6525 0
      vertex -3.88377 30.9573 12.5
    endloop
  endfacet
  facet normal 1 0 0
    outer loop
      vertex -3.35823 0.986064 0
      vertex -3.35823 0.986064 12.5
      vertex -3.35823 -0.986064 12.5
    endloop
  endfacet
  facet normal 1 0 0
    outer loop
      vertex -3.35823 -0.986064 0
      vertex -3.35823 0.986064 0
      vertex -3.35823 -0.986064 12.5
    endloop
  endfacet
  facet normal 0.841254 0.54064 0
    outer loop
      vertex -3.35823 -0.986064 12.5
      vertex -2.29201 -2.64512 12.5
      vertex -2.29201 -2.64512 0
    endloop
  endfacet
  facet normal 0.841254 0.54064 0
    outer loop
      vertex -3.35823 -0.986064 0
      vertex -3.35823 -0.986064 12.5
      vertex -2.29201 -2.64512 0
    endloop
  endfacet
  facet normal 0.415415 0.909632 -0
    outer loop
      vertex -0.498102 -3.46437 12.5
      vertex -0.498102 -3.46437 0
      vertex -2.29201 -2.64512 12.5
    endloop
  endfacet
  facet normal 0.415415 0.909632 -0
    outer loop
      vertex -2.29201 -2.64512 12.5
      vertex -0.498102 -3.46437 0
      vertex -2.29201 -2.64512 0
    endloop
  endfacet
  facet normal -0.142315 0.989821 0
    outer loop
      vertex 1.45395 -3.18371 12.5
      vertex 1.45395 -3.18371 0
      vertex -0.498102 -3.46437 12.5
    endloop
  endfacet
  facet normal -0.142315 0.989821 0
    outer loop
      vertex -0.498102 -3.46437 12.5
      vertex 1.45395 -3.18371 0
      vertex -0.498102 -3.46437 0
    endloop
  endfacet
  facet normal -0.654861 0.755749 0
    outer loop
      vertex 2.94439 -1.89224 12.5
      vertex 2.94439 -1.89224 0
      vertex 1.45395 -3.18371 12.5
    endloop
  endfacet
  facet normal -0.654861 0.755749 0
    outer loop
      vertex 1.45395 -3.18371 12.5
      vertex 2.94439 -1.89224 0
      vertex 1.45395 -3.18371 0
    endloop
  endfacet
  facet normal -0.959493 0.281733 0
    outer loop
      vertex 3.5 0 12.5
      vertex 3.5 0 0
      vertex 2.94439 -1.89224 12.5
    endloop
  endfacet
  facet normal -0.959493 0.281733 0
    outer loop
      vertex 2.94439 -1.89224 12.5
      vertex 3.5 0 0
      vertex 2.94439 -1.89224 0
    endloop
  endfacet
  facet normal -0.959493 -0.281733 0
    outer loop
      vertex 3.5 0 12.5
      vertex 2.94439 1.89224 12.5
      vertex 3.5 0 0
    endloop
  endfacet
  facet normal -0.959493 -0.281733 0
    outer loop
      vertex 3.5 0 0
      vertex 2.94439 1.89224 12.5
      vertex 2.94439 1.89224 0
    endloop
  endfacet
  facet normal -0.654861 -0.755749 -0
    outer loop
      vertex 2.94439 1.89224 0
      vertex 2.94439 1.89224 12.5
      vertex 1.45395 3.18371 12.5
    endloop
  endfacet
  facet normal -0.654861 -0.755749 -0
    outer loop
      vertex 1.45395 3.18371 0
      vertex 2.94439 1.89224 0
      vertex 1.45395 3.18371 12.5
    endloop
  endfacet
  facet normal -0.142315 -0.989821 -0
    outer loop
      vertex 1.45395 3.18371 0
      vertex 1.45395 3.18371 12.5
      vertex -0.498102 3.46437 12.5
    endloop
  endfacet
  facet normal -0.142315 -0.989821 -0
    outer loop
      vertex -0.498102 3.46437 0
      vertex 1.45395 3.18371 0
      vertex -0.498102 3.46437 12.5
    endloop
  endfacet
  facet normal 0.415415 -0.909632 0
    outer loop
      vertex -0.498102 3.46437 0
      vertex -0.498102 3.46437 12.5
      vertex -2.29201 2.64512 12.5
    endloop
  endfacet
  facet normal 0.415415 -0.909632 0
    outer loop
      vertex -2.29201 2.64512 0
      vertex -0.498102 3.46437 0
      vertex -2.29201 2.64512 12.5
    endloop
  endfacet
  facet normal 0.841254 -0.54064 0
    outer loop
      vertex -2.29201 2.64512 0
      vertex -2.29201 2.64512 12.5
      vertex -3.35823 0.986064 12.5
    endloop
  endfacet
  facet normal 0.841254 -0.54064 0
    outer loop
      vertex -3.35823 0.986064 0
      vertex -2.29201 2.64512 0
      vertex -3.35823 0.986064 12.5
    endloop
  endfacet
  facet normal 0.92388 8.49728e-17 0.382683
    outer loop
      vertex 32.2322 -15 -1.76777
      vertex 32.2322 -10 -1.76777
      vertex 31.5 -10 2.22045e-15
    endloop
  endfacet
  facet normal 0.92388 8.49728e-17 0.382683
    outer loop
      vertex 31.5 -15 3.33067e-15
      vertex 32.2322 -15 -1.76777
      vertex 31.5 -10 2.22045e-15
    endloop
  endfacet
  facet normal 0.382683 2.46171e-16 0.92388
    outer loop
      vertex 34 -15 -2.5
      vertex 34 -10 -2.5
      vertex 32.2322 -10 -1.76777
    endloop
  endfacet
  facet normal 0.382683 2.05142e-16 0.92388
    outer loop
      vertex 32.2322 -15 -1.76777
      vertex 34 -15 -2.5
      vertex 32.2322 -10 -1.76777
    endloop
  endfacet
  facet normal -0.382683 2.05142e-16 0.92388
    outer loop
      vertex 35.7678 -15 -1.76777
      vertex 35.7678 -10 -1.76777
      vertex 34 -10 -2.5
    endloop
  endfacet
  facet normal -0.382683 2.46171e-16 0.92388
    outer loop
      vertex 34 -15 -2.5
      vertex 35.7678 -15 -1.76777
      vertex 34 -10 -2.5
    endloop
  endfacet
  facet normal -0.92388 8.49728e-17 0.382683
    outer loop
      vertex 36.5 -10 2.22045e-15
      vertex 35.7678 -10 -1.76777
      vertex 36.5 -15 3.33067e-15
    endloop
  endfacet
  facet normal -0.92388 9.0661e-17 0.382683
    outer loop
      vertex 36.5 -15 3.33067e-15
      vertex 35.7678 -10 -1.76777
      vertex 35.7678 -15 -1.76777
    endloop
  endfacet
  facet normal -0.92388 -8.49728e-17 -0.382683
    outer loop
      vertex 36.5 -10 2.22045e-15
      vertex 36.5 -15 3.33067e-15
      vertex 35.7678 -10 1.76777
    endloop
  endfacet
  facet normal -0.92388 -8.49728e-17 -0.382683
    outer loop
      vertex 35.7678 -10 1.76777
      vertex 36.5 -15 3.33067e-15
      vertex 35.7678 -15 1.76777
    endloop
  endfacet
  facet normal -0.382683 -2.05142e-16 -0.92388
    outer loop
      vertex 35.7678 -10 1.76777
      vertex 35.7678 -15 1.76777
      vertex 34 -10 2.5
    endloop
  endfacet
  facet normal -0.382683 -1.64114e-16 -0.92388
    outer loop
      vertex 34 -10 2.5
      vertex 35.7678 -15 1.76777
      vertex 34 -15 2.5
    endloop
  endfacet
  facet normal 0.382683 -1.64114e-16 -0.92388
    outer loop
      vertex 34 -10 2.5
      vertex 34 -15 2.5
      vertex 32.2322 -10 1.76777
    endloop
  endfacet
  facet normal 0.382683 -2.05142e-16 -0.92388
    outer loop
      vertex 32.2322 -10 1.76777
      vertex 34 -15 2.5
      vertex 32.2322 -15 1.76777
    endloop
  endfacet
  facet normal 0.92388 -9.0661e-17 -0.382683
    outer loop
      vertex 31.5 -10 2.22045e-15
      vertex 32.2322 -10 1.76777
      vertex 32.2322 -15 1.76777
    endloop
  endfacet
  facet normal 0.92388 -8.49728e-17 -0.382683
    outer loop
      vertex 31.5 -15 3.33067e-15
      vertex 31.5 -10 2.22045e-15
      vertex 32.2322 -15 1.76777
    endloop
  endfacet
  facet normal 0.92388 -9.0661e-17 -0.382683
    outer loop
      vertex 31.5 15 -3.33067e-15
      vertex 32.2322 15 1.76777
      vertex 32.2322 10 1.76777
    endloop
  endfacet
  facet normal 0.92388 -8.49728e-17 -0.382683
    outer loop
      vertex 31.5 10 -2.22045e-15
      vertex 31.5 15 -3.33067e-15
      vertex 32.2322 10 1.76777
    endloop
  endfacet
  facet normal 0.92388 8.49728e-17 0.382683
    outer loop
      vertex 32.2322 10 -1.76777
      vertex 32.2322 15 -1.76777
      vertex 31.5 15 -3.33067e-15
    endloop
  endfacet
  facet normal 0.92388 8.49728e-17 0.382683
    outer loop
      vertex 31.5 10 -2.22045e-15
      vertex 32.2322 10 -1.76777
      vertex 31.5 15 -3.33067e-15
    endloop
  endfacet
  facet normal 0.382683 1.64114e-16 0.92388
    outer loop
      vertex 34 10 -2.5
      vertex 34 15 -2.5
      vertex 32.2322 15 -1.76777
    endloop
  endfacet
  facet normal 0.382683 2.05142e-16 0.92388
    outer loop
      vertex 32.2322 10 -1.76777
      vertex 34 10 -2.5
      vertex 32.2322 15 -1.76777
    endloop
  endfacet
  facet normal -0.382683 2.05142e-16 0.92388
    outer loop
      vertex 35.7678 10 -1.76777
      vertex 35.7678 15 -1.76777
      vertex 34 15 -2.5
    endloop
  endfacet
  facet normal -0.382683 1.64114e-16 0.92388
    outer loop
      vertex 34 10 -2.5
      vertex 35.7678 10 -1.76777
      vertex 34 15 -2.5
    endloop
  endfacet
  facet normal -0.92388 8.49728e-17 0.382683
    outer loop
      vertex 36.5 15 -3.33067e-15
      vertex 35.7678 15 -1.76777
      vertex 36.5 10 -2.22045e-15
    endloop
  endfacet
  facet normal -0.92388 9.0661e-17 0.382683
    outer loop
      vertex 36.5 10 -2.22045e-15
      vertex 35.7678 15 -1.76777
      vertex 35.7678 10 -1.76777
    endloop
  endfacet
  facet normal -0.92388 -8.49728e-17 -0.382683
    outer loop
      vertex 36.5 15 -3.33067e-15
      vertex 36.5 10 -2.22045e-15
      vertex 35.7678 15 1.76777
    endloop
  endfacet
  facet normal -0.92388 -8.49728e-17 -0.382683
    outer loop
      vertex 35.7678 15 1.76777
      vertex 36.5 10 -2.22045e-15
      vertex 35.7678 10 1.76777
    endloop
  endfacet
  facet normal -0.382683 -2.05142e-16 -0.92388
    outer loop
      vertex 35.7678 15 1.76777
      vertex 35.7678 10 1.76777
      vertex 34 15 2.5
    endloop
  endfacet
  facet normal -0.382683 -2.46171e-16 -0.92388
    outer loop
      vertex 34 15 2.5
      vertex 35.7678 10 1.76777
      vertex 34 10 2.5
    endloop
  endfacet
  facet normal 0.382683 -2.46171e-16 -0.92388
    outer loop
      vertex 34 15 2.5
      vertex 34 10 2.5
      vertex 32.2322 15 1.76777
    endloop
  endfacet
  facet normal 0.382683 -2.05142e-16 -0.92388
    outer loop
      vertex 32.2322 15 1.76777
      vertex 34 10 2.5
      vertex 32.2322 10 1.76777
    endloop
  endfacet
  facet normal 0 0 1
    outer loop
      vertex -2.99404 -32.6525 0
      vertex -1.41842 -33.7401 0
      vertex 0.482147 -33.9708 0
    endloop
  endfacet
  facet normal 0 0 1
    outer loop
      vertex 3.54182 -31.8589 0
      vertex -2.99404 -32.6525 0
      vertex 2.27226 -33.2919 0
    endloop
  endfacet
  facet normal -0 0 1
    outer loop
      vertex 2.27226 -33.2919 0
      vertex -2.99404 -32.6525 0
      vertex 0.482147 -33.9708 0
    endloop
  endfacet
  facet normal 0 0 1
    outer loop
      vertex 4 -30 0
      vertex -2.99404 -32.6525 0
      vertex 3.54182 -31.8589 0
    endloop
  endfacet
  facet normal 0 -0 1
    outer loop
      vertex 3.54182 -28.1411 0
      vertex -2.99404 -32.6525 0
      vertex 4 -30 0
    endloop
  endfacet
  facet normal 0 -0 1
    outer loop
      vertex 2.27226 -26.7081 0
      vertex -2.99404 -32.6525 0
      vertex 3.54182 -28.1411 0
    endloop
  endfacet
  facet normal 0 -0 1
    outer loop
      vertex 0.482147 -26.0292 0
      vertex -2.99404 -32.6525 0
      vertex 2.27226 -26.7081 0
    endloop
  endfacet
  facet normal 0 -0 1
    outer loop
      vertex -1.41842 -26.2599 0
      vertex -2.99404 -32.6525 0
      vertex 0.482147 -26.0292 0
    endloop
  endfacet
  facet normal 0 -0 1
    outer loop
      vertex -2.99404 -27.3475 0
      vertex -2.99404 -32.6525 0
      vertex -1.41842 -26.2599 0
    endloop
  endfacet
  facet normal 0 0 1
    outer loop
      vertex -3.88377 -29.0427 0
      vertex -2.99404 -32.6525 0
      vertex -2.99404 -27.3475 0
    endloop
  endfacet
  facet normal 0 0 1
    outer loop
      vertex -3.88377 -30.9573 0
      vertex -2.99404 -32.6525 0
      vertex -3.88377 -29.0427 0
    endloop
  endfacet
  facet normal 0 0 1
    outer loop
      vertex -2.99404 27.3475 0
      vertex -1.41842 26.2599 0
      vertex 0.482147 26.0292 0
    endloop
  endfacet
  facet normal 0 0 1
    outer loop
      vertex 3.54182 28.1411 0
      vertex -2.99404 27.3475 0
      vertex 2.27226 26.7081 0
    endloop
  endfacet
  facet normal -0 0 1
    outer loop
      vertex 2.27226 26.7081 0
      vertex -2.99404 27.3475 0
      vertex 0.482147 26.0292 0
    endloop
  endfacet
  facet normal 0 0 1
    outer loop
      vertex 4 30 0
      vertex -2.99404 27.3475 0
      vertex 3.54182 28.1411 0
    endloop
  endfacet
  facet normal 0 -0 1
    outer loop
      vertex 3.54182 31.8589 0
      vertex -2.99404 27.3475 0
      vertex 4 30 0
    endloop
  endfacet
  facet normal 0 -0 1
    outer loop
      vertex 2.27226 33.2919 0
      vertex -2.99404 27.3475 0
      vertex 3.54182 31.8589 0
    endloop
  endfacet
  facet normal 0 -0 1
    outer loop
      vertex 0.482147 33.9708 0
      vertex -2.99404 27.3475 0
      vertex 2.27226 33.2919 0
    endloop
  endfacet
  facet normal 0 -0 1
    outer loop
      vertex -1.41842 33.7401 0
      vertex -2.99404 27.3475 0
      vertex 0.482147 33.9708 0
    endloop
  endfacet
  facet normal 0 -0 1
    outer loop
      vertex -2.99404 32.6525 0
      vertex -2.99404 27.3475 0
      vertex -1.41842 33.7401 0
    endloop
  endfacet
  facet normal 0 0 1
    outer loop
      vertex -3.88377 30.9573 0
      vertex -2.99404 27.3475 0
      vertex -2.99404 32.6525 0
    endloop
  endfacet
  facet normal 0 0 1
    outer loop
      vertex -3.88377 29.0427 0
      vertex -2.99404 27.3475 0
      vertex -3.88377 30.9573 0
    endloop
  endfacet
  facet normal 0 0 1
    outer loop
      vertex -2.29201 -2.64512 0
      vertex -0.498102 -3.46437 0
      vertex 1.45395 -3.18371 0
    endloop
  endfacet
  facet normal 0 0 1
    outer loop
      vertex 3.5 0 0
      vertex -2.29201 -2.64512 0
      vertex 2.94439 -1.89224 0
    endloop
  endfacet
  facet normal 0 0 1
    outer loop
      vertex 2.94439 -1.89224 0
      vertex -2.29201 -2.64512 0
      vertex 1.45395 -3.18371 0
    endloop
  endfacet
  facet normal 0 -0 1
    outer loop
      vertex 2.94439 1.89224 0
      vertex -2.29201 -2.64512 0
      vertex 3.5 0 0
    endloop
  endfacet
  facet normal 0 -0 1
    outer loop
      vertex 1.45395 3.18371 0
      vertex -2.29201 -2.64512 0
      vertex 2.94439 1.89224 0
    endloop
  endfacet
  facet normal 0 -0 1
    outer loop
      vertex -0.498102 3.46437 0
      vertex -2.29201 -2.64512 0
      vertex 1.45395 3.18371 0
    endloop
  endfacet
  facet normal 0 -0 1
    outer loop
      vertex -2.29201 2.64512 0
      vertex -2.29201 -2.64512 0
      vertex -0.498102 3.46437 0
    endloop
  endfacet
  facet normal 0 0 1
    outer loop
      vertex -3.35823 0.986064 0
      vertex -2.29201 -2.64512 0
      vertex -2.29201 2.64512 0
    endloop
  endfacet
  facet normal 0 0 1
    outer loop
      vertex -3.35823 -0.986064 0
      vertex -2.29201 -2.64512 0
      vertex -3.35823 0.986064 0
    endloop
  endfacet
endsolid OpenSCAD_Model
