solid OpenSCAD_Model
  facet normal -1 -0 -0
    outer loop
      vertex -10 -30 -5
      vertex -10 -30 5
      vertex -10 30 -5
    endloop
  endfacet
  facet normal -1 0 0
    outer loop
      vertex -10 30 -5
      vertex -10 -30 5
      vertex -10 30 5
    endloop
  endfacet
  facet normal -0.994522 -0.104528 -0
    outer loop
      vertex -10 -30 -5
      vertex -9.78148 -32.0791 -5
      vertex -10 -30 5
    endloop
  endfacet
  facet normal -0.994522 -0.104528 0
    outer loop
      vertex -10 -30 5
      vertex -9.78148 -32.0791 -5
      vertex -9.78148 -32.0791 5
    endloop
  endfacet
  facet normal -0 -0 -1
    outer loop
      vertex -10 -30 -5
      vertex -10 30 -5
      vertex -9.78148 -32.0791 -5
    endloop
  endfacet
  facet normal 0 0 -1
    outer loop
      vertex -9.78148 -32.0791 -5
      vertex -10 30 -5
      vertex -9.78148 32.0791 -5
    endloop
  endfacet
  facet normal 0 -0 -1
    outer loop
      vertex -9.78148 -32.0791 -5
      vertex -9.78148 32.0791 -5
      vertex -9.13546 34.0674 -5
    endloop
  endfacet
  facet normal 0 0 -1
    outer loop
      vertex -9.78148 -32.0791 -5
      vertex -9.13546 34.0674 -5
      vertex -8.09017 35.8779 -5
    endloop
  endfacet
  facet normal 0 0 -1
    outer loop
      vertex -9.78148 -32.0791 -5
      vertex -8.09017 35.8779 -5
      vertex -6.69131 37.4314 -5
    endloop
  endfacet
  facet normal 0 0 -1
    outer loop
      vertex -9.78148 -32.0791 -5
      vertex -6.69131 37.4314 -5
      vertex -5 38.6603 -5
    endloop
  endfacet
  facet normal 0 -0 -1
    outer loop
      vertex -4.40166 30.9356 -5
      vertex -5 38.6603 -5
      vertex -3.09017 39.5106 -5
    endloop
  endfacet
  facet normal 0 -0 -1
    outer loop
      vertex -0.470378 34.4753 -5
      vertex -1.04529 39.9452 -5
      vertex 1.04529 39.9452 -5
    endloop
  endfacet
  facet normal 0 -0 -1
    outer loop
      vertex 1.39058 34.2798 -5
      vertex 1.04529 39.9452 -5
      vertex 3.09017 39.5106 -5
    endloop
  endfacet
  facet normal 0 0 -1
    outer loop
      vertex 3.01109 33.3442 -5
      vertex 3.09017 39.5106 -5
      vertex 5 38.6603 -5
    endloop
  endfacet
  facet normal 0 0 -1
    outer loop
      vertex 4.11095 31.8303 -5
      vertex 5 38.6603 -5
      vertex 6.69131 37.4314 -5
    endloop
  endfacet
  facet normal 0 0 -1
    outer loop
      vertex 1.45395 3.18371 -5
      vertex 9.78148 32.0791 -5
      vertex 10 30 -5
    endloop
  endfacet
  facet normal -0 0 -1
    outer loop
      vertex -0.498102 3.46437 -5
      vertex 9.78148 32.0791 -5
      vertex 1.45395 3.18371 -5
    endloop
  endfacet
  facet normal 0 -0 -1
    outer loop
      vertex 24 10 -5
      vertex 10 15 -5
      vertex 30 15 -5
    endloop
  endfacet
  facet normal 0 -0 -1
    outer loop
      vertex -3.64058 -27.355 -5
      vertex -9.78148 -32.0791 -5
      vertex -2.25 -26.1029 -5
    endloop
  endfacet
  facet normal 0 0 -1
    outer loop
      vertex 10 -30 -5
      vertex 4.5 -30 -5
      vertex 4.11095 -28.1697 -5
    endloop
  endfacet
  facet normal 0 0 -1
    outer loop
      vertex 2.94439 -1.89224 -5
      vertex 10 15 -5
      vertex 24 10 -5
    endloop
  endfacet
  facet normal 0 0 -1
    outer loop
      vertex -3.64058 32.645 -5
      vertex -3.09017 39.5106 -5
      vertex -1.04529 39.9452 -5
    endloop
  endfacet
  facet normal -0 0 -1
    outer loop
      vertex 30 -15 -5
      vertex 44 -10 -5
      vertex 44 -15 -5
    endloop
  endfacet
  facet normal 0 -0 -1
    outer loop
      vertex 30 -15 -5
      vertex 24 -10 -5
      vertex 44 -10 -5
    endloop
  endfacet
  facet normal 0 0 -1
    outer loop
      vertex 10 -30 -5
      vertex 3.01109 -26.6558 -5
      vertex 1.39058 -25.7202 -5
    endloop
  endfacet
  facet normal -0 0 -1
    outer loop
      vertex 10 -15 -5
      vertex 24 -10 -5
      vertex 30 -15 -5
    endloop
  endfacet
  facet normal 0 0 -1
    outer loop
      vertex -3.64058 -32.645 -5
      vertex -9.78148 -32.0791 -5
      vertex -4.40166 -30.9356 -5
    endloop
  endfacet
  facet normal 0 -0 -1
    outer loop
      vertex -4.40166 -29.0644 -5
      vertex -9.78148 -32.0791 -5
      vertex -3.64058 -27.355 -5
    endloop
  endfacet
  facet normal -0 0 -1
    outer loop
      vertex 4.11095 -31.8303 -5
      vertex 10 -30 -5
      vertex 9.78148 -32.0791 -5
    endloop
  endfacet
  facet normal -0 0 -1
    outer loop
      vertex 3.01109 -33.3442 -5
      vertex 9.78148 -32.0791 -5
      vertex 9.13546 -34.0674 -5
    endloop
  endfacet
  facet normal -0 0 -1
    outer loop
      vertex 1.39058 -34.2798 -5
      vertex 9.13546 -34.0674 -5
      vertex 8.09017 -35.8779 -5
    endloop
  endfacet
  facet normal 0 0 -1
    outer loop
      vertex -0.470378 -34.4753 -5
      vertex 8.09017 -35.8779 -5
      vertex 6.69131 -37.4314 -5
    endloop
  endfacet
  facet normal 0 0 -1
    outer loop
      vertex -9.78148 -32.0791 -5
      vertex 6.69131 -37.4314 -5
      vertex 5 -38.6603 -5
    endloop
  endfacet
  facet normal 0 0 -1
    outer loop
      vertex -9.78148 -32.0791 -5
      vertex 5 -38.6603 -5
      vertex 3.09017 -39.5106 -5
    endloop
  endfacet
  facet normal 0 0 -1
    outer loop
      vertex -9.78148 -32.0791 -5
      vertex 3.09017 -39.5106 -5
      vertex 1.04529 -39.9452 -5
    endloop
  endfacet
  facet normal 0 0 -1
    outer loop
      vertex -9.78148 -32.0791 -5
      vertex 1.04529 -39.9452 -5
      vertex -1.04529 -39.9452 -5
    endloop
  endfacet
  facet normal 0 0 -1
    outer loop
      vertex -9.78148 -32.0791 -5
      vertex -1.04529 -39.9452 -5
      vertex -3.09017 -39.5106 -5
    endloop
  endfacet
  facet normal 0 0 -1
    outer loop
      vertex -9.78148 -32.0791 -5
      vertex -3.09017 -39.5106 -5
      vertex -5 -38.6603 -5
    endloop
  endfacet
  facet normal 0 0 -1
    outer loop
      vertex -9.78148 -32.0791 -5
      vertex -5 -38.6603 -5
      vertex -6.69131 -37.4314 -5
    endloop
  endfacet
  facet normal 0 0 -1
    outer loop
      vertex -9.78148 -32.0791 -5
      vertex -6.69131 -37.4314 -5
      vertex -8.09017 -35.8779 -5
    endloop
  endfacet
  facet normal 0 0 -1
    outer loop
      vertex -9.78148 -32.0791 -5
      vertex -8.09017 -35.8779 -5
      vertex -9.13546 -34.0674 -5
    endloop
  endfacet
  facet normal 0 0 -1
    outer loop
      vertex 4.5 -30 -5
      vertex 10 -30 -5
      vertex 4.11095 -31.8303 -5
    endloop
  endfacet
  facet normal 0 0 -1
    outer loop
      vertex -2.25 -33.8971 -5
      vertex -9.78148 -32.0791 -5
      vertex -3.64058 -32.645 -5
    endloop
  endfacet
  facet normal 0 0 -1
    outer loop
      vertex 3.01109 26.6558 -5
      vertex -3.35823 0.986064 -5
      vertex 1.39058 25.7202 -5
    endloop
  endfacet
  facet normal 0 0 -1
    outer loop
      vertex 1.39058 -34.2798 -5
      vertex 8.09017 -35.8779 -5
      vertex -0.470378 -34.4753 -5
    endloop
  endfacet
  facet normal 0 0 -1
    outer loop
      vertex -9.78148 -32.0791 -5
      vertex -2.25 -33.8971 -5
      vertex 6.69131 -37.4314 -5
    endloop
  endfacet
  facet normal 0 0 -1
    outer loop
      vertex -2.25 -33.8971 -5
      vertex -0.470378 -34.4753 -5
      vertex 6.69131 -37.4314 -5
    endloop
  endfacet
  facet normal 0 0 -1
    outer loop
      vertex 4.11095 -31.8303 -5
      vertex 9.78148 -32.0791 -5
      vertex 3.01109 -33.3442 -5
    endloop
  endfacet
  facet normal 0 0 -1
    outer loop
      vertex 3.01109 -33.3442 -5
      vertex 9.13546 -34.0674 -5
      vertex 1.39058 -34.2798 -5
    endloop
  endfacet
  facet normal 0 0 -1
    outer loop
      vertex -4.40166 30.9356 -5
      vertex -3.09017 39.5106 -5
      vertex -3.64058 32.645 -5
    endloop
  endfacet
  facet normal 0 0 -1
    outer loop
      vertex -4.40166 -30.9356 -5
      vertex -9.78148 -32.0791 -5
      vertex -4.40166 -29.0644 -5
    endloop
  endfacet
  facet normal 0 0 -1
    outer loop
      vertex 10 -30 -5
      vertex 4.11095 -28.1697 -5
      vertex 3.01109 -26.6558 -5
    endloop
  endfacet
  facet normal 0 0 -1
    outer loop
      vertex -9.78148 -32.0791 -5
      vertex 10 -15 -5
      vertex -2.25 -26.1029 -5
    endloop
  endfacet
  facet normal 0 0 -1
    outer loop
      vertex -0.498102 3.46437 -5
      vertex 9.13546 34.0674 -5
      vertex 9.78148 32.0791 -5
    endloop
  endfacet
  facet normal 0 0 -1
    outer loop
      vertex -9.78148 -32.0791 -5
      vertex -5 38.6603 -5
      vertex -4.40166 30.9356 -5
    endloop
  endfacet
  facet normal 0 0 -1
    outer loop
      vertex -3.64058 27.355 -5
      vertex -9.78148 -32.0791 -5
      vertex -4.40166 29.0644 -5
    endloop
  endfacet
  facet normal 0 0 -1
    outer loop
      vertex -9.78148 -32.0791 -5
      vertex -4.40166 30.9356 -5
      vertex -4.40166 29.0644 -5
    endloop
  endfacet
  facet normal 0 0 -1
    outer loop
      vertex -3.35823 0.986064 -5
      vertex 3.01109 26.6558 -5
      vertex -2.29201 2.64512 -5
    endloop
  endfacet
  facet normal 0 0 -1
    outer loop
      vertex -2.29201 2.64512 -5
      vertex 4.11095 28.1697 -5
      vertex 6.69131 37.4314 -5
    endloop
  endfacet
  facet normal 0 0 -1
    outer loop
      vertex -0.470378 25.5247 -5
      vertex -9.78148 -32.0791 -5
      vertex -2.25 26.1029 -5
    endloop
  endfacet
  facet normal 0 0 -1
    outer loop
      vertex 1.39058 25.7202 -5
      vertex -9.78148 -32.0791 -5
      vertex -0.470378 25.5247 -5
    endloop
  endfacet
  facet normal 0 0 -1
    outer loop
      vertex -2.29201 2.64512 -5
      vertex 3.01109 26.6558 -5
      vertex 4.11095 28.1697 -5
    endloop
  endfacet
  facet normal -0 0 -1
    outer loop
      vertex 4.11095 31.8303 -5
      vertex 6.69131 37.4314 -5
      vertex 4.5 30 -5
    endloop
  endfacet
  facet normal 0 0 -1
    outer loop
      vertex -2.29201 2.64512 -5
      vertex 6.69131 37.4314 -5
      vertex 8.09017 35.8779 -5
    endloop
  endfacet
  facet normal 0 0 -1
    outer loop
      vertex -0.498102 3.46437 -5
      vertex 8.09017 35.8779 -5
      vertex 9.13546 34.0674 -5
    endloop
  endfacet
  facet normal 0 0 -1
    outer loop
      vertex 4.11095 28.1697 -5
      vertex 4.5 30 -5
      vertex 6.69131 37.4314 -5
    endloop
  endfacet
  facet normal -0 0 -1
    outer loop
      vertex 3.01109 33.3442 -5
      vertex 5 38.6603 -5
      vertex 4.11095 31.8303 -5
    endloop
  endfacet
  facet normal -0 0 -1
    outer loop
      vertex 1.39058 34.2798 -5
      vertex 3.09017 39.5106 -5
      vertex 3.01109 33.3442 -5
    endloop
  endfacet
  facet normal -0 0 -1
    outer loop
      vertex -0.470378 34.4753 -5
      vertex 1.04529 39.9452 -5
      vertex 1.39058 34.2798 -5
    endloop
  endfacet
  facet normal 0 0 -1
    outer loop
      vertex -3.64058 32.645 -5
      vertex -1.04529 39.9452 -5
      vertex -2.25 33.8971 -5
    endloop
  endfacet
  facet normal 0 0 -1
    outer loop
      vertex -2.25 33.8971 -5
      vertex -1.04529 39.9452 -5
      vertex -0.470378 34.4753 -5
    endloop
  endfacet
  facet normal 0 0 -1
    outer loop
      vertex -2.29201 -2.64512 -5
      vertex -9.78148 -32.0791 -5
      vertex -3.35823 -0.986064 -5
    endloop
  endfacet
  facet normal 0 0 -1
    outer loop
      vertex -2.25 26.1029 -5
      vertex -9.78148 -32.0791 -5
      vertex -3.64058 27.355 -5
    endloop
  endfacet
  facet normal 0 0 -1
    outer loop
      vertex -9.78148 -32.0791 -5
      vertex 1.39058 25.7202 -5
      vertex -3.35823 0.986064 -5
    endloop
  endfacet
  facet normal 0 0 -1
    outer loop
      vertex -9.78148 -32.0791 -5
      vertex -3.35823 0.986064 -5
      vertex -3.35823 -0.986064 -5
    endloop
  endfacet
  facet normal 0 0 -1
    outer loop
      vertex -0.498102 -3.46437 -5
      vertex -9.78148 -32.0791 -5
      vertex -2.29201 -2.64512 -5
    endloop
  endfacet
  facet normal 0 0 -1
    outer loop
      vertex 2.94439 -1.89224 -5
      vertex -9.78148 -32.0791 -5
      vertex 1.45395 -3.18371 -5
    endloop
  endfacet
  facet normal 0 0 -1
    outer loop
      vertex -9.78148 -32.0791 -5
      vertex -0.498102 -3.46437 -5
      vertex 1.45395 -3.18371 -5
    endloop
  endfacet
  facet normal -0 0 -1
    outer loop
      vertex 1.45395 3.18371 -5
      vertex 10 15 -5
      vertex 2.94439 1.89224 -5
    endloop
  endfacet
  facet normal -0 0 -1
    outer loop
      vertex 2.94439 1.89224 -5
      vertex 10 15 -5
      vertex 3.5 0 -5
    endloop
  endfacet
  facet normal 0 0 -1
    outer loop
      vertex -9.78148 -32.0791 -5
      vertex 2.94439 -1.89224 -5
      vertex 24 10 -5
    endloop
  endfacet
  facet normal 0 0 -1
    outer loop
      vertex 1.45395 3.18371 -5
      vertex 10 30 -5
      vertex 10 15 -5
    endloop
  endfacet
  facet normal -0 0 -1
    outer loop
      vertex 3.5 0 -5
      vertex 10 15 -5
      vertex 2.94439 -1.89224 -5
    endloop
  endfacet
  facet normal 0 0 -1
    outer loop
      vertex -2.29201 2.64512 -5
      vertex 8.09017 35.8779 -5
      vertex -0.498102 3.46437 -5
    endloop
  endfacet
  facet normal 0 0 -1
    outer loop
      vertex 24 10 -5
      vertex 30 15 -5
      vertex 44 15 -5
    endloop
  endfacet
  facet normal -0 0 -1
    outer loop
      vertex 24 10 -5
      vertex 44 15 -5
      vertex 44 10 -5
    endloop
  endfacet
  facet normal 0 -0 -1
    outer loop
      vertex 10 -15 -5
      vertex -9.78148 -32.0791 -5
      vertex 24 10 -5
    endloop
  endfacet
  facet normal 0 0 -1
    outer loop
      vertex 24 -10 -5
      vertex 10 -15 -5
      vertex 24 10 -5
    endloop
  endfacet
  facet normal 0 -0 -1
    outer loop
      vertex -0.470378 -25.5247 -5
      vertex -2.25 -26.1029 -5
      vertex 10 -15 -5
    endloop
  endfacet
  facet normal 0 -0 -1
    outer loop
      vertex 1.39058 -25.7202 -5
      vertex -0.470378 -25.5247 -5
      vertex 10 -15 -5
    endloop
  endfacet
  facet normal 0 0 -1
    outer loop
      vertex 10 -30 -5
      vertex 1.39058 -25.7202 -5
      vertex 10 -15 -5
    endloop
  endfacet
  facet normal -0.994522 0.104528 0
    outer loop
      vertex -10 30 -5
      vertex -10 30 5
      vertex -9.78148 32.0791 -5
    endloop
  endfacet
  facet normal -0.994522 0.104528 0
    outer loop
      vertex -9.78148 32.0791 -5
      vertex -10 30 5
      vertex -9.78148 32.0791 5
    endloop
  endfacet
  facet normal 0 -0 1
    outer loop
      vertex -10 30 5
      vertex -10 -30 5
      vertex -9.78148 -32.0791 5
    endloop
  endfacet
  facet normal 0 0 1
    outer loop
      vertex -8.09017 -35.8779 5
      vertex -10 30 5
      vertex -9.13546 -34.0674 5
    endloop
  endfacet
  facet normal 0 0 1
    outer loop
      vertex -9.13546 -34.0674 5
      vertex -10 30 5
      vertex -9.78148 -32.0791 5
    endloop
  endfacet
  facet normal 0 0 1
    outer loop
      vertex -6.69131 -37.4314 5
      vertex -10 30 5
      vertex -8.09017 -35.8779 5
    endloop
  endfacet
  facet normal 0 0 1
    outer loop
      vertex -5 -38.6603 5
      vertex -10 30 5
      vertex -6.69131 -37.4314 5
    endloop
  endfacet
  facet normal -0 0 1
    outer loop
      vertex -4.40166 -30.9356 5
      vertex -10 30 5
      vertex -5 -38.6603 5
    endloop
  endfacet
  facet normal 0 0 1
    outer loop
      vertex -3.64058 -27.355 5
      vertex -2.25 -26.1029 5
      vertex -10 30 5
    endloop
  endfacet
  facet normal -0 0 1
    outer loop
      vertex -0.470378 -34.4753 5
      vertex -2.25 -33.8971 5
      vertex -1.04529 -39.9452 5
    endloop
  endfacet
  facet normal 0 -0 1
    outer loop
      vertex 4.5 -30 5
      vertex 4.11095 -31.8303 5
      vertex 6.69131 -37.4314 5
    endloop
  endfacet
  facet normal -0 -0 1
    outer loop
      vertex -0.498102 -3.46437 5
      vertex -2.29201 -2.64512 5
      vertex 4.11095 -28.1697 5
    endloop
  endfacet
  facet normal 0 0 1
    outer loop
      vertex 1.45395 -3.18371 5
      vertex 9.78148 -32.0791 5
      vertex 10 -30 5
    endloop
  endfacet
  facet normal 0 -0 1
    outer loop
      vertex 1.45395 -3.18371 5
      vertex -0.498102 -3.46437 5
      vertex 9.13546 -34.0674 5
    endloop
  endfacet
  facet normal 0 0 1
    outer loop
      vertex 1.45395 3.18371 5
      vertex 2.94439 1.89224 5
      vertex -10 30 5
    endloop
  endfacet
  facet normal 0 -0 1
    outer loop
      vertex 3.5 0 5
      vertex 2.94439 -1.89224 5
      vertex 10 -15 5
    endloop
  endfacet
  facet normal 0 0 1
    outer loop
      vertex 24 -10 5
      vertex 24 10 5
      vertex 10 15 5
    endloop
  endfacet
  facet normal 0 0 1
    outer loop
      vertex -3.35823 0.986064 5
      vertex -2.29201 2.64512 5
      vertex -10 30 5
    endloop
  endfacet
  facet normal -0 0 1
    outer loop
      vertex 30 -15 5
      vertex 24 -10 5
      vertex 10 -15 5
    endloop
  endfacet
  facet normal 0 0 1
    outer loop
      vertex 10 15 5
      vertex -0.470378 25.5247 5
      vertex -2.25 26.1029 5
    endloop
  endfacet
  facet normal -0 0 1
    outer loop
      vertex 44 10 5
      vertex 30 15 5
      vertex 24 10 5
    endloop
  endfacet
  facet normal 0 0 1
    outer loop
      vertex 10 15 5
      vertex -2.25 26.1029 5
      vertex -10 30 5
    endloop
  endfacet
  facet normal 0 0 1
    outer loop
      vertex 44 15 5
      vertex 30 15 5
      vertex 44 10 5
    endloop
  endfacet
  facet normal -0 0 1
    outer loop
      vertex -3.64058 32.645 5
      vertex -2.25 33.8971 5
      vertex -10 30 5
    endloop
  endfacet
  facet normal 0 0 1
    outer loop
      vertex 1.39058 34.2798 5
      vertex 3.01109 33.3442 5
      vertex 8.09017 35.8779 5
    endloop
  endfacet
  facet normal 0 0 1
    outer loop
      vertex -0.470378 34.4753 5
      vertex 1.39058 34.2798 5
      vertex 6.69131 37.4314 5
    endloop
  endfacet
  facet normal 0 -0 1
    outer loop
      vertex 3.09017 39.5106 5
      vertex -10 30 5
      vertex 5 38.6603 5
    endloop
  endfacet
  facet normal 0 -0 1
    outer loop
      vertex 1.04529 39.9452 5
      vertex -10 30 5
      vertex 3.09017 39.5106 5
    endloop
  endfacet
  facet normal 0 -0 1
    outer loop
      vertex -1.04529 39.9452 5
      vertex -10 30 5
      vertex 1.04529 39.9452 5
    endloop
  endfacet
  facet normal 0 -0 1
    outer loop
      vertex -3.09017 39.5106 5
      vertex -10 30 5
      vertex -1.04529 39.9452 5
    endloop
  endfacet
  facet normal 0 -0 1
    outer loop
      vertex -5 38.6603 5
      vertex -10 30 5
      vertex -3.09017 39.5106 5
    endloop
  endfacet
  facet normal 0 -0 1
    outer loop
      vertex -6.69131 37.4314 5
      vertex -10 30 5
      vertex -5 38.6603 5
    endloop
  endfacet
  facet normal 0 -0 1
    outer loop
      vertex -8.09017 35.8779 5
      vertex -10 30 5
      vertex -6.69131 37.4314 5
    endloop
  endfacet
  facet normal 0 -0 1
    outer loop
      vertex -9.13546 34.0674 5
      vertex -10 30 5
      vertex -8.09017 35.8779 5
    endloop
  endfacet
  facet normal 0 -0 1
    outer loop
      vertex -9.78148 32.0791 5
      vertex -10 30 5
      vertex -9.13546 34.0674 5
    endloop
  endfacet
  facet normal 0 0 1
    outer loop
      vertex -3.09017 -39.5106 5
      vertex -4.40166 -30.9356 5
      vertex -5 -38.6603 5
    endloop
  endfacet
  facet normal -0 0 1
    outer loop
      vertex -4.40166 -29.0644 5
      vertex -10 30 5
      vertex -4.40166 -30.9356 5
    endloop
  endfacet
  facet normal 0 0 1
    outer loop
      vertex -4.40166 -29.0644 5
      vertex -3.64058 -27.355 5
      vertex -10 30 5
    endloop
  endfacet
  facet normal 0 -0 1
    outer loop
      vertex -2.25 -33.8971 5
      vertex -3.09017 -39.5106 5
      vertex -1.04529 -39.9452 5
    endloop
  endfacet
  facet normal 0 0 1
    outer loop
      vertex -0.470378 -25.5247 5
      vertex 1.39058 -25.7202 5
      vertex -10 30 5
    endloop
  endfacet
  facet normal -0 0 1
    outer loop
      vertex -2.25 -33.8971 5
      vertex -3.64058 -32.645 5
      vertex -3.09017 -39.5106 5
    endloop
  endfacet
  facet normal 0 0 1
    outer loop
      vertex -3.35823 -0.986064 5
      vertex -3.35823 0.986064 5
      vertex -10 30 5
    endloop
  endfacet
  facet normal 0 0 1
    outer loop
      vertex 1.39058 -34.2798 5
      vertex -0.470378 -34.4753 5
      vertex 1.04529 -39.9452 5
    endloop
  endfacet
  facet normal -0 -0 1
    outer loop
      vertex -3.35823 -0.986064 5
      vertex -10 30 5
      vertex 1.39058 -25.7202 5
    endloop
  endfacet
  facet normal 0 -0 1
    outer loop
      vertex 3.01109 -33.3442 5
      vertex 1.39058 -34.2798 5
      vertex 3.09017 -39.5106 5
    endloop
  endfacet
  facet normal 0 0 1
    outer loop
      vertex -0.498102 -3.46437 5
      vertex 4.11095 -28.1697 5
      vertex 6.69131 -37.4314 5
    endloop
  endfacet
  facet normal 0 0 1
    outer loop
      vertex 6.69131 -37.4314 5
      vertex 4.11095 -28.1697 5
      vertex 4.5 -30 5
    endloop
  endfacet
  facet normal -0 0 1
    outer loop
      vertex 6.69131 -37.4314 5
      vertex 4.11095 -31.8303 5
      vertex 5 -38.6603 5
    endloop
  endfacet
  facet normal -0 0 1
    outer loop
      vertex 5 -38.6603 5
      vertex 3.01109 -33.3442 5
      vertex 3.09017 -39.5106 5
    endloop
  endfacet
  facet normal -0 0 1
    outer loop
      vertex 3.09017 -39.5106 5
      vertex 1.39058 -34.2798 5
      vertex 1.04529 -39.9452 5
    endloop
  endfacet
  facet normal -0 0 1
    outer loop
      vertex 1.04529 -39.9452 5
      vertex -0.470378 -34.4753 5
      vertex -1.04529 -39.9452 5
    endloop
  endfacet
  facet normal 0 0 1
    outer loop
      vertex -3.64058 27.355 5
      vertex -4.40166 29.0644 5
      vertex -10 30 5
    endloop
  endfacet
  facet normal 0 0 1
    outer loop
      vertex -2.25 -26.1029 5
      vertex -0.470378 -25.5247 5
      vertex -10 30 5
    endloop
  endfacet
  facet normal 0 0 1
    outer loop
      vertex -2.25 26.1029 5
      vertex -3.64058 27.355 5
      vertex -10 30 5
    endloop
  endfacet
  facet normal 0 -0 1
    outer loop
      vertex 4.5 30 5
      vertex 4.11095 28.1697 5
      vertex 10 30 5
    endloop
  endfacet
  facet normal -0 -0 1
    outer loop
      vertex -2.29201 -2.64512 5
      vertex -3.35823 -0.986064 5
      vertex 1.39058 -25.7202 5
    endloop
  endfacet
  facet normal 0 0 1
    outer loop
      vertex 3.01109 33.3442 5
      vertex 4.11095 31.8303 5
      vertex 9.13546 34.0674 5
    endloop
  endfacet
  facet normal 0 0 1
    outer loop
      vertex -2.29201 -2.64512 5
      vertex 1.39058 -25.7202 5
      vertex 3.01109 -26.6558 5
    endloop
  endfacet
  facet normal 0 -0 1
    outer loop
      vertex 5 38.6603 5
      vertex -2.25 33.8971 5
      vertex 6.69131 37.4314 5
    endloop
  endfacet
  facet normal 0 0 1
    outer loop
      vertex 5 38.6603 5
      vertex -10 30 5
      vertex -2.25 33.8971 5
    endloop
  endfacet
  facet normal 0 0 1
    outer loop
      vertex -2.25 33.8971 5
      vertex -0.470378 34.4753 5
      vertex 6.69131 37.4314 5
    endloop
  endfacet
  facet normal 0 -0 1
    outer loop
      vertex 6.69131 37.4314 5
      vertex 1.39058 34.2798 5
      vertex 8.09017 35.8779 5
    endloop
  endfacet
  facet normal 0 -0 1
    outer loop
      vertex 8.09017 35.8779 5
      vertex 3.01109 33.3442 5
      vertex 9.13546 34.0674 5
    endloop
  endfacet
  facet normal 0 -0 1
    outer loop
      vertex 9.13546 34.0674 5
      vertex 4.11095 31.8303 5
      vertex 9.78148 32.0791 5
    endloop
  endfacet
  facet normal 0 -0 1
    outer loop
      vertex 9.78148 32.0791 5
      vertex 4.5 30 5
      vertex 10 30 5
    endloop
  endfacet
  facet normal 0 0 1
    outer loop
      vertex 4.11095 31.8303 5
      vertex 4.5 30 5
      vertex 9.78148 32.0791 5
    endloop
  endfacet
  facet normal -0 -0 1
    outer loop
      vertex -3.64058 -32.645 5
      vertex -4.40166 -30.9356 5
      vertex -3.09017 -39.5106 5
    endloop
  endfacet
  facet normal 0 0 1
    outer loop
      vertex 10 15 5
      vertex 3.01109 26.6558 5
      vertex 1.39058 25.7202 5
    endloop
  endfacet
  facet normal 0 0 1
    outer loop
      vertex -2.29201 2.64512 5
      vertex -0.498102 3.46437 5
      vertex -10 30 5
    endloop
  endfacet
  facet normal 0 0 1
    outer loop
      vertex -4.40166 29.0644 5
      vertex -4.40166 30.9356 5
      vertex -10 30 5
    endloop
  endfacet
  facet normal -0 0 1
    outer loop
      vertex -4.40166 30.9356 5
      vertex -3.64058 32.645 5
      vertex -10 30 5
    endloop
  endfacet
  facet normal 0 -0 1
    outer loop
      vertex 4.11095 -31.8303 5
      vertex 3.01109 -33.3442 5
      vertex 5 -38.6603 5
    endloop
  endfacet
  facet normal 0 0 1
    outer loop
      vertex 1.45395 3.18371 5
      vertex -10 30 5
      vertex -0.498102 3.46437 5
    endloop
  endfacet
  facet normal 0 -0 1
    outer loop
      vertex 2.94439 -1.89224 5
      vertex 1.45395 -3.18371 5
      vertex 10 -30 5
    endloop
  endfacet
  facet normal -0 0 1
    outer loop
      vertex 24 -10 5
      vertex 2.94439 1.89224 5
      vertex 10 -15 5
    endloop
  endfacet
  facet normal 0 0 1
    outer loop
      vertex 24 -10 5
      vertex -10 30 5
      vertex 2.94439 1.89224 5
    endloop
  endfacet
  facet normal 0 0 1
    outer loop
      vertex 2.94439 1.89224 5
      vertex 3.5 0 5
      vertex 10 -15 5
    endloop
  endfacet
  facet normal 0 0 1
    outer loop
      vertex 1.45395 -3.18371 5
      vertex 9.13546 -34.0674 5
      vertex 9.78148 -32.0791 5
    endloop
  endfacet
  facet normal 0 0 1
    outer loop
      vertex 2.94439 -1.89224 5
      vertex 10 -30 5
      vertex 10 -15 5
    endloop
  endfacet
  facet normal -0 0 1
    outer loop
      vertex 9.13546 -34.0674 5
      vertex -0.498102 -3.46437 5
      vertex 8.09017 -35.8779 5
    endloop
  endfacet
  facet normal 0 0 1
    outer loop
      vertex 4.11095 -28.1697 5
      vertex -2.29201 -2.64512 5
      vertex 3.01109 -26.6558 5
    endloop
  endfacet
  facet normal 0 0 1
    outer loop
      vertex -0.498102 -3.46437 5
      vertex 6.69131 -37.4314 5
      vertex 8.09017 -35.8779 5
    endloop
  endfacet
  facet normal 0 0 1
    outer loop
      vertex 24 -10 5
      vertex 10 15 5
      vertex -10 30 5
    endloop
  endfacet
  facet normal 0 0 1
    outer loop
      vertex 10 15 5
      vertex 1.39058 25.7202 5
      vertex -0.470378 25.5247 5
    endloop
  endfacet
  facet normal 0 0 1
    outer loop
      vertex 44 -10 5
      vertex 30 -15 5
      vertex 44 -15 5
    endloop
  endfacet
  facet normal 0 0 1
    outer loop
      vertex 44 -10 5
      vertex 24 -10 5
      vertex 30 -15 5
    endloop
  endfacet
  facet normal 0 0 1
    outer loop
      vertex 30 15 5
      vertex 10 15 5
      vertex 24 10 5
    endloop
  endfacet
  facet normal 0 0 1
    outer loop
      vertex 10 15 5
      vertex 4.11095 28.1697 5
      vertex 3.01109 26.6558 5
    endloop
  endfacet
  facet normal 0 0 1
    outer loop
      vertex 10 15 5
      vertex 10 30 5
      vertex 4.11095 28.1697 5
    endloop
  endfacet
  facet normal -0.951057 -0.309017 -0
    outer loop
      vertex -9.78148 -32.0791 -5
      vertex -9.13546 -34.0674 -5
      vertex -9.78148 -32.0791 5
    endloop
  endfacet
  facet normal -0.951057 -0.309017 0
    outer loop
      vertex -9.78148 -32.0791 5
      vertex -9.13546 -34.0674 -5
      vertex -9.13546 -34.0674 5
    endloop
  endfacet
  facet normal -0.866025 -0.5 -0
    outer loop
      vertex -9.13546 -34.0674 -5
      vertex -8.09017 -35.8779 -5
      vertex -9.13546 -34.0674 5
    endloop
  endfacet
  facet normal -0.866025 -0.5 0
    outer loop
      vertex -9.13546 -34.0674 5
      vertex -8.09017 -35.8779 -5
      vertex -8.09017 -35.8779 5
    endloop
  endfacet
  facet normal -0.743145 -0.669131 -0
    outer loop
      vertex -8.09017 -35.8779 -5
      vertex -6.69131 -37.4314 -5
      vertex -8.09017 -35.8779 5
    endloop
  endfacet
  facet normal -0.743145 -0.669131 0
    outer loop
      vertex -8.09017 -35.8779 5
      vertex -6.69131 -37.4314 -5
      vertex -6.69131 -37.4314 5
    endloop
  endfacet
  facet normal -0.587785 -0.809017 0
    outer loop
      vertex -6.69131 -37.4314 5
      vertex -6.69131 -37.4314 -5
      vertex -5 -38.6603 -5
    endloop
  endfacet
  facet normal -0.587785 -0.809017 0
    outer loop
      vertex -5 -38.6603 5
      vertex -6.69131 -37.4314 5
      vertex -5 -38.6603 -5
    endloop
  endfacet
  facet normal -0.406737 -0.913545 0
    outer loop
      vertex -5 -38.6603 5
      vertex -5 -38.6603 -5
      vertex -3.09017 -39.5106 -5
    endloop
  endfacet
  facet normal -0.406737 -0.913545 0
    outer loop
      vertex -3.09017 -39.5106 5
      vertex -5 -38.6603 5
      vertex -3.09017 -39.5106 -5
    endloop
  endfacet
  facet normal -0.207912 -0.978148 0
    outer loop
      vertex -3.09017 -39.5106 5
      vertex -3.09017 -39.5106 -5
      vertex -1.04529 -39.9452 -5
    endloop
  endfacet
  facet normal -0.207912 -0.978148 0
    outer loop
      vertex -1.04529 -39.9452 5
      vertex -3.09017 -39.5106 5
      vertex -1.04529 -39.9452 -5
    endloop
  endfacet
  facet normal 0 -1 0
    outer loop
      vertex -1.04529 -39.9452 5
      vertex -1.04529 -39.9452 -5
      vertex 1.04529 -39.9452 -5
    endloop
  endfacet
  facet normal 0 -1 0
    outer loop
      vertex 1.04529 -39.9452 5
      vertex -1.04529 -39.9452 5
      vertex 1.04529 -39.9452 -5
    endloop
  endfacet
  facet normal 0.207912 -0.978148 0
    outer loop
      vertex 1.04529 -39.9452 5
      vertex 1.04529 -39.9452 -5
      vertex 3.09017 -39.5106 -5
    endloop
  endfacet
  facet normal 0.207912 -0.978148 0
    outer loop
      vertex 3.09017 -39.5106 5
      vertex 1.04529 -39.9452 5
      vertex 3.09017 -39.5106 -5
    endloop
  endfacet
  facet normal 0.406737 -0.913545 0
    outer loop
      vertex 3.09017 -39.5106 5
      vertex 3.09017 -39.5106 -5
      vertex 5 -38.6603 -5
    endloop
  endfacet
  facet normal 0.406737 -0.913545 0
    outer loop
      vertex 5 -38.6603 5
      vertex 3.09017 -39.5106 5
      vertex 5 -38.6603 -5
    endloop
  endfacet
  facet normal 0.587785 -0.809017 0
    outer loop
      vertex 5 -38.6603 5
      vertex 5 -38.6603 -5
      vertex 6.69131 -37.4314 -5
    endloop
  endfacet
  facet normal 0.587785 -0.809017 0
    outer loop
      vertex 6.69131 -37.4314 5
      vertex 5 -38.6603 5
      vertex 6.69131 -37.4314 -5
    endloop
  endfacet
  facet normal 0.743145 -0.669131 0
    outer loop
      vertex 6.69131 -37.4314 5
      vertex 6.69131 -37.4314 -5
      vertex 8.09017 -35.8779 -5
    endloop
  endfacet
  facet normal 0.743145 -0.669131 0
    outer loop
      vertex 8.09017 -35.8779 5
      vertex 6.69131 -37.4314 5
      vertex 8.09017 -35.8779 -5
    endloop
  endfacet
  facet normal 0.866025 -0.5 0
    outer loop
      vertex 8.09017 -35.8779 5
      vertex 8.09017 -35.8779 -5
      vertex 9.13546 -34.0674 -5
    endloop
  endfacet
  facet normal 0.866025 -0.5 0
    outer loop
      vertex 9.13546 -34.0674 5
      vertex 8.09017 -35.8779 5
      vertex 9.13546 -34.0674 -5
    endloop
  endfacet
  facet normal 0.951057 -0.309017 0
    outer loop
      vertex 9.13546 -34.0674 5
      vertex 9.13546 -34.0674 -5
      vertex 9.78148 -32.0791 -5
    endloop
  endfacet
  facet normal 0.951057 -0.309017 0
    outer loop
      vertex 9.78148 -32.0791 5
      vertex 9.13546 -34.0674 5
      vertex 9.78148 -32.0791 -5
    endloop
  endfacet
  facet normal 0.994522 -0.104528 0
    outer loop
      vertex 9.78148 -32.0791 5
      vertex 9.78148 -32.0791 -5
      vertex 10 -30 -5
    endloop
  endfacet
  facet normal 0.994522 -0.104528 0
    outer loop
      vertex 10 -30 5
      vertex 9.78148 -32.0791 5
      vertex 10 -30 -5
    endloop
  endfacet
  facet normal 1 0 0
    outer loop
      vertex 10 -15 -5
      vertex 10 -15 5
      vertex 10 -30 5
    endloop
  endfacet
  facet normal 1 0 0
    outer loop
      vertex 10 -30 -5
      vertex 10 -15 -5
      vertex 10 -30 5
    endloop
  endfacet
  facet normal 0 -1 0
    outer loop
      vertex 10 -15 5
      vertex 10 -15 -5
      vertex 30 -15 -5
    endloop
  endfacet
  facet normal 0 -1 0
    outer loop
      vertex 30 -15 5
      vertex 10 -15 5
      vertex 30 -15 -5
    endloop
  endfacet
  facet normal 0 -1 0
    outer loop
      vertex 34 -15 -2.5
      vertex 30 -15 -5
      vertex 44 -15 -5
    endloop
  endfacet
  facet normal 0 -1 0
    outer loop
      vertex 31.5 -15 3.33067e-15
      vertex 30 -15 -5
      vertex 32.2322 -15 -1.76777
    endloop
  endfacet
  facet normal 0 -1 0
    outer loop
      vertex 30 -15 5
      vertex 30 -15 -5
      vertex 31.5 -15 3.33067e-15
    endloop
  endfacet
  facet normal 0 -1 0
    outer loop
      vertex 35.7678 -15 -1.76777
      vertex 34 -15 -2.5
      vertex 44 -15 -5
    endloop
  endfacet
  facet normal 0 -1 0
    outer loop
      vertex 36.5 -15 3.33067e-15
      vertex 35.7678 -15 -1.76777
      vertex 44 -15 -5
    endloop
  endfacet
  facet normal 0 -1 0
    outer loop
      vertex 44 -15 5
      vertex 30 -15 5
      vertex 34 -15 2.5
    endloop
  endfacet
  facet normal 0 -1 0
    outer loop
      vertex 44 -15 5
      vertex 35.7678 -15 1.76777
      vertex 44 -15 -5
    endloop
  endfacet
  facet normal 0 -1 0
    outer loop
      vertex 44 -15 5
      vertex 34 -15 2.5
      vertex 35.7678 -15 1.76777
    endloop
  endfacet
  facet normal 0 -1 0
    outer loop
      vertex 35.7678 -15 1.76777
      vertex 36.5 -15 3.33067e-15
      vertex 44 -15 -5
    endloop
  endfacet
  facet normal 0 -1 0
    outer loop
      vertex 32.2322 -15 -1.76777
      vertex 30 -15 -5
      vertex 34 -15 -2.5
    endloop
  endfacet
  facet normal 0 -1 -0
    outer loop
      vertex 31.5 -15 3.33067e-15
      vertex 32.2322 -15 1.76777
      vertex 30 -15 5
    endloop
  endfacet
  facet normal 0 -1 -0
    outer loop
      vertex 32.2322 -15 1.76777
      vertex 34 -15 2.5
      vertex 30 -15 5
    endloop
  endfacet
  facet normal 1 0 -0
    outer loop
      vertex 44 -15 5
      vertex 44 -15 -5
      vertex 44 -10 -5
    endloop
  endfacet
  facet normal 1 0 0
    outer loop
      vertex 44 -10 5
      vertex 44 -15 5
      vertex 44 -10 -5
    endloop
  endfacet
  facet normal 0 1 0
    outer loop
      vertex 32.2322 -10 1.76777
      vertex 24 -10 5
      vertex 34 -10 2.5
    endloop
  endfacet
  facet normal 0 1 -0
    outer loop
      vertex 34 -10 -2.5
      vertex 44 -10 -5
      vertex 24 -10 -5
    endloop
  endfacet
  facet normal 0 1 -0
    outer loop
      vertex 36.5 -10 2.22045e-15
      vertex 44 -10 -5
      vertex 35.7678 -10 -1.76777
    endloop
  endfacet
  facet normal 0 1 -0
    outer loop
      vertex 24 -10 5
      vertex 32.2322 -10 -1.76777
      vertex 24 -10 -5
    endloop
  endfacet
  facet normal 0 1 -0
    outer loop
      vertex 32.2322 -10 -1.76777
      vertex 34 -10 -2.5
      vertex 24 -10 -5
    endloop
  endfacet
  facet normal 0 1 0
    outer loop
      vertex 44 -10 5
      vertex 44 -10 -5
      vertex 36.5 -10 2.22045e-15
    endloop
  endfacet
  facet normal 0 1 0
    outer loop
      vertex 44 -10 5
      vertex 36.5 -10 2.22045e-15
      vertex 35.7678 -10 1.76777
    endloop
  endfacet
  facet normal 0 1 0
    outer loop
      vertex 44 -10 5
      vertex 35.7678 -10 1.76777
      vertex 34 -10 2.5
    endloop
  endfacet
  facet normal 0 1 0
    outer loop
      vertex 44 -10 5
      vertex 34 -10 2.5
      vertex 24 -10 5
    endloop
  endfacet
  facet normal 0 1 0
    outer loop
      vertex 31.5 -10 2.22045e-15
      vertex 24 -10 5
      vertex 32.2322 -10 1.76777
    endloop
  endfacet
  facet normal 0 1 0
    outer loop
      vertex 24 -10 5
      vertex 31.5 -10 2.22045e-15
      vertex 32.2322 -10 -1.76777
    endloop
  endfacet
  facet normal 0 1 -0
    outer loop
      vertex 35.7678 -10 -1.76777
      vertex 44 -10 -5
      vertex 34 -10 -2.5
    endloop
  endfacet
  facet normal 1 0 0
    outer loop
      vertex 24 10 -5
      vertex 24 10 5
      vertex 24 -10 5
    endloop
  endfacet
  facet normal 1 0 0
    outer loop
      vertex 24 -10 -5
      vertex 24 10 -5
      vertex 24 -10 5
    endloop
  endfacet
  facet normal 0 -1 -0
    outer loop
      vertex 34 10 2.5
      vertex 44 10 5
      vertex 24 10 5
    endloop
  endfacet
  facet normal -0 -1 0
    outer loop
      vertex 34 10 2.5
      vertex 35.7678 10 1.76777
      vertex 44 10 5
    endloop
  endfacet
  facet normal 0 -1 -0
    outer loop
      vertex 24 10 -5
      vertex 31.5 10 -2.22045e-15
      vertex 24 10 5
    endloop
  endfacet
  facet normal 0 -1 -0
    outer loop
      vertex 32.2322 10 1.76777
      vertex 34 10 2.5
      vertex 24 10 5
    endloop
  endfacet
  facet normal 0 -1 0
    outer loop
      vertex 44 10 -5
      vertex 44 10 5
      vertex 35.7678 10 1.76777
    endloop
  endfacet
  facet normal 0 -1 0
    outer loop
      vertex 44 10 -5
      vertex 35.7678 10 1.76777
      vertex 36.5 10 -2.22045e-15
    endloop
  endfacet
  facet normal -0 -1 0
    outer loop
      vertex 34 10 -2.5
      vertex 44 10 -5
      vertex 35.7678 10 -1.76777
    endloop
  endfacet
  facet normal -0 -1 0
    outer loop
      vertex 24 10 -5
      vertex 44 10 -5
      vertex 34 10 -2.5
    endloop
  endfacet
  facet normal 0 -1 0
    outer loop
      vertex 24 10 -5
      vertex 32.2322 10 -1.76777
      vertex 31.5 10 -2.22045e-15
    endloop
  endfacet
  facet normal 0 -1 0
    outer loop
      vertex 34 10 -2.5
      vertex 32.2322 10 -1.76777
      vertex 24 10 -5
    endloop
  endfacet
  facet normal 0 -1 -0
    outer loop
      vertex 31.5 10 -2.22045e-15
      vertex 32.2322 10 1.76777
      vertex 24 10 5
    endloop
  endfacet
  facet normal 0 -1 0
    outer loop
      vertex 36.5 10 -2.22045e-15
      vertex 35.7678 10 -1.76777
      vertex 44 10 -5
    endloop
  endfacet
  facet normal 1 0 -0
    outer loop
      vertex 44 10 5
      vertex 44 10 -5
      vertex 44 15 -5
    endloop
  endfacet
  facet normal 1 0 0
    outer loop
      vertex 44 15 5
      vertex 44 10 5
      vertex 44 15 -5
    endloop
  endfacet
  facet normal 0 1 0
    outer loop
      vertex 35.7678 15 1.76777
      vertex 30 15 5
      vertex 44 15 5
    endloop
  endfacet
  facet normal 0 1 0
    outer loop
      vertex 30 15 -5
      vertex 30 15 5
      vertex 31.5 15 -3.33067e-15
    endloop
  endfacet
  facet normal 0 1 0
    outer loop
      vertex 30 15 -5
      vertex 31.5 15 -3.33067e-15
      vertex 32.2322 15 -1.76777
    endloop
  endfacet
  facet normal 0 1 0
    outer loop
      vertex 30 15 -5
      vertex 32.2322 15 -1.76777
      vertex 34 15 -2.5
    endloop
  endfacet
  facet normal 0 1 0
    outer loop
      vertex 30 15 -5
      vertex 34 15 -2.5
      vertex 44 15 -5
    endloop
  endfacet
  facet normal 0 1 -0
    outer loop
      vertex 36.5 15 -3.33067e-15
      vertex 44 15 -5
      vertex 35.7678 15 -1.76777
    endloop
  endfacet
  facet normal 0 1 0
    outer loop
      vertex 35.7678 15 1.76777
      vertex 44 15 -5
      vertex 36.5 15 -3.33067e-15
    endloop
  endfacet
  facet normal 0 1 0
    outer loop
      vertex 34 15 2.5
      vertex 30 15 5
      vertex 35.7678 15 1.76777
    endloop
  endfacet
  facet normal 0 1 0
    outer loop
      vertex 44 15 -5
      vertex 35.7678 15 1.76777
      vertex 44 15 5
    endloop
  endfacet
  facet normal 0 1 0
    outer loop
      vertex 32.2322 15 1.76777
      vertex 30 15 5
      vertex 34 15 2.5
    endloop
  endfacet
  facet normal 0 1 0
    outer loop
      vertex 31.5 15 -3.33067e-15
      vertex 30 15 5
      vertex 32.2322 15 1.76777
    endloop
  endfacet
  facet normal 0 1 -0
    outer loop
      vertex 35.7678 15 -1.76777
      vertex 44 15 -5
      vertex 34 15 -2.5
    endloop
  endfacet
  facet normal 0 1 0
    outer loop
      vertex 10 15 -5
      vertex 10 15 5
      vertex 30 15 -5
    endloop
  endfacet
  facet normal 0 1 0
    outer loop
      vertex 30 15 -5
      vertex 10 15 5
      vertex 30 15 5
    endloop
  endfacet
  facet normal 1 0 0
    outer loop
      vertex 10 30 -5
      vertex 10 30 5
      vertex 10 15 5
    endloop
  endfacet
  facet normal 1 0 0
    outer loop
      vertex 10 15 -5
      vertex 10 30 -5
      vertex 10 15 5
    endloop
  endfacet
  facet normal 0.994522 0.104528 0
    outer loop
      vertex 10 30 -5
      vertex 9.78148 32.0791 -5
      vertex 9.78148 32.0791 5
    endloop
  endfacet
  facet normal 0.994522 0.104528 -0
    outer loop
      vertex 10 30 5
      vertex 10 30 -5
      vertex 9.78148 32.0791 5
    endloop
  endfacet
  facet normal 0.951057 0.309017 0
    outer loop
      vertex 9.78148 32.0791 -5
      vertex 9.13546 34.0674 -5
      vertex 9.13546 34.0674 5
    endloop
  endfacet
  facet normal 0.951057 0.309017 -0
    outer loop
      vertex 9.78148 32.0791 5
      vertex 9.78148 32.0791 -5
      vertex 9.13546 34.0674 5
    endloop
  endfacet
  facet normal 0.866025 0.5 0
    outer loop
      vertex 9.13546 34.0674 -5
      vertex 8.09017 35.8779 -5
      vertex 8.09017 35.8779 5
    endloop
  endfacet
  facet normal 0.866025 0.5 -0
    outer loop
      vertex 9.13546 34.0674 5
      vertex 9.13546 34.0674 -5
      vertex 8.09017 35.8779 5
    endloop
  endfacet
  facet normal 0.743145 0.669131 0
    outer loop
      vertex 8.09017 35.8779 -5
      vertex 6.69131 37.4314 -5
      vertex 6.69131 37.4314 5
    endloop
  endfacet
  facet normal 0.743145 0.669131 -0
    outer loop
      vertex 8.09017 35.8779 5
      vertex 8.09017 35.8779 -5
      vertex 6.69131 37.4314 5
    endloop
  endfacet
  facet normal 0.587785 0.809017 0
    outer loop
      vertex 5 38.6603 -5
      vertex 5 38.6603 5
      vertex 6.69131 37.4314 -5
    endloop
  endfacet
  facet normal 0.587785 0.809017 0
    outer loop
      vertex 6.69131 37.4314 -5
      vertex 5 38.6603 5
      vertex 6.69131 37.4314 5
    endloop
  endfacet
  facet normal 0.406737 0.913545 0
    outer loop
      vertex 3.09017 39.5106 -5
      vertex 3.09017 39.5106 5
      vertex 5 38.6603 -5
    endloop
  endfacet
  facet normal 0.406737 0.913545 0
    outer loop
      vertex 5 38.6603 -5
      vertex 3.09017 39.5106 5
      vertex 5 38.6603 5
    endloop
  endfacet
  facet normal 0.207912 0.978148 0
    outer loop
      vertex 1.04529 39.9452 -5
      vertex 1.04529 39.9452 5
      vertex 3.09017 39.5106 -5
    endloop
  endfacet
  facet normal 0.207912 0.978148 0
    outer loop
      vertex 3.09017 39.5106 -5
      vertex 1.04529 39.9452 5
      vertex 3.09017 39.5106 5
    endloop
  endfacet
  facet normal 0 1 0
    outer loop
      vertex -1.04529 39.9452 -5
      vertex -1.04529 39.9452 5
      vertex 1.04529 39.9452 -5
    endloop
  endfacet
  facet normal 0 1 0
    outer loop
      vertex 1.04529 39.9452 -5
      vertex -1.04529 39.9452 5
      vertex 1.04529 39.9452 5
    endloop
  endfacet
  facet normal -0.207912 0.978148 0
    outer loop
      vertex -3.09017 39.5106 -5
      vertex -3.09017 39.5106 5
      vertex -1.04529 39.9452 -5
    endloop
  endfacet
  facet normal -0.207912 0.978148 0
    outer loop
      vertex -1.04529 39.9452 -5
      vertex -3.09017 39.5106 5
      vertex -1.04529 39.9452 5
    endloop
  endfacet
  facet normal -0.406737 0.913545 0
    outer loop
      vertex -5 38.6603 -5
      vertex -5 38.6603 5
      vertex -3.09017 39.5106 -5
    endloop
  endfacet
  facet normal -0.406737 0.913545 0
    outer loop
      vertex -3.09017 39.5106 -5
      vertex -5 38.6603 5
      vertex -3.09017 39.5106 5
    endloop
  endfacet
  facet normal -0.587785 0.809017 0
    outer loop
      vertex -6.69131 37.4314 -5
      vertex -6.69131 37.4314 5
      vertex -5 38.6603 -5
    endloop
  endfacet
  facet normal -0.587785 0.809017 0
    outer loop
      vertex -5 38.6603 -5
      vertex -6.69131 37.4314 5
      vertex -5 38.6603 5
    endloop
  endfacet
  facet normal -0.743145 0.669131 0
    outer loop
      vertex -8.09017 35.8779 -5
      vertex -8.09017 35.8779 5
      vertex -6.69131 37.4314 -5
    endloop
  endfacet
  facet normal -0.743145 0.669131 0
    outer loop
      vertex -6.69131 37.4314 -5
      vertex -8.09017 35.8779 5
      vertex -6.69131 37.4314 5
    endloop
  endfacet
  facet normal -0.866025 0.5 0
    outer loop
      vertex -9.13546 34.0674 -5
      vertex -9.13546 34.0674 5
      vertex -8.09017 35.8779 -5
    endloop
  endfacet
  facet normal -0.866025 0.5 0
    outer loop
      vertex -8.09017 35.8779 -5
      vertex -9.13546 34.0674 5
      vertex -8.09017 35.8779 5
    endloop
  endfacet
  facet normal -0.951057 0.309017 0
    outer loop
      vertex -9.78148 32.0791 -5
      vertex -9.78148 32.0791 5
      vertex -9.13546 34.0674 -5
    endloop
  endfacet
  facet normal -0.951057 0.309017 0
    outer loop
      vertex -9.13546 34.0674 -5
      vertex -9.78148 32.0791 5
      vertex -9.13546 34.0674 5
    endloop
  endfacet
  facet normal 0.913545 -0.406737 0
    outer loop
      vertex -3.64058 -27.355 -5
      vertex -3.64058 -27.355 5
      vertex -4.40166 -29.0644 5
    endloop
  endfacet
  facet normal 0.913545 -0.406737 0
    outer loop
      vertex -4.40166 -29.0644 -5
      vertex -3.64058 -27.355 -5
      vertex -4.40166 -29.0644 5
    endloop
  endfacet
  facet normal 1 0 0
    outer loop
      vertex -4.40166 -29.0644 -5
      vertex -4.40166 -29.0644 5
      vertex -4.40166 -30.9356 5
    endloop
  endfacet
  facet normal 1 0 0
    outer loop
      vertex -4.40166 -30.9356 -5
      vertex -4.40166 -29.0644 -5
      vertex -4.40166 -30.9356 5
    endloop
  endfacet
  facet normal 0.669131 -0.743145 0
    outer loop
      vertex -2.25 -26.1029 -5
      vertex -2.25 -26.1029 5
      vertex -3.64058 -27.355 5
    endloop
  endfacet
  facet normal 0.669131 -0.743145 0
    outer loop
      vertex -3.64058 -27.355 -5
      vertex -2.25 -26.1029 -5
      vertex -3.64058 -27.355 5
    endloop
  endfacet
  facet normal 0.309017 -0.951056 0
    outer loop
      vertex -0.470378 -25.5247 -5
      vertex -0.470378 -25.5247 5
      vertex -2.25 -26.1029 5
    endloop
  endfacet
  facet normal 0.309017 -0.951056 0
    outer loop
      vertex -2.25 -26.1029 -5
      vertex -0.470378 -25.5247 -5
      vertex -2.25 -26.1029 5
    endloop
  endfacet
  facet normal -0.104529 -0.994522 -0
    outer loop
      vertex 1.39058 -25.7202 -5
      vertex 1.39058 -25.7202 5
      vertex -0.470378 -25.5247 5
    endloop
  endfacet
  facet normal -0.104529 -0.994522 -0
    outer loop
      vertex -0.470378 -25.5247 -5
      vertex 1.39058 -25.7202 -5
      vertex -0.470378 -25.5247 5
    endloop
  endfacet
  facet normal -0.5 -0.866026 -0
    outer loop
      vertex 3.01109 -26.6558 -5
      vertex 3.01109 -26.6558 5
      vertex 1.39058 -25.7202 5
    endloop
  endfacet
  facet normal -0.5 -0.866026 -0
    outer loop
      vertex 1.39058 -25.7202 -5
      vertex 3.01109 -26.6558 -5
      vertex 1.39058 -25.7202 5
    endloop
  endfacet
  facet normal -0.809017 -0.587785 0
    outer loop
      vertex 4.11095 -28.1697 5
      vertex 3.01109 -26.6558 5
      vertex 4.11095 -28.1697 -5
    endloop
  endfacet
  facet normal -0.809017 -0.587785 0
    outer loop
      vertex 4.11095 -28.1697 -5
      vertex 3.01109 -26.6558 5
      vertex 3.01109 -26.6558 -5
    endloop
  endfacet
  facet normal -0.978148 -0.207911 0
    outer loop
      vertex 4.5 -30 5
      vertex 4.11095 -28.1697 5
      vertex 4.5 -30 -5
    endloop
  endfacet
  facet normal -0.978148 -0.207911 0
    outer loop
      vertex 4.5 -30 -5
      vertex 4.11095 -28.1697 5
      vertex 4.11095 -28.1697 -5
    endloop
  endfacet
  facet normal -0.978148 0.207911 0
    outer loop
      vertex 4.5 -30 5
      vertex 4.5 -30 -5
      vertex 4.11095 -31.8303 5
    endloop
  endfacet
  facet normal -0.978148 0.207911 0
    outer loop
      vertex 4.11095 -31.8303 5
      vertex 4.5 -30 -5
      vertex 4.11095 -31.8303 -5
    endloop
  endfacet
  facet normal -0.809017 0.587785 0
    outer loop
      vertex 4.11095 -31.8303 5
      vertex 4.11095 -31.8303 -5
      vertex 3.01109 -33.3442 5
    endloop
  endfacet
  facet normal -0.809017 0.587785 0
    outer loop
      vertex 3.01109 -33.3442 5
      vertex 4.11095 -31.8303 -5
      vertex 3.01109 -33.3442 -5
    endloop
  endfacet
  facet normal -0.5 0.866026 0
    outer loop
      vertex 3.01109 -33.3442 5
      vertex 3.01109 -33.3442 -5
      vertex 1.39058 -34.2798 5
    endloop
  endfacet
  facet normal -0.5 0.866026 0
    outer loop
      vertex 1.39058 -34.2798 5
      vertex 3.01109 -33.3442 -5
      vertex 1.39058 -34.2798 -5
    endloop
  endfacet
  facet normal -0.104529 0.994522 0
    outer loop
      vertex 1.39058 -34.2798 5
      vertex 1.39058 -34.2798 -5
      vertex -0.470378 -34.4753 5
    endloop
  endfacet
  facet normal -0.104529 0.994522 0
    outer loop
      vertex -0.470378 -34.4753 5
      vertex 1.39058 -34.2798 -5
      vertex -0.470378 -34.4753 -5
    endloop
  endfacet
  facet normal 0.309017 0.951056 -0
    outer loop
      vertex -0.470378 -34.4753 5
      vertex -0.470378 -34.4753 -5
      vertex -2.25 -33.8971 5
    endloop
  endfacet
  facet normal 0.309017 0.951056 -0
    outer loop
      vertex -2.25 -33.8971 5
      vertex -0.470378 -34.4753 -5
      vertex -2.25 -33.8971 -5
    endloop
  endfacet
  facet normal 0.669131 0.743145 -0
    outer loop
      vertex -2.25 -33.8971 5
      vertex -2.25 -33.8971 -5
      vertex -3.64058 -32.645 5
    endloop
  endfacet
  facet normal 0.669131 0.743145 -0
    outer loop
      vertex -3.64058 -32.645 5
      vertex -2.25 -33.8971 -5
      vertex -3.64058 -32.645 -5
    endloop
  endfacet
  facet normal 0.913545 0.406737 0
    outer loop
      vertex -4.40166 -30.9356 5
      vertex -3.64058 -32.645 5
      vertex -3.64058 -32.645 -5
    endloop
  endfacet
  facet normal 0.913545 0.406737 0
    outer loop
      vertex -4.40166 -30.9356 -5
      vertex -4.40166 -30.9356 5
      vertex -3.64058 -32.645 -5
    endloop
  endfacet
  facet normal 0.913545 -0.406737 0
    outer loop
      vertex -3.64058 32.645 -5
      vertex -3.64058 32.645 5
      vertex -4.40166 30.9356 5
    endloop
  endfacet
  facet normal 0.913545 -0.406737 0
    outer loop
      vertex -4.40166 30.9356 -5
      vertex -3.64058 32.645 -5
      vertex -4.40166 30.9356 5
    endloop
  endfacet
  facet normal 1 0 0
    outer loop
      vertex -4.40166 30.9356 -5
      vertex -4.40166 30.9356 5
      vertex -4.40166 29.0644 5
    endloop
  endfacet
  facet normal 1 0 0
    outer loop
      vertex -4.40166 29.0644 -5
      vertex -4.40166 30.9356 -5
      vertex -4.40166 29.0644 5
    endloop
  endfacet
  facet normal 0.669131 -0.743145 0
    outer loop
      vertex -2.25 33.8971 -5
      vertex -2.25 33.8971 5
      vertex -3.64058 32.645 5
    endloop
  endfacet
  facet normal 0.669131 -0.743145 0
    outer loop
      vertex -3.64058 32.645 -5
      vertex -2.25 33.8971 -5
      vertex -3.64058 32.645 5
    endloop
  endfacet
  facet normal 0.309017 -0.951056 0
    outer loop
      vertex -0.470378 34.4753 -5
      vertex -0.470378 34.4753 5
      vertex -2.25 33.8971 5
    endloop
  endfacet
  facet normal 0.309017 -0.951056 0
    outer loop
      vertex -2.25 33.8971 -5
      vertex -0.470378 34.4753 -5
      vertex -2.25 33.8971 5
    endloop
  endfacet
  facet normal -0.104529 -0.994522 -0
    outer loop
      vertex 1.39058 34.2798 -5
      vertex 1.39058 34.2798 5
      vertex -0.470378 34.4753 5
    endloop
  endfacet
  facet normal -0.104529 -0.994522 -0
    outer loop
      vertex -0.470378 34.4753 -5
      vertex 1.39058 34.2798 -5
      vertex -0.470378 34.4753 5
    endloop
  endfacet
  facet normal -0.5 -0.866026 -0
    outer loop
      vertex 3.01109 33.3442 -5
      vertex 3.01109 33.3442 5
      vertex 1.39058 34.2798 5
    endloop
  endfacet
  facet normal -0.5 -0.866026 -0
    outer loop
      vertex 1.39058 34.2798 -5
      vertex 3.01109 33.3442 -5
      vertex 1.39058 34.2798 5
    endloop
  endfacet
  facet normal -0.809017 -0.587785 0
    outer loop
      vertex 4.11095 31.8303 5
      vertex 3.01109 33.3442 5
      vertex 4.11095 31.8303 -5
    endloop
  endfacet
  facet normal -0.809017 -0.587785 0
    outer loop
      vertex 4.11095 31.8303 -5
      vertex 3.01109 33.3442 5
      vertex 3.01109 33.3442 -5
    endloop
  endfacet
  facet normal -0.978148 -0.207911 0
    outer loop
      vertex 4.5 30 5
      vertex 4.11095 31.8303 5
      vertex 4.5 30 -5
    endloop
  endfacet
  facet normal -0.978148 -0.207911 0
    outer loop
      vertex 4.5 30 -5
      vertex 4.11095 31.8303 5
      vertex 4.11095 31.8303 -5
    endloop
  endfacet
  facet normal -0.978148 0.207911 0
    outer loop
      vertex 4.5 30 5
      vertex 4.5 30 -5
      vertex 4.11095 28.1697 5
    endloop
  endfacet
  facet normal -0.978148 0.207911 0
    outer loop
      vertex 4.11095 28.1697 5
      vertex 4.5 30 -5
      vertex 4.11095 28.1697 -5
    endloop
  endfacet
  facet normal -0.809017 0.587785 0
    outer loop
      vertex 4.11095 28.1697 5
      vertex 4.11095 28.1697 -5
      vertex 3.01109 26.6558 5
    endloop
  endfacet
  facet normal -0.809017 0.587785 0
    outer loop
      vertex 3.01109 26.6558 5
      vertex 4.11095 28.1697 -5
      vertex 3.01109 26.6558 -5
    endloop
  endfacet
  facet normal -0.5 0.866026 0
    outer loop
      vertex 3.01109 26.6558 5
      vertex 3.01109 26.6558 -5
      vertex 1.39058 25.7202 5
    endloop
  endfacet
  facet normal -0.5 0.866026 0
    outer loop
      vertex 1.39058 25.7202 5
      vertex 3.01109 26.6558 -5
      vertex 1.39058 25.7202 -5
    endloop
  endfacet
  facet normal -0.104529 0.994522 0
    outer loop
      vertex 1.39058 25.7202 5
      vertex 1.39058 25.7202 -5
      vertex -0.470378 25.5247 5
    endloop
  endfacet
  facet normal -0.104529 0.994522 0
    outer loop
      vertex -0.470378 25.5247 5
      vertex 1.39058 25.7202 -5
      vertex -0.470378 25.5247 -5
    endloop
  endfacet
  facet normal 0.309017 0.951056 -0
    outer loop
      vertex -0.470378 25.5247 5
      vertex -0.470378 25.5247 -5
      vertex -2.25 26.1029 5
    endloop
  endfacet
  facet normal 0.309017 0.951056 -0
    outer loop
      vertex -2.25 26.1029 5
      vertex -0.470378 25.5247 -5
      vertex -2.25 26.1029 -5
    endloop
  endfacet
  facet normal 0.669131 0.743145 -0
    outer loop
      vertex -2.25 26.1029 5
      vertex -2.25 26.1029 -5
      vertex -3.64058 27.355 5
    endloop
  endfacet
  facet normal 0.669131 0.743145 -0
    outer loop
      vertex -3.64058 27.355 5
      vertex -2.25 26.1029 -5
      vertex -3.64058 27.355 -5
    endloop
  endfacet
  facet normal 0.913545 0.406737 0
    outer loop
      vertex -4.40166 29.0644 5
      vertex -3.64058 27.355 5
      vertex -3.64058 27.355 -5
    endloop
  endfacet
  facet normal 0.913545 0.406737 0
    outer loop
      vertex -4.40166 29.0644 -5
      vertex -4.40166 29.0644 5
      vertex -3.64058 27.355 -5
    endloop
  endfacet
  facet normal 0.841254 -0.54064 0
    outer loop
      vertex -2.29201 2.64512 -5
      vertex -2.29201 2.64512 5
      vertex -3.35823 0.986064 5
    endloop
  endfacet
  facet normal 0.841254 -0.54064 0
    outer loop
      vertex -3.35823 0.986064 -5
      vertex -2.29201 2.64512 -5
      vertex -3.35823 0.986064 5
    endloop
  endfacet
  facet normal 1 0 0
    outer loop
      vertex -3.35823 0.986064 -5
      vertex -3.35823 0.986064 5
      vertex -3.35823 -0.986064 5
    endloop
  endfacet
  facet normal 1 0 0
    outer loop
      vertex -3.35823 -0.986064 -5
      vertex -3.35823 0.986064 -5
      vertex -3.35823 -0.986064 5
    endloop
  endfacet
  facet normal 0.415415 -0.909632 0
    outer loop
      vertex -0.498102 3.46437 -5
      vertex -0.498102 3.46437 5
      vertex -2.29201 2.64512 5
    endloop
  endfacet
  facet normal 0.415415 -0.909632 0
    outer loop
      vertex -2.29201 2.64512 -5
      vertex -0.498102 3.46437 -5
      vertex -2.29201 2.64512 5
    endloop
  endfacet
  facet normal -0.142315 -0.989821 -0
    outer loop
      vertex 1.45395 3.18371 -5
      vertex 1.45395 3.18371 5
      vertex -0.498102 3.46437 5
    endloop
  endfacet
  facet normal -0.142315 -0.989821 -0
    outer loop
      vertex -0.498102 3.46437 -5
      vertex 1.45395 3.18371 -5
      vertex -0.498102 3.46437 5
    endloop
  endfacet
  facet normal -0.654861 -0.755749 -0
    outer loop
      vertex 2.94439 1.89224 -5
      vertex 2.94439 1.89224 5
      vertex 1.45395 3.18371 5
    endloop
  endfacet
  facet normal -0.654861 -0.755749 -0
    outer loop
      vertex 1.45395 3.18371 -5
      vertex 2.94439 1.89224 -5
      vertex 1.45395 3.18371 5
    endloop
  endfacet
  facet normal -0.959493 -0.281733 0
    outer loop
      vertex 3.5 0 5
      vertex 2.94439 1.89224 5
      vertex 3.5 0 -5
    endloop
  endfacet
  facet normal -0.959493 -0.281733 0
    outer loop
      vertex 3.5 0 -5
      vertex 2.94439 1.89224 5
      vertex 2.94439 1.89224 -5
    endloop
  endfacet
  facet normal -0.959493 0.281733 0
    outer loop
      vertex 3.5 0 5
      vertex 3.5 0 -5
      vertex 2.94439 -1.89224 5
    endloop
  endfacet
  facet normal -0.959493 0.281733 0
    outer loop
      vertex 2.94439 -1.89224 5
      vertex 3.5 0 -5
      vertex 2.94439 -1.89224 -5
    endloop
  endfacet
  facet normal -0.654861 0.755749 0
    outer loop
      vertex 2.94439 -1.89224 5
      vertex 2.94439 -1.89224 -5
      vertex 1.45395 -3.18371 5
    endloop
  endfacet
  facet normal -0.654861 0.755749 0
    outer loop
      vertex 1.45395 -3.18371 5
      vertex 2.94439 -1.89224 -5
      vertex 1.45395 -3.18371 -5
    endloop
  endfacet
  facet normal -0.142315 0.989821 0
    outer loop
      vertex 1.45395 -3.18371 5
      vertex 1.45395 -3.18371 -5
      vertex -0.498102 -3.46437 5
    endloop
  endfacet
  facet normal -0.142315 0.989821 0
    outer loop
      vertex -0.498102 -3.46437 5
      vertex 1.45395 -3.18371 -5
      vertex -0.498102 -3.46437 -5
    endloop
  endfacet
  facet normal 0.415415 0.909632 -0
    outer loop
      vertex -0.498102 -3.46437 5
      vertex -0.498102 -3.46437 -5
      vertex -2.29201 -2.64512 5
    endloop
  endfacet
  facet normal 0.415415 0.909632 -0
    outer loop
      vertex -2.29201 -2.64512 5
      vertex -0.498102 -3.46437 -5
      vertex -2.29201 -2.64512 -5
    endloop
  endfacet
  facet normal 0.841254 0.54064 0
    outer loop
      vertex -3.35823 -0.986064 5
      vertex -2.29201 -2.64512 5
      vertex -2.29201 -2.64512 -5
    endloop
  endfacet
  facet normal 0.841254 0.54064 0
    outer loop
      vertex -3.35823 -0.986064 -5
      vertex -3.35823 -0.986064 5
      vertex -2.29201 -2.64512 -5
    endloop
  endfacet
  facet normal 0.92388 8.49728e-17 0.382683
    outer loop
      vertex 32.2322 -15 -1.76777
      vertex 32.2322 -10 -1.76777
      vertex 31.5 -10 2.22045e-15
    endloop
  endfacet
  facet normal 0.92388 8.49728e-17 0.382683
    outer loop
      vertex 31.5 -15 3.33067e-15
      vertex 32.2322 -15 -1.76777
      vertex 31.5 -10 2.22045e-15
    endloop
  endfacet
  facet normal 0.382683 2.46171e-16 0.92388
    outer loop
      vertex 34 -15 -2.5
      vertex 34 -10 -2.5
      vertex 32.2322 -10 -1.76777
    endloop
  endfacet
  facet normal 0.382683 2.05142e-16 0.92388
    outer loop
      vertex 32.2322 -15 -1.76777
      vertex 34 -15 -2.5
      vertex 32.2322 -10 -1.76777
    endloop
  endfacet
  facet normal -0.382683 2.05142e-16 0.92388
    outer loop
      vertex 35.7678 -15 -1.76777
      vertex 35.7678 -10 -1.76777
      vertex 34 -10 -2.5
    endloop
  endfacet
  facet normal -0.382683 2.46171e-16 0.92388
    outer loop
      vertex 34 -15 -2.5
      vertex 35.7678 -15 -1.76777
      vertex 34 -10 -2.5
    endloop
  endfacet
  facet normal -0.92388 8.49728e-17 0.382683
    outer loop
      vertex 36.5 -10 2.22045e-15
      vertex 35.7678 -10 -1.76777
      vertex 36.5 -15 3.33067e-15
    endloop
  endfacet
  facet normal -0.92388 9.0661e-17 0.382683
    outer loop
      vertex 36.5 -15 3.33067e-15
      vertex 35.7678 -10 -1.76777
      vertex 35.7678 -15 -1.76777
    endloop
  endfacet
  facet normal -0.92388 -8.49728e-17 -0.382683
    outer loop
      vertex 36.5 -10 2.22045e-15
      vertex 36.5 -15 3.33067e-15
      vertex 35.7678 -10 1.76777
    endloop
  endfacet
  facet normal -0.92388 -8.49728e-17 -0.382683
    outer loop
      vertex 35.7678 -10 1.76777
      vertex 36.5 -15 3.33067e-15
      vertex 35.7678 -15 1.76777
    endloop
  endfacet
  facet normal -0.382683 -2.05142e-16 -0.92388
    outer loop
      vertex 35.7678 -10 1.76777
      vertex 35.7678 -15 1.76777
      vertex 34 -10 2.5
    endloop
  endfacet
  facet normal -0.382683 -1.64114e-16 -0.92388
    outer loop
      vertex 34 -10 2.5
      vertex 35.7678 -15 1.76777
      vertex 34 -15 2.5
    endloop
  endfacet
  facet normal 0.382683 -1.64114e-16 -0.92388
    outer loop
      vertex 34 -10 2.5
      vertex 34 -15 2.5
      vertex 32.2322 -10 1.76777
    endloop
  endfacet
  facet normal 0.382683 -2.05142e-16 -0.92388
    outer loop
      vertex 32.2322 -10 1.76777
      vertex 34 -15 2.5
      vertex 32.2322 -15 1.76777
    endloop
  endfacet
  facet normal 0.92388 -9.0661e-17 -0.382683
    outer loop
      vertex 31.5 -10 2.22045e-15
      vertex 32.2322 -10 1.76777
      vertex 32.2322 -15 1.76777
    endloop
  endfacet
  facet normal 0.92388 -8.49728e-17 -0.382683
    outer loop
      vertex 31.5 -15 3.33067e-15
      vertex 31.5 -10 2.22045e-15
      vertex 32.2322 -15 1.76777
    endloop
  endfacet
  facet normal 0.92388 -9.0661e-17 -0.382683
    outer loop
      vertex 31.5 15 -3.33067e-15
      vertex 32.2322 15 1.76777
      vertex 32.2322 10 1.76777
    endloop
  endfacet
  facet normal 0.92388 -8.49728e-17 -0.382683
    outer loop
      vertex 31.5 10 -2.22045e-15
      vertex 31.5 15 -3.33067e-15
      vertex 32.2322 10 1.76777
    endloop
  endfacet
  facet normal 0.92388 8.49728e-17 0.382683
    outer loop
      vertex 32.2322 10 -1.76777
      vertex 32.2322 15 -1.76777
      vertex 31.5 15 -3.33067e-15
    endloop
  endfacet
  facet normal 0.92388 8.49728e-17 0.382683
    outer loop
      vertex 31.5 10 -2.22045e-15
      vertex 32.2322 10 -1.76777
      vertex 31.5 15 -3.33067e-15
    endloop
  endfacet
  facet normal 0.382683 1.64114e-16 0.92388
    outer loop
      vertex 34 10 -2.5
      vertex 34 15 -2.5
      vertex 32.2322 15 -1.76777
    endloop
  endfacet
  facet normal 0.382683 2.05142e-16 0.92388
    outer loop
      vertex 32.2322 10 -1.76777
      vertex 34 10 -2.5
      vertex 32.2322 15 -1.76777
    endloop
  endfacet
  facet normal -0.382683 2.05142e-16 0.92388
    outer loop
      vertex 35.7678 10 -1.76777
      vertex 35.7678 15 -1.76777
      vertex 34 15 -2.5
    endloop
  endfacet
  facet normal -0.382683 1.64114e-16 0.92388
    outer loop
      vertex 34 10 -2.5
      vertex 35.7678 10 -1.76777
      vertex 34 15 -2.5
    endloop
  endfacet
  facet normal -0.92388 8.49728e-17 0.382683
    outer loop
      vertex 36.5 15 -3.33067e-15
      vertex 35.7678 15 -1.76777
      vertex 36.5 10 -2.22045e-15
    endloop
  endfacet
  facet normal -0.92388 9.0661e-17 0.382683
    outer loop
      vertex 36.5 10 -2.22045e-15
      vertex 35.7678 15 -1.76777
      vertex 35.7678 10 -1.76777
    endloop
  endfacet
  facet normal -0.92388 -8.49728e-17 -0.382683
    outer loop
      vertex 36.5 15 -3.33067e-15
      vertex 36.5 10 -2.22045e-15
      vertex 35.7678 15 1.76777
    endloop
  endfacet
  facet normal -0.92388 -8.49728e-17 -0.382683
    outer loop
      vertex 35.7678 15 1.76777
      vertex 36.5 10 -2.22045e-15
      vertex 35.7678 10 1.76777
    endloop
  endfacet
  facet normal -0.382683 -2.05142e-16 -0.92388
    outer loop
      vertex 35.7678 15 1.76777
      vertex 35.7678 10 1.76777
      vertex 34 15 2.5
    endloop
  endfacet
  facet normal -0.382683 -2.46171e-16 -0.92388
    outer loop
      vertex 34 15 2.5
      vertex 35.7678 10 1.76777
      vertex 34 10 2.5
    endloop
  endfacet
  facet normal 0.382683 -2.46171e-16 -0.92388
    outer loop
      vertex 34 15 2.5
      vertex 34 10 2.5
      vertex 32.2322 15 1.76777
    endloop
  endfacet
  facet normal 0.382683 -2.05142e-16 -0.92388
    outer loop
      vertex 32.2322 15 1.76777
      vertex 34 10 2.5
      vertex 32.2322 10 1.76777
    endloop
  endfacet
endsolid OpenSCAD_Model
