solid OpenSCAD_Model
  facet normal -1.000000 -0.000000 -0.000000
    outer loop
      vertex -8.000000 -40.000000 -12.500000
      vertex -8.000000 -40.000000 12.500000
      vertex -8.000000 40.000000 -12.500000
    endloop
  endfacet
  facet normal -1.000000 0.000000 0.000000
    outer loop
      vertex -8.000000 40.000000 -12.500000
      vertex -8.000000 -40.000000 12.500000
      vertex -8.000000 40.000000 12.500000
    endloop
  endfacet
  facet normal 0.000000 -1.000000 0.000000
    outer loop
      vertex -8.000000 -40.000000 12.500000
      vertex -8.000000 -40.000000 -12.500000
      vertex 25.500000 -40.000000 -12.500000
    endloop
  endfacet
  facet normal 0.000000 -1.000000 0.000000
    outer loop
      vertex 25.500000 -40.000000 12.500000
      vertex -8.000000 -40.000000 12.500000
      vertex 25.500000 -40.000000 -12.500000
    endloop
  endfacet
  facet normal -0.000000 -0.000000 -1.000000
    outer loop
      vertex 3.500000 0.000000 -12.500000
      vertex -8.000000 40.000000 -12.500000
      vertex 25.500000 -40.000000 -12.500000
    endloop
  endfacet
  facet normal 0.000000 0.000000 -1.000000
    outer loop
      vertex 25.500000 15.000000 -12.500000
      vertex -8.000000 40.000000 -12.500000
      vertex 25.500000 40.000000 -12.500000
    endloop
  endfacet
  facet normal 0.000000 -0.000000 -1.000000
    outer loop
      vertex 24.000000 10.000000 -12.500000
      vertex -8.000000 40.000000 -12.500000
      vertex 25.500000 15.000000 -12.500000
    endloop
  endfacet
  facet normal 0.000000 0.000000 -1.000000
    outer loop
      vertex 44.000000 -10.000000 -12.500000
      vertex 25.500000 -15.000000 -12.500000
      vertex 24.000000 -10.000000 -12.500000
    endloop
  endfacet
  facet normal 0.000000 0.000000 -1.000000
    outer loop
      vertex 24.000000 -10.000000 -12.500000
      vertex -8.000000 40.000000 -12.500000
      vertex 24.000000 10.000000 -12.500000
    endloop
  endfacet
  facet normal 0.000000 0.000000 -1.000000
    outer loop
      vertex 25.500000 -40.000000 -12.500000
      vertex -8.000000 40.000000 -12.500000
      vertex 24.000000 -10.000000 -12.500000
    endloop
  endfacet
  facet normal -0.000000 0.000000 -1.000000
    outer loop
      vertex 25.500000 -15.000000 -12.500000
      vertex 44.000000 -10.000000 -12.500000
      vertex 44.000000 -15.000000 -12.500000
    endloop
  endfacet
  facet normal 0.000000 0.000000 -1.000000
    outer loop
      vertex 25.500000 -15.000000 -12.500000
      vertex 25.500000 -40.000000 -12.500000
      vertex 24.000000 -10.000000 -12.500000
    endloop
  endfacet
  facet normal 0.000000 0.000000 -1.000000
    outer loop
      vertex -0.498102 -3.464375 -12.500000
      vertex 25.500000 -40.000000 -12.500000
      vertex -2.292013 -2.645124 -12.500000
    endloop
  endfacet
  facet normal 0.000000 -0.000000 -1.000000
    outer loop
      vertex -8.000000 -40.000000 -12.500000
      vertex -8.000000 40.000000 -12.500000
      vertex -3.358225 0.986064 -12.500000
    endloop
  endfacet
  facet normal 0.000000 0.000000 -1.000000
    outer loop
      vertex -8.000000 -40.000000 -12.500000
      vertex -3.358225 0.986064 -12.500000
      vertex -3.358225 -0.986064 -12.500000
    endloop
  endfacet
  facet normal 0.000000 0.000000 -1.000000
    outer loop
      vertex -8.000000 -40.000000 -12.500000
      vertex -3.358225 -0.986064 -12.500000
      vertex -2.292013 -2.645124 -12.500000
    endloop
  endfacet
  facet normal -0.000000 0.000000 -1.000000
    outer loop
      vertex -8.000000 -40.000000 -12.500000
      vertex -2.292013 -2.645124 -12.500000
      vertex 25.500000 -40.000000 -12.500000
    endloop
  endfacet
  facet normal 0.000000 0.000000 -1.000000
    outer loop
      vertex 1.453953 -3.183712 -12.500000
      vertex 25.500000 -40.000000 -12.500000
      vertex -0.498102 -3.464375 -12.500000
    endloop
  endfacet
  facet normal -0.000000 -0.000000 -1.000000
    outer loop
      vertex 1.453953 3.183712 -12.500000
      vertex -8.000000 40.000000 -12.500000
      vertex 2.944387 1.892243 -12.500000
    endloop
  endfacet
  facet normal -0.000000 -0.000000 -1.000000
    outer loop
      vertex -0.498102 3.464375 -12.500000
      vertex -8.000000 40.000000 -12.500000
      vertex 1.453953 3.183712 -12.500000
    endloop
  endfacet
  facet normal -0.000000 0.000000 -1.000000
    outer loop
      vertex 1.453953 -3.183712 -12.500000
      vertex 2.944387 -1.892243 -12.500000
      vertex 25.500000 -40.000000 -12.500000
    endloop
  endfacet
  facet normal -0.000000 -0.000000 -1.000000
    outer loop
      vertex 2.944387 1.892243 -12.500000
      vertex -8.000000 40.000000 -12.500000
      vertex 3.500000 0.000000 -12.500000
    endloop
  endfacet
  facet normal -0.000000 0.000000 -1.000000
    outer loop
      vertex 2.944387 -1.892243 -12.500000
      vertex 3.500000 0.000000 -12.500000
      vertex 25.500000 -40.000000 -12.500000
    endloop
  endfacet
  facet normal 0.000000 -0.000000 -1.000000
    outer loop
      vertex -2.292013 2.645124 -12.500000
      vertex -8.000000 40.000000 -12.500000
      vertex -0.498102 3.464375 -12.500000
    endloop
  endfacet
  facet normal 0.000000 -0.000000 -1.000000
    outer loop
      vertex -3.358225 0.986064 -12.500000
      vertex -8.000000 40.000000 -12.500000
      vertex -2.292013 2.645124 -12.500000
    endloop
  endfacet
  facet normal 0.000000 0.000000 -1.000000
    outer loop
      vertex 24.000000 10.000000 -12.500000
      vertex 25.500000 15.000000 -12.500000
      vertex 44.000000 15.000000 -12.500000
    endloop
  endfacet
  facet normal -0.000000 0.000000 -1.000000
    outer loop
      vertex 24.000000 10.000000 -12.500000
      vertex 44.000000 15.000000 -12.500000
      vertex 44.000000 10.000000 -12.500000
    endloop
  endfacet
  facet normal 0.000000 1.000000 0.000000
    outer loop
      vertex -8.000000 40.000000 -12.500000
      vertex -8.000000 40.000000 12.500000
      vertex 25.500000 40.000000 -12.500000
    endloop
  endfacet
  facet normal 0.000000 1.000000 0.000000
    outer loop
      vertex 25.500000 40.000000 -12.500000
      vertex -8.000000 40.000000 12.500000
      vertex 25.500000 40.000000 12.500000
    endloop
  endfacet
  facet normal 0.000000 -0.000000 1.000000
    outer loop
      vertex 0.956840 -34.192190 12.500000
      vertex -8.000000 -40.000000 12.500000
      vertex 25.500000 -40.000000 12.500000
    endloop
  endfacet
  facet normal 0.000000 0.000000 1.000000
    outer loop
      vertex -2.681006 33.361875 12.500000
      vertex -0.956840 34.192190 12.500000
      vertex -8.000000 40.000000 12.500000
    endloop
  endfacet
  facet normal 0.000000 0.000000 1.000000
    outer loop
      vertex 44.000000 15.000000 12.500000
      vertex 25.500000 15.000000 12.500000
      vertex 44.000000 10.000000 12.500000
    endloop
  endfacet
  facet normal 0.000000 0.000000 1.000000
    outer loop
      vertex 3.874166 31.865700 12.500000
      vertex 4.300000 30.000000 12.500000
      vertex 25.500000 15.000000 12.500000
    endloop
  endfacet
  facet normal -0.000000 0.000000 1.000000
    outer loop
      vertex 44.000000 -15.000000 12.500000
      vertex 24.000000 -10.000000 12.500000
      vertex 25.500000 -15.000000 12.500000
    endloop
  endfacet
  facet normal 0.000000 -0.000000 1.000000
    outer loop
      vertex 4.300000 30.000000 12.500000
      vertex 3.874166 28.134300 12.500000
      vertex 24.000000 10.000000 12.500000
    endloop
  endfacet
  facet normal 0.000000 0.000000 1.000000
    outer loop
      vertex -3.874166 31.865700 12.500000
      vertex -2.681006 33.361875 12.500000
      vertex -8.000000 40.000000 12.500000
    endloop
  endfacet
  facet normal -0.000000 0.000000 1.000000
    outer loop
      vertex 44.000000 10.000000 12.500000
      vertex 25.500000 15.000000 12.500000
      vertex 24.000000 10.000000 12.500000
    endloop
  endfacet
  facet normal 0.000000 0.000000 1.000000
    outer loop
      vertex 2.681006 33.361875 12.500000
      vertex 3.874166 31.865700 12.500000
      vertex 25.500000 15.000000 12.500000
    endloop
  endfacet
  facet normal -0.000000 -0.000000 1.000000
    outer loop
      vertex -2.681006 26.638125 12.500000
      vertex -3.874166 28.134300 12.500000
      vertex 25.500000 -40.000000 12.500000
    endloop
  endfacet
  facet normal 0.000000 -0.000000 1.000000
    outer loop
      vertex -4.300000 -30.000000 12.500000
      vertex -8.000000 -40.000000 12.500000
      vertex -3.874166 -31.865700 12.500000
    endloop
  endfacet
  facet normal 0.000000 0.000000 1.000000
    outer loop
      vertex 2.681006 -26.638125 12.500000
      vertex 3.874166 -28.134300 12.500000
      vertex 25.500000 -40.000000 12.500000
    endloop
  endfacet
  facet normal 0.000000 -0.000000 1.000000
    outer loop
      vertex -8.000000 40.000000 12.500000
      vertex -8.000000 -40.000000 12.500000
      vertex -4.300000 -30.000000 12.500000
    endloop
  endfacet
  facet normal 0.000000 -0.000000 1.000000
    outer loop
      vertex 2.681006 -33.361875 12.500000
      vertex 0.956840 -34.192190 12.500000
      vertex 25.500000 -40.000000 12.500000
    endloop
  endfacet
  facet normal 0.000000 -0.000000 1.000000
    outer loop
      vertex 4.300000 -30.000000 12.500000
      vertex 3.874166 -31.865700 12.500000
      vertex 25.500000 -40.000000 12.500000
    endloop
  endfacet
  facet normal 0.000000 0.000000 1.000000
    outer loop
      vertex -8.000000 40.000000 12.500000
      vertex -3.874166 -28.134300 12.500000
      vertex -2.681006 -26.638125 12.500000
    endloop
  endfacet
  facet normal 0.000000 0.000000 1.000000
    outer loop
      vertex -4.300000 30.000000 12.500000
      vertex -3.874166 31.865700 12.500000
      vertex -8.000000 40.000000 12.500000
    endloop
  endfacet
  facet normal 0.000000 0.000000 1.000000
    outer loop
      vertex -8.000000 40.000000 12.500000
      vertex -2.681006 -26.638125 12.500000
      vertex -0.956840 -25.807810 12.500000
    endloop
  endfacet
  facet normal 0.000000 0.000000 1.000000
    outer loop
      vertex -3.358225 -0.986064 12.500000
      vertex -0.956840 -25.807810 12.500000
      vertex 0.956840 -25.807810 12.500000
    endloop
  endfacet
  facet normal 0.000000 0.000000 1.000000
    outer loop
      vertex 1.453953 -3.183712 12.500000
      vertex 2.681006 -26.638125 12.500000
      vertex 25.500000 -40.000000 12.500000
    endloop
  endfacet
  facet normal 0.000000 -0.000000 1.000000
    outer loop
      vertex 3.874166 -31.865700 12.500000
      vertex 2.681006 -33.361875 12.500000
      vertex 25.500000 -40.000000 12.500000
    endloop
  endfacet
  facet normal 0.000000 -0.000000 1.000000
    outer loop
      vertex -0.956840 -34.192190 12.500000
      vertex -8.000000 -40.000000 12.500000
      vertex 0.956840 -34.192190 12.500000
    endloop
  endfacet
  facet normal 0.000000 -0.000000 1.000000
    outer loop
      vertex -2.681006 -33.361875 12.500000
      vertex -8.000000 -40.000000 12.500000
      vertex -0.956840 -34.192190 12.500000
    endloop
  endfacet
  facet normal 0.000000 -0.000000 1.000000
    outer loop
      vertex -3.874166 -31.865700 12.500000
      vertex -8.000000 -40.000000 12.500000
      vertex -2.681006 -33.361875 12.500000
    endloop
  endfacet
  facet normal 0.000000 -0.000000 1.000000
    outer loop
      vertex 3.500000 0.000000 12.500000
      vertex 2.944387 -1.892243 12.500000
      vertex 25.500000 -40.000000 12.500000
    endloop
  endfacet
  facet normal 0.000000 0.000000 1.000000
    outer loop
      vertex -8.000000 40.000000 12.500000
      vertex -3.874166 28.134300 12.500000
      vertex -4.300000 30.000000 12.500000
    endloop
  endfacet
  facet normal -0.000000 -0.000000 1.000000
    outer loop
      vertex -2.292013 -2.645124 12.500000
      vertex -3.358225 -0.986064 12.500000
      vertex 0.956840 -25.807810 12.500000
    endloop
  endfacet
  facet normal 0.000000 0.000000 1.000000
    outer loop
      vertex -2.292013 2.645124 12.500000
      vertex -3.874166 28.134300 12.500000
      vertex -8.000000 40.000000 12.500000
    endloop
  endfacet
  facet normal 0.000000 -0.000000 1.000000
    outer loop
      vertex 0.956840 25.807810 12.500000
      vertex -0.956840 25.807810 12.500000
      vertex 25.500000 -15.000000 12.500000
    endloop
  endfacet
  facet normal 0.000000 0.000000 1.000000
    outer loop
      vertex 24.000000 -10.000000 12.500000
      vertex 24.000000 10.000000 12.500000
      vertex 3.874166 28.134300 12.500000
    endloop
  endfacet
  facet normal 0.000000 -0.000000 1.000000
    outer loop
      vertex 2.681006 26.638125 12.500000
      vertex 0.956840 25.807810 12.500000
      vertex 24.000000 -10.000000 12.500000
    endloop
  endfacet
  facet normal 0.000000 0.000000 1.000000
    outer loop
      vertex -3.358225 0.986064 12.500000
      vertex -2.292013 2.645124 12.500000
      vertex -8.000000 40.000000 12.500000
    endloop
  endfacet
  facet normal 0.000000 0.000000 1.000000
    outer loop
      vertex 2.681006 33.361875 12.500000
      vertex -8.000000 40.000000 12.500000
      vertex 0.956840 34.192190 12.500000
    endloop
  endfacet
  facet normal 0.000000 0.000000 1.000000
    outer loop
      vertex 2.681006 33.361875 12.500000
      vertex 25.500000 40.000000 12.500000
      vertex -8.000000 40.000000 12.500000
    endloop
  endfacet
  facet normal 0.000000 0.000000 1.000000
    outer loop
      vertex 25.500000 15.000000 12.500000
      vertex 25.500000 40.000000 12.500000
      vertex 2.681006 33.361875 12.500000
    endloop
  endfacet
  facet normal -0.000000 0.000000 1.000000
    outer loop
      vertex 25.500000 15.000000 12.500000
      vertex 4.300000 30.000000 12.500000
      vertex 24.000000 10.000000 12.500000
    endloop
  endfacet
  facet normal 0.000000 0.000000 1.000000
    outer loop
      vertex -2.292013 2.645124 12.500000
      vertex -0.498102 3.464375 12.500000
      vertex -3.874166 28.134300 12.500000
    endloop
  endfacet
  facet normal 0.000000 0.000000 1.000000
    outer loop
      vertex -4.300000 -30.000000 12.500000
      vertex -3.874166 -28.134300 12.500000
      vertex -8.000000 40.000000 12.500000
    endloop
  endfacet
  facet normal -0.000000 -0.000000 1.000000
    outer loop
      vertex 24.000000 -10.000000 12.500000
      vertex 0.956840 25.807810 12.500000
      vertex 25.500000 -15.000000 12.500000
    endloop
  endfacet
  facet normal -0.000000 0.000000 1.000000
    outer loop
      vertex 25.500000 -15.000000 12.500000
      vertex -0.956840 25.807810 12.500000
      vertex 25.500000 -40.000000 12.500000
    endloop
  endfacet
  facet normal -0.000000 -0.000000 1.000000
    outer loop
      vertex -0.956840 25.807810 12.500000
      vertex -2.681006 26.638125 12.500000
      vertex 25.500000 -40.000000 12.500000
    endloop
  endfacet
  facet normal 0.000000 0.000000 1.000000
    outer loop
      vertex -8.000000 40.000000 12.500000
      vertex -0.956840 -25.807810 12.500000
      vertex -3.358225 -0.986064 12.500000
    endloop
  endfacet
  facet normal 0.000000 0.000000 1.000000
    outer loop
      vertex -8.000000 40.000000 12.500000
      vertex -3.358225 -0.986064 12.500000
      vertex -3.358225 0.986064 12.500000
    endloop
  endfacet
  facet normal 0.000000 -0.000000 1.000000
    outer loop
      vertex 1.453953 -3.183712 12.500000
      vertex -0.498102 -3.464375 12.500000
      vertex 2.681006 -26.638125 12.500000
    endloop
  endfacet
  facet normal 0.000000 -0.000000 1.000000
    outer loop
      vertex 2.944387 -1.892243 12.500000
      vertex 1.453953 -3.183712 12.500000
      vertex 25.500000 -40.000000 12.500000
    endloop
  endfacet
  facet normal 0.000000 0.000000 1.000000
    outer loop
      vertex -3.874166 28.134300 12.500000
      vertex -0.498102 3.464375 12.500000
      vertex 1.453953 3.183712 12.500000
    endloop
  endfacet
  facet normal 0.000000 0.000000 1.000000
    outer loop
      vertex -3.874166 28.134300 12.500000
      vertex 2.944387 1.892243 12.500000
      vertex 25.500000 -40.000000 12.500000
    endloop
  endfacet
  facet normal 0.000000 0.000000 1.000000
    outer loop
      vertex -3.874166 28.134300 12.500000
      vertex 1.453953 3.183712 12.500000
      vertex 2.944387 1.892243 12.500000
    endloop
  endfacet
  facet normal 0.000000 0.000000 1.000000
    outer loop
      vertex 2.944387 1.892243 12.500000
      vertex 3.500000 0.000000 12.500000
      vertex 25.500000 -40.000000 12.500000
    endloop
  endfacet
  facet normal 0.000000 0.000000 1.000000
    outer loop
      vertex -0.498102 -3.464375 12.500000
      vertex 0.956840 -25.807810 12.500000
      vertex 2.681006 -26.638125 12.500000
    endloop
  endfacet
  facet normal -0.000000 -0.000000 1.000000
    outer loop
      vertex -0.498102 -3.464375 12.500000
      vertex -2.292013 -2.645124 12.500000
      vertex 0.956840 -25.807810 12.500000
    endloop
  endfacet
  facet normal 0.000000 0.000000 1.000000
    outer loop
      vertex -0.956840 34.192190 12.500000
      vertex 0.956840 34.192190 12.500000
      vertex -8.000000 40.000000 12.500000
    endloop
  endfacet
  facet normal 0.000000 0.000000 1.000000
    outer loop
      vertex 24.000000 -10.000000 12.500000
      vertex 3.874166 28.134300 12.500000
      vertex 2.681006 26.638125 12.500000
    endloop
  endfacet
  facet normal 0.000000 0.000000 1.000000
    outer loop
      vertex 3.874166 -28.134300 12.500000
      vertex 4.300000 -30.000000 12.500000
      vertex 25.500000 -40.000000 12.500000
    endloop
  endfacet
  facet normal 0.000000 0.000000 1.000000
    outer loop
      vertex 44.000000 -10.000000 12.500000
      vertex 24.000000 -10.000000 12.500000
      vertex 44.000000 -15.000000 12.500000
    endloop
  endfacet
  facet normal 1.000000 0.000000 -0.000000
    outer loop
      vertex 25.500000 -40.000000 12.500000
      vertex 25.500000 -40.000000 -12.500000
      vertex 25.500000 -15.000000 -12.500000
    endloop
  endfacet
  facet normal 1.000000 0.000000 0.000000
    outer loop
      vertex 25.500000 -15.000000 12.500000
      vertex 25.500000 -40.000000 12.500000
      vertex 25.500000 -15.000000 -12.500000
    endloop
  endfacet
  facet normal 0.000000 -1.000000 0.000000
    outer loop
      vertex 32.232233 -15.000000 -1.767767
      vertex 25.500000 -15.000000 -12.500000
      vertex 44.000000 -15.000000 -12.500000
    endloop
  endfacet
  facet normal 0.000000 -1.000000 0.000000
    outer loop
      vertex 25.500000 -15.000000 12.500000
      vertex 25.500000 -15.000000 -12.500000
      vertex 32.232233 -15.000000 -1.767767
    endloop
  endfacet
  facet normal 0.000000 -1.000000 0.000000
    outer loop
      vertex 25.500000 -15.000000 12.500000
      vertex 32.232233 -15.000000 -1.767767
      vertex 31.500000 -15.000000 0.000000
    endloop
  endfacet
  facet normal 0.000000 -1.000000 0.000000
    outer loop
      vertex 25.500000 -15.000000 12.500000
      vertex 31.500000 -15.000000 0.000000
      vertex 32.232233 -15.000000 1.767767
    endloop
  endfacet
  facet normal 0.000000 -1.000000 0.000000
    outer loop
      vertex 35.767767 -15.000000 -1.767767
      vertex 34.000000 -15.000000 -2.500000
      vertex 44.000000 -15.000000 -12.500000
    endloop
  endfacet
  facet normal 0.000000 -1.000000 0.000000
    outer loop
      vertex 44.000000 -15.000000 12.500000
      vertex 25.500000 -15.000000 12.500000
      vertex 34.000000 -15.000000 2.500000
    endloop
  endfacet
  facet normal 0.000000 -1.000000 0.000000
    outer loop
      vertex 44.000000 -15.000000 12.500000
      vertex 35.767767 -15.000000 1.767767
      vertex 44.000000 -15.000000 -12.500000
    endloop
  endfacet
  facet normal 0.000000 -1.000000 0.000000
    outer loop
      vertex 44.000000 -15.000000 12.500000
      vertex 34.000000 -15.000000 2.500000
      vertex 35.767767 -15.000000 1.767767
    endloop
  endfacet
  facet normal 0.000000 -1.000000 0.000000
    outer loop
      vertex 35.767767 -15.000000 1.767767
      vertex 36.500000 -15.000000 0.000000
      vertex 44.000000 -15.000000 -12.500000
    endloop
  endfacet
  facet normal 0.000000 -1.000000 0.000000
    outer loop
      vertex 36.500000 -15.000000 0.000000
      vertex 35.767767 -15.000000 -1.767767
      vertex 44.000000 -15.000000 -12.500000
    endloop
  endfacet
  facet normal 0.000000 -1.000000 0.000000
    outer loop
      vertex 34.000000 -15.000000 -2.500000
      vertex 32.232233 -15.000000 -1.767767
      vertex 44.000000 -15.000000 -12.500000
    endloop
  endfacet
  facet normal 0.000000 -1.000000 -0.000000
    outer loop
      vertex 32.232233 -15.000000 1.767767
      vertex 34.000000 -15.000000 2.500000
      vertex 25.500000 -15.000000 12.500000
    endloop
  endfacet
  facet normal 1.000000 0.000000 -0.000000
    outer loop
      vertex 44.000000 -15.000000 12.500000
      vertex 44.000000 -15.000000 -12.500000
      vertex 44.000000 -10.000000 -12.500000
    endloop
  endfacet
  facet normal 1.000000 0.000000 0.000000
    outer loop
      vertex 44.000000 -10.000000 12.500000
      vertex 44.000000 -15.000000 12.500000
      vertex 44.000000 -10.000000 -12.500000
    endloop
  endfacet
  facet normal 0.000000 1.000000 0.000000
    outer loop
      vertex 32.232233 -10.000000 1.767767
      vertex 24.000000 -10.000000 12.500000
      vertex 34.000000 -10.000000 2.500000
    endloop
  endfacet
  facet normal 0.000000 1.000000 -0.000000
    outer loop
      vertex 32.232233 -10.000000 -1.767767
      vertex 44.000000 -10.000000 -12.500000
      vertex 24.000000 -10.000000 -12.500000
    endloop
  endfacet
  facet normal -0.000000 1.000000 -0.000000
    outer loop
      vertex 34.000000 -10.000000 -2.500000
      vertex 44.000000 -10.000000 -12.500000
      vertex 32.232233 -10.000000 -1.767767
    endloop
  endfacet
  facet normal 0.000000 1.000000 -0.000000
    outer loop
      vertex 24.000000 -10.000000 12.500000
      vertex 32.232233 -10.000000 -1.767767
      vertex 24.000000 -10.000000 -12.500000
    endloop
  endfacet
  facet normal 0.000000 1.000000 0.000000
    outer loop
      vertex 44.000000 -10.000000 12.500000
      vertex 44.000000 -10.000000 -12.500000
      vertex 35.767767 -10.000000 -1.767767
    endloop
  endfacet
  facet normal 0.000000 1.000000 0.000000
    outer loop
      vertex 44.000000 -10.000000 12.500000
      vertex 35.767767 -10.000000 -1.767767
      vertex 36.500000 -10.000000 0.000000
    endloop
  endfacet
  facet normal 0.000000 1.000000 0.000000
    outer loop
      vertex 44.000000 -10.000000 12.500000
      vertex 36.500000 -10.000000 0.000000
      vertex 35.767767 -10.000000 1.767767
    endloop
  endfacet
  facet normal 0.000000 1.000000 0.000000
    outer loop
      vertex 44.000000 -10.000000 12.500000
      vertex 35.767767 -10.000000 1.767767
      vertex 24.000000 -10.000000 12.500000
    endloop
  endfacet
  facet normal 0.000000 1.000000 0.000000
    outer loop
      vertex 35.767767 -10.000000 1.767767
      vertex 34.000000 -10.000000 2.500000
      vertex 24.000000 -10.000000 12.500000
    endloop
  endfacet
  facet normal 0.000000 1.000000 0.000000
    outer loop
      vertex 24.000000 -10.000000 12.500000
      vertex 31.500000 -10.000000 0.000000
      vertex 32.232233 -10.000000 -1.767767
    endloop
  endfacet
  facet normal 0.000000 1.000000 -0.000000
    outer loop
      vertex 35.767767 -10.000000 -1.767767
      vertex 44.000000 -10.000000 -12.500000
      vertex 34.000000 -10.000000 -2.500000
    endloop
  endfacet
  facet normal 0.000000 1.000000 0.000000
    outer loop
      vertex 31.500000 -10.000000 0.000000
      vertex 24.000000 -10.000000 12.500000
      vertex 32.232233 -10.000000 1.767767
    endloop
  endfacet
  facet normal 1.000000 0.000000 0.000000
    outer loop
      vertex 24.000000 10.000000 -12.500000
      vertex 24.000000 10.000000 12.500000
      vertex 24.000000 -10.000000 12.500000
    endloop
  endfacet
  facet normal 1.000000 0.000000 0.000000
    outer loop
      vertex 24.000000 -10.000000 -12.500000
      vertex 24.000000 10.000000 -12.500000
      vertex 24.000000 -10.000000 12.500000
    endloop
  endfacet
  facet normal 0.000000 -1.000000 -0.000000
    outer loop
      vertex 34.000000 10.000000 2.500000
      vertex 44.000000 10.000000 12.500000
      vertex 24.000000 10.000000 12.500000
    endloop
  endfacet
  facet normal 0.000000 -1.000000 0.000000
    outer loop
      vertex 35.767767 10.000000 -1.767767
      vertex 34.000000 10.000000 -2.500000
      vertex 44.000000 10.000000 -12.500000
    endloop
  endfacet
  facet normal 0.000000 -1.000000 -0.000000
    outer loop
      vertex 24.000000 10.000000 -12.500000
      vertex 31.500000 10.000000 -0.000000
      vertex 24.000000 10.000000 12.500000
    endloop
  endfacet
  facet normal 0.000000 -1.000000 -0.000000
    outer loop
      vertex 31.500000 10.000000 -0.000000
      vertex 32.232233 10.000000 1.767767
      vertex 24.000000 10.000000 12.500000
    endloop
  endfacet
  facet normal 0.000000 -1.000000 -0.000000
    outer loop
      vertex 35.767767 10.000000 1.767767
      vertex 44.000000 10.000000 12.500000
      vertex 34.000000 10.000000 2.500000
    endloop
  endfacet
  facet normal 0.000000 -1.000000 0.000000
    outer loop
      vertex 44.000000 10.000000 -12.500000
      vertex 44.000000 10.000000 12.500000
      vertex 35.767767 10.000000 1.767767
    endloop
  endfacet
  facet normal 0.000000 -1.000000 0.000000
    outer loop
      vertex 44.000000 10.000000 -12.500000
      vertex 35.767767 10.000000 1.767767
      vertex 36.500000 10.000000 -0.000000
    endloop
  endfacet
  facet normal 0.000000 -1.000000 0.000000
    outer loop
      vertex 36.500000 10.000000 -0.000000
      vertex 35.767767 10.000000 -1.767767
      vertex 44.000000 10.000000 -12.500000
    endloop
  endfacet
  facet normal -0.000000 -1.000000 0.000000
    outer loop
      vertex 24.000000 10.000000 -12.500000
      vertex 44.000000 10.000000 -12.500000
      vertex 34.000000 10.000000 -2.500000
    endloop
  endfacet
  facet normal 0.000000 -1.000000 0.000000
    outer loop
      vertex 24.000000 10.000000 -12.500000
      vertex 32.232233 10.000000 -1.767767
      vertex 31.500000 10.000000 -0.000000
    endloop
  endfacet
  facet normal 0.000000 -1.000000 0.000000
    outer loop
      vertex 24.000000 10.000000 -12.500000
      vertex 34.000000 10.000000 -2.500000
      vertex 32.232233 10.000000 -1.767767
    endloop
  endfacet
  facet normal 0.000000 -1.000000 -0.000000
    outer loop
      vertex 32.232233 10.000000 1.767767
      vertex 34.000000 10.000000 2.500000
      vertex 24.000000 10.000000 12.500000
    endloop
  endfacet
  facet normal 1.000000 0.000000 -0.000000
    outer loop
      vertex 44.000000 10.000000 12.500000
      vertex 44.000000 10.000000 -12.500000
      vertex 44.000000 15.000000 -12.500000
    endloop
  endfacet
  facet normal 1.000000 0.000000 0.000000
    outer loop
      vertex 44.000000 15.000000 12.500000
      vertex 44.000000 10.000000 12.500000
      vertex 44.000000 15.000000 -12.500000
    endloop
  endfacet
  facet normal 0.000000 1.000000 0.000000
    outer loop
      vertex 35.767767 15.000000 1.767767
      vertex 25.500000 15.000000 12.500000
      vertex 44.000000 15.000000 12.500000
    endloop
  endfacet
  facet normal 0.000000 1.000000 0.000000
    outer loop
      vertex 25.500000 15.000000 -12.500000
      vertex 25.500000 15.000000 12.500000
      vertex 31.500000 15.000000 -0.000000
    endloop
  endfacet
  facet normal 0.000000 1.000000 0.000000
    outer loop
      vertex 25.500000 15.000000 -12.500000
      vertex 31.500000 15.000000 -0.000000
      vertex 32.232233 15.000000 -1.767767
    endloop
  endfacet
  facet normal 0.000000 1.000000 0.000000
    outer loop
      vertex 25.500000 15.000000 -12.500000
      vertex 32.232233 15.000000 -1.767767
      vertex 44.000000 15.000000 -12.500000
    endloop
  endfacet
  facet normal 0.000000 1.000000 0.000000
    outer loop
      vertex 32.232233 15.000000 -1.767767
      vertex 34.000000 15.000000 -2.500000
      vertex 44.000000 15.000000 -12.500000
    endloop
  endfacet
  facet normal 0.000000 1.000000 -0.000000
    outer loop
      vertex 36.500000 15.000000 -0.000000
      vertex 44.000000 15.000000 -12.500000
      vertex 35.767767 15.000000 -1.767767
    endloop
  endfacet
  facet normal 0.000000 1.000000 0.000000
    outer loop
      vertex 32.232233 15.000000 1.767767
      vertex 25.500000 15.000000 12.500000
      vertex 34.000000 15.000000 2.500000
    endloop
  endfacet
  facet normal 0.000000 1.000000 0.000000
    outer loop
      vertex 44.000000 15.000000 -12.500000
      vertex 36.500000 15.000000 -0.000000
      vertex 44.000000 15.000000 12.500000
    endloop
  endfacet
  facet normal 0.000000 1.000000 0.000000
    outer loop
      vertex 36.500000 15.000000 -0.000000
      vertex 35.767767 15.000000 1.767767
      vertex 44.000000 15.000000 12.500000
    endloop
  endfacet
  facet normal 0.000000 1.000000 0.000000
    outer loop
      vertex 34.000000 15.000000 2.500000
      vertex 25.500000 15.000000 12.500000
      vertex 35.767767 15.000000 1.767767
    endloop
  endfacet
  facet normal 0.000000 1.000000 0.000000
    outer loop
      vertex 31.500000 15.000000 -0.000000
      vertex 25.500000 15.000000 12.500000
      vertex 32.232233 15.000000 1.767767
    endloop
  endfacet
  facet normal 0.000000 1.000000 -0.000000
    outer loop
      vertex 35.767767 15.000000 -1.767767
      vertex 44.000000 15.000000 -12.500000
      vertex 34.000000 15.000000 -2.500000
    endloop
  endfacet
  facet normal 1.000000 0.000000 -0.000000
    outer loop
      vertex 25.500000 15.000000 12.500000
      vertex 25.500000 15.000000 -12.500000
      vertex 25.500000 40.000000 -12.500000
    endloop
  endfacet
  facet normal 1.000000 0.000000 0.000000
    outer loop
      vertex 25.500000 40.000000 12.500000
      vertex 25.500000 15.000000 12.500000
      vertex 25.500000 40.000000 -12.500000
    endloop
  endfacet
  facet normal 0.841254 -0.540640 0.000000
    outer loop
      vertex -2.292013 2.645124 -12.500000
      vertex -2.292013 2.645124 12.500000
      vertex -3.358225 0.986064 12.500000
    endloop
  endfacet
  facet normal 0.841254 -0.540640 0.000000
    outer loop
      vertex -3.358225 0.986064 -12.500000
      vertex -2.292013 2.645124 -12.500000
      vertex -3.358225 0.986064 12.500000
    endloop
  endfacet
  facet normal 1.000000 0.000000 0.000000
    outer loop
      vertex -3.358225 0.986064 -12.500000
      vertex -3.358225 0.986064 12.500000
      vertex -3.358225 -0.986064 12.500000
    endloop
  endfacet
  facet normal 1.000000 0.000000 0.000000
    outer loop
      vertex -3.358225 -0.986064 -12.500000
      vertex -3.358225 0.986064 -12.500000
      vertex -3.358225 -0.986064 12.500000
    endloop
  endfacet
  facet normal 0.415415 -0.909632 0.000000
    outer loop
      vertex -0.498102 3.464375 -12.500000
      vertex -0.498102 3.464375 12.500000
      vertex -2.292013 2.645124 12.500000
    endloop
  endfacet
  facet normal 0.415415 -0.909632 0.000000
    outer loop
      vertex -2.292013 2.645124 -12.500000
      vertex -0.498102 3.464375 -12.500000
      vertex -2.292013 2.645124 12.500000
    endloop
  endfacet
  facet normal -0.142315 -0.989821 -0.000000
    outer loop
      vertex 1.453953 3.183712 -12.500000
      vertex 1.453953 3.183712 12.500000
      vertex -0.498102 3.464375 12.500000
    endloop
  endfacet
  facet normal -0.142315 -0.989821 -0.000000
    outer loop
      vertex -0.498102 3.464375 -12.500000
      vertex 1.453953 3.183712 -12.500000
      vertex -0.498102 3.464375 12.500000
    endloop
  endfacet
  facet normal -0.654861 -0.755749 -0.000000
    outer loop
      vertex 2.944387 1.892243 -12.500000
      vertex 2.944387 1.892243 12.500000
      vertex 1.453953 3.183712 12.500000
    endloop
  endfacet
  facet normal -0.654861 -0.755749 -0.000000
    outer loop
      vertex 1.453953 3.183712 -12.500000
      vertex 2.944387 1.892243 -12.500000
      vertex 1.453953 3.183712 12.500000
    endloop
  endfacet
  facet normal -0.959493 -0.281733 0.000000
    outer loop
      vertex 3.500000 0.000000 12.500000
      vertex 2.944387 1.892243 12.500000
      vertex 3.500000 0.000000 -12.500000
    endloop
  endfacet
  facet normal -0.959493 -0.281733 0.000000
    outer loop
      vertex 3.500000 0.000000 -12.500000
      vertex 2.944387 1.892243 12.500000
      vertex 2.944387 1.892243 -12.500000
    endloop
  endfacet
  facet normal -0.959493 0.281733 0.000000
    outer loop
      vertex 3.500000 0.000000 12.500000
      vertex 3.500000 0.000000 -12.500000
      vertex 2.944387 -1.892243 12.500000
    endloop
  endfacet
  facet normal -0.959493 0.281733 0.000000
    outer loop
      vertex 2.944387 -1.892243 12.500000
      vertex 3.500000 0.000000 -12.500000
      vertex 2.944387 -1.892243 -12.500000
    endloop
  endfacet
  facet normal -0.654861 0.755749 0.000000
    outer loop
      vertex 2.944387 -1.892243 12.500000
      vertex 2.944387 -1.892243 -12.500000
      vertex 1.453953 -3.183712 12.500000
    endloop
  endfacet
  facet normal -0.654861 0.755749 0.000000
    outer loop
      vertex 1.453953 -3.183712 12.500000
      vertex 2.944387 -1.892243 -12.500000
      vertex 1.453953 -3.183712 -12.500000
    endloop
  endfacet
  facet normal -0.142315 0.989821 0.000000
    outer loop
      vertex 1.453953 -3.183712 12.500000
      vertex 1.453953 -3.183712 -12.500000
      vertex -0.498102 -3.464375 12.500000
    endloop
  endfacet
  facet normal -0.142315 0.989821 0.000000
    outer loop
      vertex -0.498102 -3.464375 12.500000
      vertex 1.453953 -3.183712 -12.500000
      vertex -0.498102 -3.464375 -12.500000
    endloop
  endfacet
  facet normal 0.415415 0.909632 -0.000000
    outer loop
      vertex -0.498102 -3.464375 12.500000
      vertex -0.498102 -3.464375 -12.500000
      vertex -2.292013 -2.645124 12.500000
    endloop
  endfacet
  facet normal 0.415415 0.909632 -0.000000
    outer loop
      vertex -2.292013 -2.645124 12.500000
      vertex -0.498102 -3.464375 -12.500000
      vertex -2.292013 -2.645124 -12.500000
    endloop
  endfacet
  facet normal 0.841254 0.540640 0.000000
    outer loop
      vertex -3.358225 -0.986064 12.500000
      vertex -2.292013 -2.645124 12.500000
      vertex -2.292013 -2.645124 -12.500000
    endloop
  endfacet
  facet normal 0.841254 0.540640 0.000000
    outer loop
      vertex -3.358225 -0.986064 -12.500000
      vertex -3.358225 -0.986064 12.500000
      vertex -2.292013 -2.645124 -12.500000
    endloop
  endfacet
  facet normal 0.781831 0.623490 0.000000
    outer loop
      vertex -3.874166 -31.865700 12.500000
      vertex -2.681006 -33.361875 12.500000
      vertex -2.681006 -33.361875 0.000000
    endloop
  endfacet
  facet normal 0.781831 0.623490 0.000000
    outer loop
      vertex -3.874166 -31.865700 0.000000
      vertex -3.874166 -31.865700 12.500000
      vertex -2.681006 -33.361875 0.000000
    endloop
  endfacet
  facet normal 0.974928 0.222521 0.000000
    outer loop
      vertex -4.300000 -30.000000 12.500000
      vertex -3.874166 -31.865700 12.500000
      vertex -3.874166 -31.865700 0.000000
    endloop
  endfacet
  facet normal 0.974928 0.222521 0.000000
    outer loop
      vertex -4.300000 -30.000000 0.000000
      vertex -4.300000 -30.000000 12.500000
      vertex -3.874166 -31.865700 0.000000
    endloop
  endfacet
  facet normal 0.433884 0.900969 -0.000000
    outer loop
      vertex -0.956840 -34.192190 12.500000
      vertex -0.956840 -34.192190 0.000000
      vertex -2.681006 -33.361875 12.500000
    endloop
  endfacet
  facet normal 0.433884 0.900969 -0.000000
    outer loop
      vertex -2.681006 -33.361875 12.500000
      vertex -0.956840 -34.192190 0.000000
      vertex -2.681006 -33.361875 0.000000
    endloop
  endfacet
  facet normal 0.000000 1.000000 0.000000
    outer loop
      vertex 0.956840 -34.192190 12.500000
      vertex 0.956840 -34.192190 0.000000
      vertex -0.956840 -34.192190 12.500000
    endloop
  endfacet
  facet normal 0.000000 1.000000 -0.000000
    outer loop
      vertex -0.956840 -34.192190 12.500000
      vertex 0.956840 -34.192190 0.000000
      vertex -0.956840 -34.192190 0.000000
    endloop
  endfacet
  facet normal -0.433884 0.900969 0.000000
    outer loop
      vertex 2.681006 -33.361875 12.500000
      vertex 2.681006 -33.361875 0.000000
      vertex 0.956840 -34.192190 12.500000
    endloop
  endfacet
  facet normal -0.433884 0.900969 0.000000
    outer loop
      vertex 0.956840 -34.192190 12.500000
      vertex 2.681006 -33.361875 0.000000
      vertex 0.956840 -34.192190 0.000000
    endloop
  endfacet
  facet normal -0.781831 0.623490 0.000000
    outer loop
      vertex 3.874166 -31.865700 12.500000
      vertex 3.874166 -31.865700 0.000000
      vertex 2.681006 -33.361875 12.500000
    endloop
  endfacet
  facet normal -0.781831 0.623490 0.000000
    outer loop
      vertex 2.681006 -33.361875 12.500000
      vertex 3.874166 -31.865700 0.000000
      vertex 2.681006 -33.361875 0.000000
    endloop
  endfacet
  facet normal -0.974928 0.222521 0.000000
    outer loop
      vertex 4.300000 -30.000000 12.500000
      vertex 4.300000 -30.000000 0.000000
      vertex 3.874166 -31.865700 12.500000
    endloop
  endfacet
  facet normal -0.974928 0.222521 0.000000
    outer loop
      vertex 3.874166 -31.865700 12.500000
      vertex 4.300000 -30.000000 0.000000
      vertex 3.874166 -31.865700 0.000000
    endloop
  endfacet
  facet normal -0.974928 -0.222521 0.000000
    outer loop
      vertex 4.300000 -30.000000 12.500000
      vertex 3.874166 -28.134300 12.500000
      vertex 4.300000 -30.000000 0.000000
    endloop
  endfacet
  facet normal -0.974928 -0.222521 0.000000
    outer loop
      vertex 4.300000 -30.000000 0.000000
      vertex 3.874166 -28.134300 12.500000
      vertex 3.874166 -28.134300 0.000000
    endloop
  endfacet
  facet normal -0.781831 -0.623490 0.000000
    outer loop
      vertex 3.874166 -28.134300 12.500000
      vertex 2.681006 -26.638125 12.500000
      vertex 3.874166 -28.134300 0.000000
    endloop
  endfacet
  facet normal -0.781831 -0.623490 0.000000
    outer loop
      vertex 3.874166 -28.134300 0.000000
      vertex 2.681006 -26.638125 12.500000
      vertex 2.681006 -26.638125 0.000000
    endloop
  endfacet
  facet normal -0.433884 -0.900969 -0.000000
    outer loop
      vertex 2.681006 -26.638125 0.000000
      vertex 2.681006 -26.638125 12.500000
      vertex 0.956840 -25.807810 12.500000
    endloop
  endfacet
  facet normal -0.433884 -0.900969 -0.000000
    outer loop
      vertex 0.956840 -25.807810 0.000000
      vertex 2.681006 -26.638125 0.000000
      vertex 0.956840 -25.807810 12.500000
    endloop
  endfacet
  facet normal 0.000000 -1.000000 0.000000
    outer loop
      vertex 0.956840 -25.807810 0.000000
      vertex 0.956840 -25.807810 12.500000
      vertex -0.956840 -25.807810 12.500000
    endloop
  endfacet
  facet normal -0.000000 -1.000000 -0.000000
    outer loop
      vertex -0.956840 -25.807810 0.000000
      vertex 0.956840 -25.807810 0.000000
      vertex -0.956840 -25.807810 12.500000
    endloop
  endfacet
  facet normal 0.433884 -0.900969 0.000000
    outer loop
      vertex -0.956840 -25.807810 0.000000
      vertex -0.956840 -25.807810 12.500000
      vertex -2.681006 -26.638125 12.500000
    endloop
  endfacet
  facet normal 0.433884 -0.900969 0.000000
    outer loop
      vertex -2.681006 -26.638125 0.000000
      vertex -0.956840 -25.807810 0.000000
      vertex -2.681006 -26.638125 12.500000
    endloop
  endfacet
  facet normal 0.781831 -0.623490 0.000000
    outer loop
      vertex -2.681006 -26.638125 0.000000
      vertex -2.681006 -26.638125 12.500000
      vertex -3.874166 -28.134300 12.500000
    endloop
  endfacet
  facet normal 0.781831 -0.623490 0.000000
    outer loop
      vertex -3.874166 -28.134300 0.000000
      vertex -2.681006 -26.638125 0.000000
      vertex -3.874166 -28.134300 12.500000
    endloop
  endfacet
  facet normal 0.974928 -0.222521 0.000000
    outer loop
      vertex -3.874166 -28.134300 0.000000
      vertex -3.874166 -28.134300 12.500000
      vertex -4.300000 -30.000000 12.500000
    endloop
  endfacet
  facet normal 0.974928 -0.222521 0.000000
    outer loop
      vertex -4.300000 -30.000000 0.000000
      vertex -3.874166 -28.134300 0.000000
      vertex -4.300000 -30.000000 12.500000
    endloop
  endfacet
  facet normal 0.974928 0.222521 0.000000
    outer loop
      vertex -4.300000 30.000000 12.500000
      vertex -3.874166 28.134300 12.500000
      vertex -3.874166 28.134300 0.000000
    endloop
  endfacet
  facet normal 0.974928 0.222521 0.000000
    outer loop
      vertex -4.300000 30.000000 0.000000
      vertex -4.300000 30.000000 12.500000
      vertex -3.874166 28.134300 0.000000
    endloop
  endfacet
  facet normal 0.781831 0.623490 0.000000
    outer loop
      vertex -3.874166 28.134300 12.500000
      vertex -2.681006 26.638125 12.500000
      vertex -2.681006 26.638125 0.000000
    endloop
  endfacet
  facet normal 0.781831 0.623490 0.000000
    outer loop
      vertex -3.874166 28.134300 0.000000
      vertex -3.874166 28.134300 12.500000
      vertex -2.681006 26.638125 0.000000
    endloop
  endfacet
  facet normal 0.433884 0.900969 -0.000000
    outer loop
      vertex -0.956840 25.807810 12.500000
      vertex -0.956840 25.807810 0.000000
      vertex -2.681006 26.638125 12.500000
    endloop
  endfacet
  facet normal 0.433884 0.900969 -0.000000
    outer loop
      vertex -2.681006 26.638125 12.500000
      vertex -0.956840 25.807810 0.000000
      vertex -2.681006 26.638125 0.000000
    endloop
  endfacet
  facet normal 0.000000 1.000000 0.000000
    outer loop
      vertex 0.956840 25.807810 12.500000
      vertex 0.956840 25.807810 0.000000
      vertex -0.956840 25.807810 12.500000
    endloop
  endfacet
  facet normal 0.000000 1.000000 -0.000000
    outer loop
      vertex -0.956840 25.807810 12.500000
      vertex 0.956840 25.807810 0.000000
      vertex -0.956840 25.807810 0.000000
    endloop
  endfacet
  facet normal -0.433884 0.900969 0.000000
    outer loop
      vertex 2.681006 26.638125 12.500000
      vertex 2.681006 26.638125 0.000000
      vertex 0.956840 25.807810 12.500000
    endloop
  endfacet
  facet normal -0.433884 0.900969 0.000000
    outer loop
      vertex 0.956840 25.807810 12.500000
      vertex 2.681006 26.638125 0.000000
      vertex 0.956840 25.807810 0.000000
    endloop
  endfacet
  facet normal -0.781831 0.623490 0.000000
    outer loop
      vertex 3.874166 28.134300 12.500000
      vertex 3.874166 28.134300 0.000000
      vertex 2.681006 26.638125 12.500000
    endloop
  endfacet
  facet normal -0.781831 0.623490 0.000000
    outer loop
      vertex 2.681006 26.638125 12.500000
      vertex 3.874166 28.134300 0.000000
      vertex 2.681006 26.638125 0.000000
    endloop
  endfacet
  facet normal -0.974928 0.222521 0.000000
    outer loop
      vertex 4.300000 30.000000 12.500000
      vertex 4.300000 30.000000 0.000000
      vertex 3.874166 28.134300 12.500000
    endloop
  endfacet
  facet normal -0.974928 0.222521 0.000000
    outer loop
      vertex 3.874166 28.134300 12.500000
      vertex 4.300000 30.000000 0.000000
      vertex 3.874166 28.134300 0.000000
    endloop
  endfacet
  facet normal -0.974928 -0.222521 0.000000
    outer loop
      vertex 4.300000 30.000000 12.500000
      vertex 3.874166 31.865700 12.500000
      vertex 4.300000 30.000000 0.000000
    endloop
  endfacet
  facet normal -0.974928 -0.222521 0.000000
    outer loop
      vertex 4.300000 30.000000 0.000000
      vertex 3.874166 31.865700 12.500000
      vertex 3.874166 31.865700 0.000000
    endloop
  endfacet
  facet normal -0.781831 -0.623490 0.000000
    outer loop
      vertex 3.874166 31.865700 12.500000
      vertex 2.681006 33.361875 12.500000
      vertex 3.874166 31.865700 0.000000
    endloop
  endfacet
  facet normal -0.781831 -0.623490 0.000000
    outer loop
      vertex 3.874166 31.865700 0.000000
      vertex 2.681006 33.361875 12.500000
      vertex 2.681006 33.361875 0.000000
    endloop
  endfacet
  facet normal -0.433884 -0.900969 -0.000000
    outer loop
      vertex 2.681006 33.361875 0.000000
      vertex 2.681006 33.361875 12.500000
      vertex 0.956840 34.192190 12.500000
    endloop
  endfacet
  facet normal -0.433884 -0.900969 -0.000000
    outer loop
      vertex 0.956840 34.192190 0.000000
      vertex 2.681006 33.361875 0.000000
      vertex 0.956840 34.192190 12.500000
    endloop
  endfacet
  facet normal 0.000000 -1.000000 0.000000
    outer loop
      vertex 0.956840 34.192190 0.000000
      vertex 0.956840 34.192190 12.500000
      vertex -0.956840 34.192190 12.500000
    endloop
  endfacet
  facet normal -0.000000 -1.000000 -0.000000
    outer loop
      vertex -0.956840 34.192190 0.000000
      vertex 0.956840 34.192190 0.000000
      vertex -0.956840 34.192190 12.500000
    endloop
  endfacet
  facet normal 0.433884 -0.900969 0.000000
    outer loop
      vertex -0.956840 34.192190 0.000000
      vertex -0.956840 34.192190 12.500000
      vertex -2.681006 33.361875 12.500000
    endloop
  endfacet
  facet normal 0.433884 -0.900969 0.000000
    outer loop
      vertex -2.681006 33.361875 0.000000
      vertex -0.956840 34.192190 0.000000
      vertex -2.681006 33.361875 12.500000
    endloop
  endfacet
  facet normal 0.781831 -0.623490 0.000000
    outer loop
      vertex -2.681006 33.361875 0.000000
      vertex -2.681006 33.361875 12.500000
      vertex -3.874166 31.865700 12.500000
    endloop
  endfacet
  facet normal 0.781831 -0.623490 0.000000
    outer loop
      vertex -3.874166 31.865700 0.000000
      vertex -2.681006 33.361875 0.000000
      vertex -3.874166 31.865700 12.500000
    endloop
  endfacet
  facet normal 0.974928 -0.222521 0.000000
    outer loop
      vertex -3.874166 31.865700 0.000000
      vertex -3.874166 31.865700 12.500000
      vertex -4.300000 30.000000 12.500000
    endloop
  endfacet
  facet normal 0.974928 -0.222521 0.000000
    outer loop
      vertex -4.300000 30.000000 0.000000
      vertex -3.874166 31.865700 0.000000
      vertex -4.300000 30.000000 12.500000
    endloop
  endfacet
  facet normal 0.382683 0.000000 0.923880
    outer loop
      vertex 34.000000 -15.000000 -2.500000
      vertex 34.000000 -10.000000 -2.500000
      vertex 32.232233 -10.000000 -1.767767
    endloop
  endfacet
  facet normal 0.382683 0.000000 0.923880
    outer loop
      vertex 32.232233 -15.000000 -1.767767
      vertex 34.000000 -15.000000 -2.500000
      vertex 32.232233 -10.000000 -1.767767
    endloop
  endfacet
  facet normal 0.923880 0.000000 0.382683
    outer loop
      vertex 32.232233 -15.000000 -1.767767
      vertex 32.232233 -10.000000 -1.767767
      vertex 31.500000 -10.000000 0.000000
    endloop
  endfacet
  facet normal 0.923880 0.000000 0.382683
    outer loop
      vertex 31.500000 -15.000000 0.000000
      vertex 32.232233 -15.000000 -1.767767
      vertex 31.500000 -10.000000 0.000000
    endloop
  endfacet
  facet normal -0.382683 0.000000 0.923880
    outer loop
      vertex 35.767767 -15.000000 -1.767767
      vertex 35.767767 -10.000000 -1.767767
      vertex 34.000000 -10.000000 -2.500000
    endloop
  endfacet
  facet normal -0.382683 0.000000 0.923880
    outer loop
      vertex 34.000000 -15.000000 -2.500000
      vertex 35.767767 -15.000000 -1.767767
      vertex 34.000000 -10.000000 -2.500000
    endloop
  endfacet
  facet normal -0.923880 0.000000 0.382683
    outer loop
      vertex 36.500000 -10.000000 0.000000
      vertex 35.767767 -10.000000 -1.767767
      vertex 36.500000 -15.000000 0.000000
    endloop
  endfacet
  facet normal -0.923880 0.000000 0.382683
    outer loop
      vertex 36.500000 -15.000000 0.000000
      vertex 35.767767 -10.000000 -1.767767
      vertex 35.767767 -15.000000 -1.767767
    endloop
  endfacet
  facet normal -0.923880 -0.000000 -0.382683
    outer loop
      vertex 36.500000 -10.000000 0.000000
      vertex 36.500000 -15.000000 0.000000
      vertex 35.767767 -10.000000 1.767767
    endloop
  endfacet
  facet normal -0.923880 -0.000000 -0.382683
    outer loop
      vertex 35.767767 -10.000000 1.767767
      vertex 36.500000 -15.000000 0.000000
      vertex 35.767767 -15.000000 1.767767
    endloop
  endfacet
  facet normal -0.382683 -0.000000 -0.923880
    outer loop
      vertex 35.767767 -10.000000 1.767767
      vertex 35.767767 -15.000000 1.767767
      vertex 34.000000 -10.000000 2.500000
    endloop
  endfacet
  facet normal -0.382683 -0.000000 -0.923880
    outer loop
      vertex 34.000000 -10.000000 2.500000
      vertex 35.767767 -15.000000 1.767767
      vertex 34.000000 -15.000000 2.500000
    endloop
  endfacet
  facet normal 0.382683 -0.000000 -0.923880
    outer loop
      vertex 34.000000 -10.000000 2.500000
      vertex 34.000000 -15.000000 2.500000
      vertex 32.232233 -10.000000 1.767767
    endloop
  endfacet
  facet normal 0.382683 -0.000000 -0.923880
    outer loop
      vertex 32.232233 -10.000000 1.767767
      vertex 34.000000 -15.000000 2.500000
      vertex 32.232233 -15.000000 1.767767
    endloop
  endfacet
  facet normal 0.923880 -0.000000 -0.382683
    outer loop
      vertex 31.500000 -10.000000 0.000000
      vertex 32.232233 -10.000000 1.767767
      vertex 32.232233 -15.000000 1.767767
    endloop
  endfacet
  facet normal 0.923880 -0.000000 -0.382683
    outer loop
      vertex 31.500000 -15.000000 0.000000
      vertex 31.500000 -10.000000 0.000000
      vertex 32.232233 -15.000000 1.767767
    endloop
  endfacet
  facet normal 0.923880 0.000000 0.382683
    outer loop
      vertex 32.232233 10.000000 -1.767767
      vertex 32.232233 15.000000 -1.767767
      vertex 31.500000 15.000000 -0.000000
    endloop
  endfacet
  facet normal 0.923880 0.000000 0.382683
    outer loop
      vertex 31.500000 10.000000 -0.000000
      vertex 32.232233 10.000000 -1.767767
      vertex 31.500000 15.000000 -0.000000
    endloop
  endfacet
  facet normal 0.923880 -0.000000 -0.382683
    outer loop
      vertex 31.500000 15.000000 -0.000000
      vertex 32.232233 15.000000 1.767767
      vertex 32.232233 10.000000 1.767767
    endloop
  endfacet
  facet normal 0.923880 -0.000000 -0.382683
    outer loop
      vertex 31.500000 10.000000 -0.000000
      vertex 31.500000 15.000000 -0.000000
      vertex 32.232233 10.000000 1.767767
    endloop
  endfacet
  facet normal 0.382683 0.000000 0.923880
    outer loop
      vertex 34.000000 10.000000 -2.500000
      vertex 34.000000 15.000000 -2.500000
      vertex 32.232233 15.000000 -1.767767
    endloop
  endfacet
  facet normal 0.382683 0.000000 0.923880
    outer loop
      vertex 32.232233 10.000000 -1.767767
      vertex 34.000000 10.000000 -2.500000
      vertex 32.232233 15.000000 -1.767767
    endloop
  endfacet
  facet normal -0.382683 0.000000 0.923880
    outer loop
      vertex 35.767767 10.000000 -1.767767
      vertex 35.767767 15.000000 -1.767767
      vertex 34.000000 15.000000 -2.500000
    endloop
  endfacet
  facet normal -0.382683 0.000000 0.923880
    outer loop
      vertex 34.000000 10.000000 -2.500000
      vertex 35.767767 10.000000 -1.767767
      vertex 34.000000 15.000000 -2.500000
    endloop
  endfacet
  facet normal -0.923880 0.000000 0.382683
    outer loop
      vertex 36.500000 15.000000 -0.000000
      vertex 35.767767 15.000000 -1.767767
      vertex 36.500000 10.000000 -0.000000
    endloop
  endfacet
  facet normal -0.923880 0.000000 0.382683
    outer loop
      vertex 36.500000 10.000000 -0.000000
      vertex 35.767767 15.000000 -1.767767
      vertex 35.767767 10.000000 -1.767767
    endloop
  endfacet
  facet normal -0.923880 -0.000000 -0.382683
    outer loop
      vertex 36.500000 15.000000 -0.000000
      vertex 36.500000 10.000000 -0.000000
      vertex 35.767767 15.000000 1.767767
    endloop
  endfacet
  facet normal -0.923880 -0.000000 -0.382683
    outer loop
      vertex 35.767767 15.000000 1.767767
      vertex 36.500000 10.000000 -0.000000
      vertex 35.767767 10.000000 1.767767
    endloop
  endfacet
  facet normal -0.382683 -0.000000 -0.923880
    outer loop
      vertex 35.767767 15.000000 1.767767
      vertex 35.767767 10.000000 1.767767
      vertex 34.000000 15.000000 2.500000
    endloop
  endfacet
  facet normal -0.382683 -0.000000 -0.923880
    outer loop
      vertex 34.000000 15.000000 2.500000
      vertex 35.767767 10.000000 1.767767
      vertex 34.000000 10.000000 2.500000
    endloop
  endfacet
  facet normal 0.382683 -0.000000 -0.923880
    outer loop
      vertex 34.000000 15.000000 2.500000
      vertex 34.000000 10.000000 2.500000
      vertex 32.232233 15.000000 1.767767
    endloop
  endfacet
  facet normal 0.382683 -0.000000 -0.923880
    outer loop
      vertex 32.232233 15.000000 1.767767
      vertex 34.000000 10.000000 2.500000
      vertex 32.232233 10.000000 1.767767
    endloop
  endfacet
  facet normal 0.000000 0.000000 1.000000
    outer loop
      vertex -3.874166 -31.865700 0.000000
      vertex -2.681006 -33.361875 0.000000
      vertex -0.956840 -34.192190 0.000000
    endloop
  endfacet
  facet normal -0.000000 0.000000 1.000000
    outer loop
      vertex 2.681006 -33.361875 0.000000
      vertex -3.874166 -31.865700 0.000000
      vertex 0.956840 -34.192190 0.000000
    endloop
  endfacet
  facet normal -0.000000 0.000000 1.000000
    outer loop
      vertex 0.956840 -34.192190 0.000000
      vertex -3.874166 -31.865700 0.000000
      vertex -0.956840 -34.192190 0.000000
    endloop
  endfacet
  facet normal 0.000000 0.000000 1.000000
    outer loop
      vertex 3.874166 -31.865700 0.000000
      vertex -3.874166 -31.865700 0.000000
      vertex 2.681006 -33.361875 0.000000
    endloop
  endfacet
  facet normal 0.000000 0.000000 1.000000
    outer loop
      vertex 4.300000 -30.000000 0.000000
      vertex -3.874166 -31.865700 0.000000
      vertex 3.874166 -31.865700 0.000000
    endloop
  endfacet
  facet normal 0.000000 -0.000000 1.000000
    outer loop
      vertex 3.874166 -28.134300 0.000000
      vertex -3.874166 -31.865700 0.000000
      vertex 4.300000 -30.000000 0.000000
    endloop
  endfacet
  facet normal 0.000000 -0.000000 1.000000
    outer loop
      vertex 2.681006 -26.638125 0.000000
      vertex -3.874166 -31.865700 0.000000
      vertex 3.874166 -28.134300 0.000000
    endloop
  endfacet
  facet normal 0.000000 -0.000000 1.000000
    outer loop
      vertex 0.956840 -25.807810 0.000000
      vertex -3.874166 -31.865700 0.000000
      vertex 2.681006 -26.638125 0.000000
    endloop
  endfacet
  facet normal 0.000000 -0.000000 1.000000
    outer loop
      vertex -0.956840 -25.807810 0.000000
      vertex -3.874166 -31.865700 0.000000
      vertex 0.956840 -25.807810 0.000000
    endloop
  endfacet
  facet normal 0.000000 -0.000000 1.000000
    outer loop
      vertex -2.681006 -26.638125 0.000000
      vertex -3.874166 -31.865700 0.000000
      vertex -0.956840 -25.807810 0.000000
    endloop
  endfacet
  facet normal 0.000000 -0.000000 1.000000
    outer loop
      vertex -3.874166 -28.134300 0.000000
      vertex -3.874166 -31.865700 0.000000
      vertex -2.681006 -26.638125 0.000000
    endloop
  endfacet
  facet normal 0.000000 0.000000 1.000000
    outer loop
      vertex -4.300000 -30.000000 0.000000
      vertex -3.874166 -31.865700 0.000000
      vertex -3.874166 -28.134300 0.000000
    endloop
  endfacet
  facet normal 0.000000 0.000000 1.000000
    outer loop
      vertex -3.874166 28.134300 0.000000
      vertex -2.681006 26.638125 0.000000
      vertex -0.956840 25.807810 0.000000
    endloop
  endfacet
  facet normal -0.000000 0.000000 1.000000
    outer loop
      vertex 2.681006 26.638125 0.000000
      vertex -3.874166 28.134300 0.000000
      vertex 0.956840 25.807810 0.000000
    endloop
  endfacet
  facet normal -0.000000 0.000000 1.000000
    outer loop
      vertex 0.956840 25.807810 0.000000
      vertex -3.874166 28.134300 0.000000
      vertex -0.956840 25.807810 0.000000
    endloop
  endfacet
  facet normal 0.000000 0.000000 1.000000
    outer loop
      vertex 3.874166 28.134300 0.000000
      vertex -3.874166 28.134300 0.000000
      vertex 2.681006 26.638125 0.000000
    endloop
  endfacet
  facet normal 0.000000 0.000000 1.000000
    outer loop
      vertex 4.300000 30.000000 0.000000
      vertex -3.874166 28.134300 0.000000
      vertex 3.874166 28.134300 0.000000
    endloop
  endfacet
  facet normal 0.000000 -0.000000 1.000000
    outer loop
      vertex 3.874166 31.865700 0.000000
      vertex -3.874166 28.134300 0.000000
      vertex 4.300000 30.000000 0.000000
    endloop
  endfacet
  facet normal 0.000000 -0.000000 1.000000
    outer loop
      vertex 2.681006 33.361875 0.000000
      vertex -3.874166 28.134300 0.000000
      vertex 3.874166 31.865700 0.000000
    endloop
  endfacet
  facet normal 0.000000 -0.000000 1.000000
    outer loop
      vertex 0.956840 34.192190 0.000000
      vertex -3.874166 28.134300 0.000000
      vertex 2.681006 33.361875 0.000000
    endloop
  endfacet
  facet normal 0.000000 -0.000000 1.000000
    outer loop
      vertex -0.956840 34.192190 0.000000
      vertex -3.874166 28.134300 0.000000
      vertex 0.956840 34.192190 0.000000
    endloop
  endfacet
  facet normal 0.000000 -0.000000 1.000000
    outer loop
      vertex -2.681006 33.361875 0.000000
      vertex -3.874166 28.134300 0.000000
      vertex -0.956840 34.192190 0.000000
    endloop
  endfacet
  facet normal 0.000000 -0.000000 1.000000
    outer loop
      vertex -3.874166 31.865700 0.000000
      vertex -3.874166 28.134300 0.000000
      vertex -2.681006 33.361875 0.000000
    endloop
  endfacet
  facet normal 0.000000 0.000000 1.000000
    outer loop
      vertex -4.300000 30.000000 0.000000
      vertex -3.874166 28.134300 0.000000
      vertex -3.874166 31.865700 0.000000
    endloop
  endfacet
endsolid OpenSCAD_Model
