solid OpenSCAD_Model
  facet normal -1.000000 0.000000 0.000000
    outer loop
      vertex 0.000000 -17.500000 19.000000
      vertex 0.000000 -27.500000 19.000000
      vertex 0.000000 -17.500000 29.000000
    endloop
  endfacet
  facet normal -1.000000 0.000000 0.000000
    outer loop
      vertex 0.000000 -17.500000 29.000000
      vertex 0.000000 -27.500000 19.000000
      vertex 0.000000 -27.500000 29.000000
    endloop
  endfacet
  facet normal -0.000000 0.000000 -1.000000
    outer loop
      vertex 8.871678 -24.220029 19.000000
      vertex 30.000000 -17.500000 19.000000
      vertex 0.000000 -27.500000 19.000000
    endloop
  endfacet
  facet normal -0.000000 0.000000 -1.000000
    outer loop
      vertex 23.871678 -20.779971 19.000000
      vertex 30.000000 -17.500000 19.000000
      vertex 30.000000 -21.500000 19.000000
    endloop
  endfacet
  facet normal 0.000000 -0.000000 -1.000000
    outer loop
      vertex 30.000000 -23.500000 19.000000
      vertex 30.000000 -21.500000 19.000000
      vertex 54.000000 -21.500000 19.000000
    endloop
  endfacet
  facet normal -0.000000 -0.000000 -1.000000
    outer loop
      vertex 54.000000 -21.500000 19.000000
      vertex 54.000000 -14.168462 19.000000
      vertex 69.722535 -21.500000 19.000000
    endloop
  endfacet
  facet normal 0.000000 0.000000 -1.000000
    outer loop
      vertex 30.000000 -27.500000 19.000000
      vertex 0.000000 -27.500000 19.000000
      vertex 22.010454 -24.644841 19.000000
    endloop
  endfacet
  facet normal -0.000000 0.000000 -1.000000
    outer loop
      vertex 9.700000 -22.500000 19.000000
      vertex 30.000000 -17.500000 19.000000
      vertex 8.871678 -24.220029 19.000000
    endloop
  endfacet
  facet normal 0.000000 0.000000 -1.000000
    outer loop
      vertex 20.517868 -23.454544 19.000000
      vertex 0.000000 -27.500000 19.000000
      vertex 20.517868 -21.545456 19.000000
    endloop
  endfacet
  facet normal 0.000000 0.000000 -1.000000
    outer loop
      vertex 0.000000 -17.500000 19.000000
      vertex 5.517868 -21.545456 19.000000
      vertex 0.000000 -27.500000 19.000000
    endloop
  endfacet
  facet normal 0.000000 0.000000 -1.000000
    outer loop
      vertex 23.871678 -20.779971 19.000000
      vertex 30.000000 -21.500000 19.000000
      vertex 24.700000 -22.500000 19.000000
    endloop
  endfacet
  facet normal 0.000000 0.000000 -1.000000
    outer loop
      vertex 5.517868 -21.545456 19.000000
      vertex 5.517868 -23.454544 19.000000
      vertex 0.000000 -27.500000 19.000000
    endloop
  endfacet
  facet normal -0.000000 0.000000 -1.000000
    outer loop
      vertex 8.871678 -20.779971 19.000000
      vertex 30.000000 -17.500000 19.000000
      vertex 9.700000 -22.500000 19.000000
    endloop
  endfacet
  facet normal 0.000000 0.000000 -1.000000
    outer loop
      vertex 5.517868 -23.454544 19.000000
      vertex 7.010454 -24.644841 19.000000
      vertex 0.000000 -27.500000 19.000000
    endloop
  endfacet
  facet normal -0.000000 0.000000 -1.000000
    outer loop
      vertex 7.010454 -24.644841 19.000000
      vertex 8.871678 -24.220029 19.000000
      vertex 0.000000 -27.500000 19.000000
    endloop
  endfacet
  facet normal 0.000000 0.000000 -1.000000
    outer loop
      vertex 0.000000 -17.500000 19.000000
      vertex 30.000000 -17.500000 19.000000
      vertex 8.871678 -20.779971 19.000000
    endloop
  endfacet
  facet normal 0.000000 0.000000 -1.000000
    outer loop
      vertex 0.000000 -17.500000 19.000000
      vertex 8.871678 -20.779971 19.000000
      vertex 7.010454 -20.355159 19.000000
    endloop
  endfacet
  facet normal 0.000000 0.000000 -1.000000
    outer loop
      vertex 0.000000 -17.500000 19.000000
      vertex 7.010454 -20.355159 19.000000
      vertex 5.517868 -21.545456 19.000000
    endloop
  endfacet
  facet normal 0.000000 0.000000 -1.000000
    outer loop
      vertex 22.010454 -24.644841 19.000000
      vertex 0.000000 -27.500000 19.000000
      vertex 20.517868 -23.454544 19.000000
    endloop
  endfacet
  facet normal -0.000000 0.000000 -1.000000
    outer loop
      vertex 24.700000 -22.500000 19.000000
      vertex 30.000000 -21.500000 19.000000
      vertex 30.000000 -23.500000 19.000000
    endloop
  endfacet
  facet normal 0.000000 0.000000 -1.000000
    outer loop
      vertex 30.000000 -27.500000 19.000000
      vertex 22.010454 -24.644841 19.000000
      vertex 30.000000 -23.500000 19.000000
    endloop
  endfacet
  facet normal 0.000000 0.000000 -1.000000
    outer loop
      vertex 24.700000 -22.500000 19.000000
      vertex 30.000000 -23.500000 19.000000
      vertex 23.871678 -24.220029 19.000000
    endloop
  endfacet
  facet normal -0.000000 0.000000 -1.000000
    outer loop
      vertex 23.871678 -24.220029 19.000000
      vertex 30.000000 -23.500000 19.000000
      vertex 22.010454 -24.644841 19.000000
    endloop
  endfacet
  facet normal -0.000000 0.000000 -1.000000
    outer loop
      vertex 22.010454 -20.355159 19.000000
      vertex 30.000000 -17.500000 19.000000
      vertex 23.871678 -20.779971 19.000000
    endloop
  endfacet
  facet normal 0.000000 0.000000 -1.000000
    outer loop
      vertex 0.000000 -27.500000 19.000000
      vertex 30.000000 -17.500000 19.000000
      vertex 22.010454 -20.355159 19.000000
    endloop
  endfacet
  facet normal 0.000000 0.000000 -1.000000
    outer loop
      vertex 0.000000 -27.500000 19.000000
      vertex 22.010454 -20.355159 19.000000
      vertex 20.517868 -21.545456 19.000000
    endloop
  endfacet
  facet normal 0.000000 0.000000 -1.000000
    outer loop
      vertex 30.000000 -23.500000 19.000000
      vertex 54.000000 -21.500000 19.000000
      vertex 69.722535 -21.500000 19.000000
    endloop
  endfacet
  facet normal 0.000000 0.000000 -1.000000
    outer loop
      vertex 30.000000 -23.500000 19.000000
      vertex 69.722535 -21.500000 19.000000
      vertex 70.000000 -21.500000 19.000000
    endloop
  endfacet
  facet normal -0.000000 0.000000 -1.000000
    outer loop
      vertex 30.000000 -23.500000 19.000000
      vertex 70.000000 -21.500000 19.000000
      vertex 70.000000 -23.500000 19.000000
    endloop
  endfacet
  facet normal 0.000000 1.000000 0.000000
    outer loop
      vertex 0.000000 -17.500000 19.000000
      vertex 0.000000 -17.500000 29.000000
      vertex 30.000000 -17.500000 19.000000
    endloop
  endfacet
  facet normal 0.000000 1.000000 0.000000
    outer loop
      vertex 30.000000 -17.500000 19.000000
      vertex 0.000000 -17.500000 29.000000
      vertex 30.000000 -17.500000 29.000000
    endloop
  endfacet
  facet normal -0.000000 0.000000 1.000000
    outer loop
      vertex 5.517868 -23.454544 29.000000
      vertex 0.000000 -17.500000 29.000000
      vertex 0.000000 -27.500000 29.000000
    endloop
  endfacet
  facet normal -0.000000 0.000000 1.000000
    outer loop
      vertex 22.010454 -20.355159 29.000000
      vertex 30.000000 -17.500000 29.000000
      vertex 0.000000 -27.500000 29.000000
    endloop
  endfacet
  facet normal -0.000000 0.000000 1.000000
    outer loop
      vertex 20.517868 -23.454544 29.000000
      vertex 20.517868 -21.545456 29.000000
      vertex 0.000000 -27.500000 29.000000
    endloop
  endfacet
  facet normal 0.000000 0.000000 1.000000
    outer loop
      vertex 54.000000 -14.168462 29.000000
      vertex 70.000000 -23.500000 29.000000
      vertex 69.722535 -21.500000 29.000000
    endloop
  endfacet
  facet normal -0.000000 0.000000 1.000000
    outer loop
      vertex 7.010454 -24.644841 29.000000
      vertex 5.517868 -23.454544 29.000000
      vertex 0.000000 -27.500000 29.000000
    endloop
  endfacet
  facet normal 0.000000 0.000000 1.000000
    outer loop
      vertex 70.000000 -23.500000 29.000000
      vertex 70.000000 -21.500000 29.000000
      vertex 69.722535 -21.500000 29.000000
    endloop
  endfacet
  facet normal -0.000000 0.000000 1.000000
    outer loop
      vertex 70.000000 -23.500000 29.000000
      vertex 54.000000 -21.500000 29.000000
      vertex 30.000000 -23.500000 29.000000
    endloop
  endfacet
  facet normal 0.000000 -0.000000 1.000000
    outer loop
      vertex 24.700000 -22.500000 29.000000
      vertex 23.871678 -24.220029 29.000000
      vertex 30.000000 -23.500000 29.000000
    endloop
  endfacet
  facet normal 0.000000 0.000000 1.000000
    outer loop
      vertex 30.000000 -23.500000 29.000000
      vertex 54.000000 -21.500000 29.000000
      vertex 30.000000 -21.500000 29.000000
    endloop
  endfacet
  facet normal -0.000000 0.000000 1.000000
    outer loop
      vertex 5.517868 -21.545456 29.000000
      vertex 0.000000 -17.500000 29.000000
      vertex 5.517868 -23.454544 29.000000
    endloop
  endfacet
  facet normal -0.000000 0.000000 1.000000
    outer loop
      vertex 7.010454 -20.355159 29.000000
      vertex 0.000000 -17.500000 29.000000
      vertex 5.517868 -21.545456 29.000000
    endloop
  endfacet
  facet normal 0.000000 0.000000 1.000000
    outer loop
      vertex 30.000000 -17.500000 29.000000
      vertex 0.000000 -17.500000 29.000000
      vertex 7.010454 -20.355159 29.000000
    endloop
  endfacet
  facet normal -0.000000 0.000000 1.000000
    outer loop
      vertex 22.010454 -24.644841 29.000000
      vertex 20.517868 -23.454544 29.000000
      vertex 0.000000 -27.500000 29.000000
    endloop
  endfacet
  facet normal 0.000000 0.000000 1.000000
    outer loop
      vertex 30.000000 -17.500000 29.000000
      vertex 7.010454 -20.355159 29.000000
      vertex 8.871678 -20.779971 29.000000
    endloop
  endfacet
  facet normal 0.000000 -0.000000 1.000000
    outer loop
      vertex 23.871678 -24.220029 29.000000
      vertex 22.010454 -24.644841 29.000000
      vertex 30.000000 -23.500000 29.000000
    endloop
  endfacet
  facet normal 0.000000 0.000000 1.000000
    outer loop
      vertex 30.000000 -17.500000 29.000000
      vertex 8.871678 -24.220029 29.000000
      vertex 0.000000 -27.500000 29.000000
    endloop
  endfacet
  facet normal 0.000000 0.000000 1.000000
    outer loop
      vertex 30.000000 -17.500000 29.000000
      vertex 9.700000 -22.500000 29.000000
      vertex 8.871678 -24.220029 29.000000
    endloop
  endfacet
  facet normal 0.000000 0.000000 1.000000
    outer loop
      vertex 8.871678 -24.220029 29.000000
      vertex 7.010454 -24.644841 29.000000
      vertex 0.000000 -27.500000 29.000000
    endloop
  endfacet
  facet normal -0.000000 0.000000 1.000000
    outer loop
      vertex 20.517868 -21.545456 29.000000
      vertex 22.010454 -20.355159 29.000000
      vertex 0.000000 -27.500000 29.000000
    endloop
  endfacet
  facet normal 0.000000 0.000000 1.000000
    outer loop
      vertex 23.871678 -20.779971 29.000000
      vertex 24.700000 -22.500000 29.000000
      vertex 30.000000 -21.500000 29.000000
    endloop
  endfacet
  facet normal 0.000000 0.000000 1.000000
    outer loop
      vertex 24.700000 -22.500000 29.000000
      vertex 30.000000 -23.500000 29.000000
      vertex 30.000000 -21.500000 29.000000
    endloop
  endfacet
  facet normal 0.000000 0.000000 1.000000
    outer loop
      vertex 30.000000 -21.500000 29.000000
      vertex 30.000000 -17.500000 29.000000
      vertex 23.871678 -20.779971 29.000000
    endloop
  endfacet
  facet normal 0.000000 0.000000 1.000000
    outer loop
      vertex 22.010454 -20.355159 29.000000
      vertex 23.871678 -20.779971 29.000000
      vertex 30.000000 -17.500000 29.000000
    endloop
  endfacet
  facet normal -0.000000 0.000000 1.000000
    outer loop
      vertex 30.000000 -27.500000 29.000000
      vertex 22.010454 -24.644841 29.000000
      vertex 0.000000 -27.500000 29.000000
    endloop
  endfacet
  facet normal 0.000000 0.000000 1.000000
    outer loop
      vertex 30.000000 -27.500000 29.000000
      vertex 30.000000 -23.500000 29.000000
      vertex 22.010454 -24.644841 29.000000
    endloop
  endfacet
  facet normal 0.000000 0.000000 1.000000
    outer loop
      vertex 8.871678 -20.779971 29.000000
      vertex 9.700000 -22.500000 29.000000
      vertex 30.000000 -17.500000 29.000000
    endloop
  endfacet
  facet normal 0.000000 -0.000000 1.000000
    outer loop
      vertex 54.000000 -14.168462 29.000000
      vertex 54.000000 -21.500000 29.000000
      vertex 70.000000 -23.500000 29.000000
    endloop
  endfacet
  facet normal 0.000000 -1.000000 0.000000
    outer loop
      vertex 0.000000 -27.500000 29.000000
      vertex 0.000000 -27.500000 19.000000
      vertex 30.000000 -27.500000 19.000000
    endloop
  endfacet
  facet normal 0.000000 -1.000000 0.000000
    outer loop
      vertex 30.000000 -27.500000 29.000000
      vertex 0.000000 -27.500000 29.000000
      vertex 30.000000 -27.500000 19.000000
    endloop
  endfacet
  facet normal 1.000000 0.000000 0.000000
    outer loop
      vertex 30.000000 -27.500000 19.000000
      vertex 30.000000 -23.500000 19.000000
      vertex 30.000000 -23.500000 29.000000
    endloop
  endfacet
  facet normal 1.000000 0.000000 -0.000000
    outer loop
      vertex 30.000000 -27.500000 29.000000
      vertex 30.000000 -27.500000 19.000000
      vertex 30.000000 -23.500000 29.000000
    endloop
  endfacet
  facet normal 0.000000 -1.000000 0.000000
    outer loop
      vertex 30.000000 -23.500000 29.000000
      vertex 30.000000 -23.500000 19.000000
      vertex 70.000000 -23.500000 19.000000
    endloop
  endfacet
  facet normal 0.000000 -1.000000 0.000000
    outer loop
      vertex 70.000000 -23.500000 29.000000
      vertex 30.000000 -23.500000 29.000000
      vertex 70.000000 -23.500000 19.000000
    endloop
  endfacet
  facet normal 1.000000 0.000000 0.000000
    outer loop
      vertex 70.000000 -23.500000 19.000000
      vertex 70.000000 -21.500000 19.000000
      vertex 70.000000 -21.500000 29.000000
    endloop
  endfacet
  facet normal 1.000000 0.000000 -0.000000
    outer loop
      vertex 70.000000 -23.500000 29.000000
      vertex 70.000000 -23.500000 19.000000
      vertex 70.000000 -21.500000 29.000000
    endloop
  endfacet
  facet normal 0.000000 1.000000 0.000000
    outer loop
      vertex 69.722535 -21.500000 19.000000
      vertex 69.722535 -21.500000 29.000000
      vertex 70.000000 -21.500000 19.000000
    endloop
  endfacet
  facet normal 0.000000 1.000000 0.000000
    outer loop
      vertex 70.000000 -21.500000 19.000000
      vertex 69.722535 -21.500000 29.000000
      vertex 70.000000 -21.500000 29.000000
    endloop
  endfacet
  facet normal 0.422618 0.906308 -0.000000
    outer loop
      vertex 69.722535 -21.500000 29.000000
      vertex 69.722535 -21.500000 19.000000
      vertex 54.000000 -14.168462 29.000000
    endloop
  endfacet
  facet normal 0.422618 0.906308 -0.000000
    outer loop
      vertex 54.000000 -14.168462 29.000000
      vertex 69.722535 -21.500000 19.000000
      vertex 54.000000 -14.168462 19.000000
    endloop
  endfacet
  facet normal -1.000000 0.000000 0.000000
    outer loop
      vertex 54.000000 -14.168462 19.000000
      vertex 54.000000 -21.500000 19.000000
      vertex 54.000000 -14.168462 29.000000
    endloop
  endfacet
  facet normal -1.000000 0.000000 0.000000
    outer loop
      vertex 54.000000 -14.168462 29.000000
      vertex 54.000000 -21.500000 19.000000
      vertex 54.000000 -21.500000 29.000000
    endloop
  endfacet
  facet normal 0.000000 1.000000 0.000000
    outer loop
      vertex 30.000000 -21.500000 19.000000
      vertex 30.000000 -21.500000 29.000000
      vertex 54.000000 -21.500000 19.000000
    endloop
  endfacet
  facet normal 0.000000 1.000000 0.000000
    outer loop
      vertex 54.000000 -21.500000 19.000000
      vertex 30.000000 -21.500000 29.000000
      vertex 54.000000 -21.500000 29.000000
    endloop
  endfacet
  facet normal 1.000000 0.000000 0.000000
    outer loop
      vertex 30.000000 -21.500000 19.000000
      vertex 30.000000 -17.500000 19.000000
      vertex 30.000000 -17.500000 29.000000
    endloop
  endfacet
  facet normal 1.000000 0.000000 -0.000000
    outer loop
      vertex 30.000000 -21.500000 29.000000
      vertex 30.000000 -21.500000 19.000000
      vertex 30.000000 -17.500000 29.000000
    endloop
  endfacet
  facet normal 0.623490 -0.781832 0.000000
    outer loop
      vertex 7.010454 -20.355159 19.000000
      vertex 7.010454 -20.355159 29.000000
      vertex 5.517868 -21.545456 29.000000
    endloop
  endfacet
  facet normal 0.623490 -0.781832 0.000000
    outer loop
      vertex 5.517868 -21.545456 19.000000
      vertex 7.010454 -20.355159 19.000000
      vertex 5.517868 -21.545456 29.000000
    endloop
  endfacet
  facet normal 1.000000 0.000000 0.000000
    outer loop
      vertex 5.517868 -21.545456 29.000000
      vertex 5.517868 -23.454544 29.000000
      vertex 5.517868 -23.454544 19.000000
    endloop
  endfacet
  facet normal 1.000000 -0.000000 0.000000
    outer loop
      vertex 5.517868 -21.545456 19.000000
      vertex 5.517868 -21.545456 29.000000
      vertex 5.517868 -23.454544 19.000000
    endloop
  endfacet
  facet normal -0.222521 -0.974928 0.000000
    outer loop
      vertex 8.871678 -20.779971 19.000000
      vertex 8.871678 -20.779971 29.000000
      vertex 7.010454 -20.355159 29.000000
    endloop
  endfacet
  facet normal -0.222521 -0.974928 0.000000
    outer loop
      vertex 7.010454 -20.355159 19.000000
      vertex 8.871678 -20.779971 19.000000
      vertex 7.010454 -20.355159 29.000000
    endloop
  endfacet
  facet normal -0.900969 -0.433884 0.000000
    outer loop
      vertex 9.700000 -22.500000 29.000000
      vertex 8.871678 -20.779971 29.000000
      vertex 9.700000 -22.500000 19.000000
    endloop
  endfacet
  facet normal -0.900969 -0.433884 0.000000
    outer loop
      vertex 9.700000 -22.500000 19.000000
      vertex 8.871678 -20.779971 29.000000
      vertex 8.871678 -20.779971 19.000000
    endloop
  endfacet
  facet normal -0.900969 0.433884 -0.000000
    outer loop
      vertex 9.700000 -22.500000 29.000000
      vertex 9.700000 -22.500000 19.000000
      vertex 8.871678 -24.220029 29.000000
    endloop
  endfacet
  facet normal -0.900969 0.433884 -0.000000
    outer loop
      vertex 8.871678 -24.220029 29.000000
      vertex 9.700000 -22.500000 19.000000
      vertex 8.871678 -24.220029 19.000000
    endloop
  endfacet
  facet normal -0.222521 0.974928 -0.000000
    outer loop
      vertex 8.871678 -24.220029 29.000000
      vertex 8.871678 -24.220029 19.000000
      vertex 7.010454 -24.644841 29.000000
    endloop
  endfacet
  facet normal -0.222521 0.974928 -0.000000
    outer loop
      vertex 7.010454 -24.644841 29.000000
      vertex 8.871678 -24.220029 19.000000
      vertex 7.010454 -24.644841 19.000000
    endloop
  endfacet
  facet normal 0.623490 0.781832 -0.000000
    outer loop
      vertex 7.010454 -24.644841 29.000000
      vertex 7.010454 -24.644841 19.000000
      vertex 5.517868 -23.454544 29.000000
    endloop
  endfacet
  facet normal 0.623490 0.781832 -0.000000
    outer loop
      vertex 5.517868 -23.454544 29.000000
      vertex 7.010454 -24.644841 19.000000
      vertex 5.517868 -23.454544 19.000000
    endloop
  endfacet
  facet normal 0.623490 -0.781832 0.000000
    outer loop
      vertex 22.010454 -20.355159 19.000000
      vertex 22.010454 -20.355159 29.000000
      vertex 20.517868 -21.545456 29.000000
    endloop
  endfacet
  facet normal 0.623490 -0.781832 0.000000
    outer loop
      vertex 20.517868 -21.545456 19.000000
      vertex 22.010454 -20.355159 19.000000
      vertex 20.517868 -21.545456 29.000000
    endloop
  endfacet
  facet normal 1.000000 0.000000 0.000000
    outer loop
      vertex 20.517868 -21.545456 29.000000
      vertex 20.517868 -23.454544 29.000000
      vertex 20.517868 -23.454544 19.000000
    endloop
  endfacet
  facet normal 1.000000 -0.000000 0.000000
    outer loop
      vertex 20.517868 -21.545456 19.000000
      vertex 20.517868 -21.545456 29.000000
      vertex 20.517868 -23.454544 19.000000
    endloop
  endfacet
  facet normal -0.222521 -0.974928 0.000000
    outer loop
      vertex 23.871678 -20.779971 19.000000
      vertex 23.871678 -20.779971 29.000000
      vertex 22.010454 -20.355159 29.000000
    endloop
  endfacet
  facet normal -0.222521 -0.974928 0.000000
    outer loop
      vertex 22.010454 -20.355159 19.000000
      vertex 23.871678 -20.779971 19.000000
      vertex 22.010454 -20.355159 29.000000
    endloop
  endfacet
  facet normal -0.900969 -0.433884 0.000000
    outer loop
      vertex 24.700000 -22.500000 29.000000
      vertex 23.871678 -20.779971 29.000000
      vertex 24.700000 -22.500000 19.000000
    endloop
  endfacet
  facet normal -0.900969 -0.433884 0.000000
    outer loop
      vertex 24.700000 -22.500000 19.000000
      vertex 23.871678 -20.779971 29.000000
      vertex 23.871678 -20.779971 19.000000
    endloop
  endfacet
  facet normal -0.900969 0.433884 -0.000000
    outer loop
      vertex 24.700000 -22.500000 29.000000
      vertex 24.700000 -22.500000 19.000000
      vertex 23.871678 -24.220029 29.000000
    endloop
  endfacet
  facet normal -0.900969 0.433884 -0.000000
    outer loop
      vertex 23.871678 -24.220029 29.000000
      vertex 24.700000 -22.500000 19.000000
      vertex 23.871678 -24.220029 19.000000
    endloop
  endfacet
  facet normal -0.222521 0.974928 -0.000000
    outer loop
      vertex 23.871678 -24.220029 29.000000
      vertex 23.871678 -24.220029 19.000000
      vertex 22.010454 -24.644841 29.000000
    endloop
  endfacet
  facet normal -0.222521 0.974928 -0.000000
    outer loop
      vertex 22.010454 -24.644841 29.000000
      vertex 23.871678 -24.220029 19.000000
      vertex 22.010454 -24.644841 19.000000
    endloop
  endfacet
  facet normal 0.623490 0.781832 -0.000000
    outer loop
      vertex 22.010454 -24.644841 29.000000
      vertex 22.010454 -24.644841 19.000000
      vertex 20.517868 -23.454544 29.000000
    endloop
  endfacet
  facet normal 0.623490 0.781832 -0.000000
    outer loop
      vertex 20.517868 -23.454544 29.000000
      vertex 22.010454 -24.644841 19.000000
      vertex 20.517868 -23.454544 19.000000
    endloop
  endfacet
endsolid OpenSCAD_Model
