solid OpenSCAD_Model
  facet normal -1.000000 0.000000 0.000000
    outer loop
      vertex 10.000000 10.000000 7.000000
      vertex 10.000000 -52.000000 7.000000
      vertex 10.000000 10.000000 17.000000
    endloop
  endfacet
  facet normal -1.000000 0.000000 0.000000
    outer loop
      vertex 10.000000 10.000000 17.000000
      vertex 10.000000 -52.000000 7.000000
      vertex 10.000000 -52.000000 17.000000
    endloop
  endfacet
  facet normal -0.000000 -0.000000 -1.000000
    outer loop
      vertex 10.000000 10.000000 7.000000
      vertex 20.000000 10.000000 7.000000
      vertex 10.000000 -52.000000 7.000000
    endloop
  endfacet
  facet normal -0.000000 -0.000000 -1.000000
    outer loop
      vertex 10.000000 -52.000000 7.000000
      vertex 20.000000 10.000000 7.000000
      vertex 20.000000 -52.000000 7.000000
    endloop
  endfacet
  facet normal 0.000000 1.000000 0.000000
    outer loop
      vertex 10.000000 10.000000 7.000000
      vertex 10.000000 10.000000 17.000000
      vertex 20.000000 10.000000 7.000000
    endloop
  endfacet
  facet normal 0.000000 1.000000 0.000000
    outer loop
      vertex 20.000000 10.000000 7.000000
      vertex 10.000000 10.000000 17.000000
      vertex 20.000000 10.000000 17.000000
    endloop
  endfacet
  facet normal -0.000000 0.000000 1.000000
    outer loop
      vertex 11.500000 -42.000000 17.000000
      vertex 10.000000 10.000000 17.000000
      vertex 10.000000 -52.000000 17.000000
    endloop
  endfacet
  facet normal 0.000000 0.000000 1.000000
    outer loop
      vertex 11.500000 -42.000000 17.000000
      vertex 18.500000 -42.000000 17.000000
      vertex 20.000000 10.000000 17.000000
    endloop
  endfacet
  facet normal -0.000000 0.000000 1.000000
    outer loop
      vertex 20.000000 -52.000000 17.000000
      vertex 11.500000 -46.000000 17.000000
      vertex 10.000000 -52.000000 17.000000
    endloop
  endfacet
  facet normal -0.000000 0.000000 1.000000
    outer loop
      vertex 20.000000 10.000000 17.000000
      vertex 10.000000 10.000000 17.000000
      vertex 11.500000 -42.000000 17.000000
    endloop
  endfacet
  facet normal 0.000000 0.000000 1.000000
    outer loop
      vertex 20.000000 -52.000000 17.000000
      vertex 20.000000 10.000000 17.000000
      vertex 18.500000 -42.000000 17.000000
    endloop
  endfacet
  facet normal 0.000000 0.000000 1.000000
    outer loop
      vertex 20.000000 -52.000000 17.000000
      vertex 18.500000 -46.000000 17.000000
      vertex 11.500000 -46.000000 17.000000
    endloop
  endfacet
  facet normal 0.000000 0.000000 1.000000
    outer loop
      vertex 20.000000 -52.000000 17.000000
      vertex 18.500000 -42.000000 17.000000
      vertex 18.500000 -46.000000 17.000000
    endloop
  endfacet
  facet normal -0.000000 0.000000 1.000000
    outer loop
      vertex 11.500000 -46.000000 17.000000
      vertex 11.500000 -42.000000 17.000000
      vertex 10.000000 -52.000000 17.000000
    endloop
  endfacet
  facet normal 0.000000 -1.000000 0.000000
    outer loop
      vertex 13.373654 -52.000000 10.373654
      vertex 10.000000 -52.000000 7.000000
      vertex 20.000000 -52.000000 7.000000
    endloop
  endfacet
  facet normal 0.000000 -1.000000 0.000000
    outer loop
      vertex 13.373654 -52.000000 13.626346
      vertex 10.000000 -52.000000 17.000000
      vertex 12.700000 -52.000000 12.000000
    endloop
  endfacet
  facet normal 0.000000 -1.000000 0.000000
    outer loop
      vertex 15.000000 -52.000000 9.700000
      vertex 13.373654 -52.000000 10.373654
      vertex 20.000000 -52.000000 7.000000
    endloop
  endfacet
  facet normal 0.000000 -1.000000 0.000000
    outer loop
      vertex 10.000000 -52.000000 17.000000
      vertex 10.000000 -52.000000 7.000000
      vertex 13.373654 -52.000000 10.373654
    endloop
  endfacet
  facet normal 0.000000 -1.000000 0.000000
    outer loop
      vertex 10.000000 -52.000000 17.000000
      vertex 13.373654 -52.000000 10.373654
      vertex 12.700000 -52.000000 12.000000
    endloop
  endfacet
  facet normal 0.000000 -1.000000 0.000000
    outer loop
      vertex 20.000000 -52.000000 17.000000
      vertex 10.000000 -52.000000 17.000000
      vertex 13.373654 -52.000000 13.626346
    endloop
  endfacet
  facet normal 0.000000 -1.000000 0.000000
    outer loop
      vertex 16.626346 -52.000000 10.373654
      vertex 15.000000 -52.000000 9.700000
      vertex 20.000000 -52.000000 7.000000
    endloop
  endfacet
  facet normal 0.000000 -1.000000 0.000000
    outer loop
      vertex 20.000000 -52.000000 17.000000
      vertex 13.373654 -52.000000 13.626346
      vertex 15.000000 -52.000000 14.300000
    endloop
  endfacet
  facet normal 0.000000 -1.000000 0.000000
    outer loop
      vertex 20.000000 -52.000000 17.000000
      vertex 16.626346 -52.000000 13.626346
      vertex 20.000000 -52.000000 7.000000
    endloop
  endfacet
  facet normal 0.000000 -1.000000 0.000000
    outer loop
      vertex 20.000000 -52.000000 17.000000
      vertex 15.000000 -52.000000 14.300000
      vertex 16.626346 -52.000000 13.626346
    endloop
  endfacet
  facet normal 0.000000 -1.000000 0.000000
    outer loop
      vertex 16.626346 -52.000000 13.626346
      vertex 17.300000 -52.000000 12.000000
      vertex 20.000000 -52.000000 7.000000
    endloop
  endfacet
  facet normal 0.000000 -1.000000 0.000000
    outer loop
      vertex 17.300000 -52.000000 12.000000
      vertex 16.626346 -52.000000 10.373654
      vertex 20.000000 -52.000000 7.000000
    endloop
  endfacet
  facet normal 1.000000 0.000000 0.000000
    outer loop
      vertex 20.000000 -52.000000 7.000000
      vertex 20.000000 10.000000 7.000000
      vertex 20.000000 10.000000 17.000000
    endloop
  endfacet
  facet normal 1.000000 0.000000 -0.000000
    outer loop
      vertex 20.000000 -52.000000 17.000000
      vertex 20.000000 -52.000000 7.000000
      vertex 20.000000 10.000000 17.000000
    endloop
  endfacet
  facet normal 1.000000 0.000000 0.000000
    outer loop
      vertex 11.500000 -42.000000 17.000000
      vertex 11.500000 -46.000000 17.000000
      vertex 11.500000 -46.000000 8.500000
    endloop
  endfacet
  facet normal 1.000000 -0.000000 0.000000
    outer loop
      vertex 11.500000 -42.000000 8.500000
      vertex 11.500000 -42.000000 17.000000
      vertex 11.500000 -46.000000 8.500000
    endloop
  endfacet
  facet normal 0.000000 1.000000 0.000000
    outer loop
      vertex 13.373654 -46.000000 13.626346
      vertex 11.500000 -46.000000 17.000000
      vertex 15.000000 -46.000000 14.300000
    endloop
  endfacet
  facet normal 0.000000 1.000000 -0.000000
    outer loop
      vertex 15.000000 -46.000000 9.700000
      vertex 18.500000 -46.000000 8.500000
      vertex 11.500000 -46.000000 8.500000
    endloop
  endfacet
  facet normal 0.000000 1.000000 -0.000000
    outer loop
      vertex 17.300000 -46.000000 12.000000
      vertex 18.500000 -46.000000 8.500000
      vertex 16.626346 -46.000000 10.373654
    endloop
  endfacet
  facet normal 0.000000 1.000000 -0.000000
    outer loop
      vertex 12.700000 -46.000000 12.000000
      vertex 13.373654 -46.000000 10.373654
      vertex 11.500000 -46.000000 8.500000
    endloop
  endfacet
  facet normal 0.000000 1.000000 -0.000000
    outer loop
      vertex 13.373654 -46.000000 10.373654
      vertex 15.000000 -46.000000 9.700000
      vertex 11.500000 -46.000000 8.500000
    endloop
  endfacet
  facet normal 0.000000 1.000000 0.000000
    outer loop
      vertex 18.500000 -46.000000 17.000000
      vertex 18.500000 -46.000000 8.500000
      vertex 17.300000 -46.000000 12.000000
    endloop
  endfacet
  facet normal 0.000000 1.000000 0.000000
    outer loop
      vertex 18.500000 -46.000000 17.000000
      vertex 17.300000 -46.000000 12.000000
      vertex 16.626346 -46.000000 13.626346
    endloop
  endfacet
  facet normal 0.000000 1.000000 0.000000
    outer loop
      vertex 18.500000 -46.000000 17.000000
      vertex 16.626346 -46.000000 13.626346
      vertex 11.500000 -46.000000 17.000000
    endloop
  endfacet
  facet normal 0.000000 1.000000 0.000000
    outer loop
      vertex 16.626346 -46.000000 13.626346
      vertex 15.000000 -46.000000 14.300000
      vertex 11.500000 -46.000000 17.000000
    endloop
  endfacet
  facet normal 0.000000 1.000000 0.000000
    outer loop
      vertex 12.700000 -46.000000 12.000000
      vertex 11.500000 -46.000000 17.000000
      vertex 13.373654 -46.000000 13.626346
    endloop
  endfacet
  facet normal 0.000000 1.000000 -0.000000
    outer loop
      vertex 11.500000 -46.000000 17.000000
      vertex 12.700000 -46.000000 12.000000
      vertex 11.500000 -46.000000 8.500000
    endloop
  endfacet
  facet normal 0.000000 1.000000 -0.000000
    outer loop
      vertex 16.626346 -46.000000 10.373654
      vertex 18.500000 -46.000000 8.500000
      vertex 15.000000 -46.000000 9.700000
    endloop
  endfacet
  facet normal -1.000000 0.000000 0.000000
    outer loop
      vertex 18.500000 -46.000000 17.000000
      vertex 18.500000 -42.000000 17.000000
      vertex 18.500000 -46.000000 8.500000
    endloop
  endfacet
  facet normal -1.000000 -0.000000 0.000000
    outer loop
      vertex 18.500000 -46.000000 8.500000
      vertex 18.500000 -42.000000 17.000000
      vertex 18.500000 -42.000000 8.500000
    endloop
  endfacet
  facet normal 0.000000 -1.000000 -0.000000
    outer loop
      vertex 15.000000 -42.000000 14.300000
      vertex 18.500000 -42.000000 17.000000
      vertex 11.500000 -42.000000 17.000000
    endloop
  endfacet
  facet normal 0.000000 -1.000000 0.000000
    outer loop
      vertex 17.300000 -42.000000 12.000000
      vertex 16.626346 -42.000000 10.373654
      vertex 18.500000 -42.000000 8.500000
    endloop
  endfacet
  facet normal 0.000000 -1.000000 -0.000000
    outer loop
      vertex 11.500000 -42.000000 8.500000
      vertex 12.700000 -42.000000 12.000000
      vertex 11.500000 -42.000000 17.000000
    endloop
  endfacet
  facet normal 0.000000 -1.000000 -0.000000
    outer loop
      vertex 12.700000 -42.000000 12.000000
      vertex 13.373654 -42.000000 13.626346
      vertex 11.500000 -42.000000 17.000000
    endloop
  endfacet
  facet normal 0.000000 -1.000000 -0.000000
    outer loop
      vertex 16.626346 -42.000000 13.626346
      vertex 18.500000 -42.000000 17.000000
      vertex 15.000000 -42.000000 14.300000
    endloop
  endfacet
  facet normal 0.000000 -1.000000 0.000000
    outer loop
      vertex 16.626346 -42.000000 10.373654
      vertex 15.000000 -42.000000 9.700000
      vertex 18.500000 -42.000000 8.500000
    endloop
  endfacet
  facet normal 0.000000 -1.000000 -0.000000
    outer loop
      vertex 17.300000 -42.000000 12.000000
      vertex 18.500000 -42.000000 17.000000
      vertex 16.626346 -42.000000 13.626346
    endloop
  endfacet
  facet normal 0.000000 -1.000000 0.000000
    outer loop
      vertex 18.500000 -42.000000 8.500000
      vertex 18.500000 -42.000000 17.000000
      vertex 17.300000 -42.000000 12.000000
    endloop
  endfacet
  facet normal -0.000000 -1.000000 0.000000
    outer loop
      vertex 11.500000 -42.000000 8.500000
      vertex 18.500000 -42.000000 8.500000
      vertex 15.000000 -42.000000 9.700000
    endloop
  endfacet
  facet normal 0.000000 -1.000000 0.000000
    outer loop
      vertex 11.500000 -42.000000 8.500000
      vertex 13.373654 -42.000000 10.373654
      vertex 12.700000 -42.000000 12.000000
    endloop
  endfacet
  facet normal 0.000000 -1.000000 0.000000
    outer loop
      vertex 11.500000 -42.000000 8.500000
      vertex 15.000000 -42.000000 9.700000
      vertex 13.373654 -42.000000 10.373654
    endloop
  endfacet
  facet normal 0.000000 -1.000000 -0.000000
    outer loop
      vertex 13.373654 -42.000000 13.626346
      vertex 15.000000 -42.000000 14.300000
      vertex 11.500000 -42.000000 17.000000
    endloop
  endfacet
  facet normal 0.923880 0.000000 0.382683
    outer loop
      vertex 12.700000 -52.000000 12.000000
      vertex 13.373654 -52.000000 10.373654
      vertex 13.373654 -46.000000 10.373654
    endloop
  endfacet
  facet normal 0.923880 -0.000000 0.382683
    outer loop
      vertex 12.700000 -46.000000 12.000000
      vertex 12.700000 -52.000000 12.000000
      vertex 13.373654 -46.000000 10.373654
    endloop
  endfacet
  facet normal 0.382683 0.000000 0.923880
    outer loop
      vertex 13.373654 -52.000000 10.373654
      vertex 15.000000 -52.000000 9.700000
      vertex 15.000000 -46.000000 9.700000
    endloop
  endfacet
  facet normal 0.382683 -0.000000 0.923880
    outer loop
      vertex 13.373654 -46.000000 10.373654
      vertex 13.373654 -52.000000 10.373654
      vertex 15.000000 -46.000000 9.700000
    endloop
  endfacet
  facet normal -0.382683 0.000000 0.923880
    outer loop
      vertex 15.000000 -52.000000 9.700000
      vertex 16.626346 -52.000000 10.373654
      vertex 16.626346 -46.000000 10.373654
    endloop
  endfacet
  facet normal -0.382683 0.000000 0.923880
    outer loop
      vertex 15.000000 -46.000000 9.700000
      vertex 15.000000 -52.000000 9.700000
      vertex 16.626346 -46.000000 10.373654
    endloop
  endfacet
  facet normal -0.923880 0.000000 0.382683
    outer loop
      vertex 17.300000 -52.000000 12.000000
      vertex 17.300000 -46.000000 12.000000
      vertex 16.626346 -52.000000 10.373654
    endloop
  endfacet
  facet normal -0.923880 0.000000 0.382683
    outer loop
      vertex 16.626346 -52.000000 10.373654
      vertex 17.300000 -46.000000 12.000000
      vertex 16.626346 -46.000000 10.373654
    endloop
  endfacet
  facet normal -0.923880 -0.000000 -0.382683
    outer loop
      vertex 17.300000 -52.000000 12.000000
      vertex 16.626346 -52.000000 13.626346
      vertex 17.300000 -46.000000 12.000000
    endloop
  endfacet
  facet normal -0.923880 0.000000 -0.382683
    outer loop
      vertex 17.300000 -46.000000 12.000000
      vertex 16.626346 -52.000000 13.626346
      vertex 16.626346 -46.000000 13.626346
    endloop
  endfacet
  facet normal -0.382683 -0.000000 -0.923880
    outer loop
      vertex 16.626346 -52.000000 13.626346
      vertex 15.000000 -52.000000 14.300000
      vertex 16.626346 -46.000000 13.626346
    endloop
  endfacet
  facet normal -0.382683 0.000000 -0.923880
    outer loop
      vertex 16.626346 -46.000000 13.626346
      vertex 15.000000 -52.000000 14.300000
      vertex 15.000000 -46.000000 14.300000
    endloop
  endfacet
  facet normal 0.382683 0.000000 -0.923880
    outer loop
      vertex 15.000000 -52.000000 14.300000
      vertex 13.373654 -52.000000 13.626346
      vertex 15.000000 -46.000000 14.300000
    endloop
  endfacet
  facet normal 0.382683 0.000000 -0.923880
    outer loop
      vertex 15.000000 -46.000000 14.300000
      vertex 13.373654 -52.000000 13.626346
      vertex 13.373654 -46.000000 13.626346
    endloop
  endfacet
  facet normal 0.923880 0.000000 -0.382683
    outer loop
      vertex 13.373654 -46.000000 13.626346
      vertex 13.373654 -52.000000 13.626346
      vertex 12.700000 -52.000000 12.000000
    endloop
  endfacet
  facet normal 0.923880 0.000000 -0.382683
    outer loop
      vertex 12.700000 -46.000000 12.000000
      vertex 13.373654 -46.000000 13.626346
      vertex 12.700000 -52.000000 12.000000
    endloop
  endfacet
  facet normal 0.000000 0.000000 1.000000
    outer loop
      vertex 11.500000 -46.000000 8.500000
      vertex 18.500000 -46.000000 8.500000
      vertex 18.500000 -42.000000 8.500000
    endloop
  endfacet
  facet normal 0.000000 -0.000000 1.000000
    outer loop
      vertex 11.500000 -42.000000 8.500000
      vertex 11.500000 -46.000000 8.500000
      vertex 18.500000 -42.000000 8.500000
    endloop
  endfacet
  facet normal 0.923880 -0.000000 -0.382683
    outer loop
      vertex 13.373654 -25.000000 13.626346
      vertex 13.373654 -42.000000 13.626346
      vertex 12.700000 -42.000000 12.000000
    endloop
  endfacet
  facet normal 0.923880 -0.000000 -0.382683
    outer loop
      vertex 12.700000 -25.000000 12.000000
      vertex 13.373654 -25.000000 13.626346
      vertex 12.700000 -42.000000 12.000000
    endloop
  endfacet
  facet normal 0.923880 0.000000 0.382683
    outer loop
      vertex 12.700000 -42.000000 12.000000
      vertex 13.373654 -42.000000 10.373654
      vertex 13.373654 -25.000000 10.373654
    endloop
  endfacet
  facet normal 0.923880 0.000000 0.382683
    outer loop
      vertex 12.700000 -25.000000 12.000000
      vertex 12.700000 -42.000000 12.000000
      vertex 13.373654 -25.000000 10.373654
    endloop
  endfacet
  facet normal 0.382683 0.000000 0.923880
    outer loop
      vertex 13.373654 -42.000000 10.373654
      vertex 15.000000 -42.000000 9.700000
      vertex 15.000000 -25.000000 9.700000
    endloop
  endfacet
  facet normal 0.382683 0.000000 0.923880
    outer loop
      vertex 13.373654 -25.000000 10.373654
      vertex 13.373654 -42.000000 10.373654
      vertex 15.000000 -25.000000 9.700000
    endloop
  endfacet
  facet normal -0.382683 0.000000 0.923880
    outer loop
      vertex 15.000000 -42.000000 9.700000
      vertex 16.626346 -42.000000 10.373654
      vertex 16.626346 -25.000000 10.373654
    endloop
  endfacet
  facet normal -0.382683 0.000000 0.923880
    outer loop
      vertex 15.000000 -25.000000 9.700000
      vertex 15.000000 -42.000000 9.700000
      vertex 16.626346 -25.000000 10.373654
    endloop
  endfacet
  facet normal -0.923880 0.000000 0.382683
    outer loop
      vertex 17.300000 -42.000000 12.000000
      vertex 17.300000 -25.000000 12.000000
      vertex 16.626346 -42.000000 10.373654
    endloop
  endfacet
  facet normal -0.923880 0.000000 0.382683
    outer loop
      vertex 16.626346 -42.000000 10.373654
      vertex 17.300000 -25.000000 12.000000
      vertex 16.626346 -25.000000 10.373654
    endloop
  endfacet
  facet normal -0.923880 -0.000000 -0.382683
    outer loop
      vertex 17.300000 -42.000000 12.000000
      vertex 16.626346 -42.000000 13.626346
      vertex 17.300000 -25.000000 12.000000
    endloop
  endfacet
  facet normal -0.923880 -0.000000 -0.382683
    outer loop
      vertex 17.300000 -25.000000 12.000000
      vertex 16.626346 -42.000000 13.626346
      vertex 16.626346 -25.000000 13.626346
    endloop
  endfacet
  facet normal -0.382683 -0.000000 -0.923880
    outer loop
      vertex 16.626346 -42.000000 13.626346
      vertex 15.000000 -42.000000 14.300000
      vertex 16.626346 -25.000000 13.626346
    endloop
  endfacet
  facet normal -0.382683 0.000000 -0.923880
    outer loop
      vertex 16.626346 -25.000000 13.626346
      vertex 15.000000 -42.000000 14.300000
      vertex 15.000000 -25.000000 14.300000
    endloop
  endfacet
  facet normal 0.382683 0.000000 -0.923880
    outer loop
      vertex 15.000000 -42.000000 14.300000
      vertex 13.373654 -42.000000 13.626346
      vertex 15.000000 -25.000000 14.300000
    endloop
  endfacet
  facet normal 0.382683 -0.000000 -0.923880
    outer loop
      vertex 15.000000 -25.000000 14.300000
      vertex 13.373654 -42.000000 13.626346
      vertex 13.373654 -25.000000 13.626346
    endloop
  endfacet
  facet normal 0.000000 -1.000000 0.000000
    outer loop
      vertex 13.373654 -25.000000 10.373654
      vertex 15.000000 -25.000000 9.700000
      vertex 16.626346 -25.000000 10.373654
    endloop
  endfacet
  facet normal 0.000000 -1.000000 0.000000
    outer loop
      vertex 16.626346 -25.000000 13.626346
      vertex 13.373654 -25.000000 10.373654
      vertex 17.300000 -25.000000 12.000000
    endloop
  endfacet
  facet normal 0.000000 -1.000000 0.000000
    outer loop
      vertex 17.300000 -25.000000 12.000000
      vertex 13.373654 -25.000000 10.373654
      vertex 16.626346 -25.000000 10.373654
    endloop
  endfacet
  facet normal 0.000000 -1.000000 0.000000
    outer loop
      vertex 15.000000 -25.000000 14.300000
      vertex 13.373654 -25.000000 10.373654
      vertex 16.626346 -25.000000 13.626346
    endloop
  endfacet
  facet normal -0.000000 -1.000000 0.000000
    outer loop
      vertex 13.373654 -25.000000 13.626346
      vertex 13.373654 -25.000000 10.373654
      vertex 15.000000 -25.000000 14.300000
    endloop
  endfacet
  facet normal -0.000000 -1.000000 0.000000
    outer loop
      vertex 12.700000 -25.000000 12.000000
      vertex 13.373654 -25.000000 10.373654
      vertex 13.373654 -25.000000 13.626346
    endloop
  endfacet
endsolid OpenSCAD_Model
