solid OpenSCAD_Model
  facet normal -1 0 -0
    outer loop
      vertex 10 10 7
      vertex 10 -52 7
      vertex 10 10 17
    endloop
  endfacet
  facet normal -1 0 0
    outer loop
      vertex 10 10 17
      vertex 10 -52 7
      vertex 10 -52 17
    endloop
  endfacet
  facet normal -0 -2.29207e-16 -1
    outer loop
      vertex 10 10 7
      vertex 20 10 7
      vertex 10 -52 7
    endloop
  endfacet
  facet normal -0 -2.29207e-16 -1
    outer loop
      vertex 10 -52 7
      vertex 20 10 7
      vertex 20 -52 7
    endloop
  endfacet
  facet normal 0 1 -3.55271e-16
    outer loop
      vertex 10 10 7
      vertex 10 10 17
      vertex 20 10 7
    endloop
  endfacet
  facet normal 0 1 -3.55271e-16
    outer loop
      vertex 20 10 7
      vertex 10 10 17
      vertex 20 10 17
    endloop
  endfacet
  facet normal 8.40427e-16 2.29207e-16 1
    outer loop
      vertex 11.5 -42 17
      vertex 10 10 17
      vertex 10 -52 17
    endloop
  endfacet
  facet normal 0 2.04964e-16 1
    outer loop
      vertex 11.5 -42 17
      vertex 18.5 -42 17
      vertex 20 10 17
    endloop
  endfacet
  facet normal -0 5.92119e-16 1
    outer loop
      vertex 20 -52 17
      vertex 11.5 -46 17
      vertex 10 -52 17
    endloop
  endfacet
  facet normal -0 2.04964e-16 1
    outer loop
      vertex 20 10 17
      vertex 10 10 17
      vertex 11.5 -42 17
    endloop
  endfacet
  facet normal -8.40427e-16 2.29207e-16 1
    outer loop
      vertex 20 -52 17
      vertex 20 10 17
      vertex 18.5 -42 17
    endloop
  endfacet
  facet normal -3.1971e-32 5.92119e-16 1
    outer loop
      vertex 20 -52 17
      vertex 18.5 -46 17
      vertex 11.5 -46 17
    endloop
  endfacet
  facet normal -2.36848e-15 0 1
    outer loop
      vertex 20 -52 17
      vertex 18.5 -42 17
      vertex 18.5 -46 17
    endloop
  endfacet
  facet normal 2.36848e-15 0 1
    outer loop
      vertex 11.5 -46 17
      vertex 11.5 -42 17
      vertex 10 -52 17
    endloop
  endfacet
  facet normal 0 -1 0
    outer loop
      vertex 13.3737 -52 10.3737
      vertex 10 -52 7
      vertex 20 -52 7
    endloop
  endfacet
  facet normal 0 -1 0
    outer loop
      vertex 13.3737 -52 13.6263
      vertex 10 -52 17
      vertex 12.7 -52 12
    endloop
  endfacet
  facet normal 0 -1 0
    outer loop
      vertex 15 -52 9.7
      vertex 13.3737 -52 10.3737
      vertex 20 -52 7
    endloop
  endfacet
  facet normal 0 -1 0
    outer loop
      vertex 10 -52 17
      vertex 10 -52 7
      vertex 13.3737 -52 10.3737
    endloop
  endfacet
  facet normal 0 -1 0
    outer loop
      vertex 10 -52 17
      vertex 13.3737 -52 10.3737
      vertex 12.7 -52 12
    endloop
  endfacet
  facet normal 0 -1 0
    outer loop
      vertex 20 -52 17
      vertex 10 -52 17
      vertex 13.3737 -52 13.6263
    endloop
  endfacet
  facet normal 0 -1 0
    outer loop
      vertex 16.6263 -52 10.3737
      vertex 15 -52 9.7
      vertex 20 -52 7
    endloop
  endfacet
  facet normal 0 -1 0
    outer loop
      vertex 20 -52 17
      vertex 13.3737 -52 13.6263
      vertex 15 -52 14.3
    endloop
  endfacet
  facet normal 0 -1 0
    outer loop
      vertex 20 -52 17
      vertex 16.6263 -52 13.6263
      vertex 20 -52 7
    endloop
  endfacet
  facet normal 0 -1 0
    outer loop
      vertex 20 -52 17
      vertex 15 -52 14.3
      vertex 16.6263 -52 13.6263
    endloop
  endfacet
  facet normal 0 -1 0
    outer loop
      vertex 16.6263 -52 13.6263
      vertex 17.3 -52 12
      vertex 20 -52 7
    endloop
  endfacet
  facet normal 0 -1 0
    outer loop
      vertex 17.3 -52 12
      vertex 16.6263 -52 10.3737
      vertex 20 -52 7
    endloop
  endfacet
  facet normal 1 0 0
    outer loop
      vertex 20 -52 7
      vertex 20 10 7
      vertex 20 10 17
    endloop
  endfacet
  facet normal 1 0 -0
    outer loop
      vertex 20 -52 17
      vertex 20 -52 7
      vertex 20 10 17
    endloop
  endfacet
  facet normal 1 0 0
    outer loop
      vertex 11.5 -42 17
      vertex 11.5 -46 17
      vertex 11.5 -46 8.5
    endloop
  endfacet
  facet normal 1 -0 0
    outer loop
      vertex 11.5 -42 8.5
      vertex 11.5 -42 17
      vertex 11.5 -46 8.5
    endloop
  endfacet
  facet normal 0 1 0
    outer loop
      vertex 13.3737 -46 13.6263
      vertex 11.5 -46 17
      vertex 15 -46 14.3
    endloop
  endfacet
  facet normal 0 1 -0
    outer loop
      vertex 15 -46 9.7
      vertex 18.5 -46 8.5
      vertex 11.5 -46 8.5
    endloop
  endfacet
  facet normal 0 1 -0
    outer loop
      vertex 17.3 -46 12
      vertex 18.5 -46 8.5
      vertex 16.6263 -46 10.3737
    endloop
  endfacet
  facet normal 0 1 -0
    outer loop
      vertex 12.7 -46 12
      vertex 13.3737 -46 10.3737
      vertex 11.5 -46 8.5
    endloop
  endfacet
  facet normal 0 1 -0
    outer loop
      vertex 13.3737 -46 10.3737
      vertex 15 -46 9.7
      vertex 11.5 -46 8.5
    endloop
  endfacet
  facet normal 0 1 0
    outer loop
      vertex 18.5 -46 17
      vertex 18.5 -46 8.5
      vertex 17.3 -46 12
    endloop
  endfacet
  facet normal 0 1 0
    outer loop
      vertex 18.5 -46 17
      vertex 17.3 -46 12
      vertex 16.6263 -46 13.6263
    endloop
  endfacet
  facet normal 0 1 0
    outer loop
      vertex 18.5 -46 17
      vertex 16.6263 -46 13.6263
      vertex 11.5 -46 17
    endloop
  endfacet
  facet normal 0 1 0
    outer loop
      vertex 16.6263 -46 13.6263
      vertex 15 -46 14.3
      vertex 11.5 -46 17
    endloop
  endfacet
  facet normal 0 1 0
    outer loop
      vertex 12.7 -46 12
      vertex 11.5 -46 17
      vertex 13.3737 -46 13.6263
    endloop
  endfacet
  facet normal 0 1 -0
    outer loop
      vertex 11.5 -46 17
      vertex 12.7 -46 12
      vertex 11.5 -46 8.5
    endloop
  endfacet
  facet normal 0 1 -0
    outer loop
      vertex 16.6263 -46 10.3737
      vertex 18.5 -46 8.5
      vertex 15 -46 9.7
    endloop
  endfacet
  facet normal -1 0 0
    outer loop
      vertex 18.5 -46 17
      vertex 18.5 -42 17
      vertex 18.5 -46 8.5
    endloop
  endfacet
  facet normal -1 -0 0
    outer loop
      vertex 18.5 -46 8.5
      vertex 18.5 -42 17
      vertex 18.5 -42 8.5
    endloop
  endfacet
  facet normal 0 -1 -0
    outer loop
      vertex 15 -42 14.3
      vertex 18.5 -42 17
      vertex 11.5 -42 17
    endloop
  endfacet
  facet normal 0 -1 0
    outer loop
      vertex 17.3 -42 12
      vertex 16.6263 -42 10.3737
      vertex 18.5 -42 8.5
    endloop
  endfacet
  facet normal 0 -1 -0
    outer loop
      vertex 11.5 -42 8.5
      vertex 12.7 -42 12
      vertex 11.5 -42 17
    endloop
  endfacet
  facet normal 0 -1 -0
    outer loop
      vertex 12.7 -42 12
      vertex 13.3737 -42 13.6263
      vertex 11.5 -42 17
    endloop
  endfacet
  facet normal 0 -1 -0
    outer loop
      vertex 16.6263 -42 13.6263
      vertex 18.5 -42 17
      vertex 15 -42 14.3
    endloop
  endfacet
  facet normal 0 -1 0
    outer loop
      vertex 16.6263 -42 10.3737
      vertex 15 -42 9.7
      vertex 18.5 -42 8.5
    endloop
  endfacet
  facet normal 0 -1 -0
    outer loop
      vertex 17.3 -42 12
      vertex 18.5 -42 17
      vertex 16.6263 -42 13.6263
    endloop
  endfacet
  facet normal 0 -1 0
    outer loop
      vertex 18.5 -42 8.5
      vertex 18.5 -42 17
      vertex 17.3 -42 12
    endloop
  endfacet
  facet normal -0 -1 0
    outer loop
      vertex 11.5 -42 8.5
      vertex 18.5 -42 8.5
      vertex 15 -42 9.7
    endloop
  endfacet
  facet normal 0 -1 0
    outer loop
      vertex 11.5 -42 8.5
      vertex 13.3737 -42 10.3737
      vertex 12.7 -42 12
    endloop
  endfacet
  facet normal 0 -1 0
    outer loop
      vertex 11.5 -42 8.5
      vertex 15 -42 9.7
      vertex 13.3737 -42 10.3737
    endloop
  endfacet
  facet normal 0 -1 -0
    outer loop
      vertex 13.3737 -42 13.6263
      vertex 15 -42 14.3
      vertex 11.5 -42 17
    endloop
  endfacet
  facet normal 0.382683 2.8207e-16 0.92388
    outer loop
      vertex 13.3737 -52 10.3737
      vertex 15 -52 9.7
      vertex 15 -46 9.7
    endloop
  endfacet
  facet normal 0.382683 2.73523e-16 0.92388
    outer loop
      vertex 13.3737 -46 10.3737
      vertex 13.3737 -52 10.3737
      vertex 15 -46 9.7
    endloop
  endfacet
  facet normal 0.92388 1.06214e-16 0.382683
    outer loop
      vertex 12.7 -52 12
      vertex 13.3737 -52 10.3737
      vertex 13.3737 -46 10.3737
    endloop
  endfacet
  facet normal 0.92388 1.13297e-16 0.382683
    outer loop
      vertex 12.7 -46 12
      vertex 12.7 -52 12
      vertex 13.3737 -46 10.3737
    endloop
  endfacet
  facet normal -0.382683 2.69252e-16 0.92388
    outer loop
      vertex 15 -52 9.7
      vertex 16.6263 -52 10.3737
      vertex 16.6263 -46 10.3737
    endloop
  endfacet
  facet normal -0.382683 2.73523e-16 0.92388
    outer loop
      vertex 15 -46 9.7
      vertex 15 -52 9.7
      vertex 16.6263 -46 10.3737
    endloop
  endfacet
  facet normal -0.92388 1.13297e-16 0.382683
    outer loop
      vertex 17.3 -52 12
      vertex 17.3 -46 12
      vertex 16.6263 -52 10.3737
    endloop
  endfacet
  facet normal -0.92388 1.13297e-16 0.382683
    outer loop
      vertex 16.6263 -52 10.3737
      vertex 17.3 -46 12
      vertex 16.6263 -46 10.3737
    endloop
  endfacet
  facet normal -0.92388 -1.13297e-16 -0.382683
    outer loop
      vertex 17.3 -52 12
      vertex 16.6263 -52 13.6263
      vertex 17.3 -46 12
    endloop
  endfacet
  facet normal -0.92388 -1.06214e-16 -0.382683
    outer loop
      vertex 17.3 -46 12
      vertex 16.6263 -52 13.6263
      vertex 16.6263 -46 13.6263
    endloop
  endfacet
  facet normal -0.382683 -2.73523e-16 -0.92388
    outer loop
      vertex 16.6263 -52 13.6263
      vertex 15 -52 14.3
      vertex 16.6263 -46 13.6263
    endloop
  endfacet
  facet normal -0.382683 -2.69246e-16 -0.92388
    outer loop
      vertex 16.6263 -46 13.6263
      vertex 15 -52 14.3
      vertex 15 -46 14.3
    endloop
  endfacet
  facet normal 0.382683 -2.73523e-16 -0.92388
    outer loop
      vertex 15 -52 14.3
      vertex 13.3737 -52 13.6263
      vertex 15 -46 14.3
    endloop
  endfacet
  facet normal 0.382683 -2.8207e-16 -0.92388
    outer loop
      vertex 15 -46 14.3
      vertex 13.3737 -52 13.6263
      vertex 13.3737 -46 13.6263
    endloop
  endfacet
  facet normal 0.92388 -1.13297e-16 -0.382683
    outer loop
      vertex 13.3737 -46 13.6263
      vertex 13.3737 -52 13.6263
      vertex 12.7 -52 12
    endloop
  endfacet
  facet normal 0.92388 -1.13297e-16 -0.382683
    outer loop
      vertex 12.7 -46 12
      vertex 13.3737 -46 13.6263
      vertex 12.7 -52 12
    endloop
  endfacet
  facet normal 0 0 1
    outer loop
      vertex 11.5 -46 8.5
      vertex 18.5 -46 8.5
      vertex 18.5 -42 8.5
    endloop
  endfacet
  facet normal 0 -0 1
    outer loop
      vertex 11.5 -42 8.5
      vertex 11.5 -46 8.5
      vertex 18.5 -42 8.5
    endloop
  endfacet
  facet normal 0.92388 -7.99743e-17 -0.382683
    outer loop
      vertex 13.3737 -25 13.6263
      vertex 13.3737 -42 13.6263
      vertex 12.7 -42 12
    endloop
  endfacet
  facet normal 0.92388 -7.99743e-17 -0.382683
    outer loop
      vertex 12.7 -25 12
      vertex 13.3737 -25 13.6263
      vertex 12.7 -42 12
    endloop
  endfacet
  facet normal 0.92388 7.96627e-17 0.382683
    outer loop
      vertex 12.7 -42 12
      vertex 13.3737 -42 10.3737
      vertex 13.3737 -25 10.3737
    endloop
  endfacet
  facet normal 0.92388 7.99743e-17 0.382683
    outer loop
      vertex 12.7 -25 12
      vertex 12.7 -42 12
      vertex 13.3737 -25 10.3737
    endloop
  endfacet
  facet normal 0.382683 1.92321e-16 0.92388
    outer loop
      vertex 13.3737 -42 10.3737
      vertex 15 -42 9.7
      vertex 15 -25 9.7
    endloop
  endfacet
  facet normal 0.382683 1.93075e-16 0.92388
    outer loop
      vertex 13.3737 -25 10.3737
      vertex 13.3737 -42 10.3737
      vertex 15 -25 9.7
    endloop
  endfacet
  facet normal -0.382683 1.92321e-16 0.92388
    outer loop
      vertex 15 -42 9.7
      vertex 16.6263 -42 10.3737
      vertex 16.6263 -25 10.3737
    endloop
  endfacet
  facet normal -0.382683 1.93075e-16 0.92388
    outer loop
      vertex 15 -25 9.7
      vertex 15 -42 9.7
      vertex 16.6263 -25 10.3737
    endloop
  endfacet
  facet normal -0.92388 7.99743e-17 0.382683
    outer loop
      vertex 17.3 -42 12
      vertex 17.3 -25 12
      vertex 16.6263 -42 10.3737
    endloop
  endfacet
  facet normal -0.92388 7.99743e-17 0.382683
    outer loop
      vertex 16.6263 -42 10.3737
      vertex 17.3 -25 12
      vertex 16.6263 -25 10.3737
    endloop
  endfacet
  facet normal -0.92388 -7.99743e-17 -0.382683
    outer loop
      vertex 17.3 -42 12
      vertex 16.6263 -42 13.6263
      vertex 17.3 -25 12
    endloop
  endfacet
  facet normal -0.92388 -7.96606e-17 -0.382683
    outer loop
      vertex 17.3 -25 12
      vertex 16.6263 -42 13.6263
      vertex 16.6263 -25 13.6263
    endloop
  endfacet
  facet normal -0.382683 -1.93075e-16 -0.92388
    outer loop
      vertex 16.6263 -42 13.6263
      vertex 15 -42 14.3
      vertex 16.6263 -25 13.6263
    endloop
  endfacet
  facet normal -0.382683 -1.92321e-16 -0.92388
    outer loop
      vertex 16.6263 -25 13.6263
      vertex 15 -42 14.3
      vertex 15 -25 14.3
    endloop
  endfacet
  facet normal 0.382683 -1.93075e-16 -0.92388
    outer loop
      vertex 15 -42 14.3
      vertex 13.3737 -42 13.6263
      vertex 15 -25 14.3
    endloop
  endfacet
  facet normal 0.382683 -1.92321e-16 -0.92388
    outer loop
      vertex 15 -25 14.3
      vertex 13.3737 -42 13.6263
      vertex 13.3737 -25 13.6263
    endloop
  endfacet
  facet normal 0 -1 0
    outer loop
      vertex 13.3737 -25 10.3737
      vertex 15 -25 9.7
      vertex 16.6263 -25 10.3737
    endloop
  endfacet
  facet normal 0 -1 0
    outer loop
      vertex 16.6263 -25 13.6263
      vertex 13.3737 -25 10.3737
      vertex 17.3 -25 12
    endloop
  endfacet
  facet normal 0 -1 0
    outer loop
      vertex 17.3 -25 12
      vertex 13.3737 -25 10.3737
      vertex 16.6263 -25 10.3737
    endloop
  endfacet
  facet normal 0 -1 0
    outer loop
      vertex 15 -25 14.3
      vertex 13.3737 -25 10.3737
      vertex 16.6263 -25 13.6263
    endloop
  endfacet
  facet normal -0 -1 0
    outer loop
      vertex 13.3737 -25 13.6263
      vertex 13.3737 -25 10.3737
      vertex 15 -25 14.3
    endloop
  endfacet
  facet normal -0 -1 0
    outer loop
      vertex 12.7 -25 12
      vertex 13.3737 -25 10.3737
      vertex 13.3737 -25 13.6263
    endloop
  endfacet
endsolid OpenSCAD_Model
