solid OpenSCAD_Model
  facet normal -1 0 -0
    outer loop
      vertex 0 0 0
      vertex 0 -45 9.99201e-15
      vertex 0 1.55431e-15 7
    endloop
  endfacet
  facet normal -1 0 0
    outer loop
      vertex 0 -26.5 7
      vertex 0 -45 9.99201e-15
      vertex 0 -45 7
    endloop
  endfacet
  facet normal -1 0 0
    outer loop
      vertex 0 1.55431e-15 7
      vertex 0 -45 9.99201e-15
      vertex 0 -18.5 7
    endloop
  endfacet
  facet normal -1 -0 0
    outer loop
      vertex 0 -26.5 7
      vertex 0 -26.5 20
      vertex 0 -18.5 7
    endloop
  endfacet
  facet normal -1 0 0
    outer loop
      vertex 0 -26.5 7
      vertex 0 -18.5 7
      vertex 0 -45 9.99201e-15
    endloop
  endfacet
  facet normal -1 0 -0
    outer loop
      vertex 0 -18.5 7
      vertex 0 -26.5 20
      vertex 0 -18.5 20
    endloop
  endfacet
  facet normal 0 -2.22045e-16 -1
    outer loop
      vertex 8.87168 -24.22 5.37793e-15
      vertex 30 0 0
      vertex 0 -45 9.99201e-15
    endloop
  endfacet
  facet normal 0 -2.22045e-16 -1
    outer loop
      vertex 24.7 -22.5 4.996e-15
      vertex 30 0 0
      vertex 30 -45 9.99201e-15
    endloop
  endfacet
  facet normal -0 -2.22045e-16 -1
    outer loop
      vertex 0 0 0
      vertex 30 0 0
      vertex 5.51787 -21.5455 4.78405e-15
    endloop
  endfacet
  facet normal 0 -2.22045e-16 -1
    outer loop
      vertex 0 0 0
      vertex 5.51787 -21.5455 4.78405e-15
      vertex 0 -45 9.99201e-15
    endloop
  endfacet
  facet normal 0 -2.22045e-16 -1
    outer loop
      vertex 22.0105 -24.6448 5.47225e-15
      vertex 30 -45 9.99201e-15
      vertex 20.5179 -23.4545 5.20795e-15
    endloop
  endfacet
  facet normal 0 -2.22045e-16 -1
    outer loop
      vertex 5.51787 -21.5455 4.78405e-15
      vertex 5.51787 -23.4545 5.20795e-15
      vertex 0 -45 9.99201e-15
    endloop
  endfacet
  facet normal 5.59059e-34 -2.22045e-16 -1
    outer loop
      vertex 7.01045 -20.3552 4.51975e-15
      vertex 30 0 0
      vertex 8.87168 -20.78 4.61408e-15
    endloop
  endfacet
  facet normal 0 -2.22045e-16 -1
    outer loop
      vertex 5.51787 -23.4545 5.20795e-15
      vertex 7.01045 -24.6448 5.47225e-15
      vertex 0 -45 9.99201e-15
    endloop
  endfacet
  facet normal 0 -2.22045e-16 -1
    outer loop
      vertex 9.7 -22.5 4.996e-15
      vertex 30 0 0
      vertex 8.87168 -24.22 5.37793e-15
    endloop
  endfacet
  facet normal 0 -2.22045e-16 -1
    outer loop
      vertex 7.01045 -24.6448 5.47225e-15
      vertex 8.87168 -24.22 5.37793e-15
      vertex 0 -45 9.99201e-15
    endloop
  endfacet
  facet normal -1.16263e-31 -2.22045e-16 -1
    outer loop
      vertex 5.51787 -21.5455 4.78405e-15
      vertex 30 0 0
      vertex 7.01045 -20.3552 4.51975e-15
    endloop
  endfacet
  facet normal 0 -2.22045e-16 -1
    outer loop
      vertex 0 -45 9.99201e-15
      vertex 30 0 0
      vertex 20.5179 -21.5455 4.78405e-15
    endloop
  endfacet
  facet normal 0 -2.22045e-16 -1
    outer loop
      vertex 0 -45 9.99201e-15
      vertex 20.5179 -21.5455 4.78405e-15
      vertex 20.5179 -23.4545 5.20795e-15
    endloop
  endfacet
  facet normal -0 -2.22045e-16 -1
    outer loop
      vertex 0 -45 9.99201e-15
      vertex 20.5179 -23.4545 5.20795e-15
      vertex 30 -45 9.99201e-15
    endloop
  endfacet
  facet normal 0 -2.22045e-16 -1
    outer loop
      vertex 23.8717 -20.78 4.61408e-15
      vertex 30 0 0
      vertex 24.7 -22.5 4.996e-15
    endloop
  endfacet
  facet normal 0 -2.22045e-16 -1
    outer loop
      vertex 22.0105 -20.3552 4.51975e-15
      vertex 30 0 0
      vertex 23.8717 -20.78 4.61408e-15
    endloop
  endfacet
  facet normal 0 -2.22045e-16 -1
    outer loop
      vertex 22.0105 -24.6448 5.47225e-15
      vertex 23.8717 -24.22 5.37793e-15
      vertex 30 -45 9.99201e-15
    endloop
  endfacet
  facet normal 0 -2.22045e-16 -1
    outer loop
      vertex 23.8717 -24.22 5.37793e-15
      vertex 24.7 -22.5 4.996e-15
      vertex 30 -45 9.99201e-15
    endloop
  endfacet
  facet normal 0 -2.22045e-16 -1
    outer loop
      vertex 20.5179 -21.5455 4.78405e-15
      vertex 30 0 0
      vertex 22.0105 -20.3552 4.51975e-15
    endloop
  endfacet
  facet normal -7.03611e-33 -2.22045e-16 -1
    outer loop
      vertex 8.87168 -20.78 4.61408e-15
      vertex 30 0 0
      vertex 9.7 -22.5 4.996e-15
    endloop
  endfacet
  facet normal 0 1 -2.22045e-16
    outer loop
      vertex 0 0 0
      vertex 0 1.55431e-15 7
      vertex 30 0 0
    endloop
  endfacet
  facet normal 7.79338e-33 1 -2.22045e-16
    outer loop
      vertex 30 0 0
      vertex 0 1.55431e-15 7
      vertex 7 1.55431e-15 7
    endloop
  endfacet
  facet normal 0 1 -2.22045e-16
    outer loop
      vertex 10 3.77476e-15 17
      vertex 7 1.55431e-15 7
      vertex 7 4.44089e-15 20
    endloop
  endfacet
  facet normal 1.86209e-33 1 -2.22045e-16
    outer loop
      vertex 20 3.77476e-15 17
      vertex 7 4.44089e-15 20
      vertex 23 4.44089e-15 20
    endloop
  endfacet
  facet normal 0 1 -2.22045e-16
    outer loop
      vertex 20 3.77476e-15 17
      vertex 23 1.55431e-15 7
      vertex 20 1.55431e-15 7
    endloop
  endfacet
  facet normal 0 1 -2.22045e-16
    outer loop
      vertex 10 3.77476e-15 17
      vertex 7 4.44089e-15 20
      vertex 20 3.77476e-15 17
    endloop
  endfacet
  facet normal 0 1 -2.22045e-16
    outer loop
      vertex 10 1.55431e-15 7
      vertex 7 1.55431e-15 7
      vertex 10 3.77476e-15 17
    endloop
  endfacet
  facet normal 0 1 -2.22045e-16
    outer loop
      vertex 23 1.55431e-15 7
      vertex 30 0 0
      vertex 20 1.55431e-15 7
    endloop
  endfacet
  facet normal -9.24819e-33 1 -2.22045e-16
    outer loop
      vertex 30 0 0
      vertex 7 1.55431e-15 7
      vertex 10 1.55431e-15 7
    endloop
  endfacet
  facet normal -7.05028e-34 1 -2.22045e-16
    outer loop
      vertex 30 0 0
      vertex 10 1.55431e-15 7
      vertex 20 1.55431e-15 7
    endloop
  endfacet
  facet normal 0 1 -2.22045e-16
    outer loop
      vertex 23 1.55431e-15 7
      vertex 20 3.77476e-15 17
      vertex 23 4.44089e-15 20
    endloop
  endfacet
  facet normal 0 1 -2.22045e-16
    outer loop
      vertex 30 1.55431e-15 7
      vertex 30 0 0
      vertex 23 1.55431e-15 7
    endloop
  endfacet
  facet normal -0 1.92039e-16 1
    outer loop
      vertex 7 1.55431e-15 7
      vertex 0 1.55431e-15 7
      vertex 0 -18.5 7
    endloop
  endfacet
  facet normal -0 1.92039e-16 1
    outer loop
      vertex 7 -18.5 7
      vertex 7 1.55431e-15 7
      vertex 0 -18.5 7
    endloop
  endfacet
  facet normal 0 1 -2.73286e-16
    outer loop
      vertex 0 -18.5 7
      vertex 0 -18.5 20
      vertex 7 -18.5 7
    endloop
  endfacet
  facet normal 0 1 -2.73286e-16
    outer loop
      vertex 7 -18.5 7
      vertex 0 -18.5 20
      vertex 7 -18.5 20
    endloop
  endfacet
  facet normal 0 0 1
    outer loop
      vertex 7 -18.5 20
      vertex 0 -18.5 20
      vertex 0 -26.5 20
    endloop
  endfacet
  facet normal 0 0 1
    outer loop
      vertex 5.51787 -21.5455 20
      vertex 7.01045 -20.3552 20
      vertex 7 -18.5 20
    endloop
  endfacet
  facet normal -0 0 1
    outer loop
      vertex 5.51787 -21.5455 20
      vertex 7 -18.5 20
      vertex 0 -26.5 20
    endloop
  endfacet
  facet normal -0 0 1
    outer loop
      vertex 23 -30 20
      vertex 7 -26.5 20
      vertex 7 -30 20
    endloop
  endfacet
  facet normal -0 0 1
    outer loop
      vertex 23 -26.5 20
      vertex 7 -18.5 20
      vertex 23 -30 20
    endloop
  endfacet
  facet normal -0 -0 1
    outer loop
      vertex 20.5179 -23.4545 20
      vertex 7 -18.5 20
      vertex 23 -26.5 20
    endloop
  endfacet
  facet normal 0 0 1
    outer loop
      vertex 23.8717 -20.78 20
      vertex 24.7 -22.5 20
      vertex 30 -26.5 20
    endloop
  endfacet
  facet normal 0 1.92039e-16 1
    outer loop
      vertex 23 4.44089e-15 20
      vertex 7 -18.5 20
      vertex 23 -18.5 20
    endloop
  endfacet
  facet normal 0 0 1
    outer loop
      vertex 30 -18.5 20
      vertex 23 -18.5 20
      vertex 30 -26.5 20
    endloop
  endfacet
  facet normal -0 0 1
    outer loop
      vertex 7 -26.5 20
      vertex 5.51787 -23.4545 20
      vertex 0 -26.5 20
    endloop
  endfacet
  facet normal -0 0 1
    outer loop
      vertex 5.51787 -23.4545 20
      vertex 5.51787 -21.5455 20
      vertex 0 -26.5 20
    endloop
  endfacet
  facet normal 0 0 1
    outer loop
      vertex 8.87168 -20.78 20
      vertex 9.7 -22.5 20
      vertex 23 -30 20
    endloop
  endfacet
  facet normal 0 0 1
    outer loop
      vertex 20.5179 -23.4545 20
      vertex 20.5179 -21.5455 20
      vertex 7 -18.5 20
    endloop
  endfacet
  facet normal 0 0 1
    outer loop
      vertex 8.87168 -20.78 20
      vertex 7 -18.5 20
      vertex 7.01045 -20.3552 20
    endloop
  endfacet
  facet normal 0 0 1
    outer loop
      vertex 8.87168 -24.22 20
      vertex 7.01045 -24.6448 20
      vertex 7 -26.5 20
    endloop
  endfacet
  facet normal 0 0 1
    outer loop
      vertex 23 -30 20
      vertex 7 -18.5 20
      vertex 8.87168 -20.78 20
    endloop
  endfacet
  facet normal 0 0 1
    outer loop
      vertex 23 -30 20
      vertex 8.87168 -24.22 20
      vertex 7 -26.5 20
    endloop
  endfacet
  facet normal 0 0 1
    outer loop
      vertex 23 -30 20
      vertex 9.7 -22.5 20
      vertex 8.87168 -24.22 20
    endloop
  endfacet
  facet normal -0 -0 1
    outer loop
      vertex 22.0105 -24.6448 20
      vertex 20.5179 -23.4545 20
      vertex 23 -26.5 20
    endloop
  endfacet
  facet normal 0 -0 1
    outer loop
      vertex 23.8717 -24.22 20
      vertex 22.0105 -24.6448 20
      vertex 30 -26.5 20
    endloop
  endfacet
  facet normal 0 0 1
    outer loop
      vertex 23 -18.5 20
      vertex 7 -18.5 20
      vertex 20.5179 -21.5455 20
    endloop
  endfacet
  facet normal 0 -0 1
    outer loop
      vertex 24.7 -22.5 20
      vertex 23.8717 -24.22 20
      vertex 30 -26.5 20
    endloop
  endfacet
  facet normal 0 0 1
    outer loop
      vertex 23 -18.5 20
      vertex 20.5179 -21.5455 20
      vertex 22.0105 -20.3552 20
    endloop
  endfacet
  facet normal 0 0 1
    outer loop
      vertex 23 -18.5 20
      vertex 23.8717 -20.78 20
      vertex 30 -26.5 20
    endloop
  endfacet
  facet normal 0 -0 1
    outer loop
      vertex 23 -18.5 20
      vertex 22.0105 -20.3552 20
      vertex 23.8717 -20.78 20
    endloop
  endfacet
  facet normal -0 0 1
    outer loop
      vertex 30 -26.5 20
      vertex 22.0105 -24.6448 20
      vertex 23 -26.5 20
    endloop
  endfacet
  facet normal 0 1.92039e-16 1
    outer loop
      vertex 7 4.44089e-15 20
      vertex 7 -18.5 20
      vertex 23 4.44089e-15 20
    endloop
  endfacet
  facet normal -0 0 1
    outer loop
      vertex 7.01045 -24.6448 20
      vertex 5.51787 -23.4545 20
      vertex 7 -26.5 20
    endloop
  endfacet
  facet normal 0 -1 2.73286e-16
    outer loop
      vertex 0 -26.5 20
      vertex 0 -26.5 7
      vertex 7 -26.5 7
    endloop
  endfacet
  facet normal 0 -1 2.73286e-16
    outer loop
      vertex 7 -26.5 20
      vertex 0 -26.5 20
      vertex 7 -26.5 7
    endloop
  endfacet
  facet normal -0 2.40048e-16 1
    outer loop
      vertex 7 -26.5 7
      vertex 0 -26.5 7
      vertex 0 -45 7
    endloop
  endfacet
  facet normal -3.62522e-17 2.53765e-16 1
    outer loop
      vertex 7 -30 7
      vertex 7 -26.5 7
      vertex 0 -45 7
    endloop
  endfacet
  facet normal -4.44089e-16 2.22045e-16 1
    outer loop
      vertex 7.5 -41 7
      vertex 7 -30 7
      vertex 7.5 -45 7
    endloop
  endfacet
  facet normal -0 2.22045e-16 1
    outer loop
      vertex 30 -45 7
      vertex 22.5 -41 7
      vertex 22.5 -45 7
    endloop
  endfacet
  facet normal -0 2.4223e-16 1
    outer loop
      vertex 10 -30 7
      vertex 7 -30 7
      vertex 7.5 -41 7
    endloop
  endfacet
  facet normal -0 2.40048e-16 1
    outer loop
      vertex 30 -26.5 7
      vertex 23 -26.5 7
      vertex 30 -45 7
    endloop
  endfacet
  facet normal 3.62522e-17 2.53765e-16 1
    outer loop
      vertex 23 -26.5 7
      vertex 23 -30 7
      vertex 30 -45 7
    endloop
  endfacet
  facet normal -0 2.36848e-16 1
    outer loop
      vertex 23 -30 7
      vertex 20 -30 7
      vertex 30 -45 7
    endloop
  endfacet
  facet normal -8.88178e-17 1.77636e-16 1
    outer loop
      vertex 20 -30 7
      vertex 20 -35 7
      vertex 30 -45 7
    endloop
  endfacet
  facet normal -0 2.96059e-16 1
    outer loop
      vertex 22.5 -41 7
      vertex 10 -35 7
      vertex 7.5 -41 7
    endloop
  endfacet
  facet normal 2.84217e-16 1.77636e-16 1
    outer loop
      vertex 10 -30 7
      vertex 7.5 -41 7
      vertex 10 -35 7
    endloop
  endfacet
  facet normal -0 2.36848e-16 1
    outer loop
      vertex 7.5 -45 7
      vertex 7 -30 7
      vertex 0 -45 7
    endloop
  endfacet
  facet normal 5.07531e-17 3.17207e-16 1
    outer loop
      vertex 20 -35 7
      vertex 22.5 -41 7
      vertex 30 -45 7
    endloop
  endfacet
  facet normal -0 2.96059e-16 1
    outer loop
      vertex 20 -35 7
      vertex 10 -35 7
      vertex 22.5 -41 7
    endloop
  endfacet
  facet normal -7.27382e-33 -1 1.01506e-15
    outer loop
      vertex 0 -45 7
      vertex 0 -45 9.99201e-15
      vertex 30 -45 9.99201e-15
    endloop
  endfacet
  facet normal 0 -1 1.01506e-15
    outer loop
      vertex 7.5 -45 7
      vertex 0 -45 7
      vertex 30 -45 9.99201e-15
    endloop
  endfacet
  facet normal 0 -1 1.01506e-15
    outer loop
      vertex 22.5 -45 7
      vertex 7.5 -45 7
      vertex 30 -45 9.99201e-15
    endloop
  endfacet
  facet normal 0 -1 1.01506e-15
    outer loop
      vertex 30 -45 7
      vertex 22.5 -45 7
      vertex 30 -45 9.99201e-15
    endloop
  endfacet
  facet normal 0 -1 0
    outer loop
      vertex 15 -45 9.7
      vertex 7.5 -45 7
      vertex 22.5 -45 7
    endloop
  endfacet
  facet normal 0 -1 0
    outer loop
      vertex 16.6263 -45 10.3737
      vertex 15 -45 9.7
      vertex 22.5 -45 7
    endloop
  endfacet
  facet normal 0 -1 0
    outer loop
      vertex 13.3737 -45 10.3737
      vertex 12.7 -45 12
      vertex 7.5 -45 7
    endloop
  endfacet
  facet normal -0 -1 0
    outer loop
      vertex 15 -45 14.3
      vertex 16.6263 -45 13.6263
      vertex 22.5 -45 20
    endloop
  endfacet
  facet normal 0 -1 0
    outer loop
      vertex 22.5 -45 20
      vertex 13.3737 -45 13.6263
      vertex 15 -45 14.3
    endloop
  endfacet
  facet normal 0 -1 0
    outer loop
      vertex 22.5 -45 20
      vertex 16.6263 -45 13.6263
      vertex 22.5 -45 7
    endloop
  endfacet
  facet normal 0 -1 0
    outer loop
      vertex 16.6263 -45 13.6263
      vertex 17.3 -45 12
      vertex 22.5 -45 7
    endloop
  endfacet
  facet normal 0 -1 0
    outer loop
      vertex 17.3 -45 12
      vertex 16.6263 -45 10.3737
      vertex 22.5 -45 7
    endloop
  endfacet
  facet normal 0 -1 0
    outer loop
      vertex 13.3737 -45 10.3737
      vertex 7.5 -45 7
      vertex 15 -45 9.7
    endloop
  endfacet
  facet normal 0 -1 0
    outer loop
      vertex 7.5 -45 20
      vertex 13.3737 -45 13.6263
      vertex 22.5 -45 20
    endloop
  endfacet
  facet normal 0 -1 0
    outer loop
      vertex 7.5 -45 20
      vertex 12.7 -45 12
      vertex 13.3737 -45 13.6263
    endloop
  endfacet
  facet normal 0 -1 0
    outer loop
      vertex 7.5 -45 20
      vertex 7.5 -45 7
      vertex 12.7 -45 12
    endloop
  endfacet
  facet normal 1 0 0
    outer loop
      vertex 30 -45 9.99201e-15
      vertex 30 0 0
      vertex 30 1.55431e-15 7
    endloop
  endfacet
  facet normal 1 0 -0
    outer loop
      vertex 30 -26.5 7
      vertex 30 -45 9.99201e-15
      vertex 30 -18.5 7
    endloop
  endfacet
  facet normal 1 0 -0
    outer loop
      vertex 30 -18.5 7
      vertex 30 -45 9.99201e-15
      vertex 30 1.55431e-15 7
    endloop
  endfacet
  facet normal 1 -0 0
    outer loop
      vertex 30 -26.5 7
      vertex 30 -45 7
      vertex 30 -45 9.99201e-15
    endloop
  endfacet
  facet normal 1 0 0
    outer loop
      vertex 30 -18.5 20
      vertex 30 -26.5 7
      vertex 30 -18.5 7
    endloop
  endfacet
  facet normal 1 0 -0
    outer loop
      vertex 30 -26.5 20
      vertex 30 -26.5 7
      vertex 30 -18.5 20
    endloop
  endfacet
  facet normal 0.62349 -0.781832 2.77762e-16
    outer loop
      vertex 7.01045 -20.3552 4.51975e-15
      vertex 7.01045 -20.3552 20
      vertex 5.51787 -21.5455 20
    endloop
  endfacet
  facet normal 0.62349 -0.781832 2.77762e-16
    outer loop
      vertex 5.51787 -21.5455 4.78405e-15
      vertex 7.01045 -20.3552 4.51975e-15
      vertex 5.51787 -21.5455 20
    endloop
  endfacet
  facet normal 1 0 0
    outer loop
      vertex 5.51787 -21.5455 20
      vertex 5.51787 -23.4545 20
      vertex 5.51787 -23.4545 5.20795e-15
    endloop
  endfacet
  facet normal 1 0 0
    outer loop
      vertex 5.51787 -21.5455 4.78405e-15
      vertex 5.51787 -21.5455 20
      vertex 5.51787 -23.4545 5.20795e-15
    endloop
  endfacet
  facet normal -0.222521 -0.974928 5.19546e-16
    outer loop
      vertex 8.87168 -20.78 4.61408e-15
      vertex 8.87168 -20.78 20
      vertex 7.01045 -20.3552 20
    endloop
  endfacet
  facet normal -0.222521 -0.974928 3.46364e-16
    outer loop
      vertex 7.01045 -20.3552 4.51975e-15
      vertex 8.87168 -20.78 4.61408e-15
      vertex 7.01045 -20.3552 20
    endloop
  endfacet
  facet normal -0.900969 -0.433884 2.3122e-16
    outer loop
      vertex 9.7 -22.5 20
      vertex 8.87168 -20.78 20
      vertex 9.7 -22.5 4.996e-15
    endloop
  endfacet
  facet normal -0.900969 -0.433884 2.34833e-16
    outer loop
      vertex 9.7 -22.5 4.996e-15
      vertex 8.87168 -20.78 20
      vertex 8.87168 -20.78 4.61408e-15
    endloop
  endfacet
  facet normal -0.900969 0.433884 -2.3122e-16
    outer loop
      vertex 9.7 -22.5 20
      vertex 9.7 -22.5 4.996e-15
      vertex 8.87168 -24.22 20
    endloop
  endfacet
  facet normal -0.900969 0.433884 -2.3122e-16
    outer loop
      vertex 8.87168 -24.22 20
      vertex 9.7 -22.5 4.996e-15
      vertex 8.87168 -24.22 5.37793e-15
    endloop
  endfacet
  facet normal -0.222521 0.974928 -5.19546e-16
    outer loop
      vertex 8.87168 -24.22 20
      vertex 8.87168 -24.22 5.37793e-15
      vertex 7.01045 -24.6448 20
    endloop
  endfacet
  facet normal -0.222521 0.974928 -5.19546e-16
    outer loop
      vertex 7.01045 -24.6448 20
      vertex 8.87168 -24.22 5.37793e-15
      vertex 7.01045 -24.6448 5.47225e-15
    endloop
  endfacet
  facet normal 0.62349 0.781832 -4.16644e-16
    outer loop
      vertex 7.01045 -24.6448 20
      vertex 7.01045 -24.6448 5.47225e-15
      vertex 5.51787 -23.4545 20
    endloop
  endfacet
  facet normal 0.62349 0.781832 -2.77762e-16
    outer loop
      vertex 5.51787 -23.4545 20
      vertex 7.01045 -24.6448 5.47225e-15
      vertex 5.51787 -23.4545 5.20795e-15
    endloop
  endfacet
  facet normal 1 0 0
    outer loop
      vertex 20.5179 -21.5455 20
      vertex 20.5179 -23.4545 20
      vertex 20.5179 -23.4545 5.20795e-15
    endloop
  endfacet
  facet normal 1 0 0
    outer loop
      vertex 20.5179 -21.5455 4.78405e-15
      vertex 20.5179 -21.5455 20
      vertex 20.5179 -23.4545 5.20795e-15
    endloop
  endfacet
  facet normal 0.62349 -0.781832 2.77762e-16
    outer loop
      vertex 22.0105 -20.3552 4.51975e-15
      vertex 22.0105 -20.3552 20
      vertex 20.5179 -21.5455 20
    endloop
  endfacet
  facet normal 0.62349 -0.781832 2.77762e-16
    outer loop
      vertex 20.5179 -21.5455 4.78405e-15
      vertex 22.0105 -20.3552 4.51975e-15
      vertex 20.5179 -21.5455 20
    endloop
  endfacet
  facet normal -0.222521 -0.974928 5.19546e-16
    outer loop
      vertex 23.8717 -20.78 4.61408e-15
      vertex 23.8717 -20.78 20
      vertex 22.0105 -20.3552 20
    endloop
  endfacet
  facet normal -0.222521 -0.974928 3.46364e-16
    outer loop
      vertex 22.0105 -20.3552 4.51975e-15
      vertex 23.8717 -20.78 4.61408e-15
      vertex 22.0105 -20.3552 20
    endloop
  endfacet
  facet normal -0.900969 -0.433884 2.3122e-16
    outer loop
      vertex 24.7 -22.5 20
      vertex 23.8717 -20.78 20
      vertex 24.7 -22.5 4.996e-15
    endloop
  endfacet
  facet normal -0.900969 -0.433884 2.34833e-16
    outer loop
      vertex 24.7 -22.5 4.996e-15
      vertex 23.8717 -20.78 20
      vertex 23.8717 -20.78 4.61408e-15
    endloop
  endfacet
  facet normal -0.900969 0.433884 -2.3122e-16
    outer loop
      vertex 24.7 -22.5 20
      vertex 24.7 -22.5 4.996e-15
      vertex 23.8717 -24.22 20
    endloop
  endfacet
  facet normal -0.900969 0.433884 -2.3122e-16
    outer loop
      vertex 23.8717 -24.22 20
      vertex 24.7 -22.5 4.996e-15
      vertex 23.8717 -24.22 5.37793e-15
    endloop
  endfacet
  facet normal -0.222521 0.974928 -5.19546e-16
    outer loop
      vertex 23.8717 -24.22 20
      vertex 23.8717 -24.22 5.37793e-15
      vertex 22.0105 -24.6448 20
    endloop
  endfacet
  facet normal -0.222521 0.974928 -5.19546e-16
    outer loop
      vertex 22.0105 -24.6448 20
      vertex 23.8717 -24.22 5.37793e-15
      vertex 22.0105 -24.6448 5.47225e-15
    endloop
  endfacet
  facet normal 0.62349 0.781832 -4.16644e-16
    outer loop
      vertex 22.0105 -24.6448 20
      vertex 22.0105 -24.6448 5.47225e-15
      vertex 20.5179 -23.4545 20
    endloop
  endfacet
  facet normal 0.62349 0.781832 -2.77762e-16
    outer loop
      vertex 20.5179 -23.4545 20
      vertex 22.0105 -24.6448 5.47225e-15
      vertex 20.5179 -23.4545 5.20795e-15
    endloop
  endfacet
  facet normal -0 1.92039e-16 1
    outer loop
      vertex 30 1.55431e-15 7
      vertex 23 1.55431e-15 7
      vertex 23 -18.5 7
    endloop
  endfacet
  facet normal -0 1.92039e-16 1
    outer loop
      vertex 30 -18.5 7
      vertex 30 1.55431e-15 7
      vertex 23 -18.5 7
    endloop
  endfacet
  facet normal 1 0 0
    outer loop
      vertex 23 -18.5 7
      vertex 23 1.55431e-15 7
      vertex 23 4.44089e-15 20
    endloop
  endfacet
  facet normal 1 0 -0
    outer loop
      vertex 23 -18.5 20
      vertex 23 -18.5 7
      vertex 23 4.44089e-15 20
    endloop
  endfacet
  facet normal -1 0 -0
    outer loop
      vertex 7 1.55431e-15 7
      vertex 7 -18.5 7
      vertex 7 4.44089e-15 20
    endloop
  endfacet
  facet normal -1 0 0
    outer loop
      vertex 7 4.44089e-15 20
      vertex 7 -18.5 7
      vertex 7 -18.5 20
    endloop
  endfacet
  facet normal 1 -0 0
    outer loop
      vertex 10 3.77476e-15 17
      vertex 10 -30 17
      vertex 10 -30 7
    endloop
  endfacet
  facet normal 1 0 0
    outer loop
      vertex 10 1.55431e-15 7
      vertex 10 3.77476e-15 17
      vertex 10 -30 7
    endloop
  endfacet
  facet normal 0 -1.18424e-16 -1
    outer loop
      vertex 20 -30 17
      vertex 10 -30 17
      vertex 20 3.77476e-15 17
    endloop
  endfacet
  facet normal 0 -1.18424e-16 -1
    outer loop
      vertex 20 3.77476e-15 17
      vertex 10 -30 17
      vertex 10 3.77476e-15 17
    endloop
  endfacet
  facet normal -1 0 0
    outer loop
      vertex 20 -30 17
      vertex 20 3.77476e-15 17
      vertex 20 -30 7
    endloop
  endfacet
  facet normal -1 -0 0
    outer loop
      vertex 20 -30 7
      vertex 20 3.77476e-15 17
      vertex 20 1.55431e-15 7
    endloop
  endfacet
  facet normal -0 2.07242e-16 1
    outer loop
      vertex 20 1.55431e-15 7
      vertex 10 1.55431e-15 7
      vertex 10 -30 7
    endloop
  endfacet
  facet normal -1.4803e-17 2.07242e-16 1
    outer loop
      vertex 20 -30 7
      vertex 20 1.55431e-15 7
      vertex 10 -35 7
    endloop
  endfacet
  facet normal 8.88178e-17 1.77636e-16 1
    outer loop
      vertex 10 -35 7
      vertex 20 1.55431e-15 7
      vertex 10 -30 7
    endloop
  endfacet
  facet normal -0 1.77636e-16 1
    outer loop
      vertex 20 -35 7
      vertex 20 -30 7
      vertex 10 -35 7
    endloop
  endfacet
  facet normal 0 1 -2.73286e-16
    outer loop
      vertex 23 -18.5 7
      vertex 23 -18.5 20
      vertex 30 -18.5 7
    endloop
  endfacet
  facet normal 0 1 -2.73286e-16
    outer loop
      vertex 30 -18.5 7
      vertex 23 -18.5 20
      vertex 30 -18.5 20
    endloop
  endfacet
  facet normal 0 -1 2.73286e-16
    outer loop
      vertex 23 -26.5 20
      vertex 23 -26.5 7
      vertex 30 -26.5 7
    endloop
  endfacet
  facet normal 0 -1 2.73286e-16
    outer loop
      vertex 30 -26.5 20
      vertex 23 -26.5 20
      vertex 30 -26.5 7
    endloop
  endfacet
  facet normal 1 0 0
    outer loop
      vertex 23 -30 7
      vertex 23 -26.5 7
      vertex 23 -26.5 20
    endloop
  endfacet
  facet normal 1 0 -0
    outer loop
      vertex 23 -30 20
      vertex 23 -30 7
      vertex 23 -26.5 20
    endloop
  endfacet
  facet normal 0 -1 2.73286e-16
    outer loop
      vertex 7 -30 20
      vertex 7 -30 7
      vertex 10 -30 7
    endloop
  endfacet
  facet normal 0 -1 0
    outer loop
      vertex 20 -30 17
      vertex 7 -30 20
      vertex 10 -30 17
    endloop
  endfacet
  facet normal 3.55271e-16 -1 3.55271e-16
    outer loop
      vertex 10 -30 17
      vertex 7 -30 20
      vertex 10 -30 7
    endloop
  endfacet
  facet normal 0 -1 0
    outer loop
      vertex 23 -30 20
      vertex 7 -30 20
      vertex 20 -30 17
    endloop
  endfacet
  facet normal 0 -1 3.55271e-16
    outer loop
      vertex 23 -30 7
      vertex 20 -30 17
      vertex 20 -30 7
    endloop
  endfacet
  facet normal -2.73286e-16 -1 2.73286e-16
    outer loop
      vertex 23 -30 20
      vertex 20 -30 17
      vertex 23 -30 7
    endloop
  endfacet
  facet normal -1 0 -0
    outer loop
      vertex 7 -26.5 7
      vertex 7 -30 7
      vertex 7 -26.5 20
    endloop
  endfacet
  facet normal -1 0 0
    outer loop
      vertex 7 -26.5 20
      vertex 7 -30 7
      vertex 7 -30 20
    endloop
  endfacet
  facet normal 1 0 0
    outer loop
      vertex 22.5 -45 7
      vertex 22.5 -41 7
      vertex 22.5 -41 20
    endloop
  endfacet
  facet normal 1 0 -0
    outer loop
      vertex 22.5 -45 20
      vertex 22.5 -45 7
      vertex 22.5 -41 20
    endloop
  endfacet
  facet normal 0 1 0
    outer loop
      vertex 16.6263 -41 13.6263
      vertex 7.5 -41 20
      vertex 22.5 -41 20
    endloop
  endfacet
  facet normal 0 1 0
    outer loop
      vertex 7.5 -41 7
      vertex 7.5 -41 20
      vertex 12.7 -41 12
    endloop
  endfacet
  facet normal 0 1 0
    outer loop
      vertex 7.5 -41 7
      vertex 12.7 -41 12
      vertex 13.3737 -41 10.3737
    endloop
  endfacet
  facet normal 0 1 0
    outer loop
      vertex 7.5 -41 7
      vertex 13.3737 -41 10.3737
      vertex 15 -41 9.7
    endloop
  endfacet
  facet normal 0 1 0
    outer loop
      vertex 7.5 -41 7
      vertex 15 -41 9.7
      vertex 22.5 -41 7
    endloop
  endfacet
  facet normal 0 1 -0
    outer loop
      vertex 17.3 -41 12
      vertex 22.5 -41 7
      vertex 16.6263 -41 10.3737
    endloop
  endfacet
  facet normal 0 1 0
    outer loop
      vertex 13.3737 -41 13.6263
      vertex 7.5 -41 20
      vertex 15 -41 14.3
    endloop
  endfacet
  facet normal 0 1 0
    outer loop
      vertex 22.5 -41 7
      vertex 17.3 -41 12
      vertex 22.5 -41 20
    endloop
  endfacet
  facet normal 0 1 0
    outer loop
      vertex 15 -41 14.3
      vertex 7.5 -41 20
      vertex 16.6263 -41 13.6263
    endloop
  endfacet
  facet normal 0 1 0
    outer loop
      vertex 17.3 -41 12
      vertex 16.6263 -41 13.6263
      vertex 22.5 -41 20
    endloop
  endfacet
  facet normal 0 1 0
    outer loop
      vertex 12.7 -41 12
      vertex 7.5 -41 20
      vertex 13.3737 -41 13.6263
    endloop
  endfacet
  facet normal 0 1 -0
    outer loop
      vertex 16.6263 -41 10.3737
      vertex 22.5 -41 7
      vertex 15 -41 9.7
    endloop
  endfacet
  facet normal -1 0 0
    outer loop
      vertex 7.5 -41 7
      vertex 7.5 -45 7
      vertex 7.5 -41 20
    endloop
  endfacet
  facet normal -1 0 0
    outer loop
      vertex 7.5 -41 20
      vertex 7.5 -45 7
      vertex 7.5 -45 20
    endloop
  endfacet
  facet normal 0 0 1
    outer loop
      vertex 22.5 -41 20
      vertex 7.5 -41 20
      vertex 7.5 -45 20
    endloop
  endfacet
  facet normal -0 0 1
    outer loop
      vertex 22.5 -45 20
      vertex 22.5 -41 20
      vertex 7.5 -45 20
    endloop
  endfacet
  facet normal 0.92388 0 0.382683
    outer loop
      vertex 12.7 -45 12
      vertex 13.3737 -45 10.3737
      vertex 13.3737 -41 10.3737
    endloop
  endfacet
  facet normal 0.92388 -0 0.382683
    outer loop
      vertex 12.7 -41 12
      vertex 12.7 -45 12
      vertex 13.3737 -41 10.3737
    endloop
  endfacet
  facet normal 0.382683 4.10284e-16 0.92388
    outer loop
      vertex 13.3737 -45 10.3737
      vertex 15 -45 9.7
      vertex 15 -41 9.7
    endloop
  endfacet
  facet normal 0.382683 -0 0.92388
    outer loop
      vertex 13.3737 -41 10.3737
      vertex 13.3737 -45 10.3737
      vertex 15 -41 9.7
    endloop
  endfacet
  facet normal -0.382683 0 0.92388
    outer loop
      vertex 15 -45 9.7
      vertex 16.6263 -45 10.3737
      vertex 16.6263 -41 10.3737
    endloop
  endfacet
  facet normal -0.382683 4.10285e-16 0.92388
    outer loop
      vertex 15 -41 9.7
      vertex 15 -45 9.7
      vertex 16.6263 -41 10.3737
    endloop
  endfacet
  facet normal -0.92388 0 0.382683
    outer loop
      vertex 17.3 -45 12
      vertex 17.3 -41 12
      vertex 16.6263 -45 10.3737
    endloop
  endfacet
  facet normal -0.92388 0 0.382683
    outer loop
      vertex 16.6263 -45 10.3737
      vertex 17.3 -41 12
      vertex 16.6263 -41 10.3737
    endloop
  endfacet
  facet normal -0.92388 -0 -0.382683
    outer loop
      vertex 17.3 -45 12
      vertex 16.6263 -45 13.6263
      vertex 17.3 -41 12
    endloop
  endfacet
  facet normal -0.92388 0 -0.382683
    outer loop
      vertex 17.3 -41 12
      vertex 16.6263 -45 13.6263
      vertex 16.6263 -41 13.6263
    endloop
  endfacet
  facet normal -0.382683 -0 -0.92388
    outer loop
      vertex 16.6263 -45 13.6263
      vertex 15 -45 14.3
      vertex 16.6263 -41 13.6263
    endloop
  endfacet
  facet normal -0.382683 -4.10284e-16 -0.92388
    outer loop
      vertex 16.6263 -41 13.6263
      vertex 15 -45 14.3
      vertex 15 -41 14.3
    endloop
  endfacet
  facet normal 0.382683 -4.10285e-16 -0.92388
    outer loop
      vertex 15 -45 14.3
      vertex 13.3737 -45 13.6263
      vertex 15 -41 14.3
    endloop
  endfacet
  facet normal 0.382683 0 -0.92388
    outer loop
      vertex 15 -41 14.3
      vertex 13.3737 -45 13.6263
      vertex 13.3737 -41 13.6263
    endloop
  endfacet
  facet normal 0.92388 0 -0.382683
    outer loop
      vertex 13.3737 -41 13.6263
      vertex 13.3737 -45 13.6263
      vertex 12.7 -45 12
    endloop
  endfacet
  facet normal 0.92388 0 -0.382683
    outer loop
      vertex 12.7 -41 12
      vertex 13.3737 -41 13.6263
      vertex 12.7 -45 12
    endloop
  endfacet
endsolid OpenSCAD_Model
