solid OpenSCAD_Model
  facet normal 4.06444e-15 4.2719e-16 1
    outer loop
      vertex -19.563 4.15823 20
      vertex -20 2.44921e-15 20
      vertex -19.563 -4.15823 20
    endloop
  endfacet
  facet normal 6.11977e-16 3.53325e-16 1
    outer loop
      vertex -16.1803 -11.7557 20
      vertex -19.563 4.15823 20
      vertex -18.2709 -8.13473 20
    endloop
  endfacet
  facet normal 1.31476e-15 4.2719e-16 1
    outer loop
      vertex -18.2709 -8.13473 20
      vertex -19.563 4.15823 20
      vertex -19.563 -4.15823 20
    endloop
  endfacet
  facet normal 3.24557e-16 2.92232e-16 1
    outer loop
      vertex -13.3826 -14.8629 20
      vertex -19.563 4.15823 20
      vertex -16.1803 -11.7557 20
    endloop
  endfacet
  facet normal 1.77636e-16 2.44495e-16 1
    outer loop
      vertex -10 -17.3205 20
      vertex -19.563 4.15823 20
      vertex -13.3826 -14.8629 20
    endloop
  endfacet
  facet normal 9.1851e-17 2.06301e-16 1
    outer loop
      vertex -6.18034 -19.0211 20
      vertex -19.563 4.15823 20
      vertex -10 -17.3205 20
    endloop
  endfacet
  facet normal 3.7136e-17 1.74711e-16 1
    outer loop
      vertex -2.09057 -19.8904 20
      vertex -19.563 4.15823 20
      vertex -6.18034 -19.0211 20
    endloop
  endfacet
  facet normal -0 1.4773e-16 1
    outer loop
      vertex 2.09057 -19.8904 20
      vertex -19.563 4.15823 20
      vertex -2.09057 -19.8904 20
    endloop
  endfacet
  facet normal -1.57632e-15 -1.2716e-15 1
    outer loop
      vertex -7.36044 -8.17459 20
      vertex -19.563 4.15823 20
      vertex 2.09057 -19.8904 20
    endloop
  endfacet
  facet normal -7.84251e-16 -4.52788e-16 1
    outer loop
      vertex -8.89919 -6.46564 20
      vertex -10.049 -4.4741 20
      vertex -19.563 4.15823 20
    endloop
  endfacet
  facet normal 0 0 1
    outer loop
      vertex -10.7596 2.28703 20
      vertex -10.049 4.4741 20
      vertex -19.563 4.15823 20
    endloop
  endfacet
  facet normal 0 0 1
    outer loop
      vertex 10.049 4.4741 20
      vertex 10.7596 2.28703 20
      vertex 19.563 4.15823 20
    endloop
  endfacet
  facet normal 0 0 1
    outer loop
      vertex 1.14981 10.9397 20
      vertex 3.39919 10.4616 20
      vertex 13.3826 14.8629 20
    endloop
  endfacet
  facet normal 0 0 1
    outer loop
      vertex 5.5 9.52628 20
      vertex 7.36044 8.17459 20
      vertex 16.1803 11.7557 20
    endloop
  endfacet
  facet normal 0 -0 1
    outer loop
      vertex 6.18034 19.0211 20
      vertex -19.563 4.15823 20
      vertex 10 17.3205 20
    endloop
  endfacet
  facet normal 0 -0 1
    outer loop
      vertex 2.09057 19.8904 20
      vertex -19.563 4.15823 20
      vertex 6.18034 19.0211 20
    endloop
  endfacet
  facet normal 0 -0 1
    outer loop
      vertex -2.09057 19.8904 20
      vertex -19.563 4.15823 20
      vertex 2.09057 19.8904 20
    endloop
  endfacet
  facet normal 0 -0 1
    outer loop
      vertex -6.18034 19.0211 20
      vertex -19.563 4.15823 20
      vertex -2.09057 19.8904 20
    endloop
  endfacet
  facet normal 0 -0 1
    outer loop
      vertex -10 17.3205 20
      vertex -19.563 4.15823 20
      vertex -6.18034 19.0211 20
    endloop
  endfacet
  facet normal 0 -0 1
    outer loop
      vertex -13.3826 14.8629 20
      vertex -19.563 4.15823 20
      vertex -10 17.3205 20
    endloop
  endfacet
  facet normal 0 -0 1
    outer loop
      vertex -16.1803 11.7557 20
      vertex -19.563 4.15823 20
      vertex -13.3826 14.8629 20
    endloop
  endfacet
  facet normal 0 -0 1
    outer loop
      vertex -18.2709 8.13473 20
      vertex -19.563 4.15823 20
      vertex -16.1803 11.7557 20
    endloop
  endfacet
  facet normal 0 -0 1
    outer loop
      vertex 3.39919 -10.4616 20
      vertex 1.14981 -10.9397 20
      vertex 10 -17.3205 20
    endloop
  endfacet
  facet normal 0 -0 1
    outer loop
      vertex 10.049 -4.4741 20
      vertex 8.89919 -6.46564 20
      vertex 18.2709 -8.13473 20
    endloop
  endfacet
  facet normal -0 0 1
    outer loop
      vertex -10.049 4.4741 20
      vertex -8.89919 6.46564 20
      vertex -19.563 4.15823 20
    endloop
  endfacet
  facet normal 0 0 1
    outer loop
      vertex -3.39919 10.4616 20
      vertex -1.14981 10.9397 20
      vertex 10 17.3205 20
    endloop
  endfacet
  facet normal 0 0 1
    outer loop
      vertex 7.36044 8.17459 20
      vertex 8.89919 6.46564 20
      vertex 18.2709 8.13473 20
    endloop
  endfacet
  facet normal 0 0 1
    outer loop
      vertex -5.5 9.52628 20
      vertex -19.563 4.15823 20
      vertex -7.36044 8.17459 20
    endloop
  endfacet
  facet normal 0 0 1
    outer loop
      vertex 10 17.3205 20
      vertex -19.563 4.15823 20
      vertex -5.5 9.52628 20
    endloop
  endfacet
  facet normal 0 0 1
    outer loop
      vertex 10 17.3205 20
      vertex -5.5 9.52628 20
      vertex -3.39919 10.4616 20
    endloop
  endfacet
  facet normal 0 -0 1
    outer loop
      vertex 10 17.3205 20
      vertex -1.14981 10.9397 20
      vertex 13.3826 14.8629 20
    endloop
  endfacet
  facet normal 0 0 1
    outer loop
      vertex -1.14981 10.9397 20
      vertex 1.14981 10.9397 20
      vertex 13.3826 14.8629 20
    endloop
  endfacet
  facet normal 0 -0 1
    outer loop
      vertex 13.3826 14.8629 20
      vertex 3.39919 10.4616 20
      vertex 16.1803 11.7557 20
    endloop
  endfacet
  facet normal 0 0 1
    outer loop
      vertex 3.39919 10.4616 20
      vertex 5.5 9.52628 20
      vertex 16.1803 11.7557 20
    endloop
  endfacet
  facet normal 0 -0 1
    outer loop
      vertex 16.1803 11.7557 20
      vertex 7.36044 8.17459 20
      vertex 18.2709 8.13473 20
    endloop
  endfacet
  facet normal -0 0 1
    outer loop
      vertex -8.89919 6.46564 20
      vertex -7.36044 8.17459 20
      vertex -19.563 4.15823 20
    endloop
  endfacet
  facet normal 0 -0 1
    outer loop
      vertex 18.2709 8.13473 20
      vertex 8.89919 6.46564 20
      vertex 19.563 4.15823 20
    endloop
  endfacet
  facet normal 0 0 1
    outer loop
      vertex 8.89919 6.46564 20
      vertex 10.049 4.4741 20
      vertex 19.563 4.15823 20
    endloop
  endfacet
  facet normal -1.77636e-16 8.3571e-16 1
    outer loop
      vertex 19.563 4.15823 20
      vertex 10.7596 2.28703 20
      vertex 20 2.44921e-15 20
    endloop
  endfacet
  facet normal 1.72268e-32 1.55342e-15 1
    outer loop
      vertex 10.7596 2.28703 20
      vertex 11 2.44921e-15 20
      vertex 20 2.44921e-15 20
    endloop
  endfacet
  facet normal 0 0 1
    outer loop
      vertex 20 2.44921e-15 20
      vertex 11 2.44921e-15 20
      vertex 19.563 -4.15823 20
    endloop
  endfacet
  facet normal -0 0 1
    outer loop
      vertex 19.563 -4.15823 20
      vertex 10.7596 -2.28703 20
      vertex 18.2709 -8.13473 20
    endloop
  endfacet
  facet normal 0 -0 1
    outer loop
      vertex 8.89919 -6.46564 20
      vertex 7.36044 -8.17459 20
      vertex 16.1803 -11.7557 20
    endloop
  endfacet
  facet normal 0 -0 1
    outer loop
      vertex 10.7596 -2.28703 20
      vertex 10.049 -4.4741 20
      vertex 18.2709 -8.13473 20
    endloop
  endfacet
  facet normal 0 -0 1
    outer loop
      vertex 11 2.44921e-15 20
      vertex 10.7596 -2.28703 20
      vertex 19.563 -4.15823 20
    endloop
  endfacet
  facet normal -0 0 1
    outer loop
      vertex 18.2709 -8.13473 20
      vertex 8.89919 -6.46564 20
      vertex 16.1803 -11.7557 20
    endloop
  endfacet
  facet normal -0 0 1
    outer loop
      vertex 16.1803 -11.7557 20
      vertex 7.36044 -8.17459 20
      vertex 13.3826 -14.8629 20
    endloop
  endfacet
  facet normal 0 -0 1
    outer loop
      vertex 7.36044 -8.17459 20
      vertex 5.5 -9.52628 20
      vertex 13.3826 -14.8629 20
    endloop
  endfacet
  facet normal -0 0 1
    outer loop
      vertex 13.3826 -14.8629 20
      vertex 3.39919 -10.4616 20
      vertex 10 -17.3205 20
    endloop
  endfacet
  facet normal -0 0 1
    outer loop
      vertex 10 -17.3205 20
      vertex 1.14981 -10.9397 20
      vertex 6.18034 -19.0211 20
    endloop
  endfacet
  facet normal 0 -0 1
    outer loop
      vertex 1.14981 -10.9397 20
      vertex -1.14981 -10.9397 20
      vertex 6.18034 -19.0211 20
    endloop
  endfacet
  facet normal -0 0 1
    outer loop
      vertex 6.18034 -19.0211 20
      vertex -3.39919 -10.4616 20
      vertex 2.09057 -19.8904 20
    endloop
  endfacet
  facet normal -0 -0 1
    outer loop
      vertex -3.39919 -10.4616 20
      vertex -5.5 -9.52628 20
      vertex 2.09057 -19.8904 20
    endloop
  endfacet
  facet normal -0 -0 1
    outer loop
      vertex -5.5 -9.52628 20
      vertex -7.36044 -8.17459 20
      vertex 2.09057 -19.8904 20
    endloop
  endfacet
  facet normal -3.23566e-15 -2.9134e-15 1
    outer loop
      vertex -8.89919 -6.46564 20
      vertex -19.563 4.15823 20
      vertex -7.36044 -8.17459 20
    endloop
  endfacet
  facet normal -5.29534e-16 -1.72056e-16 1
    outer loop
      vertex -10.049 -4.4741 20
      vertex -10.7596 -2.28703 20
      vertex -19.563 4.15823 20
    endloop
  endfacet
  facet normal -0 -0 1
    outer loop
      vertex -1.14981 -10.9397 20
      vertex -3.39919 -10.4616 20
      vertex 6.18034 -19.0211 20
    endloop
  endfacet
  facet normal -4.37208e-16 -4.59524e-17 1
    outer loop
      vertex -10.7596 -2.28703 20
      vertex -11 2.44921e-15 20
      vertex -19.563 4.15823 20
    endloop
  endfacet
  facet normal 0 -0 1
    outer loop
      vertex 5.5 -9.52628 20
      vertex 3.39919 -10.4616 20
      vertex 13.3826 -14.8629 20
    endloop
  endfacet
  facet normal 3.22974e-16 1.51947e-15 1
    outer loop
      vertex -11 2.44921e-15 20
      vertex -10.7596 2.28703 20
      vertex -19.563 4.15823 20
    endloop
  endfacet
  facet normal -0.939248 -0.0987189 -0.328737
    outer loop
      vertex -19.563 -4.15823 20
      vertex -20 2.44921e-15 20
      vertex -5.86889 -1.24747 -20
    endloop
  endfacet
  facet normal -0.939248 -0.0987187 -0.328737
    outer loop
      vertex -5.86889 -1.24747 -20
      vertex -20 2.44921e-15 20
      vertex -6 -2.44921e-15 -20
    endloop
  endfacet
  facet normal -0.939248 0.0987189 -0.328737
    outer loop
      vertex -6 -2.44921e-15 -20
      vertex -20 2.44921e-15 20
      vertex -19.563 4.15823 20
    endloop
  endfacet
  facet normal -0.939248 0.0987187 -0.328737
    outer loop
      vertex -6 -2.44921e-15 -20
      vertex -19.563 4.15823 20
      vertex -5.86889 1.24747 -20
    endloop
  endfacet
  facet normal -0.898198 0.291842 -0.328737
    outer loop
      vertex -5.86889 1.24747 -20
      vertex -19.563 4.15823 20
      vertex -18.2709 8.13473 20
    endloop
  endfacet
  facet normal -0.898198 0.291842 -0.328737
    outer loop
      vertex -5.86889 1.24747 -20
      vertex -18.2709 8.13473 20
      vertex -5.48127 2.44042 -20
    endloop
  endfacet
  facet normal -0.817893 0.472211 -0.328737
    outer loop
      vertex -5.48127 2.44042 -20
      vertex -18.2709 8.13473 20
      vertex -16.1803 11.7557 20
    endloop
  endfacet
  facet normal -0.817893 0.472211 -0.328737
    outer loop
      vertex -5.48127 2.44042 -20
      vertex -16.1803 11.7557 20
      vertex -4.8541 3.52671 -20
    endloop
  endfacet
  facet normal -0.701842 0.631941 -0.328737
    outer loop
      vertex -4.8541 3.52671 -20
      vertex -16.1803 11.7557 20
      vertex -13.3826 14.8629 20
    endloop
  endfacet
  facet normal -0.701842 0.631941 -0.328737
    outer loop
      vertex -4.8541 3.52671 -20
      vertex -13.3826 14.8629 20
      vertex -4.01478 4.45887 -20
    endloop
  endfacet
  facet normal -0.555117 0.764053 -0.328737
    outer loop
      vertex -4.01478 4.45887 -20
      vertex -13.3826 14.8629 20
      vertex -10 17.3205 20
    endloop
  endfacet
  facet normal -0.555117 0.764053 -0.328737
    outer loop
      vertex -4.01478 4.45887 -20
      vertex -10 17.3205 20
      vertex -3 5.19615 -20
    endloop
  endfacet
  facet normal -0.384131 0.862772 -0.328737
    outer loop
      vertex -3 5.19615 -20
      vertex -10 17.3205 20
      vertex -6.18034 19.0211 20
    endloop
  endfacet
  facet normal -0.384131 0.862772 -0.328737
    outer loop
      vertex -3 5.19615 -20
      vertex -6.18034 19.0211 20
      vertex -1.8541 5.70634 -20
    endloop
  endfacet
  facet normal -0.196356 0.923784 -0.328737
    outer loop
      vertex -1.8541 5.70634 -20
      vertex -6.18034 19.0211 20
      vertex -2.09057 19.8904 20
    endloop
  endfacet
  facet normal -0.196356 0.923784 -0.328737
    outer loop
      vertex -1.8541 5.70634 -20
      vertex -2.09057 19.8904 20
      vertex -0.627171 5.96713 -20
    endloop
  endfacet
  facet normal 0 0.944422 -0.328737
    outer loop
      vertex -2.09057 19.8904 20
      vertex 2.09057 19.8904 20
      vertex -0.627171 5.96713 -20
    endloop
  endfacet
  facet normal 0 0.944422 -0.328737
    outer loop
      vertex -0.627171 5.96713 -20
      vertex 2.09057 19.8904 20
      vertex 0.627171 5.96713 -20
    endloop
  endfacet
  facet normal 0.196356 0.923784 -0.328737
    outer loop
      vertex 6.18034 19.0211 20
      vertex 0.627171 5.96713 -20
      vertex 2.09057 19.8904 20
    endloop
  endfacet
  facet normal 0.196356 0.923784 -0.328737
    outer loop
      vertex 1.8541 5.70634 -20
      vertex 0.627171 5.96713 -20
      vertex 6.18034 19.0211 20
    endloop
  endfacet
  facet normal 0.384131 0.862772 -0.328737
    outer loop
      vertex 10 17.3205 20
      vertex 1.8541 5.70634 -20
      vertex 6.18034 19.0211 20
    endloop
  endfacet
  facet normal 0.384131 0.862772 -0.328737
    outer loop
      vertex 3 5.19615 -20
      vertex 1.8541 5.70634 -20
      vertex 10 17.3205 20
    endloop
  endfacet
  facet normal 0.555117 0.764053 -0.328737
    outer loop
      vertex 13.3826 14.8629 20
      vertex 3 5.19615 -20
      vertex 10 17.3205 20
    endloop
  endfacet
  facet normal 0.555117 0.764053 -0.328737
    outer loop
      vertex 4.01478 4.45887 -20
      vertex 3 5.19615 -20
      vertex 13.3826 14.8629 20
    endloop
  endfacet
  facet normal 0.701842 0.631941 -0.328737
    outer loop
      vertex 16.1803 11.7557 20
      vertex 4.01478 4.45887 -20
      vertex 13.3826 14.8629 20
    endloop
  endfacet
  facet normal 0.701842 0.631941 -0.328737
    outer loop
      vertex 4.8541 3.52671 -20
      vertex 4.01478 4.45887 -20
      vertex 16.1803 11.7557 20
    endloop
  endfacet
  facet normal 0.817893 0.472211 -0.328737
    outer loop
      vertex 18.2709 8.13473 20
      vertex 4.8541 3.52671 -20
      vertex 16.1803 11.7557 20
    endloop
  endfacet
  facet normal 0.817893 0.472211 -0.328737
    outer loop
      vertex 5.48127 2.44042 -20
      vertex 4.8541 3.52671 -20
      vertex 18.2709 8.13473 20
    endloop
  endfacet
  facet normal 0.898198 0.291842 -0.328737
    outer loop
      vertex 19.563 4.15823 20
      vertex 5.48127 2.44042 -20
      vertex 18.2709 8.13473 20
    endloop
  endfacet
  facet normal 0.898198 0.291842 -0.328737
    outer loop
      vertex 5.86889 1.24747 -20
      vertex 5.48127 2.44042 -20
      vertex 19.563 4.15823 20
    endloop
  endfacet
  facet normal 0.939248 0.0987189 -0.328737
    outer loop
      vertex 20 2.44921e-15 20
      vertex 5.86889 1.24747 -20
      vertex 19.563 4.15823 20
    endloop
  endfacet
  facet normal 0.939248 0.0987187 -0.328737
    outer loop
      vertex 6 -2.44921e-15 -20
      vertex 5.86889 1.24747 -20
      vertex 20 2.44921e-15 20
    endloop
  endfacet
  facet normal 0.939248 -0.0987189 -0.328737
    outer loop
      vertex 19.563 -4.15823 20
      vertex 6 -2.44921e-15 -20
      vertex 20 2.44921e-15 20
    endloop
  endfacet
  facet normal 0.939248 -0.0987187 -0.328737
    outer loop
      vertex 19.563 -4.15823 20
      vertex 5.86889 -1.24747 -20
      vertex 6 -2.44921e-15 -20
    endloop
  endfacet
  facet normal 0.898198 -0.291842 -0.328737
    outer loop
      vertex 18.2709 -8.13473 20
      vertex 5.86889 -1.24747 -20
      vertex 19.563 -4.15823 20
    endloop
  endfacet
  facet normal 0.898198 -0.291842 -0.328737
    outer loop
      vertex 18.2709 -8.13473 20
      vertex 5.48127 -2.44042 -20
      vertex 5.86889 -1.24747 -20
    endloop
  endfacet
  facet normal 0.817893 -0.472211 -0.328737
    outer loop
      vertex 16.1803 -11.7557 20
      vertex 5.48127 -2.44042 -20
      vertex 18.2709 -8.13473 20
    endloop
  endfacet
  facet normal 0.817893 -0.472211 -0.328737
    outer loop
      vertex 16.1803 -11.7557 20
      vertex 4.8541 -3.52671 -20
      vertex 5.48127 -2.44042 -20
    endloop
  endfacet
  facet normal 0.701842 -0.631941 -0.328737
    outer loop
      vertex 13.3826 -14.8629 20
      vertex 4.8541 -3.52671 -20
      vertex 16.1803 -11.7557 20
    endloop
  endfacet
  facet normal 0.701842 -0.631941 -0.328737
    outer loop
      vertex 13.3826 -14.8629 20
      vertex 4.01478 -4.45887 -20
      vertex 4.8541 -3.52671 -20
    endloop
  endfacet
  facet normal 0.555117 -0.764053 -0.328737
    outer loop
      vertex 10 -17.3205 20
      vertex 4.01478 -4.45887 -20
      vertex 13.3826 -14.8629 20
    endloop
  endfacet
  facet normal 0.555117 -0.764053 -0.328737
    outer loop
      vertex 10 -17.3205 20
      vertex 3 -5.19615 -20
      vertex 4.01478 -4.45887 -20
    endloop
  endfacet
  facet normal 0.384131 -0.862772 -0.328737
    outer loop
      vertex 6.18034 -19.0211 20
      vertex 3 -5.19615 -20
      vertex 10 -17.3205 20
    endloop
  endfacet
  facet normal 0.384131 -0.862772 -0.328737
    outer loop
      vertex 6.18034 -19.0211 20
      vertex 1.8541 -5.70634 -20
      vertex 3 -5.19615 -20
    endloop
  endfacet
  facet normal 0.196356 -0.923784 -0.328737
    outer loop
      vertex 2.09057 -19.8904 20
      vertex 1.8541 -5.70634 -20
      vertex 6.18034 -19.0211 20
    endloop
  endfacet
  facet normal 0.196356 -0.923784 -0.328737
    outer loop
      vertex 2.09057 -19.8904 20
      vertex 0.627171 -5.96713 -20
      vertex 1.8541 -5.70634 -20
    endloop
  endfacet
  facet normal 0 -0.944422 -0.328737
    outer loop
      vertex 2.09057 -19.8904 20
      vertex -2.09057 -19.8904 20
      vertex -0.627171 -5.96713 -20
    endloop
  endfacet
  facet normal 0 -0.944422 -0.328737
    outer loop
      vertex 0.627171 -5.96713 -20
      vertex 2.09057 -19.8904 20
      vertex -0.627171 -5.96713 -20
    endloop
  endfacet
  facet normal -0.196356 -0.923784 -0.328737
    outer loop
      vertex -2.09057 -19.8904 20
      vertex -6.18034 -19.0211 20
      vertex -0.627171 -5.96713 -20
    endloop
  endfacet
  facet normal -0.196356 -0.923784 -0.328737
    outer loop
      vertex -0.627171 -5.96713 -20
      vertex -6.18034 -19.0211 20
      vertex -1.8541 -5.70634 -20
    endloop
  endfacet
  facet normal -0.384131 -0.862772 -0.328737
    outer loop
      vertex -6.18034 -19.0211 20
      vertex -10 -17.3205 20
      vertex -1.8541 -5.70634 -20
    endloop
  endfacet
  facet normal -0.384131 -0.862772 -0.328737
    outer loop
      vertex -1.8541 -5.70634 -20
      vertex -10 -17.3205 20
      vertex -3 -5.19615 -20
    endloop
  endfacet
  facet normal -0.555117 -0.764053 -0.328737
    outer loop
      vertex -10 -17.3205 20
      vertex -13.3826 -14.8629 20
      vertex -3 -5.19615 -20
    endloop
  endfacet
  facet normal -0.555117 -0.764053 -0.328737
    outer loop
      vertex -3 -5.19615 -20
      vertex -13.3826 -14.8629 20
      vertex -4.01478 -4.45887 -20
    endloop
  endfacet
  facet normal -0.701842 -0.631941 -0.328737
    outer loop
      vertex -13.3826 -14.8629 20
      vertex -16.1803 -11.7557 20
      vertex -4.01478 -4.45887 -20
    endloop
  endfacet
  facet normal -0.701842 -0.631941 -0.328737
    outer loop
      vertex -4.01478 -4.45887 -20
      vertex -16.1803 -11.7557 20
      vertex -4.8541 -3.52671 -20
    endloop
  endfacet
  facet normal -0.817893 -0.472211 -0.328737
    outer loop
      vertex -16.1803 -11.7557 20
      vertex -18.2709 -8.13473 20
      vertex -4.8541 -3.52671 -20
    endloop
  endfacet
  facet normal -0.817893 -0.472211 -0.328737
    outer loop
      vertex -4.8541 -3.52671 -20
      vertex -18.2709 -8.13473 20
      vertex -5.48127 -2.44042 -20
    endloop
  endfacet
  facet normal -0.898198 -0.291842 -0.328737
    outer loop
      vertex -18.2709 -8.13473 20
      vertex -19.563 -4.15823 20
      vertex -5.48127 -2.44042 -20
    endloop
  endfacet
  facet normal -0.898198 -0.291842 -0.328737
    outer loop
      vertex -5.48127 -2.44042 -20
      vertex -19.563 -4.15823 20
      vertex -5.86889 -1.24747 -20
    endloop
  endfacet
  facet normal 0.994522 -0.104528 1.1604e-17
    outer loop
      vertex -11 1.46953e-15 12
      vertex -10.7596 2.28703 12
      vertex -10.7596 2.28703 20
    endloop
  endfacet
  facet normal 0.994522 -0.104528 1.28006e-17
    outer loop
      vertex -11 2.44921e-15 20
      vertex -11 1.46953e-15 12
      vertex -10.7596 2.28703 20
    endloop
  endfacet
  facet normal 0.994522 0.104528 -1.1605e-17
    outer loop
      vertex -10.7596 -2.28703 20
      vertex -10.7596 -2.28703 12
      vertex -11 1.46953e-15 12
    endloop
  endfacet
  facet normal 0.994522 0.104528 -1.28006e-17
    outer loop
      vertex -11 2.44921e-15 20
      vertex -10.7596 -2.28703 20
      vertex -11 1.46953e-15 12
    endloop
  endfacet
  facet normal 0.951056 0.309017 -3.43078e-17
    outer loop
      vertex -10.049 -4.4741 20
      vertex -10.049 -4.4741 12
      vertex -10.7596 -2.28703 12
    endloop
  endfacet
  facet normal 0.951056 0.309017 -3.43078e-17
    outer loop
      vertex -10.7596 -2.28703 20
      vertex -10.049 -4.4741 20
      vertex -10.7596 -2.28703 12
    endloop
  endfacet
  facet normal 0.866025 0.5 -5.55111e-17
    outer loop
      vertex -8.89919 -6.46564 20
      vertex -8.89919 -6.46564 12
      vertex -10.049 -4.4741 12
    endloop
  endfacet
  facet normal 0.866025 0.5 -5.55111e-17
    outer loop
      vertex -10.049 -4.4741 20
      vertex -8.89919 -6.46564 20
      vertex -10.049 -4.4741 12
    endloop
  endfacet
  facet normal 0.743145 0.669131 -1.48577e-16
    outer loop
      vertex -7.36044 -8.17459 20
      vertex -7.36044 -8.17459 12
      vertex -8.89919 -6.46564 12
    endloop
  endfacet
  facet normal 0.743145 0.669131 -7.42884e-17
    outer loop
      vertex -8.89919 -6.46564 20
      vertex -7.36044 -8.17459 20
      vertex -8.89919 -6.46564 12
    endloop
  endfacet
  facet normal 0.587785 0.809017 -1.79638e-16
    outer loop
      vertex -5.5 -9.52628 12
      vertex -7.36044 -8.17459 12
      vertex -5.5 -9.52628 20
    endloop
  endfacet
  facet normal 0.587785 0.809017 -1.79641e-16
    outer loop
      vertex -5.5 -9.52628 20
      vertex -7.36044 -8.17459 12
      vertex -7.36044 -8.17459 20
    endloop
  endfacet
  facet normal 0.406737 0.913545 -2.02848e-16
    outer loop
      vertex -3.39919 -10.4616 12
      vertex -5.5 -9.52628 12
      vertex -3.39919 -10.4616 20
    endloop
  endfacet
  facet normal 0.406737 0.913545 -2.02849e-16
    outer loop
      vertex -3.39919 -10.4616 20
      vertex -5.5 -9.52628 12
      vertex -5.5 -9.52628 20
    endloop
  endfacet
  facet normal 0.207912 0.978148 -2.17192e-16
    outer loop
      vertex -1.14981 -10.9397 12
      vertex -3.39919 -10.4616 12
      vertex -1.14981 -10.9397 20
    endloop
  endfacet
  facet normal 0.207912 0.978148 -2.17188e-16
    outer loop
      vertex -1.14981 -10.9397 20
      vertex -3.39919 -10.4616 12
      vertex -3.39919 -10.4616 20
    endloop
  endfacet
  facet normal 0 1 -2.22045e-16
    outer loop
      vertex 1.14981 -10.9397 12
      vertex -1.14981 -10.9397 12
      vertex 1.14981 -10.9397 20
    endloop
  endfacet
  facet normal 0 1 -2.22045e-16
    outer loop
      vertex 1.14981 -10.9397 20
      vertex -1.14981 -10.9397 12
      vertex -1.14981 -10.9397 20
    endloop
  endfacet
  facet normal -0.207912 0.978148 -2.17192e-16
    outer loop
      vertex 3.39919 -10.4616 12
      vertex 1.14981 -10.9397 12
      vertex 3.39919 -10.4616 20
    endloop
  endfacet
  facet normal -0.207912 0.978148 -2.17194e-16
    outer loop
      vertex 3.39919 -10.4616 20
      vertex 1.14981 -10.9397 12
      vertex 1.14981 -10.9397 20
    endloop
  endfacet
  facet normal -0.406737 0.913545 -2.02848e-16
    outer loop
      vertex 5.5 -9.52628 12
      vertex 3.39919 -10.4616 12
      vertex 5.5 -9.52628 20
    endloop
  endfacet
  facet normal -0.406737 0.913545 -2.02849e-16
    outer loop
      vertex 5.5 -9.52628 20
      vertex 3.39919 -10.4616 12
      vertex 3.39919 -10.4616 20
    endloop
  endfacet
  facet normal -0.587785 0.809017 -1.79638e-16
    outer loop
      vertex 7.36044 -8.17459 12
      vertex 5.5 -9.52628 12
      vertex 7.36044 -8.17459 20
    endloop
  endfacet
  facet normal -0.587785 0.809017 -1.79641e-16
    outer loop
      vertex 7.36044 -8.17459 20
      vertex 5.5 -9.52628 12
      vertex 5.5 -9.52628 20
    endloop
  endfacet
  facet normal -0.743145 0.669131 -7.42884e-17
    outer loop
      vertex 8.89919 -6.46564 12
      vertex 7.36044 -8.17459 12
      vertex 8.89919 -6.46564 20
    endloop
  endfacet
  facet normal -0.743145 0.669131 -1.48572e-16
    outer loop
      vertex 8.89919 -6.46564 20
      vertex 7.36044 -8.17459 12
      vertex 7.36044 -8.17459 20
    endloop
  endfacet
  facet normal -0.866025 0.5 -5.55111e-17
    outer loop
      vertex 10.049 -4.4741 12
      vertex 8.89919 -6.46564 12
      vertex 10.049 -4.4741 20
    endloop
  endfacet
  facet normal -0.866025 0.5 -5.55037e-17
    outer loop
      vertex 10.049 -4.4741 20
      vertex 8.89919 -6.46564 12
      vertex 8.89919 -6.46564 20
    endloop
  endfacet
  facet normal -0.951056 0.309017 -3.43078e-17
    outer loop
      vertex 10.7596 -2.28703 12
      vertex 10.049 -4.4741 12
      vertex 10.7596 -2.28703 20
    endloop
  endfacet
  facet normal -0.951056 0.309017 -3.43112e-17
    outer loop
      vertex 10.7596 -2.28703 20
      vertex 10.049 -4.4741 12
      vertex 10.049 -4.4741 20
    endloop
  endfacet
  facet normal -0.994522 0.104528 -1.28006e-17
    outer loop
      vertex 11 1.46953e-15 12
      vertex 10.7596 -2.28703 12
      vertex 11 2.44921e-15 20
    endloop
  endfacet
  facet normal -0.994522 0.104528 -1.1607e-17
    outer loop
      vertex 11 2.44921e-15 20
      vertex 10.7596 -2.28703 12
      vertex 10.7596 -2.28703 20
    endloop
  endfacet
  facet normal -0.994522 -0.104528 1.28006e-17
    outer loop
      vertex 11 1.46953e-15 12
      vertex 11 2.44921e-15 20
      vertex 10.7596 2.28703 12
    endloop
  endfacet
  facet normal -0.994522 -0.104528 1.1605e-17
    outer loop
      vertex 10.7596 2.28703 12
      vertex 11 2.44921e-15 20
      vertex 10.7596 2.28703 20
    endloop
  endfacet
  facet normal -0.951056 -0.309017 3.43078e-17
    outer loop
      vertex 10.7596 2.28703 12
      vertex 10.7596 2.28703 20
      vertex 10.049 4.4741 12
    endloop
  endfacet
  facet normal -0.951056 -0.309017 3.43078e-17
    outer loop
      vertex 10.049 4.4741 12
      vertex 10.7596 2.28703 20
      vertex 10.049 4.4741 20
    endloop
  endfacet
  facet normal -0.866025 -0.5 5.55111e-17
    outer loop
      vertex 10.049 4.4741 12
      vertex 10.049 4.4741 20
      vertex 8.89919 6.46564 12
    endloop
  endfacet
  facet normal -0.866025 -0.5 5.55111e-17
    outer loop
      vertex 8.89919 6.46564 12
      vertex 10.049 4.4741 20
      vertex 8.89919 6.46564 20
    endloop
  endfacet
  facet normal -0.743145 -0.669131 7.42884e-17
    outer loop
      vertex 8.89919 6.46564 12
      vertex 8.89919 6.46564 20
      vertex 7.36044 8.17459 12
    endloop
  endfacet
  facet normal -0.743145 -0.669131 1.48577e-16
    outer loop
      vertex 7.36044 8.17459 12
      vertex 8.89919 6.46564 20
      vertex 7.36044 8.17459 20
    endloop
  endfacet
  facet normal -0.587785 -0.809017 1.79641e-16
    outer loop
      vertex 5.5 9.52628 12
      vertex 7.36044 8.17459 12
      vertex 7.36044 8.17459 20
    endloop
  endfacet
  facet normal -0.587785 -0.809017 1.79638e-16
    outer loop
      vertex 5.5 9.52628 20
      vertex 5.5 9.52628 12
      vertex 7.36044 8.17459 20
    endloop
  endfacet
  facet normal -0.406737 -0.913545 2.02844e-16
    outer loop
      vertex 3.39919 10.4616 12
      vertex 5.5 9.52628 12
      vertex 5.5 9.52628 20
    endloop
  endfacet
  facet normal -0.406737 -0.913545 2.02848e-16
    outer loop
      vertex 3.39919 10.4616 20
      vertex 3.39919 10.4616 12
      vertex 5.5 9.52628 20
    endloop
  endfacet
  facet normal -0.207912 -0.978148 2.17194e-16
    outer loop
      vertex 1.14981 10.9397 12
      vertex 3.39919 10.4616 12
      vertex 3.39919 10.4616 20
    endloop
  endfacet
  facet normal -0.207912 -0.978148 2.17192e-16
    outer loop
      vertex 1.14981 10.9397 20
      vertex 1.14981 10.9397 12
      vertex 3.39919 10.4616 20
    endloop
  endfacet
  facet normal 0 -1 2.22045e-16
    outer loop
      vertex -1.14981 10.9397 12
      vertex 1.14981 10.9397 12
      vertex 1.14981 10.9397 20
    endloop
  endfacet
  facet normal 0 -1 2.22045e-16
    outer loop
      vertex -1.14981 10.9397 20
      vertex -1.14981 10.9397 12
      vertex 1.14981 10.9397 20
    endloop
  endfacet
  facet normal 0.207912 -0.978148 2.17194e-16
    outer loop
      vertex -3.39919 10.4616 12
      vertex -1.14981 10.9397 12
      vertex -1.14981 10.9397 20
    endloop
  endfacet
  facet normal 0.207912 -0.978148 2.17192e-16
    outer loop
      vertex -3.39919 10.4616 20
      vertex -3.39919 10.4616 12
      vertex -1.14981 10.9397 20
    endloop
  endfacet
  facet normal 0.406737 -0.913545 2.02849e-16
    outer loop
      vertex -5.5 9.52628 12
      vertex -3.39919 10.4616 12
      vertex -3.39919 10.4616 20
    endloop
  endfacet
  facet normal 0.406737 -0.913545 2.02848e-16
    outer loop
      vertex -5.5 9.52628 20
      vertex -5.5 9.52628 12
      vertex -3.39919 10.4616 20
    endloop
  endfacet
  facet normal 0.587785 -0.809017 1.79641e-16
    outer loop
      vertex -7.36044 8.17459 12
      vertex -5.5 9.52628 12
      vertex -5.5 9.52628 20
    endloop
  endfacet
  facet normal 0.587785 -0.809017 1.79638e-16
    outer loop
      vertex -7.36044 8.17459 20
      vertex -7.36044 8.17459 12
      vertex -5.5 9.52628 20
    endloop
  endfacet
  facet normal 0.743145 -0.669131 1.48583e-16
    outer loop
      vertex -8.89919 6.46564 12
      vertex -7.36044 8.17459 12
      vertex -7.36044 8.17459 20
    endloop
  endfacet
  facet normal 0.743145 -0.669131 7.42884e-17
    outer loop
      vertex -8.89919 6.46564 20
      vertex -8.89919 6.46564 12
      vertex -7.36044 8.17459 20
    endloop
  endfacet
  facet normal 0.866025 -0.5 5.55037e-17
    outer loop
      vertex -10.049 4.4741 12
      vertex -8.89919 6.46564 12
      vertex -8.89919 6.46564 20
    endloop
  endfacet
  facet normal 0.866025 -0.5 5.55111e-17
    outer loop
      vertex -10.049 4.4741 20
      vertex -10.049 4.4741 12
      vertex -8.89919 6.46564 20
    endloop
  endfacet
  facet normal 0.951056 -0.309017 3.43053e-17
    outer loop
      vertex -10.7596 2.28703 12
      vertex -10.049 4.4741 12
      vertex -10.049 4.4741 20
    endloop
  endfacet
  facet normal 0.951056 -0.309017 3.43078e-17
    outer loop
      vertex -10.7596 2.28703 20
      vertex -10.7596 2.28703 12
      vertex -10.049 4.4741 20
    endloop
  endfacet
  facet normal 1.35482e-14 -1.42397e-15 -1
    outer loop
      vertex -6 -2.44921e-15 -20
      vertex -5.86889 1.24747 -20
      vertex -5.86889 -1.24747 -20
    endloop
  endfacet
  facet normal 4.38252e-15 -1.42397e-15 -1
    outer loop
      vertex -5.86889 -1.24747 -20
      vertex -5.86889 1.24747 -20
      vertex -5.48127 2.44042 -20
    endloop
  endfacet
  facet normal 2.03992e-15 -1.17775e-15 -1
    outer loop
      vertex -5.86889 -1.24747 -20
      vertex -5.48127 2.44042 -20
      vertex -4.8541 3.52671 -20
    endloop
  endfacet
  facet normal 1.08186e-15 -9.74107e-16 -1
    outer loop
      vertex -5.86889 -1.24747 -20
      vertex -4.8541 3.52671 -20
      vertex -4.01478 4.45887 -20
    endloop
  endfacet
  facet normal 5.92118e-16 -8.14982e-16 -1
    outer loop
      vertex -5.86889 -1.24747 -20
      vertex -4.01478 4.45887 -20
      vertex -3 5.19615 -20
    endloop
  endfacet
  facet normal 0 0 -1
    outer loop
      vertex -3.64058 2.64503 -20
      vertex -3 5.19615 -20
      vertex -1.8541 5.70634 -20
    endloop
  endfacet
  facet normal 0 0 -1
    outer loop
      vertex -2.25 3.89711 -20
      vertex -1.8541 5.70634 -20
      vertex -0.627171 5.96713 -20
    endloop
  endfacet
  facet normal 0 0 -1
    outer loop
      vertex -0.470378 4.47535 -20
      vertex 0.627171 5.96713 -20
      vertex 1.8541 5.70634 -20
    endloop
  endfacet
  facet normal 0 0 -1
    outer loop
      vertex 1.39058 4.27975 -20
      vertex 1.8541 5.70634 -20
      vertex 3 5.19615 -20
    endloop
  endfacet
  facet normal 0 0 -1
    outer loop
      vertex 4.11095 -1.83032 -20
      vertex 5.48127 -2.44042 -20
      vertex 4.8541 -3.52671 -20
    endloop
  endfacet
  facet normal 0 0 -1
    outer loop
      vertex 3.01109 3.34415 -20
      vertex 4.01478 4.45887 -20
      vertex 4.8541 3.52671 -20
    endloop
  endfacet
  facet normal -0 -2.84794e-15 -1
    outer loop
      vertex 4.5 -2.44921e-15 -20
      vertex 6 -2.44921e-15 -20
      vertex 5.86889 -1.24747 -20
    endloop
  endfacet
  facet normal -0 0 -1
    outer loop
      vertex 4.11095 1.83031 -20
      vertex 5.48127 2.44042 -20
      vertex 5.86889 1.24747 -20
    endloop
  endfacet
  facet normal -0 0 -1
    outer loop
      vertex 4.5 -2.44921e-15 -20
      vertex 5.86889 1.24747 -20
      vertex 6 -2.44921e-15 -20
    endloop
  endfacet
  facet normal -0 0 -1
    outer loop
      vertex 4.11095 -1.83032 -20
      vertex 5.86889 -1.24747 -20
      vertex 5.48127 -2.44042 -20
    endloop
  endfacet
  facet normal 0 0 -1
    outer loop
      vertex 3.01109 -3.34415 -20
      vertex 4.8541 -3.52671 -20
      vertex 4.01478 -4.45887 -20
    endloop
  endfacet
  facet normal 0 0 -1
    outer loop
      vertex 1.39058 -4.27975 -20
      vertex 4.01478 -4.45887 -20
      vertex 3 -5.19615 -20
    endloop
  endfacet
  facet normal 0 0 -1
    outer loop
      vertex -0.470378 -4.47535 -20
      vertex 1.8541 -5.70634 -20
      vertex 0.627171 -5.96713 -20
    endloop
  endfacet
  facet normal 0 0 -1
    outer loop
      vertex -2.25 -3.89711 -20
      vertex 0.627171 -5.96713 -20
      vertex -0.627171 -5.96713 -20
    endloop
  endfacet
  facet normal 0 0 -1
    outer loop
      vertex -5.86889 -1.24747 -20
      vertex -0.627171 -5.96713 -20
      vertex -1.8541 -5.70634 -20
    endloop
  endfacet
  facet normal 0 0 -1
    outer loop
      vertex -5.86889 -1.24747 -20
      vertex -1.8541 -5.70634 -20
      vertex -3 -5.19615 -20
    endloop
  endfacet
  facet normal 0 0 -1
    outer loop
      vertex -5.86889 -1.24747 -20
      vertex -3 -5.19615 -20
      vertex -4.01478 -4.45887 -20
    endloop
  endfacet
  facet normal 0 0 -1
    outer loop
      vertex -5.86889 -1.24747 -20
      vertex -4.01478 -4.45887 -20
      vertex -4.8541 -3.52671 -20
    endloop
  endfacet
  facet normal 0 0 -1
    outer loop
      vertex -5.86889 -1.24747 -20
      vertex -4.8541 -3.52671 -20
      vertex -5.48127 -2.44042 -20
    endloop
  endfacet
  facet normal 4.03564e-16 -1.89862e-15 -1
    outer loop
      vertex -4.40166 -0.935603 -20
      vertex -5.86889 -1.24747 -20
      vertex -4.40166 0.935603 -20
    endloop
  endfacet
  facet normal 0 0 -1
    outer loop
      vertex -3.64058 -2.64503 -20
      vertex -5.86889 -1.24747 -20
      vertex -4.40166 -0.935603 -20
    endloop
  endfacet
  facet normal 0 0 -1
    outer loop
      vertex -2.25 -3.89711 -20
      vertex -5.86889 -1.24747 -20
      vertex -3.64058 -2.64503 -20
    endloop
  endfacet
  facet normal 0 0 -1
    outer loop
      vertex -0.470378 -4.47535 -20
      vertex 0.627171 -5.96713 -20
      vertex -2.25 -3.89711 -20
    endloop
  endfacet
  facet normal 0 0 -1
    outer loop
      vertex -5.86889 -1.24747 -20
      vertex -2.25 -3.89711 -20
      vertex -0.627171 -5.96713 -20
    endloop
  endfacet
  facet normal 0 0 -1
    outer loop
      vertex 1.39058 -4.27975 -20
      vertex 1.8541 -5.70634 -20
      vertex -0.470378 -4.47535 -20
    endloop
  endfacet
  facet normal 0 0 -1
    outer loop
      vertex 4.11095 1.83031 -20
      vertex 5.86889 1.24747 -20
      vertex 4.5 -2.44921e-15 -20
    endloop
  endfacet
  facet normal 6.92347e-16 -2.0882e-15 -1
    outer loop
      vertex 4.5 -2.44921e-15 -20
      vertex 5.86889 -1.24747 -20
      vertex 4.11095 -1.83032 -20
    endloop
  endfacet
  facet normal 0 0 -1
    outer loop
      vertex 1.39058 -4.27975 -20
      vertex 3 -5.19615 -20
      vertex 1.8541 -5.70634 -20
    endloop
  endfacet
  facet normal 0 0 -1
    outer loop
      vertex 4.11095 -1.83032 -20
      vertex 4.8541 -3.52671 -20
      vertex 3.01109 -3.34415 -20
    endloop
  endfacet
  facet normal 0 0 -1
    outer loop
      vertex 3.01109 -3.34415 -20
      vertex 4.01478 -4.45887 -20
      vertex 1.39058 -4.27975 -20
    endloop
  endfacet
  facet normal 0 0 -1
    outer loop
      vertex -3.64058 2.64503 -20
      vertex -1.8541 5.70634 -20
      vertex -2.25 3.89711 -20
    endloop
  endfacet
  facet normal -2.84009e-15 7.13135e-16 -1
    outer loop
      vertex -5.86889 -1.24747 -20
      vertex -3 5.19615 -20
      vertex -3.64058 2.64503 -20
    endloop
  endfacet
  facet normal -7.17351e-15 3.19385e-15 -1
    outer loop
      vertex -4.40166 0.935603 -20
      vertex -5.86889 -1.24747 -20
      vertex -3.64058 2.64503 -20
    endloop
  endfacet
  facet normal 0 0 -1
    outer loop
      vertex -2.25 3.89711 -20
      vertex -0.627171 5.96713 -20
      vertex 0.627171 5.96713 -20
    endloop
  endfacet
  facet normal 0 0 -1
    outer loop
      vertex -2.25 3.89711 -20
      vertex 0.627171 5.96713 -20
      vertex -0.470378 4.47535 -20
    endloop
  endfacet
  facet normal -0 0 -1
    outer loop
      vertex -0.470378 4.47535 -20
      vertex 1.8541 5.70634 -20
      vertex 1.39058 4.27975 -20
    endloop
  endfacet
  facet normal 0 0 -1
    outer loop
      vertex 1.39058 4.27975 -20
      vertex 3 5.19615 -20
      vertex 4.01478 4.45887 -20
    endloop
  endfacet
  facet normal -0 0 -1
    outer loop
      vertex 1.39058 4.27975 -20
      vertex 4.01478 4.45887 -20
      vertex 3.01109 3.34415 -20
    endloop
  endfacet
  facet normal -0 0 -1
    outer loop
      vertex 3.01109 3.34415 -20
      vertex 4.8541 3.52671 -20
      vertex 5.48127 2.44042 -20
    endloop
  endfacet
  facet normal 0 0 -1
    outer loop
      vertex 3.01109 3.34415 -20
      vertex 5.48127 2.44042 -20
      vertex 4.11095 1.83031 -20
    endloop
  endfacet
  facet normal 0 0 1
    outer loop
      vertex -10.7596 -2.28703 12
      vertex -10.049 -4.4741 12
      vertex -8.89919 -6.46564 12
    endloop
  endfacet
  facet normal 0 0 1
    outer loop
      vertex -5.5 -9.52628 12
      vertex -10.7596 -2.28703 12
      vertex -7.36044 -8.17459 12
    endloop
  endfacet
  facet normal 0 0 1
    outer loop
      vertex -7.36044 -8.17459 12
      vertex -10.7596 -2.28703 12
      vertex -8.89919 -6.46564 12
    endloop
  endfacet
  facet normal 0 0 1
    outer loop
      vertex -3.39919 -10.4616 12
      vertex -10.7596 -2.28703 12
      vertex -5.5 -9.52628 12
    endloop
  endfacet
  facet normal 0 0 1
    outer loop
      vertex -1.14981 -10.9397 12
      vertex -10.7596 -2.28703 12
      vertex -3.39919 -10.4616 12
    endloop
  endfacet
  facet normal -0 0 1
    outer loop
      vertex 1.14981 -10.9397 12
      vertex -10.7596 -2.28703 12
      vertex -1.14981 -10.9397 12
    endloop
  endfacet
  facet normal -0 0 1
    outer loop
      vertex 3.39919 -10.4616 12
      vertex -10.7596 -2.28703 12
      vertex 1.14981 -10.9397 12
    endloop
  endfacet
  facet normal -0 0 1
    outer loop
      vertex 5.5 -9.52628 12
      vertex -10.7596 -2.28703 12
      vertex 3.39919 -10.4616 12
    endloop
  endfacet
  facet normal -0 0 1
    outer loop
      vertex 7.36044 -8.17459 12
      vertex -10.7596 -2.28703 12
      vertex 5.5 -9.52628 12
    endloop
  endfacet
  facet normal -0 -0 1
    outer loop
      vertex -0.470378 -4.47535 12
      vertex -10.7596 -2.28703 12
      vertex 7.36044 -8.17459 12
    endloop
  endfacet
  facet normal 0 -0 1
    outer loop
      vertex 1.39058 -4.27975 12
      vertex -0.470378 -4.47535 12
      vertex 8.89919 -6.46564 12
    endloop
  endfacet
  facet normal 0 0 1
    outer loop
      vertex -0.470378 4.47535 12
      vertex 1.39058 4.27975 12
      vertex 7.36044 8.17459 12
    endloop
  endfacet
  facet normal 0 0 1
    outer loop
      vertex 1.39058 4.27975 12
      vertex 3.01109 3.34415 12
      vertex 8.89919 6.46564 12
    endloop
  endfacet
  facet normal 2.39606e-17 1.12726e-16 1
    outer loop
      vertex 1.14981 10.9397 12
      vertex -10.7596 -2.28703 12
      vertex 3.39919 10.4616 12
    endloop
  endfacet
  facet normal 0 1.343e-16 1
    outer loop
      vertex -1.14981 10.9397 12
      vertex -10.7596 -2.28703 12
      vertex 1.14981 10.9397 12
    endloop
  endfacet
  facet normal -3.376e-17 1.58828e-16 1
    outer loop
      vertex -3.39919 10.4616 12
      vertex -10.7596 -2.28703 12
      vertex -1.14981 10.9397 12
    endloop
  endfacet
  facet normal -8.3501e-17 1.87546e-16 1
    outer loop
      vertex -5.5 9.52628 12
      vertex -10.7596 -2.28703 12
      vertex -3.39919 10.4616 12
    endloop
  endfacet
  facet normal -1.61487e-16 2.22268e-16 1
    outer loop
      vertex -7.36044 8.17459 12
      vertex -10.7596 -2.28703 12
      vertex -5.5 9.52628 12
    endloop
  endfacet
  facet normal -2.95051e-16 2.65665e-16 1
    outer loop
      vertex -8.89919 6.46564 12
      vertex -10.7596 -2.28703 12
      vertex -7.36044 8.17459 12
    endloop
  endfacet
  facet normal -5.56343e-16 3.21205e-16 1
    outer loop
      vertex -10.049 4.4741 12
      vertex -10.7596 -2.28703 12
      vertex -8.89919 6.46564 12
    endloop
  endfacet
  facet normal -1.19523e-15 3.88355e-16 1
    outer loop
      vertex -10.7596 2.28703 12
      vertex -10.7596 -2.28703 12
      vertex -10.049 4.4741 12
    endloop
  endfacet
  facet normal 3.69495e-15 3.88355e-16 1
    outer loop
      vertex -11 1.46953e-15 12
      vertex -10.7596 -2.28703 12
      vertex -10.7596 2.28703 12
    endloop
  endfacet
  facet normal 0 0 1
    outer loop
      vertex 3.01109 3.34415 12
      vertex 4.11095 1.83032 12
      vertex 10.049 4.4741 12
    endloop
  endfacet
  facet normal 1.0822e-15 -1.2019e-15 1
    outer loop
      vertex -3.64058 2.64503 12
      vertex -2.25 3.89711 12
      vertex -10.7596 -2.28703 12
    endloop
  endfacet
  facet normal -6.57081e-17 9.56553e-16 1
    outer loop
      vertex 4.11095 1.83032 12
      vertex 4.5 1.46953e-15 12
      vertex 10.7596 2.28703 12
    endloop
  endfacet
  facet normal 0 0 1
    outer loop
      vertex -2.25 3.89711 12
      vertex -0.470378 4.47535 12
      vertex 5.5 9.52628 12
    endloop
  endfacet
  facet normal 0 -0 1
    outer loop
      vertex 3.39919 10.4616 12
      vertex -2.25 3.89711 12
      vertex 5.5 9.52628 12
    endloop
  endfacet
  facet normal 5.57242e-16 -4.79543e-16 1
    outer loop
      vertex 3.39919 10.4616 12
      vertex -10.7596 -2.28703 12
      vertex -2.25 3.89711 12
    endloop
  endfacet
  facet normal 0 -0 1
    outer loop
      vertex 5.5 9.52628 12
      vertex -0.470378 4.47535 12
      vertex 7.36044 8.17459 12
    endloop
  endfacet
  facet normal 0 -0 1
    outer loop
      vertex 7.36044 8.17459 12
      vertex 1.39058 4.27975 12
      vertex 8.89919 6.46564 12
    endloop
  endfacet
  facet normal 0 -0 1
    outer loop
      vertex 8.89919 6.46564 12
      vertex 3.01109 3.34415 12
      vertex 10.049 4.4741 12
    endloop
  endfacet
  facet normal 3.60817e-16 -1.60646e-16 1
    outer loop
      vertex -4.40166 0.935603 12
      vertex -3.64058 2.64503 12
      vertex -10.7596 -2.28703 12
    endloop
  endfacet
  facet normal 0 -0 1
    outer loop
      vertex 10.049 4.4741 12
      vertex 4.11095 1.83032 12
      vertex 10.7596 2.28703 12
    endloop
  endfacet
  facet normal -1.2215e-33 7.76709e-16 1
    outer loop
      vertex 10.7596 2.28703 12
      vertex 4.5 1.46953e-15 12
      vertex 11 1.46953e-15 12
    endloop
  endfacet
  facet normal 0 0 1
    outer loop
      vertex 11 1.46953e-15 12
      vertex 4.11095 -1.83031 12
      vertex 10.7596 -2.28703 12
    endloop
  endfacet
  facet normal 0 0 1
    outer loop
      vertex 10.7596 -2.28703 12
      vertex 3.01109 -3.34415 12
      vertex 10.049 -4.4741 12
    endloop
  endfacet
  facet normal -0 0 1
    outer loop
      vertex 10.049 -4.4741 12
      vertex 1.39058 -4.27975 12
      vertex 8.89919 -6.46564 12
    endloop
  endfacet
  facet normal 0 0 1
    outer loop
      vertex -0.470378 -4.47535 12
      vertex -2.25 -3.89711 12
      vertex -10.7596 -2.28703 12
    endloop
  endfacet
  facet normal -0 0 1
    outer loop
      vertex 8.89919 -6.46564 12
      vertex -0.470378 -4.47535 12
      vertex 7.36044 -8.17459 12
    endloop
  endfacet
  facet normal 0 0 1
    outer loop
      vertex -2.25 -3.89711 12
      vertex -3.64058 -2.64503 12
      vertex -10.7596 -2.28703 12
    endloop
  endfacet
  facet normal 0 0 1
    outer loop
      vertex -3.64058 -2.64503 12
      vertex -4.40166 -0.935603 12
      vertex -10.7596 -2.28703 12
    endloop
  endfacet
  facet normal 0 -0 1
    outer loop
      vertex 3.01109 -3.34415 12
      vertex 1.39058 -4.27975 12
      vertex 10.049 -4.4741 12
    endloop
  endfacet
  facet normal 0 -0 1
    outer loop
      vertex 4.11095 -1.83031 12
      vertex 3.01109 -3.34415 12
      vertex 10.7596 -2.28703 12
    endloop
  endfacet
  facet normal 0 -0 1
    outer loop
      vertex 4.5 1.46953e-15 12
      vertex 4.11095 -1.83031 12
      vertex 11 1.46953e-15 12
    endloop
  endfacet
  facet normal -2.01782e-16 9.49311e-16 1
    outer loop
      vertex -4.40166 -0.935603 12
      vertex -4.40166 0.935603 12
      vertex -10.7596 -2.28703 12
    endloop
  endfacet
  facet normal 1 0 -0
    outer loop
      vertex -4.40166 -0.935603 12
      vertex -4.40166 -0.935603 -20
      vertex -4.40166 0.935603 -20
    endloop
  endfacet
  facet normal 1 -0 0
    outer loop
      vertex -4.40166 0.935603 12
      vertex -4.40166 -0.935603 12
      vertex -4.40166 0.935603 -20
    endloop
  endfacet
  facet normal 0.913545 -0.406737 5.08019e-17
    outer loop
      vertex -4.40166 0.935603 -20
      vertex -3.64058 2.64503 -20
      vertex -3.64058 2.64503 12
    endloop
  endfacet
  facet normal 0.913545 -0.406737 5.08015e-17
    outer loop
      vertex -4.40166 0.935603 12
      vertex -4.40166 0.935603 -20
      vertex -3.64058 2.64503 12
    endloop
  endfacet
  facet normal 0.669131 -0.743145 9.28185e-17
    outer loop
      vertex -3.64058 2.64503 -20
      vertex -2.25 3.89711 -20
      vertex -2.25 3.89711 12
    endloop
  endfacet
  facet normal 0.669131 -0.743145 9.28189e-17
    outer loop
      vertex -3.64058 2.64503 12
      vertex -3.64058 2.64503 -20
      vertex -2.25 3.89711 12
    endloop
  endfacet
  facet normal 0.309017 -0.951056 1.05587e-16
    outer loop
      vertex -2.25 3.89711 -20
      vertex -0.470378 4.47535 -20
      vertex -0.470378 4.47535 12
    endloop
  endfacet
  facet normal 0.309017 -0.951056 1.18787e-16
    outer loop
      vertex -2.25 3.89711 12
      vertex -2.25 3.89711 -20
      vertex -0.470378 4.47535 12
    endloop
  endfacet
  facet normal -0.104529 -0.994522 1.10414e-16
    outer loop
      vertex -0.470378 4.47535 -20
      vertex 1.39058 4.27975 -20
      vertex 1.39058 4.27975 12
    endloop
  endfacet
  facet normal -0.104529 -0.994522 1.10414e-16
    outer loop
      vertex -0.470378 4.47535 12
      vertex -0.470378 4.47535 -20
      vertex 1.39058 4.27975 12
    endloop
  endfacet
  facet normal -0.5 -0.866026 1.08166e-16
    outer loop
      vertex 1.39058 4.27975 -20
      vertex 3.01109 3.34415 -20
      vertex 3.01109 3.34415 12
    endloop
  endfacet
  facet normal -0.5 -0.866026 9.61482e-17
    outer loop
      vertex 1.39058 4.27975 12
      vertex 1.39058 4.27975 -20
      vertex 3.01109 3.34415 12
    endloop
  endfacet
  facet normal -0.809017 -0.587785 7.34144e-17
    outer loop
      vertex 4.11095 1.83031 -20
      vertex 4.11095 1.83032 12
      vertex 3.01109 3.34415 -20
    endloop
  endfacet
  facet normal -0.809017 -0.587785 7.34144e-17
    outer loop
      vertex 3.01109 3.34415 -20
      vertex 4.11095 1.83032 12
      vertex 3.01109 3.34415 12
    endloop
  endfacet
  facet normal -0.978148 -0.207911 2.5461e-17
    outer loop
      vertex 4.5 -2.44921e-15 -20
      vertex 4.5 1.46953e-15 12
      vertex 4.11095 1.83031 -20
    endloop
  endfacet
  facet normal -0.978148 -0.207911 2.59682e-17
    outer loop
      vertex 4.11095 1.83031 -20
      vertex 4.5 1.46953e-15 12
      vertex 4.11095 1.83032 12
    endloop
  endfacet
  facet normal -0.978148 0.207911 -2.5461e-17
    outer loop
      vertex 4.5 -2.44921e-15 -20
      vertex 4.11095 -1.83032 -20
      vertex 4.5 1.46953e-15 12
    endloop
  endfacet
  facet normal -0.978148 0.207911 -2.59677e-17
    outer loop
      vertex 4.5 1.46953e-15 12
      vertex 4.11095 -1.83032 -20
      vertex 4.11095 -1.83031 12
    endloop
  endfacet
  facet normal -0.809017 0.587785 -7.34144e-17
    outer loop
      vertex 4.11095 -1.83032 -20
      vertex 3.01109 -3.34415 -20
      vertex 4.11095 -1.83031 12
    endloop
  endfacet
  facet normal -0.809017 0.587785 -7.34153e-17
    outer loop
      vertex 4.11095 -1.83031 12
      vertex 3.01109 -3.34415 -20
      vertex 3.01109 -3.34415 12
    endloop
  endfacet
  facet normal -0.5 0.866026 -1.08167e-16
    outer loop
      vertex 3.01109 -3.34415 -20
      vertex 1.39058 -4.27975 -20
      vertex 3.01109 -3.34415 12
    endloop
  endfacet
  facet normal -0.5 0.866026 -9.61483e-17
    outer loop
      vertex 3.01109 -3.34415 12
      vertex 1.39058 -4.27975 -20
      vertex 1.39058 -4.27975 12
    endloop
  endfacet
  facet normal -0.104529 0.994522 -1.10414e-16
    outer loop
      vertex 1.39058 -4.27975 -20
      vertex -0.470378 -4.47535 -20
      vertex 1.39058 -4.27975 12
    endloop
  endfacet
  facet normal -0.104529 0.994522 -1.10414e-16
    outer loop
      vertex 1.39058 -4.27975 12
      vertex -0.470378 -4.47535 -20
      vertex -0.470378 -4.47535 12
    endloop
  endfacet
  facet normal 0.309017 0.951056 -1.05588e-16
    outer loop
      vertex -0.470378 -4.47535 -20
      vertex -2.25 -3.89711 -20
      vertex -0.470378 -4.47535 12
    endloop
  endfacet
  facet normal 0.309017 0.951056 -1.18787e-16
    outer loop
      vertex -0.470378 -4.47535 12
      vertex -2.25 -3.89711 -20
      vertex -2.25 -3.89711 12
    endloop
  endfacet
  facet normal 0.669131 0.743145 -9.28189e-17
    outer loop
      vertex -2.25 -3.89711 -20
      vertex -3.64058 -2.64503 -20
      vertex -2.25 -3.89711 12
    endloop
  endfacet
  facet normal 0.669131 0.743145 -9.28185e-17
    outer loop
      vertex -2.25 -3.89711 12
      vertex -3.64058 -2.64503 -20
      vertex -3.64058 -2.64503 12
    endloop
  endfacet
  facet normal 0.913545 0.406737 -5.08015e-17
    outer loop
      vertex -3.64058 -2.64503 12
      vertex -3.64058 -2.64503 -20
      vertex -4.40166 -0.935603 -20
    endloop
  endfacet
  facet normal 0.913545 0.406737 -5.08015e-17
    outer loop
      vertex -4.40166 -0.935603 12
      vertex -3.64058 -2.64503 12
      vertex -4.40166 -0.935603 -20
    endloop
  endfacet
endsolid OpenSCAD_Model
