solid OpenSCAD_Model
  facet normal 4.06444e-15 4.2719e-16 1
    outer loop
      vertex -19.563 4.15823 17.5
      vertex -20 2.14306e-15 17.5
      vertex -19.563 -4.15823 17.5
    endloop
  endfacet
  facet normal 6.11977e-16 3.53325e-16 1
    outer loop
      vertex -16.1803 -11.7557 17.5
      vertex -19.563 4.15823 17.5
      vertex -18.2709 -8.13473 17.5
    endloop
  endfacet
  facet normal 1.31476e-15 4.2719e-16 1
    outer loop
      vertex -18.2709 -8.13473 17.5
      vertex -19.563 4.15823 17.5
      vertex -19.563 -4.15823 17.5
    endloop
  endfacet
  facet normal 3.24557e-16 2.92232e-16 1
    outer loop
      vertex -13.3826 -14.8629 17.5
      vertex -19.563 4.15823 17.5
      vertex -16.1803 -11.7557 17.5
    endloop
  endfacet
  facet normal 1.77636e-16 2.44495e-16 1
    outer loop
      vertex -10 -17.3205 17.5
      vertex -19.563 4.15823 17.5
      vertex -13.3826 -14.8629 17.5
    endloop
  endfacet
  facet normal 9.1851e-17 2.06301e-16 1
    outer loop
      vertex -6.18034 -19.0211 17.5
      vertex -19.563 4.15823 17.5
      vertex -10 -17.3205 17.5
    endloop
  endfacet
  facet normal 3.7136e-17 1.74711e-16 1
    outer loop
      vertex -2.09057 -19.8904 17.5
      vertex -19.563 4.15823 17.5
      vertex -6.18034 -19.0211 17.5
    endloop
  endfacet
  facet normal -0 1.4773e-16 1
    outer loop
      vertex 2.09057 -19.8904 17.5
      vertex -19.563 4.15823 17.5
      vertex -2.09057 -19.8904 17.5
    endloop
  endfacet
  facet normal -1.57632e-15 -1.2716e-15 1
    outer loop
      vertex -7.36044 -8.17459 17.5
      vertex -19.563 4.15823 17.5
      vertex 2.09057 -19.8904 17.5
    endloop
  endfacet
  facet normal -7.84251e-16 -4.52788e-16 1
    outer loop
      vertex -8.89919 -6.46564 17.5
      vertex -10.049 -4.4741 17.5
      vertex -19.563 4.15823 17.5
    endloop
  endfacet
  facet normal 0 0 1
    outer loop
      vertex -10.7596 2.28703 17.5
      vertex -10.049 4.4741 17.5
      vertex -19.563 4.15823 17.5
    endloop
  endfacet
  facet normal 0 0 1
    outer loop
      vertex 10.049 4.4741 17.5
      vertex 10.7596 2.28703 17.5
      vertex 19.563 4.15823 17.5
    endloop
  endfacet
  facet normal 0 0 1
    outer loop
      vertex 1.14981 10.9397 17.5
      vertex 3.39919 10.4616 17.5
      vertex 13.3826 14.8629 17.5
    endloop
  endfacet
  facet normal 0 0 1
    outer loop
      vertex 5.5 9.52628 17.5
      vertex 7.36044 8.17459 17.5
      vertex 16.1803 11.7557 17.5
    endloop
  endfacet
  facet normal 0 -0 1
    outer loop
      vertex 6.18034 19.0211 17.5
      vertex -19.563 4.15823 17.5
      vertex 10 17.3205 17.5
    endloop
  endfacet
  facet normal 0 -0 1
    outer loop
      vertex 2.09057 19.8904 17.5
      vertex -19.563 4.15823 17.5
      vertex 6.18034 19.0211 17.5
    endloop
  endfacet
  facet normal 0 -0 1
    outer loop
      vertex -2.09057 19.8904 17.5
      vertex -19.563 4.15823 17.5
      vertex 2.09057 19.8904 17.5
    endloop
  endfacet
  facet normal 0 -0 1
    outer loop
      vertex -6.18034 19.0211 17.5
      vertex -19.563 4.15823 17.5
      vertex -2.09057 19.8904 17.5
    endloop
  endfacet
  facet normal 0 -0 1
    outer loop
      vertex -10 17.3205 17.5
      vertex -19.563 4.15823 17.5
      vertex -6.18034 19.0211 17.5
    endloop
  endfacet
  facet normal 0 -0 1
    outer loop
      vertex -13.3826 14.8629 17.5
      vertex -19.563 4.15823 17.5
      vertex -10 17.3205 17.5
    endloop
  endfacet
  facet normal 0 -0 1
    outer loop
      vertex -16.1803 11.7557 17.5
      vertex -19.563 4.15823 17.5
      vertex -13.3826 14.8629 17.5
    endloop
  endfacet
  facet normal 0 -0 1
    outer loop
      vertex -18.2709 8.13473 17.5
      vertex -19.563 4.15823 17.5
      vertex -16.1803 11.7557 17.5
    endloop
  endfacet
  facet normal 0 -0 1
    outer loop
      vertex 3.39919 -10.4616 17.5
      vertex 1.14981 -10.9397 17.5
      vertex 10 -17.3205 17.5
    endloop
  endfacet
  facet normal 0 -0 1
    outer loop
      vertex 10.049 -4.4741 17.5
      vertex 8.89919 -6.46564 17.5
      vertex 18.2709 -8.13473 17.5
    endloop
  endfacet
  facet normal -0 0 1
    outer loop
      vertex -10.049 4.4741 17.5
      vertex -8.89919 6.46564 17.5
      vertex -19.563 4.15823 17.5
    endloop
  endfacet
  facet normal 0 0 1
    outer loop
      vertex -3.39919 10.4616 17.5
      vertex -1.14981 10.9397 17.5
      vertex 10 17.3205 17.5
    endloop
  endfacet
  facet normal 0 0 1
    outer loop
      vertex 7.36044 8.17459 17.5
      vertex 8.89919 6.46564 17.5
      vertex 18.2709 8.13473 17.5
    endloop
  endfacet
  facet normal 0 0 1
    outer loop
      vertex -5.5 9.52628 17.5
      vertex -19.563 4.15823 17.5
      vertex -7.36044 8.17459 17.5
    endloop
  endfacet
  facet normal 0 0 1
    outer loop
      vertex 10 17.3205 17.5
      vertex -19.563 4.15823 17.5
      vertex -5.5 9.52628 17.5
    endloop
  endfacet
  facet normal 0 0 1
    outer loop
      vertex 10 17.3205 17.5
      vertex -5.5 9.52628 17.5
      vertex -3.39919 10.4616 17.5
    endloop
  endfacet
  facet normal 0 -0 1
    outer loop
      vertex 10 17.3205 17.5
      vertex -1.14981 10.9397 17.5
      vertex 13.3826 14.8629 17.5
    endloop
  endfacet
  facet normal 0 0 1
    outer loop
      vertex -1.14981 10.9397 17.5
      vertex 1.14981 10.9397 17.5
      vertex 13.3826 14.8629 17.5
    endloop
  endfacet
  facet normal 0 -0 1
    outer loop
      vertex 13.3826 14.8629 17.5
      vertex 3.39919 10.4616 17.5
      vertex 16.1803 11.7557 17.5
    endloop
  endfacet
  facet normal 0 0 1
    outer loop
      vertex 3.39919 10.4616 17.5
      vertex 5.5 9.52628 17.5
      vertex 16.1803 11.7557 17.5
    endloop
  endfacet
  facet normal 0 -0 1
    outer loop
      vertex 16.1803 11.7557 17.5
      vertex 7.36044 8.17459 17.5
      vertex 18.2709 8.13473 17.5
    endloop
  endfacet
  facet normal -0 0 1
    outer loop
      vertex -8.89919 6.46564 17.5
      vertex -7.36044 8.17459 17.5
      vertex -19.563 4.15823 17.5
    endloop
  endfacet
  facet normal 0 -0 1
    outer loop
      vertex 18.2709 8.13473 17.5
      vertex 8.89919 6.46564 17.5
      vertex 19.563 4.15823 17.5
    endloop
  endfacet
  facet normal 0 0 1
    outer loop
      vertex 8.89919 6.46564 17.5
      vertex 10.049 4.4741 17.5
      vertex 19.563 4.15823 17.5
    endloop
  endfacet
  facet normal -1.77636e-16 8.3571e-16 1
    outer loop
      vertex 19.563 4.15823 17.5
      vertex 10.7596 2.28703 17.5
      vertex 20 2.14306e-15 17.5
    endloop
  endfacet
  facet normal 1.72268e-32 1.55342e-15 1
    outer loop
      vertex 10.7596 2.28703 17.5
      vertex 11 2.14306e-15 17.5
      vertex 20 2.14306e-15 17.5
    endloop
  endfacet
  facet normal 0 0 1
    outer loop
      vertex 20 2.14306e-15 17.5
      vertex 11 2.14306e-15 17.5
      vertex 19.563 -4.15823 17.5
    endloop
  endfacet
  facet normal -0 0 1
    outer loop
      vertex 19.563 -4.15823 17.5
      vertex 10.7596 -2.28703 17.5
      vertex 18.2709 -8.13473 17.5
    endloop
  endfacet
  facet normal 0 -0 1
    outer loop
      vertex 8.89919 -6.46564 17.5
      vertex 7.36044 -8.17459 17.5
      vertex 16.1803 -11.7557 17.5
    endloop
  endfacet
  facet normal 0 -0 1
    outer loop
      vertex 10.7596 -2.28703 17.5
      vertex 10.049 -4.4741 17.5
      vertex 18.2709 -8.13473 17.5
    endloop
  endfacet
  facet normal 0 -0 1
    outer loop
      vertex 11 2.14306e-15 17.5
      vertex 10.7596 -2.28703 17.5
      vertex 19.563 -4.15823 17.5
    endloop
  endfacet
  facet normal -0 0 1
    outer loop
      vertex 18.2709 -8.13473 17.5
      vertex 8.89919 -6.46564 17.5
      vertex 16.1803 -11.7557 17.5
    endloop
  endfacet
  facet normal -0 0 1
    outer loop
      vertex 16.1803 -11.7557 17.5
      vertex 7.36044 -8.17459 17.5
      vertex 13.3826 -14.8629 17.5
    endloop
  endfacet
  facet normal 0 -0 1
    outer loop
      vertex 7.36044 -8.17459 17.5
      vertex 5.5 -9.52628 17.5
      vertex 13.3826 -14.8629 17.5
    endloop
  endfacet
  facet normal -0 0 1
    outer loop
      vertex 13.3826 -14.8629 17.5
      vertex 3.39919 -10.4616 17.5
      vertex 10 -17.3205 17.5
    endloop
  endfacet
  facet normal -0 0 1
    outer loop
      vertex 10 -17.3205 17.5
      vertex 1.14981 -10.9397 17.5
      vertex 6.18034 -19.0211 17.5
    endloop
  endfacet
  facet normal 0 -0 1
    outer loop
      vertex 1.14981 -10.9397 17.5
      vertex -1.14981 -10.9397 17.5
      vertex 6.18034 -19.0211 17.5
    endloop
  endfacet
  facet normal -0 0 1
    outer loop
      vertex 6.18034 -19.0211 17.5
      vertex -3.39919 -10.4616 17.5
      vertex 2.09057 -19.8904 17.5
    endloop
  endfacet
  facet normal -0 -0 1
    outer loop
      vertex -3.39919 -10.4616 17.5
      vertex -5.5 -9.52628 17.5
      vertex 2.09057 -19.8904 17.5
    endloop
  endfacet
  facet normal -0 -0 1
    outer loop
      vertex -5.5 -9.52628 17.5
      vertex -7.36044 -8.17459 17.5
      vertex 2.09057 -19.8904 17.5
    endloop
  endfacet
  facet normal -3.23566e-15 -2.9134e-15 1
    outer loop
      vertex -8.89919 -6.46564 17.5
      vertex -19.563 4.15823 17.5
      vertex -7.36044 -8.17459 17.5
    endloop
  endfacet
  facet normal -5.29534e-16 -1.72056e-16 1
    outer loop
      vertex -10.049 -4.4741 17.5
      vertex -10.7596 -2.28703 17.5
      vertex -19.563 4.15823 17.5
    endloop
  endfacet
  facet normal -0 -0 1
    outer loop
      vertex -1.14981 -10.9397 17.5
      vertex -3.39919 -10.4616 17.5
      vertex 6.18034 -19.0211 17.5
    endloop
  endfacet
  facet normal -4.37208e-16 -4.59524e-17 1
    outer loop
      vertex -10.7596 -2.28703 17.5
      vertex -11 2.14306e-15 17.5
      vertex -19.563 4.15823 17.5
    endloop
  endfacet
  facet normal 0 -0 1
    outer loop
      vertex 5.5 -9.52628 17.5
      vertex 3.39919 -10.4616 17.5
      vertex 13.3826 -14.8629 17.5
    endloop
  endfacet
  facet normal 3.22974e-16 1.51947e-15 1
    outer loop
      vertex -11 2.14306e-15 17.5
      vertex -10.7596 2.28703 17.5
      vertex -19.563 4.15823 17.5
    endloop
  endfacet
  facet normal -0.956651 -0.100548 -0.273329
    outer loop
      vertex -20 2.14306e-15 17.5
      vertex -10 -2.14306e-15 -17.5
      vertex -19.563 -4.15823 17.5
    endloop
  endfacet
  facet normal -0.956651 -0.100548 -0.273329
    outer loop
      vertex -19.563 -4.15823 17.5
      vertex -10 -2.14306e-15 -17.5
      vertex -9.78148 -2.07912 -17.5
    endloop
  endfacet
  facet normal -0.956651 0.100548 -0.273329
    outer loop
      vertex -20 2.14306e-15 17.5
      vertex -19.563 4.15823 17.5
      vertex -10 -2.14306e-15 -17.5
    endloop
  endfacet
  facet normal -0.956651 0.100548 -0.273329
    outer loop
      vertex -10 -2.14306e-15 -17.5
      vertex -19.563 4.15823 17.5
      vertex -9.78148 2.07912 -17.5
    endloop
  endfacet
  facet normal -0.914841 0.29725 -0.273329
    outer loop
      vertex -9.78148 2.07912 -17.5
      vertex -19.563 4.15823 17.5
      vertex -18.2709 8.13473 17.5
    endloop
  endfacet
  facet normal -0.914841 0.29725 -0.273329
    outer loop
      vertex -9.78148 2.07912 -17.5
      vertex -18.2709 8.13473 17.5
      vertex -9.13546 4.06737 -17.5
    endloop
  endfacet
  facet normal -0.833048 0.48096 -0.273329
    outer loop
      vertex -9.13546 4.06737 -17.5
      vertex -18.2709 8.13473 17.5
      vertex -16.1803 11.7557 17.5
    endloop
  endfacet
  facet normal -0.833048 0.48096 -0.273329
    outer loop
      vertex -9.13546 4.06737 -17.5
      vertex -16.1803 11.7557 17.5
      vertex -8.09017 5.87785 -17.5
    endloop
  endfacet
  facet normal -0.714846 0.643651 -0.273329
    outer loop
      vertex -8.09017 5.87785 -17.5
      vertex -16.1803 11.7557 17.5
      vertex -13.3826 14.8629 17.5
    endloop
  endfacet
  facet normal -0.714846 0.643651 -0.273329
    outer loop
      vertex -8.09017 5.87785 -17.5
      vertex -13.3826 14.8629 17.5
      vertex -6.69131 7.43145 -17.5
    endloop
  endfacet
  facet normal -0.565403 0.77821 -0.273329
    outer loop
      vertex -6.69131 7.43145 -17.5
      vertex -13.3826 14.8629 17.5
      vertex -10 17.3205 17.5
    endloop
  endfacet
  facet normal -0.565403 0.77821 -0.273329
    outer loop
      vertex -6.69131 7.43145 -17.5
      vertex -10 17.3205 17.5
      vertex -5 8.66025 -17.5
    endloop
  endfacet
  facet normal -0.391248 0.878758 -0.273329
    outer loop
      vertex -10 17.3205 17.5
      vertex -6.18034 19.0211 17.5
      vertex -5 8.66025 -17.5
    endloop
  endfacet
  facet normal -0.391248 0.878758 -0.273329
    outer loop
      vertex -5 8.66025 -17.5
      vertex -6.18034 19.0211 17.5
      vertex -3.09017 9.51056 -17.5
    endloop
  endfacet
  facet normal -0.199995 0.9409 -0.273329
    outer loop
      vertex -3.09017 9.51056 -17.5
      vertex -6.18034 19.0211 17.5
      vertex -2.09057 19.8904 17.5
    endloop
  endfacet
  facet normal -0.199995 0.9409 -0.273329
    outer loop
      vertex -1.04529 9.94522 -17.5
      vertex -3.09017 9.51056 -17.5
      vertex -2.09057 19.8904 17.5
    endloop
  endfacet
  facet normal 0 0.961921 -0.273329
    outer loop
      vertex -2.09057 19.8904 17.5
      vertex 2.09057 19.8904 17.5
      vertex -1.04529 9.94522 -17.5
    endloop
  endfacet
  facet normal 0 0.961921 -0.273329
    outer loop
      vertex -1.04529 9.94522 -17.5
      vertex 2.09057 19.8904 17.5
      vertex 1.04529 9.94522 -17.5
    endloop
  endfacet
  facet normal 0.199995 0.9409 -0.273329
    outer loop
      vertex 6.18034 19.0211 17.5
      vertex 1.04529 9.94522 -17.5
      vertex 2.09057 19.8904 17.5
    endloop
  endfacet
  facet normal 0.199995 0.9409 -0.273329
    outer loop
      vertex 3.09017 9.51056 -17.5
      vertex 1.04529 9.94522 -17.5
      vertex 6.18034 19.0211 17.5
    endloop
  endfacet
  facet normal 0.391248 0.878758 -0.273329
    outer loop
      vertex 3.09017 9.51056 -17.5
      vertex 6.18034 19.0211 17.5
      vertex 5 8.66025 -17.5
    endloop
  endfacet
  facet normal 0.391248 0.878758 -0.273329
    outer loop
      vertex 5 8.66025 -17.5
      vertex 6.18034 19.0211 17.5
      vertex 10 17.3205 17.5
    endloop
  endfacet
  facet normal 0.565403 0.77821 -0.273329
    outer loop
      vertex 13.3826 14.8629 17.5
      vertex 5 8.66025 -17.5
      vertex 10 17.3205 17.5
    endloop
  endfacet
  facet normal 0.565403 0.77821 -0.273329
    outer loop
      vertex 6.69131 7.43145 -17.5
      vertex 5 8.66025 -17.5
      vertex 13.3826 14.8629 17.5
    endloop
  endfacet
  facet normal 0.714846 0.643651 -0.273329
    outer loop
      vertex 16.1803 11.7557 17.5
      vertex 6.69131 7.43145 -17.5
      vertex 13.3826 14.8629 17.5
    endloop
  endfacet
  facet normal 0.714846 0.643651 -0.273329
    outer loop
      vertex 8.09017 5.87785 -17.5
      vertex 6.69131 7.43145 -17.5
      vertex 16.1803 11.7557 17.5
    endloop
  endfacet
  facet normal 0.833048 0.48096 -0.273329
    outer loop
      vertex 18.2709 8.13473 17.5
      vertex 8.09017 5.87785 -17.5
      vertex 16.1803 11.7557 17.5
    endloop
  endfacet
  facet normal 0.833048 0.48096 -0.273329
    outer loop
      vertex 9.13546 4.06737 -17.5
      vertex 8.09017 5.87785 -17.5
      vertex 18.2709 8.13473 17.5
    endloop
  endfacet
  facet normal 0.914841 0.29725 -0.273329
    outer loop
      vertex 19.563 4.15823 17.5
      vertex 9.13546 4.06737 -17.5
      vertex 18.2709 8.13473 17.5
    endloop
  endfacet
  facet normal 0.914841 0.29725 -0.273329
    outer loop
      vertex 9.78148 2.07912 -17.5
      vertex 9.13546 4.06737 -17.5
      vertex 19.563 4.15823 17.5
    endloop
  endfacet
  facet normal 0.956651 0.100548 -0.273329
    outer loop
      vertex 10 -2.14306e-15 -17.5
      vertex 9.78148 2.07912 -17.5
      vertex 19.563 4.15823 17.5
    endloop
  endfacet
  facet normal 0.956651 0.100548 -0.273329
    outer loop
      vertex 20 2.14306e-15 17.5
      vertex 10 -2.14306e-15 -17.5
      vertex 19.563 4.15823 17.5
    endloop
  endfacet
  facet normal 0.956651 -0.100548 -0.273329
    outer loop
      vertex 19.563 -4.15823 17.5
      vertex 9.78148 -2.07912 -17.5
      vertex 10 -2.14306e-15 -17.5
    endloop
  endfacet
  facet normal 0.956651 -0.100548 -0.273329
    outer loop
      vertex 20 2.14306e-15 17.5
      vertex 19.563 -4.15823 17.5
      vertex 10 -2.14306e-15 -17.5
    endloop
  endfacet
  facet normal 0.914841 -0.29725 -0.273329
    outer loop
      vertex 18.2709 -8.13473 17.5
      vertex 9.78148 -2.07912 -17.5
      vertex 19.563 -4.15823 17.5
    endloop
  endfacet
  facet normal 0.914841 -0.29725 -0.273329
    outer loop
      vertex 18.2709 -8.13473 17.5
      vertex 9.13546 -4.06737 -17.5
      vertex 9.78148 -2.07912 -17.5
    endloop
  endfacet
  facet normal 0.833048 -0.48096 -0.273329
    outer loop
      vertex 16.1803 -11.7557 17.5
      vertex 9.13546 -4.06737 -17.5
      vertex 18.2709 -8.13473 17.5
    endloop
  endfacet
  facet normal 0.833048 -0.48096 -0.273329
    outer loop
      vertex 16.1803 -11.7557 17.5
      vertex 8.09017 -5.87785 -17.5
      vertex 9.13546 -4.06737 -17.5
    endloop
  endfacet
  facet normal 0.714846 -0.643651 -0.273329
    outer loop
      vertex 13.3826 -14.8629 17.5
      vertex 8.09017 -5.87785 -17.5
      vertex 16.1803 -11.7557 17.5
    endloop
  endfacet
  facet normal 0.714846 -0.643651 -0.273329
    outer loop
      vertex 13.3826 -14.8629 17.5
      vertex 6.69131 -7.43145 -17.5
      vertex 8.09017 -5.87785 -17.5
    endloop
  endfacet
  facet normal 0.565403 -0.77821 -0.273329
    outer loop
      vertex 10 -17.3205 17.5
      vertex 6.69131 -7.43145 -17.5
      vertex 13.3826 -14.8629 17.5
    endloop
  endfacet
  facet normal 0.565403 -0.77821 -0.273329
    outer loop
      vertex 10 -17.3205 17.5
      vertex 5 -8.66025 -17.5
      vertex 6.69131 -7.43145 -17.5
    endloop
  endfacet
  facet normal 0.391248 -0.878758 -0.273329
    outer loop
      vertex 6.18034 -19.0211 17.5
      vertex 3.09017 -9.51057 -17.5
      vertex 5 -8.66025 -17.5
    endloop
  endfacet
  facet normal 0.391248 -0.878758 -0.273329
    outer loop
      vertex 10 -17.3205 17.5
      vertex 6.18034 -19.0211 17.5
      vertex 5 -8.66025 -17.5
    endloop
  endfacet
  facet normal 0.199995 -0.9409 -0.273329
    outer loop
      vertex 6.18034 -19.0211 17.5
      vertex 2.09057 -19.8904 17.5
      vertex 3.09017 -9.51057 -17.5
    endloop
  endfacet
  facet normal 0.199995 -0.9409 -0.273329
    outer loop
      vertex 2.09057 -19.8904 17.5
      vertex 1.04529 -9.94522 -17.5
      vertex 3.09017 -9.51057 -17.5
    endloop
  endfacet
  facet normal 0 -0.961921 -0.273329
    outer loop
      vertex 2.09057 -19.8904 17.5
      vertex -2.09057 -19.8904 17.5
      vertex -1.04529 -9.94522 -17.5
    endloop
  endfacet
  facet normal 0 -0.961921 -0.273329
    outer loop
      vertex 1.04529 -9.94522 -17.5
      vertex 2.09057 -19.8904 17.5
      vertex -1.04529 -9.94522 -17.5
    endloop
  endfacet
  facet normal -0.199995 -0.9409 -0.273329
    outer loop
      vertex -2.09057 -19.8904 17.5
      vertex -6.18034 -19.0211 17.5
      vertex -1.04529 -9.94522 -17.5
    endloop
  endfacet
  facet normal -0.199995 -0.9409 -0.273329
    outer loop
      vertex -1.04529 -9.94522 -17.5
      vertex -6.18034 -19.0211 17.5
      vertex -3.09017 -9.51057 -17.5
    endloop
  endfacet
  facet normal -0.391248 -0.878758 -0.273329
    outer loop
      vertex -6.18034 -19.0211 17.5
      vertex -10 -17.3205 17.5
      vertex -5 -8.66025 -17.5
    endloop
  endfacet
  facet normal -0.391248 -0.878758 -0.273329
    outer loop
      vertex -3.09017 -9.51057 -17.5
      vertex -6.18034 -19.0211 17.5
      vertex -5 -8.66025 -17.5
    endloop
  endfacet
  facet normal -0.565403 -0.77821 -0.273329
    outer loop
      vertex -10 -17.3205 17.5
      vertex -13.3826 -14.8629 17.5
      vertex -5 -8.66025 -17.5
    endloop
  endfacet
  facet normal -0.565403 -0.77821 -0.273329
    outer loop
      vertex -5 -8.66025 -17.5
      vertex -13.3826 -14.8629 17.5
      vertex -6.69131 -7.43145 -17.5
    endloop
  endfacet
  facet normal -0.714846 -0.643651 -0.273329
    outer loop
      vertex -13.3826 -14.8629 17.5
      vertex -16.1803 -11.7557 17.5
      vertex -6.69131 -7.43145 -17.5
    endloop
  endfacet
  facet normal -0.714846 -0.643651 -0.273329
    outer loop
      vertex -6.69131 -7.43145 -17.5
      vertex -16.1803 -11.7557 17.5
      vertex -8.09017 -5.87785 -17.5
    endloop
  endfacet
  facet normal -0.833048 -0.48096 -0.273329
    outer loop
      vertex -16.1803 -11.7557 17.5
      vertex -18.2709 -8.13473 17.5
      vertex -8.09017 -5.87785 -17.5
    endloop
  endfacet
  facet normal -0.833048 -0.48096 -0.273329
    outer loop
      vertex -8.09017 -5.87785 -17.5
      vertex -18.2709 -8.13473 17.5
      vertex -9.13546 -4.06737 -17.5
    endloop
  endfacet
  facet normal -0.914841 -0.29725 -0.273329
    outer loop
      vertex -18.2709 -8.13473 17.5
      vertex -19.563 -4.15823 17.5
      vertex -9.13546 -4.06737 -17.5
    endloop
  endfacet
  facet normal -0.914841 -0.29725 -0.273329
    outer loop
      vertex -9.13546 -4.06737 -17.5
      vertex -19.563 -4.15823 17.5
      vertex -9.78148 -2.07912 -17.5
    endloop
  endfacet
  facet normal 0.994522 -0.104528 1.1607e-17
    outer loop
      vertex -11 1.16338e-15 9.5
      vertex -10.7596 2.28703 9.5
      vertex -10.7596 2.28703 17.5
    endloop
  endfacet
  facet normal 0.994522 -0.104528 1.28006e-17
    outer loop
      vertex -11 2.14306e-15 17.5
      vertex -11 1.16338e-15 9.5
      vertex -10.7596 2.28703 17.5
    endloop
  endfacet
  facet normal 0.994522 0.104528 -1.1605e-17
    outer loop
      vertex -10.7596 -2.28703 17.5
      vertex -10.7596 -2.28703 9.5
      vertex -11 1.16338e-15 9.5
    endloop
  endfacet
  facet normal 0.994522 0.104528 -1.28006e-17
    outer loop
      vertex -11 2.14306e-15 17.5
      vertex -10.7596 -2.28703 17.5
      vertex -11 1.16338e-15 9.5
    endloop
  endfacet
  facet normal 0.951056 0.309017 -3.43078e-17
    outer loop
      vertex -10.049 -4.4741 17.5
      vertex -10.049 -4.4741 9.5
      vertex -10.7596 -2.28703 9.5
    endloop
  endfacet
  facet normal 0.951056 0.309017 -3.43078e-17
    outer loop
      vertex -10.7596 -2.28703 17.5
      vertex -10.049 -4.4741 17.5
      vertex -10.7596 -2.28703 9.5
    endloop
  endfacet
  facet normal 0.866025 0.5 -5.55111e-17
    outer loop
      vertex -8.89919 -6.46564 17.5
      vertex -8.89919 -6.46564 9.5
      vertex -10.049 -4.4741 9.5
    endloop
  endfacet
  facet normal 0.866025 0.5 -5.55111e-17
    outer loop
      vertex -10.049 -4.4741 17.5
      vertex -8.89919 -6.46564 17.5
      vertex -10.049 -4.4741 9.5
    endloop
  endfacet
  facet normal 0.743145 0.669131 -1.48577e-16
    outer loop
      vertex -7.36044 -8.17459 17.5
      vertex -7.36044 -8.17459 9.5
      vertex -8.89919 -6.46564 9.5
    endloop
  endfacet
  facet normal 0.743145 0.669131 -7.42884e-17
    outer loop
      vertex -8.89919 -6.46564 17.5
      vertex -7.36044 -8.17459 17.5
      vertex -8.89919 -6.46564 9.5
    endloop
  endfacet
  facet normal 0.587785 0.809017 -1.79638e-16
    outer loop
      vertex -5.5 -9.52628 9.5
      vertex -7.36044 -8.17459 9.5
      vertex -5.5 -9.52628 17.5
    endloop
  endfacet
  facet normal 0.587785 0.809017 -1.79641e-16
    outer loop
      vertex -5.5 -9.52628 17.5
      vertex -7.36044 -8.17459 9.5
      vertex -7.36044 -8.17459 17.5
    endloop
  endfacet
  facet normal 0.406737 0.913545 -2.02848e-16
    outer loop
      vertex -3.39919 -10.4616 9.5
      vertex -5.5 -9.52628 9.5
      vertex -3.39919 -10.4616 17.5
    endloop
  endfacet
  facet normal 0.406737 0.913545 -2.02849e-16
    outer loop
      vertex -3.39919 -10.4616 17.5
      vertex -5.5 -9.52628 9.5
      vertex -5.5 -9.52628 17.5
    endloop
  endfacet
  facet normal 0.207912 0.978148 -2.17192e-16
    outer loop
      vertex -1.14981 -10.9397 9.5
      vertex -3.39919 -10.4616 9.5
      vertex -1.14981 -10.9397 17.5
    endloop
  endfacet
  facet normal 0.207912 0.978148 -2.17188e-16
    outer loop
      vertex -1.14981 -10.9397 17.5
      vertex -3.39919 -10.4616 9.5
      vertex -3.39919 -10.4616 17.5
    endloop
  endfacet
  facet normal 0 1 -2.22045e-16
    outer loop
      vertex 1.14981 -10.9397 9.5
      vertex -1.14981 -10.9397 9.5
      vertex 1.14981 -10.9397 17.5
    endloop
  endfacet
  facet normal 0 1 -2.22045e-16
    outer loop
      vertex 1.14981 -10.9397 17.5
      vertex -1.14981 -10.9397 9.5
      vertex -1.14981 -10.9397 17.5
    endloop
  endfacet
  facet normal -0.207912 0.978148 -2.17192e-16
    outer loop
      vertex 3.39919 -10.4616 9.5
      vertex 1.14981 -10.9397 9.5
      vertex 3.39919 -10.4616 17.5
    endloop
  endfacet
  facet normal -0.207912 0.978148 -2.17194e-16
    outer loop
      vertex 3.39919 -10.4616 17.5
      vertex 1.14981 -10.9397 9.5
      vertex 1.14981 -10.9397 17.5
    endloop
  endfacet
  facet normal -0.406737 0.913545 -2.02848e-16
    outer loop
      vertex 5.5 -9.52628 9.5
      vertex 3.39919 -10.4616 9.5
      vertex 5.5 -9.52628 17.5
    endloop
  endfacet
  facet normal -0.406737 0.913545 -2.02849e-16
    outer loop
      vertex 5.5 -9.52628 17.5
      vertex 3.39919 -10.4616 9.5
      vertex 3.39919 -10.4616 17.5
    endloop
  endfacet
  facet normal -0.587785 0.809017 -1.79638e-16
    outer loop
      vertex 7.36044 -8.17459 9.5
      vertex 5.5 -9.52628 9.5
      vertex 7.36044 -8.17459 17.5
    endloop
  endfacet
  facet normal -0.587785 0.809017 -1.79641e-16
    outer loop
      vertex 7.36044 -8.17459 17.5
      vertex 5.5 -9.52628 9.5
      vertex 5.5 -9.52628 17.5
    endloop
  endfacet
  facet normal -0.743145 0.669131 -7.42884e-17
    outer loop
      vertex 8.89919 -6.46564 9.5
      vertex 7.36044 -8.17459 9.5
      vertex 8.89919 -6.46564 17.5
    endloop
  endfacet
  facet normal -0.743145 0.669131 -1.48572e-16
    outer loop
      vertex 8.89919 -6.46564 17.5
      vertex 7.36044 -8.17459 9.5
      vertex 7.36044 -8.17459 17.5
    endloop
  endfacet
  facet normal -0.866025 0.5 -5.55111e-17
    outer loop
      vertex 10.049 -4.4741 9.5
      vertex 8.89919 -6.46564 9.5
      vertex 10.049 -4.4741 17.5
    endloop
  endfacet
  facet normal -0.866025 0.5 -5.55037e-17
    outer loop
      vertex 10.049 -4.4741 17.5
      vertex 8.89919 -6.46564 9.5
      vertex 8.89919 -6.46564 17.5
    endloop
  endfacet
  facet normal -0.951056 0.309017 -3.43078e-17
    outer loop
      vertex 10.7596 -2.28703 9.5
      vertex 10.049 -4.4741 9.5
      vertex 10.7596 -2.28703 17.5
    endloop
  endfacet
  facet normal -0.951056 0.309017 -3.43053e-17
    outer loop
      vertex 10.7596 -2.28703 17.5
      vertex 10.049 -4.4741 9.5
      vertex 10.049 -4.4741 17.5
    endloop
  endfacet
  facet normal -0.994522 0.104528 -1.28006e-17
    outer loop
      vertex 11 1.16338e-15 9.5
      vertex 10.7596 -2.28703 9.5
      vertex 11 2.14306e-15 17.5
    endloop
  endfacet
  facet normal -0.994522 0.104528 -1.1607e-17
    outer loop
      vertex 11 2.14306e-15 17.5
      vertex 10.7596 -2.28703 9.5
      vertex 10.7596 -2.28703 17.5
    endloop
  endfacet
  facet normal -0.994522 -0.104528 1.28006e-17
    outer loop
      vertex 11 1.16338e-15 9.5
      vertex 11 2.14306e-15 17.5
      vertex 10.7596 2.28703 9.5
    endloop
  endfacet
  facet normal -0.994522 -0.104528 1.1605e-17
    outer loop
      vertex 10.7596 2.28703 9.5
      vertex 11 2.14306e-15 17.5
      vertex 10.7596 2.28703 17.5
    endloop
  endfacet
  facet normal -0.951056 -0.309017 3.43078e-17
    outer loop
      vertex 10.7596 2.28703 9.5
      vertex 10.7596 2.28703 17.5
      vertex 10.049 4.4741 9.5
    endloop
  endfacet
  facet normal -0.951056 -0.309017 3.43078e-17
    outer loop
      vertex 10.049 4.4741 9.5
      vertex 10.7596 2.28703 17.5
      vertex 10.049 4.4741 17.5
    endloop
  endfacet
  facet normal -0.866025 -0.5 5.55111e-17
    outer loop
      vertex 10.049 4.4741 9.5
      vertex 10.049 4.4741 17.5
      vertex 8.89919 6.46564 9.5
    endloop
  endfacet
  facet normal -0.866025 -0.5 5.55111e-17
    outer loop
      vertex 8.89919 6.46564 9.5
      vertex 10.049 4.4741 17.5
      vertex 8.89919 6.46564 17.5
    endloop
  endfacet
  facet normal -0.743145 -0.669131 7.42884e-17
    outer loop
      vertex 8.89919 6.46564 9.5
      vertex 8.89919 6.46564 17.5
      vertex 7.36044 8.17459 9.5
    endloop
  endfacet
  facet normal -0.743145 -0.669131 1.48577e-16
    outer loop
      vertex 7.36044 8.17459 9.5
      vertex 8.89919 6.46564 17.5
      vertex 7.36044 8.17459 17.5
    endloop
  endfacet
  facet normal -0.587785 -0.809017 1.79641e-16
    outer loop
      vertex 5.5 9.52628 9.5
      vertex 7.36044 8.17459 9.5
      vertex 7.36044 8.17459 17.5
    endloop
  endfacet
  facet normal -0.587785 -0.809017 1.79638e-16
    outer loop
      vertex 5.5 9.52628 17.5
      vertex 5.5 9.52628 9.5
      vertex 7.36044 8.17459 17.5
    endloop
  endfacet
  facet normal -0.406737 -0.913545 2.02844e-16
    outer loop
      vertex 3.39919 10.4616 9.5
      vertex 5.5 9.52628 9.5
      vertex 5.5 9.52628 17.5
    endloop
  endfacet
  facet normal -0.406737 -0.913545 2.02848e-16
    outer loop
      vertex 3.39919 10.4616 17.5
      vertex 3.39919 10.4616 9.5
      vertex 5.5 9.52628 17.5
    endloop
  endfacet
  facet normal -0.207912 -0.978148 2.17194e-16
    outer loop
      vertex 1.14981 10.9397 9.5
      vertex 3.39919 10.4616 9.5
      vertex 3.39919 10.4616 17.5
    endloop
  endfacet
  facet normal -0.207912 -0.978148 2.17192e-16
    outer loop
      vertex 1.14981 10.9397 17.5
      vertex 1.14981 10.9397 9.5
      vertex 3.39919 10.4616 17.5
    endloop
  endfacet
  facet normal 0 -1 2.22045e-16
    outer loop
      vertex -1.14981 10.9397 9.5
      vertex 1.14981 10.9397 9.5
      vertex 1.14981 10.9397 17.5
    endloop
  endfacet
  facet normal 0 -1 2.22045e-16
    outer loop
      vertex -1.14981 10.9397 17.5
      vertex -1.14981 10.9397 9.5
      vertex 1.14981 10.9397 17.5
    endloop
  endfacet
  facet normal 0.207912 -0.978148 2.17194e-16
    outer loop
      vertex -3.39919 10.4616 9.5
      vertex -1.14981 10.9397 9.5
      vertex -1.14981 10.9397 17.5
    endloop
  endfacet
  facet normal 0.207912 -0.978148 2.17192e-16
    outer loop
      vertex -3.39919 10.4616 17.5
      vertex -3.39919 10.4616 9.5
      vertex -1.14981 10.9397 17.5
    endloop
  endfacet
  facet normal 0.406737 -0.913545 2.02849e-16
    outer loop
      vertex -5.5 9.52628 9.5
      vertex -3.39919 10.4616 9.5
      vertex -3.39919 10.4616 17.5
    endloop
  endfacet
  facet normal 0.406737 -0.913545 2.02848e-16
    outer loop
      vertex -5.5 9.52628 17.5
      vertex -5.5 9.52628 9.5
      vertex -3.39919 10.4616 17.5
    endloop
  endfacet
  facet normal 0.587785 -0.809017 1.79641e-16
    outer loop
      vertex -7.36044 8.17459 9.5
      vertex -5.5 9.52628 9.5
      vertex -5.5 9.52628 17.5
    endloop
  endfacet
  facet normal 0.587785 -0.809017 1.79638e-16
    outer loop
      vertex -7.36044 8.17459 17.5
      vertex -7.36044 8.17459 9.5
      vertex -5.5 9.52628 17.5
    endloop
  endfacet
  facet normal 0.743145 -0.669131 1.48583e-16
    outer loop
      vertex -8.89919 6.46564 9.5
      vertex -7.36044 8.17459 9.5
      vertex -7.36044 8.17459 17.5
    endloop
  endfacet
  facet normal 0.743145 -0.669131 7.42884e-17
    outer loop
      vertex -8.89919 6.46564 17.5
      vertex -8.89919 6.46564 9.5
      vertex -7.36044 8.17459 17.5
    endloop
  endfacet
  facet normal 0.866025 -0.5 5.55037e-17
    outer loop
      vertex -10.049 4.4741 9.5
      vertex -8.89919 6.46564 9.5
      vertex -8.89919 6.46564 17.5
    endloop
  endfacet
  facet normal 0.866025 -0.5 5.55111e-17
    outer loop
      vertex -10.049 4.4741 17.5
      vertex -10.049 4.4741 9.5
      vertex -8.89919 6.46564 17.5
    endloop
  endfacet
  facet normal 0.951056 -0.309017 3.43053e-17
    outer loop
      vertex -10.7596 2.28703 9.5
      vertex -10.049 4.4741 9.5
      vertex -10.049 4.4741 17.5
    endloop
  endfacet
  facet normal 0.951056 -0.309017 3.43078e-17
    outer loop
      vertex -10.7596 2.28703 17.5
      vertex -10.7596 2.28703 9.5
      vertex -10.049 4.4741 17.5
    endloop
  endfacet
  facet normal 8.12889e-15 -8.5438e-16 -1
    outer loop
      vertex -10 -2.14306e-15 -17.5
      vertex -9.78148 2.07912 -17.5
      vertex -9.78148 -2.07912 -17.5
    endloop
  endfacet
  facet normal 2.62951e-15 -8.5438e-16 -1
    outer loop
      vertex -9.78148 -2.07912 -17.5
      vertex -9.78148 2.07912 -17.5
      vertex -9.13546 4.06737 -17.5
    endloop
  endfacet
  facet normal 1.22395e-15 -7.0665e-16 -1
    outer loop
      vertex -9.78148 -2.07912 -17.5
      vertex -9.13546 4.06737 -17.5
      vertex -8.09017 5.87785 -17.5
    endloop
  endfacet
  facet normal 6.49113e-16 -5.84464e-16 -1
    outer loop
      vertex -9.78148 -2.07912 -17.5
      vertex -8.09017 5.87785 -17.5
      vertex -6.69131 7.43145 -17.5
    endloop
  endfacet
  facet normal 3.55271e-16 -4.88989e-16 -1
    outer loop
      vertex -9.78148 -2.07912 -17.5
      vertex -6.69131 7.43145 -17.5
      vertex -5 8.66025 -17.5
    endloop
  endfacet
  facet normal 1.83702e-16 -4.12601e-16 -1
    outer loop
      vertex -9.78148 -2.07912 -17.5
      vertex -5 8.66025 -17.5
      vertex -3.09017 9.51056 -17.5
    endloop
  endfacet
  facet normal 7.4272e-17 -3.49422e-16 -1
    outer loop
      vertex -9.78148 -2.07912 -17.5
      vertex -3.09017 9.51056 -17.5
      vertex -1.04529 9.94522 -17.5
    endloop
  endfacet
  facet normal 0 -2.9546e-16 -1
    outer loop
      vertex -9.78148 -2.07912 -17.5
      vertex -1.04529 9.94522 -17.5
      vertex 1.04529 9.94522 -17.5
    endloop
  endfacet
  facet normal -5.27134e-17 -2.47997e-16 -1
    outer loop
      vertex -9.78148 -2.07912 -17.5
      vertex 1.04529 9.94522 -17.5
      vertex 3.09017 9.51056 -17.5
    endloop
  endfacet
  facet normal 0 0 -1
    outer loop
      vertex -2.25 3.89711 -17.5
      vertex 3.09017 9.51056 -17.5
      vertex 5 8.66025 -17.5
    endloop
  endfacet
  facet normal 0 0 -1
    outer loop
      vertex -0.470378 4.47535 -17.5
      vertex 5 8.66025 -17.5
      vertex 6.69131 7.43145 -17.5
    endloop
  endfacet
  facet normal 0 0 -1
    outer loop
      vertex 1.39058 4.27975 -17.5
      vertex 6.69131 7.43145 -17.5
      vertex 8.09017 5.87785 -17.5
    endloop
  endfacet
  facet normal 0 0 -1
    outer loop
      vertex 3.01109 3.34415 -17.5
      vertex 8.09017 5.87785 -17.5
      vertex 9.13546 4.06737 -17.5
    endloop
  endfacet
  facet normal 0 0 -1
    outer loop
      vertex 4.11095 1.83031 -17.5
      vertex 9.13546 4.06737 -17.5
      vertex 9.78148 2.07912 -17.5
    endloop
  endfacet
  facet normal -0 0 -1
    outer loop
      vertex 4.5 -2.14306e-15 -17.5
      vertex 9.78148 2.07912 -17.5
      vertex 10 -2.14306e-15 -17.5
    endloop
  endfacet
  facet normal -7.46301e-17 -1.70092e-15 -1
    outer loop
      vertex 4.11095 -1.83032 -17.5
      vertex 10 -2.14306e-15 -17.5
      vertex 9.78148 -2.07912 -17.5
    endloop
  endfacet
  facet normal -0 0 -1
    outer loop
      vertex 3.01109 -3.34415 -17.5
      vertex 9.78148 -2.07912 -17.5
      vertex 9.13546 -4.06737 -17.5
    endloop
  endfacet
  facet normal -0 0 -1
    outer loop
      vertex 1.39058 -4.27975 -17.5
      vertex 9.13546 -4.06737 -17.5
      vertex 8.09017 -5.87785 -17.5
    endloop
  endfacet
  facet normal 0 0 -1
    outer loop
      vertex -0.470378 -4.47535 -17.5
      vertex 8.09017 -5.87785 -17.5
      vertex 6.69131 -7.43145 -17.5
    endloop
  endfacet
  facet normal 0 0 -1
    outer loop
      vertex -9.78148 -2.07912 -17.5
      vertex 6.69131 -7.43145 -17.5
      vertex 5 -8.66025 -17.5
    endloop
  endfacet
  facet normal 0 0 -1
    outer loop
      vertex -9.78148 -2.07912 -17.5
      vertex 5 -8.66025 -17.5
      vertex 3.09017 -9.51057 -17.5
    endloop
  endfacet
  facet normal 0 0 -1
    outer loop
      vertex -9.78148 -2.07912 -17.5
      vertex 3.09017 -9.51057 -17.5
      vertex 1.04529 -9.94522 -17.5
    endloop
  endfacet
  facet normal 0 0 -1
    outer loop
      vertex -9.78148 -2.07912 -17.5
      vertex 1.04529 -9.94522 -17.5
      vertex -1.04529 -9.94522 -17.5
    endloop
  endfacet
  facet normal 0 0 -1
    outer loop
      vertex -9.78148 -2.07912 -17.5
      vertex -1.04529 -9.94522 -17.5
      vertex -3.09017 -9.51057 -17.5
    endloop
  endfacet
  facet normal 0 0 -1
    outer loop
      vertex -9.78148 -2.07912 -17.5
      vertex -3.09017 -9.51057 -17.5
      vertex -5 -8.66025 -17.5
    endloop
  endfacet
  facet normal 0 0 -1
    outer loop
      vertex -9.78148 -2.07912 -17.5
      vertex -5 -8.66025 -17.5
      vertex -6.69131 -7.43145 -17.5
    endloop
  endfacet
  facet normal 0 0 -1
    outer loop
      vertex -9.78148 -2.07912 -17.5
      vertex -6.69131 -7.43145 -17.5
      vertex -8.09017 -5.87785 -17.5
    endloop
  endfacet
  facet normal 0 0 -1
    outer loop
      vertex -9.78148 -2.07912 -17.5
      vertex -8.09017 -5.87785 -17.5
      vertex -9.13546 -4.06737 -17.5
    endloop
  endfacet
  facet normal 4.03565e-16 -1.89862e-15 -1
    outer loop
      vertex -4.40166 -0.935603 -17.5
      vertex -9.78148 -2.07912 -17.5
      vertex -4.40166 0.935603 -17.5
    endloop
  endfacet
  facet normal 0 0 -1
    outer loop
      vertex -3.64058 -2.64503 -17.5
      vertex -9.78148 -2.07912 -17.5
      vertex -4.40166 -0.935603 -17.5
    endloop
  endfacet
  facet normal 0 0 -1
    outer loop
      vertex -2.25 -3.89711 -17.5
      vertex -9.78148 -2.07912 -17.5
      vertex -3.64058 -2.64503 -17.5
    endloop
  endfacet
  facet normal 0 0 -1
    outer loop
      vertex 1.39058 -4.27975 -17.5
      vertex 8.09017 -5.87785 -17.5
      vertex -0.470378 -4.47535 -17.5
    endloop
  endfacet
  facet normal 0 0 -1
    outer loop
      vertex -9.78148 -2.07912 -17.5
      vertex -2.25 -3.89711 -17.5
      vertex 6.69131 -7.43145 -17.5
    endloop
  endfacet
  facet normal 0 0 -1
    outer loop
      vertex -2.25 -3.89711 -17.5
      vertex -0.470378 -4.47535 -17.5
      vertex 6.69131 -7.43145 -17.5
    endloop
  endfacet
  facet normal 0 0 -1
    outer loop
      vertex 4.11095 -1.83032 -17.5
      vertex 9.78148 -2.07912 -17.5
      vertex 3.01109 -3.34415 -17.5
    endloop
  endfacet
  facet normal 0 0 -1
    outer loop
      vertex 3.01109 -3.34415 -17.5
      vertex 9.13546 -4.06737 -17.5
      vertex 1.39058 -4.27975 -17.5
    endloop
  endfacet
  facet normal -0 0 -1
    outer loop
      vertex 4.11095 1.83031 -17.5
      vertex 9.78148 2.07912 -17.5
      vertex 4.5 -2.14306e-15 -17.5
    endloop
  endfacet
  facet normal -0 -1.94104e-15 -1
    outer loop
      vertex 4.5 -2.14306e-15 -17.5
      vertex 10 -2.14306e-15 -17.5
      vertex 4.11095 -1.83032 -17.5
    endloop
  endfacet
  facet normal -0 0 -1
    outer loop
      vertex -0.470378 4.47535 -17.5
      vertex 6.69131 7.43145 -17.5
      vertex 1.39058 4.27975 -17.5
    endloop
  endfacet
  facet normal -0 0 -1
    outer loop
      vertex 1.39058 4.27975 -17.5
      vertex 8.09017 5.87785 -17.5
      vertex 3.01109 3.34415 -17.5
    endloop
  endfacet
  facet normal -1.92435e-15 1.83067e-15 -1
    outer loop
      vertex -9.78148 -2.07912 -17.5
      vertex 3.09017 9.51056 -17.5
      vertex -2.25 3.89711 -17.5
    endloop
  endfacet
  facet normal -3.97307e-15 4.41255e-15 -1
    outer loop
      vertex -9.78148 -2.07912 -17.5
      vertex -2.25 3.89711 -17.5
      vertex -3.64058 2.64503 -17.5
    endloop
  endfacet
  facet normal -8.79913e-16 3.91763e-16 -1
    outer loop
      vertex -4.40166 0.935603 -17.5
      vertex -9.78148 -2.07912 -17.5
      vertex -3.64058 2.64503 -17.5
    endloop
  endfacet
  facet normal 0 0 -1
    outer loop
      vertex -2.25 3.89711 -17.5
      vertex 5 8.66025 -17.5
      vertex -0.470378 4.47535 -17.5
    endloop
  endfacet
  facet normal -0 0 -1
    outer loop
      vertex 3.01109 3.34415 -17.5
      vertex 9.13546 4.06737 -17.5
      vertex 4.11095 1.83031 -17.5
    endloop
  endfacet
  facet normal 0 0 1
    outer loop
      vertex -10.7596 -2.28703 9.5
      vertex -10.049 -4.4741 9.5
      vertex -8.89919 -6.46564 9.5
    endloop
  endfacet
  facet normal 0 0 1
    outer loop
      vertex -5.5 -9.52628 9.5
      vertex -10.7596 -2.28703 9.5
      vertex -7.36044 -8.17459 9.5
    endloop
  endfacet
  facet normal 0 0 1
    outer loop
      vertex -7.36044 -8.17459 9.5
      vertex -10.7596 -2.28703 9.5
      vertex -8.89919 -6.46564 9.5
    endloop
  endfacet
  facet normal 0 0 1
    outer loop
      vertex -3.39919 -10.4616 9.5
      vertex -10.7596 -2.28703 9.5
      vertex -5.5 -9.52628 9.5
    endloop
  endfacet
  facet normal 0 0 1
    outer loop
      vertex -1.14981 -10.9397 9.5
      vertex -10.7596 -2.28703 9.5
      vertex -3.39919 -10.4616 9.5
    endloop
  endfacet
  facet normal -0 0 1
    outer loop
      vertex 1.14981 -10.9397 9.5
      vertex -10.7596 -2.28703 9.5
      vertex -1.14981 -10.9397 9.5
    endloop
  endfacet
  facet normal -0 0 1
    outer loop
      vertex 3.39919 -10.4616 9.5
      vertex -10.7596 -2.28703 9.5
      vertex 1.14981 -10.9397 9.5
    endloop
  endfacet
  facet normal -0 0 1
    outer loop
      vertex 5.5 -9.52628 9.5
      vertex -10.7596 -2.28703 9.5
      vertex 3.39919 -10.4616 9.5
    endloop
  endfacet
  facet normal -0 0 1
    outer loop
      vertex 7.36044 -8.17459 9.5
      vertex -10.7596 -2.28703 9.5
      vertex 5.5 -9.52628 9.5
    endloop
  endfacet
  facet normal -0 -0 1
    outer loop
      vertex -0.470378 -4.47535 9.5
      vertex -10.7596 -2.28703 9.5
      vertex 7.36044 -8.17459 9.5
    endloop
  endfacet
  facet normal 0 -0 1
    outer loop
      vertex 1.39058 -4.27975 9.5
      vertex -0.470378 -4.47535 9.5
      vertex 8.89919 -6.46564 9.5
    endloop
  endfacet
  facet normal 0 0 1
    outer loop
      vertex -0.470378 4.47535 9.5
      vertex 1.39058 4.27975 9.5
      vertex 7.36044 8.17459 9.5
    endloop
  endfacet
  facet normal 0 0 1
    outer loop
      vertex 1.39058 4.27975 9.5
      vertex 3.01109 3.34415 9.5
      vertex 8.89919 6.46564 9.5
    endloop
  endfacet
  facet normal 2.39606e-17 1.12726e-16 1
    outer loop
      vertex 1.14981 10.9397 9.5
      vertex -10.7596 -2.28703 9.5
      vertex 3.39919 10.4616 9.5
    endloop
  endfacet
  facet normal 0 1.343e-16 1
    outer loop
      vertex -1.14981 10.9397 9.5
      vertex -10.7596 -2.28703 9.5
      vertex 1.14981 10.9397 9.5
    endloop
  endfacet
  facet normal -3.376e-17 1.58828e-16 1
    outer loop
      vertex -3.39919 10.4616 9.5
      vertex -10.7596 -2.28703 9.5
      vertex -1.14981 10.9397 9.5
    endloop
  endfacet
  facet normal -8.3501e-17 1.87546e-16 1
    outer loop
      vertex -5.5 9.52628 9.5
      vertex -10.7596 -2.28703 9.5
      vertex -3.39919 10.4616 9.5
    endloop
  endfacet
  facet normal -1.61487e-16 2.22268e-16 1
    outer loop
      vertex -7.36044 8.17459 9.5
      vertex -10.7596 -2.28703 9.5
      vertex -5.5 9.52628 9.5
    endloop
  endfacet
  facet normal -2.95051e-16 2.65665e-16 1
    outer loop
      vertex -8.89919 6.46564 9.5
      vertex -10.7596 -2.28703 9.5
      vertex -7.36044 8.17459 9.5
    endloop
  endfacet
  facet normal -5.56343e-16 3.21205e-16 1
    outer loop
      vertex -10.049 4.4741 9.5
      vertex -10.7596 -2.28703 9.5
      vertex -8.89919 6.46564 9.5
    endloop
  endfacet
  facet normal -1.19523e-15 3.88355e-16 1
    outer loop
      vertex -10.7596 2.28703 9.5
      vertex -10.7596 -2.28703 9.5
      vertex -10.049 4.4741 9.5
    endloop
  endfacet
  facet normal 3.69495e-15 3.88355e-16 1
    outer loop
      vertex -11 1.16338e-15 9.5
      vertex -10.7596 -2.28703 9.5
      vertex -10.7596 2.28703 9.5
    endloop
  endfacet
  facet normal 0 0 1
    outer loop
      vertex 3.01109 3.34415 9.5
      vertex 4.11095 1.83032 9.5
      vertex 10.049 4.4741 9.5
    endloop
  endfacet
  facet normal 1.0822e-15 -1.2019e-15 1
    outer loop
      vertex -3.64058 2.64503 9.5
      vertex -2.25 3.89711 9.5
      vertex -10.7596 -2.28703 9.5
    endloop
  endfacet
  facet normal -6.57081e-17 9.56553e-16 1
    outer loop
      vertex 4.11095 1.83032 9.5
      vertex 4.5 1.16338e-15 9.5
      vertex 10.7596 2.28703 9.5
    endloop
  endfacet
  facet normal 0 0 1
    outer loop
      vertex -2.25 3.89711 9.5
      vertex -0.470378 4.47535 9.5
      vertex 5.5 9.52628 9.5
    endloop
  endfacet
  facet normal 0 -0 1
    outer loop
      vertex 3.39919 10.4616 9.5
      vertex -2.25 3.89711 9.5
      vertex 5.5 9.52628 9.5
    endloop
  endfacet
  facet normal 5.57242e-16 -4.79543e-16 1
    outer loop
      vertex 3.39919 10.4616 9.5
      vertex -10.7596 -2.28703 9.5
      vertex -2.25 3.89711 9.5
    endloop
  endfacet
  facet normal 0 -0 1
    outer loop
      vertex 5.5 9.52628 9.5
      vertex -0.470378 4.47535 9.5
      vertex 7.36044 8.17459 9.5
    endloop
  endfacet
  facet normal 0 -0 1
    outer loop
      vertex 7.36044 8.17459 9.5
      vertex 1.39058 4.27975 9.5
      vertex 8.89919 6.46564 9.5
    endloop
  endfacet
  facet normal 0 -0 1
    outer loop
      vertex 8.89919 6.46564 9.5
      vertex 3.01109 3.34415 9.5
      vertex 10.049 4.4741 9.5
    endloop
  endfacet
  facet normal 3.60817e-16 -1.60646e-16 1
    outer loop
      vertex -4.40166 0.935603 9.5
      vertex -3.64058 2.64503 9.5
      vertex -10.7596 -2.28703 9.5
    endloop
  endfacet
  facet normal 0 -0 1
    outer loop
      vertex 10.049 4.4741 9.5
      vertex 4.11095 1.83032 9.5
      vertex 10.7596 2.28703 9.5
    endloop
  endfacet
  facet normal -1.02638e-32 7.76709e-16 1
    outer loop
      vertex 10.7596 2.28703 9.5
      vertex 4.5 1.16338e-15 9.5
      vertex 11 1.16338e-15 9.5
    endloop
  endfacet
  facet normal 0 0 1
    outer loop
      vertex 11 1.16338e-15 9.5
      vertex 4.11095 -1.83031 9.5
      vertex 10.7596 -2.28703 9.5
    endloop
  endfacet
  facet normal 0 0 1
    outer loop
      vertex 10.7596 -2.28703 9.5
      vertex 3.01109 -3.34415 9.5
      vertex 10.049 -4.4741 9.5
    endloop
  endfacet
  facet normal -0 0 1
    outer loop
      vertex 10.049 -4.4741 9.5
      vertex 1.39058 -4.27975 9.5
      vertex 8.89919 -6.46564 9.5
    endloop
  endfacet
  facet normal 0 0 1
    outer loop
      vertex -0.470378 -4.47535 9.5
      vertex -2.25 -3.89711 9.5
      vertex -10.7596 -2.28703 9.5
    endloop
  endfacet
  facet normal -0 0 1
    outer loop
      vertex 8.89919 -6.46564 9.5
      vertex -0.470378 -4.47535 9.5
      vertex 7.36044 -8.17459 9.5
    endloop
  endfacet
  facet normal 0 0 1
    outer loop
      vertex -2.25 -3.89711 9.5
      vertex -3.64058 -2.64503 9.5
      vertex -10.7596 -2.28703 9.5
    endloop
  endfacet
  facet normal 0 0 1
    outer loop
      vertex -3.64058 -2.64503 9.5
      vertex -4.40166 -0.935603 9.5
      vertex -10.7596 -2.28703 9.5
    endloop
  endfacet
  facet normal 0 -0 1
    outer loop
      vertex 3.01109 -3.34415 9.5
      vertex 1.39058 -4.27975 9.5
      vertex 10.049 -4.4741 9.5
    endloop
  endfacet
  facet normal 0 -0 1
    outer loop
      vertex 4.11095 -1.83031 9.5
      vertex 3.01109 -3.34415 9.5
      vertex 10.7596 -2.28703 9.5
    endloop
  endfacet
  facet normal 0 -0 1
    outer loop
      vertex 4.5 1.16338e-15 9.5
      vertex 4.11095 -1.83031 9.5
      vertex 11 1.16338e-15 9.5
    endloop
  endfacet
  facet normal -2.01782e-16 9.49311e-16 1
    outer loop
      vertex -4.40166 -0.935603 9.5
      vertex -4.40166 0.935603 9.5
      vertex -10.7596 -2.28703 9.5
    endloop
  endfacet
  facet normal 0.913545 -0.406737 4.51573e-17
    outer loop
      vertex -4.40166 0.935603 -17.5
      vertex -3.64058 2.64503 -17.5
      vertex -3.64058 2.64503 9.5
    endloop
  endfacet
  facet normal 0.913545 -0.406737 5.01743e-17
    outer loop
      vertex -4.40166 0.935603 9.5
      vertex -4.40166 0.935603 -17.5
      vertex -3.64058 2.64503 9.5
    endloop
  endfacet
  facet normal 1 0 -0
    outer loop
      vertex -4.40166 -0.935603 9.5
      vertex -4.40166 -0.935603 -17.5
      vertex -4.40166 0.935603 -17.5
    endloop
  endfacet
  facet normal 1 -0 0
    outer loop
      vertex -4.40166 0.935603 9.5
      vertex -4.40166 -0.935603 9.5
      vertex -4.40166 0.935603 -17.5
    endloop
  endfacet
  facet normal 0.669131 -0.743145 8.25078e-17
    outer loop
      vertex -3.64058 2.64503 -17.5
      vertex -2.25 3.89711 -17.5
      vertex -2.25 3.89711 9.5
    endloop
  endfacet
  facet normal 0.669131 -0.743145 8.55614e-17
    outer loop
      vertex -3.64058 2.64503 9.5
      vertex -3.64058 2.64503 -17.5
      vertex -2.25 3.89711 9.5
    endloop
  endfacet
  facet normal 0.309017 -0.951056 1.25387e-16
    outer loop
      vertex -2.25 3.89711 -17.5
      vertex -0.470378 4.47535 -17.5
      vertex -0.470378 4.47535 9.5
    endloop
  endfacet
  facet normal 0.309017 -0.951056 1.09499e-16
    outer loop
      vertex -2.25 3.89711 9.5
      vertex -2.25 3.89711 -17.5
      vertex -0.470378 4.47535 9.5
    endloop
  endfacet
  facet normal -0.104529 -0.994522 1.30255e-16
    outer loop
      vertex -0.470378 4.47535 -17.5
      vertex 1.39058 4.27975 -17.5
      vertex 1.39058 4.27975 9.5
    endloop
  endfacet
  facet normal -0.104529 -0.994522 1.30861e-16
    outer loop
      vertex -0.470378 4.47535 9.5
      vertex -0.470378 4.47535 -17.5
      vertex 1.39058 4.27975 9.5
    endloop
  endfacet
  facet normal -0.5 -0.866026 1.02158e-16
    outer loop
      vertex 1.39058 4.27975 -17.5
      vertex 3.01109 3.34415 -17.5
      vertex 3.01109 3.34415 9.5
    endloop
  endfacet
  facet normal -0.5 -0.866026 1.13953e-16
    outer loop
      vertex 1.39058 4.27975 9.5
      vertex 1.39058 4.27975 -17.5
      vertex 3.01109 3.34415 9.5
    endloop
  endfacet
  facet normal -0.809017 -0.587785 7.25081e-17
    outer loop
      vertex 4.11095 1.83031 -17.5
      vertex 4.11095 1.83032 9.5
      vertex 3.01109 3.34415 -17.5
    endloop
  endfacet
  facet normal -0.809017 -0.587785 6.76742e-17
    outer loop
      vertex 3.01109 3.34415 -17.5
      vertex 4.11095 1.83032 9.5
      vertex 3.01109 3.34415 9.5
    endloop
  endfacet
  facet normal -0.978148 -0.207911 2.5461e-17
    outer loop
      vertex 4.5 -2.14306e-15 -17.5
      vertex 4.5 1.16338e-15 9.5
      vertex 4.11095 1.83031 -17.5
    endloop
  endfacet
  facet normal -0.978148 -0.207911 2.56476e-17
    outer loop
      vertex 4.11095 1.83031 -17.5
      vertex 4.5 1.16338e-15 9.5
      vertex 4.11095 1.83032 9.5
    endloop
  endfacet
  facet normal -0.978148 0.207911 -2.5461e-17
    outer loop
      vertex 4.5 -2.14306e-15 -17.5
      vertex 4.11095 -1.83032 -17.5
      vertex 4.5 1.16338e-15 9.5
    endloop
  endfacet
  facet normal -0.978148 0.207911 -2.59687e-17
    outer loop
      vertex 4.5 1.16338e-15 9.5
      vertex 4.11095 -1.83032 -17.5
      vertex 4.11095 -1.83031 9.5
    endloop
  endfacet
  facet normal -0.809017 0.587785 -7.25081e-17
    outer loop
      vertex 4.11095 -1.83032 -17.5
      vertex 3.01109 -3.34415 -17.5
      vertex 4.11095 -1.83031 9.5
    endloop
  endfacet
  facet normal -0.809017 0.587785 -6.52594e-17
    outer loop
      vertex 4.11095 -1.83031 9.5
      vertex 3.01109 -3.34415 -17.5
      vertex 3.01109 -3.34415 9.5
    endloop
  endfacet
  facet normal -0.5 0.866026 -9.97092e-17
    outer loop
      vertex 3.01109 -3.34415 -17.5
      vertex 1.39058 -4.27975 -17.5
      vertex 3.01109 -3.34415 9.5
    endloop
  endfacet
  facet normal -0.5 0.866026 -1.14175e-16
    outer loop
      vertex 3.01109 -3.34415 9.5
      vertex 1.39058 -4.27975 -17.5
      vertex 1.39058 -4.27975 9.5
    endloop
  endfacet
  facet normal -0.104529 0.994522 -1.30861e-16
    outer loop
      vertex 1.39058 -4.27975 -17.5
      vertex -0.470378 -4.47535 -17.5
      vertex 1.39058 -4.27975 9.5
    endloop
  endfacet
  facet normal -0.104529 0.994522 -1.31117e-16
    outer loop
      vertex 1.39058 -4.27975 9.5
      vertex -0.470378 -4.47535 -17.5
      vertex -0.470378 -4.47535 9.5
    endloop
  endfacet
  facet normal 0.309017 0.951056 -1.25142e-16
    outer loop
      vertex -0.470378 -4.47535 -17.5
      vertex -2.25 -3.89711 -17.5
      vertex -0.470378 -4.47535 9.5
    endloop
  endfacet
  facet normal 0.309017 0.951056 -1.08889e-16
    outer loop
      vertex -0.470378 -4.47535 9.5
      vertex -2.25 -3.89711 -17.5
      vertex -2.25 -3.89711 9.5
    endloop
  endfacet
  facet normal 0.669131 0.743145 -8.55614e-17
    outer loop
      vertex -2.25 -3.89711 -17.5
      vertex -3.64058 -2.64503 -17.5
      vertex -2.25 -3.89711 9.5
    endloop
  endfacet
  facet normal 0.669131 0.743145 -8.76624e-17
    outer loop
      vertex -2.25 -3.89711 9.5
      vertex -3.64058 -2.64503 -17.5
      vertex -3.64058 -2.64503 9.5
    endloop
  endfacet
  facet normal 0.913545 0.406737 -4.68293e-17
    outer loop
      vertex -3.64058 -2.64503 9.5
      vertex -3.64058 -2.64503 -17.5
      vertex -4.40166 -0.935603 -17.5
    endloop
  endfacet
  facet normal 0.913545 0.406737 -5.01743e-17
    outer loop
      vertex -4.40166 -0.935603 9.5
      vertex -3.64058 -2.64503 9.5
      vertex -4.40166 -0.935603 -17.5
    endloop
  endfacet
endsolid OpenSCAD_Model
