solid OpenSCAD_Model
  facet normal -1 -0 -0
    outer loop
      vertex 0 0 0
      vertex 0 0 40
      vertex 0 13 0
    endloop
  endfacet
  facet normal -1 0 0
    outer loop
      vertex 0 13 0
      vertex 0 0 40
      vertex 0 13 40
    endloop
  endfacet
  facet normal 0 -1 0
    outer loop
      vertex 0 0 40
      vertex 0 0 0
      vertex 15 0 0
    endloop
  endfacet
  facet normal 0 -1 0
    outer loop
      vertex 15 0 40
      vertex 0 0 40
      vertex 15 0 0
    endloop
  endfacet
  facet normal 0 0 -1
    outer loop
      vertex 15 5 0
      vertex 15 0 0
      vertex 6 5 0
    endloop
  endfacet
  facet normal 0 0 -1
    outer loop
      vertex 15 7 0
      vertex 0 13 0
      vertex 15 13 0
    endloop
  endfacet
  facet normal 0 -0 -1
    outer loop
      vertex 0 0 0
      vertex 0 13 0
      vertex 6 7 0
    endloop
  endfacet
  facet normal 0 0 -1
    outer loop
      vertex 0 0 0
      vertex 6 7 0
      vertex 6 5 0
    endloop
  endfacet
  facet normal -0 0 -1
    outer loop
      vertex 0 0 0
      vertex 6 5 0
      vertex 15 0 0
    endloop
  endfacet
  facet normal -0 -0 -1
    outer loop
      vertex 6 7 0
      vertex 0 13 0
      vertex 15 7 0
    endloop
  endfacet
  facet normal 0 1 0
    outer loop
      vertex 0 13 0
      vertex 0 13 40
      vertex 15 13 0
    endloop
  endfacet
  facet normal 0 1 0
    outer loop
      vertex 15 13 0
      vertex 0 13 40
      vertex 15 13 40
    endloop
  endfacet
  facet normal 0 -0 1
    outer loop
      vertex 6 5 40
      vertex 0 0 40
      vertex 15 0 40
    endloop
  endfacet
  facet normal 0 -0 1
    outer loop
      vertex 0 13 40
      vertex 0 0 40
      vertex 6 5 40
    endloop
  endfacet
  facet normal 0 0 1
    outer loop
      vertex 6 7 40
      vertex 15 7 40
      vertex 0 13 40
    endloop
  endfacet
  facet normal 0 0 1
    outer loop
      vertex 0 13 40
      vertex 6 5 40
      vertex 6 7 40
    endloop
  endfacet
  facet normal 0 0 1
    outer loop
      vertex 15 13 40
      vertex 0 13 40
      vertex 15 7 40
    endloop
  endfacet
  facet normal 0 0 1
    outer loop
      vertex 15 5 40
      vertex 6 5 40
      vertex 15 0 40
    endloop
  endfacet
  facet normal 1 0 -0
    outer loop
      vertex 15 0 40
      vertex 15 0 0
      vertex 15 5 0
    endloop
  endfacet
  facet normal 1 0 0
    outer loop
      vertex 15 5 40
      vertex 15 0 40
      vertex 15 5 0
    endloop
  endfacet
  facet normal 0 1 0
    outer loop
      vertex 15 5 40
      vertex 15 5 0
      vertex 6 5 40
    endloop
  endfacet
  facet normal 0 1 -0
    outer loop
      vertex 6 5 40
      vertex 15 5 0
      vertex 6 5 0
    endloop
  endfacet
  facet normal 1 0 0
    outer loop
      vertex 6 7 0
      vertex 6 7 40
      vertex 6 5 40
    endloop
  endfacet
  facet normal 1 0 0
    outer loop
      vertex 6 5 0
      vertex 6 7 0
      vertex 6 5 40
    endloop
  endfacet
  facet normal 0 -1 0
    outer loop
      vertex 15 7 0
      vertex 15 7 40
      vertex 6 7 40
    endloop
  endfacet
  facet normal -0 -1 -0
    outer loop
      vertex 6 7 0
      vertex 15 7 0
      vertex 6 7 40
    endloop
  endfacet
  facet normal 1 0 -0
    outer loop
      vertex 15 7 40
      vertex 15 7 0
      vertex 15 13 0
    endloop
  endfacet
  facet normal 1 0 0
    outer loop
      vertex 15 13 40
      vertex 15 7 40
      vertex 15 13 0
    endloop
  endfacet
endsolid OpenSCAD_Model
