solid OpenSCAD_Model
  facet normal -1 -0 -0
    outer loop
      vertex -91 -27 -2
      vertex -91 -27 2
      vertex -91 27 -2
    endloop
  endfacet
  facet normal -1 0 0
    outer loop
      vertex -91 27 -2
      vertex -91 -27 2
      vertex -91 27 2
    endloop
  endfacet
  facet normal -0.993712 -0.111964 -0
    outer loop
      vertex -91 -27 -2
      vertex -90.9248 -27.6676 -2
      vertex -91 -27 2
    endloop
  endfacet
  facet normal -0.993712 -0.111964 0
    outer loop
      vertex -91 -27 2
      vertex -90.9248 -27.6676 -2
      vertex -90.9248 -27.6676 2
    endloop
  endfacet
  facet normal -0 -0 -1
    outer loop
      vertex -91 -27 -2
      vertex -91 27 -2
      vertex -90.9248 -27.6676 -2
    endloop
  endfacet
  facet normal 0 0 -1
    outer loop
      vertex -90.9248 -27.6676 -2
      vertex -91 27 -2
      vertex -90.9248 27.6676 -2
    endloop
  endfacet
  facet normal 0 -0 -1
    outer loop
      vertex -90.9248 -27.6676 -2
      vertex -90.9248 27.6676 -2
      vertex -90.7029 28.3017 -2
    endloop
  endfacet
  facet normal 0 0 -1
    outer loop
      vertex -90.9248 -27.6676 -2
      vertex -90.7029 28.3017 -2
      vertex -90.3455 28.8705 -2
    endloop
  endfacet
  facet normal 0 0 -1
    outer loop
      vertex -90.9248 -27.6676 -2
      vertex -90.3455 28.8705 -2
      vertex -89.8705 29.3455 -2
    endloop
  endfacet
  facet normal 0 0 -1
    outer loop
      vertex -90.9248 -27.6676 -2
      vertex -89.8705 29.3455 -2
      vertex -89.3017 29.7029 -2
    endloop
  endfacet
  facet normal 0 0 -1
    outer loop
      vertex -90.9248 -27.6676 -2
      vertex -89.3017 29.7029 -2
      vertex -88.6676 29.9248 -2
    endloop
  endfacet
  facet normal 0 0 -1
    outer loop
      vertex -90.9248 -27.6676 -2
      vertex -88.6676 29.9248 -2
      vertex -88 30 -2
    endloop
  endfacet
  facet normal 0 0 -1
    outer loop
      vertex -90.9248 -27.6676 -2
      vertex -88 30 -2
      vertex 88 30 -2
    endloop
  endfacet
  facet normal 0 0 -1
    outer loop
      vertex -90.9248 -27.6676 -2
      vertex 88 30 -2
      vertex 88.6676 29.9248 -2
    endloop
  endfacet
  facet normal 0 0 -1
    outer loop
      vertex -90.9248 -27.6676 -2
      vertex 88.6676 29.9248 -2
      vertex 89.3017 29.7029 -2
    endloop
  endfacet
  facet normal 0 0 -1
    outer loop
      vertex -90.9248 -27.6676 -2
      vertex 89.3017 29.7029 -2
      vertex 89.8705 29.3455 -2
    endloop
  endfacet
  facet normal 0 0 -1
    outer loop
      vertex -90.9248 -27.6676 -2
      vertex 89.8705 29.3455 -2
      vertex 90.3455 28.8705 -2
    endloop
  endfacet
  facet normal 0 0 -1
    outer loop
      vertex -90.9248 -27.6676 -2
      vertex 90.3455 28.8705 -2
      vertex 90.7029 28.3017 -2
    endloop
  endfacet
  facet normal 0 0 -1
    outer loop
      vertex -90.9248 -27.6676 -2
      vertex 90.7029 28.3017 -2
      vertex 90.9248 27.6676 -2
    endloop
  endfacet
  facet normal 0 0 -1
    outer loop
      vertex -90.9248 -27.6676 -2
      vertex 90.9248 27.6676 -2
      vertex 91 27 -2
    endloop
  endfacet
  facet normal 0 0 -1
    outer loop
      vertex -90.9248 -27.6676 -2
      vertex 91 27 -2
      vertex 91 -27 -2
    endloop
  endfacet
  facet normal -0 0 -1
    outer loop
      vertex -90.9248 -27.6676 -2
      vertex 91 -27 -2
      vertex 90.9248 -27.6676 -2
    endloop
  endfacet
  facet normal 0 0 -1
    outer loop
      vertex -90.9248 -27.6676 -2
      vertex 90.9248 -27.6676 -2
      vertex 90.7029 -28.3017 -2
    endloop
  endfacet
  facet normal 0 0 -1
    outer loop
      vertex -90.9248 -27.6676 -2
      vertex 90.7029 -28.3017 -2
      vertex 90.3455 -28.8705 -2
    endloop
  endfacet
  facet normal 0 0 -1
    outer loop
      vertex -90.9248 -27.6676 -2
      vertex 90.3455 -28.8705 -2
      vertex 89.8705 -29.3455 -2
    endloop
  endfacet
  facet normal 0 0 -1
    outer loop
      vertex -90.9248 -27.6676 -2
      vertex 89.8705 -29.3455 -2
      vertex 89.3017 -29.7029 -2
    endloop
  endfacet
  facet normal 0 0 -1
    outer loop
      vertex -90.9248 -27.6676 -2
      vertex 89.3017 -29.7029 -2
      vertex 88.6676 -29.9248 -2
    endloop
  endfacet
  facet normal 0 0 -1
    outer loop
      vertex -90.9248 -27.6676 -2
      vertex 88.6676 -29.9248 -2
      vertex 88 -30 -2
    endloop
  endfacet
  facet normal 0 0 -1
    outer loop
      vertex -90.9248 -27.6676 -2
      vertex 88 -30 -2
      vertex -88 -30 -2
    endloop
  endfacet
  facet normal 0 0 -1
    outer loop
      vertex -90.9248 -27.6676 -2
      vertex -88 -30 -2
      vertex -88.6676 -29.9248 -2
    endloop
  endfacet
  facet normal 0 0 -1
    outer loop
      vertex -90.9248 -27.6676 -2
      vertex -88.6676 -29.9248 -2
      vertex -89.3017 -29.7029 -2
    endloop
  endfacet
  facet normal 0 0 -1
    outer loop
      vertex -90.9248 -27.6676 -2
      vertex -89.3017 -29.7029 -2
      vertex -89.8705 -29.3455 -2
    endloop
  endfacet
  facet normal 0 0 -1
    outer loop
      vertex -90.9248 -27.6676 -2
      vertex -89.8705 -29.3455 -2
      vertex -90.3455 -28.8705 -2
    endloop
  endfacet
  facet normal 0 0 -1
    outer loop
      vertex -90.9248 -27.6676 -2
      vertex -90.3455 -28.8705 -2
      vertex -90.7029 -28.3017 -2
    endloop
  endfacet
  facet normal -0.993712 0.111964 0
    outer loop
      vertex -91 27 -2
      vertex -91 27 2
      vertex -90.9248 27.6676 -2
    endloop
  endfacet
  facet normal -0.993712 0.111964 0
    outer loop
      vertex -90.9248 27.6676 -2
      vertex -91 27 2
      vertex -90.9248 27.6676 2
    endloop
  endfacet
  facet normal 0 -0 1
    outer loop
      vertex -91 27 2
      vertex -91 -27 2
      vertex -90.9248 -27.6676 2
    endloop
  endfacet
  facet normal 0 0 1
    outer loop
      vertex -90.3455 -28.8705 2
      vertex -91 27 2
      vertex -90.7029 -28.3017 2
    endloop
  endfacet
  facet normal 0 0 1
    outer loop
      vertex -90.7029 -28.3017 2
      vertex -91 27 2
      vertex -90.9248 -27.6676 2
    endloop
  endfacet
  facet normal 0 0 1
    outer loop
      vertex -89.8705 -29.3455 2
      vertex -91 27 2
      vertex -90.3455 -28.8705 2
    endloop
  endfacet
  facet normal -0 0 1
    outer loop
      vertex -89.5 -25.5 2
      vertex -91 27 2
      vertex -89.8705 -29.3455 2
    endloop
  endfacet
  facet normal 0 -0 1
    outer loop
      vertex 87.1676 -28.4248 2
      vertex 86.5 -28.5 2
      vertex 89.8705 -29.3455 2
    endloop
  endfacet
  facet normal 0 0 1
    outer loop
      vertex -89.2029 26.8017 2
      vertex -88.8455 27.3705 2
      vertex -91 27 2
    endloop
  endfacet
  facet normal 0 -0 1
    outer loop
      vertex 89.5 25.5 2
      vertex 89.5 -25.5 2
      vertex 91 -27 2
    endloop
  endfacet
  facet normal 0 0 1
    outer loop
      vertex 88.3705 27.8455 2
      vertex 88.8455 27.3705 2
      vertex 90.9248 27.6676 2
    endloop
  endfacet
  facet normal 0 0 1
    outer loop
      vertex 88.8455 27.3705 2
      vertex 89.2029 26.8017 2
      vertex 91 27 2
    endloop
  endfacet
  facet normal 0 0 1
    outer loop
      vertex 86.5 -28.5 2
      vertex 88 -30 2
      vertex 88.6676 -29.9248 2
    endloop
  endfacet
  facet normal 0 0 1
    outer loop
      vertex -86.5 28.5 2
      vertex 90.3455 28.8705 2
      vertex 89.8705 29.3455 2
    endloop
  endfacet
  facet normal 0 0 1
    outer loop
      vertex -86.5 28.5 2
      vertex 88.6676 29.9248 2
      vertex 88 30 2
    endloop
  endfacet
  facet normal 0 -0 1
    outer loop
      vertex -88.6676 29.9248 2
      vertex -91 27 2
      vertex -88 30 2
    endloop
  endfacet
  facet normal 0 -0 1
    outer loop
      vertex -89.3017 29.7029 2
      vertex -91 27 2
      vertex -88.6676 29.9248 2
    endloop
  endfacet
  facet normal 0 -0 1
    outer loop
      vertex -89.8705 29.3455 2
      vertex -91 27 2
      vertex -89.3017 29.7029 2
    endloop
  endfacet
  facet normal 0 -0 1
    outer loop
      vertex -90.3455 28.8705 2
      vertex -91 27 2
      vertex -89.8705 29.3455 2
    endloop
  endfacet
  facet normal 0 -0 1
    outer loop
      vertex -90.7029 28.3017 2
      vertex -91 27 2
      vertex -90.3455 28.8705 2
    endloop
  endfacet
  facet normal 0 -0 1
    outer loop
      vertex -90.9248 27.6676 2
      vertex -91 27 2
      vertex -90.7029 28.3017 2
    endloop
  endfacet
  facet normal 0 0 1
    outer loop
      vertex -89.3017 -29.7029 2
      vertex -89.5 -25.5 2
      vertex -89.8705 -29.3455 2
    endloop
  endfacet
  facet normal -0 0 1
    outer loop
      vertex -88.3705 -27.8455 2
      vertex -88.8455 -27.3705 2
      vertex -88.6676 -29.9248 2
    endloop
  endfacet
  facet normal -0 0 1
    outer loop
      vertex -89.4248 26.1676 2
      vertex -91 27 2
      vertex -89.5 25.5 2
    endloop
  endfacet
  facet normal -0 0 1
    outer loop
      vertex -87.8017 -28.2029 2
      vertex -88.3705 -27.8455 2
      vertex -88 -30 2
    endloop
  endfacet
  facet normal 0 -0 1
    outer loop
      vertex 89.2029 -26.8017 2
      vertex 88.8455 -27.3705 2
      vertex 90.9248 -27.6676 2
    endloop
  endfacet
  facet normal 0 -0 1
    outer loop
      vertex 86.5 -28.5 2
      vertex -86.5 -28.5 2
      vertex 88 -30 2
    endloop
  endfacet
  facet normal 0 0 1
    outer loop
      vertex -88 30 2
      vertex -91 27 2
      vertex -88.8455 27.3705 2
    endloop
  endfacet
  facet normal 0 0 1
    outer loop
      vertex -88 30 2
      vertex -88.8455 27.3705 2
      vertex -88.3705 27.8455 2
    endloop
  endfacet
  facet normal 0 -0 1
    outer loop
      vertex -88 30 2
      vertex -88.3705 27.8455 2
      vertex -87.8017 28.2029 2
    endloop
  endfacet
  facet normal 0 0 1
    outer loop
      vertex -88 30 2
      vertex -87.8017 28.2029 2
      vertex -87.1676 28.4248 2
    endloop
  endfacet
  facet normal 0 0 1
    outer loop
      vertex -88 30 2
      vertex -86.5 28.5 2
      vertex 88 30 2
    endloop
  endfacet
  facet normal 0 0 1
    outer loop
      vertex -88 30 2
      vertex -87.1676 28.4248 2
      vertex -86.5 28.5 2
    endloop
  endfacet
  facet normal 0 -0 1
    outer loop
      vertex 90.3455 28.8705 2
      vertex 86.5 28.5 2
      vertex 90.7029 28.3017 2
    endloop
  endfacet
  facet normal 0 0 1
    outer loop
      vertex -86.5 28.5 2
      vertex 89.3017 29.7029 2
      vertex 88.6676 29.9248 2
    endloop
  endfacet
  facet normal 0 0 1
    outer loop
      vertex 86.5 28.5 2
      vertex 87.1676 28.4248 2
      vertex 90.7029 28.3017 2
    endloop
  endfacet
  facet normal 0 0 1
    outer loop
      vertex -86.5 28.5 2
      vertex 89.8705 29.3455 2
      vertex 89.3017 29.7029 2
    endloop
  endfacet
  facet normal 0 -0 1
    outer loop
      vertex 90.7029 28.3017 2
      vertex 87.8017 28.2029 2
      vertex 90.9248 27.6676 2
    endloop
  endfacet
  facet normal 0 0 1
    outer loop
      vertex -86.5 28.5 2
      vertex 86.5 28.5 2
      vertex 90.3455 28.8705 2
    endloop
  endfacet
  facet normal 0 0 1
    outer loop
      vertex 87.8017 28.2029 2
      vertex 88.3705 27.8455 2
      vertex 90.9248 27.6676 2
    endloop
  endfacet
  facet normal 0 -0 1
    outer loop
      vertex 90.9248 27.6676 2
      vertex 88.8455 27.3705 2
      vertex 91 27 2
    endloop
  endfacet
  facet normal 0 -0 1
    outer loop
      vertex 89.4248 -26.1676 2
      vertex 89.2029 -26.8017 2
      vertex 91 -27 2
    endloop
  endfacet
  facet normal 0 0 1
    outer loop
      vertex 91 27 2
      vertex 89.2029 26.8017 2
      vertex 89.4248 26.1676 2
    endloop
  endfacet
  facet normal 0 0 1
    outer loop
      vertex 91 27 2
      vertex 89.5 25.5 2
      vertex 91 -27 2
    endloop
  endfacet
  facet normal 0 0 1
    outer loop
      vertex 91 27 2
      vertex 89.4248 26.1676 2
      vertex 89.5 25.5 2
    endloop
  endfacet
  facet normal 0 -0 1
    outer loop
      vertex 89.5 -25.5 2
      vertex 89.4248 -26.1676 2
      vertex 91 -27 2
    endloop
  endfacet
  facet normal -0 0 1
    outer loop
      vertex 91 -27 2
      vertex 89.2029 -26.8017 2
      vertex 90.9248 -27.6676 2
    endloop
  endfacet
  facet normal 0 0 1
    outer loop
      vertex 86.5 -28.5 2
      vertex 88.6676 -29.9248 2
      vertex 89.3017 -29.7029 2
    endloop
  endfacet
  facet normal -0 0 1
    outer loop
      vertex 90.9248 -27.6676 2
      vertex 88.8455 -27.3705 2
      vertex 90.7029 -28.3017 2
    endloop
  endfacet
  facet normal 0 0 1
    outer loop
      vertex 87.1676 28.4248 2
      vertex 87.8017 28.2029 2
      vertex 90.7029 28.3017 2
    endloop
  endfacet
  facet normal -0 0 1
    outer loop
      vertex 90.7029 -28.3017 2
      vertex 88.3705 -27.8455 2
      vertex 90.3455 -28.8705 2
    endloop
  endfacet
  facet normal -0 0 1
    outer loop
      vertex 90.3455 -28.8705 2
      vertex 87.8017 -28.2029 2
      vertex 89.8705 -29.3455 2
    endloop
  endfacet
  facet normal 0 -0 1
    outer loop
      vertex 87.8017 -28.2029 2
      vertex 87.1676 -28.4248 2
      vertex 89.8705 -29.3455 2
    endloop
  endfacet
  facet normal -0 0 1
    outer loop
      vertex 89.8705 -29.3455 2
      vertex 86.5 -28.5 2
      vertex 89.3017 -29.7029 2
    endloop
  endfacet
  facet normal -0 0 1
    outer loop
      vertex 88 -30 2
      vertex -86.5 -28.5 2
      vertex -88 -30 2
    endloop
  endfacet
  facet normal -0 0 1
    outer loop
      vertex -86.5 -28.5 2
      vertex -87.1676 -28.4248 2
      vertex -88 -30 2
    endloop
  endfacet
  facet normal -0 0 1
    outer loop
      vertex -87.1676 -28.4248 2
      vertex -87.8017 -28.2029 2
      vertex -88 -30 2
    endloop
  endfacet
  facet normal 0 0 1
    outer loop
      vertex -88 -30 2
      vertex -88.3705 -27.8455 2
      vertex -88.6676 -29.9248 2
    endloop
  endfacet
  facet normal 0 -0 1
    outer loop
      vertex 88.8455 -27.3705 2
      vertex 88.3705 -27.8455 2
      vertex 90.7029 -28.3017 2
    endloop
  endfacet
  facet normal 0 0 1
    outer loop
      vertex -88.6676 -29.9248 2
      vertex -88.8455 -27.3705 2
      vertex -89.3017 -29.7029 2
    endloop
  endfacet
  facet normal 0 -0 1
    outer loop
      vertex 88.3705 -27.8455 2
      vertex 87.8017 -28.2029 2
      vertex 90.3455 -28.8705 2
    endloop
  endfacet
  facet normal -0 0 1
    outer loop
      vertex -88.8455 -27.3705 2
      vertex -89.2029 -26.8017 2
      vertex -89.3017 -29.7029 2
    endloop
  endfacet
  facet normal 0 0 1
    outer loop
      vertex -89.3017 -29.7029 2
      vertex -89.4248 -26.1676 2
      vertex -89.5 -25.5 2
    endloop
  endfacet
  facet normal -0 0 1
    outer loop
      vertex -89.2029 -26.8017 2
      vertex -89.4248 -26.1676 2
      vertex -89.3017 -29.7029 2
    endloop
  endfacet
  facet normal 0 0 1
    outer loop
      vertex -89.5 -25.5 2
      vertex -89.5 25.5 2
      vertex -91 27 2
    endloop
  endfacet
  facet normal 0 0 1
    outer loop
      vertex -89.4248 26.1676 2
      vertex -89.2029 26.8017 2
      vertex -91 27 2
    endloop
  endfacet
  facet normal -0.943883 -0.330279 -0
    outer loop
      vertex -90.9248 -27.6676 -2
      vertex -90.7029 -28.3017 -2
      vertex -90.9248 -27.6676 2
    endloop
  endfacet
  facet normal -0.943883 -0.330279 0
    outer loop
      vertex -90.9248 -27.6676 2
      vertex -90.7029 -28.3017 -2
      vertex -90.7029 -28.3017 2
    endloop
  endfacet
  facet normal -0.846724 -0.532033 -0
    outer loop
      vertex -90.7029 -28.3017 -2
      vertex -90.3455 -28.8705 -2
      vertex -90.7029 -28.3017 2
    endloop
  endfacet
  facet normal -0.846724 -0.532033 0
    outer loop
      vertex -90.7029 -28.3017 2
      vertex -90.3455 -28.8705 -2
      vertex -90.3455 -28.8705 2
    endloop
  endfacet
  facet normal -0.707107 -0.707107 0
    outer loop
      vertex -90.3455 -28.8705 2
      vertex -90.3455 -28.8705 -2
      vertex -89.8705 -29.3455 -2
    endloop
  endfacet
  facet normal -0.707107 -0.707107 0
    outer loop
      vertex -89.8705 -29.3455 2
      vertex -90.3455 -28.8705 2
      vertex -89.8705 -29.3455 -2
    endloop
  endfacet
  facet normal -0.532033 -0.846724 0
    outer loop
      vertex -89.8705 -29.3455 2
      vertex -89.8705 -29.3455 -2
      vertex -89.3017 -29.7029 -2
    endloop
  endfacet
  facet normal -0.532033 -0.846724 0
    outer loop
      vertex -89.3017 -29.7029 2
      vertex -89.8705 -29.3455 2
      vertex -89.3017 -29.7029 -2
    endloop
  endfacet
  facet normal -0.330279 -0.943883 0
    outer loop
      vertex -89.3017 -29.7029 2
      vertex -89.3017 -29.7029 -2
      vertex -88.6676 -29.9248 -2
    endloop
  endfacet
  facet normal -0.330279 -0.943883 0
    outer loop
      vertex -88.6676 -29.9248 2
      vertex -89.3017 -29.7029 2
      vertex -88.6676 -29.9248 -2
    endloop
  endfacet
  facet normal -0.111964 -0.993712 0
    outer loop
      vertex -88.6676 -29.9248 2
      vertex -88.6676 -29.9248 -2
      vertex -88 -30 -2
    endloop
  endfacet
  facet normal -0.111964 -0.993712 0
    outer loop
      vertex -88 -30 2
      vertex -88.6676 -29.9248 2
      vertex -88 -30 -2
    endloop
  endfacet
  facet normal 0 -1 0
    outer loop
      vertex -88 -30 2
      vertex -88 -30 -2
      vertex 88 -30 -2
    endloop
  endfacet
  facet normal 0 -1 0
    outer loop
      vertex 88 -30 2
      vertex -88 -30 2
      vertex 88 -30 -2
    endloop
  endfacet
  facet normal 0.111964 -0.993712 0
    outer loop
      vertex 88 -30 2
      vertex 88 -30 -2
      vertex 88.6676 -29.9248 -2
    endloop
  endfacet
  facet normal 0.111964 -0.993712 0
    outer loop
      vertex 88.6676 -29.9248 2
      vertex 88 -30 2
      vertex 88.6676 -29.9248 -2
    endloop
  endfacet
  facet normal 0.330279 -0.943883 0
    outer loop
      vertex 88.6676 -29.9248 2
      vertex 88.6676 -29.9248 -2
      vertex 89.3017 -29.7029 -2
    endloop
  endfacet
  facet normal 0.330279 -0.943883 0
    outer loop
      vertex 89.3017 -29.7029 2
      vertex 88.6676 -29.9248 2
      vertex 89.3017 -29.7029 -2
    endloop
  endfacet
  facet normal 0.532033 -0.846724 0
    outer loop
      vertex 89.3017 -29.7029 2
      vertex 89.3017 -29.7029 -2
      vertex 89.8705 -29.3455 -2
    endloop
  endfacet
  facet normal 0.532033 -0.846724 0
    outer loop
      vertex 89.8705 -29.3455 2
      vertex 89.3017 -29.7029 2
      vertex 89.8705 -29.3455 -2
    endloop
  endfacet
  facet normal 0.707107 -0.707107 0
    outer loop
      vertex 89.8705 -29.3455 2
      vertex 89.8705 -29.3455 -2
      vertex 90.3455 -28.8705 -2
    endloop
  endfacet
  facet normal 0.707107 -0.707107 0
    outer loop
      vertex 90.3455 -28.8705 2
      vertex 89.8705 -29.3455 2
      vertex 90.3455 -28.8705 -2
    endloop
  endfacet
  facet normal 0.846724 -0.532033 0
    outer loop
      vertex 90.3455 -28.8705 2
      vertex 90.3455 -28.8705 -2
      vertex 90.7029 -28.3017 -2
    endloop
  endfacet
  facet normal 0.846724 -0.532033 0
    outer loop
      vertex 90.7029 -28.3017 2
      vertex 90.3455 -28.8705 2
      vertex 90.7029 -28.3017 -2
    endloop
  endfacet
  facet normal 0.943883 -0.330279 0
    outer loop
      vertex 90.7029 -28.3017 2
      vertex 90.7029 -28.3017 -2
      vertex 90.9248 -27.6676 -2
    endloop
  endfacet
  facet normal 0.943883 -0.330279 0
    outer loop
      vertex 90.9248 -27.6676 2
      vertex 90.7029 -28.3017 2
      vertex 90.9248 -27.6676 -2
    endloop
  endfacet
  facet normal 0.993712 -0.111964 0
    outer loop
      vertex 90.9248 -27.6676 2
      vertex 90.9248 -27.6676 -2
      vertex 91 -27 -2
    endloop
  endfacet
  facet normal 0.993712 -0.111964 0
    outer loop
      vertex 91 -27 2
      vertex 90.9248 -27.6676 2
      vertex 91 -27 -2
    endloop
  endfacet
  facet normal 1 0 -0
    outer loop
      vertex 91 -27 2
      vertex 91 -27 -2
      vertex 91 27 -2
    endloop
  endfacet
  facet normal 1 0 0
    outer loop
      vertex 91 27 2
      vertex 91 -27 2
      vertex 91 27 -2
    endloop
  endfacet
  facet normal 0.993712 0.111964 0
    outer loop
      vertex 91 27 -2
      vertex 90.9248 27.6676 -2
      vertex 90.9248 27.6676 2
    endloop
  endfacet
  facet normal 0.993712 0.111964 -0
    outer loop
      vertex 91 27 2
      vertex 91 27 -2
      vertex 90.9248 27.6676 2
    endloop
  endfacet
  facet normal 0.943883 0.330279 0
    outer loop
      vertex 90.9248 27.6676 -2
      vertex 90.7029 28.3017 -2
      vertex 90.7029 28.3017 2
    endloop
  endfacet
  facet normal 0.943883 0.330279 -0
    outer loop
      vertex 90.9248 27.6676 2
      vertex 90.9248 27.6676 -2
      vertex 90.7029 28.3017 2
    endloop
  endfacet
  facet normal 0.846724 0.532033 0
    outer loop
      vertex 90.7029 28.3017 -2
      vertex 90.3455 28.8705 -2
      vertex 90.3455 28.8705 2
    endloop
  endfacet
  facet normal 0.846724 0.532033 -0
    outer loop
      vertex 90.7029 28.3017 2
      vertex 90.7029 28.3017 -2
      vertex 90.3455 28.8705 2
    endloop
  endfacet
  facet normal 0.707107 0.707107 0
    outer loop
      vertex 89.8705 29.3455 -2
      vertex 89.8705 29.3455 2
      vertex 90.3455 28.8705 -2
    endloop
  endfacet
  facet normal 0.707107 0.707107 0
    outer loop
      vertex 90.3455 28.8705 -2
      vertex 89.8705 29.3455 2
      vertex 90.3455 28.8705 2
    endloop
  endfacet
  facet normal 0.532033 0.846724 0
    outer loop
      vertex 89.3017 29.7029 -2
      vertex 89.3017 29.7029 2
      vertex 89.8705 29.3455 -2
    endloop
  endfacet
  facet normal 0.532033 0.846724 0
    outer loop
      vertex 89.8705 29.3455 -2
      vertex 89.3017 29.7029 2
      vertex 89.8705 29.3455 2
    endloop
  endfacet
  facet normal 0.330279 0.943883 0
    outer loop
      vertex 88.6676 29.9248 -2
      vertex 88.6676 29.9248 2
      vertex 89.3017 29.7029 -2
    endloop
  endfacet
  facet normal 0.330279 0.943883 0
    outer loop
      vertex 89.3017 29.7029 -2
      vertex 88.6676 29.9248 2
      vertex 89.3017 29.7029 2
    endloop
  endfacet
  facet normal 0.111964 0.993712 0
    outer loop
      vertex 88 30 -2
      vertex 88 30 2
      vertex 88.6676 29.9248 -2
    endloop
  endfacet
  facet normal 0.111964 0.993712 0
    outer loop
      vertex 88.6676 29.9248 -2
      vertex 88 30 2
      vertex 88.6676 29.9248 2
    endloop
  endfacet
  facet normal 0 1 0
    outer loop
      vertex -88 30 -2
      vertex -88 30 2
      vertex 88 30 -2
    endloop
  endfacet
  facet normal 0 1 0
    outer loop
      vertex 88 30 -2
      vertex -88 30 2
      vertex 88 30 2
    endloop
  endfacet
  facet normal -0.111964 0.993712 0
    outer loop
      vertex -88.6676 29.9248 -2
      vertex -88.6676 29.9248 2
      vertex -88 30 -2
    endloop
  endfacet
  facet normal -0.111964 0.993712 0
    outer loop
      vertex -88 30 -2
      vertex -88.6676 29.9248 2
      vertex -88 30 2
    endloop
  endfacet
  facet normal -0.330279 0.943883 0
    outer loop
      vertex -89.3017 29.7029 -2
      vertex -89.3017 29.7029 2
      vertex -88.6676 29.9248 -2
    endloop
  endfacet
  facet normal -0.330279 0.943883 0
    outer loop
      vertex -88.6676 29.9248 -2
      vertex -89.3017 29.7029 2
      vertex -88.6676 29.9248 2
    endloop
  endfacet
  facet normal -0.532033 0.846724 0
    outer loop
      vertex -89.8705 29.3455 -2
      vertex -89.8705 29.3455 2
      vertex -89.3017 29.7029 -2
    endloop
  endfacet
  facet normal -0.532033 0.846724 0
    outer loop
      vertex -89.3017 29.7029 -2
      vertex -89.8705 29.3455 2
      vertex -89.3017 29.7029 2
    endloop
  endfacet
  facet normal -0.707107 0.707107 0
    outer loop
      vertex -90.3455 28.8705 -2
      vertex -90.3455 28.8705 2
      vertex -89.8705 29.3455 -2
    endloop
  endfacet
  facet normal -0.707107 0.707107 0
    outer loop
      vertex -89.8705 29.3455 -2
      vertex -90.3455 28.8705 2
      vertex -89.8705 29.3455 2
    endloop
  endfacet
  facet normal -0.846724 0.532033 0
    outer loop
      vertex -90.7029 28.3017 -2
      vertex -90.7029 28.3017 2
      vertex -90.3455 28.8705 -2
    endloop
  endfacet
  facet normal -0.846724 0.532033 0
    outer loop
      vertex -90.3455 28.8705 -2
      vertex -90.7029 28.3017 2
      vertex -90.3455 28.8705 2
    endloop
  endfacet
  facet normal -0.943883 0.330279 0
    outer loop
      vertex -90.9248 27.6676 -2
      vertex -90.9248 27.6676 2
      vertex -90.7029 28.3017 -2
    endloop
  endfacet
  facet normal -0.943883 0.330279 0
    outer loop
      vertex -90.7029 28.3017 -2
      vertex -90.9248 27.6676 2
      vertex -90.7029 28.3017 2
    endloop
  endfacet
  facet normal 1 0 0
    outer loop
      vertex -89.5 25.5 0
      vertex -89.5 25.5 2
      vertex -89.5 -25.5 2
    endloop
  endfacet
  facet normal 1 0 0
    outer loop
      vertex -89.5 -25.5 0
      vertex -89.5 25.5 0
      vertex -89.5 -25.5 2
    endloop
  endfacet
  facet normal 0.993712 0.111964 0
    outer loop
      vertex -89.5 -25.5 2
      vertex -89.4248 -26.1676 2
      vertex -89.4248 -26.1676 0
    endloop
  endfacet
  facet normal 0.993712 0.111964 0
    outer loop
      vertex -89.5 -25.5 0
      vertex -89.5 -25.5 2
      vertex -89.4248 -26.1676 0
    endloop
  endfacet
  facet normal 0.943883 0.330279 0
    outer loop
      vertex -89.4248 -26.1676 2
      vertex -89.2029 -26.8017 2
      vertex -89.2029 -26.8017 0
    endloop
  endfacet
  facet normal 0.943883 0.330279 0
    outer loop
      vertex -89.4248 -26.1676 0
      vertex -89.4248 -26.1676 2
      vertex -89.2029 -26.8017 0
    endloop
  endfacet
  facet normal 0.846724 0.532033 0
    outer loop
      vertex -89.2029 -26.8017 2
      vertex -88.8455 -27.3705 2
      vertex -88.8455 -27.3705 0
    endloop
  endfacet
  facet normal 0.846724 0.532033 0
    outer loop
      vertex -89.2029 -26.8017 0
      vertex -89.2029 -26.8017 2
      vertex -88.8455 -27.3705 0
    endloop
  endfacet
  facet normal 0.707107 0.707107 -0
    outer loop
      vertex -88.3705 -27.8455 2
      vertex -88.3705 -27.8455 0
      vertex -88.8455 -27.3705 2
    endloop
  endfacet
  facet normal 0.707107 0.707107 -0
    outer loop
      vertex -88.8455 -27.3705 2
      vertex -88.3705 -27.8455 0
      vertex -88.8455 -27.3705 0
    endloop
  endfacet
  facet normal 0.532033 0.846724 -0
    outer loop
      vertex -87.8017 -28.2029 2
      vertex -87.8017 -28.2029 0
      vertex -88.3705 -27.8455 2
    endloop
  endfacet
  facet normal 0.532033 0.846724 -0
    outer loop
      vertex -88.3705 -27.8455 2
      vertex -87.8017 -28.2029 0
      vertex -88.3705 -27.8455 0
    endloop
  endfacet
  facet normal 0.330279 0.943883 -0
    outer loop
      vertex -87.1676 -28.4248 2
      vertex -87.1676 -28.4248 0
      vertex -87.8017 -28.2029 2
    endloop
  endfacet
  facet normal 0.330279 0.943883 -0
    outer loop
      vertex -87.8017 -28.2029 2
      vertex -87.1676 -28.4248 0
      vertex -87.8017 -28.2029 0
    endloop
  endfacet
  facet normal 0.111964 0.993712 -0
    outer loop
      vertex -86.5 -28.5 2
      vertex -86.5 -28.5 0
      vertex -87.1676 -28.4248 2
    endloop
  endfacet
  facet normal 0.111964 0.993712 -0
    outer loop
      vertex -87.1676 -28.4248 2
      vertex -86.5 -28.5 0
      vertex -87.1676 -28.4248 0
    endloop
  endfacet
  facet normal 0 1 0
    outer loop
      vertex 86.5 -28.5 2
      vertex 86.5 -28.5 0
      vertex -86.5 -28.5 2
    endloop
  endfacet
  facet normal 0 1 -0
    outer loop
      vertex -86.5 -28.5 2
      vertex 86.5 -28.5 0
      vertex -86.5 -28.5 0
    endloop
  endfacet
  facet normal -0.111964 0.993712 0
    outer loop
      vertex 87.1676 -28.4248 2
      vertex 87.1676 -28.4248 0
      vertex 86.5 -28.5 2
    endloop
  endfacet
  facet normal -0.111964 0.993712 0
    outer loop
      vertex 86.5 -28.5 2
      vertex 87.1676 -28.4248 0
      vertex 86.5 -28.5 0
    endloop
  endfacet
  facet normal -0.330279 0.943883 0
    outer loop
      vertex 87.8017 -28.2029 2
      vertex 87.8017 -28.2029 0
      vertex 87.1676 -28.4248 2
    endloop
  endfacet
  facet normal -0.330279 0.943883 0
    outer loop
      vertex 87.1676 -28.4248 2
      vertex 87.8017 -28.2029 0
      vertex 87.1676 -28.4248 0
    endloop
  endfacet
  facet normal -0.532033 0.846724 0
    outer loop
      vertex 88.3705 -27.8455 2
      vertex 88.3705 -27.8455 0
      vertex 87.8017 -28.2029 2
    endloop
  endfacet
  facet normal -0.532033 0.846724 0
    outer loop
      vertex 87.8017 -28.2029 2
      vertex 88.3705 -27.8455 0
      vertex 87.8017 -28.2029 0
    endloop
  endfacet
  facet normal -0.707107 0.707107 0
    outer loop
      vertex 88.8455 -27.3705 2
      vertex 88.8455 -27.3705 0
      vertex 88.3705 -27.8455 2
    endloop
  endfacet
  facet normal -0.707107 0.707107 0
    outer loop
      vertex 88.3705 -27.8455 2
      vertex 88.8455 -27.3705 0
      vertex 88.3705 -27.8455 0
    endloop
  endfacet
  facet normal -0.846724 0.532033 0
    outer loop
      vertex 89.2029 -26.8017 2
      vertex 89.2029 -26.8017 0
      vertex 88.8455 -27.3705 2
    endloop
  endfacet
  facet normal -0.846724 0.532033 0
    outer loop
      vertex 88.8455 -27.3705 2
      vertex 89.2029 -26.8017 0
      vertex 88.8455 -27.3705 0
    endloop
  endfacet
  facet normal -0.943883 0.330279 0
    outer loop
      vertex 89.4248 -26.1676 2
      vertex 89.4248 -26.1676 0
      vertex 89.2029 -26.8017 2
    endloop
  endfacet
  facet normal -0.943883 0.330279 0
    outer loop
      vertex 89.2029 -26.8017 2
      vertex 89.4248 -26.1676 0
      vertex 89.2029 -26.8017 0
    endloop
  endfacet
  facet normal -0.993712 0.111964 0
    outer loop
      vertex 89.5 -25.5 2
      vertex 89.5 -25.5 0
      vertex 89.4248 -26.1676 2
    endloop
  endfacet
  facet normal -0.993712 0.111964 0
    outer loop
      vertex 89.4248 -26.1676 2
      vertex 89.5 -25.5 0
      vertex 89.4248 -26.1676 0
    endloop
  endfacet
  facet normal -1 0 0
    outer loop
      vertex 89.5 25.5 2
      vertex 89.5 25.5 0
      vertex 89.5 -25.5 2
    endloop
  endfacet
  facet normal -1 0 0
    outer loop
      vertex 89.5 -25.5 2
      vertex 89.5 25.5 0
      vertex 89.5 -25.5 0
    endloop
  endfacet
  facet normal -0.993712 -0.111964 0
    outer loop
      vertex 89.5 25.5 2
      vertex 89.4248 26.1676 2
      vertex 89.5 25.5 0
    endloop
  endfacet
  facet normal -0.993712 -0.111964 0
    outer loop
      vertex 89.5 25.5 0
      vertex 89.4248 26.1676 2
      vertex 89.4248 26.1676 0
    endloop
  endfacet
  facet normal -0.943883 -0.330279 0
    outer loop
      vertex 89.4248 26.1676 2
      vertex 89.2029 26.8017 2
      vertex 89.4248 26.1676 0
    endloop
  endfacet
  facet normal -0.943883 -0.330279 0
    outer loop
      vertex 89.4248 26.1676 0
      vertex 89.2029 26.8017 2
      vertex 89.2029 26.8017 0
    endloop
  endfacet
  facet normal -0.846724 -0.532033 0
    outer loop
      vertex 89.2029 26.8017 2
      vertex 88.8455 27.3705 2
      vertex 89.2029 26.8017 0
    endloop
  endfacet
  facet normal -0.846724 -0.532033 0
    outer loop
      vertex 89.2029 26.8017 0
      vertex 88.8455 27.3705 2
      vertex 88.8455 27.3705 0
    endloop
  endfacet
  facet normal -0.707107 -0.707107 -0
    outer loop
      vertex 88.8455 27.3705 0
      vertex 88.8455 27.3705 2
      vertex 88.3705 27.8455 2
    endloop
  endfacet
  facet normal -0.707107 -0.707107 -0
    outer loop
      vertex 88.3705 27.8455 0
      vertex 88.8455 27.3705 0
      vertex 88.3705 27.8455 2
    endloop
  endfacet
  facet normal -0.532033 -0.846724 -0
    outer loop
      vertex 88.3705 27.8455 0
      vertex 88.3705 27.8455 2
      vertex 87.8017 28.2029 2
    endloop
  endfacet
  facet normal -0.532033 -0.846724 -0
    outer loop
      vertex 87.8017 28.2029 0
      vertex 88.3705 27.8455 0
      vertex 87.8017 28.2029 2
    endloop
  endfacet
  facet normal -0.330279 -0.943883 -0
    outer loop
      vertex 87.8017 28.2029 0
      vertex 87.8017 28.2029 2
      vertex 87.1676 28.4248 2
    endloop
  endfacet
  facet normal -0.330279 -0.943883 -0
    outer loop
      vertex 87.1676 28.4248 0
      vertex 87.8017 28.2029 0
      vertex 87.1676 28.4248 2
    endloop
  endfacet
  facet normal -0.111964 -0.993712 -0
    outer loop
      vertex 87.1676 28.4248 0
      vertex 87.1676 28.4248 2
      vertex 86.5 28.5 2
    endloop
  endfacet
  facet normal -0.111964 -0.993712 -0
    outer loop
      vertex 86.5 28.5 0
      vertex 87.1676 28.4248 0
      vertex 86.5 28.5 2
    endloop
  endfacet
  facet normal 0 -1 0
    outer loop
      vertex 86.5 28.5 0
      vertex 86.5 28.5 2
      vertex -86.5 28.5 2
    endloop
  endfacet
  facet normal -0 -1 -0
    outer loop
      vertex -86.5 28.5 0
      vertex 86.5 28.5 0
      vertex -86.5 28.5 2
    endloop
  endfacet
  facet normal 0.111964 -0.993712 0
    outer loop
      vertex -86.5 28.5 0
      vertex -86.5 28.5 2
      vertex -87.1676 28.4248 2
    endloop
  endfacet
  facet normal 0.111964 -0.993712 0
    outer loop
      vertex -87.1676 28.4248 0
      vertex -86.5 28.5 0
      vertex -87.1676 28.4248 2
    endloop
  endfacet
  facet normal 0.330279 -0.943883 0
    outer loop
      vertex -87.1676 28.4248 0
      vertex -87.1676 28.4248 2
      vertex -87.8017 28.2029 2
    endloop
  endfacet
  facet normal 0.330279 -0.943883 0
    outer loop
      vertex -87.8017 28.2029 0
      vertex -87.1676 28.4248 0
      vertex -87.8017 28.2029 2
    endloop
  endfacet
  facet normal 0.532033 -0.846724 0
    outer loop
      vertex -87.8017 28.2029 0
      vertex -87.8017 28.2029 2
      vertex -88.3705 27.8455 2
    endloop
  endfacet
  facet normal 0.532033 -0.846724 0
    outer loop
      vertex -88.3705 27.8455 0
      vertex -87.8017 28.2029 0
      vertex -88.3705 27.8455 2
    endloop
  endfacet
  facet normal 0.707107 -0.707107 0
    outer loop
      vertex -88.3705 27.8455 0
      vertex -88.3705 27.8455 2
      vertex -88.8455 27.3705 2
    endloop
  endfacet
  facet normal 0.707107 -0.707107 0
    outer loop
      vertex -88.8455 27.3705 0
      vertex -88.3705 27.8455 0
      vertex -88.8455 27.3705 2
    endloop
  endfacet
  facet normal 0.846724 -0.532033 0
    outer loop
      vertex -88.8455 27.3705 0
      vertex -88.8455 27.3705 2
      vertex -89.2029 26.8017 2
    endloop
  endfacet
  facet normal 0.846724 -0.532033 0
    outer loop
      vertex -89.2029 26.8017 0
      vertex -88.8455 27.3705 0
      vertex -89.2029 26.8017 2
    endloop
  endfacet
  facet normal 0.943883 -0.330279 0
    outer loop
      vertex -89.2029 26.8017 0
      vertex -89.2029 26.8017 2
      vertex -89.4248 26.1676 2
    endloop
  endfacet
  facet normal 0.943883 -0.330279 0
    outer loop
      vertex -89.4248 26.1676 0
      vertex -89.2029 26.8017 0
      vertex -89.4248 26.1676 2
    endloop
  endfacet
  facet normal 0.993712 -0.111964 0
    outer loop
      vertex -89.4248 26.1676 0
      vertex -89.4248 26.1676 2
      vertex -89.5 25.5 2
    endloop
  endfacet
  facet normal 0.993712 -0.111964 0
    outer loop
      vertex -89.5 25.5 0
      vertex -89.4248 26.1676 0
      vertex -89.5 25.5 2
    endloop
  endfacet
  facet normal 0 0 1
    outer loop
      vertex -89.4248 -26.1676 0
      vertex -89.2029 -26.8017 0
      vertex -88.8455 -27.3705 0
    endloop
  endfacet
  facet normal 0 0 1
    outer loop
      vertex -87.8017 -28.2029 0
      vertex -89.4248 -26.1676 0
      vertex -88.3705 -27.8455 0
    endloop
  endfacet
  facet normal 0 0 1
    outer loop
      vertex -88.3705 -27.8455 0
      vertex -89.4248 -26.1676 0
      vertex -88.8455 -27.3705 0
    endloop
  endfacet
  facet normal 0 0 1
    outer loop
      vertex -87.1676 -28.4248 0
      vertex -89.4248 -26.1676 0
      vertex -87.8017 -28.2029 0
    endloop
  endfacet
  facet normal 0 0 1
    outer loop
      vertex -86.5 -28.5 0
      vertex -89.4248 -26.1676 0
      vertex -87.1676 -28.4248 0
    endloop
  endfacet
  facet normal -0 0 1
    outer loop
      vertex 86.5 -28.5 0
      vertex -89.4248 -26.1676 0
      vertex -86.5 -28.5 0
    endloop
  endfacet
  facet normal -0 0 1
    outer loop
      vertex 87.1676 -28.4248 0
      vertex -89.4248 -26.1676 0
      vertex 86.5 -28.5 0
    endloop
  endfacet
  facet normal -0 0 1
    outer loop
      vertex 87.8017 -28.2029 0
      vertex -89.4248 -26.1676 0
      vertex 87.1676 -28.4248 0
    endloop
  endfacet
  facet normal -0 0 1
    outer loop
      vertex 88.3705 -27.8455 0
      vertex -89.4248 -26.1676 0
      vertex 87.8017 -28.2029 0
    endloop
  endfacet
  facet normal -0 0 1
    outer loop
      vertex 88.8455 -27.3705 0
      vertex -89.4248 -26.1676 0
      vertex 88.3705 -27.8455 0
    endloop
  endfacet
  facet normal -0 0 1
    outer loop
      vertex 89.2029 -26.8017 0
      vertex -89.4248 -26.1676 0
      vertex 88.8455 -27.3705 0
    endloop
  endfacet
  facet normal 0 0 1
    outer loop
      vertex 89.4248 -26.1676 0
      vertex -89.4248 -26.1676 0
      vertex 89.2029 -26.8017 0
    endloop
  endfacet
  facet normal 0 0 1
    outer loop
      vertex 89.5 -25.5 0
      vertex -89.4248 -26.1676 0
      vertex 89.4248 -26.1676 0
    endloop
  endfacet
  facet normal 0 -0 1
    outer loop
      vertex -57.1 -20 0
      vertex -89.4248 -26.1676 0
      vertex 89.5 -25.5 0
    endloop
  endfacet
  facet normal 0 -0 1
    outer loop
      vertex -11.4 3.83 0
      vertex -13.245 1.115 0
      vertex -4.84 3.73 0
    endloop
  endfacet
  facet normal 0 0 1
    outer loop
      vertex 43.75 14.7 0
      vertex 89.2029 26.8017 0
      vertex 88.8455 27.3705 0
    endloop
  endfacet
  facet normal 0 0 1
    outer loop
      vertex 43.75 14.7 0
      vertex 89.4248 26.1676 0
      vertex 89.2029 26.8017 0
    endloop
  endfacet
  facet normal 0 0 1
    outer loop
      vertex 22.065 6.445 0
      vertex 89.5 25.5 0
      vertex 89.4248 26.1676 0
    endloop
  endfacet
  facet normal 0 -0 1
    outer loop
      vertex -87.1676 28.4248 0
      vertex -89.4248 -26.1676 0
      vertex -86.5 28.5 0
    endloop
  endfacet
  facet normal 0 -0 1
    outer loop
      vertex -87.8017 28.2029 0
      vertex -89.4248 -26.1676 0
      vertex -87.1676 28.4248 0
    endloop
  endfacet
  facet normal 0 -0 1
    outer loop
      vertex -88.3705 27.8455 0
      vertex -89.4248 -26.1676 0
      vertex -87.8017 28.2029 0
    endloop
  endfacet
  facet normal 0 -0 1
    outer loop
      vertex -88.8455 27.3705 0
      vertex -89.4248 -26.1676 0
      vertex -88.3705 27.8455 0
    endloop
  endfacet
  facet normal 0 -0 1
    outer loop
      vertex -89.2029 26.8017 0
      vertex -89.4248 -26.1676 0
      vertex -88.8455 27.3705 0
    endloop
  endfacet
  facet normal 0 -0 1
    outer loop
      vertex -89.4248 26.1676 0
      vertex -89.4248 -26.1676 0
      vertex -89.2029 26.8017 0
    endloop
  endfacet
  facet normal 0 0 1
    outer loop
      vertex -89.5 25.5 0
      vertex -89.4248 -26.1676 0
      vertex -89.4248 26.1676 0
    endloop
  endfacet
  facet normal 0 0 1
    outer loop
      vertex -89.5 -25.5 0
      vertex -89.4248 -26.1676 0
      vertex -89.5 25.5 0
    endloop
  endfacet
  facet normal 0 0 1
    outer loop
      vertex -86.5 28.5 0
      vertex -82.5 20.405 0
      vertex 86.5 28.5 0
    endloop
  endfacet
  facet normal 0 -0 1
    outer loop
      vertex -86.5 28.5 0
      vertex -89.4248 -26.1676 0
      vertex -82.5 20.405 0
    endloop
  endfacet
  facet normal 0 0 1
    outer loop
      vertex -82.5 20.405 0
      vertex -78.215 20.405 0
      vertex 86.5 28.5 0
    endloop
  endfacet
  facet normal 0 0 1
    outer loop
      vertex -19.035 -20 0
      vertex -28.015 -4.645 0
      vertex -28.045 -5.97 0
    endloop
  endfacet
  facet normal 0 0 1
    outer loop
      vertex 43.75 20.405 0
      vertex 87.1676 28.4248 0
      vertex 86.5 28.5 0
    endloop
  endfacet
  facet normal -0 0 1
    outer loop
      vertex -33.31 -9.91 0
      vertex -28.045 -5.97 0
      vertex -47.145 -13.355 0
    endloop
  endfacet
  facet normal 0 0 1
    outer loop
      vertex -28.18 -10.545 0
      vertex -28.045 -5.97 0
      vertex -33.31 -9.91 0
    endloop
  endfacet
  facet normal 0 0 1
    outer loop
      vertex -78.215 20.405 0
      vertex -61.385 20.405 0
      vertex 86.5 28.5 0
    endloop
  endfacet
  facet normal 0 -0 1
    outer loop
      vertex -78.215 20.405 0
      vertex -78.215 3.815 0
      vertex -61.385 20.405 0
    endloop
  endfacet
  facet normal 0 0 1
    outer loop
      vertex -61.385 20.405 0
      vertex -57.1 20.405 0
      vertex 86.5 28.5 0
    endloop
  endfacet
  facet normal 0 0 1
    outer loop
      vertex -61.385 -20 0
      vertex -78.215 -20 0
      vertex -89.4248 -26.1676 0
    endloop
  endfacet
  facet normal 0 -0 1
    outer loop
      vertex -41.055 -20 0
      vertex -57.1 -20 0
      vertex 89.5 -25.5 0
    endloop
  endfacet
  facet normal 0 -0 1
    outer loop
      vertex -61.385 -20 0
      vertex -89.4248 -26.1676 0
      vertex -57.1 -20 0
    endloop
  endfacet
  facet normal 0 0 1
    outer loop
      vertex -41.33 10.595 0
      vertex -31.735 6.6 0
      vertex -19.035 9.27 0
    endloop
  endfacet
  facet normal 0 -0 1
    outer loop
      vertex 4.605 -19.335 0
      vertex 0 -19.335 0
      vertex 12.735 -20 0
    endloop
  endfacet
  facet normal -0 0 1
    outer loop
      vertex -61.385 3.815 0
      vertex -61.385 20.405 0
      vertex -78.215 3.815 0
    endloop
  endfacet
  facet normal 0 0 1
    outer loop
      vertex -19.035 -20 0
      vertex -28.045 -5.97 0
      vertex -28.18 -10.545 0
    endloop
  endfacet
  facet normal 0 -0 1
    outer loop
      vertex -82.5 -20 0
      vertex -89.4248 -26.1676 0
      vertex -78.215 -20 0
    endloop
  endfacet
  facet normal 0 0 1
    outer loop
      vertex 4.96 21.065 0
      vertex 12.985 10.595 0
      vertex 38.79 20.405 0
    endloop
  endfacet
  facet normal -0 0 1
    outer loop
      vertex -61.385 -20 0
      vertex -61.385 -0.955 0
      vertex -78.215 -20 0
    endloop
  endfacet
  facet normal 0 -0 1
    outer loop
      vertex -14.07 -4.675 0
      vertex -14.07 -20 0
      vertex 0 -19.335 0
    endloop
  endfacet
  facet normal 0 0 1
    outer loop
      vertex 22.065 6.445 0
      vertex 24.505 1.69 0
      vertex 38.79 9.27 0
    endloop
  endfacet
  facet normal 0 0 1
    outer loop
      vertex 43.75 14.7 0
      vertex 88.8455 27.3705 0
      vertex 88.3705 27.8455 0
    endloop
  endfacet
  facet normal -0 0 1
    outer loop
      vertex -8.23 9.93 0
      vertex -41.33 10.595 0
      vertex -19.035 9.27 0
    endloop
  endfacet
  facet normal 0 -0 1
    outer loop
      vertex -78.215 -0.955 0
      vertex -78.215 -20 0
      vertex -61.385 -0.955 0
    endloop
  endfacet
  facet normal 0 -0 1
    outer loop
      vertex 68.945 -20 0
      vertex 43.75 -20 0
      vertex 89.5 -25.5 0
    endloop
  endfacet
  facet normal 0 -0 1
    outer loop
      vertex -14.07 -20 0
      vertex -19.035 -20 0
      vertex 89.5 -25.5 0
    endloop
  endfacet
  facet normal 0 0 1
    outer loop
      vertex -14.57 9.27 0
      vertex -11.415 8.94 0
      vertex -8.23 9.93 0
    endloop
  endfacet
  facet normal 0 -0 1
    outer loop
      vertex 38.79 -20 0
      vertex 12.735 -20 0
      vertex 89.5 -25.5 0
    endloop
  endfacet
  facet normal 0 -0 1
    outer loop
      vertex 58.765 -16.045 0
      vertex 43.75 -20 0
      vertex 68.945 -20 0
    endloop
  endfacet
  facet normal 0 -0 1
    outer loop
      vertex 0 -19.335 0
      vertex -14.07 -20 0
      vertex 89.5 -25.5 0
    endloop
  endfacet
  facet normal 0 -0 1
    outer loop
      vertex 43.75 20.405 0
      vertex 43.75 14.7 0
      vertex 87.1676 28.4248 0
    endloop
  endfacet
  facet normal 0 0 1
    outer loop
      vertex 38.79 20.405 0
      vertex 43.75 20.405 0
      vertex 86.5 28.5 0
    endloop
  endfacet
  facet normal 0 0 1
    outer loop
      vertex -11.4 3.83 0
      vertex -4.84 3.73 0
      vertex -8.48 4.805 0
    endloop
  endfacet
  facet normal 0 0 1
    outer loop
      vertex -3.13 8.335 0
      vertex 0 21.065 0
      vertex -8.23 9.93 0
    endloop
  endfacet
  facet normal 0 0 1
    outer loop
      vertex 0 -19.335 0
      vertex 0 21.065 0
      vertex -3.13 8.335 0
    endloop
  endfacet
  facet normal 0 -0 1
    outer loop
      vertex 21.665 -15.89 0
      vertex 12.735 -20 0
      vertex 38.79 -20 0
    endloop
  endfacet
  facet normal 0 -0 1
    outer loop
      vertex -19.035 -20 0
      vertex -41.055 -20 0
      vertex 89.5 -25.5 0
    endloop
  endfacet
  facet normal 0 -0 1
    outer loop
      vertex -32.675 -17.52 0
      vertex -41.055 -20 0
      vertex -19.035 -20 0
    endloop
  endfacet
  facet normal 0 0 1
    outer loop
      vertex -57.1 20.405 0
      vertex 0 21.065 0
      vertex 86.5 28.5 0
    endloop
  endfacet
  facet normal 0 0 1
    outer loop
      vertex -57.1 20.405 0
      vertex -41.33 10.595 0
      vertex 0 21.065 0
    endloop
  endfacet
  facet normal 0 0 1
    outer loop
      vertex 0 21.065 0
      vertex 4.96 21.065 0
      vertex 86.5 28.5 0
    endloop
  endfacet
  facet normal 0 -0 1
    outer loop
      vertex 43.75 -20 0
      vertex 38.79 -20 0
      vertex 89.5 -25.5 0
    endloop
  endfacet
  facet normal 0 0 1
    outer loop
      vertex 4.96 21.065 0
      vertex 38.79 20.405 0
      vertex 86.5 28.5 0
    endloop
  endfacet
  facet normal 0 0 1
    outer loop
      vertex 12.735 -20 0
      vertex 4.605 -15.67 0
      vertex 4.605 -19.335 0
    endloop
  endfacet
  facet normal 0 0 1
    outer loop
      vertex -8.23 9.93 0
      vertex -19.035 9.27 0
      vertex -14.57 9.27 0
    endloop
  endfacet
  facet normal 0 0 1
    outer loop
      vertex 18.095 9.505 0
      vertex 43.75 14.7 0
      vertex 38.79 14.7 0
    endloop
  endfacet
  facet normal 0 0 1
    outer loop
      vertex 68.67 10.595 0
      vertex 78.265 6.6 0
      vertex 89.5 25.5 0
    endloop
  endfacet
  facet normal 0 0 1
    outer loop
      vertex 43.75 9.27 0
      vertex 58.805 6.515 0
      vertex 89.5 25.5 0
    endloop
  endfacet
  facet normal -0 0 1
    outer loop
      vertex -41.055 -20 0
      vertex -51.235 -16.045 0
      vertex -57.1 -20 0
    endloop
  endfacet
  facet normal -0 -0 1
    outer loop
      vertex 12.735 -20 0
      vertex 0 -19.335 0
      vertex 89.5 -25.5 0
    endloop
  endfacet
  facet normal 0 0 1
    outer loop
      vertex 43.75 9.27 0
      vertex 55 -4.95 0
      vertex 58.805 6.515 0
    endloop
  endfacet
  facet normal 0 0 1
    outer loop
      vertex 89.5 25.5 0
      vertex 38.79 9.27 0
      vertex 43.75 9.27 0
    endloop
  endfacet
  facet normal 0 0 1
    outer loop
      vertex 38.79 14.7 0
      vertex 12.985 10.595 0
      vertex 18.095 9.505 0
    endloop
  endfacet
  facet normal 0 0 1
    outer loop
      vertex -19.035 -20 0
      vertex -28.18 -10.545 0
      vertex -32.675 -17.52 0
    endloop
  endfacet
  facet normal 0 -0 1
    outer loop
      vertex -14.57 9.27 0
      vertex -14.57 4.835 0
      vertex -11.415 8.94 0
    endloop
  endfacet
  facet normal 0 0 1
    outer loop
      vertex 38.79 -20 0
      vertex 25.385 -4.26 0
      vertex 21.665 -15.89 0
    endloop
  endfacet
  facet normal 0 -0 1
    outer loop
      vertex 87.1676 28.4248 0
      vertex 43.75 14.7 0
      vertex 87.8017 28.2029 0
    endloop
  endfacet
  facet normal 0 -0 1
    outer loop
      vertex 43.75 14.7 0
      vertex 22.065 6.445 0
      vertex 89.4248 26.1676 0
    endloop
  endfacet
  facet normal 0 0 1
    outer loop
      vertex 60.13 -5.97 0
      vertex 62.855 -13.355 0
      vertex 68.975 -15.92 0
    endloop
  endfacet
  facet normal 0 0 1
    outer loop
      vertex 22.065 6.445 0
      vertex 38.79 9.27 0
      vertex 89.5 25.5 0
    endloop
  endfacet
  facet normal 0 0 1
    outer loop
      vertex 68.975 -15.92 0
      vertex 73.63 -14.485 0
      vertex 60.13 -5.97 0
    endloop
  endfacet
  facet normal 0 0 1
    outer loop
      vertex 43.75 9.27 0
      vertex 58.765 -16.045 0
      vertex 55 -4.95 0
    endloop
  endfacet
  facet normal 0 0 1
    outer loop
      vertex 89.5 25.5 0
      vertex 58.805 6.515 0
      vertex 68.67 10.595 0
    endloop
  endfacet
  facet normal 0 0 1
    outer loop
      vertex 89.5 25.5 0
      vertex 78.265 6.6 0
      vertex 89.5 -25.5 0
    endloop
  endfacet
  facet normal 0 0 1
    outer loop
      vertex 78.265 6.6 0
      vertex 81.985 -4.645 0
      vertex 89.5 -25.5 0
    endloop
  endfacet
  facet normal 0 -0 1
    outer loop
      vertex 81.985 -4.645 0
      vertex 81.955 -5.97 0
      vertex 89.5 -25.5 0
    endloop
  endfacet
  facet normal 0 -0 1
    outer loop
      vertex 43.75 9.27 0
      vertex 43.75 -20 0
      vertex 58.765 -16.045 0
    endloop
  endfacet
  facet normal -0 0 1
    outer loop
      vertex 76.69 -9.91 0
      vertex 60.13 -5.97 0
      vertex 73.63 -14.485 0
    endloop
  endfacet
  facet normal 0 -0 1
    outer loop
      vertex 81.82 -10.545 0
      vertex 77.325 -17.52 0
      vertex 89.5 -25.5 0
    endloop
  endfacet
  facet normal 0 0 1
    outer loop
      vertex 81.955 -5.97 0
      vertex 60.13 -5.97 0
      vertex 76.69 -9.91 0
    endloop
  endfacet
  facet normal 0 -0 1
    outer loop
      vertex 81.955 -5.97 0
      vertex 81.82 -10.545 0
      vertex 89.5 -25.5 0
    endloop
  endfacet
  facet normal 0 0 1
    outer loop
      vertex 76.69 -9.91 0
      vertex 81.82 -10.545 0
      vertex 81.955 -5.97 0
    endloop
  endfacet
  facet normal 0 -0 1
    outer loop
      vertex 77.325 -17.52 0
      vertex 68.945 -20 0
      vertex 89.5 -25.5 0
    endloop
  endfacet
  facet normal 0 -0 1
    outer loop
      vertex 4.96 21.065 0
      vertex 4.96 6.655 0
      vertex 12.985 10.595 0
    endloop
  endfacet
  facet normal -0 0 1
    outer loop
      vertex -82.5 -20 0
      vertex -82.5 20.405 0
      vertex -89.4248 -26.1676 0
    endloop
  endfacet
  facet normal 0 0 1
    outer loop
      vertex -57.1 20.405 0
      vertex -51.195 6.515 0
      vertex -41.33 10.595 0
    endloop
  endfacet
  facet normal 0 0 1
    outer loop
      vertex 18.095 9.505 0
      vertex 22.065 6.445 0
      vertex 43.75 14.7 0
    endloop
  endfacet
  facet normal 0 0 1
    outer loop
      vertex 38.79 -20 0
      vertex 24.505 1.69 0
      vertex 25.385 -4.26 0
    endloop
  endfacet
  facet normal 0 0 1
    outer loop
      vertex 38.79 -20 0
      vertex 38.79 9.27 0
      vertex 24.505 1.69 0
    endloop
  endfacet
  facet normal -0 0 1
    outer loop
      vertex 38.79 14.7 0
      vertex 38.79 20.405 0
      vertex 12.985 10.595 0
    endloop
  endfacet
  facet normal 0 0 1
    outer loop
      vertex -57.1 20.405 0
      vertex -55 -4.95 0
      vertex -51.195 6.515 0
    endloop
  endfacet
  facet normal 0 0 1
    outer loop
      vertex 43.75 14.7 0
      vertex 88.3705 27.8455 0
      vertex 87.8017 28.2029 0
    endloop
  endfacet
  facet normal 0 0 1
    outer loop
      vertex -49.87 -5.97 0
      vertex -47.145 -13.355 0
      vertex -28.045 -5.97 0
    endloop
  endfacet
  facet normal 0 0 1
    outer loop
      vertex 0 -19.335 0
      vertex -13.245 1.115 0
      vertex -14.07 -4.675 0
    endloop
  endfacet
  facet normal 0 0 1
    outer loop
      vertex 0 -19.335 0
      vertex -4.84 3.73 0
      vertex -13.245 1.115 0
    endloop
  endfacet
  facet normal 0 0 1
    outer loop
      vertex 0 -19.335 0
      vertex -3.13 8.335 0
      vertex -4.84 3.73 0
    endloop
  endfacet
  facet normal 0 0 1
    outer loop
      vertex -8.23 9.93 0
      vertex 0 21.065 0
      vertex -41.33 10.595 0
    endloop
  endfacet
  facet normal 0 0 1
    outer loop
      vertex -36.37 -14.485 0
      vertex -33.31 -9.91 0
      vertex -47.145 -13.355 0
    endloop
  endfacet
  facet normal -0 0 1
    outer loop
      vertex -36.37 -14.485 0
      vertex -47.145 -13.355 0
      vertex -41.025 -15.92 0
    endloop
  endfacet
  facet normal 0 -0 1
    outer loop
      vertex -55 -4.95 0
      vertex -57.1 -20 0
      vertex -51.235 -16.045 0
    endloop
  endfacet
  facet normal 0 -0 1
    outer loop
      vertex -57.1 20.405 0
      vertex -57.1 -20 0
      vertex -55 -4.95 0
    endloop
  endfacet
  facet normal 0 0 1
    outer loop
      vertex -19.035 -20 0
      vertex -31.735 6.6 0
      vertex -28.015 -4.645 0
    endloop
  endfacet
  facet normal 0 0 1
    outer loop
      vertex -19.035 -20 0
      vertex -19.035 9.27 0
      vertex -31.735 6.6 0
    endloop
  endfacet
  facet normal 0 1 0
    outer loop
      vertex -82.5 20.405 0
      vertex -82.5 20.405 2
      vertex -78.215 20.405 0
    endloop
  endfacet
  facet normal 0 1 0
    outer loop
      vertex -78.215 20.405 0
      vertex -82.5 20.405 2
      vertex -78.215 20.405 2
    endloop
  endfacet
  facet normal -1 -0 -0
    outer loop
      vertex -82.5 -20 0
      vertex -82.5 -20 2
      vertex -82.5 20.405 0
    endloop
  endfacet
  facet normal -1 0 0
    outer loop
      vertex -82.5 20.405 0
      vertex -82.5 -20 2
      vertex -82.5 20.405 2
    endloop
  endfacet
  facet normal 0 -1 0
    outer loop
      vertex -82.5 -20 2
      vertex -82.5 -20 0
      vertex -78.215 -20 0
    endloop
  endfacet
  facet normal 0 -1 0
    outer loop
      vertex -78.215 -20 2
      vertex -82.5 -20 2
      vertex -78.215 -20 0
    endloop
  endfacet
  facet normal 1 0 -0
    outer loop
      vertex -78.215 -20 2
      vertex -78.215 -20 0
      vertex -78.215 -0.955 0
    endloop
  endfacet
  facet normal 1 0 0
    outer loop
      vertex -78.215 -0.955 2
      vertex -78.215 -20 2
      vertex -78.215 -0.955 0
    endloop
  endfacet
  facet normal 0 -1 0
    outer loop
      vertex -78.215 -0.955 2
      vertex -78.215 -0.955 0
      vertex -61.385 -0.955 0
    endloop
  endfacet
  facet normal 0 -1 0
    outer loop
      vertex -61.385 -0.955 2
      vertex -78.215 -0.955 2
      vertex -61.385 -0.955 0
    endloop
  endfacet
  facet normal -1 -0 -0
    outer loop
      vertex -61.385 -20 0
      vertex -61.385 -20 2
      vertex -61.385 -0.955 0
    endloop
  endfacet
  facet normal -1 0 0
    outer loop
      vertex -61.385 -0.955 0
      vertex -61.385 -20 2
      vertex -61.385 -0.955 2
    endloop
  endfacet
  facet normal 0 -1 0
    outer loop
      vertex -61.385 -20 2
      vertex -61.385 -20 0
      vertex -57.1 -20 0
    endloop
  endfacet
  facet normal 0 -1 0
    outer loop
      vertex -57.1 -20 2
      vertex -61.385 -20 2
      vertex -57.1 -20 0
    endloop
  endfacet
  facet normal 1 0 -0
    outer loop
      vertex -57.1 -20 2
      vertex -57.1 -20 0
      vertex -57.1 20.405 0
    endloop
  endfacet
  facet normal 1 0 0
    outer loop
      vertex -57.1 20.405 2
      vertex -57.1 -20 2
      vertex -57.1 20.405 0
    endloop
  endfacet
  facet normal 0 1 0
    outer loop
      vertex -61.385 20.405 0
      vertex -61.385 20.405 2
      vertex -57.1 20.405 0
    endloop
  endfacet
  facet normal 0 1 0
    outer loop
      vertex -57.1 20.405 0
      vertex -61.385 20.405 2
      vertex -57.1 20.405 2
    endloop
  endfacet
  facet normal -1 -0 -0
    outer loop
      vertex -61.385 3.815 0
      vertex -61.385 3.815 2
      vertex -61.385 20.405 0
    endloop
  endfacet
  facet normal -1 0 0
    outer loop
      vertex -61.385 20.405 0
      vertex -61.385 3.815 2
      vertex -61.385 20.405 2
    endloop
  endfacet
  facet normal 0 1 0
    outer loop
      vertex -78.215 3.815 0
      vertex -78.215 3.815 2
      vertex -61.385 3.815 0
    endloop
  endfacet
  facet normal 0 1 0
    outer loop
      vertex -61.385 3.815 0
      vertex -78.215 3.815 2
      vertex -61.385 3.815 2
    endloop
  endfacet
  facet normal 1 0 -0
    outer loop
      vertex -78.215 3.815 2
      vertex -78.215 3.815 0
      vertex -78.215 20.405 0
    endloop
  endfacet
  facet normal 1 0 0
    outer loop
      vertex -78.215 20.405 2
      vertex -78.215 3.815 2
      vertex -78.215 20.405 0
    endloop
  endfacet
  facet normal -0.949096 0.314986 0
    outer loop
      vertex -55 -4.95 0
      vertex -55 -4.95 2
      vertex -51.195 6.515 0
    endloop
  endfacet
  facet normal -0.949096 0.314986 0
    outer loop
      vertex -51.195 6.515 0
      vertex -55 -4.95 2
      vertex -51.195 6.515 2
    endloop
  endfacet
  facet normal -0.946962 -0.321344 -0
    outer loop
      vertex -55 -4.95 0
      vertex -51.235 -16.045 0
      vertex -55 -4.95 2
    endloop
  endfacet
  facet normal -0.946962 -0.321344 0
    outer loop
      vertex -55 -4.95 2
      vertex -51.235 -16.045 0
      vertex -51.235 -16.045 2
    endloop
  endfacet
  facet normal -0.362137 -0.932125 0
    outer loop
      vertex -51.235 -16.045 2
      vertex -51.235 -16.045 0
      vertex -41.055 -20 0
    endloop
  endfacet
  facet normal -0.362137 -0.932125 0
    outer loop
      vertex -41.055 -20 2
      vertex -51.235 -16.045 2
      vertex -41.055 -20 0
    endloop
  endfacet
  facet normal 0.283777 -0.95889 0
    outer loop
      vertex -41.055 -20 2
      vertex -41.055 -20 0
      vertex -32.675 -17.52 0
    endloop
  endfacet
  facet normal 0.283777 -0.95889 0
    outer loop
      vertex -32.675 -17.52 2
      vertex -41.055 -20 2
      vertex -32.675 -17.52 0
    endloop
  endfacet
  facet normal 0.840571 -0.541701 0
    outer loop
      vertex -32.675 -17.52 2
      vertex -32.675 -17.52 0
      vertex -28.18 -10.545 0
    endloop
  endfacet
  facet normal 0.840571 -0.541701 0
    outer loop
      vertex -28.18 -10.545 2
      vertex -32.675 -17.52 2
      vertex -28.18 -10.545 0
    endloop
  endfacet
  facet normal 0.122844 0.992426 0
    outer loop
      vertex -33.31 -9.91 0
      vertex -33.31 -9.91 2
      vertex -28.18 -10.545 0
    endloop
  endfacet
  facet normal 0.122844 0.992426 0
    outer loop
      vertex -28.18 -10.545 0
      vertex -33.31 -9.91 2
      vertex -28.18 -10.545 2
    endloop
  endfacet
  facet normal -0.831211 0.555957 0
    outer loop
      vertex -36.37 -14.485 0
      vertex -36.37 -14.485 2
      vertex -33.31 -9.91 0
    endloop
  endfacet
  facet normal -0.831211 0.555957 0
    outer loop
      vertex -33.31 -9.91 0
      vertex -36.37 -14.485 2
      vertex -33.31 -9.91 2
    endloop
  endfacet
  facet normal -0.294591 0.955624 0
    outer loop
      vertex -41.025 -15.92 0
      vertex -41.025 -15.92 2
      vertex -36.37 -14.485 0
    endloop
  endfacet
  facet normal -0.294591 0.955624 0
    outer loop
      vertex -36.37 -14.485 0
      vertex -41.025 -15.92 2
      vertex -36.37 -14.485 2
    endloop
  endfacet
  facet normal 0.386541 0.922272 0
    outer loop
      vertex -47.145 -13.355 0
      vertex -47.145 -13.355 2
      vertex -41.025 -15.92 0
    endloop
  endfacet
  facet normal 0.386541 0.922272 0
    outer loop
      vertex -41.025 -15.92 0
      vertex -47.145 -13.355 2
      vertex -41.025 -15.92 2
    endloop
  endfacet
  facet normal 0.938169 0.346176 0
    outer loop
      vertex -47.145 -13.355 0
      vertex -49.87 -5.97 0
      vertex -49.87 -5.97 2
    endloop
  endfacet
  facet normal 0.938169 0.346176 -0
    outer loop
      vertex -47.145 -13.355 2
      vertex -47.145 -13.355 0
      vertex -49.87 -5.97 2
    endloop
  endfacet
  facet normal 0 -1 0
    outer loop
      vertex -49.87 -5.97 2
      vertex -49.87 -5.97 0
      vertex -28.045 -5.97 0
    endloop
  endfacet
  facet normal 0 -1 0
    outer loop
      vertex -28.045 -5.97 2
      vertex -49.87 -5.97 2
      vertex -28.045 -5.97 0
    endloop
  endfacet
  facet normal 0.999744 -0.0226357 0
    outer loop
      vertex -28.045 -5.97 2
      vertex -28.045 -5.97 0
      vertex -28.015 -4.645 0
    endloop
  endfacet
  facet normal 0.999744 -0.0226357 0
    outer loop
      vertex -28.015 -4.645 2
      vertex -28.045 -5.97 2
      vertex -28.015 -4.645 0
    endloop
  endfacet
  facet normal 0.949398 0.314074 0
    outer loop
      vertex -28.015 -4.645 0
      vertex -31.735 6.6 0
      vertex -31.735 6.6 2
    endloop
  endfacet
  facet normal 0.949398 0.314074 -0
    outer loop
      vertex -28.015 -4.645 2
      vertex -28.015 -4.645 0
      vertex -31.735 6.6 2
    endloop
  endfacet
  facet normal 0.384376 0.923177 0
    outer loop
      vertex -41.33 10.595 0
      vertex -41.33 10.595 2
      vertex -31.735 6.6 0
    endloop
  endfacet
  facet normal 0.384376 0.923177 0
    outer loop
      vertex -31.735 6.6 0
      vertex -41.33 10.595 2
      vertex -31.735 6.6 2
    endloop
  endfacet
  facet normal -0.382186 0.924085 0
    outer loop
      vertex -51.195 6.515 0
      vertex -51.195 6.515 2
      vertex -41.33 10.595 0
    endloop
  endfacet
  facet normal -0.382186 0.924085 0
    outer loop
      vertex -41.33 10.595 0
      vertex -51.195 6.515 2
      vertex -41.33 10.595 2
    endloop
  endfacet
  facet normal 0 1 0
    outer loop
      vertex -19.035 9.27 0
      vertex -19.035 9.27 2
      vertex -14.57 9.27 0
    endloop
  endfacet
  facet normal 0 1 0
    outer loop
      vertex -14.57 9.27 0
      vertex -19.035 9.27 2
      vertex -14.57 9.27 2
    endloop
  endfacet
  facet normal -1 -0 -0
    outer loop
      vertex -19.035 -20 0
      vertex -19.035 -20 2
      vertex -19.035 9.27 0
    endloop
  endfacet
  facet normal -1 0 0
    outer loop
      vertex -19.035 9.27 0
      vertex -19.035 -20 2
      vertex -19.035 9.27 2
    endloop
  endfacet
  facet normal 0 -1 0
    outer loop
      vertex -19.035 -20 2
      vertex -19.035 -20 0
      vertex -14.07 -20 0
    endloop
  endfacet
  facet normal 0 -1 0
    outer loop
      vertex -14.07 -20 2
      vertex -19.035 -20 2
      vertex -14.07 -20 0
    endloop
  endfacet
  facet normal 1 0 -0
    outer loop
      vertex -14.07 -20 2
      vertex -14.07 -20 0
      vertex -14.07 -4.675 0
    endloop
  endfacet
  facet normal 1 0 0
    outer loop
      vertex -14.07 -4.675 2
      vertex -14.07 -20 2
      vertex -14.07 -4.675 0
    endloop
  endfacet
  facet normal 0.990001 -0.141062 0
    outer loop
      vertex -14.07 -4.675 2
      vertex -14.07 -4.675 0
      vertex -13.245 1.115 0
    endloop
  endfacet
  facet normal 0.990001 -0.141062 0
    outer loop
      vertex -13.245 1.115 2
      vertex -14.07 -4.675 2
      vertex -13.245 1.115 0
    endloop
  endfacet
  facet normal 0.827096 -0.56206 0
    outer loop
      vertex -13.245 1.115 2
      vertex -13.245 1.115 0
      vertex -11.4 3.83 0
    endloop
  endfacet
  facet normal 0.827096 -0.56206 0
    outer loop
      vertex -11.4 3.83 2
      vertex -13.245 1.115 2
      vertex -11.4 3.83 0
    endloop
  endfacet
  facet normal 0.316715 -0.948521 0
    outer loop
      vertex -11.4 3.83 2
      vertex -11.4 3.83 0
      vertex -8.48 4.805 0
    endloop
  endfacet
  facet normal 0.316715 -0.948521 0
    outer loop
      vertex -8.48 4.805 2
      vertex -11.4 3.83 2
      vertex -8.48 4.805 0
    endloop
  endfacet
  facet normal -0.283236 -0.95905 0
    outer loop
      vertex -8.48 4.805 2
      vertex -8.48 4.805 0
      vertex -4.84 3.73 0
    endloop
  endfacet
  facet normal -0.283236 -0.95905 0
    outer loop
      vertex -4.84 3.73 2
      vertex -8.48 4.805 2
      vertex -4.84 3.73 0
    endloop
  endfacet
  facet normal 0.937454 -0.34811 0
    outer loop
      vertex -4.84 3.73 2
      vertex -4.84 3.73 0
      vertex -3.13 8.335 0
    endloop
  endfacet
  facet normal 0.937454 -0.34811 0
    outer loop
      vertex -3.13 8.335 2
      vertex -4.84 3.73 2
      vertex -3.13 8.335 0
    endloop
  endfacet
  facet normal 0.298488 0.954413 0
    outer loop
      vertex -8.23 9.93 0
      vertex -8.23 9.93 2
      vertex -3.13 8.335 0
    endloop
  endfacet
  facet normal 0.298488 0.954413 0
    outer loop
      vertex -3.13 8.335 0
      vertex -8.23 9.93 2
      vertex -3.13 8.335 2
    endloop
  endfacet
  facet normal -0.296824 0.954932 0
    outer loop
      vertex -11.415 8.94 0
      vertex -11.415 8.94 2
      vertex -8.23 9.93 0
    endloop
  endfacet
  facet normal -0.296824 0.954932 0
    outer loop
      vertex -8.23 9.93 0
      vertex -11.415 8.94 2
      vertex -8.23 9.93 2
    endloop
  endfacet
  facet normal -0.792875 0.609384 0
    outer loop
      vertex -14.57 4.835 0
      vertex -14.57 4.835 2
      vertex -11.415 8.94 0
    endloop
  endfacet
  facet normal -0.792875 0.609384 0
    outer loop
      vertex -11.415 8.94 0
      vertex -14.57 4.835 2
      vertex -11.415 8.94 2
    endloop
  endfacet
  facet normal 1 0 -0
    outer loop
      vertex -14.57 4.835 2
      vertex -14.57 4.835 0
      vertex -14.57 9.27 0
    endloop
  endfacet
  facet normal 1 0 0
    outer loop
      vertex -14.57 9.27 2
      vertex -14.57 4.835 2
      vertex -14.57 9.27 0
    endloop
  endfacet
  facet normal 0 1 0
    outer loop
      vertex 0 21.065 0
      vertex 0 21.065 2
      vertex 4.96 21.065 0
    endloop
  endfacet
  facet normal 0 1 0
    outer loop
      vertex 4.96 21.065 0
      vertex 0 21.065 2
      vertex 4.96 21.065 2
    endloop
  endfacet
  facet normal -1 -0 -0
    outer loop
      vertex 0 -19.335 0
      vertex 0 -19.335 2
      vertex 0 21.065 0
    endloop
  endfacet
  facet normal -1 0 0
    outer loop
      vertex 0 21.065 0
      vertex 0 -19.335 2
      vertex 0 21.065 2
    endloop
  endfacet
  facet normal 0 -1 0
    outer loop
      vertex 0 -19.335 2
      vertex 0 -19.335 0
      vertex 4.605 -19.335 0
    endloop
  endfacet
  facet normal 0 -1 0
    outer loop
      vertex 4.605 -19.335 2
      vertex 0 -19.335 2
      vertex 4.605 -19.335 0
    endloop
  endfacet
  facet normal 1 0 -0
    outer loop
      vertex 4.605 -19.335 2
      vertex 4.605 -19.335 0
      vertex 4.605 -15.67 0
    endloop
  endfacet
  facet normal 1 0 0
    outer loop
      vertex 4.605 -15.67 2
      vertex 4.605 -19.335 2
      vertex 4.605 -15.67 0
    endloop
  endfacet
  facet normal -0.470081 -0.882623 0
    outer loop
      vertex 4.605 -15.67 2
      vertex 4.605 -15.67 0
      vertex 12.735 -20 0
    endloop
  endfacet
  facet normal -0.470081 -0.882623 0
    outer loop
      vertex 12.735 -20 2
      vertex 4.605 -15.67 2
      vertex 12.735 -20 0
    endloop
  endfacet
  facet normal 0.41809 -0.908405 0
    outer loop
      vertex 12.735 -20 2
      vertex 12.735 -20 0
      vertex 21.665 -15.89 0
    endloop
  endfacet
  facet normal 0.41809 -0.908405 0
    outer loop
      vertex 21.665 -15.89 2
      vertex 12.735 -20 2
      vertex 21.665 -15.89 0
    endloop
  endfacet
  facet normal 0.952462 -0.304657 0
    outer loop
      vertex 21.665 -15.89 2
      vertex 21.665 -15.89 0
      vertex 25.385 -4.26 0
    endloop
  endfacet
  facet normal 0.952462 -0.304657 0
    outer loop
      vertex 25.385 -4.26 2
      vertex 21.665 -15.89 2
      vertex 25.385 -4.26 0
    endloop
  endfacet
  facet normal 0.989239 0.146308 0
    outer loop
      vertex 25.385 -4.26 0
      vertex 24.505 1.69 0
      vertex 24.505 1.69 2
    endloop
  endfacet
  facet normal 0.989239 0.146308 -0
    outer loop
      vertex 25.385 -4.26 2
      vertex 25.385 -4.26 0
      vertex 24.505 1.69 2
    endloop
  endfacet
  facet normal 0.889701 0.456545 0
    outer loop
      vertex 24.505 1.69 0
      vertex 22.065 6.445 0
      vertex 22.065 6.445 2
    endloop
  endfacet
  facet normal 0.889701 0.456545 -0
    outer loop
      vertex 24.505 1.69 2
      vertex 24.505 1.69 0
      vertex 22.065 6.445 2
    endloop
  endfacet
  facet normal 0.610482 0.79203 0
    outer loop
      vertex 18.095 9.505 0
      vertex 18.095 9.505 2
      vertex 22.065 6.445 0
    endloop
  endfacet
  facet normal 0.610482 0.79203 0
    outer loop
      vertex 22.065 6.445 0
      vertex 18.095 9.505 2
      vertex 22.065 6.445 2
    endloop
  endfacet
  facet normal 0.208614 0.977998 0
    outer loop
      vertex 12.985 10.595 0
      vertex 12.985 10.595 2
      vertex 18.095 9.505 0
    endloop
  endfacet
  facet normal 0.208614 0.977998 0
    outer loop
      vertex 18.095 9.505 0
      vertex 12.985 10.595 2
      vertex 18.095 9.505 2
    endloop
  endfacet
  facet normal -0.440714 0.897647 0
    outer loop
      vertex 4.96 6.655 0
      vertex 4.96 6.655 2
      vertex 12.985 10.595 0
    endloop
  endfacet
  facet normal -0.440714 0.897647 0
    outer loop
      vertex 12.985 10.595 0
      vertex 4.96 6.655 2
      vertex 12.985 10.595 2
    endloop
  endfacet
  facet normal 1 0 -0
    outer loop
      vertex 4.96 6.655 2
      vertex 4.96 6.655 0
      vertex 4.96 21.065 0
    endloop
  endfacet
  facet normal 1 0 0
    outer loop
      vertex 4.96 21.065 2
      vertex 4.96 6.655 2
      vertex 4.96 21.065 0
    endloop
  endfacet
  facet normal 0 1 0
    outer loop
      vertex 38.79 9.27 0
      vertex 38.79 9.27 2
      vertex 43.75 9.27 0
    endloop
  endfacet
  facet normal 0 1 0
    outer loop
      vertex 43.75 9.27 0
      vertex 38.79 9.27 2
      vertex 43.75 9.27 2
    endloop
  endfacet
  facet normal -1 -0 -0
    outer loop
      vertex 38.79 -20 0
      vertex 38.79 -20 2
      vertex 38.79 9.27 0
    endloop
  endfacet
  facet normal -1 0 0
    outer loop
      vertex 38.79 9.27 0
      vertex 38.79 -20 2
      vertex 38.79 9.27 2
    endloop
  endfacet
  facet normal 0 -1 0
    outer loop
      vertex 38.79 -20 2
      vertex 38.79 -20 0
      vertex 43.75 -20 0
    endloop
  endfacet
  facet normal 0 -1 0
    outer loop
      vertex 43.75 -20 2
      vertex 38.79 -20 2
      vertex 43.75 -20 0
    endloop
  endfacet
  facet normal 1 0 -0
    outer loop
      vertex 43.75 -20 2
      vertex 43.75 -20 0
      vertex 43.75 9.27 0
    endloop
  endfacet
  facet normal 1 0 0
    outer loop
      vertex 43.75 9.27 2
      vertex 43.75 -20 2
      vertex 43.75 9.27 0
    endloop
  endfacet
  facet normal 0 1 0
    outer loop
      vertex 38.79 20.405 0
      vertex 38.79 20.405 2
      vertex 43.75 20.405 0
    endloop
  endfacet
  facet normal 0 1 0
    outer loop
      vertex 43.75 20.405 0
      vertex 38.79 20.405 2
      vertex 43.75 20.405 2
    endloop
  endfacet
  facet normal -1 -0 -0
    outer loop
      vertex 38.79 14.7 0
      vertex 38.79 14.7 2
      vertex 38.79 20.405 0
    endloop
  endfacet
  facet normal -1 0 0
    outer loop
      vertex 38.79 20.405 0
      vertex 38.79 14.7 2
      vertex 38.79 20.405 2
    endloop
  endfacet
  facet normal 0 -1 0
    outer loop
      vertex 38.79 14.7 2
      vertex 38.79 14.7 0
      vertex 43.75 14.7 0
    endloop
  endfacet
  facet normal 0 -1 0
    outer loop
      vertex 43.75 14.7 2
      vertex 38.79 14.7 2
      vertex 43.75 14.7 0
    endloop
  endfacet
  facet normal 1 0 -0
    outer loop
      vertex 43.75 14.7 2
      vertex 43.75 14.7 0
      vertex 43.75 20.405 0
    endloop
  endfacet
  facet normal 1 0 0
    outer loop
      vertex 43.75 20.405 2
      vertex 43.75 14.7 2
      vertex 43.75 20.405 0
    endloop
  endfacet
  facet normal -0.949096 0.314986 0
    outer loop
      vertex 55 -4.95 0
      vertex 55 -4.95 2
      vertex 58.805 6.515 0
    endloop
  endfacet
  facet normal -0.949096 0.314986 0
    outer loop
      vertex 58.805 6.515 0
      vertex 55 -4.95 2
      vertex 58.805 6.515 2
    endloop
  endfacet
  facet normal -0.946962 -0.321344 -0
    outer loop
      vertex 55 -4.95 0
      vertex 58.765 -16.045 0
      vertex 55 -4.95 2
    endloop
  endfacet
  facet normal -0.946962 -0.321344 0
    outer loop
      vertex 55 -4.95 2
      vertex 58.765 -16.045 0
      vertex 58.765 -16.045 2
    endloop
  endfacet
  facet normal -0.362137 -0.932125 0
    outer loop
      vertex 58.765 -16.045 2
      vertex 58.765 -16.045 0
      vertex 68.945 -20 0
    endloop
  endfacet
  facet normal -0.362137 -0.932125 0
    outer loop
      vertex 68.945 -20 2
      vertex 58.765 -16.045 2
      vertex 68.945 -20 0
    endloop
  endfacet
  facet normal 0.283777 -0.95889 0
    outer loop
      vertex 68.945 -20 2
      vertex 68.945 -20 0
      vertex 77.325 -17.52 0
    endloop
  endfacet
  facet normal 0.283777 -0.95889 0
    outer loop
      vertex 77.325 -17.52 2
      vertex 68.945 -20 2
      vertex 77.325 -17.52 0
    endloop
  endfacet
  facet normal 0.840571 -0.541701 0
    outer loop
      vertex 77.325 -17.52 2
      vertex 77.325 -17.52 0
      vertex 81.82 -10.545 0
    endloop
  endfacet
  facet normal 0.840571 -0.541701 0
    outer loop
      vertex 81.82 -10.545 2
      vertex 77.325 -17.52 2
      vertex 81.82 -10.545 0
    endloop
  endfacet
  facet normal 0.122844 0.992426 0
    outer loop
      vertex 76.69 -9.91 0
      vertex 76.69 -9.91 2
      vertex 81.82 -10.545 0
    endloop
  endfacet
  facet normal 0.122844 0.992426 0
    outer loop
      vertex 81.82 -10.545 0
      vertex 76.69 -9.91 2
      vertex 81.82 -10.545 2
    endloop
  endfacet
  facet normal -0.831211 0.555957 0
    outer loop
      vertex 73.63 -14.485 0
      vertex 73.63 -14.485 2
      vertex 76.69 -9.91 0
    endloop
  endfacet
  facet normal -0.831211 0.555957 0
    outer loop
      vertex 76.69 -9.91 0
      vertex 73.63 -14.485 2
      vertex 76.69 -9.91 2
    endloop
  endfacet
  facet normal -0.294591 0.955624 0
    outer loop
      vertex 68.975 -15.92 0
      vertex 68.975 -15.92 2
      vertex 73.63 -14.485 0
    endloop
  endfacet
  facet normal -0.294591 0.955624 0
    outer loop
      vertex 73.63 -14.485 0
      vertex 68.975 -15.92 2
      vertex 73.63 -14.485 2
    endloop
  endfacet
  facet normal 0.386541 0.922272 0
    outer loop
      vertex 62.855 -13.355 0
      vertex 62.855 -13.355 2
      vertex 68.975 -15.92 0
    endloop
  endfacet
  facet normal 0.386541 0.922272 0
    outer loop
      vertex 68.975 -15.92 0
      vertex 62.855 -13.355 2
      vertex 68.975 -15.92 2
    endloop
  endfacet
  facet normal 0.938169 0.346176 0
    outer loop
      vertex 62.855 -13.355 0
      vertex 60.13 -5.97 0
      vertex 60.13 -5.97 2
    endloop
  endfacet
  facet normal 0.938169 0.346176 -0
    outer loop
      vertex 62.855 -13.355 2
      vertex 62.855 -13.355 0
      vertex 60.13 -5.97 2
    endloop
  endfacet
  facet normal 0 -1 0
    outer loop
      vertex 60.13 -5.97 2
      vertex 60.13 -5.97 0
      vertex 81.955 -5.97 0
    endloop
  endfacet
  facet normal 0 -1 0
    outer loop
      vertex 81.955 -5.97 2
      vertex 60.13 -5.97 2
      vertex 81.955 -5.97 0
    endloop
  endfacet
  facet normal 0.999744 -0.0226357 0
    outer loop
      vertex 81.955 -5.97 2
      vertex 81.955 -5.97 0
      vertex 81.985 -4.645 0
    endloop
  endfacet
  facet normal 0.999744 -0.0226357 0
    outer loop
      vertex 81.985 -4.645 2
      vertex 81.955 -5.97 2
      vertex 81.985 -4.645 0
    endloop
  endfacet
  facet normal 0.949398 0.314074 0
    outer loop
      vertex 81.985 -4.645 0
      vertex 78.265 6.6 0
      vertex 78.265 6.6 2
    endloop
  endfacet
  facet normal 0.949398 0.314074 -0
    outer loop
      vertex 81.985 -4.645 2
      vertex 81.985 -4.645 0
      vertex 78.265 6.6 2
    endloop
  endfacet
  facet normal 0.384376 0.923177 0
    outer loop
      vertex 68.67 10.595 0
      vertex 68.67 10.595 2
      vertex 78.265 6.6 0
    endloop
  endfacet
  facet normal 0.384376 0.923177 0
    outer loop
      vertex 78.265 6.6 0
      vertex 68.67 10.595 2
      vertex 78.265 6.6 2
    endloop
  endfacet
  facet normal -0.382186 0.924085 0
    outer loop
      vertex 58.805 6.515 0
      vertex 58.805 6.515 2
      vertex 68.67 10.595 0
    endloop
  endfacet
  facet normal -0.382186 0.924085 0
    outer loop
      vertex 68.67 10.595 0
      vertex 58.805 6.515 2
      vertex 68.67 10.595 2
    endloop
  endfacet
  facet normal 0 -0 1
    outer loop
      vertex -82.5 20.405 2
      vertex -82.5 -20 2
      vertex -78.215 -20 2
    endloop
  endfacet
  facet normal -0 0 1
    outer loop
      vertex -78.215 3.815 2
      vertex -82.5 20.405 2
      vertex -78.215 -0.955 2
    endloop
  endfacet
  facet normal -0 0 1
    outer loop
      vertex -78.215 -0.955 2
      vertex -82.5 20.405 2
      vertex -78.215 -20 2
    endloop
  endfacet
  facet normal 0 0 1
    outer loop
      vertex -78.215 3.815 2
      vertex -78.215 20.405 2
      vertex -82.5 20.405 2
    endloop
  endfacet
  facet normal -0 0 1
    outer loop
      vertex -57.1 -20 2
      vertex -61.385 -0.955 2
      vertex -61.385 -20 2
    endloop
  endfacet
  facet normal 0 0 1
    outer loop
      vertex -57.1 20.405 2
      vertex -61.385 -0.955 2
      vertex -57.1 -20 2
    endloop
  endfacet
  facet normal 0 0 1
    outer loop
      vertex -57.1 20.405 2
      vertex -61.385 3.815 2
      vertex -61.385 -0.955 2
    endloop
  endfacet
  facet normal 0 0 1
    outer loop
      vertex -57.1 20.405 2
      vertex -61.385 20.405 2
      vertex -61.385 3.815 2
    endloop
  endfacet
  facet normal -0 0 1
    outer loop
      vertex -61.385 -0.955 2
      vertex -78.215 3.815 2
      vertex -78.215 -0.955 2
    endloop
  endfacet
  facet normal 0 0 1
    outer loop
      vertex -61.385 3.815 2
      vertex -78.215 3.815 2
      vertex -61.385 -0.955 2
    endloop
  endfacet
  facet normal 0 0 1
    outer loop
      vertex -51.195 6.515 2
      vertex -55 -4.95 2
      vertex -51.235 -16.045 2
    endloop
  endfacet
  facet normal -0 0 1
    outer loop
      vertex -49.87 -5.97 2
      vertex -51.195 6.515 2
      vertex -51.235 -16.045 2
    endloop
  endfacet
  facet normal -0 0 1
    outer loop
      vertex -41.025 -15.92 2
      vertex -47.145 -13.355 2
      vertex -41.055 -20 2
    endloop
  endfacet
  facet normal -0 0 1
    outer loop
      vertex -28.18 -10.545 2
      vertex -33.31 -9.91 2
      vertex -32.675 -17.52 2
    endloop
  endfacet
  facet normal 0 0 1
    outer loop
      vertex -33.255 -1.89 2
      vertex -28.045 -5.97 2
      vertex -28.015 -4.645 2
    endloop
  endfacet
  facet normal -0 0 1
    outer loop
      vertex -32.675 -17.52 2
      vertex -36.37 -14.485 2
      vertex -41.055 -20 2
    endloop
  endfacet
  facet normal 0 0 1
    outer loop
      vertex -36.37 -14.485 2
      vertex -41.025 -15.92 2
      vertex -41.055 -20 2
    endloop
  endfacet
  facet normal 0 0 1
    outer loop
      vertex -33.255 -1.89 2
      vertex -49.595 -1.89 2
      vertex -49.87 -5.97 2
    endloop
  endfacet
  facet normal 0 0 1
    outer loop
      vertex -41.055 -20 2
      vertex -47.145 -13.355 2
      vertex -51.235 -16.045 2
    endloop
  endfacet
  facet normal -0 0 1
    outer loop
      vertex -47.145 -13.355 2
      vertex -49.87 -5.97 2
      vertex -51.235 -16.045 2
    endloop
  endfacet
  facet normal -0 0 1
    outer loop
      vertex -49.595 -1.89 2
      vertex -51.195 6.515 2
      vertex -49.87 -5.97 2
    endloop
  endfacet
  facet normal 0 -0 1
    outer loop
      vertex -41.33 10.595 2
      vertex -51.195 6.515 2
      vertex -31.735 6.6 2
    endloop
  endfacet
  facet normal 0 0 1
    outer loop
      vertex -35.125 3.65 2
      vertex -33.255 -1.89 2
      vertex -28.015 -4.645 2
    endloop
  endfacet
  facet normal 0 0 1
    outer loop
      vertex -31.735 6.6 2
      vertex -51.195 6.515 2
      vertex -41.275 6.515 2
    endloop
  endfacet
  facet normal 0 -0 1
    outer loop
      vertex -31.735 6.6 2
      vertex -35.125 3.65 2
      vertex -28.015 -4.645 2
    endloop
  endfacet
  facet normal 0 0 1
    outer loop
      vertex -31.735 6.6 2
      vertex -41.275 6.515 2
      vertex -35.125 3.65 2
    endloop
  endfacet
  facet normal 0 -0 1
    outer loop
      vertex -33.255 -1.89 2
      vertex -49.87 -5.97 2
      vertex -28.045 -5.97 2
    endloop
  endfacet
  facet normal 0 -0 1
    outer loop
      vertex -33.31 -9.91 2
      vertex -36.37 -14.485 2
      vertex -32.675 -17.52 2
    endloop
  endfacet
  facet normal 0 0 1
    outer loop
      vertex -49.595 -1.89 2
      vertex -47.02 4.225 2
      vertex -51.195 6.515 2
    endloop
  endfacet
  facet normal 0 0 1
    outer loop
      vertex -47.02 4.225 2
      vertex -41.275 6.515 2
      vertex -51.195 6.515 2
    endloop
  endfacet
  facet normal 0 -0 1
    outer loop
      vertex -19.035 9.27 2
      vertex -19.035 -20 2
      vertex -14.07 -20 2
    endloop
  endfacet
  facet normal -0 0 1
    outer loop
      vertex -13.245 1.115 2
      vertex -19.035 9.27 2
      vertex -14.07 -4.675 2
    endloop
  endfacet
  facet normal -0 0 1
    outer loop
      vertex -14.07 -4.675 2
      vertex -19.035 9.27 2
      vertex -14.07 -20 2
    endloop
  endfacet
  facet normal -0 -0 1
    outer loop
      vertex -14.57 4.835 2
      vertex -19.035 9.27 2
      vertex -13.245 1.115 2
    endloop
  endfacet
  facet normal 0 0 1
    outer loop
      vertex -14.57 4.835 2
      vertex -14.57 9.27 2
      vertex -19.035 9.27 2
    endloop
  endfacet
  facet normal 0 -0 1
    outer loop
      vertex -8.23 9.93 2
      vertex -11.415 8.94 2
      vertex -3.13 8.335 2
    endloop
  endfacet
  facet normal -0 0 1
    outer loop
      vertex -11.4 3.83 2
      vertex -14.57 4.835 2
      vertex -13.245 1.115 2
    endloop
  endfacet
  facet normal 0 0 1
    outer loop
      vertex -11.415 8.94 2
      vertex -4.84 3.73 2
      vertex -3.13 8.335 2
    endloop
  endfacet
  facet normal 0 0 1
    outer loop
      vertex -11.415 8.94 2
      vertex -8.48 4.805 2
      vertex -4.84 3.73 2
    endloop
  endfacet
  facet normal 0 0 1
    outer loop
      vertex -11.415 8.94 2
      vertex -11.4 3.83 2
      vertex -8.48 4.805 2
    endloop
  endfacet
  facet normal 0 -0 1
    outer loop
      vertex -11.415 8.94 2
      vertex -14.57 4.835 2
      vertex -11.4 3.83 2
    endloop
  endfacet
  facet normal 0 -0 1
    outer loop
      vertex 0 21.065 2
      vertex 0 -19.335 2
      vertex 4.605 -19.335 2
    endloop
  endfacet
  facet normal -0 -0 1
    outer loop
      vertex 4.55 -4.48 2
      vertex 0 21.065 2
      vertex 4.605 -15.67 2
    endloop
  endfacet
  facet normal -0 0 1
    outer loop
      vertex 4.605 -15.67 2
      vertex 0 21.065 2
      vertex 4.605 -19.335 2
    endloop
  endfacet
  facet normal 0 0 1
    outer loop
      vertex 4.55 -4.48 2
      vertex 4.96 6.655 2
      vertex 0 21.065 2
    endloop
  endfacet
  facet normal -0 -0 1
    outer loop
      vertex 12.32 -15.92 2
      vertex 5.98 -12.09 2
      vertex 12.735 -20 2
    endloop
  endfacet
  facet normal 0 -0 1
    outer loop
      vertex 12.985 10.595 2
      vertex 12.54 6.515 2
      vertex 18.04 3.785 2
    endloop
  endfacet
  facet normal 0 0 1
    outer loop
      vertex 6.92 3.69 2
      vertex 12.54 6.515 2
      vertex 4.96 6.655 2
    endloop
  endfacet
  facet normal -0 -0 1
    outer loop
      vertex 24.505 1.69 2
      vertex 12.985 10.595 2
      vertex 25.385 -4.26 2
    endloop
  endfacet
  facet normal 0 0 1
    outer loop
      vertex 4.55 -4.48 2
      vertex 6.92 3.69 2
      vertex 4.96 6.655 2
    endloop
  endfacet
  facet normal 0 0 1
    outer loop
      vertex 12.735 -20 2
      vertex 5.98 -12.09 2
      vertex 4.605 -15.67 2
    endloop
  endfacet
  facet normal -0 0 1
    outer loop
      vertex 5.98 -12.09 2
      vertex 4.55 -4.48 2
      vertex 4.605 -15.67 2
    endloop
  endfacet
  facet normal 0 -0 1
    outer loop
      vertex 20.315 -4.675 2
      vertex 17.945 -13.095 2
      vertex 21.665 -15.89 2
    endloop
  endfacet
  facet normal 0 0 1
    outer loop
      vertex 18.04 3.785 2
      vertex 20.315 -4.675 2
      vertex 25.385 -4.26 2
    endloop
  endfacet
  facet normal 0 0 1
    outer loop
      vertex 4.96 6.655 2
      vertex 4.96 21.065 2
      vertex 0 21.065 2
    endloop
  endfacet
  facet normal 0 0 1
    outer loop
      vertex 12.985 10.595 2
      vertex 18.04 3.785 2
      vertex 25.385 -4.26 2
    endloop
  endfacet
  facet normal 0 0 1
    outer loop
      vertex 25.385 -4.26 2
      vertex 20.315 -4.675 2
      vertex 21.665 -15.89 2
    endloop
  endfacet
  facet normal -0 0 1
    outer loop
      vertex 21.665 -15.89 2
      vertex 17.945 -13.095 2
      vertex 12.735 -20 2
    endloop
  endfacet
  facet normal 0 0 1
    outer loop
      vertex 17.945 -13.095 2
      vertex 12.32 -15.92 2
      vertex 12.735 -20 2
    endloop
  endfacet
  facet normal 0 0 1
    outer loop
      vertex 18.095 9.505 2
      vertex 24.505 1.69 2
      vertex 22.065 6.445 2
    endloop
  endfacet
  facet normal -0 -0 1
    outer loop
      vertex 18.095 9.505 2
      vertex 12.985 10.595 2
      vertex 24.505 1.69 2
    endloop
  endfacet
  facet normal 0 0 1
    outer loop
      vertex 12.985 10.595 2
      vertex 4.96 6.655 2
      vertex 12.54 6.515 2
    endloop
  endfacet
  facet normal 0 -0 1
    outer loop
      vertex 38.79 9.27 2
      vertex 38.79 -20 2
      vertex 43.75 -20 2
    endloop
  endfacet
  facet normal 0 0 1
    outer loop
      vertex 43.75 9.27 2
      vertex 38.79 9.27 2
      vertex 43.75 -20 2
    endloop
  endfacet
  facet normal 0 -0 1
    outer loop
      vertex 38.79 20.405 2
      vertex 38.79 14.7 2
      vertex 43.75 14.7 2
    endloop
  endfacet
  facet normal 0 0 1
    outer loop
      vertex 43.75 20.405 2
      vertex 38.79 20.405 2
      vertex 43.75 14.7 2
    endloop
  endfacet
  facet normal 0 0 1
    outer loop
      vertex 58.805 6.515 2
      vertex 55 -4.95 2
      vertex 58.765 -16.045 2
    endloop
  endfacet
  facet normal -0 0 1
    outer loop
      vertex 60.13 -5.97 2
      vertex 58.805 6.515 2
      vertex 58.765 -16.045 2
    endloop
  endfacet
  facet normal -0 0 1
    outer loop
      vertex 68.975 -15.92 2
      vertex 62.855 -13.355 2
      vertex 68.945 -20 2
    endloop
  endfacet
  facet normal -0 0 1
    outer loop
      vertex 81.82 -10.545 2
      vertex 76.69 -9.91 2
      vertex 77.325 -17.52 2
    endloop
  endfacet
  facet normal 0 0 1
    outer loop
      vertex 76.745 -1.89 2
      vertex 81.955 -5.97 2
      vertex 81.985 -4.645 2
    endloop
  endfacet
  facet normal -0 0 1
    outer loop
      vertex 77.325 -17.52 2
      vertex 73.63 -14.485 2
      vertex 68.945 -20 2
    endloop
  endfacet
  facet normal 0 0 1
    outer loop
      vertex 73.63 -14.485 2
      vertex 68.975 -15.92 2
      vertex 68.945 -20 2
    endloop
  endfacet
  facet normal 0 0 1
    outer loop
      vertex 76.745 -1.89 2
      vertex 60.405 -1.89 2
      vertex 60.13 -5.97 2
    endloop
  endfacet
  facet normal 0 0 1
    outer loop
      vertex 68.945 -20 2
      vertex 62.855 -13.355 2
      vertex 58.765 -16.045 2
    endloop
  endfacet
  facet normal -0 0 1
    outer loop
      vertex 62.855 -13.355 2
      vertex 60.13 -5.97 2
      vertex 58.765 -16.045 2
    endloop
  endfacet
  facet normal -0 0 1
    outer loop
      vertex 60.405 -1.89 2
      vertex 58.805 6.515 2
      vertex 60.13 -5.97 2
    endloop
  endfacet
  facet normal 0 -0 1
    outer loop
      vertex 68.67 10.595 2
      vertex 58.805 6.515 2
      vertex 78.265 6.6 2
    endloop
  endfacet
  facet normal 0 0 1
    outer loop
      vertex 74.875 3.65 2
      vertex 76.745 -1.89 2
      vertex 81.985 -4.645 2
    endloop
  endfacet
  facet normal 0 0 1
    outer loop
      vertex 78.265 6.6 2
      vertex 58.805 6.515 2
      vertex 68.725 6.515 2
    endloop
  endfacet
  facet normal 0 -0 1
    outer loop
      vertex 78.265 6.6 2
      vertex 74.875 3.65 2
      vertex 81.985 -4.645 2
    endloop
  endfacet
  facet normal 0 0 1
    outer loop
      vertex 78.265 6.6 2
      vertex 68.725 6.515 2
      vertex 74.875 3.65 2
    endloop
  endfacet
  facet normal 0 -0 1
    outer loop
      vertex 76.745 -1.89 2
      vertex 60.13 -5.97 2
      vertex 81.955 -5.97 2
    endloop
  endfacet
  facet normal 0 -0 1
    outer loop
      vertex 76.69 -9.91 2
      vertex 73.63 -14.485 2
      vertex 77.325 -17.52 2
    endloop
  endfacet
  facet normal 0 0 1
    outer loop
      vertex 60.405 -1.89 2
      vertex 62.98 4.225 2
      vertex 58.805 6.515 2
    endloop
  endfacet
  facet normal 0 0 1
    outer loop
      vertex 62.98 4.225 2
      vertex 68.725 6.515 2
      vertex 58.805 6.515 2
    endloop
  endfacet
  facet normal 0.921621 -0.388091 0
    outer loop
      vertex -49.595 -1.89 2
      vertex -49.595 -1.89 0
      vertex -47.02 4.225 0
    endloop
  endfacet
  facet normal 0.921621 -0.388091 0
    outer loop
      vertex -47.02 4.225 2
      vertex -49.595 -1.89 2
      vertex -47.02 4.225 0
    endloop
  endfacet
  facet normal 0 1 0
    outer loop
      vertex -49.595 -1.89 0
      vertex -49.595 -1.89 2
      vertex -33.255 -1.89 0
    endloop
  endfacet
  facet normal 0 1 0
    outer loop
      vertex -33.255 -1.89 0
      vertex -49.595 -1.89 2
      vertex -33.255 -1.89 2
    endloop
  endfacet
  facet normal -0.947479 -0.319817 -0
    outer loop
      vertex -35.125 3.65 0
      vertex -33.255 -1.89 0
      vertex -35.125 3.65 2
    endloop
  endfacet
  facet normal -0.947479 -0.319817 0
    outer loop
      vertex -35.125 3.65 2
      vertex -33.255 -1.89 0
      vertex -33.255 -1.89 2
    endloop
  endfacet
  facet normal -0.42228 -0.906465 0
    outer loop
      vertex -41.275 6.515 2
      vertex -41.275 6.515 0
      vertex -35.125 3.65 0
    endloop
  endfacet
  facet normal -0.42228 -0.906465 0
    outer loop
      vertex -35.125 3.65 2
      vertex -41.275 6.515 2
      vertex -35.125 3.65 0
    endloop
  endfacet
  facet normal 0.370275 -0.928922 0
    outer loop
      vertex -47.02 4.225 2
      vertex -47.02 4.225 0
      vertex -41.275 6.515 0
    endloop
  endfacet
  facet normal 0.370275 -0.928922 0
    outer loop
      vertex -41.275 6.515 2
      vertex -47.02 4.225 2
      vertex -41.275 6.515 0
    endloop
  endfacet
  facet normal 0.982799 0.184678 0
    outer loop
      vertex 5.98 -12.09 0
      vertex 4.55 -4.48 0
      vertex 4.55 -4.48 2
    endloop
  endfacet
  facet normal 0.982799 0.184678 -0
    outer loop
      vertex 5.98 -12.09 2
      vertex 5.98 -12.09 0
      vertex 4.55 -4.48 2
    endloop
  endfacet
  facet normal 0.517074 0.85594 0
    outer loop
      vertex 5.98 -12.09 0
      vertex 5.98 -12.09 2
      vertex 12.32 -15.92 0
    endloop
  endfacet
  facet normal 0.517074 0.85594 0
    outer loop
      vertex 12.32 -15.92 0
      vertex 5.98 -12.09 2
      vertex 12.32 -15.92 2
    endloop
  endfacet
  facet normal -0.448802 0.893631 0
    outer loop
      vertex 12.32 -15.92 0
      vertex 12.32 -15.92 2
      vertex 17.945 -13.095 0
    endloop
  endfacet
  facet normal -0.448802 0.893631 0
    outer loop
      vertex 17.945 -13.095 0
      vertex 12.32 -15.92 2
      vertex 17.945 -13.095 2
    endloop
  endfacet
  facet normal -0.962595 0.270944 0
    outer loop
      vertex 17.945 -13.095 0
      vertex 17.945 -13.095 2
      vertex 20.315 -4.675 0
    endloop
  endfacet
  facet normal -0.962595 0.270944 0
    outer loop
      vertex 20.315 -4.675 0
      vertex 17.945 -13.095 2
      vertex 20.315 -4.675 2
    endloop
  endfacet
  facet normal -0.965693 -0.259687 -0
    outer loop
      vertex 18.04 3.785 0
      vertex 20.315 -4.675 0
      vertex 18.04 3.785 2
    endloop
  endfacet
  facet normal -0.965693 -0.259687 0
    outer loop
      vertex 18.04 3.785 2
      vertex 20.315 -4.675 0
      vertex 20.315 -4.675 2
    endloop
  endfacet
  facet normal -0.444606 -0.895726 0
    outer loop
      vertex 12.54 6.515 2
      vertex 12.54 6.515 0
      vertex 18.04 3.785 0
    endloop
  endfacet
  facet normal -0.444606 -0.895726 0
    outer loop
      vertex 18.04 3.785 2
      vertex 12.54 6.515 2
      vertex 18.04 3.785 0
    endloop
  endfacet
  facet normal 0.44912 -0.893471 0
    outer loop
      vertex 6.92 3.69 2
      vertex 6.92 3.69 0
      vertex 12.54 6.515 0
    endloop
  endfacet
  facet normal 0.44912 -0.893471 0
    outer loop
      vertex 12.54 6.515 2
      vertex 6.92 3.69 2
      vertex 12.54 6.515 0
    endloop
  endfacet
  facet normal 0.960407 -0.2786 0
    outer loop
      vertex 4.55 -4.48 2
      vertex 4.55 -4.48 0
      vertex 6.92 3.69 0
    endloop
  endfacet
  facet normal 0.960407 -0.2786 0
    outer loop
      vertex 6.92 3.69 2
      vertex 4.55 -4.48 2
      vertex 6.92 3.69 0
    endloop
  endfacet
  facet normal 0.921621 -0.388091 0
    outer loop
      vertex 60.405 -1.89 2
      vertex 60.405 -1.89 0
      vertex 62.98 4.225 0
    endloop
  endfacet
  facet normal 0.921621 -0.388091 0
    outer loop
      vertex 62.98 4.225 2
      vertex 60.405 -1.89 2
      vertex 62.98 4.225 0
    endloop
  endfacet
  facet normal 0 1 0
    outer loop
      vertex 60.405 -1.89 0
      vertex 60.405 -1.89 2
      vertex 76.745 -1.89 0
    endloop
  endfacet
  facet normal 0 1 0
    outer loop
      vertex 76.745 -1.89 0
      vertex 60.405 -1.89 2
      vertex 76.745 -1.89 2
    endloop
  endfacet
  facet normal -0.947479 -0.319817 -0
    outer loop
      vertex 74.875 3.65 0
      vertex 76.745 -1.89 0
      vertex 74.875 3.65 2
    endloop
  endfacet
  facet normal -0.947479 -0.319817 0
    outer loop
      vertex 74.875 3.65 2
      vertex 76.745 -1.89 0
      vertex 76.745 -1.89 2
    endloop
  endfacet
  facet normal -0.42228 -0.906465 0
    outer loop
      vertex 68.725 6.515 2
      vertex 68.725 6.515 0
      vertex 74.875 3.65 0
    endloop
  endfacet
  facet normal -0.42228 -0.906465 0
    outer loop
      vertex 74.875 3.65 2
      vertex 68.725 6.515 2
      vertex 74.875 3.65 0
    endloop
  endfacet
  facet normal 0.370275 -0.928922 0
    outer loop
      vertex 62.98 4.225 2
      vertex 62.98 4.225 0
      vertex 68.725 6.515 0
    endloop
  endfacet
  facet normal 0.370275 -0.928922 0
    outer loop
      vertex 68.725 6.515 2
      vertex 62.98 4.225 2
      vertex 68.725 6.515 0
    endloop
  endfacet
  facet normal 0 0 1
    outer loop
      vertex -33.255 -1.89 0
      vertex -35.125 3.65 0
      vertex -41.275 6.515 0
    endloop
  endfacet
  facet normal 0 0 1
    outer loop
      vertex -49.595 -1.89 0
      vertex -33.255 -1.89 0
      vertex -47.02 4.225 0
    endloop
  endfacet
  facet normal 0 0 1
    outer loop
      vertex -47.02 4.225 0
      vertex -33.255 -1.89 0
      vertex -41.275 6.515 0
    endloop
  endfacet
  facet normal 0 0 1
    outer loop
      vertex 5.98 -12.09 0
      vertex 12.32 -15.92 0
      vertex 17.945 -13.095 0
    endloop
  endfacet
  facet normal 0 -0 1
    outer loop
      vertex 18.04 3.785 0
      vertex 5.98 -12.09 0
      vertex 20.315 -4.675 0
    endloop
  endfacet
  facet normal 0 0 1
    outer loop
      vertex 20.315 -4.675 0
      vertex 5.98 -12.09 0
      vertex 17.945 -13.095 0
    endloop
  endfacet
  facet normal 0 -0 1
    outer loop
      vertex 12.54 6.515 0
      vertex 5.98 -12.09 0
      vertex 18.04 3.785 0
    endloop
  endfacet
  facet normal 0 -0 1
    outer loop
      vertex 6.92 3.69 0
      vertex 5.98 -12.09 0
      vertex 12.54 6.515 0
    endloop
  endfacet
  facet normal 0 0 1
    outer loop
      vertex 4.55 -4.48 0
      vertex 5.98 -12.09 0
      vertex 6.92 3.69 0
    endloop
  endfacet
  facet normal 0 0 1
    outer loop
      vertex 76.745 -1.89 0
      vertex 74.875 3.65 0
      vertex 68.725 6.515 0
    endloop
  endfacet
  facet normal 0 0 1
    outer loop
      vertex 60.405 -1.89 0
      vertex 76.745 -1.89 0
      vertex 62.98 4.225 0
    endloop
  endfacet
  facet normal 0 0 1
    outer loop
      vertex 62.98 4.225 0
      vertex 76.745 -1.89 0
      vertex 68.725 6.515 0
    endloop
  endfacet
endsolid OpenSCAD_Model
