solid OpenSCAD_Model
  facet normal -1 -0 -0
    outer loop
      vertex 0 0 0
      vertex 0 0 100
      vertex 0 100 0
    endloop
  endfacet
  facet normal -1 0 0
    outer loop
      vertex 0 100 0
      vertex 0 0 100
      vertex 0 100 100
    endloop
  endfacet
  facet normal 0 -1 0
    outer loop
      vertex 0 0 100
      vertex 0 0 0
      vertex 100 0 0
    endloop
  endfacet
  facet normal 0 -1 0
    outer loop
      vertex 100 0 100
      vertex 0 0 100
      vertex 100 0 0
    endloop
  endfacet
  facet normal -0 -0 -1
    outer loop
      vertex 0 0 0
      vertex 0 100 0
      vertex 100 0 0
    endloop
  endfacet
  facet normal 0 0 -1
    outer loop
      vertex 100 0 0
      vertex 0 100 0
      vertex 100 100 0
    endloop
  endfacet
  facet normal 0 1 0
    outer loop
      vertex 0 100 0
      vertex 0 100 100
      vertex 100 100 0
    endloop
  endfacet
  facet normal 0 1 0
    outer loop
      vertex 100 100 0
      vertex 0 100 100
      vertex 100 100 100
    endloop
  endfacet
  facet normal 0 -0 1
    outer loop
      vertex 35 48 100
      vertex 0 0 100
      vertex 100 0 100
    endloop
  endfacet
  facet normal 0 -0 1
    outer loop
      vertex 0 100 100
      vertex 0 0 100
      vertex 35 48 100
    endloop
  endfacet
  facet normal 0 0 1
    outer loop
      vertex 35 52 100
      vertex 65 52 100
      vertex 0 100 100
    endloop
  endfacet
  facet normal 0 0 1
    outer loop
      vertex 0 100 100
      vertex 35 48 100
      vertex 35 52 100
    endloop
  endfacet
  facet normal 0 0 1
    outer loop
      vertex 100 100 100
      vertex 65 52 100
      vertex 100 0 100
    endloop
  endfacet
  facet normal 0 0 1
    outer loop
      vertex 100 100 100
      vertex 0 100 100
      vertex 65 52 100
    endloop
  endfacet
  facet normal 0 -0 1
    outer loop
      vertex 65 52 100
      vertex 65 48 100
      vertex 100 0 100
    endloop
  endfacet
  facet normal 0 -0 1
    outer loop
      vertex 65 48 100
      vertex 35 48 100
      vertex 100 0 100
    endloop
  endfacet
  facet normal 1 0 -0
    outer loop
      vertex 100 0 100
      vertex 100 0 0
      vertex 100 100 0
    endloop
  endfacet
  facet normal 1 0 0
    outer loop
      vertex 100 100 100
      vertex 100 0 100
      vertex 100 100 0
    endloop
  endfacet
  facet normal 1 0 0
    outer loop
      vertex 35 52 95
      vertex 35 52 100
      vertex 35 48 100
    endloop
  endfacet
  facet normal 1 0 0
    outer loop
      vertex 35 48 95
      vertex 35 52 95
      vertex 35 48 100
    endloop
  endfacet
  facet normal 0 1 0
    outer loop
      vertex 65 48 100
      vertex 65 48 95
      vertex 35 48 100
    endloop
  endfacet
  facet normal 0 1 -0
    outer loop
      vertex 35 48 100
      vertex 65 48 95
      vertex 35 48 95
    endloop
  endfacet
  facet normal -1 0 0
    outer loop
      vertex 65 52 100
      vertex 65 52 95
      vertex 65 48 100
    endloop
  endfacet
  facet normal -1 0 0
    outer loop
      vertex 65 48 100
      vertex 65 52 95
      vertex 65 48 95
    endloop
  endfacet
  facet normal 0 -1 0
    outer loop
      vertex 65 52 95
      vertex 65 52 100
      vertex 35 52 100
    endloop
  endfacet
  facet normal -0 -1 -0
    outer loop
      vertex 35 52 95
      vertex 65 52 95
      vertex 35 52 100
    endloop
  endfacet
  facet normal -0 -0 -1
    outer loop
      vertex 35 52 95
      vertex 5 95 95
      vertex 65 52 95
    endloop
  endfacet
  facet normal 0 0 -1
    outer loop
      vertex 35 48 95
      vertex 95 5 95
      vertex 5 5 95
    endloop
  endfacet
  facet normal 0 0 -1
    outer loop
      vertex 5 95 95
      vertex 35 48 95
      vertex 5 5 95
    endloop
  endfacet
  facet normal 0 0 -1
    outer loop
      vertex 95 95 95
      vertex 95 5 95
      vertex 65 48 95
    endloop
  endfacet
  facet normal 0 0 -1
    outer loop
      vertex 95 95 95
      vertex 65 48 95
      vertex 65 52 95
    endloop
  endfacet
  facet normal 0 0 -1
    outer loop
      vertex 95 95 95
      vertex 65 52 95
      vertex 5 95 95
    endloop
  endfacet
  facet normal 0 0 -1
    outer loop
      vertex 5 95 95
      vertex 35 52 95
      vertex 35 48 95
    endloop
  endfacet
  facet normal 0 0 -1
    outer loop
      vertex 65 48 95
      vertex 95 5 95
      vertex 35 48 95
    endloop
  endfacet
  facet normal 1 0 0
    outer loop
      vertex 5 95 5
      vertex 5 95 95
      vertex 5 5 95
    endloop
  endfacet
  facet normal 1 0 0
    outer loop
      vertex 5 5 5
      vertex 5 95 5
      vertex 5 5 95
    endloop
  endfacet
  facet normal 0 -1 0
    outer loop
      vertex 95 95 5
      vertex 95 95 95
      vertex 5 95 95
    endloop
  endfacet
  facet normal -0 -1 -0
    outer loop
      vertex 5 95 5
      vertex 95 95 5
      vertex 5 95 95
    endloop
  endfacet
  facet normal 0 1 0
    outer loop
      vertex 95 5 95
      vertex 95 5 5
      vertex 5 5 95
    endloop
  endfacet
  facet normal 0 1 -0
    outer loop
      vertex 5 5 95
      vertex 95 5 5
      vertex 5 5 5
    endloop
  endfacet
  facet normal -1 0 0
    outer loop
      vertex 95 95 95
      vertex 95 95 5
      vertex 95 5 95
    endloop
  endfacet
  facet normal -1 0 0
    outer loop
      vertex 95 5 95
      vertex 95 95 5
      vertex 95 5 5
    endloop
  endfacet
  facet normal 0 0 1
    outer loop
      vertex 95 5 5
      vertex 95 95 5
      vertex 5 95 5
    endloop
  endfacet
  facet normal 0 0 1
    outer loop
      vertex 5 5 5
      vertex 95 5 5
      vertex 5 95 5
    endloop
  endfacet
endsolid OpenSCAD_Model
