solid OpenSCAD_Model
  facet normal -1 -0 0
    outer loop
      vertex -9 54.0654 -6.9053
      vertex -9 55 44
      vertex -9 55 -6.9053
    endloop
  endfacet
  facet normal -1 -0 0
    outer loop
      vertex -9 33.5597 8.41375
      vertex -9 55 44
      vertex -9 54.0654 -6.9053
    endloop
  endfacet
  facet normal -1 0 0
    outer loop
      vertex -9 5.69615 10.0852
      vertex -9 7.32747e-15 -22
      vertex -9 5.6 11
    endloop
  endfacet
  facet normal -1 0 0
    outer loop
      vertex -9 7.32747e-15 -22
      vertex -9 52.3813 -7.71631
      vertex -9 51.2159 -9.17769
    endloop
  endfacet
  facet normal -1 0 0
    outer loop
      vertex -9 51.2159 -9.17769
      vertex -9 50.8 -11
      vertex -9 7.32747e-15 -22
    endloop
  endfacet
  facet normal -1 0 0
    outer loop
      vertex -9 50.8 -11
      vertex -9 51.2159 -12.8223
      vertex -9 7.32747e-15 -22
    endloop
  endfacet
  facet normal -1 0 0
    outer loop
      vertex -9 51.2159 -12.8223
      vertex -9 52.3813 -14.2837
      vertex -9 7.32747e-15 -22
    endloop
  endfacet
  facet normal -1 0 0
    outer loop
      vertex -9 52.3813 -14.2837
      vertex -9 54.0654 -15.0947
      vertex -9 7.32747e-15 -22
    endloop
  endfacet
  facet normal -1 0 0
    outer loop
      vertex -9 54.0654 -15.0947
      vertex -9 55 -15.0947
      vertex -9 7.32747e-15 -22
    endloop
  endfacet
  facet normal -1 0 0
    outer loop
      vertex -9 7.32747e-15 -22
      vertex -9 55 -15.0947
      vertex -9 55 -22
    endloop
  endfacet
  facet normal -1 -0 0
    outer loop
      vertex -9 -7.32747e-15 44
      vertex -9 55 44
      vertex -9 10.4599 15.3759
    endloop
  endfacet
  facet normal -1 0 0
    outer loop
      vertex -9 -7.32747e-15 44
      vertex -9 10.4599 15.3759
      vertex -9 9.54007 15.3759
    endloop
  endfacet
  facet normal -1 0 0
    outer loop
      vertex -9 -7.32747e-15 44
      vertex -9 9.54007 15.3759
      vertex -9 8.64032 15.1846
    endloop
  endfacet
  facet normal -1 0 0
    outer loop
      vertex -9 -7.32747e-15 44
      vertex -9 8.64032 15.1846
      vertex -9 7.8 14.8105
    endloop
  endfacet
  facet normal -1 0 0
    outer loop
      vertex -9 -7.32747e-15 44
      vertex -9 7.8 14.8105
      vertex -9 7.05582 14.2698
    endloop
  endfacet
  facet normal -1 0 0
    outer loop
      vertex -9 -7.32747e-15 44
      vertex -9 7.05582 14.2698
      vertex -9 6.44032 13.5863
    endloop
  endfacet
  facet normal -1 0 0
    outer loop
      vertex -9 -7.32747e-15 44
      vertex -9 6.44032 13.5863
      vertex -9 5.9804 12.7896
    endloop
  endfacet
  facet normal -1 0 0
    outer loop
      vertex -9 -7.32747e-15 44
      vertex -9 5.9804 12.7896
      vertex -9 5.69615 11.9148
    endloop
  endfacet
  facet normal -1 0 0
    outer loop
      vertex -9 -7.32747e-15 44
      vertex -9 5.69615 11.9148
      vertex -9 7.32747e-15 -22
    endloop
  endfacet
  facet normal -1 0 0
    outer loop
      vertex -9 5.69615 11.9148
      vertex -9 5.6 11
      vertex -9 7.32747e-15 -22
    endloop
  endfacet
  facet normal -1 0 0
    outer loop
      vertex -9 5.9804 9.21036
      vertex -9 7.32747e-15 -22
      vertex -9 5.69615 10.0852
    endloop
  endfacet
  facet normal -1 0 0
    outer loop
      vertex -9 6.44033 8.41375
      vertex -9 7.32747e-15 -22
      vertex -9 5.9804 9.21036
    endloop
  endfacet
  facet normal -1 0 0
    outer loop
      vertex -9 7.05583 7.73016
      vertex -9 7.32747e-15 -22
      vertex -9 6.44033 8.41375
    endloop
  endfacet
  facet normal -1 0 0
    outer loop
      vertex -9 7.8 7.18949
      vertex -9 7.32747e-15 -22
      vertex -9 7.05583 7.73016
    endloop
  endfacet
  facet normal -1 0 0
    outer loop
      vertex -9 8.64033 6.81535
      vertex -9 7.32747e-15 -22
      vertex -9 7.8 7.18949
    endloop
  endfacet
  facet normal -1 -0 0
    outer loop
      vertex -9 30.4599 15.3759
      vertex -9 55 44
      vertex -9 31.3597 15.1846
    endloop
  endfacet
  facet normal -1 -0 0
    outer loop
      vertex -9 13.5597 8.41375
      vertex -9 55 44
      vertex -9 12.9442 7.73016
    endloop
  endfacet
  facet normal -1 -0 0
    outer loop
      vertex -9 14.3038 11.9148
      vertex -9 55 44
      vertex -9 14.4 11
    endloop
  endfacet
  facet normal -1 0 0
    outer loop
      vertex -9 8.64033 6.81535
      vertex -9 9.54007 6.6241
      vertex -9 7.32747e-15 -22
    endloop
  endfacet
  facet normal -1 -0 0
    outer loop
      vertex -9 14.4 11
      vertex -9 55 44
      vertex -9 14.3038 10.0852
    endloop
  endfacet
  facet normal -1 0 0
    outer loop
      vertex -9 9.54007 6.6241
      vertex -9 10.4599 6.6241
      vertex -9 7.32747e-15 -22
    endloop
  endfacet
  facet normal -1 -0 0
    outer loop
      vertex -9 14.3038 10.0852
      vertex -9 55 44
      vertex -9 14.0196 9.21036
    endloop
  endfacet
  facet normal -1 -0 0
    outer loop
      vertex -9 10.4599 6.6241
      vertex -9 11.3597 6.81535
      vertex -9 7.32747e-15 -22
    endloop
  endfacet
  facet normal -1 -0 0
    outer loop
      vertex -9 14.0196 9.21036
      vertex -9 55 44
      vertex -9 13.5597 8.41375
    endloop
  endfacet
  facet normal -1 -0 0
    outer loop
      vertex -9 11.3597 6.81535
      vertex -9 12.2 7.18949
      vertex -9 7.32747e-15 -22
    endloop
  endfacet
  facet normal -1 -0 0
    outer loop
      vertex -9 12.2 7.18949
      vertex -9 12.9442 7.73016
      vertex -9 7.32747e-15 -22
    endloop
  endfacet
  facet normal -1 -0 0
    outer loop
      vertex -9 14.0196 12.7896
      vertex -9 55 44
      vertex -9 14.3038 11.9148
    endloop
  endfacet
  facet normal -1 -0 0
    outer loop
      vertex -9 13.5597 13.5863
      vertex -9 55 44
      vertex -9 14.0196 12.7896
    endloop
  endfacet
  facet normal -1 -0 0
    outer loop
      vertex -9 12.9442 14.2698
      vertex -9 55 44
      vertex -9 13.5597 13.5863
    endloop
  endfacet
  facet normal -1 -0 0
    outer loop
      vertex -9 12.2 14.8105
      vertex -9 55 44
      vertex -9 12.9442 14.2698
    endloop
  endfacet
  facet normal -1 -0 0
    outer loop
      vertex -9 11.3597 15.1846
      vertex -9 55 44
      vertex -9 12.2 14.8105
    endloop
  endfacet
  facet normal -1 -0 0
    outer loop
      vertex -9 10.4599 15.3759
      vertex -9 55 44
      vertex -9 11.3597 15.1846
    endloop
  endfacet
  facet normal -1 -0 0
    outer loop
      vertex -9 29.5401 15.3759
      vertex -9 55 44
      vertex -9 30.4599 15.3759
    endloop
  endfacet
  facet normal -1 0 0
    outer loop
      vertex -9 28.6403 15.1846
      vertex -9 55 44
      vertex -9 29.5401 15.3759
    endloop
  endfacet
  facet normal -1 0 0
    outer loop
      vertex -9 27.8 14.8105
      vertex -9 55 44
      vertex -9 28.6403 15.1846
    endloop
  endfacet
  facet normal -1 0 0
    outer loop
      vertex -9 12.9442 7.73016
      vertex -9 55 44
      vertex -9 27.8 14.8105
    endloop
  endfacet
  facet normal -1 0 -0
    outer loop
      vertex -9 26.4403 13.5863
      vertex -9 12.9442 7.73016
      vertex -9 27.0558 14.2698
    endloop
  endfacet
  facet normal -1 0 0
    outer loop
      vertex -9 25.9804 9.21036
      vertex -9 7.32747e-15 -22
      vertex -9 25.6962 10.0852
    endloop
  endfacet
  facet normal -1 -0 0
    outer loop
      vertex -9 12.9442 7.73016
      vertex -9 26.4403 13.5863
      vertex -9 7.32747e-15 -22
    endloop
  endfacet
  facet normal -1 0 0
    outer loop
      vertex -9 26.4403 13.5863
      vertex -9 25.9804 12.7896
      vertex -9 7.32747e-15 -22
    endloop
  endfacet
  facet normal -1 0 0
    outer loop
      vertex -9 25.9804 12.7896
      vertex -9 25.6962 11.9148
      vertex -9 7.32747e-15 -22
    endloop
  endfacet
  facet normal -1 0 0
    outer loop
      vertex -9 25.6962 11.9148
      vertex -9 25.6 11
      vertex -9 7.32747e-15 -22
    endloop
  endfacet
  facet normal -1 0 0
    outer loop
      vertex -9 25.6 11
      vertex -9 25.6962 10.0852
      vertex -9 7.32747e-15 -22
    endloop
  endfacet
  facet normal -1 0 -0
    outer loop
      vertex -9 27.0558 14.2698
      vertex -9 12.9442 7.73016
      vertex -9 27.8 14.8105
    endloop
  endfacet
  facet normal -1 0 0
    outer loop
      vertex -9 26.4403 8.41375
      vertex -9 7.32747e-15 -22
      vertex -9 25.9804 9.21036
    endloop
  endfacet
  facet normal -1 0 0
    outer loop
      vertex -9 7.32747e-15 -22
      vertex -9 26.4403 8.41375
      vertex -9 27.0558 7.73016
    endloop
  endfacet
  facet normal -1 0 0
    outer loop
      vertex -9 7.32747e-15 -22
      vertex -9 27.0558 7.73016
      vertex -9 27.8 7.18949
    endloop
  endfacet
  facet normal -1 0 0
    outer loop
      vertex -9 7.32747e-15 -22
      vertex -9 27.8 7.18949
      vertex -9 54.0654 -6.9053
    endloop
  endfacet
  facet normal -1 0 0
    outer loop
      vertex -9 27.8 7.18949
      vertex -9 28.6403 6.81535
      vertex -9 54.0654 -6.9053
    endloop
  endfacet
  facet normal -1 0 0
    outer loop
      vertex -9 30.4599 6.6241
      vertex -9 54.0654 -6.9053
      vertex -9 29.5401 6.6241
    endloop
  endfacet
  facet normal -1 -0 0
    outer loop
      vertex -9 31.3597 15.1846
      vertex -9 55 44
      vertex -9 32.2 14.8105
    endloop
  endfacet
  facet normal -1 -0 0
    outer loop
      vertex -9 34.3038 10.0852
      vertex -9 55 44
      vertex -9 34.0196 9.21036
    endloop
  endfacet
  facet normal -1 -0 0
    outer loop
      vertex -9 34.0196 12.7896
      vertex -9 55 44
      vertex -9 34.3038 11.9148
    endloop
  endfacet
  facet normal -1 -0 0
    outer loop
      vertex -9 30.4599 6.6241
      vertex -9 31.3597 6.81535
      vertex -9 54.0654 -6.9053
    endloop
  endfacet
  facet normal -1 -0 0
    outer loop
      vertex -9 34.3038 11.9148
      vertex -9 55 44
      vertex -9 34.4 11
    endloop
  endfacet
  facet normal -1 -0 0
    outer loop
      vertex -9 31.3597 6.81535
      vertex -9 32.2 7.18949
      vertex -9 54.0654 -6.9053
    endloop
  endfacet
  facet normal -1 -0 0
    outer loop
      vertex -9 34.4 11
      vertex -9 55 44
      vertex -9 34.3038 10.0852
    endloop
  endfacet
  facet normal -1 -0 0
    outer loop
      vertex -9 32.2 7.18949
      vertex -9 32.9442 7.73016
      vertex -9 54.0654 -6.9053
    endloop
  endfacet
  facet normal -1 -0 0
    outer loop
      vertex -9 34.0196 9.21036
      vertex -9 55 44
      vertex -9 33.5597 8.41375
    endloop
  endfacet
  facet normal -1 -0 0
    outer loop
      vertex -9 32.9442 7.73016
      vertex -9 33.5597 8.41375
      vertex -9 54.0654 -6.9053
    endloop
  endfacet
  facet normal -1 -0 0
    outer loop
      vertex -9 33.5597 13.5863
      vertex -9 55 44
      vertex -9 34.0196 12.7896
    endloop
  endfacet
  facet normal -1 -0 0
    outer loop
      vertex -9 32.9442 14.2698
      vertex -9 55 44
      vertex -9 33.5597 13.5863
    endloop
  endfacet
  facet normal -1 -0 0
    outer loop
      vertex -9 32.2 14.8105
      vertex -9 55 44
      vertex -9 32.9442 14.2698
    endloop
  endfacet
  facet normal -1 0 0
    outer loop
      vertex -9 29.5401 6.6241
      vertex -9 54.0654 -6.9053
      vertex -9 28.6403 6.81535
    endloop
  endfacet
  facet normal -1 0 -0
    outer loop
      vertex -9 52.3813 -7.71631
      vertex -9 7.32747e-15 -22
      vertex -9 54.0654 -6.9053
    endloop
  endfacet
  facet normal 0 -0 1
    outer loop
      vertex -2.19638 15.0669 44
      vertex -9 -7.32747e-15 44
      vertex 9 -7.32747e-15 44
    endloop
  endfacet
  facet normal 6.91779e-16 -1.2919e-16 1
    outer loop
      vertex -9 55 44
      vertex -9 -7.32747e-15 44
      vertex -5.37042 19.4355 44
    endloop
  endfacet
  facet normal 1.95764e-15 0 1
    outer loop
      vertex -9 55 44
      vertex -5.37042 19.4355 44
      vertex -5.37042 20.5645 44
    endloop
  endfacet
  facet normal 6.48952e-16 -1.37939e-16 1
    outer loop
      vertex -9 55 44
      vertex -5.37042 20.5645 44
      vertex -5.13571 21.6687 44
    endloop
  endfacet
  facet normal -0 -0 1
    outer loop
      vertex -3.90107e-15 14.6 44
      vertex -1.12272 14.718 44
      vertex 9 -7.32747e-15 44
    endloop
  endfacet
  facet normal 3.79881e-16 -1.69134e-16 1
    outer loop
      vertex -9 55 44
      vertex -5.13571 21.6687 44
      vertex -4.67654 22.7 44
    endloop
  endfacet
  facet normal -0 -0 1
    outer loop
      vertex -1.12272 14.718 44
      vertex -2.19638 15.0669 44
      vertex 9 -7.32747e-15 44
    endloop
  endfacet
  facet normal 2.55676e-16 -1.85759e-16 1
    outer loop
      vertex -9 55 44
      vertex -4.67654 22.7 44
      vertex -4.01298 23.6133 44
    endloop
  endfacet
  facet normal 1.78325e-16 -1.98049e-16 1
    outer loop
      vertex -9 55 44
      vertex -4.01298 23.6133 44
      vertex -3.17404 24.3687 44
    endloop
  endfacet
  facet normal 0 -0 1
    outer loop
      vertex 2.19638 15.0669 44
      vertex 1.12272 14.718 44
      vertex 9 -7.32747e-15 44
    endloop
  endfacet
  facet normal 1.20674e-16 -2.09014e-16 1
    outer loop
      vertex -9 55 44
      vertex -3.17404 24.3687 44
      vertex -2.19638 24.9331 44
    endloop
  endfacet
  facet normal 0 -0 1
    outer loop
      vertex 1.12272 14.718 44
      vertex -3.90107e-15 14.6 44
      vertex 9 -7.32747e-15 44
    endloop
  endfacet
  facet normal 7.15265e-17 -2.20136e-16 1
    outer loop
      vertex -9 55 44
      vertex -2.19638 24.9331 44
      vertex -1.12272 25.282 44
    endloop
  endfacet
  facet normal 0 -0 1
    outer loop
      vertex 5.37042 20.5645 44
      vertex 5.37042 19.4355 44
      vertex 9 -7.32747e-15 44
    endloop
  endfacet
  facet normal 2.44488e-17 -2.32614e-16 1
    outer loop
      vertex -9 55 44
      vertex -1.12272 25.282 44
      vertex -3.90107e-15 25.4 44
    endloop
  endfacet
  facet normal 0 -0 1
    outer loop
      vertex 3.17404 15.6313 44
      vertex 2.19638 15.0669 44
      vertex 9 -7.32747e-15 44
    endloop
  endfacet
  facet normal 0 -2.39095e-16 1
    outer loop
      vertex 9 55 44
      vertex -9 55 44
      vertex 1.12272 25.282 44
    endloop
  endfacet
  facet normal -7.15265e-17 -2.20136e-16 1
    outer loop
      vertex 9 55 44
      vertex 1.12272 25.282 44
      vertex 2.19638 24.9331 44
    endloop
  endfacet
  facet normal 0 -0 1
    outer loop
      vertex 4.67654 17.3 44
      vertex 4.01298 16.3867 44
      vertex 9 -7.32747e-15 44
    endloop
  endfacet
  facet normal -1.20674e-16 -2.09014e-16 1
    outer loop
      vertex 9 55 44
      vertex 2.19638 24.9331 44
      vertex 3.17404 24.3687 44
    endloop
  endfacet
  facet normal 0 -0 1
    outer loop
      vertex 4.01298 16.3867 44
      vertex 3.17404 15.6313 44
      vertex 9 -7.32747e-15 44
    endloop
  endfacet
  facet normal -1.78325e-16 -1.98049e-16 1
    outer loop
      vertex 9 55 44
      vertex 3.17404 24.3687 44
      vertex 4.01298 23.6133 44
    endloop
  endfacet
  facet normal -2.55676e-16 -1.85759e-16 1
    outer loop
      vertex 9 55 44
      vertex 4.01298 23.6133 44
      vertex 4.67654 22.7 44
    endloop
  endfacet
  facet normal 0 -0 1
    outer loop
      vertex 5.37042 19.4355 44
      vertex 5.1357 18.3313 44
      vertex 9 -7.32747e-15 44
    endloop
  endfacet
  facet normal -3.79881e-16 -1.69134e-16 1
    outer loop
      vertex 9 55 44
      vertex 4.67654 22.7 44
      vertex 5.1357 21.6687 44
    endloop
  endfacet
  facet normal -7.31961e-16 -1.2919e-16 1
    outer loop
      vertex 9 55 44
      vertex 5.37042 20.5645 44
      vertex 9 -7.32747e-15 44
    endloop
  endfacet
  facet normal -6.48952e-16 -1.37939e-16 1
    outer loop
      vertex 9 55 44
      vertex 5.1357 21.6687 44
      vertex 5.37042 20.5645 44
    endloop
  endfacet
  facet normal 0 -0 1
    outer loop
      vertex -3.17404 15.6313 44
      vertex -9 -7.32747e-15 44
      vertex -2.19638 15.0669 44
    endloop
  endfacet
  facet normal 0 -0 1
    outer loop
      vertex -4.01298 16.3867 44
      vertex -9 -7.32747e-15 44
      vertex -3.17404 15.6313 44
    endloop
  endfacet
  facet normal 0 -0 1
    outer loop
      vertex -4.67654 17.3 44
      vertex -9 -7.32747e-15 44
      vertex -4.01298 16.3867 44
    endloop
  endfacet
  facet normal 0 -0 1
    outer loop
      vertex -5.13571 18.3313 44
      vertex -9 -7.32747e-15 44
      vertex -4.67654 17.3 44
    endloop
  endfacet
  facet normal 0 -0 1
    outer loop
      vertex -5.37042 19.4355 44
      vertex -9 -7.32747e-15 44
      vertex -5.13571 18.3313 44
    endloop
  endfacet
  facet normal -2.6063e-17 -2.47973e-16 1
    outer loop
      vertex -3.90107e-15 25.4 44
      vertex 1.12272 25.282 44
      vertex -9 55 44
    endloop
  endfacet
  facet normal 0 -0 1
    outer loop
      vertex 5.1357 18.3313 44
      vertex 4.67654 17.3 44
      vertex 9 -7.32747e-15 44
    endloop
  endfacet
  facet normal 0 -1 -2.22045e-16
    outer loop
      vertex 9 -7.32747e-15 44
      vertex -9 -7.32747e-15 44
      vertex -9 7.32747e-15 -22
    endloop
  endfacet
  facet normal 0 -1 -2.22045e-16
    outer loop
      vertex 9 7.32747e-15 -22
      vertex 9 -7.32747e-15 44
      vertex -9 7.32747e-15 -22
    endloop
  endfacet
  facet normal 0 -0 -1
    outer loop
      vertex -1.75 48.8 -22
      vertex -9 55 -22
      vertex 9 55 -22
    endloop
  endfacet
  facet normal 4.93721e-16 2.58379e-16 -1
    outer loop
      vertex -9 7.32747e-15 -22
      vertex -9 55 -22
      vertex -5.37042 20.5645 -22
    endloop
  endfacet
  facet normal 1.95764e-15 0 -1
    outer loop
      vertex -9 7.32747e-15 -22
      vertex -5.37042 20.5645 -22
      vertex -5.37042 19.4355 -22
    endloop
  endfacet
  facet normal 9.15561e-16 1.94609e-16 -1
    outer loop
      vertex -9 7.32747e-15 -22
      vertex -5.37042 19.4355 -22
      vertex -5.1357 18.3313 -22
    endloop
  endfacet
  facet normal 5.90843e-16 2.6306e-16 -1
    outer loop
      vertex -9 7.32747e-15 -22
      vertex -5.1357 18.3313 -22
      vertex -4.67654 17.3 -22
    endloop
  endfacet
  facet normal 4.20622e-16 3.056e-16 -1
    outer loop
      vertex -9 7.32747e-15 -22
      vertex -4.67654 17.3 -22
      vertex -4.01298 16.3867 -22
    endloop
  endfacet
  facet normal 0 4.3361e-16 -1
    outer loop
      vertex -9 7.32747e-15 -22
      vertex -4.01298 16.3867 -22
      vertex 9 7.32747e-15 -22
    endloop
  endfacet
  facet normal 2.38434e-16 4.1298e-16 -1
    outer loop
      vertex -2.19638 15.0669 -22
      vertex 9 7.32747e-15 -22
      vertex -3.17404 15.6313 -22
    endloop
  endfacet
  facet normal 1.01002e-16 3.10853e-16 -1
    outer loop
      vertex -1.12272 14.718 -22
      vertex 9 7.32747e-15 -22
      vertex -2.19638 15.0669 -22
    endloop
  endfacet
  facet normal 0 1.50539e-16 -1
    outer loop
      vertex 2.25 46.3 -22
      vertex 4.67654 22.7 -22
      vertex -1.75 46.3 -22
    endloop
  endfacet
  facet normal 3.01747e-15 1.35193e-15 -1
    outer loop
      vertex 4.01298 16.3867 -22
      vertex 9 7.32747e-15 -22
      vertex 3.17404 15.6313 -22
    endloop
  endfacet
  facet normal 2.73476e-17 2.60195e-16 -1
    outer loop
      vertex -1.12272 14.718 -22
      vertex 7.80214e-15 14.6 -22
      vertex 9 7.32747e-15 -22
    endloop
  endfacet
  facet normal -1.20674e-16 2.09014e-16 -1
    outer loop
      vertex -3.17404 24.3687 -22
      vertex -9 55 -22
      vertex -2.19638 24.9331 -22
    endloop
  endfacet
  facet normal -2.40195e-17 2.2853e-16 -1
    outer loop
      vertex 7.80214e-15 14.6 -22
      vertex 1.12272 14.718 -22
      vertex 9 7.32747e-15 -22
    endloop
  endfacet
  facet normal -7.15265e-17 2.20136e-16 -1
    outer loop
      vertex -2.19638 24.9331 -22
      vertex -9 55 -22
      vertex -1.12272 25.282 -22
    endloop
  endfacet
  facet normal -6.68122e-17 2.05627e-16 -1
    outer loop
      vertex 1.12272 14.718 -22
      vertex 2.19638 15.0669 -22
      vertex 9 7.32747e-15 -22
    endloop
  endfacet
  facet normal -2.44488e-17 2.32614e-16 -1
    outer loop
      vertex -1.12272 25.282 -22
      vertex -9 55 -22
      vertex 7.80214e-15 25.4 -22
    endloop
  endfacet
  facet normal -1.07985e-16 1.87035e-16 -1
    outer loop
      vertex 2.19638 15.0669 -22
      vertex 3.17404 15.6313 -22
      vertex 9 7.32747e-15 -22
    endloop
  endfacet
  facet normal 1.95764e-15 0 -1
    outer loop
      vertex 5.37042 20.5645 -22
      vertex 9 55 -22
      vertex 5.37042 19.4355 -22
    endloop
  endfacet
  facet normal -4.20622e-16 3.056e-16 -1
    outer loop
      vertex 9 7.32747e-15 -22
      vertex 4.01298 16.3867 -22
      vertex 4.67654 17.3 -22
    endloop
  endfacet
  facet normal -5.90843e-16 2.6306e-16 -1
    outer loop
      vertex 9 7.32747e-15 -22
      vertex 4.67654 17.3 -22
      vertex 5.13571 18.3313 -22
    endloop
  endfacet
  facet normal -9.15561e-16 1.94609e-16 -1
    outer loop
      vertex 9 7.32747e-15 -22
      vertex 5.13571 18.3313 -22
      vertex 5.37042 19.4355 -22
    endloop
  endfacet
  facet normal -5.74085e-16 2.58379e-16 -1
    outer loop
      vertex 9 7.32747e-15 -22
      vertex 5.37042 19.4355 -22
      vertex 9 55 -22
    endloop
  endfacet
  facet normal 6.48952e-16 1.37939e-16 -1
    outer loop
      vertex 5.13571 21.6687 -22
      vertex 9 55 -22
      vertex 5.37042 20.5645 -22
    endloop
  endfacet
  facet normal 3.79881e-16 1.69134e-16 -1
    outer loop
      vertex 4.67654 22.7 -22
      vertex 9 55 -22
      vertex 5.13571 21.6687 -22
    endloop
  endfacet
  facet normal 7.25726e-16 5.27271e-16 -1
    outer loop
      vertex 4.01298 23.6133 -22
      vertex -9 55 -22
      vertex 4.67654 22.7 -22
    endloop
  endfacet
  facet normal 2.6063e-17 2.47973e-16 -1
    outer loop
      vertex 7.80214e-15 25.4 -22
      vertex -9 55 -22
      vertex 1.12272 25.282 -22
    endloop
  endfacet
  facet normal 3.25259e-16 3.61236e-16 -1
    outer loop
      vertex 3.17404 24.3687 -22
      vertex -9 55 -22
      vertex 4.01298 23.6133 -22
    endloop
  endfacet
  facet normal 1.73808e-16 3.01044e-16 -1
    outer loop
      vertex 2.19638 24.9331 -22
      vertex -9 55 -22
      vertex 3.17404 24.3687 -22
    endloop
  endfacet
  facet normal 8.73549e-17 2.6885e-16 -1
    outer loop
      vertex 1.12272 25.282 -22
      vertex -9 55 -22
      vertex 2.19638 24.9331 -22
    endloop
  endfacet
  facet normal -1.78325e-16 1.98049e-16 -1
    outer loop
      vertex -4.01298 23.6133 -22
      vertex -9 55 -22
      vertex -3.17404 24.3687 -22
    endloop
  endfacet
  facet normal -2.55676e-16 1.85759e-16 -1
    outer loop
      vertex -4.67654 22.7 -22
      vertex -9 55 -22
      vertex -4.01298 23.6133 -22
    endloop
  endfacet
  facet normal -3.79881e-16 1.69134e-16 -1
    outer loop
      vertex -5.1357 21.6687 -22
      vertex -9 55 -22
      vertex -4.67654 22.7 -22
    endloop
  endfacet
  facet normal -6.48952e-16 1.37939e-16 -1
    outer loop
      vertex -5.37042 20.5645 -22
      vertex -9 55 -22
      vertex -5.1357 21.6687 -22
    endloop
  endfacet
  facet normal 1.21527e-15 1.42109e-15 -1
    outer loop
      vertex -1.75 46.3 -22
      vertex -9 55 -22
      vertex -1.75 48.8 -22
    endloop
  endfacet
  facet normal 0 -0 -1
    outer loop
      vertex 2.25 48.8 -22
      vertex -1.75 48.8 -22
      vertex 9 55 -22
    endloop
  endfacet
  facet normal -4.59552e-16 2.53976e-17 -1
    outer loop
      vertex 4.67654 22.7 -22
      vertex -9 55 -22
      vertex -1.75 46.3 -22
    endloop
  endfacet
  facet normal 2.93416e-16 1.80708e-16 -1
    outer loop
      vertex 4.67654 22.7 -22
      vertex 2.25 46.3 -22
      vertex 9 55 -22
    endloop
  endfacet
  facet normal -1.30529e-15 1.42109e-15 -1
    outer loop
      vertex 2.25 46.3 -22
      vertex 2.25 48.8 -22
      vertex 9 55 -22
    endloop
  endfacet
  facet normal -1.34902e-14 -1.02792e-14 -1
    outer loop
      vertex -3.17404 15.6313 -22
      vertex 9 7.32747e-15 -22
      vertex -4.01298 16.3867 -22
    endloop
  endfacet
  facet normal -1.01547e-31 1 1.02898e-15
    outer loop
      vertex -9 55 -15.0947
      vertex 9 55 -15.0947
      vertex -9 55 -22
    endloop
  endfacet
  facet normal 0 1 1.02898e-15
    outer loop
      vertex -9 55 -22
      vertex 9 55 -15.0947
      vertex 9 55 -22
    endloop
  endfacet
  facet normal -9.86865e-17 0 1
    outer loop
      vertex -9 54.0654 -15.0947
      vertex 9 54.0654 -15.0947
      vertex 9 55 -15.0947
    endloop
  endfacet
  facet normal -9.86865e-17 0 1
    outer loop
      vertex -9 55 -15.0947
      vertex -9 54.0654 -15.0947
      vertex 9 55 -15.0947
    endloop
  endfacet
  facet normal -2.60293e-16 0.433884 0.900969
    outer loop
      vertex 9 52.3813 -14.2837
      vertex 9 54.0654 -15.0947
      vertex -9 54.0654 -15.0947
    endloop
  endfacet
  facet normal -2.60187e-16 0.433884 0.900969
    outer loop
      vertex -9 52.3813 -14.2837
      vertex 9 52.3813 -14.2837
      vertex -9 54.0654 -15.0947
    endloop
  endfacet
  facet normal -3.70155e-16 0.781831 0.62349
    outer loop
      vertex 9 52.3813 -14.2837
      vertex -9 52.3813 -14.2837
      vertex 9 51.2159 -12.8223
    endloop
  endfacet
  facet normal -0 0.781831 0.62349
    outer loop
      vertex 9 51.2159 -12.8223
      vertex -9 52.3813 -14.2837
      vertex -9 51.2159 -12.8223
    endloop
  endfacet
  facet normal -0 0.974928 0.222521
    outer loop
      vertex 9 51.2159 -12.8223
      vertex -9 51.2159 -12.8223
      vertex 9 50.8 -11
    endloop
  endfacet
  facet normal -2.19598e-17 0.974928 0.222521
    outer loop
      vertex 9 50.8 -11
      vertex -9 51.2159 -12.8223
      vertex -9 50.8 -11
    endloop
  endfacet
  facet normal 2.19598e-17 0.974928 -0.222521
    outer loop
      vertex 9 50.8 -11
      vertex -9 50.8 -11
      vertex 9 51.2159 -9.17769
    endloop
  endfacet
  facet normal 2.19598e-17 0.974928 -0.222521
    outer loop
      vertex 9 51.2159 -9.17769
      vertex -9 50.8 -11
      vertex -9 51.2159 -9.17769
    endloop
  endfacet
  facet normal 6.153e-17 0.781831 -0.62349
    outer loop
      vertex 9 51.2159 -9.17769
      vertex -9 51.2159 -9.17769
      vertex 9 52.3813 -7.71631
    endloop
  endfacet
  facet normal -2.7786e-16 0.781831 -0.62349
    outer loop
      vertex 9 52.3813 -7.71631
      vertex -9 51.2159 -9.17769
      vertex -9 52.3813 -7.71631
    endloop
  endfacet
  facet normal -1.26817e-16 0.433884 -0.900969
    outer loop
      vertex 9 52.3813 -7.71631
      vertex -9 52.3813 -7.71631
      vertex 9 54.0654 -6.9053
    endloop
  endfacet
  facet normal 4.44567e-17 0.433884 -0.900969
    outer loop
      vertex 9 54.0654 -6.9053
      vertex -9 52.3813 -7.71631
      vertex -9 54.0654 -6.9053
    endloop
  endfacet
  facet normal 4.93432e-17 9.50342e-16 -1
    outer loop
      vertex 9 54.0654 -6.9053
      vertex -9 54.0654 -6.9053
      vertex 9 55 -6.9053
    endloop
  endfacet
  facet normal 9.86865e-17 0 -1
    outer loop
      vertex 9 55 -6.9053
      vertex -9 54.0654 -6.9053
      vertex -9 55 -6.9053
    endloop
  endfacet
  facet normal 9.49774e-16 1 2.79163e-16
    outer loop
      vertex 5.082 55 31.8773
      vertex 9 55 44
      vertex 9 55 -6.9053
    endloop
  endfacet
  facet normal 0 1 -0
    outer loop
      vertex 2 55 0.75
      vertex 9 55 -6.9053
      vertex -2 55 0.75
    endloop
  endfacet
  facet normal -1.55953e-15 1 1.63913e-16
    outer loop
      vertex -9 55 44
      vertex -5.482 55 34.1227
      vertex -5.6 55 33
    endloop
  endfacet
  facet normal -1.18666e-15 1 2.79163e-16
    outer loop
      vertex -9 55 44
      vertex -5.6 55 33
      vertex -9 55 -6.9053
    endloop
  endfacet
  facet normal 2.02315e-16 1 9.51816e-16
    outer loop
      vertex 0.364454 55 38.3704
      vertex 9 55 44
      vertex 1.46869 55 38.1357
    endloop
  endfacet
  facet normal -3.5698e-16 1 3.21426e-16
    outer loop
      vertex 4.16869 55 29.826
      vertex -9 55 -6.9053
      vertex 3.41331 55 28.987
    endloop
  endfacet
  facet normal 4.40804e-16 1 1.43226e-16
    outer loop
      vertex -5.482 55 31.8773
      vertex -5.13314 55 30.8036
      vertex -9 55 -6.9053
    endloop
  endfacet
  facet normal 3.43212e-16 1 7.70867e-16
    outer loop
      vertex 1.46869 55 38.1357
      vertex 9 55 44
      vertex 2.5 55 37.6765
    endloop
  endfacet
  facet normal 2.77143e-16 1 1.60009e-16
    outer loop
      vertex -5.13314 55 30.8036
      vertex -4.56869 55 29.826
      vertex -9 55 -6.9053
    endloop
  endfacet
  facet normal 1.89456e-16 1 1.70587e-16
    outer loop
      vertex -4.56869 55 29.826
      vertex -3.8133 55 28.987
      vertex -9 55 -6.9053
    endloop
  endfacet
  facet normal 4.67355e-16 1 6.43259e-16
    outer loop
      vertex 2.5 55 37.6765
      vertex 9 55 44
      vertex 3.41331 55 37.013
    endloop
  endfacet
  facet normal 1.30164e-16 1 1.79155e-16
    outer loop
      vertex -3.8133 55 28.987
      vertex -2.9 55 28.3235
      vertex -9 55 -6.9053
    endloop
  endfacet
  facet normal 8.33725e-17 1 1.87258e-16
    outer loop
      vertex -2.9 55 28.3235
      vertex -1.86869 55 27.8643
      vertex -9 55 -6.9053
    endloop
  endfacet
  facet normal 5.98209e-16 1 5.3863e-16
    outer loop
      vertex 3.41331 55 37.013
      vertex 9 55 44
      vertex 4.16869 55 36.174
    endloop
  endfacet
  facet normal 4.16229e-17 1 1.95821e-16
    outer loop
      vertex -1.86869 55 27.8643
      vertex -0.764454 55 27.6296
      vertex -9 55 -6.9053
    endloop
  endfacet
  facet normal 0 1 2.05746e-16
    outer loop
      vertex -0.764454 55 27.6296
      vertex 0.364454 55 27.6296
      vertex -9 55 -6.9053
    endloop
  endfacet
  facet normal 7.59969e-16 1 4.38768e-16
    outer loop
      vertex 4.16869 55 36.174
      vertex 9 55 44
      vertex 4.73315 55 35.1964
    endloop
  endfacet
  facet normal -4.64075e-17 1 2.1833e-16
    outer loop
      vertex 0.364454 55 27.6296
      vertex 1.46869 55 27.8643
      vertex -9 55 -6.9053
    endloop
  endfacet
  facet normal -1.05071e-16 1 2.35993e-16
    outer loop
      vertex 1.46869 55 27.8643
      vertex 2.5 55 28.3235
      vertex -9 55 -6.9053
    endloop
  endfacet
  facet normal 9.96927e-16 1 3.23922e-16
    outer loop
      vertex 4.73315 55 35.1964
      vertex 9 55 44
      vertex 5.082 55 34.1227
    endloop
  endfacet
  facet normal -1.921e-16 1 2.64402e-16
    outer loop
      vertex 2.5 55 28.3235
      vertex 3.41331 55 28.987
      vertex -9 55 -6.9053
    endloop
  endfacet
  facet normal 1.43366e-15 1 1.50684e-16
    outer loop
      vertex 5.082 55 34.1227
      vertex 9 55 44
      vertex 5.2 55 33
    endloop
  endfacet
  facet normal 2.47096e-16 1 2.25944e-16
    outer loop
      vertex 2 55 0.75
      vertex 4.16869 55 29.826
      vertex 9 55 -6.9053
    endloop
  endfacet
  facet normal -2.72886e-16 1 1.57551e-16
    outer loop
      vertex 4.16869 55 29.826
      vertex 4.73315 55 30.8036
      vertex 9 55 -6.9053
    endloop
  endfacet
  facet normal -4.3013e-16 1 1.39758e-16
    outer loop
      vertex 4.73315 55 30.8036
      vertex 5.082 55 31.8773
      vertex 9 55 -6.9053
    endloop
  endfacet
  facet normal 2.68753e-15 1 -2.82471e-16
    outer loop
      vertex 5.2 55 33
      vertex 9 55 44
      vertex 5.082 55 31.8773
    endloop
  endfacet
  facet normal 0 1 1.26216e-15
    outer loop
      vertex -9 55 44
      vertex 9 55 44
      vertex 0.364454 55 38.3704
    endloop
  endfacet
  facet normal 2.29208e-31 1 1.26216e-15
    outer loop
      vertex -9 55 44
      vertex 0.364454 55 38.3704
      vertex -0.764454 55 38.3704
    endloop
  endfacet
  facet normal -2.04646e-16 1 9.62782e-16
    outer loop
      vertex -9 55 44
      vertex -0.764454 55 38.3704
      vertex -1.86869 55 38.1357
    endloop
  endfacet
  facet normal -3.49974e-16 1 7.86054e-16
    outer loop
      vertex -9 55 44
      vertex -1.86869 55 38.1357
      vertex -2.9 55 37.6765
    endloop
  endfacet
  facet normal -4.79983e-16 1 6.6064e-16
    outer loop
      vertex -9 55 44
      vertex -2.9 55 37.6765
      vertex -3.8133 55 37.013
    endloop
  endfacet
  facet normal -6.19056e-16 1 5.57401e-16
    outer loop
      vertex -9 55 44
      vertex -3.8133 55 37.013
      vertex -4.56869 55 36.174
    endloop
  endfacet
  facet normal -7.93936e-16 1 4.58379e-16
    outer loop
      vertex -9 55 44
      vertex -4.56869 55 36.174
      vertex -5.13314 55 35.1964
    endloop
  endfacet
  facet normal -1.0562e-15 1 3.43182e-16
    outer loop
      vertex -9 55 44
      vertex -5.13314 55 35.1964
      vertex -5.482 55 34.1227
    endloop
  endfacet
  facet normal -5.8481e-16 1 4.03106e-16
    outer loop
      vertex -9 55 -6.9053
      vertex 4.16869 55 29.826
      vertex -2 55 3.25
    endloop
  endfacet
  facet normal 0 1 0
    outer loop
      vertex -9 55 -6.9053
      vertex -2 55 3.25
      vertex -2 55 0.75
    endloop
  endfacet
  facet normal 0 1 0
    outer loop
      vertex -9 55 -6.9053
      vertex -2 55 0.75
      vertex 9 55 -6.9053
    endloop
  endfacet
  facet normal 3.27637e-15 1 -0
    outer loop
      vertex 2 55 3.25
      vertex 4.16869 55 29.826
      vertex 2 55 0.75
    endloop
  endfacet
  facet normal 0 1 2.67363e-16
    outer loop
      vertex -2 55 3.25
      vertex 4.16869 55 29.826
      vertex 2 55 3.25
    endloop
  endfacet
  facet normal 9.35636e-16 1 9.83394e-17
    outer loop
      vertex -5.482 55 31.8773
      vertex -9 55 -6.9053
      vertex -5.6 55 33
    endloop
  endfacet
  facet normal 4.1036e-17 -0.207911 -0.978148
    outer loop
      vertex 9 11.3597 15.1846
      vertex 9 10.4599 15.3759
      vertex -9 11.3597 15.1846
    endloop
  endfacet
  facet normal 4.09487e-17 -0.207911 -0.978148
    outer loop
      vertex -9 11.3597 15.1846
      vertex 9 10.4599 15.3759
      vertex -9 10.4599 15.3759
    endloop
  endfacet
  facet normal 0 0 -1
    outer loop
      vertex 9 10.4599 15.3759
      vertex 9 9.54008 15.3759
      vertex -9 10.4599 15.3759
    endloop
  endfacet
  facet normal 0 0 -1
    outer loop
      vertex -9 10.4599 15.3759
      vertex 9 9.54008 15.3759
      vertex -9 9.54007 15.3759
    endloop
  endfacet
  facet normal 8.02789e-17 -0.406737 -0.913545
    outer loop
      vertex 9 12.2 14.8105
      vertex 9 11.3597 15.1846
      vertex -9 12.2 14.8105
    endloop
  endfacet
  facet normal 8.18415e-17 -0.406737 -0.913545
    outer loop
      vertex -9 12.2 14.8105
      vertex 9 11.3597 15.1846
      vertex -9 11.3597 15.1846
    endloop
  endfacet
  facet normal 1.16013e-16 -0.587785 -0.809017
    outer loop
      vertex 9 12.9442 14.2698
      vertex 9 12.2 14.8105
      vertex -9 12.9442 14.2698
    endloop
  endfacet
  facet normal 1.19512e-16 -0.587785 -0.809017
    outer loop
      vertex -9 12.9442 14.2698
      vertex 9 12.2 14.8105
      vertex -9 12.2 14.8105
    endloop
  endfacet
  facet normal 1.46677e-16 -0.743145 -0.669131
    outer loop
      vertex -9 13.5597 13.5863
      vertex 9 13.5597 13.5863
      vertex 9 12.9442 14.2698
    endloop
  endfacet
  facet normal 1.46677e-16 -0.743145 -0.669131
    outer loop
      vertex -9 12.9442 14.2698
      vertex -9 13.5597 13.5863
      vertex 9 12.9442 14.2698
    endloop
  endfacet
  facet normal 1.7093e-16 -0.866026 -0.5
    outer loop
      vertex -9 14.0196 12.7896
      vertex 9 14.0196 12.7896
      vertex 9 13.5597 13.5863
    endloop
  endfacet
  facet normal 1.7093e-16 -0.866026 -0.5
    outer loop
      vertex -9 13.5597 13.5863
      vertex -9 14.0196 12.7896
      vertex 9 13.5597 13.5863
    endloop
  endfacet
  facet normal 1.87713e-16 -0.951057 -0.309017
    outer loop
      vertex -9 14.3038 11.9148
      vertex 9 14.3038 11.9148
      vertex 9 14.0196 12.7896
    endloop
  endfacet
  facet normal 1.87713e-16 -0.951057 -0.309017
    outer loop
      vertex -9 14.0196 12.7896
      vertex -9 14.3038 11.9148
      vertex 9 14.0196 12.7896
    endloop
  endfacet
  facet normal 2.94438e-16 -0.994522 -0.104529
    outer loop
      vertex -9 14.4 11
      vertex 9 14.4 11
      vertex 9 14.3038 11.9148
    endloop
  endfacet
  facet normal 1.96292e-16 -0.994522 -0.104529
    outer loop
      vertex -9 14.3038 11.9148
      vertex -9 14.4 11
      vertex 9 14.3038 11.9148
    endloop
  endfacet
  facet normal 1.96292e-16 -0.994522 0.104529
    outer loop
      vertex -9 14.3038 10.0852
      vertex 9 14.3038 10.0852
      vertex 9 14.4 11
    endloop
  endfacet
  facet normal 2.94438e-16 -0.994522 0.104529
    outer loop
      vertex -9 14.4 11
      vertex -9 14.3038 10.0852
      vertex 9 14.4 11
    endloop
  endfacet
  facet normal 2.81569e-16 -0.951057 0.309017
    outer loop
      vertex -9 14.0196 9.21036
      vertex 9 14.0196 9.21036
      vertex 9 14.3038 10.0852
    endloop
  endfacet
  facet normal 1.87713e-16 -0.951057 0.309017
    outer loop
      vertex -9 14.3038 10.0852
      vertex -9 14.0196 9.21036
      vertex 9 14.3038 10.0852
    endloop
  endfacet
  facet normal 1.7093e-16 -0.866026 0.5
    outer loop
      vertex -9 13.5597 8.41375
      vertex 9 13.5597 8.41375
      vertex 9 14.0196 9.21036
    endloop
  endfacet
  facet normal 2.56395e-16 -0.866026 0.5
    outer loop
      vertex -9 14.0196 9.21036
      vertex -9 13.5597 8.41375
      vertex 9 14.0196 9.21036
    endloop
  endfacet
  facet normal 2.20015e-16 -0.743145 0.669131
    outer loop
      vertex -9 12.9442 7.73016
      vertex 9 12.9442 7.73016
      vertex 9 13.5597 8.41375
    endloop
  endfacet
  facet normal 1.46677e-16 -0.743145 0.669131
    outer loop
      vertex -9 13.5597 8.41375
      vertex -9 12.9442 7.73016
      vertex 9 13.5597 8.41375
    endloop
  endfacet
  facet normal 1.74019e-16 -0.587785 0.809017
    outer loop
      vertex -9 12.2 7.18949
      vertex 9 12.2 7.18949
      vertex 9 12.9442 7.73016
    endloop
  endfacet
  facet normal 1.74019e-16 -0.587785 0.809017
    outer loop
      vertex -9 12.9442 7.73016
      vertex -9 12.2 7.18949
      vertex 9 12.9442 7.73016
    endloop
  endfacet
  facet normal 8.02789e-17 -0.406737 0.913545
    outer loop
      vertex -9 11.3597 6.81535
      vertex 9 11.3597 6.81535
      vertex 9 12.2 7.18949
    endloop
  endfacet
  facet normal 1.20418e-16 -0.406737 0.913545
    outer loop
      vertex -9 12.2 7.18949
      vertex -9 11.3597 6.81535
      vertex 9 12.2 7.18949
    endloop
  endfacet
  facet normal 4.1036e-17 -0.207911 0.978148
    outer loop
      vertex -9 10.4599 6.6241
      vertex 9 10.4599 6.6241
      vertex 9 11.3597 6.81535
    endloop
  endfacet
  facet normal 4.1036e-17 -0.207911 0.978148
    outer loop
      vertex -9 11.3597 6.81535
      vertex -9 10.4599 6.6241
      vertex 9 11.3597 6.81535
    endloop
  endfacet
  facet normal 0 0 1
    outer loop
      vertex 9 9.54008 6.6241
      vertex 9 10.4599 6.6241
      vertex -9 10.4599 6.6241
    endloop
  endfacet
  facet normal 0 0 1
    outer loop
      vertex -9 9.54007 6.6241
      vertex 9 9.54008 6.6241
      vertex -9 10.4599 6.6241
    endloop
  endfacet
  facet normal -5.99541e-17 0.207911 0.978148
    outer loop
      vertex 9 8.64033 6.81535
      vertex 9 9.54008 6.6241
      vertex -9 9.54007 6.6241
    endloop
  endfacet
  facet normal -4.1036e-17 0.207911 0.978148
    outer loop
      vertex -9 8.64033 6.81535
      vertex 9 8.64033 6.81535
      vertex -9 9.54007 6.6241
    endloop
  endfacet
  facet normal -7.91667e-17 0.406737 0.913545
    outer loop
      vertex 9 7.8 7.18949
      vertex 9 8.64033 6.81535
      vertex -9 8.64033 6.81535
    endloop
  endfacet
  facet normal -1.00349e-16 0.406737 0.913545
    outer loop
      vertex -9 7.8 7.18949
      vertex 9 7.8 7.18949
      vertex -9 8.64033 6.81535
    endloop
  endfacet
  facet normal -1.45019e-16 0.587785 0.809017
    outer loop
      vertex 9 7.05583 7.73016
      vertex 9 7.8 7.18949
      vertex -9 7.8 7.18949
    endloop
  endfacet
  facet normal -1.45016e-16 0.587785 0.809017
    outer loop
      vertex -9 7.05583 7.73016
      vertex 9 7.05583 7.73016
      vertex -9 7.8 7.18949
    endloop
  endfacet
  facet normal -1.83346e-16 0.743145 0.669131
    outer loop
      vertex 9 7.05583 7.73016
      vertex -9 7.05583 7.73016
      vertex 9 6.44033 8.41375
    endloop
  endfacet
  facet normal -1.83346e-16 0.743145 0.669131
    outer loop
      vertex 9 6.44033 8.41375
      vertex -9 7.05583 7.73016
      vertex -9 6.44033 8.41375
    endloop
  endfacet
  facet normal -2.13663e-16 0.866026 0.5
    outer loop
      vertex 9 6.44033 8.41375
      vertex -9 6.44033 8.41375
      vertex 9 5.9804 9.21036
    endloop
  endfacet
  facet normal -2.13663e-16 0.866026 0.5
    outer loop
      vertex 9 5.9804 9.21036
      vertex -9 6.44033 8.41375
      vertex -9 5.9804 9.21036
    endloop
  endfacet
  facet normal -2.34641e-16 0.951057 0.309017
    outer loop
      vertex 9 5.9804 9.21036
      vertex -9 5.9804 9.21036
      vertex 9 5.69615 10.0852
    endloop
  endfacet
  facet normal -2.34641e-16 0.951057 0.309017
    outer loop
      vertex 9 5.69615 10.0852
      vertex -9 5.9804 9.21036
      vertex -9 5.69615 10.0852
    endloop
  endfacet
  facet normal -2.45365e-16 0.994522 0.104529
    outer loop
      vertex 9 5.69615 10.0852
      vertex -9 5.69615 10.0852
      vertex 9 5.6 11
    endloop
  endfacet
  facet normal -1.96292e-16 0.994522 0.104529
    outer loop
      vertex 9 5.6 11
      vertex -9 5.69615 10.0852
      vertex -9 5.6 11
    endloop
  endfacet
  facet normal -1.96292e-16 0.994522 -0.104529
    outer loop
      vertex 9 5.6 11
      vertex -9 5.6 11
      vertex 9 5.69615 11.9148
    endloop
  endfacet
  facet normal -1.96292e-16 0.994522 -0.104529
    outer loop
      vertex 9 5.69615 11.9148
      vertex -9 5.6 11
      vertex -9 5.69615 11.9148
    endloop
  endfacet
  facet normal -1.87713e-16 0.951057 -0.309017
    outer loop
      vertex 9 5.69615 11.9148
      vertex -9 5.69615 11.9148
      vertex 9 5.9804 12.7896
    endloop
  endfacet
  facet normal -1.87713e-16 0.951057 -0.309017
    outer loop
      vertex 9 5.9804 12.7896
      vertex -9 5.69615 11.9148
      vertex -9 5.9804 12.7896
    endloop
  endfacet
  facet normal -1.7093e-16 0.866026 -0.5
    outer loop
      vertex 9 5.9804 12.7896
      vertex -9 5.9804 12.7896
      vertex 9 6.44033 13.5863
    endloop
  endfacet
  facet normal -1.7093e-16 0.866026 -0.5
    outer loop
      vertex 9 6.44033 13.5863
      vertex -9 5.9804 12.7896
      vertex -9 6.44032 13.5863
    endloop
  endfacet
  facet normal -1.46677e-16 0.743145 -0.669131
    outer loop
      vertex 9 6.44033 13.5863
      vertex -9 6.44032 13.5863
      vertex 9 7.05583 14.2698
    endloop
  endfacet
  facet normal -1.46677e-16 0.743145 -0.669131
    outer loop
      vertex 9 7.05583 14.2698
      vertex -9 6.44032 13.5863
      vertex -9 7.05582 14.2698
    endloop
  endfacet
  facet normal -1.16013e-16 0.587785 -0.809017
    outer loop
      vertex 9 7.05583 14.2698
      vertex -9 7.05582 14.2698
      vertex 9 7.8 14.8105
    endloop
  endfacet
  facet normal -1.16013e-16 0.587785 -0.809017
    outer loop
      vertex 9 7.8 14.8105
      vertex -9 7.05582 14.2698
      vertex -9 7.8 14.8105
    endloop
  endfacet
  facet normal -8.02789e-17 0.406737 -0.913545
    outer loop
      vertex 9 7.8 14.8105
      vertex -9 7.8 14.8105
      vertex 9 8.64033 15.1846
    endloop
  endfacet
  facet normal -8.02789e-17 0.406737 -0.913545
    outer loop
      vertex 9 8.64033 15.1846
      vertex -9 7.8 14.8105
      vertex -9 8.64032 15.1846
    endloop
  endfacet
  facet normal -4.1036e-17 0.207911 -0.978148
    outer loop
      vertex 9 8.64033 15.1846
      vertex -9 8.64032 15.1846
      vertex 9 9.54008 15.3759
    endloop
  endfacet
  facet normal -6.1554e-17 0.207911 -0.978148
    outer loop
      vertex 9 9.54008 15.3759
      vertex -9 8.64032 15.1846
      vertex -9 9.54007 15.3759
    endloop
  endfacet
  facet normal 4.1036e-17 -0.207911 -0.978148
    outer loop
      vertex 9 31.3597 15.1846
      vertex 9 30.4599 15.3759
      vertex -9 31.3597 15.1846
    endloop
  endfacet
  facet normal 4.09487e-17 -0.207911 -0.978148
    outer loop
      vertex -9 31.3597 15.1846
      vertex 9 30.4599 15.3759
      vertex -9 30.4599 15.3759
    endloop
  endfacet
  facet normal 0 0 -1
    outer loop
      vertex 9 30.4599 15.3759
      vertex 9 29.5401 15.3759
      vertex -9 30.4599 15.3759
    endloop
  endfacet
  facet normal 0 0 -1
    outer loop
      vertex -9 30.4599 15.3759
      vertex 9 29.5401 15.3759
      vertex -9 29.5401 15.3759
    endloop
  endfacet
  facet normal 1.60558e-16 -0.406737 -0.913545
    outer loop
      vertex 9 32.2 14.8105
      vertex 9 31.3597 15.1846
      vertex -9 32.2 14.8105
    endloop
  endfacet
  facet normal 7.84934e-17 -0.406737 -0.913545
    outer loop
      vertex -9 32.2 14.8105
      vertex 9 31.3597 15.1846
      vertex -9 31.3597 15.1846
    endloop
  endfacet
  facet normal 2.32026e-16 -0.587785 -0.809017
    outer loop
      vertex 9 32.9442 14.2698
      vertex 9 32.2 14.8105
      vertex -9 32.9442 14.2698
    endloop
  endfacet
  facet normal 2.34355e-16 -0.587785 -0.809017
    outer loop
      vertex -9 32.9442 14.2698
      vertex 9 32.2 14.8105
      vertex -9 32.2 14.8105
    endloop
  endfacet
  facet normal -0 -0.743145 -0.669131
    outer loop
      vertex -9 33.5597 13.5863
      vertex 9 33.5597 13.5863
      vertex 9 32.9442 14.2698
    endloop
  endfacet
  facet normal 2.93353e-16 -0.743145 -0.669131
    outer loop
      vertex -9 32.9442 14.2698
      vertex -9 33.5597 13.5863
      vertex 9 32.9442 14.2698
    endloop
  endfacet
  facet normal -0 -0.866026 -0.5
    outer loop
      vertex -9 34.0196 12.7896
      vertex 9 34.0196 12.7896
      vertex 9 33.5597 13.5863
    endloop
  endfacet
  facet normal -0 -0.866026 -0.5
    outer loop
      vertex -9 33.5597 13.5863
      vertex -9 34.0196 12.7896
      vertex 9 33.5597 13.5863
    endloop
  endfacet
  facet normal -0 -0.951057 -0.309017
    outer loop
      vertex -9 34.3038 11.9148
      vertex 9 34.3038 11.9148
      vertex 9 34.0196 12.7896
    endloop
  endfacet
  facet normal -0 -0.951057 -0.309017
    outer loop
      vertex -9 34.0196 12.7896
      vertex -9 34.3038 11.9148
      vertex 9 34.0196 12.7896
    endloop
  endfacet
  facet normal -0 -0.994522 -0.104529
    outer loop
      vertex -9 34.4 11
      vertex 9 34.4 11
      vertex 9 34.3038 11.9148
    endloop
  endfacet
  facet normal -0 -0.994522 -0.104529
    outer loop
      vertex -9 34.3038 11.9148
      vertex -9 34.4 11
      vertex 9 34.3038 11.9148
    endloop
  endfacet
  facet normal 0 -0.994522 0.104529
    outer loop
      vertex -9 34.3038 10.0852
      vertex 9 34.3038 10.0852
      vertex 9 34.4 11
    endloop
  endfacet
  facet normal 0 -0.994522 0.104529
    outer loop
      vertex -9 34.4 11
      vertex -9 34.3038 10.0852
      vertex 9 34.4 11
    endloop
  endfacet
  facet normal 3.75426e-16 -0.951057 0.309017
    outer loop
      vertex -9 34.0196 9.21036
      vertex 9 34.0196 9.21036
      vertex 9 34.3038 10.0852
    endloop
  endfacet
  facet normal 0 -0.951057 0.309017
    outer loop
      vertex -9 34.3038 10.0852
      vertex -9 34.0196 9.21036
      vertex 9 34.3038 10.0852
    endloop
  endfacet
  facet normal 0 -0.866026 0.5
    outer loop
      vertex -9 33.5597 8.41375
      vertex 9 33.5597 8.41375
      vertex 9 34.0196 9.21036
    endloop
  endfacet
  facet normal 3.4186e-16 -0.866026 0.5
    outer loop
      vertex -9 34.0196 9.21036
      vertex -9 33.5597 8.41375
      vertex 9 34.0196 9.21036
    endloop
  endfacet
  facet normal 2.93353e-16 -0.743145 0.669131
    outer loop
      vertex -9 32.9442 7.73016
      vertex 9 32.9442 7.73016
      vertex 9 33.5597 8.41375
    endloop
  endfacet
  facet normal 0 -0.743145 0.669131
    outer loop
      vertex -9 33.5597 8.41375
      vertex -9 32.9442 7.73016
      vertex 9 33.5597 8.41375
    endloop
  endfacet
  facet normal 2.32026e-16 -0.587785 0.809017
    outer loop
      vertex -9 32.2 7.18949
      vertex 9 32.2 7.18949
      vertex 9 32.9442 7.73016
    endloop
  endfacet
  facet normal 2.32026e-16 -0.587785 0.809017
    outer loop
      vertex -9 32.9442 7.73016
      vertex -9 32.2 7.18949
      vertex 9 32.9442 7.73016
    endloop
  endfacet
  facet normal 8.02789e-17 -0.406737 0.913545
    outer loop
      vertex -9 31.3597 6.81535
      vertex 9 31.3597 6.81535
      vertex 9 32.2 7.18949
    endloop
  endfacet
  facet normal 1.60558e-16 -0.406737 0.913545
    outer loop
      vertex -9 32.2 7.18949
      vertex -9 31.3597 6.81535
      vertex 9 32.2 7.18949
    endloop
  endfacet
  facet normal 4.1036e-17 -0.207911 0.978148
    outer loop
      vertex -9 30.4599 6.6241
      vertex 9 30.4599 6.6241
      vertex 9 31.3597 6.81535
    endloop
  endfacet
  facet normal 4.1036e-17 -0.207911 0.978148
    outer loop
      vertex -9 31.3597 6.81535
      vertex -9 30.4599 6.6241
      vertex 9 31.3597 6.81535
    endloop
  endfacet
  facet normal 0 0 1
    outer loop
      vertex 9 29.5401 6.6241
      vertex 9 30.4599 6.6241
      vertex -9 30.4599 6.6241
    endloop
  endfacet
  facet normal 0 0 1
    outer loop
      vertex -9 29.5401 6.6241
      vertex 9 29.5401 6.6241
      vertex -9 30.4599 6.6241
    endloop
  endfacet
  facet normal -8.15939e-17 0.207911 0.978148
    outer loop
      vertex 9 28.6403 6.81535
      vertex 9 29.5401 6.6241
      vertex -9 29.5401 6.6241
    endloop
  endfacet
  facet normal -4.1036e-17 0.207911 0.978148
    outer loop
      vertex -9 28.6403 6.81535
      vertex 9 28.6403 6.81535
      vertex -9 29.5401 6.6241
    endloop
  endfacet
  facet normal -8.2749e-17 0.406737 0.913545
    outer loop
      vertex 9 27.8 7.18949
      vertex 9 28.6403 6.81535
      vertex -9 28.6403 6.81535
    endloop
  endfacet
  facet normal -8.02789e-17 0.406737 0.913545
    outer loop
      vertex -9 27.8 7.18949
      vertex 9 27.8 7.18949
      vertex -9 28.6403 6.81535
    endloop
  endfacet
  facet normal -1.14695e-16 0.587785 0.809017
    outer loop
      vertex 9 27.0558 7.73016
      vertex 9 27.8 7.18949
      vertex -9 27.8 7.18949
    endloop
  endfacet
  facet normal -1.16013e-16 0.587785 0.809017
    outer loop
      vertex -9 27.0558 7.73016
      vertex 9 27.0558 7.73016
      vertex -9 27.8 7.18949
    endloop
  endfacet
  facet normal -1.46677e-16 0.743145 0.669131
    outer loop
      vertex 9 27.0558 7.73016
      vertex -9 27.0558 7.73016
      vertex 9 26.4403 8.41375
    endloop
  endfacet
  facet normal -2.93353e-16 0.743145 0.669131
    outer loop
      vertex 9 26.4403 8.41375
      vertex -9 27.0558 7.73016
      vertex -9 26.4403 8.41375
    endloop
  endfacet
  facet normal -3.4186e-16 0.866026 0.5
    outer loop
      vertex 9 26.4403 8.41375
      vertex -9 26.4403 8.41375
      vertex 9 25.9804 9.21036
    endloop
  endfacet
  facet normal -1.7093e-16 0.866026 0.5
    outer loop
      vertex 9 25.9804 9.21036
      vertex -9 26.4403 8.41375
      vertex -9 25.9804 9.21036
    endloop
  endfacet
  facet normal -1.87713e-16 0.951057 0.309017
    outer loop
      vertex 9 25.9804 9.21036
      vertex -9 25.9804 9.21036
      vertex 9 25.6962 10.0852
    endloop
  endfacet
  facet normal -1.87713e-16 0.951057 0.309017
    outer loop
      vertex 9 25.6962 10.0852
      vertex -9 25.9804 9.21036
      vertex -9 25.6962 10.0852
    endloop
  endfacet
  facet normal -1.96292e-16 0.994522 0.104529
    outer loop
      vertex 9 25.6962 10.0852
      vertex -9 25.6962 10.0852
      vertex 9 25.6 11
    endloop
  endfacet
  facet normal -1.96292e-16 0.994522 0.104529
    outer loop
      vertex 9 25.6 11
      vertex -9 25.6962 10.0852
      vertex -9 25.6 11
    endloop
  endfacet
  facet normal -1.96292e-16 0.994522 -0.104529
    outer loop
      vertex 9 25.6 11
      vertex -9 25.6 11
      vertex 9 25.6962 11.9148
    endloop
  endfacet
  facet normal -1.96292e-16 0.994522 -0.104529
    outer loop
      vertex 9 25.6962 11.9148
      vertex -9 25.6 11
      vertex -9 25.6962 11.9148
    endloop
  endfacet
  facet normal -1.87713e-16 0.951057 -0.309017
    outer loop
      vertex 9 25.6962 11.9148
      vertex -9 25.6962 11.9148
      vertex 9 25.9804 12.7896
    endloop
  endfacet
  facet normal -1.87713e-16 0.951057 -0.309017
    outer loop
      vertex 9 25.9804 12.7896
      vertex -9 25.6962 11.9148
      vertex -9 25.9804 12.7896
    endloop
  endfacet
  facet normal -1.7093e-16 0.866026 -0.5
    outer loop
      vertex 9 25.9804 12.7896
      vertex -9 25.9804 12.7896
      vertex 9 26.4403 13.5863
    endloop
  endfacet
  facet normal -1.7093e-16 0.866026 -0.5
    outer loop
      vertex 9 26.4403 13.5863
      vertex -9 25.9804 12.7896
      vertex -9 26.4403 13.5863
    endloop
  endfacet
  facet normal -1.46677e-16 0.743145 -0.669131
    outer loop
      vertex 9 26.4403 13.5863
      vertex -9 26.4403 13.5863
      vertex 9 27.0558 14.2698
    endloop
  endfacet
  facet normal -1.46677e-16 0.743145 -0.669131
    outer loop
      vertex 9 27.0558 14.2698
      vertex -9 26.4403 13.5863
      vertex -9 27.0558 14.2698
    endloop
  endfacet
  facet normal -1.16013e-16 0.587785 -0.809017
    outer loop
      vertex 9 27.0558 14.2698
      vertex -9 27.0558 14.2698
      vertex 9 27.8 14.8105
    endloop
  endfacet
  facet normal -1.16013e-16 0.587785 -0.809017
    outer loop
      vertex 9 27.8 14.8105
      vertex -9 27.0558 14.2698
      vertex -9 27.8 14.8105
    endloop
  endfacet
  facet normal -8.02789e-17 0.406737 -0.913545
    outer loop
      vertex 9 27.8 14.8105
      vertex -9 27.8 14.8105
      vertex 9 28.6403 15.1846
    endloop
  endfacet
  facet normal -8.02789e-17 0.406737 -0.913545
    outer loop
      vertex 9 28.6403 15.1846
      vertex -9 27.8 14.8105
      vertex -9 28.6403 15.1846
    endloop
  endfacet
  facet normal -4.1036e-17 0.207911 -0.978148
    outer loop
      vertex 9 28.6403 15.1846
      vertex -9 28.6403 15.1846
      vertex 9 29.5401 15.3759
    endloop
  endfacet
  facet normal -4.1036e-17 0.207911 -0.978148
    outer loop
      vertex 9 29.5401 15.3759
      vertex -9 28.6403 15.1846
      vertex -9 29.5401 15.3759
    endloop
  endfacet
  facet normal 1 -0 0
    outer loop
      vertex 9 5.69615 10.0852
      vertex 9 -7.32747e-15 44
      vertex 9 7.32747e-15 -22
    endloop
  endfacet
  facet normal 1 -0 0
    outer loop
      vertex 9 55 -22
      vertex 9 55 -15.0947
      vertex 9 7.32747e-15 -22
    endloop
  endfacet
  facet normal 1 0 0
    outer loop
      vertex 9 55 -15.0947
      vertex 9 54.0654 -15.0947
      vertex 9 7.32747e-15 -22
    endloop
  endfacet
  facet normal 1 -0 0
    outer loop
      vertex 9 54.0654 -15.0947
      vertex 9 52.3813 -14.2837
      vertex 9 7.32747e-15 -22
    endloop
  endfacet
  facet normal 1 -0 0
    outer loop
      vertex 9 52.3813 -14.2837
      vertex 9 51.2159 -12.8223
      vertex 9 7.32747e-15 -22
    endloop
  endfacet
  facet normal 1 -0 0
    outer loop
      vertex 9 51.2159 -12.8223
      vertex 9 50.8 -11
      vertex 9 7.32747e-15 -22
    endloop
  endfacet
  facet normal 1 -0 0
    outer loop
      vertex 9 51.2159 -9.17769
      vertex 9 55 44
      vertex 9 50.8 -11
    endloop
  endfacet
  facet normal 1 0 0
    outer loop
      vertex 9 52.3813 -7.71631
      vertex 9 54.0654 -6.9053
      vertex 9 55 44
    endloop
  endfacet
  facet normal 1 0 0
    outer loop
      vertex 9 54.0654 -6.9053
      vertex 9 55 -6.9053
      vertex 9 55 44
    endloop
  endfacet
  facet normal 1 0 0
    outer loop
      vertex 9 5.6 11
      vertex 9 5.69615 11.9148
      vertex 9 -7.32747e-15 44
    endloop
  endfacet
  facet normal 1 0 0
    outer loop
      vertex 9 55 44
      vertex 9 -7.32747e-15 44
      vertex 9 9.54008 15.3759
    endloop
  endfacet
  facet normal 1 -0 0
    outer loop
      vertex 9 7.8 7.18949
      vertex 9 7.05583 7.73016
      vertex 9 7.32747e-15 -22
    endloop
  endfacet
  facet normal 1 0 0
    outer loop
      vertex 9 55 44
      vertex 9 9.54008 15.3759
      vertex 9 10.4599 15.3759
    endloop
  endfacet
  facet normal 1 -0 0
    outer loop
      vertex 9 8.64033 6.81535
      vertex 9 7.8 7.18949
      vertex 9 7.32747e-15 -22
    endloop
  endfacet
  facet normal 1 0 0
    outer loop
      vertex 9 55 44
      vertex 9 10.4599 15.3759
      vertex 9 11.3597 15.1846
    endloop
  endfacet
  facet normal 1 0 0
    outer loop
      vertex 9 30.4599 15.3759
      vertex 9 31.3597 15.1846
      vertex 9 55 44
    endloop
  endfacet
  facet normal 1 0 0
    outer loop
      vertex 9 55 44
      vertex 9 11.3597 15.1846
      vertex 9 12.2 14.8105
    endloop
  endfacet
  facet normal 1 0 0
    outer loop
      vertex 9 55 44
      vertex 9 12.2 14.8105
      vertex 9 12.9442 14.2698
    endloop
  endfacet
  facet normal 1 0 0
    outer loop
      vertex 9 10.4599 6.6241
      vertex 9 9.54008 6.6241
      vertex 9 7.32747e-15 -22
    endloop
  endfacet
  facet normal 1 0 0
    outer loop
      vertex 9 55 44
      vertex 9 12.9442 14.2698
      vertex 9 13.5597 13.5863
    endloop
  endfacet
  facet normal 1 0 0
    outer loop
      vertex 9 11.3597 6.81535
      vertex 9 10.4599 6.6241
      vertex 9 7.32747e-15 -22
    endloop
  endfacet
  facet normal 1 0 0
    outer loop
      vertex 9 55 44
      vertex 9 13.5597 13.5863
      vertex 9 14.0196 12.7896
    endloop
  endfacet
  facet normal 1 0 0
    outer loop
      vertex 9 12.2 7.18949
      vertex 9 11.3597 6.81535
      vertex 9 7.32747e-15 -22
    endloop
  endfacet
  facet normal 1 0 0
    outer loop
      vertex 9 55 44
      vertex 9 14.0196 12.7896
      vertex 9 14.3038 11.9148
    endloop
  endfacet
  facet normal 1 0 0
    outer loop
      vertex 9 12.9442 7.73016
      vertex 9 12.2 7.18949
      vertex 9 7.32747e-15 -22
    endloop
  endfacet
  facet normal 1 0 0
    outer loop
      vertex 9 55 44
      vertex 9 14.3038 11.9148
      vertex 9 14.4 11
    endloop
  endfacet
  facet normal 1 -0 0
    outer loop
      vertex 9 9.54008 6.6241
      vertex 9 8.64033 6.81535
      vertex 9 7.32747e-15 -22
    endloop
  endfacet
  facet normal 1 0 0
    outer loop
      vertex 9 55 44
      vertex 9 14.4 11
      vertex 9 14.3038 10.0852
    endloop
  endfacet
  facet normal 1 0 0
    outer loop
      vertex 9 25.6 11
      vertex 9 14.0196 9.21036
      vertex 9 7.32747e-15 -22
    endloop
  endfacet
  facet normal 1 0 0
    outer loop
      vertex 9 55 44
      vertex 9 14.3038 10.0852
      vertex 9 14.0196 9.21036
    endloop
  endfacet
  facet normal 1 0 0
    outer loop
      vertex 9 14.0196 9.21036
      vertex 9 13.5597 8.41375
      vertex 9 7.32747e-15 -22
    endloop
  endfacet
  facet normal 1 -0 0
    outer loop
      vertex 9 7.05583 7.73016
      vertex 9 6.44033 8.41375
      vertex 9 7.32747e-15 -22
    endloop
  endfacet
  facet normal 1 -0 0
    outer loop
      vertex 9 6.44033 8.41375
      vertex 9 5.9804 9.21036
      vertex 9 7.32747e-15 -22
    endloop
  endfacet
  facet normal 1 -0 0
    outer loop
      vertex 9 5.9804 9.21036
      vertex 9 5.69615 10.0852
      vertex 9 7.32747e-15 -22
    endloop
  endfacet
  facet normal 1 -0 -0
    outer loop
      vertex 9 5.6 11
      vertex 9 -7.32747e-15 44
      vertex 9 5.69615 10.0852
    endloop
  endfacet
  facet normal 1 0 0
    outer loop
      vertex 9 5.69615 11.9148
      vertex 9 5.9804 12.7896
      vertex 9 -7.32747e-15 44
    endloop
  endfacet
  facet normal 1 0 0
    outer loop
      vertex 9 5.9804 12.7896
      vertex 9 6.44033 13.5863
      vertex 9 -7.32747e-15 44
    endloop
  endfacet
  facet normal 1 -0 0
    outer loop
      vertex 9 7.05583 14.2698
      vertex 9 -7.32747e-15 44
      vertex 9 6.44033 13.5863
    endloop
  endfacet
  facet normal 1 -0 0
    outer loop
      vertex 9 7.8 14.8105
      vertex 9 -7.32747e-15 44
      vertex 9 7.05583 14.2698
    endloop
  endfacet
  facet normal 1 -0 0
    outer loop
      vertex 9 8.64033 15.1846
      vertex 9 -7.32747e-15 44
      vertex 9 7.8 14.8105
    endloop
  endfacet
  facet normal 1 -0 0
    outer loop
      vertex 9 9.54008 15.3759
      vertex 9 -7.32747e-15 44
      vertex 9 8.64033 15.1846
    endloop
  endfacet
  facet normal 1 -0 0
    outer loop
      vertex 9 27.0558 14.2698
      vertex 9 27.8 14.8105
      vertex 9 14.0196 9.21036
    endloop
  endfacet
  facet normal 1 -0 0
    outer loop
      vertex 9 25.6962 10.0852
      vertex 9 25.6 11
      vertex 9 7.32747e-15 -22
    endloop
  endfacet
  facet normal 1 0 0
    outer loop
      vertex 9 55 44
      vertex 9 29.5401 15.3759
      vertex 9 30.4599 15.3759
    endloop
  endfacet
  facet normal 1 -0 0
    outer loop
      vertex 9 25.9804 9.21036
      vertex 9 25.6962 10.0852
      vertex 9 7.32747e-15 -22
    endloop
  endfacet
  facet normal 1 0 0
    outer loop
      vertex 9 32.2 14.8105
      vertex 9 55 44
      vertex 9 31.3597 15.1846
    endloop
  endfacet
  facet normal 1 0 0
    outer loop
      vertex 9 32.9442 7.73016
      vertex 9 32.2 7.18949
      vertex 9 7.32747e-15 -22
    endloop
  endfacet
  facet normal 1 0 0
    outer loop
      vertex 9 32.9442 14.2698
      vertex 9 55 44
      vertex 9 32.2 14.8105
    endloop
  endfacet
  facet normal 1 0 0
    outer loop
      vertex 9 33.5597 13.5863
      vertex 9 55 44
      vertex 9 32.9442 14.2698
    endloop
  endfacet
  facet normal 1 0 0
    outer loop
      vertex 9 50.8 -11
      vertex 9 55 44
      vertex 9 33.5597 13.5863
    endloop
  endfacet
  facet normal 1 0 0
    outer loop
      vertex 9 50.8 -11
      vertex 9 33.5597 13.5863
      vertex 9 34.0196 12.7896
    endloop
  endfacet
  facet normal 1 -0 0
    outer loop
      vertex 9 26.4403 8.41375
      vertex 9 25.9804 9.21036
      vertex 9 7.32747e-15 -22
    endloop
  endfacet
  facet normal 1 0 0
    outer loop
      vertex 9 30.4599 6.6241
      vertex 9 29.5401 6.6241
      vertex 9 7.32747e-15 -22
    endloop
  endfacet
  facet normal 1 0 0
    outer loop
      vertex 9 50.8 -11
      vertex 9 34.4 11
      vertex 9 34.3038 10.0852
    endloop
  endfacet
  facet normal 1 0 0
    outer loop
      vertex 9 31.3597 6.81535
      vertex 9 30.4599 6.6241
      vertex 9 7.32747e-15 -22
    endloop
  endfacet
  facet normal 1 0 0
    outer loop
      vertex 9 50.8 -11
      vertex 9 34.3038 10.0852
      vertex 9 34.0196 9.21036
    endloop
  endfacet
  facet normal 1 0 0
    outer loop
      vertex 9 32.2 7.18949
      vertex 9 31.3597 6.81535
      vertex 9 7.32747e-15 -22
    endloop
  endfacet
  facet normal 1 0 0
    outer loop
      vertex 9 50.8 -11
      vertex 9 34.0196 9.21036
      vertex 9 33.5597 8.41375
    endloop
  endfacet
  facet normal 1 -0 0
    outer loop
      vertex 9 50.8 -11
      vertex 9 32.9442 7.73016
      vertex 9 7.32747e-15 -22
    endloop
  endfacet
  facet normal 1 0 0
    outer loop
      vertex 9 50.8 -11
      vertex 9 33.5597 8.41375
      vertex 9 32.9442 7.73016
    endloop
  endfacet
  facet normal 1 -0 0
    outer loop
      vertex 9 29.5401 6.6241
      vertex 9 28.6403 6.81535
      vertex 9 7.32747e-15 -22
    endloop
  endfacet
  facet normal 1 -0 0
    outer loop
      vertex 9 28.6403 6.81535
      vertex 9 27.8 7.18949
      vertex 9 7.32747e-15 -22
    endloop
  endfacet
  facet normal 1 -0 0
    outer loop
      vertex 9 27.8 7.18949
      vertex 9 27.0558 7.73016
      vertex 9 7.32747e-15 -22
    endloop
  endfacet
  facet normal 1 -0 0
    outer loop
      vertex 9 27.0558 7.73016
      vertex 9 26.4403 8.41375
      vertex 9 7.32747e-15 -22
    endloop
  endfacet
  facet normal 1 0 0
    outer loop
      vertex 9 34.0196 12.7896
      vertex 9 34.3038 11.9148
      vertex 9 50.8 -11
    endloop
  endfacet
  facet normal 1 0 0
    outer loop
      vertex 9 34.3038 11.9148
      vertex 9 34.4 11
      vertex 9 50.8 -11
    endloop
  endfacet
  facet normal 1 0 0
    outer loop
      vertex 9 25.6962 11.9148
      vertex 9 14.0196 9.21036
      vertex 9 25.6 11
    endloop
  endfacet
  facet normal 1 0 0
    outer loop
      vertex 9 25.9804 12.7896
      vertex 9 14.0196 9.21036
      vertex 9 25.6962 11.9148
    endloop
  endfacet
  facet normal 1 0 0
    outer loop
      vertex 9 26.4403 13.5863
      vertex 9 14.0196 9.21036
      vertex 9 25.9804 12.7896
    endloop
  endfacet
  facet normal 1 0 0
    outer loop
      vertex 9 27.0558 14.2698
      vertex 9 14.0196 9.21036
      vertex 9 26.4403 13.5863
    endloop
  endfacet
  facet normal 1 0 0
    outer loop
      vertex 9 55 44
      vertex 9 14.0196 9.21036
      vertex 9 27.8 14.8105
    endloop
  endfacet
  facet normal 1 0 0
    outer loop
      vertex 9 55 44
      vertex 9 28.6403 15.1846
      vertex 9 29.5401 15.3759
    endloop
  endfacet
  facet normal 1 0 0
    outer loop
      vertex 9 55 44
      vertex 9 27.8 14.8105
      vertex 9 28.6403 15.1846
    endloop
  endfacet
  facet normal 1 0 0
    outer loop
      vertex 9 51.2159 -9.17769
      vertex 9 52.3813 -7.71631
      vertex 9 55 44
    endloop
  endfacet
  facet normal 1 0 0
    outer loop
      vertex 9 13.5597 8.41375
      vertex 9 12.9442 7.73016
      vertex 9 7.32747e-15 -22
    endloop
  endfacet
  facet normal 0.978148 0.207912 2.60655e-16
    outer loop
      vertex -5.13571 18.3313 44
      vertex -5.1357 18.3313 -22
      vertex -5.37042 19.4355 -22
    endloop
  endfacet
  facet normal 0.978148 0.207912 2.71846e-16
    outer loop
      vertex -5.37042 19.4355 44
      vertex -5.13571 18.3313 44
      vertex -5.37042 19.4355 -22
    endloop
  endfacet
  facet normal 1 0 1.74944e-16
    outer loop
      vertex -5.37042 19.4355 -22
      vertex -5.37042 20.5645 -22
      vertex -5.37042 20.5645 44
    endloop
  endfacet
  facet normal 1 0 1.74944e-16
    outer loop
      vertex -5.37042 19.4355 44
      vertex -5.37042 19.4355 -22
      vertex -5.37042 20.5645 44
    endloop
  endfacet
  facet normal 0.913545 0.406737 3.34973e-16
    outer loop
      vertex -4.67654 17.3 44
      vertex -4.67654 17.3 -22
      vertex -5.1357 18.3313 -22
    endloop
  endfacet
  facet normal 0.913545 0.406737 3.34973e-16
    outer loop
      vertex -5.13571 18.3313 44
      vertex -4.67654 17.3 44
      vertex -5.1357 18.3313 -22
    endloop
  endfacet
  facet normal 0.809017 0.587785 3.94652e-16
    outer loop
      vertex -4.01298 16.3867 44
      vertex -4.01298 16.3867 -22
      vertex -4.67654 17.3 -22
    endloop
  endfacet
  facet normal 0.809017 0.587785 3.94652e-16
    outer loop
      vertex -4.67654 17.3 44
      vertex -4.01298 16.3867 44
      vertex -4.67654 17.3 -22
    endloop
  endfacet
  facet normal 0.669131 0.743145 4.57084e-16
    outer loop
      vertex -3.17404 15.6313 -22
      vertex -4.01298 16.3867 -22
      vertex -3.17404 15.6313 44
    endloop
  endfacet
  facet normal 0.669131 0.743145 4.36946e-16
    outer loop
      vertex -3.17404 15.6313 44
      vertex -4.01298 16.3867 -22
      vertex -4.01298 16.3867 44
    endloop
  endfacet
  facet normal 0.5 0.866026 4.6041e-16
    outer loop
      vertex -2.19638 15.0669 -22
      vertex -3.17404 15.6313 -22
      vertex -2.19638 15.0669 44
    endloop
  endfacet
  facet normal 0.5 0.866026 4.84215e-16
    outer loop
      vertex -2.19638 15.0669 44
      vertex -3.17404 15.6313 -22
      vertex -3.17404 15.6313 44
    endloop
  endfacet
  facet normal 0.309017 0.951056 4.90253e-16
    outer loop
      vertex -1.12272 14.718 -22
      vertex -2.19638 15.0669 -22
      vertex -1.12272 14.718 44
    endloop
  endfacet
  facet normal 0.309017 0.951056 4.63586e-16
    outer loop
      vertex -1.12272 14.718 44
      vertex -2.19638 15.0669 -22
      vertex -2.19638 15.0669 44
    endloop
  endfacet
  facet normal 0.104529 0.994522 4.73575e-16
    outer loop
      vertex 7.80214e-15 14.6 -22
      vertex -1.12272 14.718 -22
      vertex -3.90107e-15 14.6 44
    endloop
  endfacet
  facet normal 0.104529 0.994522 4.73738e-16
    outer loop
      vertex -3.90107e-15 14.6 44
      vertex -1.12272 14.718 -22
      vertex -1.12272 14.718 44
    endloop
  endfacet
  facet normal -0.104529 0.994522 4.36402e-16
    outer loop
      vertex 1.12272 14.718 -22
      vertex 7.80214e-15 14.6 -22
      vertex 1.12272 14.718 44
    endloop
  endfacet
  facet normal -0.104529 0.994522 4.36169e-16
    outer loop
      vertex 1.12272 14.718 44
      vertex 7.80214e-15 14.6 -22
      vertex -3.90107e-15 14.6 44
    endloop
  endfacet
  facet normal -0.309017 0.951056 3.55495e-16
    outer loop
      vertex 2.19638 15.0669 -22
      vertex 1.12272 14.718 -22
      vertex 2.19638 15.0669 44
    endloop
  endfacet
  facet normal -0.309017 0.951056 3.80049e-16
    outer loop
      vertex 2.19638 15.0669 44
      vertex 1.12272 14.718 -22
      vertex 1.12272 14.718 44
    endloop
  endfacet
  facet normal -0.5 0.866026 3.08775e-16
    outer loop
      vertex 3.17404 15.6313 -22
      vertex 2.19638 15.0669 -22
      vertex 3.17404 15.6313 44
    endloop
  endfacet
  facet normal -0.5 0.866026 2.8497e-16
    outer loop
      vertex 3.17404 15.6313 44
      vertex 2.19638 15.0669 -22
      vertex 2.19638 15.0669 44
    endloop
  endfacet
  facet normal -0.669131 0.743145 2.02961e-16
    outer loop
      vertex 4.01298 16.3867 -22
      vertex 3.17404 15.6313 -22
      vertex 4.01298 16.3867 44
    endloop
  endfacet
  facet normal -0.669131 0.743145 2.23099e-16
    outer loop
      vertex 4.01298 16.3867 44
      vertex 3.17404 15.6313 -22
      vertex 3.17404 15.6313 44
    endloop
  endfacet
  facet normal -0.809017 0.587785 1.11586e-16
    outer loop
      vertex 4.67654 17.3 -22
      vertex 4.01298 16.3867 -22
      vertex 4.67654 17.3 44
    endloop
  endfacet
  facet normal -0.809017 0.587785 1.11127e-16
    outer loop
      vertex 4.67654 17.3 44
      vertex 4.01298 16.3867 -22
      vertex 4.01298 16.3867 44
    endloop
  endfacet
  facet normal -0.913545 0.406737 1.53343e-17
    outer loop
      vertex 5.13571 18.3313 -22
      vertex 4.67654 17.3 -22
      vertex 5.1357 18.3313 44
    endloop
  endfacet
  facet normal -0.913545 0.406737 1.49231e-17
    outer loop
      vertex 5.1357 18.3313 44
      vertex 4.67654 17.3 -22
      vertex 4.67654 17.3 44
    endloop
  endfacet
  facet normal -0.978148 0.207912 -7.03962e-17
    outer loop
      vertex 5.37042 19.4355 -22
      vertex 5.13571 18.3313 -22
      vertex 5.37042 19.4355 44
    endloop
  endfacet
  facet normal -0.978148 0.207912 -8.19324e-17
    outer loop
      vertex 5.37042 19.4355 44
      vertex 5.13571 18.3313 -22
      vertex 5.1357 18.3313 44
    endloop
  endfacet
  facet normal -1 0 -1.74944e-16
    outer loop
      vertex 5.37042 20.5645 -22
      vertex 5.37042 19.4355 -22
      vertex 5.37042 20.5645 44
    endloop
  endfacet
  facet normal -1 0 -1.74944e-16
    outer loop
      vertex 5.37042 20.5645 44
      vertex 5.37042 19.4355 -22
      vertex 5.37042 19.4355 44
    endloop
  endfacet
  facet normal -0.978148 -0.207912 -2.60655e-16
    outer loop
      vertex 5.37042 20.5645 -22
      vertex 5.37042 20.5645 44
      vertex 5.13571 21.6687 -22
    endloop
  endfacet
  facet normal -0.978148 -0.207912 -2.60655e-16
    outer loop
      vertex 5.13571 21.6687 -22
      vertex 5.37042 20.5645 44
      vertex 5.1357 21.6687 44
    endloop
  endfacet
  facet normal -0.913545 -0.406737 -3.34973e-16
    outer loop
      vertex 5.13571 21.6687 -22
      vertex 5.1357 21.6687 44
      vertex 4.67654 22.7 -22
    endloop
  endfacet
  facet normal -0.913545 -0.406737 -3.34973e-16
    outer loop
      vertex 4.67654 22.7 -22
      vertex 5.1357 21.6687 44
      vertex 4.67654 22.7 44
    endloop
  endfacet
  facet normal -0.809017 -0.587785 -3.94652e-16
    outer loop
      vertex 4.67654 22.7 -22
      vertex 4.67654 22.7 44
      vertex 4.01298 23.6133 -22
    endloop
  endfacet
  facet normal -0.809017 -0.587785 -3.94652e-16
    outer loop
      vertex 4.01298 23.6133 -22
      vertex 4.67654 22.7 44
      vertex 4.01298 23.6133 44
    endloop
  endfacet
  facet normal -0.669131 -0.743145 -4.36946e-16
    outer loop
      vertex 3.17404 24.3687 -22
      vertex 4.01298 23.6133 -22
      vertex 4.01298 23.6133 44
    endloop
  endfacet
  facet normal -0.669131 -0.743145 -4.77085e-16
    outer loop
      vertex 3.17404 24.3687 44
      vertex 3.17404 24.3687 -22
      vertex 4.01298 23.6133 44
    endloop
  endfacet
  facet normal -0.5 -0.866026 -5.06749e-16
    outer loop
      vertex 2.19638 24.9331 -22
      vertex 3.17404 24.3687 -22
      vertex 3.17404 24.3687 44
    endloop
  endfacet
  facet normal -0.5 -0.866026 -4.6041e-16
    outer loop
      vertex 2.19638 24.9331 44
      vertex 2.19638 24.9331 -22
      vertex 3.17404 24.3687 44
    endloop
  endfacet
  facet normal -0.309017 -0.951056 -4.63586e-16
    outer loop
      vertex 1.12272 25.282 -22
      vertex 2.19638 24.9331 -22
      vertex 2.19638 24.9331 44
    endloop
  endfacet
  facet normal -0.309017 -0.951056 -4.64656e-16
    outer loop
      vertex 1.12272 25.282 44
      vertex 1.12272 25.282 -22
      vertex 2.19638 24.9331 44
    endloop
  endfacet
  facet normal -0.104529 -0.994522 -4.46781e-16
    outer loop
      vertex 7.80214e-15 25.4 -22
      vertex 1.12272 25.282 -22
      vertex 1.12272 25.282 44
    endloop
  endfacet
  facet normal -0.104529 -0.994522 -5.00342e-16
    outer loop
      vertex -3.90107e-15 25.4 44
      vertex 7.80214e-15 25.4 -22
      vertex 1.12272 25.282 44
    endloop
  endfacet
  facet normal 0.104529 -0.994522 -4.63488e-16
    outer loop
      vertex -1.12272 25.282 -22
      vertex 7.80214e-15 25.4 -22
      vertex -3.90107e-15 25.4 44
    endloop
  endfacet
  facet normal 0.104529 -0.994522 -4.09635e-16
    outer loop
      vertex -1.12272 25.282 44
      vertex -1.12272 25.282 -22
      vertex -3.90107e-15 25.4 44
    endloop
  endfacet
  facet normal 0.309017 -0.951056 -3.54477e-16
    outer loop
      vertex -2.19638 24.9331 -22
      vertex -1.12272 25.282 -22
      vertex -1.12272 25.282 44
    endloop
  endfacet
  facet normal 0.309017 -0.951056 -3.55495e-16
    outer loop
      vertex -2.19638 24.9331 44
      vertex -2.19638 24.9331 -22
      vertex -1.12272 25.282 44
    endloop
  endfacet
  facet normal 0.5 -0.866026 -2.84971e-16
    outer loop
      vertex -3.17404 24.3687 -22
      vertex -2.19638 24.9331 -22
      vertex -2.19638 24.9331 44
    endloop
  endfacet
  facet normal 0.5 -0.866026 -3.32084e-16
    outer loop
      vertex -3.17404 24.3687 44
      vertex -3.17404 24.3687 -22
      vertex -2.19638 24.9331 44
    endloop
  endfacet
  facet normal 0.669131 -0.743145 -2.43726e-16
    outer loop
      vertex -4.01298 23.6133 -22
      vertex -3.17404 24.3687 -22
      vertex -3.17404 24.3687 44
    endloop
  endfacet
  facet normal 0.669131 -0.743145 -2.02961e-16
    outer loop
      vertex -4.01298 23.6133 44
      vertex -4.01298 23.6133 -22
      vertex -3.17404 24.3687 44
    endloop
  endfacet
  facet normal 0.809017 -0.587785 -1.11127e-16
    outer loop
      vertex -4.67654 22.7 -22
      vertex -4.01298 23.6133 -22
      vertex -4.01298 23.6133 44
    endloop
  endfacet
  facet normal 0.809017 -0.587785 -1.11586e-16
    outer loop
      vertex -4.67654 22.7 44
      vertex -4.67654 22.7 -22
      vertex -4.01298 23.6133 44
    endloop
  endfacet
  facet normal 0.913545 -0.406737 -1.49231e-17
    outer loop
      vertex -5.1357 21.6687 -22
      vertex -4.67654 22.7 -22
      vertex -4.67654 22.7 44
    endloop
  endfacet
  facet normal 0.913545 -0.406737 -1.53343e-17
    outer loop
      vertex -5.13571 21.6687 44
      vertex -5.1357 21.6687 -22
      vertex -4.67654 22.7 44
    endloop
  endfacet
  facet normal 0.978148 -0.207912 8.19324e-17
    outer loop
      vertex -5.37042 20.5645 -22
      vertex -5.1357 21.6687 -22
      vertex -5.13571 21.6687 44
    endloop
  endfacet
  facet normal 0.978148 -0.207912 8.15879e-17
    outer loop
      vertex -5.37042 20.5645 44
      vertex -5.37042 20.5645 -22
      vertex -5.13571 21.6687 44
    endloop
  endfacet
  facet normal 1 -3.15544e-31 2.22045e-16
    outer loop
      vertex -1.75 46.3 -22
      vertex -1.75 48.8 -22
      vertex -1.75 48.8 -18
    endloop
  endfacet
  facet normal 1 0 2.22045e-16
    outer loop
      vertex -1.75 46.3 -18
      vertex -1.75 46.3 -22
      vertex -1.75 48.8 -18
    endloop
  endfacet
  facet normal -0 -1 -1.77636e-15
    outer loop
      vertex -1.75 48.8 -22
      vertex 2.25 48.8 -22
      vertex 2.25 48.8 -18
    endloop
  endfacet
  facet normal 1.57772e-30 -1 -1.77636e-15
    outer loop
      vertex -1.75 48.8 -18
      vertex -1.75 48.8 -22
      vertex 2.25 48.8 -18
    endloop
  endfacet
  facet normal -1 1.57772e-31 -1.11022e-16
    outer loop
      vertex 2.25 48.8 -22
      vertex 2.25 46.3 -22
      vertex 2.25 48.8 -18
    endloop
  endfacet
  facet normal -1 1.57772e-31 -1.11022e-16
    outer loop
      vertex 2.25 48.8 -18
      vertex 2.25 46.3 -22
      vertex 2.25 46.3 -18
    endloop
  endfacet
  facet normal -0 1 1.77636e-15
    outer loop
      vertex 2.25 46.3 -22
      vertex -1.75 46.3 -22
      vertex 2.25 46.3 -18
    endloop
  endfacet
  facet normal -0 1 1.77636e-15
    outer loop
      vertex 2.25 46.3 -18
      vertex -1.75 46.3 -22
      vertex -1.75 46.3 -18
    endloop
  endfacet
  facet normal 0.951056 9.43461e-17 -0.309017
    outer loop
      vertex -5.482 55 34.1227
      vertex -5.13314 55 35.1964
      vertex -5.13314 31.8 35.1964
    endloop
  endfacet
  facet normal 0.951056 9.46422e-17 -0.309017
    outer loop
      vertex -5.482 31.8 34.1227
      vertex -5.482 55 34.1227
      vertex -5.13314 31.8 35.1964
    endloop
  endfacet
  facet normal 0.994522 3.19135e-17 -0.104529
    outer loop
      vertex -5.6 55 33
      vertex -5.482 55 34.1227
      vertex -5.482 31.8 34.1227
    endloop
  endfacet
  facet normal 0.994522 3.20138e-17 -0.104529
    outer loop
      vertex -5.6 31.8 33
      vertex -5.6 55 33
      vertex -5.482 31.8 34.1227
    endloop
  endfacet
  facet normal 0.866026 0 -0.5
    outer loop
      vertex -5.13314 55 35.1964
      vertex -4.56869 55 36.174
      vertex -4.56869 31.8 36.174
    endloop
  endfacet
  facet normal 0.866026 1.53134e-16 -0.5
    outer loop
      vertex -5.13314 31.8 35.1964
      vertex -5.13314 55 35.1964
      vertex -4.56869 31.8 36.174
    endloop
  endfacet
  facet normal 0.743145 2.04293e-16 -0.669131
    outer loop
      vertex -4.56869 55 36.174
      vertex -3.8133 55 37.013
      vertex -3.8133 31.8 37.013
    endloop
  endfacet
  facet normal 0.743145 0 -0.669131
    outer loop
      vertex -4.56869 31.8 36.174
      vertex -4.56869 55 36.174
      vertex -3.8133 31.8 37.013
    endloop
  endfacet
  facet normal 0.587785 2.47776e-16 -0.809017
    outer loop
      vertex -2.9 55 37.6765
      vertex -2.9 31.8 37.6765
      vertex -3.8133 55 37.013
    endloop
  endfacet
  facet normal 0.587785 2.47776e-16 -0.809017
    outer loop
      vertex -3.8133 55 37.013
      vertex -2.9 31.8 37.6765
      vertex -3.8133 31.8 37.013
    endloop
  endfacet
  facet normal 0.406737 2.7979e-16 -0.913545
    outer loop
      vertex -1.86869 55 38.1357
      vertex -1.86869 31.8 38.1357
      vertex -2.9 55 37.6765
    endloop
  endfacet
  facet normal 0.406737 2.7979e-16 -0.913545
    outer loop
      vertex -2.9 55 37.6765
      vertex -1.86869 31.8 38.1357
      vertex -2.9 31.8 37.6765
    endloop
  endfacet
  facet normal 0.207912 2.99576e-16 -0.978148
    outer loop
      vertex -0.764454 55 38.3704
      vertex -0.764454 31.8 38.3704
      vertex -1.86869 55 38.1357
    endloop
  endfacet
  facet normal 0.207912 2.99576e-16 -0.978148
    outer loop
      vertex -1.86869 55 38.1357
      vertex -0.764454 31.8 38.3704
      vertex -1.86869 31.8 38.1357
    endloop
  endfacet
  facet normal 0 3.06268e-16 -1
    outer loop
      vertex 0.364454 55 38.3704
      vertex 0.364454 31.8 38.3704
      vertex -0.764454 55 38.3704
    endloop
  endfacet
  facet normal 0 3.06268e-16 -1
    outer loop
      vertex -0.764454 55 38.3704
      vertex 0.364454 31.8 38.3704
      vertex -0.764454 31.8 38.3704
    endloop
  endfacet
  facet normal -0.207912 2.99576e-16 -0.978148
    outer loop
      vertex 1.46869 55 38.1357
      vertex 1.46869 31.8 38.1357
      vertex 0.364454 55 38.3704
    endloop
  endfacet
  facet normal -0.207912 2.99576e-16 -0.978148
    outer loop
      vertex 0.364454 55 38.3704
      vertex 1.46869 31.8 38.1357
      vertex 0.364454 31.8 38.3704
    endloop
  endfacet
  facet normal -0.406737 2.7979e-16 -0.913545
    outer loop
      vertex 2.5 55 37.6765
      vertex 2.5 31.8 37.6765
      vertex 1.46869 55 38.1357
    endloop
  endfacet
  facet normal -0.406737 2.7979e-16 -0.913545
    outer loop
      vertex 1.46869 55 38.1357
      vertex 2.5 31.8 37.6765
      vertex 1.46869 31.8 38.1357
    endloop
  endfacet
  facet normal -0.587785 2.47776e-16 -0.809017
    outer loop
      vertex 3.41331 55 37.013
      vertex 3.41331 31.8 37.013
      vertex 2.5 55 37.6765
    endloop
  endfacet
  facet normal -0.587785 2.47776e-16 -0.809017
    outer loop
      vertex 2.5 55 37.6765
      vertex 3.41331 31.8 37.013
      vertex 2.5 31.8 37.6765
    endloop
  endfacet
  facet normal -0.743145 0 -0.669131
    outer loop
      vertex 4.16869 55 36.174
      vertex 4.16869 31.8 36.174
      vertex 3.41331 55 37.013
    endloop
  endfacet
  facet normal -0.743145 2.04934e-16 -0.669131
    outer loop
      vertex 3.41331 55 37.013
      vertex 4.16869 31.8 36.174
      vertex 3.41331 31.8 37.013
    endloop
  endfacet
  facet normal -0.866026 1.53134e-16 -0.5
    outer loop
      vertex 4.73315 55 35.1964
      vertex 4.73315 31.8 35.1964
      vertex 4.16869 55 36.174
    endloop
  endfacet
  facet normal -0.866026 0 -0.5
    outer loop
      vertex 4.16869 55 36.174
      vertex 4.73315 31.8 35.1964
      vertex 4.16869 31.8 36.174
    endloop
  endfacet
  facet normal -0.951056 9.46422e-17 -0.309017
    outer loop
      vertex 5.082 55 34.1227
      vertex 5.082 31.8 34.1227
      vertex 4.73315 55 35.1964
    endloop
  endfacet
  facet normal -0.951056 9.46422e-17 -0.309017
    outer loop
      vertex 4.73315 55 35.1964
      vertex 5.082 31.8 34.1227
      vertex 4.73315 31.8 35.1964
    endloop
  endfacet
  facet normal -0.994522 3.20138e-17 -0.104529
    outer loop
      vertex 5.2 55 33
      vertex 5.2 31.8 33
      vertex 5.082 55 34.1227
    endloop
  endfacet
  facet normal -0.994522 3.20138e-17 -0.104529
    outer loop
      vertex 5.082 55 34.1227
      vertex 5.2 31.8 33
      vertex 5.082 31.8 34.1227
    endloop
  endfacet
  facet normal -0.994522 -3.20138e-17 0.104529
    outer loop
      vertex 5.2 55 33
      vertex 5.082 55 31.8773
      vertex 5.2 31.8 33
    endloop
  endfacet
  facet normal -0.994522 -1.5957e-17 0.104529
    outer loop
      vertex 5.2 31.8 33
      vertex 5.082 55 31.8773
      vertex 5.082 31.8 31.8773
    endloop
  endfacet
  facet normal -0.951056 -4.73211e-17 0.309017
    outer loop
      vertex 5.082 55 31.8773
      vertex 4.73315 55 30.8036
      vertex 5.082 31.8 31.8773
    endloop
  endfacet
  facet normal -0.951056 -9.43461e-17 0.309017
    outer loop
      vertex 5.082 31.8 31.8773
      vertex 4.73315 55 30.8036
      vertex 4.73315 31.8 30.8036
    endloop
  endfacet
  facet normal -0.866026 -1.53134e-16 0.5
    outer loop
      vertex 4.73315 55 30.8036
      vertex 4.16869 55 29.826
      vertex 4.73315 31.8 30.8036
    endloop
  endfacet
  facet normal -0.866026 -7.63265e-17 0.5
    outer loop
      vertex 4.73315 31.8 30.8036
      vertex 4.16869 55 29.826
      vertex 4.16869 31.8 29.826
    endloop
  endfacet
  facet normal -0.743145 -1.02467e-16 0.669131
    outer loop
      vertex 4.16869 55 29.826
      vertex 3.41331 55 28.987
      vertex 4.16869 31.8 29.826
    endloop
  endfacet
  facet normal -0.743145 -1.02148e-16 0.669131
    outer loop
      vertex 4.16869 31.8 29.826
      vertex 3.41331 55 28.987
      vertex 3.41331 31.8 28.987
    endloop
  endfacet
  facet normal -0.587785 -1.23888e-16 0.809017
    outer loop
      vertex 3.41331 31.8 28.987
      vertex 3.41331 55 28.987
      vertex 2.5 55 28.3235
    endloop
  endfacet
  facet normal -0.587785 -2.47776e-16 0.809017
    outer loop
      vertex 2.5 31.8 28.3235
      vertex 3.41331 31.8 28.987
      vertex 2.5 55 28.3235
    endloop
  endfacet
  facet normal -0.406737 -2.7979e-16 0.913545
    outer loop
      vertex 2.5 31.8 28.3235
      vertex 2.5 55 28.3235
      vertex 1.46869 55 27.8643
    endloop
  endfacet
  facet normal -0.406737 -1.39895e-16 0.913545
    outer loop
      vertex 1.46869 31.8 27.8643
      vertex 2.5 31.8 28.3235
      vertex 1.46869 55 27.8643
    endloop
  endfacet
  facet normal -0.207912 -1.49788e-16 0.978148
    outer loop
      vertex 1.46869 31.8 27.8643
      vertex 1.46869 55 27.8643
      vertex 0.364454 55 27.6296
    endloop
  endfacet
  facet normal -0.207912 -1.49788e-16 0.978148
    outer loop
      vertex 0.364454 31.8 27.6296
      vertex 1.46869 31.8 27.8643
      vertex 0.364454 55 27.6296
    endloop
  endfacet
  facet normal 0 -1.53134e-16 1
    outer loop
      vertex 0.364454 31.8 27.6296
      vertex 0.364454 55 27.6296
      vertex -0.764454 55 27.6296
    endloop
  endfacet
  facet normal 0 -1.53134e-16 1
    outer loop
      vertex -0.764454 31.8 27.6296
      vertex 0.364454 31.8 27.6296
      vertex -0.764454 55 27.6296
    endloop
  endfacet
  facet normal 0.207912 -1.49788e-16 0.978148
    outer loop
      vertex -0.764454 31.8 27.6296
      vertex -0.764454 55 27.6296
      vertex -1.86869 55 27.8643
    endloop
  endfacet
  facet normal 0.207912 -1.49788e-16 0.978148
    outer loop
      vertex -1.86869 31.8 27.8643
      vertex -0.764454 31.8 27.6296
      vertex -1.86869 55 27.8643
    endloop
  endfacet
  facet normal 0.406737 -1.39895e-16 0.913545
    outer loop
      vertex -1.86869 31.8 27.8643
      vertex -1.86869 55 27.8643
      vertex -2.9 55 28.3235
    endloop
  endfacet
  facet normal 0.406737 -2.7979e-16 0.913545
    outer loop
      vertex -2.9 31.8 28.3235
      vertex -1.86869 31.8 27.8643
      vertex -2.9 55 28.3235
    endloop
  endfacet
  facet normal 0.587785 -2.47776e-16 0.809017
    outer loop
      vertex -2.9 31.8 28.3235
      vertex -2.9 55 28.3235
      vertex -3.8133 55 28.987
    endloop
  endfacet
  facet normal 0.587785 -1.23888e-16 0.809017
    outer loop
      vertex -3.8133 31.8 28.987
      vertex -2.9 31.8 28.3235
      vertex -3.8133 55 28.987
    endloop
  endfacet
  facet normal 0.743145 -1.02467e-16 0.669131
    outer loop
      vertex -3.8133 31.8 28.987
      vertex -3.8133 55 28.987
      vertex -4.56869 55 29.826
    endloop
  endfacet
  facet normal 0.743145 -1.02467e-16 0.669131
    outer loop
      vertex -4.56869 31.8 29.826
      vertex -3.8133 31.8 28.987
      vertex -4.56869 55 29.826
    endloop
  endfacet
  facet normal 0.866026 -7.65671e-17 0.5
    outer loop
      vertex -4.56869 31.8 29.826
      vertex -4.56869 55 29.826
      vertex -5.13314 55 30.8036
    endloop
  endfacet
  facet normal 0.866026 -1.53134e-16 0.5
    outer loop
      vertex -5.13314 31.8 30.8036
      vertex -4.56869 31.8 29.826
      vertex -5.13314 55 30.8036
    endloop
  endfacet
  facet normal 0.951056 -9.46422e-17 0.309017
    outer loop
      vertex -5.13314 31.8 30.8036
      vertex -5.13314 55 30.8036
      vertex -5.482 55 31.8773
    endloop
  endfacet
  facet normal 0.951056 -4.73211e-17 0.309017
    outer loop
      vertex -5.482 31.8 31.8773
      vertex -5.13314 31.8 30.8036
      vertex -5.482 55 31.8773
    endloop
  endfacet
  facet normal 0.994522 -1.60069e-17 0.104529
    outer loop
      vertex -5.482 31.8 31.8773
      vertex -5.482 55 31.8773
      vertex -5.6 55 33
    endloop
  endfacet
  facet normal 0.994522 -3.20138e-17 0.104529
    outer loop
      vertex -5.6 31.8 33
      vertex -5.482 31.8 31.8773
      vertex -5.6 55 33
    endloop
  endfacet
  facet normal 1 0 0
    outer loop
      vertex -2 45 0.75
      vertex -2 55 0.75
      vertex -2 55 3.25
    endloop
  endfacet
  facet normal 1 0 -0
    outer loop
      vertex -2 45 3.25
      vertex -2 45 0.75
      vertex -2 55 3.25
    endloop
  endfacet
  facet normal 0 2.22045e-16 -1
    outer loop
      vertex 2 55 3.25
      vertex 2 45 3.25
      vertex -2 55 3.25
    endloop
  endfacet
  facet normal 0 2.22045e-16 -1
    outer loop
      vertex -2 55 3.25
      vertex 2 45 3.25
      vertex -2 45 3.25
    endloop
  endfacet
  facet normal -1 0 0
    outer loop
      vertex 2 55 0.75
      vertex 2 45 0.75
      vertex 2 55 3.25
    endloop
  endfacet
  facet normal -1 0 0
    outer loop
      vertex 2 55 3.25
      vertex 2 45 0.75
      vertex 2 45 3.25
    endloop
  endfacet
  facet normal 0 -2.22045e-16 1
    outer loop
      vertex 2 45 0.75
      vertex 2 55 0.75
      vertex -2 55 0.75
    endloop
  endfacet
  facet normal 0 -2.22045e-16 1
    outer loop
      vertex -2 45 0.75
      vertex 2 45 0.75
      vertex -2 55 0.75
    endloop
  endfacet
  facet normal 8.88178e-16 1.42109e-15 -1
    outer loop
      vertex 2.25 48.8 -18
      vertex 2.25 46.3 -18
      vertex -1.75 48.8 -18
    endloop
  endfacet
  facet normal 0 0 -1
    outer loop
      vertex -1.75 48.8 -18
      vertex 2.25 46.3 -18
      vertex -1.75 46.3 -18
    endloop
  endfacet
  facet normal 0 1 -0
    outer loop
      vertex -5.13314 31.8 35.1964
      vertex -4.56869 31.8 36.174
      vertex -5.482 31.8 34.1227
    endloop
  endfacet
  facet normal 0 1 0
    outer loop
      vertex -5.482 31.8 34.1227
      vertex -4.56869 31.8 36.174
      vertex -3.8133 31.8 37.013
    endloop
  endfacet
  facet normal 0 1 0
    outer loop
      vertex -5.482 31.8 34.1227
      vertex -3.8133 31.8 37.013
      vertex -2.9 31.8 37.6765
    endloop
  endfacet
  facet normal 0 1 0
    outer loop
      vertex -5.482 31.8 34.1227
      vertex -2.9 31.8 37.6765
      vertex -1.86869 31.8 38.1357
    endloop
  endfacet
  facet normal 0 1 0
    outer loop
      vertex -5.482 31.8 34.1227
      vertex -1.86869 31.8 38.1357
      vertex -0.764454 31.8 38.3704
    endloop
  endfacet
  facet normal 0 1 0
    outer loop
      vertex -5.482 31.8 34.1227
      vertex -0.764454 31.8 38.3704
      vertex 0.364454 31.8 38.3704
    endloop
  endfacet
  facet normal 0 1 0
    outer loop
      vertex -5.482 31.8 34.1227
      vertex 0.364454 31.8 38.3704
      vertex 1.46869 31.8 38.1357
    endloop
  endfacet
  facet normal 0 1 0
    outer loop
      vertex -5.482 31.8 34.1227
      vertex 1.46869 31.8 38.1357
      vertex 2.5 31.8 37.6765
    endloop
  endfacet
  facet normal 0 1 0
    outer loop
      vertex -5.482 31.8 34.1227
      vertex 2.5 31.8 37.6765
      vertex 3.41331 31.8 37.013
    endloop
  endfacet
  facet normal 0 1 0
    outer loop
      vertex -5.482 31.8 34.1227
      vertex 3.41331 31.8 37.013
      vertex 4.16869 31.8 36.174
    endloop
  endfacet
  facet normal 0 1 0
    outer loop
      vertex -5.482 31.8 34.1227
      vertex 4.16869 31.8 36.174
      vertex 4.73315 31.8 35.1964
    endloop
  endfacet
  facet normal 0 1 0
    outer loop
      vertex -5.482 31.8 34.1227
      vertex 4.73315 31.8 35.1964
      vertex 5.082 31.8 34.1227
    endloop
  endfacet
  facet normal 0 1 0
    outer loop
      vertex -5.482 31.8 34.1227
      vertex 5.082 31.8 34.1227
      vertex 5.2 31.8 33
    endloop
  endfacet
  facet normal 0 1 0
    outer loop
      vertex -5.482 31.8 34.1227
      vertex 5.2 31.8 33
      vertex 5.082 31.8 31.8773
    endloop
  endfacet
  facet normal 0 1 0
    outer loop
      vertex -5.482 31.8 34.1227
      vertex 5.082 31.8 31.8773
      vertex 4.73315 31.8 30.8036
    endloop
  endfacet
  facet normal 0 1 0
    outer loop
      vertex -5.482 31.8 34.1227
      vertex 4.73315 31.8 30.8036
      vertex 4.16869 31.8 29.826
    endloop
  endfacet
  facet normal 0 1 0
    outer loop
      vertex -5.482 31.8 34.1227
      vertex 4.16869 31.8 29.826
      vertex 3.41331 31.8 28.987
    endloop
  endfacet
  facet normal 0 1 0
    outer loop
      vertex -5.482 31.8 34.1227
      vertex 3.41331 31.8 28.987
      vertex 2.5 31.8 28.3235
    endloop
  endfacet
  facet normal 0 1 0
    outer loop
      vertex -5.482 31.8 34.1227
      vertex 2.5 31.8 28.3235
      vertex 1.46869 31.8 27.8643
    endloop
  endfacet
  facet normal 0 1 0
    outer loop
      vertex -5.482 31.8 34.1227
      vertex 1.46869 31.8 27.8643
      vertex 0.364454 31.8 27.6296
    endloop
  endfacet
  facet normal 0 1 0
    outer loop
      vertex -5.482 31.8 34.1227
      vertex 0.364454 31.8 27.6296
      vertex -0.764454 31.8 27.6296
    endloop
  endfacet
  facet normal 0 1 0
    outer loop
      vertex -5.482 31.8 34.1227
      vertex -0.764454 31.8 27.6296
      vertex -1.86869 31.8 27.8643
    endloop
  endfacet
  facet normal 0 1 0
    outer loop
      vertex -5.482 31.8 34.1227
      vertex -1.86869 31.8 27.8643
      vertex -2.9 31.8 28.3235
    endloop
  endfacet
  facet normal 0 1 0
    outer loop
      vertex -5.482 31.8 34.1227
      vertex -2.9 31.8 28.3235
      vertex -3.8133 31.8 28.987
    endloop
  endfacet
  facet normal 0 1 0
    outer loop
      vertex -5.482 31.8 34.1227
      vertex -3.8133 31.8 28.987
      vertex -4.56869 31.8 29.826
    endloop
  endfacet
  facet normal 0 1 0
    outer loop
      vertex -5.482 31.8 34.1227
      vertex -4.56869 31.8 29.826
      vertex -5.13314 31.8 30.8036
    endloop
  endfacet
  facet normal 0 1 -0
    outer loop
      vertex -5.482 31.8 34.1227
      vertex -5.13314 31.8 30.8036
      vertex -5.482 31.8 31.8773
    endloop
  endfacet
  facet normal 0 1 0
    outer loop
      vertex -5.482 31.8 34.1227
      vertex -5.482 31.8 31.8773
      vertex -5.6 31.8 33
    endloop
  endfacet
  facet normal -0 1 0
    outer loop
      vertex 2 45 0.75
      vertex -2 45 0.75
      vertex 2 45 3.25
    endloop
  endfacet
  facet normal 0 1 0
    outer loop
      vertex 2 45 3.25
      vertex -2 45 0.75
      vertex -2 45 3.25
    endloop
  endfacet
endsolid OpenSCAD_Model
