solid OpenSCAD_Model
  facet normal 1.71134e-14 -1 1.7987e-15
    outer loop
      vertex 46.7076 -50 -12.5248
      vertex 46.5 -50 -14.5
      vertex 46.7076 -50 -16.4752
    endloop
  endfacet
  facet normal 2.57674e-15 -1 1.48768e-15
    outer loop
      vertex 48.3143 -50 -20.084
      vertex 46.7076 -50 -12.5248
      vertex 47.3213 -50 -18.364
    endloop
  endfacet
  facet normal 5.53582e-15 -1 1.7987e-15
    outer loop
      vertex 47.3213 -50 -18.364
      vertex 46.7076 -50 -12.5248
      vertex 46.7076 -50 -16.4752
    endloop
  endfacet
  facet normal 1.36655e-15 -1 1.23045e-15
    outer loop
      vertex 49.6433 -50 -21.5599
      vertex 46.7076 -50 -12.5248
      vertex 48.3143 -50 -20.084
    endloop
  endfacet
  facet normal 7.47939e-16 -1 1.02945e-15
    outer loop
      vertex 51.25 -50 -22.7272
      vertex 46.7076 -50 -12.5248
      vertex 49.6433 -50 -21.5599
    endloop
  endfacet
  facet normal -1.43866e-14 -1 -5.70886e-15
    outer loop
      vertex 48.7556 -50 -16.4411
      vertex 46.7076 -50 -12.5248
      vertex 51.25 -50 -22.7272
    endloop
  endfacet
  facet normal 0 -1 -0
    outer loop
      vertex 48.7556 -50 -12.5589
      vertex 49.5048 -50 -10.75
      vertex 46.7076 -50 -12.5248
    endloop
  endfacet
  facet normal 0 -1 0
    outer loop
      vertex 57.9411 -50 -21.7444
      vertex 56 -50 -22
      vertex 58.9357 -50 -23.535
    endloop
  endfacet
  facet normal 0 -1 -0
    outer loop
      vertex 49.5048 -50 -10.75
      vertex 50.6967 -50 -9.1967
      vertex 46.7076 -50 -12.5248
    endloop
  endfacet
  facet normal -0 -1 0
    outer loop
      vertex 53.0643 -50 -5.46496
      vertex 46.7076 -50 -12.5248
      vertex 55.007 -50 -5.05204
    endloop
  endfacet
  facet normal -0 -1 0
    outer loop
      vertex 51.25 -50 -6.27276
      vertex 46.7076 -50 -12.5248
      vertex 53.0643 -50 -5.46496
    endloop
  endfacet
  facet normal -0 -1 0
    outer loop
      vertex 49.6433 -50 -7.44012
      vertex 46.7076 -50 -12.5248
      vertex 51.25 -50 -6.27276
    endloop
  endfacet
  facet normal -0 -1 0
    outer loop
      vertex 48.3143 -50 -8.91604
      vertex 46.7076 -50 -12.5248
      vertex 49.6433 -50 -7.44012
    endloop
  endfacet
  facet normal -0 -1 0
    outer loop
      vertex 47.3213 -50 -10.636
      vertex 46.7076 -50 -12.5248
      vertex 48.3143 -50 -8.91604
    endloop
  endfacet
  facet normal 0 -1 0
    outer loop
      vertex 49.5048 -50 -18.25
      vertex 48.7556 -50 -16.4411
      vertex 51.25 -50 -22.7272
    endloop
  endfacet
  facet normal 0 -1 0
    outer loop
      vertex 61.3033 -50 -19.8033
      vertex 59.75 -50 -20.9952
      vertex 62.3567 -50 -21.5599
    endloop
  endfacet
  facet normal 0 -1 0
    outer loop
      vertex 54.0589 -50 -21.7444
      vertex 52.25 -50 -20.9952
      vertex 55.007 -50 -23.948
    endloop
  endfacet
  facet normal 6.06697e-17 -1 3.65245e-15
    outer loop
      vertex 63.5 -50 -14.5
      vertex 63.2444 -50 -16.4411
      vertex 65.2924 -50 -16.4752
    endloop
  endfacet
  facet normal -0 -1 0
    outer loop
      vertex 57.9411 -50 -7.25556
      vertex 59.75 -50 -8.00481
      vertex 60.75 -50 -6.27276
    endloop
  endfacet
  facet normal 0 -1 0
    outer loop
      vertex 62.4952 -50 -10.75
      vertex 63.2444 -50 -12.5589
      vertex 65.2924 -50 -12.5248
    endloop
  endfacet
  facet normal 0 -1 0
    outer loop
      vertex 54.0589 -50 -7.25556
      vertex 56 -50 -7
      vertex 56.993 -50 -5.05204
    endloop
  endfacet
  facet normal 0 -1 0
    outer loop
      vertex 55.007 -50 -5.05204
      vertex 46.7076 -50 -12.5248
      vertex 50.6967 -50 -9.1967
    endloop
  endfacet
  facet normal 0 -1 0
    outer loop
      vertex 55.007 -50 -5.05204
      vertex 52.25 -50 -8.00481
      vertex 56.993 -50 -5.05204
    endloop
  endfacet
  facet normal 0 -1 0
    outer loop
      vertex 55.007 -50 -5.05204
      vertex 50.6967 -50 -9.1967
      vertex 52.25 -50 -8.00481
    endloop
  endfacet
  facet normal -0 -1 0
    outer loop
      vertex 56 -50 -7
      vertex 57.9411 -50 -7.25556
      vertex 58.9357 -50 -5.46496
    endloop
  endfacet
  facet normal 0 -1 0
    outer loop
      vertex 52.25 -50 -8.00481
      vertex 54.0589 -50 -7.25556
      vertex 56.993 -50 -5.05204
    endloop
  endfacet
  facet normal 0 -1 0
    outer loop
      vertex 56.993 -50 -5.05204
      vertex 56 -50 -7
      vertex 58.9357 -50 -5.46496
    endloop
  endfacet
  facet normal 0 -1 0
    outer loop
      vertex 58.9357 -50 -5.46496
      vertex 57.9411 -50 -7.25556
      vertex 60.75 -50 -6.27276
    endloop
  endfacet
  facet normal 0 -1 0
    outer loop
      vertex 60.75 -50 -6.27276
      vertex 59.75 -50 -8.00481
      vertex 62.3567 -50 -7.44012
    endloop
  endfacet
  facet normal 0 -1 0
    outer loop
      vertex 62.3567 -50 -7.44012
      vertex 61.3033 -50 -9.1967
      vertex 63.6857 -50 -8.91604
    endloop
  endfacet
  facet normal 0 -1 0
    outer loop
      vertex 63.6857 -50 -8.91604
      vertex 62.4952 -50 -10.75
      vertex 64.6787 -50 -10.636
    endloop
  endfacet
  facet normal -5.9651e-17 -1 3.59112e-15
    outer loop
      vertex 65.2924 -50 -12.5248
      vertex 63.2444 -50 -12.5589
      vertex 65.5 -50 -14.5
    endloop
  endfacet
  facet normal -3.55271e-15 -1 3.73406e-16
    outer loop
      vertex 65.5 -50 -14.5
      vertex 63.5 -50 -14.5
      vertex 65.2924 -50 -16.4752
    endloop
  endfacet
  facet normal -0 -1 0
    outer loop
      vertex 59.75 -50 -8.00481
      vertex 61.3033 -50 -9.1967
      vertex 62.3567 -50 -7.44012
    endloop
  endfacet
  facet normal 0 -1 0
    outer loop
      vertex 65.2924 -50 -16.4752
      vertex 63.2444 -50 -16.4411
      vertex 64.6787 -50 -18.364
    endloop
  endfacet
  facet normal -0 -1 0
    outer loop
      vertex 61.3033 -50 -9.1967
      vertex 62.4952 -50 -10.75
      vertex 63.6857 -50 -8.91604
    endloop
  endfacet
  facet normal 0 -1 0
    outer loop
      vertex 64.6787 -50 -18.364
      vertex 62.4952 -50 -18.25
      vertex 63.6857 -50 -20.084
    endloop
  endfacet
  facet normal 0 -1 0
    outer loop
      vertex 63.6857 -50 -20.084
      vertex 61.3033 -50 -19.8033
      vertex 62.3567 -50 -21.5599
    endloop
  endfacet
  facet normal -0 -1 0
    outer loop
      vertex 62.4952 -50 -10.75
      vertex 65.2924 -50 -12.5248
      vertex 64.6787 -50 -10.636
    endloop
  endfacet
  facet normal 0 -1 0
    outer loop
      vertex 62.3567 -50 -21.5599
      vertex 59.75 -50 -20.9952
      vertex 60.75 -50 -22.7272
    endloop
  endfacet
  facet normal -3.55271e-15 -1 -4.67723e-16
    outer loop
      vertex 63.2444 -50 -12.5589
      vertex 63.5 -50 -14.5
      vertex 65.5 -50 -14.5
    endloop
  endfacet
  facet normal 0 -1 0
    outer loop
      vertex 60.75 -50 -22.7272
      vertex 57.9411 -50 -21.7444
      vertex 58.9357 -50 -23.535
    endloop
  endfacet
  facet normal 0 -1 0
    outer loop
      vertex 58.9357 -50 -23.535
      vertex 56 -50 -22
      vertex 56.993 -50 -23.948
    endloop
  endfacet
  facet normal 0 -1 0
    outer loop
      vertex 56.993 -50 -23.948
      vertex 54.0589 -50 -21.7444
      vertex 55.007 -50 -23.948
    endloop
  endfacet
  facet normal 0 -1 0
    outer loop
      vertex 63.2444 -50 -16.4411
      vertex 62.4952 -50 -18.25
      vertex 64.6787 -50 -18.364
    endloop
  endfacet
  facet normal 0 -1 0
    outer loop
      vertex 55.007 -50 -23.948
      vertex 52.25 -50 -20.9952
      vertex 53.0643 -50 -23.535
    endloop
  endfacet
  facet normal 0 -1 0
    outer loop
      vertex 62.4952 -50 -18.25
      vertex 61.3033 -50 -19.8033
      vertex 63.6857 -50 -20.084
    endloop
  endfacet
  facet normal 0 -1 0
    outer loop
      vertex 53.0643 -50 -23.535
      vertex 50.6967 -50 -19.8033
      vertex 51.25 -50 -22.7272
    endloop
  endfacet
  facet normal 0 -1 0
    outer loop
      vertex 50.6967 -50 -19.8033
      vertex 49.5048 -50 -18.25
      vertex 51.25 -50 -22.7272
    endloop
  endfacet
  facet normal 4.71816e-15 -1 4.28159e-15
    outer loop
      vertex 48.7556 -50 -16.4411
      vertex 48.5 -50 -14.5
      vertex 46.7076 -50 -12.5248
    endloop
  endfacet
  facet normal 0 -1 0
    outer loop
      vertex 59.75 -50 -20.9952
      vertex 57.9411 -50 -21.7444
      vertex 60.75 -50 -22.7272
    endloop
  endfacet
  facet normal 0 -1 0
    outer loop
      vertex 52.25 -50 -20.9952
      vertex 50.6967 -50 -19.8033
      vertex 53.0643 -50 -23.535
    endloop
  endfacet
  facet normal 0 -1 0
    outer loop
      vertex 56 -50 -22
      vertex 54.0589 -50 -21.7444
      vertex 56.993 -50 -23.948
    endloop
  endfacet
  facet normal 0 -1 -0
    outer loop
      vertex 48.5 -50 -14.5
      vertex 48.7556 -50 -12.5589
      vertex 46.7076 -50 -12.5248
    endloop
  endfacet
  facet normal -0.994522 -2.59952e-17 -0.104529
    outer loop
      vertex 46.5 -50 -14.5
      vertex 46.5 0 -14.5
      vertex 46.7076 -50 -16.4752
    endloop
  endfacet
  facet normal -0.994522 -2.97088e-17 -0.104529
    outer loop
      vertex 46.7076 -50 -16.4752
      vertex 46.5 0 -14.5
      vertex 46.7076 -4.38574e-16 -16.4752
    endloop
  endfacet
  facet normal -0.994522 2.59952e-17 0.104529
    outer loop
      vertex 46.5 -50 -14.5
      vertex 46.7076 -50 -12.5248
      vertex 46.5 0 -14.5
    endloop
  endfacet
  facet normal -0.994522 2.61114e-17 0.104529
    outer loop
      vertex 46.5 0 -14.5
      vertex 46.7076 -50 -12.5248
      vertex 46.7076 4.38574e-16 -12.5248
    endloop
  endfacet
  facet normal -0.951057 7.68494e-17 0.309017
    outer loop
      vertex 46.7076 -50 -12.5248
      vertex 47.3213 -50 -10.636
      vertex 46.7076 4.38574e-16 -12.5248
    endloop
  endfacet
  facet normal -0.951057 6.6471e-17 0.309017
    outer loop
      vertex 46.7076 4.38574e-16 -12.5248
      vertex 47.3213 -50 -10.636
      vertex 47.3213 8.5798e-16 -10.636
    endloop
  endfacet
  facet normal -0.866025 1.06581e-16 0.5
    outer loop
      vertex 47.3213 -50 -10.636
      vertex 48.3143 -50 -8.91604
      vertex 47.3213 8.5798e-16 -10.636
    endloop
  endfacet
  facet normal -0.866025 1.249e-16 0.5
    outer loop
      vertex 47.3213 8.5798e-16 -10.636
      vertex 48.3143 -50 -8.91604
      vertex 48.3143 1.23989e-15 -8.91604
    endloop
  endfacet
  facet normal -0.743145 1.66406e-16 0.66913
    outer loop
      vertex 48.3143 -50 -8.91604
      vertex 49.6433 -50 -7.44012
      vertex 48.3143 1.23989e-15 -8.91604
    endloop
  endfacet
  facet normal -0.743145 1.53219e-16 0.66913
    outer loop
      vertex 48.3143 1.23989e-15 -8.91604
      vertex 49.6433 -50 -7.44012
      vertex 49.6433 1.56761e-15 -7.44012
    endloop
  endfacet
  facet normal -0.587785 1.86823e-16 0.809017
    outer loop
      vertex 49.6433 1.56761e-15 -7.44012
      vertex 49.6433 -50 -7.44012
      vertex 51.25 -50 -6.27276
    endloop
  endfacet
  facet normal -0.587785 1.86823e-16 0.809017
    outer loop
      vertex 51.25 1.82681e-15 -6.27276
      vertex 49.6433 1.56761e-15 -7.44012
      vertex 51.25 -50 -6.27276
    endloop
  endfacet
  facet normal -0.406737 2.10962e-16 0.913545
    outer loop
      vertex 51.25 1.82681e-15 -6.27276
      vertex 51.25 -50 -6.27276
      vertex 53.0643 -50 -5.46496
    endloop
  endfacet
  facet normal -0.406737 2.10962e-16 0.913545
    outer loop
      vertex 53.0643 2.00618e-15 -5.46496
      vertex 51.25 1.82681e-15 -6.27276
      vertex 53.0643 -50 -5.46496
    endloop
  endfacet
  facet normal -0.207912 2.2588e-16 0.978148
    outer loop
      vertex 53.0643 2.00618e-15 -5.46496
      vertex 53.0643 -50 -5.46496
      vertex 55.007 -50 -5.05204
    endloop
  endfacet
  facet normal -0.207912 2.2588e-16 0.978148
    outer loop
      vertex 55.007 2.09787e-15 -5.05204
      vertex 53.0643 2.00618e-15 -5.46496
      vertex 55.007 -50 -5.05204
    endloop
  endfacet
  facet normal 0 2.30926e-16 1
    outer loop
      vertex 55.007 2.09787e-15 -5.05204
      vertex 55.007 -50 -5.05204
      vertex 56.993 -50 -5.05204
    endloop
  endfacet
  facet normal -0 2.30926e-16 1
    outer loop
      vertex 56.993 2.09787e-15 -5.05204
      vertex 55.007 2.09787e-15 -5.05204
      vertex 56.993 -50 -5.05204
    endloop
  endfacet
  facet normal 0.207912 2.2588e-16 0.978148
    outer loop
      vertex 56.993 2.09787e-15 -5.05204
      vertex 56.993 -50 -5.05204
      vertex 58.9357 -50 -5.46496
    endloop
  endfacet
  facet normal 0.207912 2.2588e-16 0.978148
    outer loop
      vertex 58.9357 2.00618e-15 -5.46496
      vertex 56.993 2.09787e-15 -5.05204
      vertex 58.9357 -50 -5.46496
    endloop
  endfacet
  facet normal 0.406737 2.10962e-16 0.913545
    outer loop
      vertex 58.9357 2.00618e-15 -5.46496
      vertex 58.9357 -50 -5.46496
      vertex 60.75 -50 -6.27276
    endloop
  endfacet
  facet normal 0.406737 2.10962e-16 0.913545
    outer loop
      vertex 60.75 1.82681e-15 -6.27276
      vertex 58.9357 2.00618e-15 -5.46496
      vertex 60.75 -50 -6.27276
    endloop
  endfacet
  facet normal 0.587785 1.86823e-16 0.809017
    outer loop
      vertex 60.75 1.82681e-15 -6.27276
      vertex 60.75 -50 -6.27276
      vertex 62.3567 -50 -7.44012
    endloop
  endfacet
  facet normal 0.587785 1.86823e-16 0.809017
    outer loop
      vertex 62.3567 1.56761e-15 -7.44012
      vertex 60.75 1.82681e-15 -6.27276
      vertex 62.3567 -50 -7.44012
    endloop
  endfacet
  facet normal 0.743145 1.5452e-16 0.66913
    outer loop
      vertex 62.3567 1.56761e-15 -7.44012
      vertex 62.3567 -50 -7.44012
      vertex 63.6857 -50 -8.91604
    endloop
  endfacet
  facet normal 0.743145 1.66406e-16 0.66913
    outer loop
      vertex 63.6857 1.23989e-15 -8.91604
      vertex 62.3567 1.56761e-15 -7.44012
      vertex 63.6857 -50 -8.91604
    endloop
  endfacet
  facet normal 0.866025 1.24345e-16 0.5
    outer loop
      vertex 63.6857 1.23989e-15 -8.91604
      vertex 63.6857 -50 -8.91604
      vertex 64.6787 -50 -10.636
    endloop
  endfacet
  facet normal 0.866025 1.06581e-16 0.5
    outer loop
      vertex 64.6787 8.5798e-16 -10.636
      vertex 63.6857 1.23989e-15 -8.91604
      vertex 64.6787 -50 -10.636
    endloop
  endfacet
  facet normal 0.951057 6.58709e-17 0.309017
    outer loop
      vertex 64.6787 8.5798e-16 -10.636
      vertex 64.6787 -50 -10.636
      vertex 65.2924 -50 -12.5248
    endloop
  endfacet
  facet normal 0.951057 7.68494e-17 0.309017
    outer loop
      vertex 65.2924 4.38574e-16 -12.5248
      vertex 64.6787 8.5798e-16 -10.636
      vertex 65.2924 -50 -12.5248
    endloop
  endfacet
  facet normal 0.994522 2.59952e-17 0.104529
    outer loop
      vertex 65.2924 4.38574e-16 -12.5248
      vertex 65.2924 -50 -12.5248
      vertex 65.5 -50 -14.5
    endloop
  endfacet
  facet normal 0.994522 2.59952e-17 0.104529
    outer loop
      vertex 65.5 0 -14.5
      vertex 65.2924 4.38574e-16 -12.5248
      vertex 65.5 -50 -14.5
    endloop
  endfacet
  facet normal 0.994522 -2.97379e-17 -0.104529
    outer loop
      vertex 65.5 -50 -14.5
      vertex 65.2924 -50 -16.4752
      vertex 65.2924 -4.38574e-16 -16.4752
    endloop
  endfacet
  facet normal 0.994522 -2.59952e-17 -0.104529
    outer loop
      vertex 65.5 0 -14.5
      vertex 65.5 -50 -14.5
      vertex 65.2924 -4.38574e-16 -16.4752
    endloop
  endfacet
  facet normal 0.951057 -6.64716e-17 -0.309017
    outer loop
      vertex 65.2924 -50 -16.4752
      vertex 64.6787 -50 -18.364
      vertex 64.6787 -8.5798e-16 -18.364
    endloop
  endfacet
  facet normal 0.951057 -8.78279e-17 -0.309017
    outer loop
      vertex 65.2924 -4.38574e-16 -16.4752
      vertex 65.2924 -50 -16.4752
      vertex 64.6787 -8.5798e-16 -18.364
    endloop
  endfacet
  facet normal 0.866025 -1.07554e-16 -0.5
    outer loop
      vertex 64.6787 -50 -18.364
      vertex 63.6857 -50 -20.084
      vertex 63.6857 -1.23989e-15 -20.084
    endloop
  endfacet
  facet normal 0.866025 -1.06581e-16 -0.5
    outer loop
      vertex 64.6787 -8.5798e-16 -18.364
      vertex 64.6787 -50 -18.364
      vertex 63.6857 -1.23989e-15 -20.084
    endloop
  endfacet
  facet normal 0.743145 -1.41612e-16 -0.66913
    outer loop
      vertex 63.6857 -50 -20.084
      vertex 62.3567 -50 -21.5599
      vertex 62.3567 -1.56761e-15 -21.5599
    endloop
  endfacet
  facet normal 0.743145 -1.42634e-16 -0.66913
    outer loop
      vertex 63.6857 -1.23989e-15 -20.084
      vertex 63.6857 -50 -20.084
      vertex 62.3567 -1.56761e-15 -21.5599
    endloop
  endfacet
  facet normal 0.587785 -2.29937e-16 -0.809017
    outer loop
      vertex 60.75 -50 -22.7272
      vertex 60.75 -1.82681e-15 -22.7272
      vertex 62.3567 -50 -21.5599
    endloop
  endfacet
  facet normal 0.587785 -1.72452e-16 -0.809017
    outer loop
      vertex 62.3567 -50 -21.5599
      vertex 60.75 -1.82681e-15 -22.7272
      vertex 62.3567 -1.56761e-15 -21.5599
    endloop
  endfacet
  facet normal 0.406737 -2.59645e-16 -0.913545
    outer loop
      vertex 58.9357 -50 -23.535
      vertex 58.9357 -2.00618e-15 -23.535
      vertex 60.75 -50 -22.7272
    endloop
  endfacet
  facet normal 0.406737 -2.59645e-16 -0.913545
    outer loop
      vertex 60.75 -50 -22.7272
      vertex 58.9357 -2.00618e-15 -23.535
      vertex 60.75 -1.82681e-15 -22.7272
    endloop
  endfacet
  facet normal 0.207912 -2.78006e-16 -0.978148
    outer loop
      vertex 56.993 -50 -23.948
      vertex 56.993 -2.09787e-15 -23.948
      vertex 58.9357 -50 -23.535
    endloop
  endfacet
  facet normal 0.207912 -2.78006e-16 -0.978148
    outer loop
      vertex 58.9357 -50 -23.535
      vertex 56.993 -2.09787e-15 -23.948
      vertex 58.9357 -2.00618e-15 -23.535
    endloop
  endfacet
  facet normal -0 -2.84217e-16 -1
    outer loop
      vertex 55.007 -50 -23.948
      vertex 55.007 -2.09787e-15 -23.948
      vertex 56.993 -50 -23.948
    endloop
  endfacet
  facet normal 0 -2.84217e-16 -1
    outer loop
      vertex 56.993 -50 -23.948
      vertex 55.007 -2.09787e-15 -23.948
      vertex 56.993 -2.09787e-15 -23.948
    endloop
  endfacet
  facet normal -0.207912 -2.78006e-16 -0.978148
    outer loop
      vertex 53.0643 -50 -23.535
      vertex 53.0643 -2.00618e-15 -23.535
      vertex 55.007 -50 -23.948
    endloop
  endfacet
  facet normal -0.207912 -2.78006e-16 -0.978148
    outer loop
      vertex 55.007 -50 -23.948
      vertex 53.0643 -2.00618e-15 -23.535
      vertex 55.007 -2.09787e-15 -23.948
    endloop
  endfacet
  facet normal -0.406737 -2.59645e-16 -0.913545
    outer loop
      vertex 51.25 -50 -22.7272
      vertex 51.25 -1.82681e-15 -22.7272
      vertex 53.0643 -50 -23.535
    endloop
  endfacet
  facet normal -0.406737 -2.59645e-16 -0.913545
    outer loop
      vertex 53.0643 -50 -23.535
      vertex 51.25 -1.82681e-15 -22.7272
      vertex 53.0643 -2.00618e-15 -23.535
    endloop
  endfacet
  facet normal -0.587785 -1.72452e-16 -0.809017
    outer loop
      vertex 49.6433 -50 -21.5599
      vertex 49.6433 -1.56761e-15 -21.5599
      vertex 51.25 -50 -22.7272
    endloop
  endfacet
  facet normal -0.587785 -2.29937e-16 -0.809017
    outer loop
      vertex 51.25 -50 -22.7272
      vertex 49.6433 -1.56761e-15 -21.5599
      vertex 51.25 -1.82681e-15 -22.7272
    endloop
  endfacet
  facet normal -0.743145 -1.42634e-16 -0.66913
    outer loop
      vertex 48.3143 -50 -20.084
      vertex 48.3143 -1.23989e-15 -20.084
      vertex 49.6433 -50 -21.5599
    endloop
  endfacet
  facet normal -0.743145 -1.42634e-16 -0.66913
    outer loop
      vertex 49.6433 -50 -21.5599
      vertex 48.3143 -1.23989e-15 -20.084
      vertex 49.6433 -1.56761e-15 -21.5599
    endloop
  endfacet
  facet normal -0.866025 -1.06581e-16 -0.5
    outer loop
      vertex 47.3213 -50 -18.364
      vertex 47.3213 -8.5798e-16 -18.364
      vertex 48.3143 -50 -20.084
    endloop
  endfacet
  facet normal -0.866025 -1.06581e-16 -0.5
    outer loop
      vertex 48.3143 -50 -20.084
      vertex 47.3213 -8.5798e-16 -18.364
      vertex 48.3143 -1.23989e-15 -20.084
    endloop
  endfacet
  facet normal -0.951057 -8.78279e-17 -0.309017
    outer loop
      vertex 46.7076 -50 -16.4752
      vertex 46.7076 -4.38574e-16 -16.4752
      vertex 47.3213 -50 -18.364
    endloop
  endfacet
  facet normal -0.951057 -6.58709e-17 -0.309017
    outer loop
      vertex 47.3213 -50 -18.364
      vertex 46.7076 -4.38574e-16 -16.4752
      vertex 47.3213 -8.5798e-16 -18.364
    endloop
  endfacet
  facet normal 0.92388 8.15739e-17 0.382683
    outer loop
      vertex 49.5048 -50 -18.25
      vertex 49.5048 -8.32667e-16 -18.25
      vertex 48.7556 -4.3102e-16 -16.4411
    endloop
  endfacet
  facet normal 0.92388 8.15739e-17 0.382683
    outer loop
      vertex 48.7556 -50 -16.4411
      vertex 49.5048 -50 -18.25
      vertex 48.7556 -4.3102e-16 -16.4411
    endloop
  endfacet
  facet normal 0.991445 2.78233e-17 0.130526
    outer loop
      vertex 48.7556 -50 -16.4411
      vertex 48.7556 -4.3102e-16 -16.4411
      vertex 48.5 4.93038e-32 -14.5
    endloop
  endfacet
  facet normal 0.991445 2.78233e-17 0.130526
    outer loop
      vertex 48.5 -50 -14.5
      vertex 48.7556 -50 -16.4411
      vertex 48.5 4.93038e-32 -14.5
    endloop
  endfacet
  facet normal 0.793353 1.29765e-16 0.608762
    outer loop
      vertex 50.6967 -50 -19.8033
      vertex 50.6967 -1.17757e-15 -19.8033
      vertex 49.5048 -8.32667e-16 -18.25
    endloop
  endfacet
  facet normal 0.793353 1.29765e-16 0.608762
    outer loop
      vertex 49.5048 -50 -18.25
      vertex 50.6967 -50 -19.8033
      vertex 49.5048 -8.32667e-16 -18.25
    endloop
  endfacet
  facet normal 0.608762 1.69113e-16 0.793353
    outer loop
      vertex 52.25 -50 -20.9952
      vertex 52.25 -1.44222e-15 -20.9952
      vertex 50.6967 -1.17757e-15 -19.8033
    endloop
  endfacet
  facet normal 0.608762 1.69113e-16 0.793353
    outer loop
      vertex 50.6967 -50 -19.8033
      vertex 52.25 -50 -20.9952
      vertex 50.6967 -1.17757e-15 -19.8033
    endloop
  endfacet
  facet normal 0.382683 1.96937e-16 0.92388
    outer loop
      vertex 54.0589 -50 -21.7444
      vertex 54.0589 -1.60859e-15 -21.7444
      vertex 52.25 -1.44222e-15 -20.9952
    endloop
  endfacet
  facet normal 0.382683 1.96937e-16 0.92388
    outer loop
      vertex 52.25 -50 -20.9952
      vertex 54.0589 -50 -21.7444
      vertex 52.25 -1.44222e-15 -20.9952
    endloop
  endfacet
  facet normal 0.130526 2.11339e-16 0.991445
    outer loop
      vertex 56 -50 -22
      vertex 56 -1.66533e-15 -22
      vertex 54.0589 -1.60859e-15 -21.7444
    endloop
  endfacet
  facet normal 0.130526 2.11339e-16 0.991445
    outer loop
      vertex 54.0589 -50 -21.7444
      vertex 56 -50 -22
      vertex 54.0589 -1.60859e-15 -21.7444
    endloop
  endfacet
  facet normal -0.130526 2.11339e-16 0.991445
    outer loop
      vertex 57.9411 -50 -21.7444
      vertex 57.9411 -1.60859e-15 -21.7444
      vertex 56 -1.66533e-15 -22
    endloop
  endfacet
  facet normal -0.130526 2.11339e-16 0.991445
    outer loop
      vertex 56 -50 -22
      vertex 57.9411 -50 -21.7444
      vertex 56 -1.66533e-15 -22
    endloop
  endfacet
  facet normal -0.382683 1.96937e-16 0.92388
    outer loop
      vertex 59.75 -50 -20.9952
      vertex 59.75 -1.44222e-15 -20.9952
      vertex 57.9411 -1.60859e-15 -21.7444
    endloop
  endfacet
  facet normal -0.382683 1.96937e-16 0.92388
    outer loop
      vertex 57.9411 -50 -21.7444
      vertex 59.75 -50 -20.9952
      vertex 57.9411 -1.60859e-15 -21.7444
    endloop
  endfacet
  facet normal -0.608762 1.69113e-16 0.793353
    outer loop
      vertex 61.3033 -50 -19.8033
      vertex 61.3033 -1.17757e-15 -19.8033
      vertex 59.75 -1.44222e-15 -20.9952
    endloop
  endfacet
  facet normal -0.608762 1.69113e-16 0.793353
    outer loop
      vertex 59.75 -50 -20.9952
      vertex 61.3033 -50 -19.8033
      vertex 59.75 -1.44222e-15 -20.9952
    endloop
  endfacet
  facet normal -0.793353 1.29765e-16 0.608762
    outer loop
      vertex 62.4952 -8.32667e-16 -18.25
      vertex 61.3033 -1.17757e-15 -19.8033
      vertex 62.4952 -50 -18.25
    endloop
  endfacet
  facet normal -0.793353 1.28837e-16 0.608762
    outer loop
      vertex 62.4952 -50 -18.25
      vertex 61.3033 -1.17757e-15 -19.8033
      vertex 61.3033 -50 -19.8033
    endloop
  endfacet
  facet normal -0.92388 8.15739e-17 0.382683
    outer loop
      vertex 63.2444 -4.3102e-16 -16.4411
      vertex 62.4952 -8.32667e-16 -18.25
      vertex 63.2444 -50 -16.4411
    endloop
  endfacet
  facet normal -0.92388 7.96625e-17 0.382683
    outer loop
      vertex 63.2444 -50 -16.4411
      vertex 62.4952 -8.32667e-16 -18.25
      vertex 62.4952 -50 -18.25
    endloop
  endfacet
  facet normal -0.991445 2.78233e-17 0.130526
    outer loop
      vertex 63.5 4.93038e-32 -14.5
      vertex 63.2444 -4.3102e-16 -16.4411
      vertex 63.5 -50 -14.5
    endloop
  endfacet
  facet normal -0.991445 2.80767e-17 0.130526
    outer loop
      vertex 63.5 -50 -14.5
      vertex 63.2444 -4.3102e-16 -16.4411
      vertex 63.2444 -50 -16.4411
    endloop
  endfacet
  facet normal -0.991445 -2.78233e-17 -0.130526
    outer loop
      vertex 63.5 4.93038e-32 -14.5
      vertex 63.5 -50 -14.5
      vertex 63.2444 4.3102e-16 -12.5589
    endloop
  endfacet
  facet normal -0.991445 -3.24605e-17 -0.130526
    outer loop
      vertex 63.2444 4.3102e-16 -12.5589
      vertex 63.5 -50 -14.5
      vertex 63.2444 -50 -12.5589
    endloop
  endfacet
  facet normal -0.92388 -9.51695e-17 -0.382683
    outer loop
      vertex 63.2444 4.3102e-16 -12.5589
      vertex 63.2444 -50 -12.5589
      vertex 62.4952 8.32667e-16 -10.75
    endloop
  endfacet
  facet normal -0.92388 -8.15739e-17 -0.382683
    outer loop
      vertex 62.4952 8.32667e-16 -10.75
      vertex 63.2444 -50 -12.5589
      vertex 62.4952 -50 -10.75
    endloop
  endfacet
  facet normal -0.793353 -1.29765e-16 -0.608762
    outer loop
      vertex 62.4952 8.32667e-16 -10.75
      vertex 62.4952 -50 -10.75
      vertex 61.3033 1.17757e-15 -9.1967
    endloop
  endfacet
  facet normal -0.793353 -1.29765e-16 -0.608762
    outer loop
      vertex 61.3033 1.17757e-15 -9.1967
      vertex 62.4952 -50 -10.75
      vertex 61.3033 -50 -9.1967
    endloop
  endfacet
  facet normal -0.608762 -1.69113e-16 -0.793353
    outer loop
      vertex 61.3033 1.17757e-15 -9.1967
      vertex 61.3033 -50 -9.1967
      vertex 59.75 1.44222e-15 -8.00481
    endloop
  endfacet
  facet normal -0.608762 -1.69113e-16 -0.793353
    outer loop
      vertex 59.75 1.44222e-15 -8.00481
      vertex 61.3033 -50 -9.1967
      vertex 59.75 -50 -8.00481
    endloop
  endfacet
  facet normal -0.382683 -1.96937e-16 -0.92388
    outer loop
      vertex 59.75 1.44222e-15 -8.00481
      vertex 59.75 -50 -8.00481
      vertex 57.9411 1.60859e-15 -7.25556
    endloop
  endfacet
  facet normal -0.382683 -1.96937e-16 -0.92388
    outer loop
      vertex 57.9411 1.60859e-15 -7.25556
      vertex 59.75 -50 -8.00481
      vertex 57.9411 -50 -7.25556
    endloop
  endfacet
  facet normal -0.130526 -2.11339e-16 -0.991445
    outer loop
      vertex 57.9411 1.60859e-15 -7.25556
      vertex 57.9411 -50 -7.25556
      vertex 56 1.66533e-15 -7
    endloop
  endfacet
  facet normal -0.130526 -2.11339e-16 -0.991445
    outer loop
      vertex 56 1.66533e-15 -7
      vertex 57.9411 -50 -7.25556
      vertex 56 -50 -7
    endloop
  endfacet
  facet normal 0.130526 -2.11339e-16 -0.991445
    outer loop
      vertex 56 1.66533e-15 -7
      vertex 56 -50 -7
      vertex 54.0589 1.60859e-15 -7.25556
    endloop
  endfacet
  facet normal 0.130526 -2.11339e-16 -0.991445
    outer loop
      vertex 54.0589 1.60859e-15 -7.25556
      vertex 56 -50 -7
      vertex 54.0589 -50 -7.25556
    endloop
  endfacet
  facet normal 0.382683 -1.96937e-16 -0.92388
    outer loop
      vertex 54.0589 1.60859e-15 -7.25556
      vertex 54.0589 -50 -7.25556
      vertex 52.25 1.44222e-15 -8.00481
    endloop
  endfacet
  facet normal 0.382683 -1.96937e-16 -0.92388
    outer loop
      vertex 52.25 1.44222e-15 -8.00481
      vertex 54.0589 -50 -7.25556
      vertex 52.25 -50 -8.00481
    endloop
  endfacet
  facet normal 0.608762 -1.69113e-16 -0.793353
    outer loop
      vertex 52.25 1.44222e-15 -8.00481
      vertex 52.25 -50 -8.00481
      vertex 50.6967 1.17757e-15 -9.1967
    endloop
  endfacet
  facet normal 0.608762 -1.69113e-16 -0.793353
    outer loop
      vertex 50.6967 1.17757e-15 -9.1967
      vertex 52.25 -50 -8.00481
      vertex 50.6967 -50 -9.1967
    endloop
  endfacet
  facet normal 0.793353 -1.28836e-16 -0.608762
    outer loop
      vertex 49.5048 8.32667e-16 -10.75
      vertex 50.6967 1.17757e-15 -9.1967
      vertex 50.6967 -50 -9.1967
    endloop
  endfacet
  facet normal 0.793353 -1.29765e-16 -0.608762
    outer loop
      vertex 49.5048 -50 -10.75
      vertex 49.5048 8.32667e-16 -10.75
      vertex 50.6967 -50 -9.1967
    endloop
  endfacet
  facet normal 0.92388 -7.96625e-17 -0.382683
    outer loop
      vertex 48.7556 4.3102e-16 -12.5589
      vertex 49.5048 8.32667e-16 -10.75
      vertex 49.5048 -50 -10.75
    endloop
  endfacet
  facet normal 0.92388 -9.51695e-17 -0.382683
    outer loop
      vertex 48.7556 -50 -12.5589
      vertex 48.7556 4.3102e-16 -12.5589
      vertex 49.5048 -50 -10.75
    endloop
  endfacet
  facet normal 0.991445 -3.26057e-17 -0.130526
    outer loop
      vertex 48.5 4.93038e-32 -14.5
      vertex 48.7556 4.3102e-16 -12.5589
      vertex 48.7556 -50 -12.5589
    endloop
  endfacet
  facet normal 0.991445 -2.78233e-17 -0.130526
    outer loop
      vertex 48.5 -50 -14.5
      vertex 48.5 4.93038e-32 -14.5
      vertex 48.7556 -50 -12.5589
    endloop
  endfacet
  facet normal 0 1 -2.22045e-16
    outer loop
      vertex 46.5 0 -14.5
      vertex 46.7076 4.38574e-16 -12.5248
      vertex 46.7076 -4.38574e-16 -16.4752
    endloop
  endfacet
  facet normal 0 1 -2.22045e-16
    outer loop
      vertex 46.7076 -4.38574e-16 -16.4752
      vertex 46.7076 4.38574e-16 -12.5248
      vertex 47.3213 8.5798e-16 -10.636
    endloop
  endfacet
  facet normal 0 1 -2.22045e-16
    outer loop
      vertex 46.7076 -4.38574e-16 -16.4752
      vertex 47.3213 8.5798e-16 -10.636
      vertex 48.3143 1.23989e-15 -8.91604
    endloop
  endfacet
  facet normal 0 1 -2.22045e-16
    outer loop
      vertex 46.7076 -4.38574e-16 -16.4752
      vertex 48.3143 1.23989e-15 -8.91604
      vertex 49.6433 1.56761e-15 -7.44012
    endloop
  endfacet
  facet normal 0 1 -2.22045e-16
    outer loop
      vertex 46.7076 -4.38574e-16 -16.4752
      vertex 49.6433 1.56761e-15 -7.44012
      vertex 51.25 1.82681e-15 -6.27276
    endloop
  endfacet
  facet normal 1.31843e-31 1 -2.22045e-16
    outer loop
      vertex 50.6967 1.17757e-15 -9.1967
      vertex 51.25 1.82681e-15 -6.27276
      vertex 53.0643 2.00618e-15 -5.46496
    endloop
  endfacet
  facet normal 1.30794e-32 1 -2.22045e-16
    outer loop
      vertex 52.25 1.44222e-15 -8.00481
      vertex 53.0643 2.00618e-15 -5.46496
      vertex 55.007 2.09787e-15 -5.05204
    endloop
  endfacet
  facet normal -4.26243e-33 1 -2.22045e-16
    outer loop
      vertex 54.0589 1.60859e-15 -7.25556
      vertex 55.007 2.09787e-15 -5.05204
      vertex 56.993 2.09787e-15 -5.05204
    endloop
  endfacet
  facet normal 7.43234e-33 1 -2.22045e-16
    outer loop
      vertex 56 1.66533e-15 -7
      vertex 56.993 2.09787e-15 -5.05204
      vertex 58.9357 2.00618e-15 -5.46496
    endloop
  endfacet
  facet normal -3.55009e-32 1 -2.22045e-16
    outer loop
      vertex 57.9411 1.60859e-15 -7.25556
      vertex 58.9357 2.00618e-15 -5.46496
      vertex 60.75 1.82681e-15 -6.27276
    endloop
  endfacet
  facet normal -5.98749e-32 1 -2.22045e-16
    outer loop
      vertex 59.75 1.44222e-15 -8.00481
      vertex 60.75 1.82681e-15 -6.27276
      vertex 62.3567 1.56761e-15 -7.44012
    endloop
  endfacet
  facet normal -1.47731e-31 1 -2.22045e-16
    outer loop
      vertex 61.3033 1.17757e-15 -9.1967
      vertex 62.3567 1.56761e-15 -7.44012
      vertex 63.6857 1.23989e-15 -8.91604
    endloop
  endfacet
  facet normal -1.27522e-31 1 -2.22045e-16
    outer loop
      vertex 62.4952 8.32667e-16 -10.75
      vertex 63.6857 1.23989e-15 -8.91604
      vertex 64.6787 8.5798e-16 -10.636
    endloop
  endfacet
  facet normal -4.81759e-32 1 -2.22045e-16
    outer loop
      vertex 63.2444 4.3102e-16 -12.5589
      vertex 64.6787 8.5798e-16 -10.636
      vertex 65.2924 4.38574e-16 -12.5248
    endloop
  endfacet
  facet normal -1.72563e-31 1 -2.22045e-16
    outer loop
      vertex 63.5 4.93038e-32 -14.5
      vertex 65.2924 4.38574e-16 -12.5248
      vertex 65.5 0 -14.5
    endloop
  endfacet
  facet normal -3.12391e-31 1 -2.22045e-16
    outer loop
      vertex 63.2444 -4.3102e-16 -16.4411
      vertex 65.5 0 -14.5
      vertex 65.2924 -4.38574e-16 -16.4752
    endloop
  endfacet
  facet normal -1.80348e-31 1 -2.22045e-16
    outer loop
      vertex 62.4952 -8.32667e-16 -18.25
      vertex 64.6787 -8.5798e-16 -18.364
      vertex 63.6857 -1.23989e-15 -20.084
    endloop
  endfacet
  facet normal 8.86992e-32 1 -2.22045e-16
    outer loop
      vertex 61.3033 -1.17757e-15 -19.8033
      vertex 63.6857 -1.23989e-15 -20.084
      vertex 62.3567 -1.56761e-15 -21.5599
    endloop
  endfacet
  facet normal 8.64347e-32 1 -2.22045e-16
    outer loop
      vertex 59.75 -1.44222e-15 -20.9952
      vertex 62.3567 -1.56761e-15 -21.5599
      vertex 60.75 -1.82681e-15 -22.7272
    endloop
  endfacet
  facet normal -4.05691e-32 1 -2.22045e-16
    outer loop
      vertex 57.9411 -1.60859e-15 -21.7444
      vertex 60.75 -1.82681e-15 -22.7272
      vertex 58.9357 -2.00618e-15 -23.535
    endloop
  endfacet
  facet normal -3.88312e-32 1 -2.22045e-16
    outer loop
      vertex 56 -1.66533e-15 -22
      vertex 58.9357 -2.00618e-15 -23.535
      vertex 56.993 -2.09787e-15 -23.948
    endloop
  endfacet
  facet normal -3.39391e-33 1 -2.22045e-16
    outer loop
      vertex 52.25 -1.44222e-15 -20.9952
      vertex 56.993 -2.09787e-15 -23.948
      vertex 55.007 -2.09787e-15 -23.948
    endloop
  endfacet
  facet normal 6.89307e-32 1 -2.22045e-16
    outer loop
      vertex 46.7076 -4.38574e-16 -16.4752
      vertex 55.007 -2.09787e-15 -23.948
      vertex 53.0643 -2.00618e-15 -23.535
    endloop
  endfacet
  facet normal 0 1 -2.22045e-16
    outer loop
      vertex 46.7076 -4.38574e-16 -16.4752
      vertex 53.0643 -2.00618e-15 -23.535
      vertex 51.25 -1.82681e-15 -22.7272
    endloop
  endfacet
  facet normal -2.03171e-31 1 -2.22045e-16
    outer loop
      vertex 46.7076 -4.38574e-16 -16.4752
      vertex 51.25 -1.82681e-15 -22.7272
      vertex 49.6433 -1.56761e-15 -21.5599
    endloop
  endfacet
  facet normal -5.25789e-31 1 -2.22045e-16
    outer loop
      vertex 46.7076 -4.38574e-16 -16.4752
      vertex 49.6433 -1.56761e-15 -21.5599
      vertex 48.3143 -1.23989e-15 -20.084
    endloop
  endfacet
  facet normal -3.91489e-31 1 -2.22045e-16
    outer loop
      vertex 46.7076 -4.38574e-16 -16.4752
      vertex 48.3143 -1.23989e-15 -20.084
      vertex 47.3213 -8.5798e-16 -18.364
    endloop
  endfacet
  facet normal 3.14685e-31 1 -2.22045e-16
    outer loop
      vertex 48.7556 -4.3102e-16 -16.4411
      vertex 46.7076 -4.38574e-16 -16.4752
      vertex 48.5 4.93038e-32 -14.5
    endloop
  endfacet
  facet normal 3.03257e-31 1 -2.22045e-16
    outer loop
      vertex 49.5048 -8.32667e-16 -18.25
      vertex 46.7076 -4.38574e-16 -16.4752
      vertex 48.7556 -4.3102e-16 -16.4411
    endloop
  endfacet
  facet normal 8.68375e-31 1 -2.22045e-16
    outer loop
      vertex 50.6967 -1.17757e-15 -19.8033
      vertex 46.7076 -4.38574e-16 -16.4752
      vertex 49.5048 -8.32667e-16 -18.25
    endloop
  endfacet
  facet normal 3.24011e-31 1 -2.22045e-16
    outer loop
      vertex 54.0589 -1.60859e-15 -21.7444
      vertex 56.993 -2.09787e-15 -23.948
      vertex 52.25 -1.44222e-15 -20.9952
    endloop
  endfacet
  facet normal 7.25393e-31 1 -2.22045e-16
    outer loop
      vertex 46.7076 -4.38574e-16 -16.4752
      vertex 50.6967 -1.17757e-15 -19.8033
      vertex 55.007 -2.09787e-15 -23.948
    endloop
  endfacet
  facet normal -4.37454e-31 1 -2.22045e-16
    outer loop
      vertex 50.6967 -1.17757e-15 -19.8033
      vertex 52.25 -1.44222e-15 -20.9952
      vertex 55.007 -2.09787e-15 -23.948
    endloop
  endfacet
  facet normal -2.0248e-31 1 -2.22045e-16
    outer loop
      vertex 57.9411 -1.60859e-15 -21.7444
      vertex 58.9357 -2.00618e-15 -23.535
      vertex 56 -1.66533e-15 -22
    endloop
  endfacet
  facet normal 2.58552e-31 1 -2.22045e-16
    outer loop
      vertex 56 -1.66533e-15 -22
      vertex 56.993 -2.09787e-15 -23.948
      vertex 54.0589 -1.60859e-15 -21.7444
    endloop
  endfacet
  facet normal -1.72563e-31 1 -2.22045e-16
    outer loop
      vertex 63.5 4.93038e-32 -14.5
      vertex 65.5 0 -14.5
      vertex 63.2444 -4.3102e-16 -16.4411
    endloop
  endfacet
  facet normal -1.80712e-31 1 -2.22045e-16
    outer loop
      vertex 63.2444 -4.3102e-16 -16.4411
      vertex 64.6787 -8.5798e-16 -18.364
      vertex 62.4952 -8.32667e-16 -18.25
    endloop
  endfacet
  facet normal -3.13426e-31 1 -2.22045e-16
    outer loop
      vertex 63.2444 -4.3102e-16 -16.4411
      vertex 65.2924 -4.38574e-16 -16.4752
      vertex 64.6787 -8.5798e-16 -18.364
    endloop
  endfacet
  facet normal 1.02743e-31 1 -2.22045e-16
    outer loop
      vertex 62.4952 -8.32667e-16 -18.25
      vertex 63.6857 -1.23989e-15 -20.084
      vertex 61.3033 -1.17757e-15 -19.8033
    endloop
  endfacet
  facet normal 7.63689e-32 1 -2.22045e-16
    outer loop
      vertex 61.3033 -1.17757e-15 -19.8033
      vertex 62.3567 -1.56761e-15 -21.5599
      vertex 59.75 -1.44222e-15 -20.9952
    endloop
  endfacet
  facet normal -9.17948e-32 1 -2.22045e-16
    outer loop
      vertex 59.75 -1.44222e-15 -20.9952
      vertex 60.75 -1.82681e-15 -22.7272
      vertex 57.9411 -1.60859e-15 -21.7444
    endloop
  endfacet
  facet normal 1.89452e-32 1 -2.22045e-16
    outer loop
      vertex 54.0589 1.60859e-15 -7.25556
      vertex 56.993 2.09787e-15 -5.05204
      vertex 56 1.66533e-15 -7
    endloop
  endfacet
  facet normal -1.05754e-32 1 -2.22045e-16
    outer loop
      vertex 56 1.66533e-15 -7
      vertex 58.9357 2.00618e-15 -5.46496
      vertex 57.9411 1.60859e-15 -7.25556
    endloop
  endfacet
  facet normal -3.88732e-32 1 -2.22045e-16
    outer loop
      vertex 57.9411 1.60859e-15 -7.25556
      vertex 60.75 1.82681e-15 -6.27276
      vertex 59.75 1.44222e-15 -8.00481
    endloop
  endfacet
  facet normal 2.82318e-31 1 -2.22045e-16
    outer loop
      vertex 49.5048 8.32667e-16 -10.75
      vertex 51.25 1.82681e-15 -6.27276
      vertex 50.6967 1.17757e-15 -9.1967
    endloop
  endfacet
  facet normal 1.01331e-30 1 -2.22045e-16
    outer loop
      vertex 46.7076 -4.38574e-16 -16.4752
      vertex 51.25 1.82681e-15 -6.27276
      vertex 49.5048 8.32667e-16 -10.75
    endloop
  endfacet
  facet normal -2.09833e-30 1 -2.22045e-16
    outer loop
      vertex 46.7076 -4.38574e-16 -16.4752
      vertex 49.5048 8.32667e-16 -10.75
      vertex 48.7556 4.3102e-16 -12.5589
    endloop
  endfacet
  facet normal -3.49754e-32 1 -2.22045e-16
    outer loop
      vertex 59.75 1.44222e-15 -8.00481
      vertex 62.3567 1.56761e-15 -7.44012
      vertex 61.3033 1.17757e-15 -9.1967
    endloop
  endfacet
  facet normal 3.87986e-31 1 -2.22045e-16
    outer loop
      vertex 48.5 4.93038e-32 -14.5
      vertex 46.7076 -4.38574e-16 -16.4752
      vertex 48.7556 4.3102e-16 -12.5589
    endloop
  endfacet
  facet normal -1.15412e-31 1 -2.22045e-16
    outer loop
      vertex 50.6967 1.17757e-15 -9.1967
      vertex 53.0643 2.00618e-15 -5.46496
      vertex 52.25 1.44222e-15 -8.00481
    endloop
  endfacet
  facet normal 3.281e-32 1 -2.22045e-16
    outer loop
      vertex 52.25 1.44222e-15 -8.00481
      vertex 55.007 2.09787e-15 -5.05204
      vertex 54.0589 1.60859e-15 -7.25556
    endloop
  endfacet
  facet normal -1.52159e-31 1 -2.22045e-16
    outer loop
      vertex 61.3033 1.17757e-15 -9.1967
      vertex 63.6857 1.23989e-15 -8.91604
      vertex 62.4952 8.32667e-16 -10.75
    endloop
  endfacet
  facet normal -1.41077e-31 1 -2.22045e-16
    outer loop
      vertex 62.4952 8.32667e-16 -10.75
      vertex 64.6787 8.5798e-16 -10.636
      vertex 63.2444 4.3102e-16 -12.5589
    endloop
  endfacet
  facet normal -4.57615e-32 1 -2.22045e-16
    outer loop
      vertex 63.2444 4.3102e-16 -12.5589
      vertex 65.2924 4.38574e-16 -12.5248
      vertex 63.5 4.93038e-32 -14.5
    endloop
  endfacet
  facet normal -1 -0 0
    outer loop
      vertex -65.5 -50 -14.5
      vertex -65.5 -50 4.5
      vertex -65.5 0 -14.5
    endloop
  endfacet
  facet normal -1 0 -0
    outer loop
      vertex -65.5 0 -14.5
      vertex -65.5 -50 4.5
      vertex -65.5 4.21885e-15 4.5
    endloop
  endfacet
  facet normal 3.55808e-15 -1 3.7397e-16
    outer loop
      vertex -65.5 -50 4.5
      vertex -65.5 -50 -14.5
      vertex -65.2924 -50 -16.4752
    endloop
  endfacet
  facet normal 5.7398e-16 -1 3.31388e-16
    outer loop
      vertex -63.6857 -50 -20.084
      vertex -65.5 -50 4.5
      vertex -64.6787 -50 -18.364
    endloop
  endfacet
  facet normal 1.07533e-15 -1 3.49397e-16
    outer loop
      vertex -64.6787 -50 -18.364
      vertex -65.5 -50 4.5
      vertex -65.2924 -50 -16.4752
    endloop
  endfacet
  facet normal 1.68949e-14 -1 1.5359e-15
    outer loop
      vertex -65 -50 -1
      vertex -65.5 -50 4.5
      vertex -63.6857 -50 -20.084
    endloop
  endfacet
  facet normal -0 -1 -0
    outer loop
      vertex -65 -50 1
      vertex -46.5 -50 1
      vertex -65.5 -50 4.5
    endloop
  endfacet
  facet normal 8.81456e-15 -1 9.79396e-16
    outer loop
      vertex -63.5 -50 -14.5
      vertex -65 -50 -1
      vertex -63.6857 -50 -20.084
    endloop
  endfacet
  facet normal 0 -1 0
    outer loop
      vertex -62.4952 -50 -18.25
      vertex -63.2444 -50 -16.4411
      vertex -62.3567 -50 -21.5599
    endloop
  endfacet
  facet normal 0 -1 0
    outer loop
      vertex -46.5 -50 4.5
      vertex -65.5 -50 4.5
      vertex -46.5 -50 1
    endloop
  endfacet
  facet normal 0 -1 0
    outer loop
      vertex -62.3567 -50 -21.5599
      vertex -63.2444 -50 -16.4411
      vertex -63.6857 -50 -20.084
    endloop
  endfacet
  facet normal -1.44812e-14 -1 1.75396e-15
    outer loop
      vertex -63.2444 -50 -16.4411
      vertex -63.5 -50 -14.5
      vertex -63.6857 -50 -20.084
    endloop
  endfacet
  facet normal -4.8952e-15 -1 -2.02766e-15
    outer loop
      vertex -49.5048 -50 -10.75
      vertex -48.7556 -50 -12.5589
      vertex -46.5 -50 -14.5
    endloop
  endfacet
  facet normal 0 -1 0
    outer loop
      vertex -61.3033 -50 -19.8033
      vertex -62.4952 -50 -18.25
      vertex -60.75 -50 -22.7272
    endloop
  endfacet
  facet normal 0 -1 0
    outer loop
      vertex -49.5048 -50 -18.25
      vertex -49.6433 -50 -21.5599
      vertex -48.3143 -50 -20.084
    endloop
  endfacet
  facet normal 6.06697e-17 -1 3.65245e-15
    outer loop
      vertex -48.5 -50 -14.5
      vertex -48.7556 -50 -16.4411
      vertex -46.7076 -50 -16.4752
    endloop
  endfacet
  facet normal 0 -1 0
    outer loop
      vertex -49.5048 -50 -18.25
      vertex -50.6967 -50 -19.8033
      vertex -49.6433 -50 -21.5599
    endloop
  endfacet
  facet normal -1.02799e-15 -1 5.26328e-16
    outer loop
      vertex -46.5 -50 -1
      vertex -50.6967 -50 -9.1967
      vertex -46.5 -50 -14.5
    endloop
  endfacet
  facet normal 0 -1 0
    outer loop
      vertex -46.5 -50 -1
      vertex -52.25 -50 -8.00481
      vertex -50.6967 -50 -9.1967
    endloop
  endfacet
  facet normal -5.58023e-14 -1 -4.28186e-14
    outer loop
      vertex -50.6967 -50 -9.1967
      vertex -49.5048 -50 -10.75
      vertex -46.5 -50 -14.5
    endloop
  endfacet
  facet normal -2.88888e-15 -1 3.03634e-16
    outer loop
      vertex -46.5 -50 -14.5
      vertex -48.7556 -50 -12.5589
      vertex -46.7076 -50 -16.4752
    endloop
  endfacet
  facet normal 0 -1 0
    outer loop
      vertex -48.7556 -50 -16.4411
      vertex -49.5048 -50 -18.25
      vertex -47.3213 -50 -18.364
    endloop
  endfacet
  facet normal 0 -1 0
    outer loop
      vertex -46.7076 -50 -16.4752
      vertex -48.7556 -50 -16.4411
      vertex -47.3213 -50 -18.364
    endloop
  endfacet
  facet normal 0 -1 0
    outer loop
      vertex -47.3213 -50 -18.364
      vertex -49.5048 -50 -18.25
      vertex -48.3143 -50 -20.084
    endloop
  endfacet
  facet normal 0 -1 0
    outer loop
      vertex -51.25 -50 -22.7272
      vertex -52.25 -50 -20.9952
      vertex -53.0643 -50 -23.535
    endloop
  endfacet
  facet normal 0 -1 0
    outer loop
      vertex -53.0643 -50 -23.535
      vertex -54.0589 -50 -21.7444
      vertex -55.007 -50 -23.948
    endloop
  endfacet
  facet normal 0 -1 0
    outer loop
      vertex -55.007 -50 -23.948
      vertex -56 -50 -22
      vertex -56.993 -50 -23.948
    endloop
  endfacet
  facet normal 0 -1 0
    outer loop
      vertex -56.993 -50 -23.948
      vertex -57.9411 -50 -21.7444
      vertex -58.9357 -50 -23.535
    endloop
  endfacet
  facet normal 0 -1 0
    outer loop
      vertex -58.9357 -50 -23.535
      vertex -59.75 -50 -20.9952
      vertex -60.75 -50 -22.7272
    endloop
  endfacet
  facet normal 0 -1 0
    outer loop
      vertex -60.75 -50 -22.7272
      vertex -62.4952 -50 -18.25
      vertex -62.3567 -50 -21.5599
    endloop
  endfacet
  facet normal 0 -1 0
    outer loop
      vertex -65 -50 -1
      vertex -65 -50 1
      vertex -65.5 -50 4.5
    endloop
  endfacet
  facet normal -4.6369e-15 -1 -6.10458e-16
    outer loop
      vertex -48.7556 -50 -12.5589
      vertex -48.5 -50 -14.5
      vertex -46.7076 -50 -16.4752
    endloop
  endfacet
  facet normal 0 -1 0
    outer loop
      vertex -46.5 -50 -1
      vertex -54.0589 -50 -7.25556
      vertex -52.25 -50 -8.00481
    endloop
  endfacet
  facet normal 0 -1 0
    outer loop
      vertex -46.5 -50 -1
      vertex -56 -50 -7
      vertex -54.0589 -50 -7.25556
    endloop
  endfacet
  facet normal 0 -1 0
    outer loop
      vertex -50.6967 -50 -19.8033
      vertex -52.25 -50 -20.9952
      vertex -51.25 -50 -22.7272
    endloop
  endfacet
  facet normal 0 -1 0
    outer loop
      vertex -46.5 -50 -1
      vertex -57.9411 -50 -7.25556
      vertex -56 -50 -7
    endloop
  endfacet
  facet normal 0 -1 0
    outer loop
      vertex -50.6967 -50 -19.8033
      vertex -51.25 -50 -22.7272
      vertex -49.6433 -50 -21.5599
    endloop
  endfacet
  facet normal 0 -1 0
    outer loop
      vertex -54.0589 -50 -21.7444
      vertex -56 -50 -22
      vertex -55.007 -50 -23.948
    endloop
  endfacet
  facet normal 0 -1 0
    outer loop
      vertex -52.25 -50 -20.9952
      vertex -54.0589 -50 -21.7444
      vertex -53.0643 -50 -23.535
    endloop
  endfacet
  facet normal 0 -1 0
    outer loop
      vertex -46.5 -50 -1
      vertex -59.75 -50 -8.00481
      vertex -57.9411 -50 -7.25556
    endloop
  endfacet
  facet normal 0 -1 0
    outer loop
      vertex -57.9411 -50 -21.7444
      vertex -59.75 -50 -20.9952
      vertex -58.9357 -50 -23.535
    endloop
  endfacet
  facet normal 0 -1 0
    outer loop
      vertex -56 -50 -22
      vertex -57.9411 -50 -21.7444
      vertex -56.993 -50 -23.948
    endloop
  endfacet
  facet normal 0 -1 0
    outer loop
      vertex -59.75 -50 -20.9952
      vertex -61.3033 -50 -19.8033
      vertex -60.75 -50 -22.7272
    endloop
  endfacet
  facet normal 0 -1 -0
    outer loop
      vertex -63.5 -50 -14.5
      vertex -63.2444 -50 -12.5589
      vertex -65 -50 -1
    endloop
  endfacet
  facet normal 0 -1 0
    outer loop
      vertex -62.4952 -50 -10.75
      vertex -65 -50 -1
      vertex -63.2444 -50 -12.5589
    endloop
  endfacet
  facet normal 0 -1 0
    outer loop
      vertex -61.3033 -50 -9.1967
      vertex -65 -50 -1
      vertex -62.4952 -50 -10.75
    endloop
  endfacet
  facet normal 0 -1 0
    outer loop
      vertex -59.75 -50 -8.00481
      vertex -65 -50 -1
      vertex -61.3033 -50 -9.1967
    endloop
  endfacet
  facet normal 0 -1 0
    outer loop
      vertex -46.5 -50 -1
      vertex -65 -50 -1
      vertex -59.75 -50 -8.00481
    endloop
  endfacet
  facet normal -0.994522 -2.59952e-17 -0.104529
    outer loop
      vertex -65.5 -50 -14.5
      vertex -65.5 0 -14.5
      vertex -65.2924 -50 -16.4752
    endloop
  endfacet
  facet normal -0.994522 -2.97088e-17 -0.104529
    outer loop
      vertex -65.2924 -50 -16.4752
      vertex -65.5 0 -14.5
      vertex -65.2924 -4.38574e-16 -16.4752
    endloop
  endfacet
  facet normal 0 1 -2.22045e-16
    outer loop
      vertex -65.5 0 -14.5
      vertex -65.5 4.21885e-15 4.5
      vertex -65.2924 -4.38574e-16 -16.4752
    endloop
  endfacet
  facet normal 0 1 -2.22045e-16
    outer loop
      vertex -57.9411 1.60859e-15 -7.25556
      vertex -65.5 4.21885e-15 4.5
      vertex -46.5 4.21885e-15 4.5
    endloop
  endfacet
  facet normal -1.72563e-31 1 -2.22045e-16
    outer loop
      vertex -48.5 4.93038e-32 -14.5
      vertex -46.5 4.21885e-15 4.5
      vertex -46.5 0 -14.5
    endloop
  endfacet
  facet normal -3.1268e-31 1 -2.22045e-16
    outer loop
      vertex -48.7556 -4.3102e-16 -16.4411
      vertex -46.5 0 -14.5
      vertex -46.7076 -4.38574e-16 -16.4752
    endloop
  endfacet
  facet normal -1.80348e-31 1 -2.22045e-16
    outer loop
      vertex -49.5048 -8.32667e-16 -18.25
      vertex -47.3213 -8.5798e-16 -18.364
      vertex -48.3143 -1.23989e-15 -20.084
    endloop
  endfacet
  facet normal 8.86992e-32 1 -2.22045e-16
    outer loop
      vertex -50.6967 -1.17757e-15 -19.8033
      vertex -48.3143 -1.23989e-15 -20.084
      vertex -49.6433 -1.56761e-15 -21.5599
    endloop
  endfacet
  facet normal 8.64347e-32 1 -2.22045e-16
    outer loop
      vertex -52.25 -1.44222e-15 -20.9952
      vertex -49.6433 -1.56761e-15 -21.5599
      vertex -51.25 -1.82681e-15 -22.7272
    endloop
  endfacet
  facet normal -4.04871e-32 1 -2.22045e-16
    outer loop
      vertex -54.0589 -1.60859e-15 -21.7444
      vertex -51.25 -1.82681e-15 -22.7272
      vertex -53.0643 -2.00618e-15 -23.535
    endloop
  endfacet
  facet normal -5.81107e-32 1 -2.22045e-16
    outer loop
      vertex -56 -1.66533e-15 -22
      vertex -53.0643 -2.00618e-15 -23.535
      vertex -55.007 -2.09787e-15 -23.948
    endloop
  endfacet
  facet normal -7.11105e-33 1 -2.22045e-16
    outer loop
      vertex -59.75 -1.44222e-15 -20.9952
      vertex -55.007 -2.09787e-15 -23.948
      vertex -56.993 -2.09787e-15 -23.948
    endloop
  endfacet
  facet normal 6.89307e-32 1 -2.22045e-16
    outer loop
      vertex -65.2924 -4.38574e-16 -16.4752
      vertex -56.993 -2.09787e-15 -23.948
      vertex -58.9357 -2.00618e-15 -23.535
    endloop
  endfacet
  facet normal 0 1 -2.22045e-16
    outer loop
      vertex -65.2924 -4.38574e-16 -16.4752
      vertex -58.9357 -2.00618e-15 -23.535
      vertex -60.75 -1.82681e-15 -22.7272
    endloop
  endfacet
  facet normal -2.03171e-31 1 -2.22045e-16
    outer loop
      vertex -65.2924 -4.38574e-16 -16.4752
      vertex -60.75 -1.82681e-15 -22.7272
      vertex -62.3567 -1.56761e-15 -21.5599
    endloop
  endfacet
  facet normal -5.25789e-31 1 -2.22045e-16
    outer loop
      vertex -65.2924 -4.38574e-16 -16.4752
      vertex -62.3567 -1.56761e-15 -21.5599
      vertex -63.6857 -1.23989e-15 -20.084
    endloop
  endfacet
  facet normal -3.91489e-31 1 -2.22045e-16
    outer loop
      vertex -65.2924 -4.38574e-16 -16.4752
      vertex -63.6857 -1.23989e-15 -20.084
      vertex -64.6787 -8.5798e-16 -18.364
    endloop
  endfacet
  facet normal 3.14685e-31 1 -2.22045e-16
    outer loop
      vertex -63.2444 -4.3102e-16 -16.4411
      vertex -65.2924 -4.38574e-16 -16.4752
      vertex -63.5 4.93038e-32 -14.5
    endloop
  endfacet
  facet normal 3.03257e-31 1 -2.22045e-16
    outer loop
      vertex -62.4952 -8.32667e-16 -18.25
      vertex -65.2924 -4.38574e-16 -16.4752
      vertex -63.2444 -4.3102e-16 -16.4411
    endloop
  endfacet
  facet normal 8.68375e-31 1 -2.22045e-16
    outer loop
      vertex -61.3033 -1.17757e-15 -19.8033
      vertex -65.2924 -4.38574e-16 -16.4752
      vertex -62.4952 -8.32667e-16 -18.25
    endloop
  endfacet
  facet normal 3.24011e-31 1 -2.22045e-16
    outer loop
      vertex -57.9411 -1.60859e-15 -21.7444
      vertex -55.007 -2.09787e-15 -23.948
      vertex -59.75 -1.44222e-15 -20.9952
    endloop
  endfacet
  facet normal 7.25393e-31 1 -2.22045e-16
    outer loop
      vertex -65.2924 -4.38574e-16 -16.4752
      vertex -61.3033 -1.17757e-15 -19.8033
      vertex -56.993 -2.09787e-15 -23.948
    endloop
  endfacet
  facet normal -4.37454e-31 1 -2.22045e-16
    outer loop
      vertex -61.3033 -1.17757e-15 -19.8033
      vertex -59.75 -1.44222e-15 -20.9952
      vertex -56.993 -2.09787e-15 -23.948
    endloop
  endfacet
  facet normal -2.03088e-31 1 -2.22045e-16
    outer loop
      vertex -54.0589 -1.60859e-15 -21.7444
      vertex -53.0643 -2.00618e-15 -23.535
      vertex -56 -1.66533e-15 -22
    endloop
  endfacet
  facet normal 2.58552e-31 1 -2.22045e-16
    outer loop
      vertex -56 -1.66533e-15 -22
      vertex -55.007 -2.09787e-15 -23.948
      vertex -57.9411 -1.60859e-15 -21.7444
    endloop
  endfacet
  facet normal -1.72563e-31 1 -2.22045e-16
    outer loop
      vertex -48.5 4.93038e-32 -14.5
      vertex -46.5 0 -14.5
      vertex -48.7556 -4.3102e-16 -16.4411
    endloop
  endfacet
  facet normal 4.10502e-31 1 -2.22045e-16
    outer loop
      vertex -48.7556 4.3102e-16 -12.5589
      vertex -46.5 4.21885e-15 4.5
      vertex -48.5 4.93038e-32 -14.5
    endloop
  endfacet
  facet normal 5.351e-33 1 -2.22045e-16
    outer loop
      vertex -57.9411 1.60859e-15 -7.25556
      vertex -46.5 4.21885e-15 4.5
      vertex -56 1.66533e-15 -7
    endloop
  endfacet
  facet normal -3.82516e-31 1 -2.22045e-16
    outer loop
      vertex -49.5048 8.32667e-16 -10.75
      vertex -46.5 4.21885e-15 4.5
      vertex -48.7556 4.3102e-16 -12.5589
    endloop
  endfacet
  facet normal -5.06123e-32 1 -2.22045e-16
    outer loop
      vertex -50.6967 1.17757e-15 -9.1967
      vertex -46.5 4.21885e-15 4.5
      vertex -49.5048 8.32667e-16 -10.75
    endloop
  endfacet
  facet normal 7.33495e-32 1 -2.22045e-16
    outer loop
      vertex -52.25 1.44222e-15 -8.00481
      vertex -46.5 4.21885e-15 4.5
      vertex -50.6967 1.17757e-15 -9.1967
    endloop
  endfacet
  facet normal -1.58143e-32 1 -2.22045e-16
    outer loop
      vertex -54.0589 1.60859e-15 -7.25556
      vertex -46.5 4.21885e-15 4.5
      vertex -52.25 1.44222e-15 -8.00481
    endloop
  endfacet
  facet normal 0 1 -2.22045e-16
    outer loop
      vertex -56 1.66533e-15 -7
      vertex -46.5 4.21885e-15 4.5
      vertex -54.0589 1.60859e-15 -7.25556
    endloop
  endfacet
  facet normal 1.78944e-32 1 -2.22045e-16
    outer loop
      vertex -59.75 1.44222e-15 -8.00481
      vertex -65.5 4.21885e-15 4.5
      vertex -57.9411 1.60859e-15 -7.25556
    endloop
  endfacet
  facet normal -6.59988e-32 1 -2.22045e-16
    outer loop
      vertex -61.3033 1.17757e-15 -9.1967
      vertex -65.5 4.21885e-15 4.5
      vertex -59.75 1.44222e-15 -8.00481
    endloop
  endfacet
  facet normal 6.27428e-32 1 -2.22045e-16
    outer loop
      vertex -62.4952 8.32667e-16 -10.75
      vertex -65.5 4.21885e-15 4.5
      vertex -61.3033 1.17757e-15 -9.1967
    endloop
  endfacet
  facet normal -3.13426e-31 1 -2.22045e-16
    outer loop
      vertex -48.7556 -4.3102e-16 -16.4411
      vertex -46.7076 -4.38574e-16 -16.4752
      vertex -47.3213 -8.5798e-16 -18.364
    endloop
  endfacet
  facet normal 9.05922e-32 1 -2.22045e-16
    outer loop
      vertex -65.2924 -4.38574e-16 -16.4752
      vertex -65.5 4.21885e-15 4.5
      vertex -62.4952 8.32667e-16 -10.75
    endloop
  endfacet
  facet normal -2.09833e-30 1 -2.22045e-16
    outer loop
      vertex -65.2924 -4.38574e-16 -16.4752
      vertex -62.4952 8.32667e-16 -10.75
      vertex -63.2444 4.3102e-16 -12.5589
    endloop
  endfacet
  facet normal -1.80712e-31 1 -2.22045e-16
    outer loop
      vertex -48.7556 -4.3102e-16 -16.4411
      vertex -47.3213 -8.5798e-16 -18.364
      vertex -49.5048 -8.32667e-16 -18.25
    endloop
  endfacet
  facet normal 3.87986e-31 1 -2.22045e-16
    outer loop
      vertex -63.5 4.93038e-32 -14.5
      vertex -65.2924 -4.38574e-16 -16.4752
      vertex -63.2444 4.3102e-16 -12.5589
    endloop
  endfacet
  facet normal 1.02743e-31 1 -2.22045e-16
    outer loop
      vertex -49.5048 -8.32667e-16 -18.25
      vertex -48.3143 -1.23989e-15 -20.084
      vertex -50.6967 -1.17757e-15 -19.8033
    endloop
  endfacet
  facet normal 7.63689e-32 1 -2.22045e-16
    outer loop
      vertex -50.6967 -1.17757e-15 -19.8033
      vertex -49.6433 -1.56761e-15 -21.5599
      vertex -52.25 -1.44222e-15 -20.9952
    endloop
  endfacet
  facet normal -9.11202e-32 1 -2.22045e-16
    outer loop
      vertex -52.25 -1.44222e-15 -20.9952
      vertex -51.25 -1.82681e-15 -22.7272
      vertex -54.0589 -1.60859e-15 -21.7444
    endloop
  endfacet
  facet normal 0 2.13163e-16 1
    outer loop
      vertex -65.5 4.21885e-15 4.5
      vertex -65.5 -50 4.5
      vertex -46.5 -50 4.5
    endloop
  endfacet
  facet normal -0 2.13163e-16 1
    outer loop
      vertex -46.5 4.21885e-15 4.5
      vertex -65.5 4.21885e-15 4.5
      vertex -46.5 -50 4.5
    endloop
  endfacet
  facet normal 1 0 -0
    outer loop
      vertex -46.5 -50 -1
      vertex -46.5 -50 -14.5
      vertex -46.5 0 -14.5
    endloop
  endfacet
  facet normal 1 0 0
    outer loop
      vertex -46.5 0 -1
      vertex -46.5 -50 -1
      vertex -46.5 0 -14.5
    endloop
  endfacet
  facet normal 1 0 -0
    outer loop
      vertex -46.5 -50 4.5
      vertex -46.5 -50 1
      vertex -46.5 4.21885e-15 4.5
    endloop
  endfacet
  facet normal 1.57769e-16 0 0
    outer loop
      vertex -46.5 4.21885e-15 4.5
      vertex -46.5 0 -1
      vertex -46.5 0 -14.5
    endloop
  endfacet
  facet normal 2.78932e-16 0 0
    outer loop
      vertex -46.5 4.21885e-15 4.5
      vertex -46.5 0 1
      vertex -46.5 0 -1
    endloop
  endfacet
  facet normal 1 0 0
    outer loop
      vertex -46.5 -50 1
      vertex -46.5 0 1
      vertex -46.5 4.21885e-15 4.5
    endloop
  endfacet
  facet normal 0 -0 1
    outer loop
      vertex -65 -50 1
      vertex -65 -110 1
      vertex 65 -110 1
    endloop
  endfacet
  facet normal 0 -0 1
    outer loop
      vertex -46.5 -50 1
      vertex -65 -50 1
      vertex 65 -110 1
    endloop
  endfacet
  facet normal 0 0 1
    outer loop
      vertex 65 0 1
      vertex -46.5 -50 1
      vertex 65 -110 1
    endloop
  endfacet
  facet normal 0 -0 1
    outer loop
      vertex -46.5 0 1
      vertex -46.5 -50 1
      vertex 65 0 1
    endloop
  endfacet
  facet normal -1 -0 -0
    outer loop
      vertex -65 -110 -1
      vertex -65 -110 1
      vertex -65 -50 -1
    endloop
  endfacet
  facet normal -1 0 0
    outer loop
      vertex -65 -50 -1
      vertex -65 -110 1
      vertex -65 -50 1
    endloop
  endfacet
  facet normal -0 -0 -1
    outer loop
      vertex -65 -110 -1
      vertex -65 -50 -1
      vertex 65 -110 -1
    endloop
  endfacet
  facet normal 0 0 -1
    outer loop
      vertex 65 -110 -1
      vertex -65 -50 -1
      vertex -46.5 -50 -1
    endloop
  endfacet
  facet normal 0 0 -1
    outer loop
      vertex 65 -110 -1
      vertex -46.5 -50 -1
      vertex -46.5 0 -1
    endloop
  endfacet
  facet normal 0 0 -1
    outer loop
      vertex 65 -110 -1
      vertex -46.5 0 -1
      vertex 65 0 -1
    endloop
  endfacet
  facet normal 0.994522 -2.97379e-17 -0.104529
    outer loop
      vertex -46.5 -50 -14.5
      vertex -46.7076 -50 -16.4752
      vertex -46.7076 -4.38574e-16 -16.4752
    endloop
  endfacet
  facet normal 0.994522 -2.59952e-17 -0.104529
    outer loop
      vertex -46.5 0 -14.5
      vertex -46.5 -50 -14.5
      vertex -46.7076 -4.38574e-16 -16.4752
    endloop
  endfacet
  facet normal 0.951057 -6.64716e-17 -0.309017
    outer loop
      vertex -46.7076 -50 -16.4752
      vertex -47.3213 -50 -18.364
      vertex -47.3213 -8.5798e-16 -18.364
    endloop
  endfacet
  facet normal 0.951057 -8.78279e-17 -0.309017
    outer loop
      vertex -46.7076 -4.38574e-16 -16.4752
      vertex -46.7076 -50 -16.4752
      vertex -47.3213 -8.5798e-16 -18.364
    endloop
  endfacet
  facet normal 0.866025 -1.07554e-16 -0.5
    outer loop
      vertex -47.3213 -50 -18.364
      vertex -48.3143 -50 -20.084
      vertex -48.3143 -1.23989e-15 -20.084
    endloop
  endfacet
  facet normal 0.866025 -1.06581e-16 -0.5
    outer loop
      vertex -47.3213 -8.5798e-16 -18.364
      vertex -47.3213 -50 -18.364
      vertex -48.3143 -1.23989e-15 -20.084
    endloop
  endfacet
  facet normal 0.743145 -1.41612e-16 -0.66913
    outer loop
      vertex -48.3143 -50 -20.084
      vertex -49.6433 -50 -21.5599
      vertex -49.6433 -1.56761e-15 -21.5599
    endloop
  endfacet
  facet normal 0.743145 -1.42634e-16 -0.66913
    outer loop
      vertex -48.3143 -1.23989e-15 -20.084
      vertex -48.3143 -50 -20.084
      vertex -49.6433 -1.56761e-15 -21.5599
    endloop
  endfacet
  facet normal 0.587785 -2.29937e-16 -0.809017
    outer loop
      vertex -51.25 -50 -22.7272
      vertex -51.25 -1.82681e-15 -22.7272
      vertex -49.6433 -50 -21.5599
    endloop
  endfacet
  facet normal 0.587785 -1.72452e-16 -0.809017
    outer loop
      vertex -49.6433 -50 -21.5599
      vertex -51.25 -1.82681e-15 -22.7272
      vertex -49.6433 -1.56761e-15 -21.5599
    endloop
  endfacet
  facet normal 0.406737 -2.59645e-16 -0.913545
    outer loop
      vertex -53.0643 -50 -23.535
      vertex -53.0643 -2.00618e-15 -23.535
      vertex -51.25 -50 -22.7272
    endloop
  endfacet
  facet normal 0.406737 -2.59645e-16 -0.913545
    outer loop
      vertex -51.25 -50 -22.7272
      vertex -53.0643 -2.00618e-15 -23.535
      vertex -51.25 -1.82681e-15 -22.7272
    endloop
  endfacet
  facet normal 0.207912 -2.78006e-16 -0.978148
    outer loop
      vertex -55.007 -50 -23.948
      vertex -55.007 -2.09787e-15 -23.948
      vertex -53.0643 -50 -23.535
    endloop
  endfacet
  facet normal 0.207912 -2.78006e-16 -0.978148
    outer loop
      vertex -53.0643 -50 -23.535
      vertex -55.007 -2.09787e-15 -23.948
      vertex -53.0643 -2.00618e-15 -23.535
    endloop
  endfacet
  facet normal -0 -2.84217e-16 -1
    outer loop
      vertex -56.993 -50 -23.948
      vertex -56.993 -2.09787e-15 -23.948
      vertex -55.007 -50 -23.948
    endloop
  endfacet
  facet normal 0 -2.84217e-16 -1
    outer loop
      vertex -55.007 -50 -23.948
      vertex -56.993 -2.09787e-15 -23.948
      vertex -55.007 -2.09787e-15 -23.948
    endloop
  endfacet
  facet normal -0.207912 -2.78006e-16 -0.978148
    outer loop
      vertex -58.9357 -50 -23.535
      vertex -58.9357 -2.00618e-15 -23.535
      vertex -56.993 -50 -23.948
    endloop
  endfacet
  facet normal -0.207912 -2.78006e-16 -0.978148
    outer loop
      vertex -56.993 -50 -23.948
      vertex -58.9357 -2.00618e-15 -23.535
      vertex -56.993 -2.09787e-15 -23.948
    endloop
  endfacet
  facet normal -0.406737 -2.59645e-16 -0.913545
    outer loop
      vertex -60.75 -50 -22.7272
      vertex -60.75 -1.82681e-15 -22.7272
      vertex -58.9357 -50 -23.535
    endloop
  endfacet
  facet normal -0.406737 -2.59645e-16 -0.913545
    outer loop
      vertex -58.9357 -50 -23.535
      vertex -60.75 -1.82681e-15 -22.7272
      vertex -58.9357 -2.00618e-15 -23.535
    endloop
  endfacet
  facet normal -0.587785 -1.72452e-16 -0.809017
    outer loop
      vertex -62.3567 -50 -21.5599
      vertex -62.3567 -1.56761e-15 -21.5599
      vertex -60.75 -50 -22.7272
    endloop
  endfacet
  facet normal -0.587785 -2.29937e-16 -0.809017
    outer loop
      vertex -60.75 -50 -22.7272
      vertex -62.3567 -1.56761e-15 -21.5599
      vertex -60.75 -1.82681e-15 -22.7272
    endloop
  endfacet
  facet normal -0.743145 -1.42634e-16 -0.66913
    outer loop
      vertex -63.6857 -50 -20.084
      vertex -63.6857 -1.23989e-15 -20.084
      vertex -62.3567 -50 -21.5599
    endloop
  endfacet
  facet normal -0.743145 -1.42634e-16 -0.66913
    outer loop
      vertex -62.3567 -50 -21.5599
      vertex -63.6857 -1.23989e-15 -20.084
      vertex -62.3567 -1.56761e-15 -21.5599
    endloop
  endfacet
  facet normal -0.866025 -1.06581e-16 -0.5
    outer loop
      vertex -64.6787 -50 -18.364
      vertex -64.6787 -8.5798e-16 -18.364
      vertex -63.6857 -50 -20.084
    endloop
  endfacet
  facet normal -0.866025 -1.06581e-16 -0.5
    outer loop
      vertex -63.6857 -50 -20.084
      vertex -64.6787 -8.5798e-16 -18.364
      vertex -63.6857 -1.23989e-15 -20.084
    endloop
  endfacet
  facet normal -0.951057 -8.78279e-17 -0.309017
    outer loop
      vertex -65.2924 -50 -16.4752
      vertex -65.2924 -4.38574e-16 -16.4752
      vertex -64.6787 -50 -18.364
    endloop
  endfacet
  facet normal -0.951057 -6.58709e-17 -0.309017
    outer loop
      vertex -64.6787 -50 -18.364
      vertex -65.2924 -4.38574e-16 -16.4752
      vertex -64.6787 -8.5798e-16 -18.364
    endloop
  endfacet
  facet normal 0.991445 2.78233e-17 0.130526
    outer loop
      vertex -63.2444 -50 -16.4411
      vertex -63.2444 -4.3102e-16 -16.4411
      vertex -63.5 4.93038e-32 -14.5
    endloop
  endfacet
  facet normal 0.991445 2.78233e-17 0.130526
    outer loop
      vertex -63.5 -50 -14.5
      vertex -63.2444 -50 -16.4411
      vertex -63.5 4.93038e-32 -14.5
    endloop
  endfacet
  facet normal 0.92388 8.15739e-17 0.382683
    outer loop
      vertex -62.4952 -50 -18.25
      vertex -62.4952 -8.32667e-16 -18.25
      vertex -63.2444 -4.3102e-16 -16.4411
    endloop
  endfacet
  facet normal 0.92388 8.15739e-17 0.382683
    outer loop
      vertex -63.2444 -50 -16.4411
      vertex -62.4952 -50 -18.25
      vertex -63.2444 -4.3102e-16 -16.4411
    endloop
  endfacet
  facet normal 0.793353 1.29765e-16 0.608762
    outer loop
      vertex -61.3033 -50 -19.8033
      vertex -61.3033 -1.17757e-15 -19.8033
      vertex -62.4952 -8.32667e-16 -18.25
    endloop
  endfacet
  facet normal 0.793353 1.29765e-16 0.608762
    outer loop
      vertex -62.4952 -50 -18.25
      vertex -61.3033 -50 -19.8033
      vertex -62.4952 -8.32667e-16 -18.25
    endloop
  endfacet
  facet normal 0.608762 1.69113e-16 0.793353
    outer loop
      vertex -59.75 -50 -20.9952
      vertex -59.75 -1.44222e-15 -20.9952
      vertex -61.3033 -1.17757e-15 -19.8033
    endloop
  endfacet
  facet normal 0.608762 1.69113e-16 0.793353
    outer loop
      vertex -61.3033 -50 -19.8033
      vertex -59.75 -50 -20.9952
      vertex -61.3033 -1.17757e-15 -19.8033
    endloop
  endfacet
  facet normal 0.382683 1.96937e-16 0.92388
    outer loop
      vertex -57.9411 -50 -21.7444
      vertex -57.9411 -1.60859e-15 -21.7444
      vertex -59.75 -1.44222e-15 -20.9952
    endloop
  endfacet
  facet normal 0.382683 1.96937e-16 0.92388
    outer loop
      vertex -59.75 -50 -20.9952
      vertex -57.9411 -50 -21.7444
      vertex -59.75 -1.44222e-15 -20.9952
    endloop
  endfacet
  facet normal 0.130526 2.11339e-16 0.991445
    outer loop
      vertex -56 -50 -22
      vertex -56 -1.66533e-15 -22
      vertex -57.9411 -1.60859e-15 -21.7444
    endloop
  endfacet
  facet normal 0.130526 2.11339e-16 0.991445
    outer loop
      vertex -57.9411 -50 -21.7444
      vertex -56 -50 -22
      vertex -57.9411 -1.60859e-15 -21.7444
    endloop
  endfacet
  facet normal -0.130526 2.11339e-16 0.991445
    outer loop
      vertex -54.0589 -50 -21.7444
      vertex -54.0589 -1.60859e-15 -21.7444
      vertex -56 -1.66533e-15 -22
    endloop
  endfacet
  facet normal -0.130526 2.11339e-16 0.991445
    outer loop
      vertex -56 -50 -22
      vertex -54.0589 -50 -21.7444
      vertex -56 -1.66533e-15 -22
    endloop
  endfacet
  facet normal -0.382683 1.96937e-16 0.92388
    outer loop
      vertex -52.25 -50 -20.9952
      vertex -52.25 -1.44222e-15 -20.9952
      vertex -54.0589 -1.60859e-15 -21.7444
    endloop
  endfacet
  facet normal -0.382683 1.96937e-16 0.92388
    outer loop
      vertex -54.0589 -50 -21.7444
      vertex -52.25 -50 -20.9952
      vertex -54.0589 -1.60859e-15 -21.7444
    endloop
  endfacet
  facet normal -0.608762 1.69113e-16 0.793353
    outer loop
      vertex -50.6967 -50 -19.8033
      vertex -50.6967 -1.17757e-15 -19.8033
      vertex -52.25 -1.44222e-15 -20.9952
    endloop
  endfacet
  facet normal -0.608762 1.69113e-16 0.793353
    outer loop
      vertex -52.25 -50 -20.9952
      vertex -50.6967 -50 -19.8033
      vertex -52.25 -1.44222e-15 -20.9952
    endloop
  endfacet
  facet normal -0.793353 1.29765e-16 0.608762
    outer loop
      vertex -49.5048 -8.32667e-16 -18.25
      vertex -50.6967 -1.17757e-15 -19.8033
      vertex -49.5048 -50 -18.25
    endloop
  endfacet
  facet normal -0.793353 1.28837e-16 0.608762
    outer loop
      vertex -49.5048 -50 -18.25
      vertex -50.6967 -1.17757e-15 -19.8033
      vertex -50.6967 -50 -19.8033
    endloop
  endfacet
  facet normal -0.92388 8.15739e-17 0.382683
    outer loop
      vertex -48.7556 -4.3102e-16 -16.4411
      vertex -49.5048 -8.32667e-16 -18.25
      vertex -48.7556 -50 -16.4411
    endloop
  endfacet
  facet normal -0.92388 7.96625e-17 0.382683
    outer loop
      vertex -48.7556 -50 -16.4411
      vertex -49.5048 -8.32667e-16 -18.25
      vertex -49.5048 -50 -18.25
    endloop
  endfacet
  facet normal -0.991445 2.78233e-17 0.130526
    outer loop
      vertex -48.5 4.93038e-32 -14.5
      vertex -48.7556 -4.3102e-16 -16.4411
      vertex -48.5 -50 -14.5
    endloop
  endfacet
  facet normal -0.991445 2.8077e-17 0.130526
    outer loop
      vertex -48.5 -50 -14.5
      vertex -48.7556 -4.3102e-16 -16.4411
      vertex -48.7556 -50 -16.4411
    endloop
  endfacet
  facet normal -0.991445 -2.78233e-17 -0.130526
    outer loop
      vertex -48.5 4.93038e-32 -14.5
      vertex -48.5 -50 -14.5
      vertex -48.7556 4.3102e-16 -12.5589
    endloop
  endfacet
  facet normal -0.991445 -3.24605e-17 -0.130526
    outer loop
      vertex -48.7556 4.3102e-16 -12.5589
      vertex -48.5 -50 -14.5
      vertex -48.7556 -50 -12.5589
    endloop
  endfacet
  facet normal -0.92388 -9.51695e-17 -0.382683
    outer loop
      vertex -48.7556 4.3102e-16 -12.5589
      vertex -48.7556 -50 -12.5589
      vertex -49.5048 8.32667e-16 -10.75
    endloop
  endfacet
  facet normal -0.92388 -8.15739e-17 -0.382683
    outer loop
      vertex -49.5048 8.32667e-16 -10.75
      vertex -48.7556 -50 -12.5589
      vertex -49.5048 -50 -10.75
    endloop
  endfacet
  facet normal -0.793353 -1.29765e-16 -0.608762
    outer loop
      vertex -49.5048 8.32667e-16 -10.75
      vertex -49.5048 -50 -10.75
      vertex -50.6967 1.17757e-15 -9.1967
    endloop
  endfacet
  facet normal -0.793353 -1.29765e-16 -0.608762
    outer loop
      vertex -50.6967 1.17757e-15 -9.1967
      vertex -49.5048 -50 -10.75
      vertex -50.6967 -50 -9.1967
    endloop
  endfacet
  facet normal -0.608762 -1.69113e-16 -0.793353
    outer loop
      vertex -50.6967 1.17757e-15 -9.1967
      vertex -50.6967 -50 -9.1967
      vertex -52.25 1.44222e-15 -8.00481
    endloop
  endfacet
  facet normal -0.608762 -1.69113e-16 -0.793353
    outer loop
      vertex -52.25 1.44222e-15 -8.00481
      vertex -50.6967 -50 -9.1967
      vertex -52.25 -50 -8.00481
    endloop
  endfacet
  facet normal -0.382683 -1.96937e-16 -0.92388
    outer loop
      vertex -52.25 1.44222e-15 -8.00481
      vertex -52.25 -50 -8.00481
      vertex -54.0589 1.60859e-15 -7.25556
    endloop
  endfacet
  facet normal -0.382683 -1.96937e-16 -0.92388
    outer loop
      vertex -54.0589 1.60859e-15 -7.25556
      vertex -52.25 -50 -8.00481
      vertex -54.0589 -50 -7.25556
    endloop
  endfacet
  facet normal -0.130526 -2.11339e-16 -0.991445
    outer loop
      vertex -54.0589 1.60859e-15 -7.25556
      vertex -54.0589 -50 -7.25556
      vertex -56 1.66533e-15 -7
    endloop
  endfacet
  facet normal -0.130526 -2.11339e-16 -0.991445
    outer loop
      vertex -56 1.66533e-15 -7
      vertex -54.0589 -50 -7.25556
      vertex -56 -50 -7
    endloop
  endfacet
  facet normal 0.130526 -2.11339e-16 -0.991445
    outer loop
      vertex -56 1.66533e-15 -7
      vertex -56 -50 -7
      vertex -57.9411 1.60859e-15 -7.25556
    endloop
  endfacet
  facet normal 0.130526 -2.11339e-16 -0.991445
    outer loop
      vertex -57.9411 1.60859e-15 -7.25556
      vertex -56 -50 -7
      vertex -57.9411 -50 -7.25556
    endloop
  endfacet
  facet normal 0.382683 -1.96937e-16 -0.92388
    outer loop
      vertex -57.9411 1.60859e-15 -7.25556
      vertex -57.9411 -50 -7.25556
      vertex -59.75 1.44222e-15 -8.00481
    endloop
  endfacet
  facet normal 0.382683 -1.96937e-16 -0.92388
    outer loop
      vertex -59.75 1.44222e-15 -8.00481
      vertex -57.9411 -50 -7.25556
      vertex -59.75 -50 -8.00481
    endloop
  endfacet
  facet normal 0.608762 -1.69113e-16 -0.793353
    outer loop
      vertex -59.75 1.44222e-15 -8.00481
      vertex -59.75 -50 -8.00481
      vertex -61.3033 1.17757e-15 -9.1967
    endloop
  endfacet
  facet normal 0.608762 -1.69113e-16 -0.793353
    outer loop
      vertex -61.3033 1.17757e-15 -9.1967
      vertex -59.75 -50 -8.00481
      vertex -61.3033 -50 -9.1967
    endloop
  endfacet
  facet normal 0.793353 -1.28836e-16 -0.608762
    outer loop
      vertex -62.4952 8.32667e-16 -10.75
      vertex -61.3033 1.17757e-15 -9.1967
      vertex -61.3033 -50 -9.1967
    endloop
  endfacet
  facet normal 0.793353 -1.29765e-16 -0.608762
    outer loop
      vertex -62.4952 -50 -10.75
      vertex -62.4952 8.32667e-16 -10.75
      vertex -61.3033 -50 -9.1967
    endloop
  endfacet
  facet normal 0.92388 -7.96625e-17 -0.382683
    outer loop
      vertex -63.2444 4.3102e-16 -12.5589
      vertex -62.4952 8.32667e-16 -10.75
      vertex -62.4952 -50 -10.75
    endloop
  endfacet
  facet normal 0.92388 -9.51695e-17 -0.382683
    outer loop
      vertex -63.2444 -50 -12.5589
      vertex -63.2444 4.3102e-16 -12.5589
      vertex -62.4952 -50 -10.75
    endloop
  endfacet
  facet normal 0.991445 -3.26054e-17 -0.130526
    outer loop
      vertex -63.5 4.93038e-32 -14.5
      vertex -63.2444 4.3102e-16 -12.5589
      vertex -63.2444 -50 -12.5589
    endloop
  endfacet
  facet normal 0.991445 -2.78233e-17 -0.130526
    outer loop
      vertex -63.5 -50 -14.5
      vertex -63.5 4.93038e-32 -14.5
      vertex -63.2444 -50 -12.5589
    endloop
  endfacet
  facet normal 0 1 0
    outer loop
      vertex -46.5 0 -1
      vertex -46.5 0 1
      vertex 65 0 -1
    endloop
  endfacet
  facet normal 0 1 0
    outer loop
      vertex 65 0 -1
      vertex -46.5 0 1
      vertex 65 0 1
    endloop
  endfacet
  facet normal 1 0 -0
    outer loop
      vertex 65 -110 1
      vertex 65 -110 -1
      vertex 65 0 -1
    endloop
  endfacet
  facet normal 1 0 0
    outer loop
      vertex 65 0 1
      vertex 65 -110 1
      vertex 65 0 -1
    endloop
  endfacet
  facet normal 0 -1 0
    outer loop
      vertex -65 -110 1
      vertex -65 -110 -1
      vertex 65 -110 -1
    endloop
  endfacet
  facet normal 0 -1 0
    outer loop
      vertex 65 -110 1
      vertex -65 -110 1
      vertex 65 -110 -1
    endloop
  endfacet
endsolid OpenSCAD_Model
