solid OpenSCAD_Model
  facet normal -1 0 -0
    outer loop
      vertex -79.5 -14.5 -3.21965e-15
      vertex -79.5 -14.5 50
      vertex -79.5 1 50
    endloop
  endfacet
  facet normal -1 0 0
    outer loop
      vertex -79.5 -14.5 -3.21965e-15
      vertex -79.5 1 50
      vertex -79.5 1 2.22045e-16
    endloop
  endfacet
  facet normal -0.994522 -0.104529 2.59589e-16
    outer loop
      vertex -79.2924 -16.4752 50
      vertex -79.5 -14.5 50
      vertex -79.5 -14.5 -3.21965e-15
    endloop
  endfacet
  facet normal -0.994522 -0.104529 0
    outer loop
      vertex -79.2924 -16.4752 50
      vertex -79.5 -14.5 -3.21965e-15
      vertex -79.2924 -16.4752 -3.21965e-15
    endloop
  endfacet
  facet normal -0 0 -1
    outer loop
      vertex -79.5 -14.5 -3.21965e-15
      vertex -79.2924 -12.5248 -3.21965e-15
      vertex -79.2924 -16.4752 -3.21965e-15
    endloop
  endfacet
  facet normal 0 -0 -1
    outer loop
      vertex -79.2924 -16.4752 -3.21965e-15
      vertex -79.2924 -12.5248 -3.21965e-15
      vertex -78.6787 -10.636 -3.21965e-15
    endloop
  endfacet
  facet normal 0 0 -1
    outer loop
      vertex -79.2924 -16.4752 -3.21965e-15
      vertex -78.6787 -10.636 -3.21965e-15
      vertex -77.6857 -8.91604 -3.21965e-15
    endloop
  endfacet
  facet normal 0 0 -1
    outer loop
      vertex -79.2924 -16.4752 -3.21965e-15
      vertex -77.6857 -8.91604 -3.21965e-15
      vertex -76.3567 -7.44012 -3.21965e-15
    endloop
  endfacet
  facet normal 0 -0 -1
    outer loop
      vertex -75.9881 -8.69502 -3.21965e-15
      vertex -76.3567 -7.44012 -3.21965e-15
      vertex -74.75 -6.27276 -3.21965e-15
    endloop
  endfacet
  facet normal 0 -0 -1
    outer loop
      vertex -74.5445 -7.41613 -3.21965e-15
      vertex -74.75 -6.27276 -3.21965e-15
      vertex -72.9357 -5.46496 -3.21965e-15
    endloop
  endfacet
  facet normal 0 -0 -1
    outer loop
      vertex -72.8368 -6.51987 -3.21965e-15
      vertex -72.9357 -5.46496 -3.21965e-15
      vertex -70.993 -5.05204 -3.21965e-15
    endloop
  endfacet
  facet normal 0 -0 -1
    outer loop
      vertex -70.9643 -6.05833 -3.21965e-15
      vertex -70.993 -5.05204 -3.21965e-15
      vertex -69.007 -5.05204 -3.21965e-15
    endloop
  endfacet
  facet normal 0 0 -1
    outer loop
      vertex -69.0357 -6.05833 -3.21965e-15
      vertex -69.007 -5.05204 -3.21965e-15
      vertex -67.0643 -5.46496 -3.21965e-15
    endloop
  endfacet
  facet normal 0 0 -1
    outer loop
      vertex -67.1632 -6.51987 -3.21965e-15
      vertex -67.0643 -5.46496 -3.21965e-15
      vertex -65.25 -6.27276 -3.21965e-15
    endloop
  endfacet
  facet normal -0 0 -1
    outer loop
      vertex -65.4555 -7.41613 -3.21965e-15
      vertex -65.25 -6.27276 -3.21965e-15
      vertex -63.6433 -7.44012 -3.21965e-15
    endloop
  endfacet
  facet normal -0 0 -1
    outer loop
      vertex -64.0119 -8.69502 -3.21965e-15
      vertex -63.6433 -7.44012 -3.21965e-15
      vertex -62.3143 -8.91604 -3.21965e-15
    endloop
  endfacet
  facet normal -0 0 -1
    outer loop
      vertex -62.9164 -10.2822 -3.21965e-15
      vertex -62.3143 -8.91604 -3.21965e-15
      vertex -61.3213 -10.636 -3.21965e-15
    endloop
  endfacet
  facet normal -0 0 -1
    outer loop
      vertex -62.2325 -12.0855 -3.21965e-15
      vertex -61.3213 -10.636 -3.21965e-15
      vertex -60.7076 -12.5248 -3.21965e-15
    endloop
  endfacet
  facet normal -0 0 -1
    outer loop
      vertex -62 -14 -3.21965e-15
      vertex -60.7076 -12.5248 -3.21965e-15
      vertex -60.5 -14.5 -3.21965e-15
    endloop
  endfacet
  facet normal -0 0 -1
    outer loop
      vertex -62.2325 -15.9145 -3.21965e-15
      vertex -60.5 -14.5 -3.21965e-15
      vertex -60.7076 -16.4752 -3.21965e-15
    endloop
  endfacet
  facet normal -0 0 -1
    outer loop
      vertex -62.9164 -17.7178 -3.21965e-15
      vertex -60.7076 -16.4752 -3.21965e-15
      vertex -61.3213 -18.364 -3.21965e-15
    endloop
  endfacet
  facet normal -0 0 -1
    outer loop
      vertex -64.0119 -19.305 -3.21965e-15
      vertex -61.3213 -18.364 -3.21965e-15
      vertex -62.3143 -20.084 -3.21965e-15
    endloop
  endfacet
  facet normal -0 0 -1
    outer loop
      vertex -65.4555 -20.5839 -3.21965e-15
      vertex -62.3143 -20.084 -3.21965e-15
      vertex -63.6433 -21.5599 -3.21965e-15
    endloop
  endfacet
  facet normal 0 0 -1
    outer loop
      vertex -67.1632 -21.4801 -3.21965e-15
      vertex -63.6433 -21.5599 -3.21965e-15
      vertex -65.25 -22.7272 -3.21965e-15
    endloop
  endfacet
  facet normal 0 0 -1
    outer loop
      vertex -69.0357 -21.9417 -3.21965e-15
      vertex -65.25 -22.7272 -3.21965e-15
      vertex -67.0643 -23.535 -3.21965e-15
    endloop
  endfacet
  facet normal 0 0 -1
    outer loop
      vertex -70.9643 -21.9417 -3.21965e-15
      vertex -67.0643 -23.535 -3.21965e-15
      vertex -69.007 -23.948 -3.21965e-15
    endloop
  endfacet
  facet normal 0 0 -1
    outer loop
      vertex -74.5445 -20.5839 -3.21965e-15
      vertex -69.007 -23.948 -3.21965e-15
      vertex -70.993 -23.948 -3.21965e-15
    endloop
  endfacet
  facet normal 0 0 -1
    outer loop
      vertex -79.2924 -16.4752 -3.21965e-15
      vertex -70.993 -23.948 -3.21965e-15
      vertex -72.9357 -23.535 -3.21965e-15
    endloop
  endfacet
  facet normal 0 0 -1
    outer loop
      vertex -79.2924 -16.4752 -3.21965e-15
      vertex -72.9357 -23.535 -3.21965e-15
      vertex -74.75 -22.7272 -3.21965e-15
    endloop
  endfacet
  facet normal 0 0 -1
    outer loop
      vertex -79.2924 -16.4752 -3.21965e-15
      vertex -74.75 -22.7272 -3.21965e-15
      vertex -76.3567 -21.5599 -3.21965e-15
    endloop
  endfacet
  facet normal 0 0 -1
    outer loop
      vertex -79.2924 -16.4752 -3.21965e-15
      vertex -76.3567 -21.5599 -3.21965e-15
      vertex -77.6857 -20.084 -3.21965e-15
    endloop
  endfacet
  facet normal 0 0 -1
    outer loop
      vertex -79.2924 -16.4752 -3.21965e-15
      vertex -77.6857 -20.084 -3.21965e-15
      vertex -78.6787 -18.364 -3.21965e-15
    endloop
  endfacet
  facet normal 0 0 -1
    outer loop
      vertex -77.7675 -15.9145 -3.21965e-15
      vertex -79.2924 -16.4752 -3.21965e-15
      vertex -78 -14 -3.21965e-15
    endloop
  endfacet
  facet normal 0 0 -1
    outer loop
      vertex -77.0836 -17.7178 -3.21965e-15
      vertex -79.2924 -16.4752 -3.21965e-15
      vertex -77.7675 -15.9145 -3.21965e-15
    endloop
  endfacet
  facet normal 0 0 -1
    outer loop
      vertex -75.9881 -19.305 -3.21965e-15
      vertex -79.2924 -16.4752 -3.21965e-15
      vertex -77.0836 -17.7178 -3.21965e-15
    endloop
  endfacet
  facet normal 0 0 -1
    outer loop
      vertex -70.9643 -21.9417 -3.21965e-15
      vertex -69.007 -23.948 -3.21965e-15
      vertex -72.8368 -21.4801 -3.21965e-15
    endloop
  endfacet
  facet normal 0 0 -1
    outer loop
      vertex -79.2924 -16.4752 -3.21965e-15
      vertex -75.9881 -19.305 -3.21965e-15
      vertex -70.993 -23.948 -3.21965e-15
    endloop
  endfacet
  facet normal 0 0 -1
    outer loop
      vertex -72.8368 -21.4801 -3.21965e-15
      vertex -69.007 -23.948 -3.21965e-15
      vertex -74.5445 -20.5839 -3.21965e-15
    endloop
  endfacet
  facet normal 0 0 -1
    outer loop
      vertex -75.9881 -19.305 -3.21965e-15
      vertex -74.5445 -20.5839 -3.21965e-15
      vertex -70.993 -23.948 -3.21965e-15
    endloop
  endfacet
  facet normal 0 0 -1
    outer loop
      vertex -67.1632 -21.4801 -3.21965e-15
      vertex -65.25 -22.7272 -3.21965e-15
      vertex -69.0357 -21.9417 -3.21965e-15
    endloop
  endfacet
  facet normal 0 0 -1
    outer loop
      vertex -69.0357 -21.9417 -3.21965e-15
      vertex -67.0643 -23.535 -3.21965e-15
      vertex -70.9643 -21.9417 -3.21965e-15
    endloop
  endfacet
  facet normal 0 0 -1
    outer loop
      vertex -64.0119 -8.69502 -3.21965e-15
      vertex -62.3143 -8.91604 -3.21965e-15
      vertex -62.9164 -10.2822 -3.21965e-15
    endloop
  endfacet
  facet normal 0 0 -1
    outer loop
      vertex -62.9164 -10.2822 -3.21965e-15
      vertex -61.3213 -10.636 -3.21965e-15
      vertex -62.2325 -12.0855 -3.21965e-15
    endloop
  endfacet
  facet normal 0 0 -1
    outer loop
      vertex -62.2325 -12.0855 -3.21965e-15
      vertex -60.7076 -12.5248 -3.21965e-15
      vertex -62 -14 -3.21965e-15
    endloop
  endfacet
  facet normal 0 0 -1
    outer loop
      vertex -62 -14 -3.21965e-15
      vertex -60.5 -14.5 -3.21965e-15
      vertex -62.2325 -15.9145 -3.21965e-15
    endloop
  endfacet
  facet normal 0 0 -1
    outer loop
      vertex -62.2325 -15.9145 -3.21965e-15
      vertex -60.7076 -16.4752 -3.21965e-15
      vertex -62.9164 -17.7178 -3.21965e-15
    endloop
  endfacet
  facet normal 0 0 -1
    outer loop
      vertex -62.9164 -17.7178 -3.21965e-15
      vertex -61.3213 -18.364 -3.21965e-15
      vertex -64.0119 -19.305 -3.21965e-15
    endloop
  endfacet
  facet normal 0 0 -1
    outer loop
      vertex -64.0119 -19.305 -3.21965e-15
      vertex -62.3143 -20.084 -3.21965e-15
      vertex -65.4555 -20.5839 -3.21965e-15
    endloop
  endfacet
  facet normal 0 0 -1
    outer loop
      vertex -75.9881 -8.69502 -3.21965e-15
      vertex -74.75 -6.27276 -3.21965e-15
      vertex -74.5445 -7.41613 -3.21965e-15
    endloop
  endfacet
  facet normal 0 0 -1
    outer loop
      vertex -77.0836 -10.2822 -3.21965e-15
      vertex -76.3567 -7.44012 -3.21965e-15
      vertex -75.9881 -8.69502 -3.21965e-15
    endloop
  endfacet
  facet normal 0 0 -1
    outer loop
      vertex -77.7675 -12.0855 -3.21965e-15
      vertex -76.3567 -7.44012 -3.21965e-15
      vertex -77.0836 -10.2822 -3.21965e-15
    endloop
  endfacet
  facet normal 0 0 -1
    outer loop
      vertex -74.5445 -7.41613 -3.21965e-15
      vertex -72.9357 -5.46496 -3.21965e-15
      vertex -72.8368 -6.51987 -3.21965e-15
    endloop
  endfacet
  facet normal 0 0 -1
    outer loop
      vertex -79.2924 -16.4752 -3.21965e-15
      vertex -76.3567 -7.44012 -3.21965e-15
      vertex -77.7675 -12.0855 -3.21965e-15
    endloop
  endfacet
  facet normal 0 -0 -1
    outer loop
      vertex -78 -14 -3.21965e-15
      vertex -79.2924 -16.4752 -3.21965e-15
      vertex -77.7675 -12.0855 -3.21965e-15
    endloop
  endfacet
  facet normal 0 0 -1
    outer loop
      vertex -72.8368 -6.51987 -3.21965e-15
      vertex -70.993 -5.05204 -3.21965e-15
      vertex -70.9643 -6.05833 -3.21965e-15
    endloop
  endfacet
  facet normal -0 0 -1
    outer loop
      vertex -70.9643 -6.05833 -3.21965e-15
      vertex -69.007 -5.05204 -3.21965e-15
      vertex -69.0357 -6.05833 -3.21965e-15
    endloop
  endfacet
  facet normal -0 0 -1
    outer loop
      vertex -69.0357 -6.05833 -3.21965e-15
      vertex -67.0643 -5.46496 -3.21965e-15
      vertex -67.1632 -6.51987 -3.21965e-15
    endloop
  endfacet
  facet normal -0 0 -1
    outer loop
      vertex -67.1632 -6.51987 -3.21965e-15
      vertex -65.25 -6.27276 -3.21965e-15
      vertex -65.4555 -7.41613 -3.21965e-15
    endloop
  endfacet
  facet normal 0 0 -1
    outer loop
      vertex -65.4555 -7.41613 -3.21965e-15
      vertex -63.6433 -7.44012 -3.21965e-15
      vertex -64.0119 -8.69502 -3.21965e-15
    endloop
  endfacet
  facet normal 0 0 -1
    outer loop
      vertex -65.4555 -20.5839 -3.21965e-15
      vertex -63.6433 -21.5599 -3.21965e-15
      vertex -67.1632 -21.4801 -3.21965e-15
    endloop
  endfacet
  facet normal -2.22045e-16 2.33379e-17 0
    outer loop
      vertex -79.2924 -12.5248 -3.21965e-15
      vertex -79.5 -14.5 -3.21965e-15
      vertex -79.2924 -12.5248 -2.78107e-15
    endloop
  endfacet
  facet normal 0 2.22045e-16 -1
    outer loop
      vertex -79.5 -14.5 -3.21965e-15
      vertex -79.5 1 2.22045e-16
      vertex -79.2924 -12.5248 -2.78107e-15
    endloop
  endfacet
  facet normal 0 2.22045e-16 -1
    outer loop
      vertex -60.5 -14.5 -3.21965e-15
      vertex -60.7076 -12.5248 -2.78107e-15
      vertex -60.5 -5 -1.11022e-15
    endloop
  endfacet
  facet normal 6.88533e-34 2.22045e-16 -1
    outer loop
      vertex -10 -5 -1.11022e-15
      vertex -79.5 1 2.22045e-16
      vertex 79.5 1 2.22045e-16
    endloop
  endfacet
  facet normal 0 2.22045e-16 -1
    outer loop
      vertex 79.5 1 2.22045e-16
      vertex 79.5 -14.5 -3.21965e-15
      vertex 79.2924 -12.5248 -2.78107e-15
    endloop
  endfacet
  facet normal -6.61076e-33 2.22045e-16 -1
    outer loop
      vertex 60.5 -5 -1.11022e-15
      vertex 65.25 -6.27276 -1.39283e-15
      vertex 63.6433 -7.44012 -1.65204e-15
    endloop
  endfacet
  facet normal 0 2.22045e-16 -1
    outer loop
      vertex 79.5 1 2.22045e-16
      vertex 79.2924 -12.5248 -2.78107e-15
      vertex 78.6787 -10.636 -2.36167e-15
    endloop
  endfacet
  facet normal 0 2.22045e-16 -1
    outer loop
      vertex 79.5 1 2.22045e-16
      vertex 78.6787 -10.636 -2.36167e-15
      vertex 77.6857 -8.91604 -1.97976e-15
    endloop
  endfacet
  facet normal 0 2.22045e-16 -1
    outer loop
      vertex 79.5 1 2.22045e-16
      vertex 77.6857 -8.91604 -1.97976e-15
      vertex 76.3567 -7.44012 -1.65204e-15
    endloop
  endfacet
  facet normal 0 2.22045e-16 -1
    outer loop
      vertex 79.5 1 2.22045e-16
      vertex 76.3567 -7.44012 -1.65204e-15
      vertex 74.75 -6.27276 -1.39283e-15
    endloop
  endfacet
  facet normal 0 2.22045e-16 -1
    outer loop
      vertex 79.5 1 2.22045e-16
      vertex 74.75 -6.27276 -1.39283e-15
      vertex 72.9357 -5.46496 -1.21347e-15
    endloop
  endfacet
  facet normal -3.51417e-32 2.22045e-16 -1
    outer loop
      vertex 79.5 1 2.22045e-16
      vertex 72.9357 -5.46496 -1.21347e-15
      vertex 70.993 -5.05204 -1.12178e-15
    endloop
  endfacet
  facet normal 5.1052e-32 2.22045e-16 -1
    outer loop
      vertex 79.5 1 2.22045e-16
      vertex 70.993 -5.05204 -1.12178e-15
      vertex 69.007 -5.05204 -1.12178e-15
    endloop
  endfacet
  facet normal -8.2785e-33 2.22045e-16 -1
    outer loop
      vertex 79.5 1 2.22045e-16
      vertex 69.007 -5.05204 -1.12178e-15
      vertex 60.5 -5 -1.11022e-15
    endloop
  endfacet
  facet normal 0 2.22045e-16 -1
    outer loop
      vertex 10 -10 -2.22045e-15
      vertex -10 -10 -2.22045e-15
      vertex 10 -5 -1.11022e-15
    endloop
  endfacet
  facet normal 0 2.22045e-16 -1
    outer loop
      vertex -61.3213 -10.636 -2.36167e-15
      vertex -62.3143 -8.91604 -1.97976e-15
      vertex -60.5 -5 -1.11022e-15
    endloop
  endfacet
  facet normal 0 2.22045e-16 -1
    outer loop
      vertex 10 -5 -1.11022e-15
      vertex 79.5 1 2.22045e-16
      vertex 60.5 -5 -1.11022e-15
    endloop
  endfacet
  facet normal 0 2.22045e-16 -1
    outer loop
      vertex -10 -5 -1.11022e-15
      vertex 10 -5 -1.11022e-15
      vertex -10 -10 -2.22045e-15
    endloop
  endfacet
  facet normal 0 2.22045e-16 -1
    outer loop
      vertex -60.5 -5 -1.11022e-15
      vertex -79.5 1 2.22045e-16
      vertex -10 -5 -1.11022e-15
    endloop
  endfacet
  facet normal 7.16245e-34 2.22045e-16 -1
    outer loop
      vertex -65.25 -6.27276 -1.39283e-15
      vertex -79.5 1 2.22045e-16
      vertex -60.5 -5 -1.11022e-15
    endloop
  endfacet
  facet normal -3.57808e-35 2.22045e-16 -1
    outer loop
      vertex 60.5 -5 -1.11022e-15
      vertex 69.007 -5.05204 -1.12178e-15
      vertex 67.0643 -5.46496 -1.21347e-15
    endloop
  endfacet
  facet normal -6.06555e-34 2.22045e-16 -1
    outer loop
      vertex 60.5 -5 -1.11022e-15
      vertex 67.0643 -5.46496 -1.21347e-15
      vertex 65.25 -6.27276 -1.39283e-15
    endloop
  endfacet
  facet normal 0 2.22045e-16 -1
    outer loop
      vertex -60.7076 -12.5248 -2.78107e-15
      vertex -61.3213 -10.636 -2.36167e-15
      vertex -60.5 -5 -1.11022e-15
    endloop
  endfacet
  facet normal 2.80648e-33 2.22045e-16 -1
    outer loop
      vertex -63.6433 -7.44012 -1.65204e-15
      vertex -60.5 -5 -1.11022e-15
      vertex -62.3143 -8.91604 -1.97976e-15
    endloop
  endfacet
  facet normal -4.39352e-32 2.22045e-16 -1
    outer loop
      vertex -67.0643 -5.46496 -1.21347e-15
      vertex -79.5 1 2.22045e-16
      vertex -65.25 -6.27276 -1.39283e-15
    endloop
  endfacet
  facet normal 1.96924e-33 2.22045e-16 -1
    outer loop
      vertex -69.007 -5.05204 -1.12178e-15
      vertex -79.5 1 2.22045e-16
      vertex -67.0643 -5.46496 -1.21347e-15
    endloop
  endfacet
  facet normal 0 2.22045e-16 -1
    outer loop
      vertex -70.993 -5.05204 -1.12178e-15
      vertex -79.5 1 2.22045e-16
      vertex -69.007 -5.05204 -1.12178e-15
    endloop
  endfacet
  facet normal -1.19101e-33 2.22045e-16 -1
    outer loop
      vertex -72.9357 -5.46496 -1.21347e-15
      vertex -79.5 1 2.22045e-16
      vertex -70.993 -5.05204 -1.12178e-15
    endloop
  endfacet
  facet normal 0 2.22045e-16 -1
    outer loop
      vertex -74.75 -6.27276 -1.39283e-15
      vertex -79.5 1 2.22045e-16
      vertex -72.9357 -5.46496 -1.21347e-15
    endloop
  endfacet
  facet normal 0 2.22045e-16 -1
    outer loop
      vertex -76.3567 -7.44012 -1.65204e-15
      vertex -79.5 1 2.22045e-16
      vertex -74.75 -6.27276 -1.39283e-15
    endloop
  endfacet
  facet normal 0 2.22045e-16 -1
    outer loop
      vertex -77.6857 -8.91604 -1.97976e-15
      vertex -79.5 1 2.22045e-16
      vertex -76.3567 -7.44012 -1.65204e-15
    endloop
  endfacet
  facet normal 0 2.22045e-16 -1
    outer loop
      vertex -78.6787 -10.636 -2.36167e-15
      vertex -79.5 1 2.22045e-16
      vertex -77.6857 -8.91604 -1.97976e-15
    endloop
  endfacet
  facet normal 0 2.22045e-16 -1
    outer loop
      vertex -79.2924 -12.5248 -2.78107e-15
      vertex -79.5 1 2.22045e-16
      vertex -78.6787 -10.636 -2.36167e-15
    endloop
  endfacet
  facet normal 0 2.22045e-16 -1
    outer loop
      vertex 60.5 -5 -1.11022e-15
      vertex 63.6433 -7.44012 -1.65204e-15
      vertex 62.3143 -8.91604 -1.97976e-15
    endloop
  endfacet
  facet normal 0 2.22045e-16 -1
    outer loop
      vertex 60.5 -5 -1.11022e-15
      vertex 62.3143 -8.91604 -1.97976e-15
      vertex 61.3213 -10.636 -2.36167e-15
    endloop
  endfacet
  facet normal 0 2.22045e-16 -1
    outer loop
      vertex 60.5 -5 -1.11022e-15
      vertex 61.3213 -10.636 -2.36167e-15
      vertex 60.7076 -12.5248 -2.78107e-15
    endloop
  endfacet
  facet normal 0 2.22045e-16 -1
    outer loop
      vertex 60.5 -5 -1.11022e-15
      vertex 60.7076 -12.5248 -2.78107e-15
      vertex 60.5 -14.5 -3.21965e-15
    endloop
  endfacet
  facet normal -2.11115e-33 2.22045e-16 -1
    outer loop
      vertex -65.25 -6.27276 -1.39283e-15
      vertex -60.5 -5 -1.11022e-15
      vertex -63.6433 -7.44012 -1.65204e-15
    endloop
  endfacet
  facet normal 0 2.22045e-16 -1
    outer loop
      vertex -10 -5 -1.11022e-15
      vertex 79.5 1 2.22045e-16
      vertex 10 -5 -1.11022e-15
    endloop
  endfacet
  facet normal 0 1 2.22045e-16
    outer loop
      vertex -79.5 1 50
      vertex 79.5 1 50
      vertex -79.5 1 2.22045e-16
    endloop
  endfacet
  facet normal 0 1 2.22045e-16
    outer loop
      vertex -79.5 1 2.22045e-16
      vertex 79.5 1 50
      vertex 79.5 1 2.22045e-16
    endloop
  endfacet
  facet normal 0 -0 1
    outer loop
      vertex -78 -14 50
      vertex -79.5 -14.5 50
      vertex -77.9393 -14.5 50
    endloop
  endfacet
  facet normal 1.52805e-16 -4.58415e-16 1
    outer loop
      vertex -79.5 1 50
      vertex -79.5 -14.5 50
      vertex -78 -14 50
    endloop
  endfacet
  facet normal 0 0 1
    outer loop
      vertex 62 -14 50
      vertex 62.2325 -12.0855 50
      vertex 60.5 -1 50
    endloop
  endfacet
  facet normal 1.06128e-15 -4.02492e-16 1
    outer loop
      vertex -77.0836 -10.2822 50
      vertex -79.5 1 50
      vertex -77.7675 -12.0855 50
    endloop
  endfacet
  facet normal 6.96344e-16 -4.80652e-16 1
    outer loop
      vertex -75.9881 -8.69502 50
      vertex -79.5 1 50
      vertex -77.0836 -10.2822 50
    endloop
  endfacet
  facet normal 4.91544e-16 -5.54838e-16 1
    outer loop
      vertex -74.5445 -7.41613 50
      vertex -79.5 1 50
      vertex -75.9881 -8.69502 50
    endloop
  endfacet
  facet normal 3.38498e-16 -6.44953e-16 1
    outer loop
      vertex -72.8368 -6.51987 50
      vertex -79.5 1 50
      vertex -74.5445 -7.41613 50
    endloop
  endfacet
  facet normal 1.91148e-16 -7.75516e-16 1
    outer loop
      vertex -70.9643 -6.05833 50
      vertex -79.5 1 50
      vertex -72.8368 -6.51987 50
    endloop
  endfacet
  facet normal 0 -1.00667e-15 1
    outer loop
      vertex -69.0357 -6.05833 50
      vertex -79.5 1 50
      vertex -70.9643 -6.05833 50
    endloop
  endfacet
  facet normal -3.90999e-16 -1.58635e-15 1
    outer loop
      vertex -67.1632 -6.51987 50
      vertex -79.5 1 50
      vertex -69.0357 -6.05833 50
    endloop
  endfacet
  facet normal -3.56863e-15 -6.79947e-15 1
    outer loop
      vertex -65.4555 -7.41613 50
      vertex -79.5 1 50
      vertex -67.1632 -6.51987 50
    endloop
  endfacet
  facet normal 3.45852e-16 -2.67118e-16 1
    outer loop
      vertex -60.5 -1 50
      vertex -79.5 1 50
      vertex -65.4555 -7.41613 50
    endloop
  endfacet
  facet normal 0 0 1
    outer loop
      vertex -60.5 -1 50
      vertex -65.4555 -7.41613 50
      vertex -64.0119 -8.69502 50
    endloop
  endfacet
  facet normal 0 0 1
    outer loop
      vertex -60.5 -1 50
      vertex -64.0119 -8.69502 50
      vertex -62.9164 -10.2822 50
    endloop
  endfacet
  facet normal 0 0 1
    outer loop
      vertex -60.5 -14.5 50
      vertex -62.9164 -10.2822 50
      vertex -62.2325 -12.0855 50
    endloop
  endfacet
  facet normal 0 0 1
    outer loop
      vertex -60.5 -14.5 50
      vertex -62.2325 -12.0855 50
      vertex -62 -14 50
    endloop
  endfacet
  facet normal -0 0 1
    outer loop
      vertex -60.5 -14.5 50
      vertex -62 -14 50
      vertex -62.0607 -14.5 50
    endloop
  endfacet
  facet normal 0 0 1
    outer loop
      vertex -60.5 -1 50
      vertex -62.9164 -10.2822 50
      vertex -60.5 -14.5 50
    endloop
  endfacet
  facet normal 0 -3.55271e-15 1
    outer loop
      vertex -10 -1 50
      vertex -79.5 1 50
      vertex -60.5 -1 50
    endloop
  endfacet
  facet normal 0 -3.55271e-15 1
    outer loop
      vertex 10 -1 50
      vertex -79.5 1 50
      vertex -10 -1 50
    endloop
  endfacet
  facet normal -0 0 1
    outer loop
      vertex 10 -10 50
      vertex -10 -1 50
      vertex -10 -10 50
    endloop
  endfacet
  facet normal 0 0 1
    outer loop
      vertex 10 -1 50
      vertex -10 -1 50
      vertex 10 -10 50
    endloop
  endfacet
  facet normal 0 -3.55271e-15 1
    outer loop
      vertex 60.5 -1 50
      vertex -79.5 1 50
      vertex 10 -1 50
    endloop
  endfacet
  facet normal 0 -3.55271e-15 1
    outer loop
      vertex 79.5 1 50
      vertex -79.5 1 50
      vertex 60.5 -1 50
    endloop
  endfacet
  facet normal -0 0 1
    outer loop
      vertex 62 -14 50
      vertex 60.5 -1 50
      vertex 60.5 -14.5 50
    endloop
  endfacet
  facet normal -0 0 1
    outer loop
      vertex 62.0607 -14.5 50
      vertex 62 -14 50
      vertex 60.5 -14.5 50
    endloop
  endfacet
  facet normal -0 0 1
    outer loop
      vertex 62.9164 -10.2822 50
      vertex 60.5 -1 50
      vertex 62.2325 -12.0855 50
    endloop
  endfacet
  facet normal -0 0 1
    outer loop
      vertex 64.0119 -8.69502 50
      vertex 60.5 -1 50
      vertex 62.9164 -10.2822 50
    endloop
  endfacet
  facet normal -0 0 1
    outer loop
      vertex 65.4555 -7.41613 50
      vertex 60.5 -1 50
      vertex 64.0119 -8.69502 50
    endloop
  endfacet
  facet normal -0 0 1
    outer loop
      vertex 67.1632 -6.51987 50
      vertex 60.5 -1 50
      vertex 65.4555 -7.41613 50
    endloop
  endfacet
  facet normal -0 0 1
    outer loop
      vertex 69.0357 -6.05833 50
      vertex 60.5 -1 50
      vertex 67.1632 -6.51987 50
    endloop
  endfacet
  facet normal -0 0 1
    outer loop
      vertex 70.9643 -6.05833 50
      vertex 60.5 -1 50
      vertex 69.0357 -6.05833 50
    endloop
  endfacet
  facet normal 0 0 1
    outer loop
      vertex 72.8368 -6.51987 50
      vertex 60.5 -1 50
      vertex 70.9643 -6.05833 50
    endloop
  endfacet
  facet normal -3.02745e-16 -6.76632e-16 1
    outer loop
      vertex 79.5 1 50
      vertex 60.5 -1 50
      vertex 72.8368 -6.51987 50
    endloop
  endfacet
  facet normal -3.38498e-16 -6.44953e-16 1
    outer loop
      vertex 79.5 1 50
      vertex 72.8368 -6.51987 50
      vertex 74.5445 -7.41613 50
    endloop
  endfacet
  facet normal -4.91544e-16 -5.54838e-16 1
    outer loop
      vertex 79.5 1 50
      vertex 74.5445 -7.41613 50
      vertex 75.9881 -8.69502 50
    endloop
  endfacet
  facet normal -6.96344e-16 -4.80652e-16 1
    outer loop
      vertex 79.5 1 50
      vertex 75.9881 -8.69502 50
      vertex 77.0836 -10.2822 50
    endloop
  endfacet
  facet normal 0 0 1
    outer loop
      vertex 79.5 -14.5 50
      vertex 77.0836 -10.2822 50
      vertex 77.7675 -12.0855 50
    endloop
  endfacet
  facet normal 0 0 1
    outer loop
      vertex 79.5 -14.5 50
      vertex 77.7675 -12.0855 50
      vertex 78 -14 50
    endloop
  endfacet
  facet normal -0 0 1
    outer loop
      vertex 79.5 -14.5 50
      vertex 78 -14 50
      vertex 77.9393 -14.5 50
    endloop
  endfacet
  facet normal -8.00171e-16 -4.58415e-16 1
    outer loop
      vertex 79.5 1 50
      vertex 77.0836 -10.2822 50
      vertex 79.5 -14.5 50
    endloop
  endfacet
  facet normal 2.13933e-15 -2.59762e-16 1
    outer loop
      vertex -78 -14 50
      vertex -77.7675 -12.0855 50
      vertex -79.5 1 50
    endloop
  endfacet
  facet normal 0 0 1
    outer loop
      vertex -77.9393 -14.5 50
      vertex -79.5 -14.5 50
      vertex -79.2924 -16.4752 50
    endloop
  endfacet
  facet normal 0 0 1
    outer loop
      vertex -77.6857 -20.084 50
      vertex -77.9393 -14.5 50
      vertex -78.6787 -18.364 50
    endloop
  endfacet
  facet normal 0 0 1
    outer loop
      vertex -78.6787 -18.364 50
      vertex -77.9393 -14.5 50
      vertex -79.2924 -16.4752 50
    endloop
  endfacet
  facet normal -0 -0 1
    outer loop
      vertex -77.7675 -15.9145 50
      vertex -77.9393 -14.5 50
      vertex -77.6857 -20.084 50
    endloop
  endfacet
  facet normal -0 -0 1
    outer loop
      vertex -77.0836 -17.7178 50
      vertex -77.7675 -15.9145 50
      vertex -76.3567 -21.5599 50
    endloop
  endfacet
  facet normal -0 -0 1
    outer loop
      vertex -75.9881 -19.305 50
      vertex -77.0836 -17.7178 50
      vertex -74.75 -22.7272 50
    endloop
  endfacet
  facet normal -0 -0 1
    outer loop
      vertex -74.5445 -20.5839 50
      vertex -75.9881 -19.305 50
      vertex -72.9357 -23.535 50
    endloop
  endfacet
  facet normal -0 0 1
    outer loop
      vertex -70.9643 -21.9417 50
      vertex -72.8368 -21.4801 50
      vertex -70.993 -23.948 50
    endloop
  endfacet
  facet normal 0 -0 1
    outer loop
      vertex -69.0357 -21.9417 50
      vertex -70.9643 -21.9417 50
      vertex -69.007 -23.948 50
    endloop
  endfacet
  facet normal 0 0 1
    outer loop
      vertex -67.1632 -21.4801 50
      vertex -67.0643 -23.535 50
      vertex -65.25 -22.7272 50
    endloop
  endfacet
  facet normal 0 -0 1
    outer loop
      vertex -65.4555 -20.5839 50
      vertex -67.1632 -21.4801 50
      vertex -63.6433 -21.5599 50
    endloop
  endfacet
  facet normal 0 -0 1
    outer loop
      vertex -64.0119 -19.305 50
      vertex -65.4555 -20.5839 50
      vertex -62.3143 -20.084 50
    endloop
  endfacet
  facet normal 0 -0 1
    outer loop
      vertex -62.9164 -17.7178 50
      vertex -64.0119 -19.305 50
      vertex -61.3213 -18.364 50
    endloop
  endfacet
  facet normal 0 0 1
    outer loop
      vertex -60.5 -14.5 50
      vertex -62.0607 -14.5 50
      vertex -60.7076 -16.4752 50
    endloop
  endfacet
  facet normal 0 -0 1
    outer loop
      vertex -62.0607 -14.5 50
      vertex -62.2325 -15.9145 50
      vertex -60.7076 -16.4752 50
    endloop
  endfacet
  facet normal 0 0 1
    outer loop
      vertex -60.7076 -16.4752 50
      vertex -62.9164 -17.7178 50
      vertex -61.3213 -18.364 50
    endloop
  endfacet
  facet normal 0 0 1
    outer loop
      vertex -61.3213 -18.364 50
      vertex -64.0119 -19.305 50
      vertex -62.3143 -20.084 50
    endloop
  endfacet
  facet normal 0 0 1
    outer loop
      vertex -62.3143 -20.084 50
      vertex -65.4555 -20.5839 50
      vertex -63.6433 -21.5599 50
    endloop
  endfacet
  facet normal -0 0 1
    outer loop
      vertex -63.6433 -21.5599 50
      vertex -67.1632 -21.4801 50
      vertex -65.25 -22.7272 50
    endloop
  endfacet
  facet normal -0 0 1
    outer loop
      vertex -67.0643 -23.535 50
      vertex -69.0357 -21.9417 50
      vertex -69.007 -23.948 50
    endloop
  endfacet
  facet normal -0 0 1
    outer loop
      vertex -69.007 -23.948 50
      vertex -70.9643 -21.9417 50
      vertex -70.993 -23.948 50
    endloop
  endfacet
  facet normal 0 0 1
    outer loop
      vertex -70.993 -23.948 50
      vertex -72.8368 -21.4801 50
      vertex -72.9357 -23.535 50
    endloop
  endfacet
  facet normal -0 0 1
    outer loop
      vertex -72.8368 -21.4801 50
      vertex -74.5445 -20.5839 50
      vertex -72.9357 -23.535 50
    endloop
  endfacet
  facet normal 0 0 1
    outer loop
      vertex -72.9357 -23.535 50
      vertex -75.9881 -19.305 50
      vertex -74.75 -22.7272 50
    endloop
  endfacet
  facet normal 0 0 1
    outer loop
      vertex -74.75 -22.7272 50
      vertex -77.0836 -17.7178 50
      vertex -76.3567 -21.5599 50
    endloop
  endfacet
  facet normal 0 0 1
    outer loop
      vertex -76.3567 -21.5599 50
      vertex -77.7675 -15.9145 50
      vertex -77.6857 -20.084 50
    endloop
  endfacet
  facet normal 0 -0 1
    outer loop
      vertex -62.2325 -15.9145 50
      vertex -62.9164 -17.7178 50
      vertex -60.7076 -16.4752 50
    endloop
  endfacet
  facet normal 0 -0 1
    outer loop
      vertex -67.1632 -21.4801 50
      vertex -69.0357 -21.9417 50
      vertex -67.0643 -23.535 50
    endloop
  endfacet
  facet normal -0.951057 -0.309017 0
    outer loop
      vertex -79.2924 -16.4752 50
      vertex -79.2924 -16.4752 -3.21965e-15
      vertex -78.6787 -18.364 50
    endloop
  endfacet
  facet normal -0.951057 -0.309017 0
    outer loop
      vertex -78.6787 -18.364 50
      vertex -79.2924 -16.4752 -3.21965e-15
      vertex -78.6787 -18.364 -3.21965e-15
    endloop
  endfacet
  facet normal -0.866025 -0.5 0
    outer loop
      vertex -78.6787 -18.364 50
      vertex -78.6787 -18.364 -3.21965e-15
      vertex -77.6857 -20.084 50
    endloop
  endfacet
  facet normal -0.866025 -0.5 0
    outer loop
      vertex -77.6857 -20.084 50
      vertex -78.6787 -18.364 -3.21965e-15
      vertex -77.6857 -20.084 -3.21965e-15
    endloop
  endfacet
  facet normal -0.743145 -0.66913 0
    outer loop
      vertex -77.6857 -20.084 50
      vertex -77.6857 -20.084 -3.21965e-15
      vertex -76.3567 -21.5599 50
    endloop
  endfacet
  facet normal -0.743145 -0.66913 0
    outer loop
      vertex -76.3567 -21.5599 50
      vertex -77.6857 -20.084 -3.21965e-15
      vertex -76.3567 -21.5599 -3.21965e-15
    endloop
  endfacet
  facet normal -0.587785 -0.809017 0
    outer loop
      vertex -74.75 -22.7272 50
      vertex -76.3567 -21.5599 50
      vertex -76.3567 -21.5599 -3.21965e-15
    endloop
  endfacet
  facet normal -0.587785 -0.809017 -0
    outer loop
      vertex -74.75 -22.7272 -3.21965e-15
      vertex -74.75 -22.7272 50
      vertex -76.3567 -21.5599 -3.21965e-15
    endloop
  endfacet
  facet normal -0.406737 -0.913545 0
    outer loop
      vertex -72.9357 -23.535 50
      vertex -74.75 -22.7272 50
      vertex -74.75 -22.7272 -3.21965e-15
    endloop
  endfacet
  facet normal -0.406737 -0.913545 -0
    outer loop
      vertex -72.9357 -23.535 -3.21965e-15
      vertex -72.9357 -23.535 50
      vertex -74.75 -22.7272 -3.21965e-15
    endloop
  endfacet
  facet normal -0.207912 -0.978148 0
    outer loop
      vertex -70.993 -23.948 50
      vertex -72.9357 -23.535 50
      vertex -72.9357 -23.535 -3.21965e-15
    endloop
  endfacet
  facet normal -0.207912 -0.978148 -0
    outer loop
      vertex -70.993 -23.948 -3.21965e-15
      vertex -70.993 -23.948 50
      vertex -72.9357 -23.535 -3.21965e-15
    endloop
  endfacet
  facet normal 0 -1 0
    outer loop
      vertex -69.007 -23.948 50
      vertex -70.993 -23.948 50
      vertex -70.993 -23.948 -3.21965e-15
    endloop
  endfacet
  facet normal 0 -1 0
    outer loop
      vertex -69.007 -23.948 -3.21965e-15
      vertex -69.007 -23.948 50
      vertex -70.993 -23.948 -3.21965e-15
    endloop
  endfacet
  facet normal 0.207912 -0.978148 0
    outer loop
      vertex -67.0643 -23.535 50
      vertex -69.007 -23.948 50
      vertex -69.007 -23.948 -3.21965e-15
    endloop
  endfacet
  facet normal 0.207912 -0.978148 0
    outer loop
      vertex -67.0643 -23.535 -3.21965e-15
      vertex -67.0643 -23.535 50
      vertex -69.007 -23.948 -3.21965e-15
    endloop
  endfacet
  facet normal 0.406737 -0.913545 0
    outer loop
      vertex -65.25 -22.7272 50
      vertex -67.0643 -23.535 50
      vertex -67.0643 -23.535 -3.21965e-15
    endloop
  endfacet
  facet normal 0.406737 -0.913545 0
    outer loop
      vertex -65.25 -22.7272 -3.21965e-15
      vertex -65.25 -22.7272 50
      vertex -67.0643 -23.535 -3.21965e-15
    endloop
  endfacet
  facet normal 0.587785 -0.809017 0
    outer loop
      vertex -63.6433 -21.5599 50
      vertex -65.25 -22.7272 50
      vertex -65.25 -22.7272 -3.21965e-15
    endloop
  endfacet
  facet normal 0.587785 -0.809017 0
    outer loop
      vertex -63.6433 -21.5599 -3.21965e-15
      vertex -63.6433 -21.5599 50
      vertex -65.25 -22.7272 -3.21965e-15
    endloop
  endfacet
  facet normal 0.743145 -0.66913 0
    outer loop
      vertex -62.3143 -20.084 50
      vertex -63.6433 -21.5599 50
      vertex -63.6433 -21.5599 -3.21965e-15
    endloop
  endfacet
  facet normal 0.743145 -0.66913 0
    outer loop
      vertex -62.3143 -20.084 -3.21965e-15
      vertex -62.3143 -20.084 50
      vertex -63.6433 -21.5599 -3.21965e-15
    endloop
  endfacet
  facet normal 0.866025 -0.5 0
    outer loop
      vertex -61.3213 -18.364 50
      vertex -62.3143 -20.084 50
      vertex -62.3143 -20.084 -3.21965e-15
    endloop
  endfacet
  facet normal 0.866025 -0.5 0
    outer loop
      vertex -61.3213 -18.364 -3.21965e-15
      vertex -61.3213 -18.364 50
      vertex -62.3143 -20.084 -3.21965e-15
    endloop
  endfacet
  facet normal 0.951057 -0.309017 0
    outer loop
      vertex -60.7076 -16.4752 50
      vertex -61.3213 -18.364 50
      vertex -61.3213 -18.364 -3.21965e-15
    endloop
  endfacet
  facet normal 0.951057 -0.309017 0
    outer loop
      vertex -60.7076 -16.4752 -3.21965e-15
      vertex -60.7076 -16.4752 50
      vertex -61.3213 -18.364 -3.21965e-15
    endloop
  endfacet
  facet normal 0.994522 -0.104529 0
    outer loop
      vertex -60.5 -14.5 50
      vertex -60.7076 -16.4752 50
      vertex -60.7076 -16.4752 -3.21965e-15
    endloop
  endfacet
  facet normal 0.994522 -0.104529 -2.22816e-17
    outer loop
      vertex -60.5 -14.5 -3.21965e-15
      vertex -60.5 -14.5 50
      vertex -60.7076 -16.4752 -3.21965e-15
    endloop
  endfacet
  facet normal 1 -0 -0
    outer loop
      vertex -60.5 -5 20
      vertex -60.5 -14.5 50
      vertex -60.5 -5 -1.11022e-15
    endloop
  endfacet
  facet normal 1 -0 0
    outer loop
      vertex -60.5 -5 -1.11022e-15
      vertex -60.5 -14.5 50
      vertex -60.5 -14.5 -3.21965e-15
    endloop
  endfacet
  facet normal 1 -0 0
    outer loop
      vertex -60.5 -1 20
      vertex -60.5 -14.5 50
      vertex -60.5 -5 20
    endloop
  endfacet
  facet normal 1 0 -0
    outer loop
      vertex -60.5 -1 50
      vertex -60.5 -14.5 50
      vertex -60.5 -1 20
    endloop
  endfacet
  facet normal 2.22045e-16 2.33379e-17 0
    outer loop
      vertex -60.7076 -12.5248 -3.21965e-15
      vertex -60.7076 -12.5248 -2.78107e-15
      vertex -60.5 -14.5 -3.21965e-15
    endloop
  endfacet
  facet normal 4.54237e-16 1.47591e-16 0
    outer loop
      vertex -61.3213 -10.636 -3.21965e-15
      vertex -61.3213 -10.636 -2.36167e-15
      vertex -60.7076 -12.5248 -2.78107e-15
    endloop
  endfacet
  facet normal 2.32193e-16 7.54439e-17 0
    outer loop
      vertex -60.7076 -12.5248 -3.21965e-15
      vertex -61.3213 -10.636 -3.21965e-15
      vertex -60.7076 -12.5248 -2.78107e-15
    endloop
  endfacet
  facet normal 7.20881e-16 4.16201e-16 0
    outer loop
      vertex -62.3143 -8.91604 -3.21965e-15
      vertex -62.3143 -8.91604 -1.97976e-15
      vertex -61.3213 -10.636 -2.36167e-15
    endloop
  endfacet
  facet normal 4.98837e-16 2.88004e-16 0
    outer loop
      vertex -61.3213 -10.636 -3.21965e-15
      vertex -62.3143 -8.91604 -3.21965e-15
      vertex -61.3213 -10.636 -2.36167e-15
    endloop
  endfacet
  facet normal 1.06213e-15 9.56341e-16 0
    outer loop
      vertex -63.6433 -7.44012 -3.21965e-15
      vertex -63.6433 -7.44012 -1.65204e-15
      vertex -62.3143 -8.91604 -1.97976e-15
    endloop
  endfacet
  facet normal 8.4008e-16 7.56411e-16 0
    outer loop
      vertex -62.3143 -8.91604 -3.21965e-15
      vertex -63.6433 -7.44012 -3.21965e-15
      vertex -62.3143 -8.91604 -1.97976e-15
    endloop
  endfacet
  facet normal 8.26056e-16 1.13697e-15 -0
    outer loop
      vertex -65.25 -6.27276 -1.39283e-15
      vertex -63.6433 -7.44012 -1.65204e-15
      vertex -65.25 -6.27276 -3.21965e-15
    endloop
  endfacet
  facet normal 7.08847e-16 9.75644e-16 0
    outer loop
      vertex -65.25 -6.27276 -3.21965e-15
      vertex -63.6433 -7.44012 -1.65204e-15
      vertex -63.6433 -7.44012 -3.21965e-15
    endloop
  endfacet
  facet normal 4.92306e-16 1.10574e-15 -0
    outer loop
      vertex -67.0643 -5.46496 -1.21347e-15
      vertex -65.25 -6.27276 -1.39283e-15
      vertex -67.0643 -5.46496 -3.21965e-15
    endloop
  endfacet
  facet normal 4.4829e-16 1.00688e-15 0
    outer loop
      vertex -67.0643 -5.46496 -3.21965e-15
      vertex -65.25 -6.27276 -1.39283e-15
      vertex -65.25 -6.27276 -3.21965e-15
    endloop
  endfacet
  facet normal 2.29541e-16 1.07991e-15 -0
    outer loop
      vertex -69.007 -5.05204 -1.12178e-15
      vertex -67.0643 -5.46496 -1.21347e-15
      vertex -69.007 -5.05204 -3.21965e-15
    endloop
  endfacet
  facet normal 2.19509e-16 1.03271e-15 0
    outer loop
      vertex -69.007 -5.05204 -3.21965e-15
      vertex -67.0643 -5.46496 -1.21347e-15
      vertex -67.0643 -5.46496 -3.21965e-15
    endloop
  endfacet
  facet normal 0 1.05631e-15 -0
    outer loop
      vertex -70.993 -5.05204 -1.12178e-15
      vertex -69.007 -5.05204 -1.12178e-15
      vertex -70.993 -5.05204 -3.21965e-15
    endloop
  endfacet
  facet normal 0 1.05631e-15 0
    outer loop
      vertex -70.993 -5.05204 -3.21965e-15
      vertex -69.007 -5.05204 -1.12178e-15
      vertex -69.007 -5.05204 -3.21965e-15
    endloop
  endfacet
  facet normal -2.19509e-16 1.03271e-15 0
    outer loop
      vertex -72.9357 -5.46496 -1.21347e-15
      vertex -70.993 -5.05204 -1.12178e-15
      vertex -72.9357 -5.46496 -3.21965e-15
    endloop
  endfacet
  facet normal -2.29541e-16 1.07991e-15 0
    outer loop
      vertex -72.9357 -5.46496 -3.21965e-15
      vertex -70.993 -5.05204 -1.12178e-15
      vertex -70.993 -5.05204 -3.21965e-15
    endloop
  endfacet
  facet normal -4.4829e-16 1.00688e-15 0
    outer loop
      vertex -74.75 -6.27276 -1.39283e-15
      vertex -72.9357 -5.46496 -1.21347e-15
      vertex -74.75 -6.27276 -3.21965e-15
    endloop
  endfacet
  facet normal -4.92306e-16 1.10574e-15 0
    outer loop
      vertex -74.75 -6.27276 -3.21965e-15
      vertex -72.9357 -5.46496 -1.21347e-15
      vertex -72.9357 -5.46496 -3.21965e-15
    endloop
  endfacet
  facet normal -7.08847e-16 9.75644e-16 0
    outer loop
      vertex -76.3567 -7.44012 -1.65204e-15
      vertex -74.75 -6.27276 -1.39283e-15
      vertex -76.3567 -7.44012 -3.21965e-15
    endloop
  endfacet
  facet normal -8.26056e-16 1.13697e-15 0
    outer loop
      vertex -76.3567 -7.44012 -3.21965e-15
      vertex -74.75 -6.27276 -1.39283e-15
      vertex -74.75 -6.27276 -3.21965e-15
    endloop
  endfacet
  facet normal -8.4008e-16 7.56411e-16 0
    outer loop
      vertex -77.6857 -8.91604 -1.97976e-15
      vertex -76.3567 -7.44012 -1.65204e-15
      vertex -77.6857 -8.91604 -3.21965e-15
    endloop
  endfacet
  facet normal -1.06213e-15 9.56341e-16 0
    outer loop
      vertex -77.6857 -8.91604 -3.21965e-15
      vertex -76.3567 -7.44012 -1.65204e-15
      vertex -76.3567 -7.44012 -3.21965e-15
    endloop
  endfacet
  facet normal -4.98837e-16 2.88004e-16 0
    outer loop
      vertex -78.6787 -10.636 -2.36167e-15
      vertex -77.6857 -8.91604 -1.97976e-15
      vertex -78.6787 -10.636 -3.21965e-15
    endloop
  endfacet
  facet normal -7.20881e-16 4.16201e-16 0
    outer loop
      vertex -78.6787 -10.636 -3.21965e-15
      vertex -77.6857 -8.91604 -1.97976e-15
      vertex -77.6857 -8.91604 -3.21965e-15
    endloop
  endfacet
  facet normal -2.32193e-16 7.54439e-17 0
    outer loop
      vertex -79.2924 -12.5248 -2.78107e-15
      vertex -78.6787 -10.636 -2.36167e-15
      vertex -79.2924 -12.5248 -3.21965e-15
    endloop
  endfacet
  facet normal -4.54237e-16 1.47591e-16 0
    outer loop
      vertex -79.2924 -12.5248 -3.21965e-15
      vertex -78.6787 -10.636 -2.36167e-15
      vertex -78.6787 -10.636 -3.21965e-15
    endloop
  endfacet
  facet normal 0.992709 0.120536 0
    outer loop
      vertex -77.9393 -14.5 50
      vertex -77.7675 -15.9145 50
      vertex -77.7675 -15.9145 -3.21965e-15
    endloop
  endfacet
  facet normal 0.992709 0.120536 -0
    outer loop
      vertex -78 -14 50
      vertex -77.9393 -14.5 50
      vertex -78 -14 -3.21965e-15
    endloop
  endfacet
  facet normal 0.992709 0.120536 -6.0556e-17
    outer loop
      vertex -78 -14 -3.21965e-15
      vertex -77.9393 -14.5 50
      vertex -77.7675 -15.9145 -3.21965e-15
    endloop
  endfacet
  facet normal 0.992709 -0.120536 0
    outer loop
      vertex -78 -14 -3.21965e-15
      vertex -77.7675 -12.0855 -3.21965e-15
      vertex -77.7675 -12.0855 50
    endloop
  endfacet
  facet normal 0.992709 -0.120536 0
    outer loop
      vertex -78 -14 50
      vertex -78 -14 -3.21965e-15
      vertex -77.7675 -12.0855 50
    endloop
  endfacet
  facet normal 0.935016 -0.354605 0
    outer loop
      vertex -77.7675 -12.0855 -3.21965e-15
      vertex -77.0836 -10.2822 -3.21965e-15
      vertex -77.0836 -10.2822 50
    endloop
  endfacet
  facet normal 0.935016 -0.354605 0
    outer loop
      vertex -77.7675 -12.0855 50
      vertex -77.7675 -12.0855 -3.21965e-15
      vertex -77.0836 -10.2822 50
    endloop
  endfacet
  facet normal 0.822984 -0.568065 0
    outer loop
      vertex -77.0836 -10.2822 -3.21965e-15
      vertex -75.9881 -8.69502 -3.21965e-15
      vertex -75.9881 -8.69502 50
    endloop
  endfacet
  facet normal 0.822984 -0.568065 0
    outer loop
      vertex -77.0836 -10.2822 50
      vertex -77.0836 -10.2822 -3.21965e-15
      vertex -75.9881 -8.69502 50
    endloop
  endfacet
  facet normal 0.663123 -0.748511 0
    outer loop
      vertex -75.9881 -8.69502 -3.21965e-15
      vertex -74.5445 -7.41613 -3.21965e-15
      vertex -74.5445 -7.41613 50
    endloop
  endfacet
  facet normal 0.663123 -0.748511 0
    outer loop
      vertex -75.9881 -8.69502 50
      vertex -75.9881 -8.69502 -3.21965e-15
      vertex -74.5445 -7.41613 50
    endloop
  endfacet
  facet normal 0.464723 -0.885456 0
    outer loop
      vertex -74.5445 -7.41613 -3.21965e-15
      vertex -72.8368 -6.51987 -3.21965e-15
      vertex -72.8368 -6.51987 50
    endloop
  endfacet
  facet normal 0.464723 -0.885456 0
    outer loop
      vertex -74.5445 -7.41613 50
      vertex -74.5445 -7.41613 -3.21965e-15
      vertex -72.8368 -6.51987 50
    endloop
  endfacet
  facet normal 0.239316 -0.970942 0
    outer loop
      vertex -72.8368 -6.51987 -3.21965e-15
      vertex -70.9643 -6.05833 -3.21965e-15
      vertex -70.9643 -6.05833 50
    endloop
  endfacet
  facet normal 0.239316 -0.970942 0
    outer loop
      vertex -72.8368 -6.51987 50
      vertex -72.8368 -6.51987 -3.21965e-15
      vertex -70.9643 -6.05833 50
    endloop
  endfacet
  facet normal -0 -1 0
    outer loop
      vertex -70.9643 -6.05833 -3.21965e-15
      vertex -69.0357 -6.05833 -3.21965e-15
      vertex -69.0357 -6.05833 50
    endloop
  endfacet
  facet normal 0 -1 0
    outer loop
      vertex -70.9643 -6.05833 50
      vertex -70.9643 -6.05833 -3.21965e-15
      vertex -69.0357 -6.05833 50
    endloop
  endfacet
  facet normal -0.239316 -0.970942 0
    outer loop
      vertex -69.0357 -6.05833 -3.21965e-15
      vertex -67.1632 -6.51987 -3.21965e-15
      vertex -67.1632 -6.51987 50
    endloop
  endfacet
  facet normal -0.239316 -0.970942 0
    outer loop
      vertex -69.0357 -6.05833 50
      vertex -69.0357 -6.05833 -3.21965e-15
      vertex -67.1632 -6.51987 50
    endloop
  endfacet
  facet normal -0.464723 -0.885456 0
    outer loop
      vertex -67.1632 -6.51987 -3.21965e-15
      vertex -65.4555 -7.41613 -3.21965e-15
      vertex -65.4555 -7.41613 50
    endloop
  endfacet
  facet normal -0.464723 -0.885456 0
    outer loop
      vertex -67.1632 -6.51987 50
      vertex -67.1632 -6.51987 -3.21965e-15
      vertex -65.4555 -7.41613 50
    endloop
  endfacet
  facet normal -0.663123 -0.748511 0
    outer loop
      vertex -65.4555 -7.41613 -3.21965e-15
      vertex -64.0119 -8.69502 -3.21965e-15
      vertex -64.0119 -8.69502 50
    endloop
  endfacet
  facet normal -0.663123 -0.748511 0
    outer loop
      vertex -65.4555 -7.41613 50
      vertex -65.4555 -7.41613 -3.21965e-15
      vertex -64.0119 -8.69502 50
    endloop
  endfacet
  facet normal -0.822984 -0.568065 -0
    outer loop
      vertex -62.9164 -10.2822 -3.21965e-15
      vertex -62.9164 -10.2822 50
      vertex -64.0119 -8.69502 -3.21965e-15
    endloop
  endfacet
  facet normal -0.822984 -0.568065 -0
    outer loop
      vertex -64.0119 -8.69502 -3.21965e-15
      vertex -62.9164 -10.2822 50
      vertex -64.0119 -8.69502 50
    endloop
  endfacet
  facet normal -0.935016 -0.354605 -0
    outer loop
      vertex -62.2325 -12.0855 -3.21965e-15
      vertex -62.2325 -12.0855 50
      vertex -62.9164 -10.2822 -3.21965e-15
    endloop
  endfacet
  facet normal -0.935016 -0.354605 -0
    outer loop
      vertex -62.9164 -10.2822 -3.21965e-15
      vertex -62.2325 -12.0855 50
      vertex -62.9164 -10.2822 50
    endloop
  endfacet
  facet normal -0.992709 -0.120536 -0
    outer loop
      vertex -62 -14 -3.21965e-15
      vertex -62 -14 50
      vertex -62.2325 -12.0855 -3.21965e-15
    endloop
  endfacet
  facet normal -0.992709 -0.120536 -0
    outer loop
      vertex -62.2325 -12.0855 -3.21965e-15
      vertex -62 -14 50
      vertex -62.2325 -12.0855 50
    endloop
  endfacet
  facet normal -0.992709 0.120536 0
    outer loop
      vertex -62 -14 50
      vertex -62 -14 -3.21965e-15
      vertex -62.0607 -14.5 50
    endloop
  endfacet
  facet normal -0.992709 0.120536 4.37224e-17
    outer loop
      vertex -62.0607 -14.5 50
      vertex -62 -14 -3.21965e-15
      vertex -62.2325 -15.9145 -3.21965e-15
    endloop
  endfacet
  facet normal -0.992709 0.120536 0
    outer loop
      vertex -62.0607 -14.5 50
      vertex -62.2325 -15.9145 -3.21965e-15
      vertex -62.2325 -15.9145 50
    endloop
  endfacet
  facet normal -0.935016 0.354605 0
    outer loop
      vertex -62.2325 -15.9145 -3.21965e-15
      vertex -62.9164 -17.7178 -3.21965e-15
      vertex -62.2325 -15.9145 50
    endloop
  endfacet
  facet normal -0.935016 0.354605 0
    outer loop
      vertex -62.2325 -15.9145 50
      vertex -62.9164 -17.7178 -3.21965e-15
      vertex -62.9164 -17.7178 50
    endloop
  endfacet
  facet normal -0.822984 0.568065 0
    outer loop
      vertex -62.9164 -17.7178 -3.21965e-15
      vertex -64.0119 -19.305 -3.21965e-15
      vertex -62.9164 -17.7178 50
    endloop
  endfacet
  facet normal -0.822984 0.568065 0
    outer loop
      vertex -62.9164 -17.7178 50
      vertex -64.0119 -19.305 -3.21965e-15
      vertex -64.0119 -19.305 50
    endloop
  endfacet
  facet normal -0.663123 0.748511 0
    outer loop
      vertex -64.0119 -19.305 -3.21965e-15
      vertex -65.4555 -20.5839 -3.21965e-15
      vertex -64.0119 -19.305 50
    endloop
  endfacet
  facet normal -0.663123 0.748511 0
    outer loop
      vertex -64.0119 -19.305 50
      vertex -65.4555 -20.5839 -3.21965e-15
      vertex -65.4555 -20.5839 50
    endloop
  endfacet
  facet normal -0.464723 0.885456 0
    outer loop
      vertex -65.4555 -20.5839 -3.21965e-15
      vertex -67.1632 -21.4801 -3.21965e-15
      vertex -65.4555 -20.5839 50
    endloop
  endfacet
  facet normal -0.464723 0.885456 0
    outer loop
      vertex -65.4555 -20.5839 50
      vertex -67.1632 -21.4801 -3.21965e-15
      vertex -67.1632 -21.4801 50
    endloop
  endfacet
  facet normal -0.239316 0.970942 0
    outer loop
      vertex -67.1632 -21.4801 -3.21965e-15
      vertex -69.0357 -21.9417 -3.21965e-15
      vertex -67.1632 -21.4801 50
    endloop
  endfacet
  facet normal -0.239316 0.970942 0
    outer loop
      vertex -67.1632 -21.4801 50
      vertex -69.0357 -21.9417 -3.21965e-15
      vertex -69.0357 -21.9417 50
    endloop
  endfacet
  facet normal -0 1 0
    outer loop
      vertex -69.0357 -21.9417 -3.21965e-15
      vertex -70.9643 -21.9417 -3.21965e-15
      vertex -69.0357 -21.9417 50
    endloop
  endfacet
  facet normal 0 1 0
    outer loop
      vertex -69.0357 -21.9417 50
      vertex -70.9643 -21.9417 -3.21965e-15
      vertex -70.9643 -21.9417 50
    endloop
  endfacet
  facet normal 0.239316 0.970942 0
    outer loop
      vertex -70.9643 -21.9417 -3.21965e-15
      vertex -72.8368 -21.4801 -3.21965e-15
      vertex -70.9643 -21.9417 50
    endloop
  endfacet
  facet normal 0.239316 0.970942 0
    outer loop
      vertex -70.9643 -21.9417 50
      vertex -72.8368 -21.4801 -3.21965e-15
      vertex -72.8368 -21.4801 50
    endloop
  endfacet
  facet normal 0.464723 0.885456 0
    outer loop
      vertex -72.8368 -21.4801 -3.21965e-15
      vertex -74.5445 -20.5839 -3.21965e-15
      vertex -72.8368 -21.4801 50
    endloop
  endfacet
  facet normal 0.464723 0.885456 0
    outer loop
      vertex -72.8368 -21.4801 50
      vertex -74.5445 -20.5839 -3.21965e-15
      vertex -74.5445 -20.5839 50
    endloop
  endfacet
  facet normal 0.663123 0.748511 0
    outer loop
      vertex -74.5445 -20.5839 -3.21965e-15
      vertex -75.9881 -19.305 -3.21965e-15
      vertex -74.5445 -20.5839 50
    endloop
  endfacet
  facet normal 0.663123 0.748511 0
    outer loop
      vertex -74.5445 -20.5839 50
      vertex -75.9881 -19.305 -3.21965e-15
      vertex -75.9881 -19.305 50
    endloop
  endfacet
  facet normal 0.822984 0.568065 -0
    outer loop
      vertex -75.9881 -19.305 50
      vertex -75.9881 -19.305 -3.21965e-15
      vertex -77.0836 -17.7178 -3.21965e-15
    endloop
  endfacet
  facet normal 0.822984 0.568065 -0
    outer loop
      vertex -77.0836 -17.7178 50
      vertex -75.9881 -19.305 50
      vertex -77.0836 -17.7178 -3.21965e-15
    endloop
  endfacet
  facet normal 0.935016 0.354605 -0
    outer loop
      vertex -77.0836 -17.7178 50
      vertex -77.0836 -17.7178 -3.21965e-15
      vertex -77.7675 -15.9145 -3.21965e-15
    endloop
  endfacet
  facet normal 0.935016 0.354605 -0
    outer loop
      vertex -77.7675 -15.9145 50
      vertex -77.0836 -17.7178 50
      vertex -77.7675 -15.9145 -3.21965e-15
    endloop
  endfacet
  facet normal 0 -1 -2.22045e-16
    outer loop
      vertex -10 -5 20
      vertex -60.5 -5 20
      vertex -60.5 -5 -1.11022e-15
    endloop
  endfacet
  facet normal 0 -1 -2.22045e-16
    outer loop
      vertex -10 -5 -1.11022e-15
      vertex -10 -5 20
      vertex -60.5 -5 -1.11022e-15
    endloop
  endfacet
  facet normal -1 0 0
    outer loop
      vertex -10 -10 50
      vertex -10 -1 50
      vertex -10 -10 -2.22045e-15
    endloop
  endfacet
  facet normal -1 -0 0
    outer loop
      vertex -10 -5 20
      vertex -10 -1 50
      vertex -10 -1 20
    endloop
  endfacet
  facet normal -1 0 0
    outer loop
      vertex -10 -10 -2.22045e-15
      vertex -10 -1 50
      vertex -10 -5 20
    endloop
  endfacet
  facet normal -1 0 0
    outer loop
      vertex -10 -5 -1.11022e-15
      vertex -10 -10 -2.22045e-15
      vertex -10 -5 20
    endloop
  endfacet
  facet normal 0 -1 -2.13163e-16
    outer loop
      vertex 10 -10 50
      vertex -10 -10 50
      vertex -10 -10 -2.22045e-15
    endloop
  endfacet
  facet normal 0 -1 -2.13163e-16
    outer loop
      vertex 10 -10 -2.22045e-15
      vertex 10 -10 50
      vertex -10 -10 -2.22045e-15
    endloop
  endfacet
  facet normal 1 0 0
    outer loop
      vertex 10 -1 50
      vertex 10 -10 50
      vertex 10 -10 -2.22045e-15
    endloop
  endfacet
  facet normal 1 -0 0
    outer loop
      vertex 10 -5 20
      vertex 10 -1 50
      vertex 10 -10 -2.22045e-15
    endloop
  endfacet
  facet normal 1 -0 0
    outer loop
      vertex 10 -5 -1.11022e-15
      vertex 10 -5 20
      vertex 10 -10 -2.22045e-15
    endloop
  endfacet
  facet normal 1 0 0
    outer loop
      vertex 10 -5 20
      vertex 10 -1 20
      vertex 10 -1 50
    endloop
  endfacet
  facet normal 0 -1 -2.22045e-16
    outer loop
      vertex 60.5 -5 20
      vertex 10 -5 20
      vertex 10 -5 -1.11022e-15
    endloop
  endfacet
  facet normal 0 -1 -2.22045e-16
    outer loop
      vertex 60.5 -5 -1.11022e-15
      vertex 60.5 -5 20
      vertex 10 -5 -1.11022e-15
    endloop
  endfacet
  facet normal -1 0 -0
    outer loop
      vertex 60.5 -14.5 -3.21965e-15
      vertex 60.5 -14.5 50
      vertex 60.5 -1 50
    endloop
  endfacet
  facet normal -1 -0 0
    outer loop
      vertex 60.5 -5 20
      vertex 60.5 -1 50
      vertex 60.5 -1 20
    endloop
  endfacet
  facet normal -1 0 0
    outer loop
      vertex 60.5 -14.5 -3.21965e-15
      vertex 60.5 -1 50
      vertex 60.5 -5 20
    endloop
  endfacet
  facet normal -1 0 0
    outer loop
      vertex 60.5 -5 -1.11022e-15
      vertex 60.5 -14.5 -3.21965e-15
      vertex 60.5 -5 20
    endloop
  endfacet
  facet normal -0.994522 -0.104529 -2.24845e-17
    outer loop
      vertex 60.7076 -16.4752 50
      vertex 60.5 -14.5 50
      vertex 60.5 -14.5 -3.21965e-15
    endloop
  endfacet
  facet normal -0.994522 -0.104529 0
    outer loop
      vertex 60.7076 -16.4752 50
      vertex 60.5 -14.5 -3.21965e-15
      vertex 60.7076 -16.4752 -3.21965e-15
    endloop
  endfacet
  facet normal -0 0 -1
    outer loop
      vertex 60.5 -14.5 -3.21965e-15
      vertex 60.7076 -12.5248 -3.21965e-15
      vertex 60.7076 -16.4752 -3.21965e-15
    endloop
  endfacet
  facet normal 0 -0 -1
    outer loop
      vertex 60.7076 -16.4752 -3.21965e-15
      vertex 60.7076 -12.5248 -3.21965e-15
      vertex 61.3213 -10.636 -3.21965e-15
    endloop
  endfacet
  facet normal 0 0 -1
    outer loop
      vertex 60.7076 -16.4752 -3.21965e-15
      vertex 61.3213 -10.636 -3.21965e-15
      vertex 62.3143 -8.91604 -3.21965e-15
    endloop
  endfacet
  facet normal 0 0 -1
    outer loop
      vertex 60.7076 -16.4752 -3.21965e-15
      vertex 62.3143 -8.91604 -3.21965e-15
      vertex 63.6433 -7.44012 -3.21965e-15
    endloop
  endfacet
  facet normal 0 -0 -1
    outer loop
      vertex 64.0119 -8.69502 -3.21965e-15
      vertex 63.6433 -7.44012 -3.21965e-15
      vertex 65.25 -6.27276 -3.21965e-15
    endloop
  endfacet
  facet normal 0 -0 -1
    outer loop
      vertex 65.4555 -7.41613 -3.21965e-15
      vertex 65.25 -6.27276 -3.21965e-15
      vertex 67.0643 -5.46496 -3.21965e-15
    endloop
  endfacet
  facet normal 0 -0 -1
    outer loop
      vertex 67.1632 -6.51987 -3.21965e-15
      vertex 67.0643 -5.46496 -3.21965e-15
      vertex 69.007 -5.05204 -3.21965e-15
    endloop
  endfacet
  facet normal 0 -0 -1
    outer loop
      vertex 69.0357 -6.05833 -3.21965e-15
      vertex 69.007 -5.05204 -3.21965e-15
      vertex 70.993 -5.05204 -3.21965e-15
    endloop
  endfacet
  facet normal 0 0 -1
    outer loop
      vertex 70.9643 -6.05833 -3.21965e-15
      vertex 70.993 -5.05204 -3.21965e-15
      vertex 72.9357 -5.46496 -3.21965e-15
    endloop
  endfacet
  facet normal 0 0 -1
    outer loop
      vertex 72.8368 -6.51987 -3.21965e-15
      vertex 72.9357 -5.46496 -3.21965e-15
      vertex 74.75 -6.27276 -3.21965e-15
    endloop
  endfacet
  facet normal -0 0 -1
    outer loop
      vertex 74.5445 -7.41613 -3.21965e-15
      vertex 74.75 -6.27276 -3.21965e-15
      vertex 76.3567 -7.44012 -3.21965e-15
    endloop
  endfacet
  facet normal -0 0 -1
    outer loop
      vertex 75.9881 -8.69502 -3.21965e-15
      vertex 76.3567 -7.44012 -3.21965e-15
      vertex 77.6857 -8.91604 -3.21965e-15
    endloop
  endfacet
  facet normal -0 0 -1
    outer loop
      vertex 77.0836 -10.2822 -3.21965e-15
      vertex 77.6857 -8.91604 -3.21965e-15
      vertex 78.6787 -10.636 -3.21965e-15
    endloop
  endfacet
  facet normal -0 0 -1
    outer loop
      vertex 77.7675 -12.0855 -3.21965e-15
      vertex 78.6787 -10.636 -3.21965e-15
      vertex 79.2924 -12.5248 -3.21965e-15
    endloop
  endfacet
  facet normal -0 0 -1
    outer loop
      vertex 78 -14 -3.21965e-15
      vertex 79.2924 -12.5248 -3.21965e-15
      vertex 79.5 -14.5 -3.21965e-15
    endloop
  endfacet
  facet normal -0 0 -1
    outer loop
      vertex 77.7675 -15.9145 -3.21965e-15
      vertex 79.5 -14.5 -3.21965e-15
      vertex 79.2924 -16.4752 -3.21965e-15
    endloop
  endfacet
  facet normal -0 0 -1
    outer loop
      vertex 77.0836 -17.7178 -3.21965e-15
      vertex 79.2924 -16.4752 -3.21965e-15
      vertex 78.6787 -18.364 -3.21965e-15
    endloop
  endfacet
  facet normal -0 0 -1
    outer loop
      vertex 75.9881 -19.305 -3.21965e-15
      vertex 78.6787 -18.364 -3.21965e-15
      vertex 77.6857 -20.084 -3.21965e-15
    endloop
  endfacet
  facet normal -0 0 -1
    outer loop
      vertex 74.5445 -20.5839 -3.21965e-15
      vertex 77.6857 -20.084 -3.21965e-15
      vertex 76.3567 -21.5599 -3.21965e-15
    endloop
  endfacet
  facet normal 0 0 -1
    outer loop
      vertex 72.8368 -21.4801 -3.21965e-15
      vertex 76.3567 -21.5599 -3.21965e-15
      vertex 74.75 -22.7272 -3.21965e-15
    endloop
  endfacet
  facet normal 0 0 -1
    outer loop
      vertex 70.9643 -21.9417 -3.21965e-15
      vertex 74.75 -22.7272 -3.21965e-15
      vertex 72.9357 -23.535 -3.21965e-15
    endloop
  endfacet
  facet normal 0 0 -1
    outer loop
      vertex 69.0357 -21.9417 -3.21965e-15
      vertex 72.9357 -23.535 -3.21965e-15
      vertex 70.993 -23.948 -3.21965e-15
    endloop
  endfacet
  facet normal 0 0 -1
    outer loop
      vertex 65.4555 -20.5839 -3.21965e-15
      vertex 70.993 -23.948 -3.21965e-15
      vertex 69.007 -23.948 -3.21965e-15
    endloop
  endfacet
  facet normal 0 0 -1
    outer loop
      vertex 60.7076 -16.4752 -3.21965e-15
      vertex 69.007 -23.948 -3.21965e-15
      vertex 67.0643 -23.535 -3.21965e-15
    endloop
  endfacet
  facet normal 0 0 -1
    outer loop
      vertex 60.7076 -16.4752 -3.21965e-15
      vertex 67.0643 -23.535 -3.21965e-15
      vertex 65.25 -22.7272 -3.21965e-15
    endloop
  endfacet
  facet normal 0 0 -1
    outer loop
      vertex 60.7076 -16.4752 -3.21965e-15
      vertex 65.25 -22.7272 -3.21965e-15
      vertex 63.6433 -21.5599 -3.21965e-15
    endloop
  endfacet
  facet normal 0 0 -1
    outer loop
      vertex 60.7076 -16.4752 -3.21965e-15
      vertex 63.6433 -21.5599 -3.21965e-15
      vertex 62.3143 -20.084 -3.21965e-15
    endloop
  endfacet
  facet normal 0 0 -1
    outer loop
      vertex 60.7076 -16.4752 -3.21965e-15
      vertex 62.3143 -20.084 -3.21965e-15
      vertex 61.3213 -18.364 -3.21965e-15
    endloop
  endfacet
  facet normal 0 0 -1
    outer loop
      vertex 62.2325 -15.9145 -3.21965e-15
      vertex 60.7076 -16.4752 -3.21965e-15
      vertex 62 -14 -3.21965e-15
    endloop
  endfacet
  facet normal 0 0 -1
    outer loop
      vertex 62.9164 -17.7178 -3.21965e-15
      vertex 60.7076 -16.4752 -3.21965e-15
      vertex 62.2325 -15.9145 -3.21965e-15
    endloop
  endfacet
  facet normal 0 0 -1
    outer loop
      vertex 64.0119 -19.305 -3.21965e-15
      vertex 60.7076 -16.4752 -3.21965e-15
      vertex 62.9164 -17.7178 -3.21965e-15
    endloop
  endfacet
  facet normal 0 0 -1
    outer loop
      vertex 69.0357 -21.9417 -3.21965e-15
      vertex 70.993 -23.948 -3.21965e-15
      vertex 67.1632 -21.4801 -3.21965e-15
    endloop
  endfacet
  facet normal 0 0 -1
    outer loop
      vertex 60.7076 -16.4752 -3.21965e-15
      vertex 64.0119 -19.305 -3.21965e-15
      vertex 69.007 -23.948 -3.21965e-15
    endloop
  endfacet
  facet normal 0 0 -1
    outer loop
      vertex 67.1632 -21.4801 -3.21965e-15
      vertex 70.993 -23.948 -3.21965e-15
      vertex 65.4555 -20.5839 -3.21965e-15
    endloop
  endfacet
  facet normal 0 0 -1
    outer loop
      vertex 64.0119 -19.305 -3.21965e-15
      vertex 65.4555 -20.5839 -3.21965e-15
      vertex 69.007 -23.948 -3.21965e-15
    endloop
  endfacet
  facet normal 0 0 -1
    outer loop
      vertex 72.8368 -21.4801 -3.21965e-15
      vertex 74.75 -22.7272 -3.21965e-15
      vertex 70.9643 -21.9417 -3.21965e-15
    endloop
  endfacet
  facet normal 0 0 -1
    outer loop
      vertex 70.9643 -21.9417 -3.21965e-15
      vertex 72.9357 -23.535 -3.21965e-15
      vertex 69.0357 -21.9417 -3.21965e-15
    endloop
  endfacet
  facet normal 0 0 -1
    outer loop
      vertex 75.9881 -8.69502 -3.21965e-15
      vertex 77.6857 -8.91604 -3.21965e-15
      vertex 77.0836 -10.2822 -3.21965e-15
    endloop
  endfacet
  facet normal 0 0 -1
    outer loop
      vertex 77.0836 -10.2822 -3.21965e-15
      vertex 78.6787 -10.636 -3.21965e-15
      vertex 77.7675 -12.0855 -3.21965e-15
    endloop
  endfacet
  facet normal 0 0 -1
    outer loop
      vertex 77.7675 -12.0855 -3.21965e-15
      vertex 79.2924 -12.5248 -3.21965e-15
      vertex 78 -14 -3.21965e-15
    endloop
  endfacet
  facet normal 0 0 -1
    outer loop
      vertex 78 -14 -3.21965e-15
      vertex 79.5 -14.5 -3.21965e-15
      vertex 77.7675 -15.9145 -3.21965e-15
    endloop
  endfacet
  facet normal 0 0 -1
    outer loop
      vertex 77.7675 -15.9145 -3.21965e-15
      vertex 79.2924 -16.4752 -3.21965e-15
      vertex 77.0836 -17.7178 -3.21965e-15
    endloop
  endfacet
  facet normal 0 0 -1
    outer loop
      vertex 77.0836 -17.7178 -3.21965e-15
      vertex 78.6787 -18.364 -3.21965e-15
      vertex 75.9881 -19.305 -3.21965e-15
    endloop
  endfacet
  facet normal 0 0 -1
    outer loop
      vertex 75.9881 -19.305 -3.21965e-15
      vertex 77.6857 -20.084 -3.21965e-15
      vertex 74.5445 -20.5839 -3.21965e-15
    endloop
  endfacet
  facet normal 0 0 -1
    outer loop
      vertex 64.0119 -8.69502 -3.21965e-15
      vertex 65.25 -6.27276 -3.21965e-15
      vertex 65.4555 -7.41613 -3.21965e-15
    endloop
  endfacet
  facet normal 0 0 -1
    outer loop
      vertex 62.9164 -10.2822 -3.21965e-15
      vertex 63.6433 -7.44012 -3.21965e-15
      vertex 64.0119 -8.69502 -3.21965e-15
    endloop
  endfacet
  facet normal 0 0 -1
    outer loop
      vertex 62.2325 -12.0855 -3.21965e-15
      vertex 63.6433 -7.44012 -3.21965e-15
      vertex 62.9164 -10.2822 -3.21965e-15
    endloop
  endfacet
  facet normal 0 0 -1
    outer loop
      vertex 65.4555 -7.41613 -3.21965e-15
      vertex 67.0643 -5.46496 -3.21965e-15
      vertex 67.1632 -6.51987 -3.21965e-15
    endloop
  endfacet
  facet normal 0 0 -1
    outer loop
      vertex 60.7076 -16.4752 -3.21965e-15
      vertex 63.6433 -7.44012 -3.21965e-15
      vertex 62.2325 -12.0855 -3.21965e-15
    endloop
  endfacet
  facet normal 0 -0 -1
    outer loop
      vertex 62 -14 -3.21965e-15
      vertex 60.7076 -16.4752 -3.21965e-15
      vertex 62.2325 -12.0855 -3.21965e-15
    endloop
  endfacet
  facet normal 0 0 -1
    outer loop
      vertex 67.1632 -6.51987 -3.21965e-15
      vertex 69.007 -5.05204 -3.21965e-15
      vertex 69.0357 -6.05833 -3.21965e-15
    endloop
  endfacet
  facet normal -0 0 -1
    outer loop
      vertex 69.0357 -6.05833 -3.21965e-15
      vertex 70.993 -5.05204 -3.21965e-15
      vertex 70.9643 -6.05833 -3.21965e-15
    endloop
  endfacet
  facet normal -0 0 -1
    outer loop
      vertex 70.9643 -6.05833 -3.21965e-15
      vertex 72.9357 -5.46496 -3.21965e-15
      vertex 72.8368 -6.51987 -3.21965e-15
    endloop
  endfacet
  facet normal -0 0 -1
    outer loop
      vertex 72.8368 -6.51987 -3.21965e-15
      vertex 74.75 -6.27276 -3.21965e-15
      vertex 74.5445 -7.41613 -3.21965e-15
    endloop
  endfacet
  facet normal 0 0 -1
    outer loop
      vertex 74.5445 -7.41613 -3.21965e-15
      vertex 76.3567 -7.44012 -3.21965e-15
      vertex 75.9881 -8.69502 -3.21965e-15
    endloop
  endfacet
  facet normal 0 0 -1
    outer loop
      vertex 74.5445 -20.5839 -3.21965e-15
      vertex 76.3567 -21.5599 -3.21965e-15
      vertex 72.8368 -21.4801 -3.21965e-15
    endloop
  endfacet
  facet normal -2.22045e-16 2.33379e-17 0
    outer loop
      vertex 60.7076 -12.5248 -3.21965e-15
      vertex 60.5 -14.5 -3.21965e-15
      vertex 60.7076 -12.5248 -2.78107e-15
    endloop
  endfacet
  facet normal -2.32193e-16 7.54439e-17 0
    outer loop
      vertex 60.7076 -12.5248 -2.78107e-15
      vertex 61.3213 -10.636 -2.36167e-15
      vertex 60.7076 -12.5248 -3.21965e-15
    endloop
  endfacet
  facet normal -4.54237e-16 1.47591e-16 0
    outer loop
      vertex 60.7076 -12.5248 -3.21965e-15
      vertex 61.3213 -10.636 -2.36167e-15
      vertex 61.3213 -10.636 -3.21965e-15
    endloop
  endfacet
  facet normal -4.98837e-16 2.88004e-16 0
    outer loop
      vertex 61.3213 -10.636 -2.36167e-15
      vertex 62.3143 -8.91604 -1.97976e-15
      vertex 61.3213 -10.636 -3.21965e-15
    endloop
  endfacet
  facet normal -7.20881e-16 4.16201e-16 0
    outer loop
      vertex 61.3213 -10.636 -3.21965e-15
      vertex 62.3143 -8.91604 -1.97976e-15
      vertex 62.3143 -8.91604 -3.21965e-15
    endloop
  endfacet
  facet normal -8.4008e-16 7.56411e-16 0
    outer loop
      vertex 62.3143 -8.91604 -1.97976e-15
      vertex 63.6433 -7.44012 -1.65204e-15
      vertex 62.3143 -8.91604 -3.21965e-15
    endloop
  endfacet
  facet normal -1.06213e-15 9.56341e-16 0
    outer loop
      vertex 62.3143 -8.91604 -3.21965e-15
      vertex 63.6433 -7.44012 -1.65204e-15
      vertex 63.6433 -7.44012 -3.21965e-15
    endloop
  endfacet
  facet normal -7.08847e-16 9.75644e-16 0
    outer loop
      vertex 63.6433 -7.44012 -1.65204e-15
      vertex 65.25 -6.27276 -1.39283e-15
      vertex 63.6433 -7.44012 -3.21965e-15
    endloop
  endfacet
  facet normal -8.26056e-16 1.13697e-15 0
    outer loop
      vertex 63.6433 -7.44012 -3.21965e-15
      vertex 65.25 -6.27276 -1.39283e-15
      vertex 65.25 -6.27276 -3.21965e-15
    endloop
  endfacet
  facet normal -4.4829e-16 1.00688e-15 0
    outer loop
      vertex 65.25 -6.27276 -1.39283e-15
      vertex 67.0643 -5.46496 -1.21347e-15
      vertex 65.25 -6.27276 -3.21965e-15
    endloop
  endfacet
  facet normal -4.92306e-16 1.10574e-15 0
    outer loop
      vertex 65.25 -6.27276 -3.21965e-15
      vertex 67.0643 -5.46496 -1.21347e-15
      vertex 67.0643 -5.46496 -3.21965e-15
    endloop
  endfacet
  facet normal -2.19509e-16 1.03271e-15 0
    outer loop
      vertex 67.0643 -5.46496 -1.21347e-15
      vertex 69.007 -5.05204 -1.12178e-15
      vertex 67.0643 -5.46496 -3.21965e-15
    endloop
  endfacet
  facet normal -2.29541e-16 1.07991e-15 0
    outer loop
      vertex 67.0643 -5.46496 -3.21965e-15
      vertex 69.007 -5.05204 -1.12178e-15
      vertex 69.007 -5.05204 -3.21965e-15
    endloop
  endfacet
  facet normal 0 1.05631e-15 -0
    outer loop
      vertex 69.007 -5.05204 -1.12178e-15
      vertex 70.993 -5.05204 -1.12178e-15
      vertex 69.007 -5.05204 -3.21965e-15
    endloop
  endfacet
  facet normal 0 1.05631e-15 0
    outer loop
      vertex 69.007 -5.05204 -3.21965e-15
      vertex 70.993 -5.05204 -1.12178e-15
      vertex 70.993 -5.05204 -3.21965e-15
    endloop
  endfacet
  facet normal 2.29541e-16 1.07991e-15 -0
    outer loop
      vertex 70.993 -5.05204 -1.12178e-15
      vertex 72.9357 -5.46496 -1.21347e-15
      vertex 70.993 -5.05204 -3.21965e-15
    endloop
  endfacet
  facet normal 2.19509e-16 1.03271e-15 0
    outer loop
      vertex 70.993 -5.05204 -3.21965e-15
      vertex 72.9357 -5.46496 -1.21347e-15
      vertex 72.9357 -5.46496 -3.21965e-15
    endloop
  endfacet
  facet normal 4.92306e-16 1.10574e-15 -0
    outer loop
      vertex 72.9357 -5.46496 -1.21347e-15
      vertex 74.75 -6.27276 -1.39283e-15
      vertex 72.9357 -5.46496 -3.21965e-15
    endloop
  endfacet
  facet normal 4.4829e-16 1.00688e-15 0
    outer loop
      vertex 72.9357 -5.46496 -3.21965e-15
      vertex 74.75 -6.27276 -1.39283e-15
      vertex 74.75 -6.27276 -3.21965e-15
    endloop
  endfacet
  facet normal 8.26056e-16 1.13697e-15 -0
    outer loop
      vertex 74.75 -6.27276 -1.39283e-15
      vertex 76.3567 -7.44012 -1.65204e-15
      vertex 74.75 -6.27276 -3.21965e-15
    endloop
  endfacet
  facet normal 7.08847e-16 9.75644e-16 0
    outer loop
      vertex 74.75 -6.27276 -3.21965e-15
      vertex 76.3567 -7.44012 -1.65204e-15
      vertex 76.3567 -7.44012 -3.21965e-15
    endloop
  endfacet
  facet normal 1.06213e-15 9.56341e-16 0
    outer loop
      vertex 76.3567 -7.44012 -3.21965e-15
      vertex 76.3567 -7.44012 -1.65204e-15
      vertex 77.6857 -8.91604 -1.97976e-15
    endloop
  endfacet
  facet normal 8.4008e-16 7.56411e-16 0
    outer loop
      vertex 77.6857 -8.91604 -3.21965e-15
      vertex 76.3567 -7.44012 -3.21965e-15
      vertex 77.6857 -8.91604 -1.97976e-15
    endloop
  endfacet
  facet normal 7.20881e-16 4.16201e-16 0
    outer loop
      vertex 77.6857 -8.91604 -3.21965e-15
      vertex 77.6857 -8.91604 -1.97976e-15
      vertex 78.6787 -10.636 -2.36167e-15
    endloop
  endfacet
  facet normal 4.98837e-16 2.88004e-16 0
    outer loop
      vertex 78.6787 -10.636 -3.21965e-15
      vertex 77.6857 -8.91604 -3.21965e-15
      vertex 78.6787 -10.636 -2.36167e-15
    endloop
  endfacet
  facet normal 4.54237e-16 1.47591e-16 0
    outer loop
      vertex 78.6787 -10.636 -3.21965e-15
      vertex 78.6787 -10.636 -2.36167e-15
      vertex 79.2924 -12.5248 -2.78107e-15
    endloop
  endfacet
  facet normal 2.32193e-16 7.54439e-17 0
    outer loop
      vertex 79.2924 -12.5248 -3.21965e-15
      vertex 78.6787 -10.636 -3.21965e-15
      vertex 79.2924 -12.5248 -2.78107e-15
    endloop
  endfacet
  facet normal 2.22045e-16 2.33379e-17 0
    outer loop
      vertex 79.2924 -12.5248 -3.21965e-15
      vertex 79.2924 -12.5248 -2.78107e-15
      vertex 79.5 -14.5 -3.21965e-15
    endloop
  endfacet
  facet normal 1 0 -0
    outer loop
      vertex 79.5 1 50
      vertex 79.5 -14.5 50
      vertex 79.5 1 2.22045e-16
    endloop
  endfacet
  facet normal 1 -0 0
    outer loop
      vertex 79.5 1 2.22045e-16
      vertex 79.5 -14.5 50
      vertex 79.5 -14.5 -3.21965e-15
    endloop
  endfacet
  facet normal 0.994522 -0.104529 0
    outer loop
      vertex 79.5 -14.5 50
      vertex 79.2924 -16.4752 50
      vertex 79.2924 -16.4752 -3.21965e-15
    endloop
  endfacet
  facet normal 0.994522 -0.104529 2.60379e-16
    outer loop
      vertex 79.5 -14.5 -3.21965e-15
      vertex 79.5 -14.5 50
      vertex 79.2924 -16.4752 -3.21965e-15
    endloop
  endfacet
  facet normal 0 0 1
    outer loop
      vertex 62.0607 -14.5 50
      vertex 60.5 -14.5 50
      vertex 60.7076 -16.4752 50
    endloop
  endfacet
  facet normal 0 0 1
    outer loop
      vertex 62.3143 -20.084 50
      vertex 62.0607 -14.5 50
      vertex 61.3213 -18.364 50
    endloop
  endfacet
  facet normal 0 0 1
    outer loop
      vertex 61.3213 -18.364 50
      vertex 62.0607 -14.5 50
      vertex 60.7076 -16.4752 50
    endloop
  endfacet
  facet normal -0 -0 1
    outer loop
      vertex 62.2325 -15.9145 50
      vertex 62.0607 -14.5 50
      vertex 62.3143 -20.084 50
    endloop
  endfacet
  facet normal -0 -0 1
    outer loop
      vertex 62.9164 -17.7178 50
      vertex 62.2325 -15.9145 50
      vertex 63.6433 -21.5599 50
    endloop
  endfacet
  facet normal -0 -0 1
    outer loop
      vertex 64.0119 -19.305 50
      vertex 62.9164 -17.7178 50
      vertex 65.25 -22.7272 50
    endloop
  endfacet
  facet normal -0 -0 1
    outer loop
      vertex 65.4555 -20.5839 50
      vertex 64.0119 -19.305 50
      vertex 67.0643 -23.535 50
    endloop
  endfacet
  facet normal -0 0 1
    outer loop
      vertex 69.0357 -21.9417 50
      vertex 67.1632 -21.4801 50
      vertex 69.007 -23.948 50
    endloop
  endfacet
  facet normal 0 -0 1
    outer loop
      vertex 70.9643 -21.9417 50
      vertex 69.0357 -21.9417 50
      vertex 70.993 -23.948 50
    endloop
  endfacet
  facet normal 0 0 1
    outer loop
      vertex 72.8368 -21.4801 50
      vertex 72.9357 -23.535 50
      vertex 74.75 -22.7272 50
    endloop
  endfacet
  facet normal 0 -0 1
    outer loop
      vertex 74.5445 -20.5839 50
      vertex 72.8368 -21.4801 50
      vertex 76.3567 -21.5599 50
    endloop
  endfacet
  facet normal 0 -0 1
    outer loop
      vertex 75.9881 -19.305 50
      vertex 74.5445 -20.5839 50
      vertex 77.6857 -20.084 50
    endloop
  endfacet
  facet normal 0 -0 1
    outer loop
      vertex 77.0836 -17.7178 50
      vertex 75.9881 -19.305 50
      vertex 78.6787 -18.364 50
    endloop
  endfacet
  facet normal 0 0 1
    outer loop
      vertex 79.5 -14.5 50
      vertex 77.9393 -14.5 50
      vertex 79.2924 -16.4752 50
    endloop
  endfacet
  facet normal 0 -0 1
    outer loop
      vertex 77.9393 -14.5 50
      vertex 77.7675 -15.9145 50
      vertex 79.2924 -16.4752 50
    endloop
  endfacet
  facet normal 0 0 1
    outer loop
      vertex 79.2924 -16.4752 50
      vertex 77.0836 -17.7178 50
      vertex 78.6787 -18.364 50
    endloop
  endfacet
  facet normal 0 0 1
    outer loop
      vertex 78.6787 -18.364 50
      vertex 75.9881 -19.305 50
      vertex 77.6857 -20.084 50
    endloop
  endfacet
  facet normal 0 0 1
    outer loop
      vertex 77.6857 -20.084 50
      vertex 74.5445 -20.5839 50
      vertex 76.3567 -21.5599 50
    endloop
  endfacet
  facet normal -0 0 1
    outer loop
      vertex 76.3567 -21.5599 50
      vertex 72.8368 -21.4801 50
      vertex 74.75 -22.7272 50
    endloop
  endfacet
  facet normal -0 0 1
    outer loop
      vertex 72.9357 -23.535 50
      vertex 70.9643 -21.9417 50
      vertex 70.993 -23.948 50
    endloop
  endfacet
  facet normal -0 0 1
    outer loop
      vertex 70.993 -23.948 50
      vertex 69.0357 -21.9417 50
      vertex 69.007 -23.948 50
    endloop
  endfacet
  facet normal 0 0 1
    outer loop
      vertex 69.007 -23.948 50
      vertex 67.1632 -21.4801 50
      vertex 67.0643 -23.535 50
    endloop
  endfacet
  facet normal -0 0 1
    outer loop
      vertex 67.1632 -21.4801 50
      vertex 65.4555 -20.5839 50
      vertex 67.0643 -23.535 50
    endloop
  endfacet
  facet normal 0 0 1
    outer loop
      vertex 67.0643 -23.535 50
      vertex 64.0119 -19.305 50
      vertex 65.25 -22.7272 50
    endloop
  endfacet
  facet normal 0 0 1
    outer loop
      vertex 65.25 -22.7272 50
      vertex 62.9164 -17.7178 50
      vertex 63.6433 -21.5599 50
    endloop
  endfacet
  facet normal 0 0 1
    outer loop
      vertex 63.6433 -21.5599 50
      vertex 62.2325 -15.9145 50
      vertex 62.3143 -20.084 50
    endloop
  endfacet
  facet normal 0 -0 1
    outer loop
      vertex 77.7675 -15.9145 50
      vertex 77.0836 -17.7178 50
      vertex 79.2924 -16.4752 50
    endloop
  endfacet
  facet normal 0 -0 1
    outer loop
      vertex 72.8368 -21.4801 50
      vertex 70.9643 -21.9417 50
      vertex 72.9357 -23.535 50
    endloop
  endfacet
  facet normal -0.992709 0.120536 0
    outer loop
      vertex 78 -14 50
      vertex 78 -14 -3.21965e-15
      vertex 77.9393 -14.5 50
    endloop
  endfacet
  facet normal -0.992709 0.120536 -6.06091e-17
    outer loop
      vertex 77.9393 -14.5 50
      vertex 78 -14 -3.21965e-15
      vertex 77.7675 -15.9145 -3.21965e-15
    endloop
  endfacet
  facet normal -0.992709 0.120536 0
    outer loop
      vertex 77.9393 -14.5 50
      vertex 77.7675 -15.9145 -3.21965e-15
      vertex 77.7675 -15.9145 50
    endloop
  endfacet
  facet normal -0.992709 -0.120536 -0
    outer loop
      vertex 78 -14 -3.21965e-15
      vertex 78 -14 50
      vertex 77.7675 -12.0855 -3.21965e-15
    endloop
  endfacet
  facet normal -0.992709 -0.120536 -0
    outer loop
      vertex 77.7675 -12.0855 -3.21965e-15
      vertex 78 -14 50
      vertex 77.7675 -12.0855 50
    endloop
  endfacet
  facet normal -0.935016 -0.354605 -0
    outer loop
      vertex 77.7675 -12.0855 -3.21965e-15
      vertex 77.7675 -12.0855 50
      vertex 77.0836 -10.2822 -3.21965e-15
    endloop
  endfacet
  facet normal -0.935016 -0.354605 -0
    outer loop
      vertex 77.0836 -10.2822 -3.21965e-15
      vertex 77.7675 -12.0855 50
      vertex 77.0836 -10.2822 50
    endloop
  endfacet
  facet normal -0.822984 -0.568065 -0
    outer loop
      vertex 77.0836 -10.2822 -3.21965e-15
      vertex 77.0836 -10.2822 50
      vertex 75.9881 -8.69502 -3.21965e-15
    endloop
  endfacet
  facet normal -0.822984 -0.568065 -0
    outer loop
      vertex 75.9881 -8.69502 -3.21965e-15
      vertex 77.0836 -10.2822 50
      vertex 75.9881 -8.69502 50
    endloop
  endfacet
  facet normal -0.663123 -0.748511 0
    outer loop
      vertex 74.5445 -7.41613 -3.21965e-15
      vertex 75.9881 -8.69502 -3.21965e-15
      vertex 75.9881 -8.69502 50
    endloop
  endfacet
  facet normal -0.663123 -0.748511 0
    outer loop
      vertex 74.5445 -7.41613 50
      vertex 74.5445 -7.41613 -3.21965e-15
      vertex 75.9881 -8.69502 50
    endloop
  endfacet
  facet normal -0.464723 -0.885456 0
    outer loop
      vertex 72.8368 -6.51987 -3.21965e-15
      vertex 74.5445 -7.41613 -3.21965e-15
      vertex 74.5445 -7.41613 50
    endloop
  endfacet
  facet normal -0.464723 -0.885456 0
    outer loop
      vertex 72.8368 -6.51987 50
      vertex 72.8368 -6.51987 -3.21965e-15
      vertex 74.5445 -7.41613 50
    endloop
  endfacet
  facet normal -0.239316 -0.970942 0
    outer loop
      vertex 70.9643 -6.05833 -3.21965e-15
      vertex 72.8368 -6.51987 -3.21965e-15
      vertex 72.8368 -6.51987 50
    endloop
  endfacet
  facet normal -0.239316 -0.970942 0
    outer loop
      vertex 70.9643 -6.05833 50
      vertex 70.9643 -6.05833 -3.21965e-15
      vertex 72.8368 -6.51987 50
    endloop
  endfacet
  facet normal -0 -1 0
    outer loop
      vertex 69.0357 -6.05833 -3.21965e-15
      vertex 70.9643 -6.05833 -3.21965e-15
      vertex 70.9643 -6.05833 50
    endloop
  endfacet
  facet normal 0 -1 0
    outer loop
      vertex 69.0357 -6.05833 50
      vertex 69.0357 -6.05833 -3.21965e-15
      vertex 70.9643 -6.05833 50
    endloop
  endfacet
  facet normal 0.239316 -0.970942 0
    outer loop
      vertex 67.1632 -6.51987 -3.21965e-15
      vertex 69.0357 -6.05833 -3.21965e-15
      vertex 69.0357 -6.05833 50
    endloop
  endfacet
  facet normal 0.239316 -0.970942 0
    outer loop
      vertex 67.1632 -6.51987 50
      vertex 67.1632 -6.51987 -3.21965e-15
      vertex 69.0357 -6.05833 50
    endloop
  endfacet
  facet normal 0.464723 -0.885456 0
    outer loop
      vertex 65.4555 -7.41613 -3.21965e-15
      vertex 67.1632 -6.51987 -3.21965e-15
      vertex 67.1632 -6.51987 50
    endloop
  endfacet
  facet normal 0.464723 -0.885456 0
    outer loop
      vertex 65.4555 -7.41613 50
      vertex 65.4555 -7.41613 -3.21965e-15
      vertex 67.1632 -6.51987 50
    endloop
  endfacet
  facet normal 0.663123 -0.748511 0
    outer loop
      vertex 64.0119 -8.69502 -3.21965e-15
      vertex 65.4555 -7.41613 -3.21965e-15
      vertex 65.4555 -7.41613 50
    endloop
  endfacet
  facet normal 0.663123 -0.748511 0
    outer loop
      vertex 64.0119 -8.69502 50
      vertex 64.0119 -8.69502 -3.21965e-15
      vertex 65.4555 -7.41613 50
    endloop
  endfacet
  facet normal 0.822984 -0.568065 0
    outer loop
      vertex 62.9164 -10.2822 -3.21965e-15
      vertex 64.0119 -8.69502 -3.21965e-15
      vertex 64.0119 -8.69502 50
    endloop
  endfacet
  facet normal 0.822984 -0.568065 0
    outer loop
      vertex 62.9164 -10.2822 50
      vertex 62.9164 -10.2822 -3.21965e-15
      vertex 64.0119 -8.69502 50
    endloop
  endfacet
  facet normal 0.935016 -0.354605 0
    outer loop
      vertex 62.2325 -12.0855 -3.21965e-15
      vertex 62.9164 -10.2822 -3.21965e-15
      vertex 62.9164 -10.2822 50
    endloop
  endfacet
  facet normal 0.935016 -0.354605 0
    outer loop
      vertex 62.2325 -12.0855 50
      vertex 62.2325 -12.0855 -3.21965e-15
      vertex 62.9164 -10.2822 50
    endloop
  endfacet
  facet normal 0.992709 -0.120536 0
    outer loop
      vertex 62 -14 -3.21965e-15
      vertex 62.2325 -12.0855 -3.21965e-15
      vertex 62.2325 -12.0855 50
    endloop
  endfacet
  facet normal 0.992709 -0.120536 0
    outer loop
      vertex 62 -14 50
      vertex 62 -14 -3.21965e-15
      vertex 62.2325 -12.0855 50
    endloop
  endfacet
  facet normal 0.992709 0.120536 0
    outer loop
      vertex 62.0607 -14.5 50
      vertex 62.2325 -15.9145 50
      vertex 62.2325 -15.9145 -3.21965e-15
    endloop
  endfacet
  facet normal 0.992709 0.120536 -0
    outer loop
      vertex 62 -14 50
      vertex 62.0607 -14.5 50
      vertex 62 -14 -3.21965e-15
    endloop
  endfacet
  facet normal 0.992709 0.120536 4.37754e-17
    outer loop
      vertex 62 -14 -3.21965e-15
      vertex 62.0607 -14.5 50
      vertex 62.2325 -15.9145 -3.21965e-15
    endloop
  endfacet
  facet normal 0 -1 -2.22045e-16
    outer loop
      vertex 60.5 -1 50
      vertex 10 -1 50
      vertex 10 -1 20
    endloop
  endfacet
  facet normal 0 -1 -2.22045e-16
    outer loop
      vertex 60.5 -1 20
      vertex 60.5 -1 50
      vertex 10 -1 20
    endloop
  endfacet
  facet normal 0 -1 -2.22045e-16
    outer loop
      vertex -10 -1 50
      vertex -60.5 -1 50
      vertex -60.5 -1 20
    endloop
  endfacet
  facet normal 0 -1 -2.22045e-16
    outer loop
      vertex -10 -1 20
      vertex -10 -1 50
      vertex -60.5 -1 20
    endloop
  endfacet
  facet normal 0 -0 1
    outer loop
      vertex -60.5 -1 20
      vertex -60.5 -5 20
      vertex -10 -5 20
    endloop
  endfacet
  facet normal 0 0 1
    outer loop
      vertex -10 -1 20
      vertex -60.5 -1 20
      vertex -10 -5 20
    endloop
  endfacet
  facet normal 0 -0 1
    outer loop
      vertex 10 -1 20
      vertex 10 -5 20
      vertex 60.5 -5 20
    endloop
  endfacet
  facet normal 0 0 1
    outer loop
      vertex 60.5 -1 20
      vertex 10 -1 20
      vertex 60.5 -5 20
    endloop
  endfacet
  facet normal -0.951057 -0.309017 0
    outer loop
      vertex 60.7076 -16.4752 50
      vertex 60.7076 -16.4752 -3.21965e-15
      vertex 61.3213 -18.364 50
    endloop
  endfacet
  facet normal -0.951057 -0.309017 0
    outer loop
      vertex 61.3213 -18.364 50
      vertex 60.7076 -16.4752 -3.21965e-15
      vertex 61.3213 -18.364 -3.21965e-15
    endloop
  endfacet
  facet normal -0.866025 -0.5 0
    outer loop
      vertex 61.3213 -18.364 50
      vertex 61.3213 -18.364 -3.21965e-15
      vertex 62.3143 -20.084 50
    endloop
  endfacet
  facet normal -0.866025 -0.5 0
    outer loop
      vertex 62.3143 -20.084 50
      vertex 61.3213 -18.364 -3.21965e-15
      vertex 62.3143 -20.084 -3.21965e-15
    endloop
  endfacet
  facet normal -0.743145 -0.66913 0
    outer loop
      vertex 62.3143 -20.084 50
      vertex 62.3143 -20.084 -3.21965e-15
      vertex 63.6433 -21.5599 50
    endloop
  endfacet
  facet normal -0.743145 -0.66913 0
    outer loop
      vertex 63.6433 -21.5599 50
      vertex 62.3143 -20.084 -3.21965e-15
      vertex 63.6433 -21.5599 -3.21965e-15
    endloop
  endfacet
  facet normal -0.587785 -0.809017 0
    outer loop
      vertex 65.25 -22.7272 50
      vertex 63.6433 -21.5599 50
      vertex 63.6433 -21.5599 -3.21965e-15
    endloop
  endfacet
  facet normal -0.587785 -0.809017 -0
    outer loop
      vertex 65.25 -22.7272 -3.21965e-15
      vertex 65.25 -22.7272 50
      vertex 63.6433 -21.5599 -3.21965e-15
    endloop
  endfacet
  facet normal -0.406737 -0.913545 0
    outer loop
      vertex 67.0643 -23.535 50
      vertex 65.25 -22.7272 50
      vertex 65.25 -22.7272 -3.21965e-15
    endloop
  endfacet
  facet normal -0.406737 -0.913545 -0
    outer loop
      vertex 67.0643 -23.535 -3.21965e-15
      vertex 67.0643 -23.535 50
      vertex 65.25 -22.7272 -3.21965e-15
    endloop
  endfacet
  facet normal -0.207912 -0.978148 0
    outer loop
      vertex 69.007 -23.948 50
      vertex 67.0643 -23.535 50
      vertex 67.0643 -23.535 -3.21965e-15
    endloop
  endfacet
  facet normal -0.207912 -0.978148 -0
    outer loop
      vertex 69.007 -23.948 -3.21965e-15
      vertex 69.007 -23.948 50
      vertex 67.0643 -23.535 -3.21965e-15
    endloop
  endfacet
  facet normal 0 -1 0
    outer loop
      vertex 70.993 -23.948 50
      vertex 69.007 -23.948 50
      vertex 69.007 -23.948 -3.21965e-15
    endloop
  endfacet
  facet normal 0 -1 0
    outer loop
      vertex 70.993 -23.948 -3.21965e-15
      vertex 70.993 -23.948 50
      vertex 69.007 -23.948 -3.21965e-15
    endloop
  endfacet
  facet normal 0.207912 -0.978148 0
    outer loop
      vertex 72.9357 -23.535 50
      vertex 70.993 -23.948 50
      vertex 70.993 -23.948 -3.21965e-15
    endloop
  endfacet
  facet normal 0.207912 -0.978148 0
    outer loop
      vertex 72.9357 -23.535 -3.21965e-15
      vertex 72.9357 -23.535 50
      vertex 70.993 -23.948 -3.21965e-15
    endloop
  endfacet
  facet normal 0.406737 -0.913545 0
    outer loop
      vertex 74.75 -22.7272 50
      vertex 72.9357 -23.535 50
      vertex 72.9357 -23.535 -3.21965e-15
    endloop
  endfacet
  facet normal 0.406737 -0.913545 0
    outer loop
      vertex 74.75 -22.7272 -3.21965e-15
      vertex 74.75 -22.7272 50
      vertex 72.9357 -23.535 -3.21965e-15
    endloop
  endfacet
  facet normal 0.587785 -0.809017 0
    outer loop
      vertex 76.3567 -21.5599 50
      vertex 74.75 -22.7272 50
      vertex 74.75 -22.7272 -3.21965e-15
    endloop
  endfacet
  facet normal 0.587785 -0.809017 0
    outer loop
      vertex 76.3567 -21.5599 -3.21965e-15
      vertex 76.3567 -21.5599 50
      vertex 74.75 -22.7272 -3.21965e-15
    endloop
  endfacet
  facet normal 0.743145 -0.66913 0
    outer loop
      vertex 77.6857 -20.084 50
      vertex 76.3567 -21.5599 50
      vertex 76.3567 -21.5599 -3.21965e-15
    endloop
  endfacet
  facet normal 0.743145 -0.66913 0
    outer loop
      vertex 77.6857 -20.084 -3.21965e-15
      vertex 77.6857 -20.084 50
      vertex 76.3567 -21.5599 -3.21965e-15
    endloop
  endfacet
  facet normal 0.866025 -0.5 0
    outer loop
      vertex 78.6787 -18.364 50
      vertex 77.6857 -20.084 50
      vertex 77.6857 -20.084 -3.21965e-15
    endloop
  endfacet
  facet normal 0.866025 -0.5 0
    outer loop
      vertex 78.6787 -18.364 -3.21965e-15
      vertex 78.6787 -18.364 50
      vertex 77.6857 -20.084 -3.21965e-15
    endloop
  endfacet
  facet normal 0.951057 -0.309017 0
    outer loop
      vertex 79.2924 -16.4752 50
      vertex 78.6787 -18.364 50
      vertex 78.6787 -18.364 -3.21965e-15
    endloop
  endfacet
  facet normal 0.951057 -0.309017 0
    outer loop
      vertex 79.2924 -16.4752 -3.21965e-15
      vertex 79.2924 -16.4752 50
      vertex 78.6787 -18.364 -3.21965e-15
    endloop
  endfacet
  facet normal -0.935016 0.354605 0
    outer loop
      vertex 77.7675 -15.9145 -3.21965e-15
      vertex 77.0836 -17.7178 -3.21965e-15
      vertex 77.7675 -15.9145 50
    endloop
  endfacet
  facet normal -0.935016 0.354605 0
    outer loop
      vertex 77.7675 -15.9145 50
      vertex 77.0836 -17.7178 -3.21965e-15
      vertex 77.0836 -17.7178 50
    endloop
  endfacet
  facet normal -0.822984 0.568065 0
    outer loop
      vertex 77.0836 -17.7178 -3.21965e-15
      vertex 75.9881 -19.305 -3.21965e-15
      vertex 77.0836 -17.7178 50
    endloop
  endfacet
  facet normal -0.822984 0.568065 0
    outer loop
      vertex 77.0836 -17.7178 50
      vertex 75.9881 -19.305 -3.21965e-15
      vertex 75.9881 -19.305 50
    endloop
  endfacet
  facet normal -0.663123 0.748511 0
    outer loop
      vertex 75.9881 -19.305 -3.21965e-15
      vertex 74.5445 -20.5839 -3.21965e-15
      vertex 75.9881 -19.305 50
    endloop
  endfacet
  facet normal -0.663123 0.748511 0
    outer loop
      vertex 75.9881 -19.305 50
      vertex 74.5445 -20.5839 -3.21965e-15
      vertex 74.5445 -20.5839 50
    endloop
  endfacet
  facet normal -0.464723 0.885456 0
    outer loop
      vertex 74.5445 -20.5839 -3.21965e-15
      vertex 72.8368 -21.4801 -3.21965e-15
      vertex 74.5445 -20.5839 50
    endloop
  endfacet
  facet normal -0.464723 0.885456 0
    outer loop
      vertex 74.5445 -20.5839 50
      vertex 72.8368 -21.4801 -3.21965e-15
      vertex 72.8368 -21.4801 50
    endloop
  endfacet
  facet normal -0.239316 0.970942 0
    outer loop
      vertex 72.8368 -21.4801 -3.21965e-15
      vertex 70.9643 -21.9417 -3.21965e-15
      vertex 72.8368 -21.4801 50
    endloop
  endfacet
  facet normal -0.239316 0.970942 0
    outer loop
      vertex 72.8368 -21.4801 50
      vertex 70.9643 -21.9417 -3.21965e-15
      vertex 70.9643 -21.9417 50
    endloop
  endfacet
  facet normal -0 1 0
    outer loop
      vertex 70.9643 -21.9417 -3.21965e-15
      vertex 69.0357 -21.9417 -3.21965e-15
      vertex 70.9643 -21.9417 50
    endloop
  endfacet
  facet normal 0 1 0
    outer loop
      vertex 70.9643 -21.9417 50
      vertex 69.0357 -21.9417 -3.21965e-15
      vertex 69.0357 -21.9417 50
    endloop
  endfacet
  facet normal 0.239316 0.970942 0
    outer loop
      vertex 69.0357 -21.9417 -3.21965e-15
      vertex 67.1632 -21.4801 -3.21965e-15
      vertex 69.0357 -21.9417 50
    endloop
  endfacet
  facet normal 0.239316 0.970942 0
    outer loop
      vertex 69.0357 -21.9417 50
      vertex 67.1632 -21.4801 -3.21965e-15
      vertex 67.1632 -21.4801 50
    endloop
  endfacet
  facet normal 0.464723 0.885456 0
    outer loop
      vertex 67.1632 -21.4801 -3.21965e-15
      vertex 65.4555 -20.5839 -3.21965e-15
      vertex 67.1632 -21.4801 50
    endloop
  endfacet
  facet normal 0.464723 0.885456 0
    outer loop
      vertex 67.1632 -21.4801 50
      vertex 65.4555 -20.5839 -3.21965e-15
      vertex 65.4555 -20.5839 50
    endloop
  endfacet
  facet normal 0.663123 0.748511 0
    outer loop
      vertex 65.4555 -20.5839 -3.21965e-15
      vertex 64.0119 -19.305 -3.21965e-15
      vertex 65.4555 -20.5839 50
    endloop
  endfacet
  facet normal 0.663123 0.748511 0
    outer loop
      vertex 65.4555 -20.5839 50
      vertex 64.0119 -19.305 -3.21965e-15
      vertex 64.0119 -19.305 50
    endloop
  endfacet
  facet normal 0.822984 0.568065 -0
    outer loop
      vertex 64.0119 -19.305 50
      vertex 64.0119 -19.305 -3.21965e-15
      vertex 62.9164 -17.7178 -3.21965e-15
    endloop
  endfacet
  facet normal 0.822984 0.568065 -0
    outer loop
      vertex 62.9164 -17.7178 50
      vertex 64.0119 -19.305 50
      vertex 62.9164 -17.7178 -3.21965e-15
    endloop
  endfacet
  facet normal 0.935016 0.354605 -0
    outer loop
      vertex 62.9164 -17.7178 50
      vertex 62.9164 -17.7178 -3.21965e-15
      vertex 62.2325 -15.9145 -3.21965e-15
    endloop
  endfacet
  facet normal 0.935016 0.354605 -0
    outer loop
      vertex 62.2325 -15.9145 50
      vertex 62.9164 -17.7178 50
      vertex 62.2325 -15.9145 -3.21965e-15
    endloop
  endfacet
endsolid OpenSCAD_Model
